<?xml version="1.0" encoding="UTF-8" standalone="no"?>
<!DOCTYPE svg PUBLIC "-//W3C//DTD SVG 1.1//EN"
 "http://www.w3.org/Graphics/SVG/1.1/DTD/svg11.dtd">
<!-- Generated by graphviz version 2.43.0 (0)
 -->
<!-- Title: FFE Pages: 1 -->
<svg width="272pt" height="668pt"
 viewBox="0.00 0.00 272.00 668.00" xmlns="http://www.w3.org/2000/svg" xmlns:xlink="http://www.w3.org/1999/xlink">
<g id="graph0" class="graph" transform="scale(1 1) rotate(0) translate(4 664)">
<title>FFE</title>
<!-- Node1 -->
<g id="Node000001" class="node">
<title>Node1</title>
<g id="a_Node000001"><a xlink:title="Linear feed&#45;forward equalizer.">
<polygon fill="#999999" stroke="transparent" points="166,-164 87,-164 87,-85 166,-85 166,-164"/>
<text text-anchor="start" x="117.5" y="-151.5" font-family="Helvetica,sans-Serif" font-size="10.00">FFE</text>
<text text-anchor="start" x="125" y="-136.5" font-family="Helvetica,sans-Serif" font-size="10.00"> </text>
<text text-anchor="start" x="91.5" y="-121.5" font-family="Helvetica,sans-Serif" font-size="10.00">+</text>
<text text-anchor="start" x="102.5" y="-121.5" font-family="Helvetica,sans-Serif" font-size="10.00">__init__()</text>
<text text-anchor="start" x="91.5" y="-106.5" font-family="Helvetica,sans-Serif" font-size="10.00">+</text>
<text text-anchor="start" x="102.5" y="-106.5" font-family="Helvetica,sans-Serif" font-size="10.00">__getitem__()</text>
<text text-anchor="start" x="92" y="-91.5" font-family="Helvetica,sans-Serif" font-size="10.00">#</text>
<text text-anchor="start" x="102.5" y="-91.5" font-family="Helvetica,sans-Serif" font-size="10.00">_Evaluate()</text>
<polygon fill="#666666" stroke="#666666" points="87.5,-146.5 87.5,-146.5 166.5,-146.5 166.5,-146.5 87.5,-146.5"/>
<polygon fill="#666666" stroke="#666666" points="87.5,-131.5 87.5,-131.5 166.5,-131.5 166.5,-131.5 87.5,-131.5"/>
<polygon fill="none" stroke="#666666" points="87,-85 87,-164 166,-164 166,-85 87,-85"/>
</a>
</g>
</g>
<!-- Node4 -->
<g id="Node000004" class="node">
<title>Node4</title>
<g id="a_Node000004"><a xlink:href="classSignalIntegrity_1_1Lib_1_1SParameters_1_1Devices_1_1GaussianRisetimeFilter_1_1GaussianRisetimeFilter.xhtml" target="_top" xlink:title="Gaussian COM based FIR filter that, when convolved with step, provides the risetime specified at the ...">
<polygon fill="white" stroke="transparent" points="113,-49 0,-49 0,0 113,0 113,-49"/>
<text text-anchor="start" x="5.5" y="-36.5" font-family="Helvetica,sans-Serif" font-size="10.00">GaussianRisetimeFilter</text>
<text text-anchor="start" x="55" y="-21.5" font-family="Helvetica,sans-Serif" font-size="10.00"> </text>
<text text-anchor="start" x="18" y="-6.5" font-family="Helvetica,sans-Serif" font-size="10.00">+</text>
<text text-anchor="start" x="42.5" y="-6.5" font-family="Helvetica,sans-Serif" font-size="10.00">__init__()</text>
<polygon fill="#666666" stroke="#666666" points="0.5,-31.5 0.5,-31.5 113.5,-31.5 113.5,-31.5 0.5,-31.5"/>
<polygon fill="#666666" stroke="#666666" points="0.5,-16.5 0.5,-16.5 113.5,-16.5 113.5,-16.5 0.5,-16.5"/>
<polygon fill="none" stroke="#666666" points="0,0 0,-49 113,-49 113,0 0,0"/>
</a>
</g>
</g>
<!-- Node1&#45;&gt;Node4 -->
<g id="edge3_Node000001_Node000004" class="edge">
<title>Node1&#45;&gt;Node4</title>
<g id="a_edge3_Node000001_Node000004"><a xlink:title=" ">
<path fill="none" stroke="#63b8ff" d="M92.89,-76.45C86.08,-66.92 79.2,-57.29 73.29,-49"/>
<polygon fill="none" stroke="#63b8ff" points="90.17,-78.66 98.83,-84.77 95.87,-74.6 90.17,-78.66"/>
</a>
</g>
</g>
<!-- Node5 -->
<g id="Node000005" class="node">
<title>Node5</title>
<g id="a_Node000005"><a xlink:href="classSignalIntegrity_1_1Lib_1_1SParameters_1_1Devices_1_1RaisedCosineRisetimeFilter_1_1RaisedCosineRisetimeFilter.xhtml" target="_top" xlink:title="Raised cosine FIR filter that, when convolved with step, provides the risetime specified at the given...">
<polygon fill="white" stroke="transparent" points="264,-49 131,-49 131,0 264,0 264,-49"/>
<text text-anchor="start" x="136.5" y="-36.5" font-family="Helvetica,sans-Serif" font-size="10.00">RaisedCosineRisetimeFilter</text>
<text text-anchor="start" x="196" y="-21.5" font-family="Helvetica,sans-Serif" font-size="10.00"> </text>
<text text-anchor="start" x="154" y="-6.5" font-family="Helvetica,sans-Serif" font-size="10.00">+</text>
<text text-anchor="start" x="183.5" y="-6.5" font-family="Helvetica,sans-Serif" font-size="10.00">__init__()</text>
<polygon fill="#666666" stroke="#666666" points="131.5,-31.5 131.5,-31.5 264.5,-31.5 264.5,-31.5 131.5,-31.5"/>
<polygon fill="#666666" stroke="#666666" points="131.5,-16.5 131.5,-16.5 264.5,-16.5 264.5,-16.5 131.5,-16.5"/>
<polygon fill="none" stroke="#666666" points="131,0 131,-49 264,-49 264,0 131,0"/>
</a>
</g>
</g>
<!-- Node1&#45;&gt;Node5 -->
<g id="edge4_Node000001_Node000005" class="edge">
<title>Node1&#45;&gt;Node5</title>
<g id="a_edge4_Node000001_Node000005"><a xlink:title=" ">
<path fill="none" stroke="#63b8ff" d="M160.59,-76.45C167.49,-66.92 174.47,-57.29 180.47,-49"/>
<polygon fill="none" stroke="#63b8ff" points="157.59,-74.62 154.56,-84.77 163.26,-78.72 157.59,-74.62"/>
</a>
</g>
</g>
<!-- Node2 -->
<g id="Node000002" class="node">
<title>Node2</title>
<g id="a_Node000002"><a xlink:href="classSignalIntegrity_1_1Lib_1_1SParameters_1_1SParameters_1_1SParameters.xhtml" target="_top" xlink:title="Class containing s&#45;parameters.">
<polygon fill="white" stroke="transparent" points="193.5,-399 59.5,-399 59.5,-200 193.5,-200 193.5,-399"/>
<text text-anchor="start" x="97.5" y="-386.5" font-family="Helvetica,sans-Serif" font-size="10.00">SParameters</text>
<text text-anchor="start" x="63.5" y="-371.5" font-family="Helvetica,sans-Serif" font-size="10.00">+</text>
<text text-anchor="start" x="74.5" y="-371.5" font-family="Helvetica,sans-Serif" font-size="10.00">header</text>
<text text-anchor="start" x="63.5" y="-356.5" font-family="Helvetica,sans-Serif" font-size="10.00">+</text>
<text text-anchor="start" x="74.5" y="-356.5" font-family="Helvetica,sans-Serif" font-size="10.00">maxTokensOnLine</text>
<text text-anchor="start" x="63.5" y="-341.5" font-family="Helvetica,sans-Serif" font-size="10.00">+</text>
<text text-anchor="start" x="74.5" y="-341.5" font-family="Helvetica,sans-Serif" font-size="10.00">__init__()</text>
<text text-anchor="start" x="63.5" y="-326.5" font-family="Helvetica,sans-Serif" font-size="10.00">+</text>
<text text-anchor="start" x="74.5" y="-326.5" font-family="Helvetica,sans-Serif" font-size="10.00">__getitem__()</text>
<text text-anchor="start" x="63.5" y="-311.5" font-family="Helvetica,sans-Serif" font-size="10.00">+</text>
<text text-anchor="start" x="74.5" y="-311.5" font-family="Helvetica,sans-Serif" font-size="10.00">__len__()</text>
<text text-anchor="start" x="63.5" y="-296.5" font-family="Helvetica,sans-Serif" font-size="10.00">+</text>
<text text-anchor="start" x="74.5" y="-296.5" font-family="Helvetica,sans-Serif" font-size="10.00">f()</text>
<text text-anchor="start" x="63.5" y="-281.5" font-family="Helvetica,sans-Serif" font-size="10.00">+</text>
<text text-anchor="start" x="74.5" y="-281.5" font-family="Helvetica,sans-Serif" font-size="10.00">Response()</text>
<text text-anchor="start" x="63.5" y="-266.5" font-family="Helvetica,sans-Serif" font-size="10.00">+</text>
<text text-anchor="start" x="74.5" y="-266.5" font-family="Helvetica,sans-Serif" font-size="10.00">FrequencyResponse()</text>
<text text-anchor="start" x="63.5" y="-251.5" font-family="Helvetica,sans-Serif" font-size="10.00">+</text>
<text text-anchor="start" x="74.5" y="-251.5" font-family="Helvetica,sans-Serif" font-size="10.00">Text()</text>
<text text-anchor="start" x="63.5" y="-236.5" font-family="Helvetica,sans-Serif" font-size="10.00">+</text>
<text text-anchor="start" x="74.5" y="-236.5" font-family="Helvetica,sans-Serif" font-size="10.00">WriteToFile()</text>
<text text-anchor="start" x="63.5" y="-221.5" font-family="Helvetica,sans-Serif" font-size="10.00">+</text>
<text text-anchor="start" x="74.5" y="-221.5" font-family="Helvetica,sans-Serif" font-size="10.00">Resample()</text>
<text text-anchor="start" x="63.5" y="-206.5" font-family="Helvetica,sans-Serif" font-size="10.00">+</text>
<text text-anchor="start" x="74.5" y="-206.5" font-family="Helvetica,sans-Serif" font-size="10.00">SetReferenceImpedance()</text>
<polygon fill="#666666" stroke="#666666" points="59.5,-381.5 59.5,-381.5 193.5,-381.5 193.5,-381.5 59.5,-381.5"/>
<polygon fill="#666666" stroke="#666666" points="59.5,-351.5 59.5,-351.5 72.5,-351.5 72.5,-351.5 59.5,-351.5"/>
<polygon fill="#666666" stroke="#666666" points="72.5,-351.5 72.5,-351.5 193.5,-351.5 193.5,-351.5 72.5,-351.5"/>
<polygon fill="none" stroke="#666666" points="59.5,-200 59.5,-399 193.5,-399 193.5,-200 59.5,-200"/>
</a>
</g>
</g>
<!-- Node2&#45;&gt;Node1 -->
<g id="edge1_Node000001_Node000002" class="edge">
<title>Node2&#45;&gt;Node1</title>
<g id="a_edge1_Node000001_Node000002"><a xlink:title=" ">
<path fill="none" stroke="#63b8ff" d="M126.5,-189.64C126.5,-180.69 126.5,-172.08 126.5,-164.23"/>
<polygon fill="none" stroke="#63b8ff" points="123,-189.87 126.5,-199.87 130,-189.87 123,-189.87"/>
</a>
</g>
</g>
<!-- Node3 -->
<g id="Node000003" class="node">
<title>Node3</title>
<g id="a_Node000003"><a xlink:href="classSignalIntegrity_1_1Lib_1_1SParameters_1_1SParameterManipulation_1_1SParameterManipulation.xhtml" target="_top" xlink:title="Class for manipulations on s&#45;parameters involving passivity, causality, etc.">
<polygon fill="white" stroke="transparent" points="216,-660 37,-660 37,-435 216,-435 216,-660"/>
<text text-anchor="start" x="73.5" y="-647.5" font-family="Helvetica,sans-Serif" font-size="10.00">SParameterManipulation</text>
<text text-anchor="start" x="125" y="-632.5" font-family="Helvetica,sans-Serif" font-size="10.00"> </text>
<text text-anchor="start" x="41.5" y="-617.5" font-family="Helvetica,sans-Serif" font-size="10.00">+</text>
<text text-anchor="start" x="52.5" y="-617.5" font-family="Helvetica,sans-Serif" font-size="10.00">EnforcePassivity()</text>
<text text-anchor="start" x="41.5" y="-602.5" font-family="Helvetica,sans-Serif" font-size="10.00">+</text>
<text text-anchor="start" x="52.5" y="-602.5" font-family="Helvetica,sans-Serif" font-size="10.00">IsCausal()</text>
<text text-anchor="start" x="41.5" y="-587.5" font-family="Helvetica,sans-Serif" font-size="10.00">+</text>
<text text-anchor="start" x="52.5" y="-587.5" font-family="Helvetica,sans-Serif" font-size="10.00">EnforceCausality()</text>
<text text-anchor="start" x="41.5" y="-572.5" font-family="Helvetica,sans-Serif" font-size="10.00">+</text>
<text text-anchor="start" x="52.5" y="-572.5" font-family="Helvetica,sans-Serif" font-size="10.00">WaveletDenoise()</text>
<text text-anchor="start" x="41.5" y="-557.5" font-family="Helvetica,sans-Serif" font-size="10.00">+</text>
<text text-anchor="start" x="52.5" y="-557.5" font-family="Helvetica,sans-Serif" font-size="10.00">PortReorder()</text>
<text text-anchor="start" x="41.5" y="-542.5" font-family="Helvetica,sans-Serif" font-size="10.00">+</text>
<text text-anchor="start" x="52.5" y="-542.5" font-family="Helvetica,sans-Serif" font-size="10.00">DetermineImpulseResponse</text>
<text text-anchor="start" x="52.5" y="-531.5" font-family="Helvetica,sans-Serif" font-size="10.00">Length()</text>
<text text-anchor="start" x="41.5" y="-516.5" font-family="Helvetica,sans-Serif" font-size="10.00">+</text>
<text text-anchor="start" x="52.5" y="-516.5" font-family="Helvetica,sans-Serif" font-size="10.00">LimitImpulseResponseLength()</text>
<text text-anchor="start" x="41.5" y="-501.5" font-family="Helvetica,sans-Serif" font-size="10.00">+</text>
<text text-anchor="start" x="52.5" y="-501.5" font-family="Helvetica,sans-Serif" font-size="10.00">EnforceReciprocity()</text>
<text text-anchor="start" x="41.5" y="-486.5" font-family="Helvetica,sans-Serif" font-size="10.00">+</text>
<text text-anchor="start" x="52.5" y="-486.5" font-family="Helvetica,sans-Serif" font-size="10.00">EnforceBothPassivityAndCausality()</text>
<text text-anchor="start" x="41.5" y="-471.5" font-family="Helvetica,sans-Serif" font-size="10.00">+</text>
<text text-anchor="start" x="52.5" y="-471.5" font-family="Helvetica,sans-Serif" font-size="10.00">EnforceAll()</text>
<text text-anchor="start" x="41.5" y="-456.5" font-family="Helvetica,sans-Serif" font-size="10.00">+</text>
<text text-anchor="start" x="52.5" y="-456.5" font-family="Helvetica,sans-Serif" font-size="10.00">RemoveImpulseResponseOffset()</text>
<text text-anchor="start" x="41.5" y="-441.5" font-family="Helvetica,sans-Serif" font-size="10.00">+</text>
<text text-anchor="start" x="52.5" y="-441.5" font-family="Helvetica,sans-Serif" font-size="10.00">Taper()</text>
<polygon fill="#666666" stroke="#666666" points="37.5,-642.5 37.5,-642.5 216.5,-642.5 216.5,-642.5 37.5,-642.5"/>
<polygon fill="#666666" stroke="#666666" points="37.5,-627.5 37.5,-627.5 216.5,-627.5 216.5,-627.5 37.5,-627.5"/>
<polygon fill="none" stroke="#666666" points="37,-435 37,-660 216,-660 216,-435 37,-435"/>
</a>
</g>
</g>
<!-- Node3&#45;&gt;Node2 -->
<g id="edge2_Node000002_Node000003" class="edge">
<title>Node3&#45;&gt;Node2</title>
<g id="a_edge2_Node000002_Node000003"><a xlink:title=" ">
<path fill="none" stroke="#63b8ff" d="M126.5,-424.4C126.5,-415.97 126.5,-407.55 126.5,-399.27"/>
<polygon fill="none" stroke="#63b8ff" points="123,-424.66 126.5,-434.66 130,-424.66 123,-424.66"/>
</a>
</g>
</g>
</g>
</svg>
