<?xml version="1.0" encoding="UTF-8" standalone="no"?>
<!DOCTYPE svg PUBLIC "-//W3C//DTD SVG 1.1//EN"
 "http://www.w3.org/Graphics/SVG/1.1/DTD/svg11.dtd">
<!-- Generated by graphviz version 2.43.0 (0)
 -->
<!-- Title: VirtualProbe Pages: 1 -->
<svg width="244pt" height="652pt"
 viewBox="0.00 0.00 243.50 652.00" xmlns="http://www.w3.org/2000/svg" xmlns:xlink="http://www.w3.org/1999/xlink">
<g id="graph0" class="graph" transform="scale(1 1) rotate(0) translate(4 648)">
<title>VirtualProbe</title>
<!-- Node1 -->
<g id="Node000001" class="node">
<title>Node1</title>
<g id="a_Node000001"><a xlink:title="Base class for virtual probing.">
<polygon fill="#999999" stroke="transparent" points="166.5,-194 60.5,-194 60.5,-115 166.5,-115 166.5,-194"/>
<text text-anchor="start" x="86.5" y="-181.5" font-family="Helvetica,sans-Serif" font-size="10.00">VirtualProbe</text>
<text text-anchor="start" x="111.5" y="-166.5" font-family="Helvetica,sans-Serif" font-size="10.00"> </text>
<text text-anchor="start" x="64.5" y="-151.5" font-family="Helvetica,sans-Serif" font-size="10.00">+</text>
<text text-anchor="start" x="75.5" y="-151.5" font-family="Helvetica,sans-Serif" font-size="10.00">__init__()</text>
<text text-anchor="start" x="64.5" y="-136.5" font-family="Helvetica,sans-Serif" font-size="10.00">+</text>
<text text-anchor="start" x="75.5" y="-136.5" font-family="Helvetica,sans-Serif" font-size="10.00">pMeasurementList()</text>
<text text-anchor="start" x="64.5" y="-121.5" font-family="Helvetica,sans-Serif" font-size="10.00">+</text>
<text text-anchor="start" x="75.5" y="-121.5" font-family="Helvetica,sans-Serif" font-size="10.00">pStimDef()</text>
<polygon fill="#666666" stroke="#666666" points="60.5,-176.5 60.5,-176.5 166.5,-176.5 166.5,-176.5 60.5,-176.5"/>
<polygon fill="#666666" stroke="#666666" points="60.5,-161.5 60.5,-161.5 166.5,-161.5 166.5,-161.5 60.5,-161.5"/>
<polygon fill="none" stroke="#666666" points="60.5,-115 60.5,-194 166.5,-194 166.5,-115 60.5,-115"/>
</a>
</g>
</g>
<!-- Node5 -->
<g id="Node000005" class="node">
<title>Node5</title>
<g id="a_Node000005"><a xlink:href="classSignalIntegrity_1_1Lib_1_1SystemDescriptions_1_1VirtualProbeNumeric_1_1VirtualProbeNumeric.xhtml" target="_top" xlink:title="class for performing virtual probing numerically.">
<polygon fill="white" stroke="transparent" points="101,-71.5 0,-71.5 0,-7.5 101,-7.5 101,-71.5"/>
<text text-anchor="start" x="5.5" y="-59.5" font-family="Helvetica,sans-Serif" font-size="10.00">VirtualProbeNumeric</text>
<text text-anchor="start" x="49" y="-44.5" font-family="Helvetica,sans-Serif" font-size="10.00"> </text>
<text text-anchor="start" x="7.5" y="-29.5" font-family="Helvetica,sans-Serif" font-size="10.00">+</text>
<text text-anchor="start" x="21.5" y="-29.5" font-family="Helvetica,sans-Serif" font-size="10.00">__init__()</text>
<text text-anchor="start" x="7.5" y="-14.5" font-family="Helvetica,sans-Serif" font-size="10.00">+</text>
<text text-anchor="start" x="21.5" y="-14.5" font-family="Helvetica,sans-Serif" font-size="10.00">TransferMatrix()</text>
<polygon fill="#666666" stroke="#666666" points="0.5,-54.5 0.5,-54.5 101.5,-54.5 101.5,-54.5 0.5,-54.5"/>
<polygon fill="#666666" stroke="#666666" points="0.5,-39.5 0.5,-39.5 101.5,-39.5 101.5,-39.5 0.5,-39.5"/>
<polygon fill="none" stroke="#666666" points="0,-7.5 0,-71.5 101,-71.5 101,-7.5 0,-7.5"/>
</a>
</g>
</g>
<!-- Node1&#45;&gt;Node5 -->
<g id="edge4_Node000001_Node000005" class="edge">
<title>Node1&#45;&gt;Node5</title>
<g id="a_edge4_Node000001_Node000005"><a xlink:title=" ">
<path fill="none" stroke="#63b8ff" d="M87.12,-106.19C80.65,-94.57 73.88,-82.43 67.94,-71.79"/>
<polygon fill="none" stroke="#63b8ff" points="84.07,-107.9 92,-114.93 90.18,-104.49 84.07,-107.9"/>
</a>
</g>
</g>
<!-- Node6 -->
<g id="Node000006" class="node">
<title>Node6</title>
<g id="a_Node000006"><a xlink:href="classSignalIntegrity_1_1Lib_1_1SystemDescriptions_1_1VirtualProbeSymbolic_1_1VirtualProbeSymbolic.xhtml" target="_top" xlink:title="Class that provides symbolic solutions to virtual probe problems.">
<polygon fill="white" stroke="transparent" points="235.5,-79 119.5,-79 119.5,0 235.5,0 235.5,-79"/>
<text text-anchor="start" x="130.5" y="-66.5" font-family="Helvetica,sans-Serif" font-size="10.00">VirtualProbeSymbolic</text>
<text text-anchor="start" x="175.5" y="-51.5" font-family="Helvetica,sans-Serif" font-size="10.00"> </text>
<text text-anchor="start" x="123.5" y="-36.5" font-family="Helvetica,sans-Serif" font-size="10.00">+</text>
<text text-anchor="start" x="134.5" y="-36.5" font-family="Helvetica,sans-Serif" font-size="10.00">__init__()</text>
<text text-anchor="start" x="123.5" y="-21.5" font-family="Helvetica,sans-Serif" font-size="10.00">+</text>
<text text-anchor="start" x="134.5" y="-21.5" font-family="Helvetica,sans-Serif" font-size="10.00">LaTeXTransferMatrix()</text>
<text text-anchor="start" x="123.5" y="-6.5" font-family="Helvetica,sans-Serif" font-size="10.00">+</text>
<text text-anchor="start" x="134.5" y="-6.5" font-family="Helvetica,sans-Serif" font-size="10.00">LaTeXEquations()</text>
<polygon fill="#666666" stroke="#666666" points="119.5,-61.5 119.5,-61.5 235.5,-61.5 235.5,-61.5 119.5,-61.5"/>
<polygon fill="#666666" stroke="#666666" points="119.5,-46.5 119.5,-46.5 235.5,-46.5 235.5,-46.5 119.5,-46.5"/>
<polygon fill="none" stroke="#666666" points="119.5,0 119.5,-79 235.5,-79 235.5,0 119.5,0"/>
</a>
</g>
</g>
<!-- Node1&#45;&gt;Node6 -->
<g id="edge5_Node000001_Node000006" class="edge">
<title>Node1&#45;&gt;Node6</title>
<g id="a_edge5_Node000001_Node000006"><a xlink:title=" ">
<path fill="none" stroke="#63b8ff" d="M140.33,-106.12C145.4,-97.18 150.64,-87.92 155.53,-79.28"/>
<polygon fill="none" stroke="#63b8ff" points="137.23,-104.5 135.35,-114.93 143.32,-107.95 137.23,-104.5"/>
</a>
</g>
</g>
<!-- Node2 -->
<g id="Node000002" class="node">
<title>Node2</title>
<g id="a_Node000002"><a xlink:href="classSignalIntegrity_1_1Lib_1_1SystemDescriptions_1_1Simulator_1_1Simulator.xhtml" target="_top" xlink:title="Base class for dealing with housekeeping for simulations.">
<polygon fill="white" stroke="transparent" points="167,-324 60,-324 60,-230 167,-230 167,-324"/>
<text text-anchor="start" x="93" y="-312" font-family="Helvetica,sans-Serif" font-size="10.00">Simulator</text>
<text text-anchor="start" x="112" y="-297" font-family="Helvetica,sans-Serif" font-size="10.00"> </text>
<text text-anchor="start" x="64.5" y="-282" font-family="Helvetica,sans-Serif" font-size="10.00">+</text>
<text text-anchor="start" x="75.5" y="-282" font-family="Helvetica,sans-Serif" font-size="10.00">__init__()</text>
<text text-anchor="start" x="64.5" y="-267" font-family="Helvetica,sans-Serif" font-size="10.00">+</text>
<text text-anchor="start" x="75.5" y="-267" font-family="Helvetica,sans-Serif" font-size="10.00">pOutputList()</text>
<text text-anchor="start" x="64.5" y="-252" font-family="Helvetica,sans-Serif" font-size="10.00">+</text>
<text text-anchor="start" x="75.5" y="-252" font-family="Helvetica,sans-Serif" font-size="10.00">AddVoltageSource()</text>
<text text-anchor="start" x="64.5" y="-237" font-family="Helvetica,sans-Serif" font-size="10.00">+</text>
<text text-anchor="start" x="75.5" y="-237" font-family="Helvetica,sans-Serif" font-size="10.00">AddCurrentSource()</text>
<polygon fill="#666666" stroke="#666666" points="60.5,-307 60.5,-307 167.5,-307 167.5,-307 60.5,-307"/>
<polygon fill="#666666" stroke="#666666" points="60.5,-292 60.5,-292 167.5,-292 167.5,-292 60.5,-292"/>
<polygon fill="none" stroke="#666666" points="60,-230 60,-324 167,-324 167,-230 60,-230"/>
</a>
</g>
</g>
<!-- Node2&#45;&gt;Node1 -->
<g id="edge1_Node000001_Node000002" class="edge">
<title>Node2&#45;&gt;Node1</title>
<g id="a_edge1_Node000001_Node000002"><a xlink:title=" ">
<path fill="none" stroke="#63b8ff" d="M113.5,-219.49C113.5,-210.99 113.5,-202.39 113.5,-194.37"/>
<polygon fill="none" stroke="#63b8ff" points="110,-219.76 113.5,-229.76 117,-219.76 110,-219.76"/>
</a>
</g>
</g>
<!-- Node3 -->
<g id="Node000003" class="node">
<title>Node3</title>
<g id="a_Node000003"><a xlink:href="classSignalIntegrity_1_1Lib_1_1SystemDescriptions_1_1SystemSParameters_1_1SystemSParameters.xhtml" target="_top" xlink:title="base class for housekeeping involving system s&#45;parameters calculations">
<polygon fill="white" stroke="transparent" points="164,-424 63,-424 63,-360 164,-360 164,-424"/>
<text text-anchor="start" x="68.5" y="-412" font-family="Helvetica,sans-Serif" font-size="10.00">SystemSParameters</text>
<text text-anchor="start" x="112" y="-397" font-family="Helvetica,sans-Serif" font-size="10.00"> </text>
<text text-anchor="start" x="70.5" y="-382" font-family="Helvetica,sans-Serif" font-size="10.00">+</text>
<text text-anchor="start" x="84.5" y="-382" font-family="Helvetica,sans-Serif" font-size="10.00">__init__()</text>
<text text-anchor="start" x="71" y="-367" font-family="Helvetica,sans-Serif" font-size="10.00">#</text>
<text text-anchor="start" x="84.5" y="-367" font-family="Helvetica,sans-Serif" font-size="10.00">WeightsMatrix()</text>
<polygon fill="#666666" stroke="#666666" points="63.5,-407 63.5,-407 164.5,-407 164.5,-407 63.5,-407"/>
<polygon fill="#666666" stroke="#666666" points="63.5,-392 63.5,-392 164.5,-392 164.5,-392 63.5,-392"/>
<polygon fill="none" stroke="#666666" points="63,-360 63,-424 164,-424 164,-360 63,-360"/>
</a>
</g>
</g>
<!-- Node3&#45;&gt;Node2 -->
<g id="edge2_Node000002_Node000003" class="edge">
<title>Node3&#45;&gt;Node2</title>
<g id="a_edge2_Node000002_Node000003"><a xlink:title=" ">
<path fill="none" stroke="#63b8ff" d="M113.5,-349.68C113.5,-341.43 113.5,-332.72 113.5,-324.31"/>
<polygon fill="none" stroke="#63b8ff" points="110,-349.82 113.5,-359.82 117,-349.82 110,-349.82"/>
</a>
</g>
</g>
<!-- Node4 -->
<g id="Node000004" class="node">
<title>Node4</title>
<g id="a_Node000004"><a xlink:href="classSignalIntegrity_1_1Lib_1_1SystemDescriptions_1_1SystemDescription_1_1SystemDescription.xhtml" target="_top" xlink:title="Allows the construction of system descriptions for use with all of the classes that solve schematics ...">
<polygon fill="white" stroke="transparent" points="170,-644 57,-644 57,-460 170,-460 170,-644"/>
<text text-anchor="start" x="72" y="-632" font-family="Helvetica,sans-Serif" font-size="10.00">SystemDescription</text>
<text text-anchor="start" x="112" y="-617" font-family="Helvetica,sans-Serif" font-size="10.00"> </text>
<text text-anchor="start" x="61.5" y="-602" font-family="Helvetica,sans-Serif" font-size="10.00">+</text>
<text text-anchor="start" x="72.5" y="-602" font-family="Helvetica,sans-Serif" font-size="10.00">__init__()</text>
<text text-anchor="start" x="61.5" y="-587" font-family="Helvetica,sans-Serif" font-size="10.00">+</text>
<text text-anchor="start" x="72.5" y="-587" font-family="Helvetica,sans-Serif" font-size="10.00">AddDevice()</text>
<text text-anchor="start" x="61.5" y="-572" font-family="Helvetica,sans-Serif" font-size="10.00">+</text>
<text text-anchor="start" x="72.5" y="-572" font-family="Helvetica,sans-Serif" font-size="10.00">AssignM()</text>
<text text-anchor="start" x="61.5" y="-557" font-family="Helvetica,sans-Serif" font-size="10.00">+</text>
<text text-anchor="start" x="72.5" y="-557" font-family="Helvetica,sans-Serif" font-size="10.00">DeviceNames()</text>
<text text-anchor="start" x="61.5" y="-542" font-family="Helvetica,sans-Serif" font-size="10.00">+</text>
<text text-anchor="start" x="72.5" y="-542" font-family="Helvetica,sans-Serif" font-size="10.00">IndexOfDevice()</text>
<text text-anchor="start" x="61.5" y="-527" font-family="Helvetica,sans-Serif" font-size="10.00">+</text>
<text text-anchor="start" x="72.5" y="-527" font-family="Helvetica,sans-Serif" font-size="10.00">CheckConnections()</text>
<text text-anchor="start" x="61.5" y="-512" font-family="Helvetica,sans-Serif" font-size="10.00">+</text>
<text text-anchor="start" x="72.5" y="-512" font-family="Helvetica,sans-Serif" font-size="10.00">ConnectDevicePort()</text>
<text text-anchor="start" x="61.5" y="-497" font-family="Helvetica,sans-Serif" font-size="10.00">+</text>
<text text-anchor="start" x="72.5" y="-497" font-family="Helvetica,sans-Serif" font-size="10.00">AddPort()</text>
<text text-anchor="start" x="61.5" y="-482" font-family="Helvetica,sans-Serif" font-size="10.00">+</text>
<text text-anchor="start" x="72.5" y="-482" font-family="Helvetica,sans-Serif" font-size="10.00">AssignSParameters()</text>
<text text-anchor="start" x="61.5" y="-467" font-family="Helvetica,sans-Serif" font-size="10.00">+</text>
<text text-anchor="start" x="72.5" y="-467" font-family="Helvetica,sans-Serif" font-size="10.00">Print()</text>
<polygon fill="#666666" stroke="#666666" points="57.5,-627 57.5,-627 170.5,-627 170.5,-627 57.5,-627"/>
<polygon fill="#666666" stroke="#666666" points="57.5,-612 57.5,-612 170.5,-612 170.5,-612 57.5,-612"/>
<polygon fill="none" stroke="#666666" points="57,-460 57,-644 170,-644 170,-460 57,-460"/>
</a>
</g>
</g>
<!-- Node4&#45;&gt;Node3 -->
<g id="edge3_Node000003_Node000004" class="edge">
<title>Node4&#45;&gt;Node3</title>
<g id="a_edge3_Node000003_Node000004"><a xlink:title=" ">
<path fill="none" stroke="#63b8ff" d="M113.5,-449.26C113.5,-440.29 113.5,-431.74 113.5,-424.14"/>
<polygon fill="none" stroke="#63b8ff" points="110,-449.55 113.5,-459.55 117,-449.55 110,-449.55"/>
</a>
</g>
</g>
</g>
</svg>
