<?xml version="1.0" encoding="UTF-8" standalone="no"?>
<!DOCTYPE svg PUBLIC "-//W3C//DTD SVG 1.1//EN"
 "http://www.w3.org/Graphics/SVG/1.1/DTD/svg11.dtd">
<!-- Generated by graphviz version 2.43.0 (0)
 -->
<!-- Title: WaveletDenoiser Pages: 1 -->
<svg width="119pt" height="57pt"
 viewBox="0.00 0.00 119.00 57.00" xmlns="http://www.w3.org/2000/svg" xmlns:xlink="http://www.w3.org/1999/xlink">
<g id="graph0" class="graph" transform="scale(1 1) rotate(0) translate(4 53)">
<title>WaveletDenoiser</title>
<!-- Node1 -->
<g id="Node000001" class="node">
<title>Node1</title>
<g id="a_Node000001"><a xlink:title="performs wavelet denoising">
<polygon fill="#999999" stroke="transparent" points="111,-49 0,-49 0,0 111,0 111,-49"/>
<text text-anchor="start" x="18.5" y="-36.5" font-family="Helvetica,sans-Serif" font-size="10.00">WaveletDenoiser</text>
<text text-anchor="start" x="4.5" y="-21.5" font-family="Helvetica,sans-Serif" font-size="10.00">+</text>
<text text-anchor="start" x="15.5" y="-21.5" font-family="Helvetica,sans-Serif" font-size="10.00">wavelet</text>
<text text-anchor="start" x="4.5" y="-6.5" font-family="Helvetica,sans-Serif" font-size="10.00">+</text>
<text text-anchor="start" x="15.5" y="-6.5" font-family="Helvetica,sans-Serif" font-size="10.00">DenoisedWaveform()</text>
<polygon fill="#666666" stroke="#666666" points="0.5,-31.5 0.5,-31.5 111.5,-31.5 111.5,-31.5 0.5,-31.5"/>
<polygon fill="#666666" stroke="#666666" points="0.5,-16.5 0.5,-16.5 13.5,-16.5 13.5,-16.5 0.5,-16.5"/>
<polygon fill="#666666" stroke="#666666" points="13.5,-16.5 13.5,-16.5 111.5,-16.5 111.5,-16.5 13.5,-16.5"/>
<polygon fill="none" stroke="#666666" points="0,0 0,-49 111,-49 111,0 0,0"/>
</a>
</g>
</g>
</g>
</svg>
