<?xml version="1.0" encoding="UTF-8" standalone="no"?>
<!DOCTYPE svg PUBLIC "-//W3C//DTD SVG 1.1//EN"
 "http://www.w3.org/Graphics/SVG/1.1/DTD/svg11.dtd">
<!-- Generated by graphviz version 2.40.1 (20161225.0304)
 -->
<!-- Title: Waveform Pages: 1 -->
<svg width="821pt" height="441pt"
 viewBox="0.00 0.00 820.50 441.00" xmlns="http://www.w3.org/2000/svg" xmlns:xlink="http://www.w3.org/1999/xlink">
<g id="graph0" class="graph" transform="scale(1 1) rotate(0) translate(4 437)">
<title>Waveform</title>
<polygon fill="#ffffff" stroke="transparent" points="-4,4 -4,-437 816.5,-437 816.5,4 -4,4"/>
<!-- Node0 -->
<g id="node1" class="node">
<title>Node0</title>
<polygon fill="#bfbfbf" stroke="#000000" points="415,-243.5 415,-432.5 514,-432.5 514,-243.5 415,-243.5"/>
<text text-anchor="middle" x="464.5" y="-420.5" font-family="Helvetica,sans-Serif" font-size="10.00" fill="#000000">Waveform</text>
<polyline fill="none" stroke="#000000" points="415,-413.5 514,-413.5 "/>
<text text-anchor="start" x="423" y="-401.5" font-family="Helvetica,sans-Serif" font-size="10.00" fill="#000000">+ td</text>
<text text-anchor="start" x="423" y="-390.5" font-family="Helvetica,sans-Serif" font-size="10.00" fill="#000000">+ adaptionStrategy</text>
<text text-anchor="start" x="423" y="-379.5" font-family="Helvetica,sans-Serif" font-size="10.00" fill="#000000">+ epsilon</text>
<polyline fill="none" stroke="#000000" points="415,-372.5 514,-372.5 "/>
<text text-anchor="start" x="423" y="-360.5" font-family="Helvetica,sans-Serif" font-size="10.00" fill="#000000">+ __init__()</text>
<text text-anchor="start" x="423" y="-349.5" font-family="Helvetica,sans-Serif" font-size="10.00" fill="#000000">+ Times()</text>
<text text-anchor="start" x="423" y="-338.5" font-family="Helvetica,sans-Serif" font-size="10.00" fill="#000000">+ TimeDescriptor()</text>
<text text-anchor="start" x="423" y="-327.5" font-family="Helvetica,sans-Serif" font-size="10.00" fill="#000000">+ Values()</text>
<text text-anchor="start" x="423" y="-316.5" font-family="Helvetica,sans-Serif" font-size="10.00" fill="#000000">+ OffsetBy()</text>
<text text-anchor="start" x="423" y="-305.5" font-family="Helvetica,sans-Serif" font-size="10.00" fill="#000000">+ DelayBy()</text>
<text text-anchor="start" x="423" y="-294.5" font-family="Helvetica,sans-Serif" font-size="10.00" fill="#000000">+ __add__()</text>
<text text-anchor="start" x="423" y="-283.5" font-family="Helvetica,sans-Serif" font-size="10.00" fill="#000000">+ __sub__()</text>
<text text-anchor="start" x="423" y="-272.5" font-family="Helvetica,sans-Serif" font-size="10.00" fill="#000000">+ __radd__()</text>
<text text-anchor="start" x="423" y="-261.5" font-family="Helvetica,sans-Serif" font-size="10.00" fill="#000000">+ __mul__()</text>
<text text-anchor="start" x="423" y="-250.5" font-family="Helvetica,sans-Serif" font-size="10.00" fill="#000000">and 11 more...</text>
</g>
<!-- Node1 -->
<g id="node2" class="node">
<title>Node1</title>
<g id="a_node2"><a xlink:href="classSignalIntegrity_1_1Lib_1_1ImpedanceProfile_1_1ImpedanceProfileWaveform_1_1ImpedanceProfileWaveform.xhtml" target="_top" xlink:title="Computes the impedance profile waveform from a set of s&#45;parameters using the port specified...">
<polygon fill="#ffffff" stroke="#000000" points="0,-116.5 0,-184.5 137,-184.5 137,-116.5 0,-116.5"/>
<text text-anchor="middle" x="68.5" y="-172.5" font-family="Helvetica,sans-Serif" font-size="10.00" fill="#000000">ImpedanceProfileWaveform</text>
<polyline fill="none" stroke="#000000" points="0,-165.5 137,-165.5 "/>
<text text-anchor="start" x="8" y="-153.5" font-family="Helvetica,sans-Serif" font-size="10.00" fill="#000000">+ rhoLimit</text>
<text text-anchor="start" x="8" y="-142.5" font-family="Helvetica,sans-Serif" font-size="10.00" fill="#000000">+ ZLimit</text>
<polyline fill="none" stroke="#000000" points="0,-135.5 137,-135.5 "/>
<text text-anchor="start" x="8" y="-123.5" font-family="Helvetica,sans-Serif" font-size="10.00" fill="#000000">+ __init__()</text>
</a>
</g>
</g>
<!-- Node0&#45;&gt;Node1 -->
<g id="edge1" class="edge">
<title>Node0&#45;&gt;Node1</title>
<path fill="none" stroke="#191970" d="M405.1702,-318.3146C339.8093,-295.5551 232.5543,-255.0027 146.5,-207 134.8178,-200.4834 122.8198,-192.5221 111.8442,-184.6555"/>
<polygon fill="none" stroke="#191970" points="404.3016,-321.7175 414.8964,-321.6775 406.5891,-315.1018 404.3016,-321.7175"/>
</g>
<!-- Node2 -->
<g id="node3" class="node">
<title>Node2</title>
<g id="a_node3"><a xlink:href="classSignalIntegrity_1_1Lib_1_1Prbs_1_1SerialDataWaveform_1_1SerialDataWaveform.xhtml" target="_top" xlink:title="a serial data NRZ waveform ">
<polygon fill="#ffffff" stroke="#000000" points="155,-116.5 155,-184.5 262,-184.5 262,-116.5 155,-116.5"/>
<text text-anchor="middle" x="208.5" y="-172.5" font-family="Helvetica,sans-Serif" font-size="10.00" fill="#000000">SerialDataWaveform</text>
<polyline fill="none" stroke="#000000" points="155,-165.5 262,-165.5 "/>
<text text-anchor="start" x="163" y="-153.5" font-family="Helvetica,sans-Serif" font-size="10.00" fill="#000000">+ rtvsT</text>
<polyline fill="none" stroke="#000000" points="155,-146.5 262,-146.5 "/>
<text text-anchor="start" x="163" y="-134.5" font-family="Helvetica,sans-Serif" font-size="10.00" fill="#000000">+ __init__()</text>
<text text-anchor="start" x="163" y="-123.5" font-family="Helvetica,sans-Serif" font-size="10.00" fill="#000000">+ TimeDescriptor()</text>
</a>
</g>
</g>
<!-- Node0&#45;&gt;Node2 -->
<g id="edge2" class="edge">
<title>Node0&#45;&gt;Node2</title>
<path fill="none" stroke="#191970" d="M406.2032,-301.3659C367.1479,-276.1195 315.0958,-241.0936 271.5,-207 262.5888,-200.0311 253.3387,-192.1429 244.7597,-184.5189"/>
<polygon fill="none" stroke="#191970" points="404.5294,-304.451 414.8322,-306.9217 408.3189,-298.5654 404.5294,-304.451"/>
</g>
<!-- Node5 -->
<g id="node6" class="node">
<title>Node5</title>
<g id="a_node6"><a xlink:href="classSignalIntegrity_1_1Lib_1_1TimeDomain_1_1Waveform_1_1ImpulseResponse_1_1ImpulseResponse.xhtml" target="_top" xlink:title="impulse response of a filter as a waveform ">
<polygon fill="#ffffff" stroke="#000000" points="280.5,-94.5 280.5,-206.5 402.5,-206.5 402.5,-94.5 280.5,-94.5"/>
<text text-anchor="middle" x="341.5" y="-194.5" font-family="Helvetica,sans-Serif" font-size="10.00" fill="#000000">ImpulseResponse</text>
<polyline fill="none" stroke="#000000" points="280.5,-187.5 402.5,-187.5 "/>
<text text-anchor="middle" x="341.5" y="-175.5" font-family="Helvetica,sans-Serif" font-size="10.00" fill="#000000"> </text>
<polyline fill="none" stroke="#000000" points="280.5,-168.5 402.5,-168.5 "/>
<text text-anchor="start" x="288.5" y="-156.5" font-family="Helvetica,sans-Serif" font-size="10.00" fill="#000000">+ __init__()</text>
<text text-anchor="start" x="288.5" y="-145.5" font-family="Helvetica,sans-Serif" font-size="10.00" fill="#000000">+ DelayBy()</text>
<text text-anchor="start" x="288.5" y="-134.5" font-family="Helvetica,sans-Serif" font-size="10.00" fill="#000000">+ FrequencyResponse()</text>
<text text-anchor="start" x="288.5" y="-123.5" font-family="Helvetica,sans-Serif" font-size="10.00" fill="#000000">+ Resample()</text>
<text text-anchor="start" x="288.5" y="-112.5" font-family="Helvetica,sans-Serif" font-size="10.00" fill="#000000">+ TrimToThreshold()</text>
<text text-anchor="start" x="288.5" y="-101.5" font-family="Helvetica,sans-Serif" font-size="10.00" fill="#000000">+ FirFilter()</text>
</a>
</g>
</g>
<!-- Node0&#45;&gt;Node5 -->
<g id="edge5" class="edge">
<title>Node0&#45;&gt;Node5</title>
<path fill="none" stroke="#191970" d="M409.0668,-253.4982C398.6434,-237.6088 387.9852,-221.3616 378.3058,-206.6063"/>
<polygon fill="none" stroke="#191970" points="406.4141,-255.8354 414.8257,-262.277 412.2671,-251.9958 406.4141,-255.8354"/>
</g>
<!-- Node6 -->
<g id="node7" class="node">
<title>Node6</title>
<g id="a_node7"><a xlink:href="classSignalIntegrity_1_1Lib_1_1TimeDomain_1_1Waveform_1_1NoiseWaveform_1_1NoiseWaveform.xhtml" target="_top" xlink:title="noise waveform ">
<polygon fill="#ffffff" stroke="#000000" points="421,-122 421,-179 508,-179 508,-122 421,-122"/>
<text text-anchor="middle" x="464.5" y="-167" font-family="Helvetica,sans-Serif" font-size="10.00" fill="#000000">NoiseWaveform</text>
<polyline fill="none" stroke="#000000" points="421,-160 508,-160 "/>
<text text-anchor="middle" x="464.5" y="-148" font-family="Helvetica,sans-Serif" font-size="10.00" fill="#000000"> </text>
<polyline fill="none" stroke="#000000" points="421,-141 508,-141 "/>
<text text-anchor="start" x="429" y="-129" font-family="Helvetica,sans-Serif" font-size="10.00" fill="#000000">+ __init__()</text>
</a>
</g>
</g>
<!-- Node0&#45;&gt;Node6 -->
<g id="edge6" class="edge">
<title>Node0&#45;&gt;Node6</title>
<path fill="none" stroke="#191970" d="M464.5,-233.2668C464.5,-213.3015 464.5,-194.01 464.5,-179.0816"/>
<polygon fill="none" stroke="#191970" points="461.0001,-233.426 464.5,-243.426 468.0001,-233.4261 461.0001,-233.426"/>
</g>
<!-- Node7 -->
<g id="node8" class="node">
<title>Node7</title>
<g id="a_node8"><a xlink:href="classSignalIntegrity_1_1Lib_1_1TimeDomain_1_1Waveform_1_1PulseWaveform_1_1PulseWaveform.xhtml" target="_top" xlink:title="pulse waveform ">
<polygon fill="#ffffff" stroke="#000000" points="526.5,-122 526.5,-179 612.5,-179 612.5,-122 526.5,-122"/>
<text text-anchor="middle" x="569.5" y="-167" font-family="Helvetica,sans-Serif" font-size="10.00" fill="#000000">PulseWaveform</text>
<polyline fill="none" stroke="#000000" points="526.5,-160 612.5,-160 "/>
<text text-anchor="middle" x="569.5" y="-148" font-family="Helvetica,sans-Serif" font-size="10.00" fill="#000000"> </text>
<polyline fill="none" stroke="#000000" points="526.5,-141 612.5,-141 "/>
<text text-anchor="start" x="534.5" y="-129" font-family="Helvetica,sans-Serif" font-size="10.00" fill="#000000">+ __init__()</text>
</a>
</g>
</g>
<!-- Node0&#45;&gt;Node7 -->
<g id="edge7" class="edge">
<title>Node0&#45;&gt;Node7</title>
<path fill="none" stroke="#191970" d="M519.087,-240.5233C531.6583,-218.0745 544.0698,-195.911 553.4322,-179.1925"/>
<polygon fill="none" stroke="#191970" points="515.9113,-239.0309 514.079,-249.4661 522.0188,-242.4512 515.9113,-239.0309"/>
</g>
<!-- Node8 -->
<g id="node9" class="node">
<title>Node8</title>
<g id="a_node9"><a xlink:href="classSignalIntegrity_1_1Lib_1_1TimeDomain_1_1Waveform_1_1SineWaveform_1_1SineWaveform.xhtml" target="_top" xlink:title="sinewave waveform ">
<polygon fill="#ffffff" stroke="#000000" points="631,-122 631,-179 712,-179 712,-122 631,-122"/>
<text text-anchor="middle" x="671.5" y="-167" font-family="Helvetica,sans-Serif" font-size="10.00" fill="#000000">SineWaveform</text>
<polyline fill="none" stroke="#000000" points="631,-160 712,-160 "/>
<text text-anchor="middle" x="671.5" y="-148" font-family="Helvetica,sans-Serif" font-size="10.00" fill="#000000"> </text>
<polyline fill="none" stroke="#000000" points="631,-141 712,-141 "/>
<text text-anchor="start" x="639" y="-129" font-family="Helvetica,sans-Serif" font-size="10.00" fill="#000000">+ __init__()</text>
</a>
</g>
</g>
<!-- Node0&#45;&gt;Node8 -->
<g id="edge8" class="edge">
<title>Node0&#45;&gt;Node8</title>
<path fill="none" stroke="#191970" d="M522.2299,-293.3033C552.7077,-268.8567 590.1774,-237.4249 621.5,-207 630.4259,-198.33 639.6126,-188.3141 647.6374,-179.1451"/>
<polygon fill="none" stroke="#191970" points="519.8682,-290.7102 514.2362,-299.6841 524.2352,-296.181 519.8682,-290.7102"/>
</g>
<!-- Node9 -->
<g id="node10" class="node">
<title>Node9</title>
<g id="a_node10"><a xlink:href="classSignalIntegrity_1_1Lib_1_1TimeDomain_1_1Waveform_1_1StepWaveform_1_1StepWaveform.xhtml" target="_top" xlink:title="step waveform ">
<polygon fill="#ffffff" stroke="#000000" points="730.5,-122 730.5,-179 812.5,-179 812.5,-122 730.5,-122"/>
<text text-anchor="middle" x="771.5" y="-167" font-family="Helvetica,sans-Serif" font-size="10.00" fill="#000000">StepWaveform</text>
<polyline fill="none" stroke="#000000" points="730.5,-160 812.5,-160 "/>
<text text-anchor="start" x="738.5" y="-148" font-family="Helvetica,sans-Serif" font-size="10.00" fill="#000000">+ rtvsT</text>
<polyline fill="none" stroke="#000000" points="730.5,-141 812.5,-141 "/>
<text text-anchor="start" x="738.5" y="-129" font-family="Helvetica,sans-Serif" font-size="10.00" fill="#000000">+ __init__()</text>
</a>
</g>
</g>
<!-- Node0&#45;&gt;Node9 -->
<g id="edge9" class="edge">
<title>Node0&#45;&gt;Node9</title>
<path fill="none" stroke="#191970" d="M523.5948,-315.3944C578.1699,-292.8435 659.865,-254.7244 721.5,-207 731.7531,-199.0609 741.5536,-188.8126 749.7183,-179.2283"/>
<polygon fill="none" stroke="#191970" points="522.0014,-312.2645 514.068,-319.2867 524.649,-318.7445 522.0014,-312.2645"/>
</g>
<!-- Node3 -->
<g id="node4" class="node">
<title>Node3</title>
<g id="a_node4"><a xlink:href="classSignalIntegrity_1_1Lib_1_1Prbs_1_1ClockWaveform_1_1ClockWaveform.xhtml" target="_top" xlink:title="a clock waveform ">
<polygon fill="#ffffff" stroke="#000000" points="101,-.5 101,-57.5 188,-57.5 188,-.5 101,-.5"/>
<text text-anchor="middle" x="144.5" y="-45.5" font-family="Helvetica,sans-Serif" font-size="10.00" fill="#000000">ClockWaveform</text>
<polyline fill="none" stroke="#000000" points="101,-38.5 188,-38.5 "/>
<text text-anchor="middle" x="144.5" y="-26.5" font-family="Helvetica,sans-Serif" font-size="10.00" fill="#000000"> </text>
<polyline fill="none" stroke="#000000" points="101,-19.5 188,-19.5 "/>
<text text-anchor="start" x="109" y="-7.5" font-family="Helvetica,sans-Serif" font-size="10.00" fill="#000000">+ __init__()</text>
</a>
</g>
</g>
<!-- Node2&#45;&gt;Node3 -->
<g id="edge3" class="edge">
<title>Node2&#45;&gt;Node3</title>
<path fill="none" stroke="#191970" d="M185.7867,-107.3802C177.0798,-90.8507 167.3687,-72.4148 159.5532,-57.5775"/>
<polygon fill="none" stroke="#191970" points="182.7449,-109.1157 190.5021,-116.3321 188.9383,-105.8533 182.7449,-109.1157"/>
</g>
<!-- Node4 -->
<g id="node5" class="node">
<title>Node4</title>
<g id="a_node5"><a xlink:href="classSignalIntegrity_1_1Lib_1_1Prbs_1_1PseudoRandomWaveform_1_1PseudoRandomWaveform.xhtml" target="_top" xlink:title="a PRBS waveform with a given PRBS polynomial ">
<polygon fill="#ffffff" stroke="#000000" points="206,-.5 206,-57.5 337,-57.5 337,-.5 206,-.5"/>
<text text-anchor="middle" x="271.5" y="-45.5" font-family="Helvetica,sans-Serif" font-size="10.00" fill="#000000">PseudoRandomWaveform</text>
<polyline fill="none" stroke="#000000" points="206,-38.5 337,-38.5 "/>
<text text-anchor="middle" x="271.5" y="-26.5" font-family="Helvetica,sans-Serif" font-size="10.00" fill="#000000"> </text>
<polyline fill="none" stroke="#000000" points="206,-19.5 337,-19.5 "/>
<text text-anchor="start" x="214" y="-7.5" font-family="Helvetica,sans-Serif" font-size="10.00" fill="#000000">+ __init__()</text>
</a>
</g>
</g>
<!-- Node2&#45;&gt;Node4 -->
<g id="edge4" class="edge">
<title>Node2&#45;&gt;Node4</title>
<path fill="none" stroke="#191970" d="M230.8584,-107.3802C239.4292,-90.8507 248.9886,-72.4148 256.682,-57.5775"/>
<polygon fill="none" stroke="#191970" points="227.7127,-105.8435 226.2167,-116.3321 233.927,-109.0657 227.7127,-105.8435"/>
</g>
</g>
</svg>
