<?xml version="1.0" encoding="UTF-8" standalone="no"?>
<!DOCTYPE svg PUBLIC "-//W3C//DTD SVG 1.1//EN"
 "http://www.w3.org/Graphics/SVG/1.1/DTD/svg11.dtd">
<!-- Generated by graphviz version 2.43.0 (0)
 -->
<!-- Title: SystemSParametersSymbolic Pages: 1 -->
<svg width="243pt" height="634pt"
 viewBox="0.00 0.00 243.00 634.00" xmlns="http://www.w3.org/2000/svg" xmlns:xlink="http://www.w3.org/1999/xlink">
<g id="graph0" class="graph" transform="scale(1 1) rotate(0) translate(4 630)">
<title>SystemSParametersSymbolic</title>
<polygon fill="white" stroke="transparent" points="-4,4 -4,-630 239,-630 239,4 -4,4"/>
<!-- Node1 -->
<g id="node1" class="node">
<title>Node1</title>
<g id="a_node1"><a xlink:title="Class for solving symbolically the s&#45;parameters of interconnected systems.">
<polygon fill="#bfbfbf" stroke="black" points="47,-0.5 47,-68.5 195,-68.5 195,-0.5 47,-0.5"/>
<text text-anchor="middle" x="121" y="-56.5" font-family="Helvetica,sans-Serif" font-size="10.00">SystemSParametersSymbolic</text>
<polyline fill="none" stroke="black" points="47,-49.5 195,-49.5 "/>
<text text-anchor="middle" x="121" y="-37.5" font-family="Helvetica,sans-Serif" font-size="10.00"> </text>
<polyline fill="none" stroke="black" points="47,-30.5 195,-30.5 "/>
<text text-anchor="start" x="55" y="-18.5" font-family="Helvetica,sans-Serif" font-size="10.00">+ __init__()</text>
<text text-anchor="start" x="55" y="-7.5" font-family="Helvetica,sans-Serif" font-size="10.00">+ LaTeXSolution()</text>
</a>
</g>
</g>
<!-- Node2 -->
<g id="node2" class="node">
<title>Node2</title>
<g id="a_node2"><a xlink:href="classSignalIntegrity_1_1Lib_1_1SystemDescriptions_1_1SystemDescriptionSymbolic_1_1SystemDescriptionSymbolic.xhtml" target="_top" xlink:title="Solves system descriptions in the most basic manner common to all of the simulation,...">
<polygon fill="white" stroke="black" points="51,-105.5 51,-173.5 191,-173.5 191,-105.5 51,-105.5"/>
<text text-anchor="middle" x="121" y="-161.5" font-family="Helvetica,sans-Serif" font-size="10.00">SystemDescriptionSymbolic</text>
<polyline fill="none" stroke="black" points="51,-154.5 191,-154.5 "/>
<text text-anchor="middle" x="121" y="-142.5" font-family="Helvetica,sans-Serif" font-size="10.00"> </text>
<polyline fill="none" stroke="black" points="51,-135.5 191,-135.5 "/>
<text text-anchor="start" x="59" y="-123.5" font-family="Helvetica,sans-Serif" font-size="10.00">+ __init__()</text>
<text text-anchor="start" x="59" y="-112.5" font-family="Helvetica,sans-Serif" font-size="10.00">+ LaTeXSystemEquation()</text>
</a>
</g>
</g>
<!-- Node2&#45;&gt;Node1 -->
<g id="edge1" class="edge">
<title>Node2&#45;&gt;Node1</title>
<path fill="none" stroke="midnightblue" d="M121,-95.14C121,-86.26 121,-77.04 121,-68.59"/>
<polygon fill="none" stroke="midnightblue" points="117.5,-95.34 121,-105.34 124.5,-95.34 117.5,-95.34"/>
</g>
<!-- Node3 -->
<g id="node3" class="node">
<title>Node3</title>
<g id="a_node3"><a xlink:href="classSignalIntegrity_1_1Lib_1_1SystemDescriptions_1_1SystemSParameters_1_1SystemSParameters.xhtml" target="_top" xlink:title="base class for housekeeping involving system s&#45;parameters calculations">
<polygon fill="white" stroke="black" points="5.5,-254.5 5.5,-377.5 112.5,-377.5 112.5,-254.5 5.5,-254.5"/>
<text text-anchor="middle" x="59" y="-365.5" font-family="Helvetica,sans-Serif" font-size="10.00">SystemSParameters</text>
<polyline fill="none" stroke="black" points="5.5,-358.5 112.5,-358.5 "/>
<text text-anchor="middle" x="59" y="-346.5" font-family="Helvetica,sans-Serif" font-size="10.00"> </text>
<polyline fill="none" stroke="black" points="5.5,-339.5 112.5,-339.5 "/>
<text text-anchor="start" x="13.5" y="-327.5" font-family="Helvetica,sans-Serif" font-size="10.00">+ __init__()</text>
<text text-anchor="start" x="13.5" y="-316.5" font-family="Helvetica,sans-Serif" font-size="10.00">+ PortANames()</text>
<text text-anchor="start" x="13.5" y="-305.5" font-family="Helvetica,sans-Serif" font-size="10.00">+ PortBNames()</text>
<text text-anchor="start" x="13.5" y="-294.5" font-family="Helvetica,sans-Serif" font-size="10.00">+ OtherNames()</text>
<text text-anchor="start" x="13.5" y="-283.5" font-family="Helvetica,sans-Serif" font-size="10.00">+ NodeVector()</text>
<text text-anchor="start" x="13.5" y="-272.5" font-family="Helvetica,sans-Serif" font-size="10.00">+ StimulusVector()</text>
<text text-anchor="start" x="13.5" y="-261.5" font-family="Helvetica,sans-Serif" font-size="10.00"># WeightsMatrix()</text>
</a>
</g>
</g>
<!-- Node3&#45;&gt;Node2 -->
<g id="edge2" class="edge">
<title>Node3&#45;&gt;Node2</title>
<path fill="none" stroke="midnightblue" d="M83.93,-244.84C92.61,-220.39 101.96,-194.08 109.1,-174"/>
<polygon fill="none" stroke="midnightblue" points="80.56,-243.86 80.51,-254.46 87.16,-246.21 80.56,-243.86"/>
</g>
<!-- Node4 -->
<g id="node4" class="node">
<title>Node4</title>
<g id="a_node4"><a xlink:href="classSignalIntegrity_1_1Lib_1_1SystemDescriptions_1_1SystemDescription_1_1SystemDescription.xhtml" target="_top" xlink:title="Allows the construction of system descriptions for use with all of the classes that solve schematics ...">
<polygon fill="white" stroke="black" points="0,-458.5 0,-625.5 118,-625.5 118,-458.5 0,-458.5"/>
<text text-anchor="middle" x="59" y="-613.5" font-family="Helvetica,sans-Serif" font-size="10.00">SystemDescription</text>
<polyline fill="none" stroke="black" points="0,-606.5 118,-606.5 "/>
<text text-anchor="start" x="8" y="-594.5" font-family="Helvetica,sans-Serif" font-size="10.00">+ m_UniqueDevice</text>
<text text-anchor="start" x="8" y="-583.5" font-family="Helvetica,sans-Serif" font-size="10.00">+ m_UniqueNode</text>
<polyline fill="none" stroke="black" points="0,-576.5 118,-576.5 "/>
<text text-anchor="start" x="8" y="-564.5" font-family="Helvetica,sans-Serif" font-size="10.00">+ __init__()</text>
<text text-anchor="start" x="8" y="-553.5" font-family="Helvetica,sans-Serif" font-size="10.00">+ AddDevice()</text>
<text text-anchor="start" x="8" y="-542.5" font-family="Helvetica,sans-Serif" font-size="10.00">+ AssignM()</text>
<text text-anchor="start" x="8" y="-531.5" font-family="Helvetica,sans-Serif" font-size="10.00">+ DeviceNames()</text>
<text text-anchor="start" x="8" y="-520.5" font-family="Helvetica,sans-Serif" font-size="10.00">+ IndexOfDevice()</text>
<text text-anchor="start" x="8" y="-509.5" font-family="Helvetica,sans-Serif" font-size="10.00">+ CheckConnections()</text>
<text text-anchor="start" x="8" y="-498.5" font-family="Helvetica,sans-Serif" font-size="10.00">+ ConnectDevicePort()</text>
<text text-anchor="start" x="8" y="-487.5" font-family="Helvetica,sans-Serif" font-size="10.00">+ AddPort()</text>
<text text-anchor="start" x="8" y="-476.5" font-family="Helvetica,sans-Serif" font-size="10.00">+ AssignSParameters()</text>
<text text-anchor="start" x="8" y="-465.5" font-family="Helvetica,sans-Serif" font-size="10.00">+ Print()</text>
</a>
</g>
</g>
<!-- Node4&#45;&gt;Node3 -->
<g id="edge3" class="edge">
<title>Node4&#45;&gt;Node3</title>
<path fill="none" stroke="midnightblue" d="M59,-448.13C59,-424.36 59,-399.41 59,-377.73"/>
<polygon fill="none" stroke="midnightblue" points="55.5,-448.23 59,-458.23 62.5,-448.23 55.5,-448.23"/>
</g>
<!-- Node5 -->
<g id="node5" class="node">
<title>Node5</title>
<g id="a_node5"><a xlink:href="classSignalIntegrity_1_1Lib_1_1SystemDescriptions_1_1Symbolic_1_1Symbolic.xhtml" target="_top" xlink:title="base class for all symbolic solutions.">
<polygon fill="white" stroke="black" points="131,-210.5 131,-421.5 235,-421.5 235,-210.5 131,-210.5"/>
<text text-anchor="middle" x="183" y="-409.5" font-family="Helvetica,sans-Serif" font-size="10.00">Symbolic</text>
<polyline fill="none" stroke="black" points="131,-402.5 235,-402.5 "/>
<text text-anchor="start" x="139" y="-390.5" font-family="Helvetica,sans-Serif" font-size="10.00">+ m_lines</text>
<text text-anchor="start" x="139" y="-379.5" font-family="Helvetica,sans-Serif" font-size="10.00">+ m_docStart</text>
<text text-anchor="start" x="139" y="-368.5" font-family="Helvetica,sans-Serif" font-size="10.00">+ m_docEnd</text>
<text text-anchor="start" x="139" y="-357.5" font-family="Helvetica,sans-Serif" font-size="10.00">+ m_eqPrefix</text>
<text text-anchor="start" x="139" y="-346.5" font-family="Helvetica,sans-Serif" font-size="10.00">+ m_eqSuffix</text>
<text text-anchor="start" x="139" y="-335.5" font-family="Helvetica,sans-Serif" font-size="10.00">+ m_identity</text>
<text text-anchor="start" x="139" y="-324.5" font-family="Helvetica,sans-Serif" font-size="10.00">+ m_eqEnvironment</text>
<text text-anchor="start" x="139" y="-313.5" font-family="Helvetica,sans-Serif" font-size="10.00">+ m_small</text>
<polyline fill="none" stroke="black" points="131,-306.5 235,-306.5 "/>
<text text-anchor="start" x="139" y="-294.5" font-family="Helvetica,sans-Serif" font-size="10.00">+ __init__()</text>
<text text-anchor="start" x="139" y="-283.5" font-family="Helvetica,sans-Serif" font-size="10.00">+ Clear()</text>
<text text-anchor="start" x="139" y="-272.5" font-family="Helvetica,sans-Serif" font-size="10.00">+ Emit()</text>
<text text-anchor="start" x="139" y="-261.5" font-family="Helvetica,sans-Serif" font-size="10.00">+ DocStart()</text>
<text text-anchor="start" x="139" y="-250.5" font-family="Helvetica,sans-Serif" font-size="10.00">+ DocEnd()</text>
<text text-anchor="start" x="139" y="-239.5" font-family="Helvetica,sans-Serif" font-size="10.00">+ WriteToFile()</text>
<text text-anchor="start" x="139" y="-228.5" font-family="Helvetica,sans-Serif" font-size="10.00">+ Get()</text>
<text text-anchor="start" x="139" y="-217.5" font-family="Helvetica,sans-Serif" font-size="10.00">+ InstallSafeTees()</text>
</a>
</g>
</g>
<!-- Node5&#45;&gt;Node2 -->
<g id="edge4" class="edge">
<title>Node5&#45;&gt;Node2</title>
<path fill="none" stroke="midnightblue" d="M142.49,-200.99C139.03,-191.23 135.74,-181.98 132.82,-173.77"/>
<polygon fill="none" stroke="midnightblue" points="139.21,-202.22 145.86,-210.47 145.81,-199.88 139.21,-202.22"/>
</g>
</g>
</svg>
