<?xml version="1.0" encoding="UTF-8" standalone="no"?>
<!DOCTYPE svg PUBLIC "-//W3C//DTD SVG 1.1//EN"
 "http://www.w3.org/Graphics/SVG/1.1/DTD/svg11.dtd">
<!-- Generated by graphviz version 2.43.0 (0)
 -->
<!-- Title: DUTSParametersNumericParser Pages: 1 -->
<svg width="412pt" height="755pt"
 viewBox="0.00 0.00 411.50 755.00" xmlns="http://www.w3.org/2000/svg" xmlns:xlink="http://www.w3.org/1999/xlink">
<g id="graph0" class="graph" transform="scale(1 1) rotate(0) translate(4 751)">
<title>DUTSParametersNumericParser</title>
<polygon fill="white" stroke="transparent" points="-4,4 -4,-751 407.5,-751 407.5,4 -4,4"/>
<!-- Node1 -->
<g id="node1" class="node">
<title>Node1</title>
<g id="a_node1"><a xlink:title="generates s&#45;parameters of a DUT from a network analyzer model netlist">
<polygon fill="#bfbfbf" stroke="black" points="140,-0.5 140,-112.5 324,-112.5 324,-0.5 140,-0.5"/>
<text text-anchor="middle" x="232" y="-100.5" font-family="Helvetica,sans-Serif" font-size="10.00">DUTSParametersNumericParser</text>
<polyline fill="none" stroke="black" points="140,-93.5 324,-93.5 "/>
<text text-anchor="start" x="148" y="-81.5" font-family="Helvetica,sans-Serif" font-size="10.00">+ NetworkAnalyzerProjectFile</text>
<text text-anchor="start" x="148" y="-70.5" font-family="Helvetica,sans-Serif" font-size="10.00">+ NetworkAnalyzerPortConnectionList</text>
<text text-anchor="start" x="148" y="-59.5" font-family="Helvetica,sans-Serif" font-size="10.00">+ m_lines</text>
<polyline fill="none" stroke="black" points="140,-52.5 324,-52.5 "/>
<text text-anchor="start" x="148" y="-40.5" font-family="Helvetica,sans-Serif" font-size="10.00">+ __init__()</text>
<text text-anchor="start" x="148" y="-29.5" font-family="Helvetica,sans-Serif" font-size="10.00">+ HashValue()</text>
<text text-anchor="start" x="148" y="-18.5" font-family="Helvetica,sans-Serif" font-size="10.00">+ ConfigureForDUTCalculation()</text>
<text text-anchor="start" x="148" y="-7.5" font-family="Helvetica,sans-Serif" font-size="10.00">+ SParameters()</text>
</a>
</g>
</g>
<!-- Node2 -->
<g id="node2" class="node">
<title>Node2</title>
<g id="a_node2"><a xlink:href="classSignalIntegrity_1_1Lib_1_1Parsers_1_1SystemSParametersParser_1_1SystemSParametersNumericParser.xhtml" target="_top" xlink:title="generates system s&#45;parameters from a netlist">
<polygon fill="white" stroke="black" points="160,-149.5 160,-239.5 304,-239.5 304,-149.5 160,-149.5"/>
<text text-anchor="start" x="168" y="-227.5" font-family="Helvetica,sans-Serif" font-size="10.00">SystemSParametersNumeric</text>
<text text-anchor="middle" x="232" y="-216.5" font-family="Helvetica,sans-Serif" font-size="10.00">Parser</text>
<polyline fill="none" stroke="black" points="160,-209.5 304,-209.5 "/>
<text text-anchor="start" x="168" y="-197.5" font-family="Helvetica,sans-Serif" font-size="10.00">+ sf</text>
<text text-anchor="start" x="168" y="-186.5" font-family="Helvetica,sans-Serif" font-size="10.00">+ efl</text>
<polyline fill="none" stroke="black" points="160,-179.5 304,-179.5 "/>
<text text-anchor="start" x="168" y="-167.5" font-family="Helvetica,sans-Serif" font-size="10.00">+ __init__()</text>
<text text-anchor="start" x="168" y="-156.5" font-family="Helvetica,sans-Serif" font-size="10.00">+ SParameters()</text>
</a>
</g>
</g>
<!-- Node2&#45;&gt;Node1 -->
<g id="edge1" class="edge">
<title>Node2&#45;&gt;Node1</title>
<path fill="none" stroke="midnightblue" d="M232,-139.31C232,-130.61 232,-121.59 232,-112.87"/>
<polygon fill="none" stroke="midnightblue" points="228.5,-139.34 232,-149.34 235.5,-139.34 228.5,-139.34"/>
</g>
<!-- Node3 -->
<g id="node3" class="node">
<title>Node3</title>
<g id="a_node3"><a xlink:href="classSignalIntegrity_1_1Lib_1_1Parsers_1_1SystemDescriptionParser_1_1SystemDescriptionParser.xhtml" target="_top" xlink:title="Parses netlists and produces system descriptions.">
<polygon fill="white" stroke="black" points="32,-276.5 32,-498.5 160,-498.5 160,-276.5 32,-276.5"/>
<text text-anchor="middle" x="96" y="-486.5" font-family="Helvetica,sans-Serif" font-size="10.00">SystemDescriptionParser</text>
<polyline fill="none" stroke="black" points="32,-479.5 160,-479.5 "/>
<text text-anchor="start" x="40" y="-467.5" font-family="Helvetica,sans-Serif" font-size="10.00">+ m_sd</text>
<text text-anchor="start" x="40" y="-456.5" font-family="Helvetica,sans-Serif" font-size="10.00">+ m_f</text>
<text text-anchor="start" x="40" y="-445.5" font-family="Helvetica,sans-Serif" font-size="10.00">+ m_lines</text>
<text text-anchor="start" x="40" y="-434.5" font-family="Helvetica,sans-Serif" font-size="10.00">+ m_addThru</text>
<text text-anchor="start" x="40" y="-423.5" font-family="Helvetica,sans-Serif" font-size="10.00">+ known</text>
<text text-anchor="start" x="40" y="-412.5" font-family="Helvetica,sans-Serif" font-size="10.00">+ callback</text>
<text text-anchor="start" x="40" y="-401.5" font-family="Helvetica,sans-Serif" font-size="10.00">+ m_Z0</text>
<text text-anchor="start" x="40" y="-390.5" font-family="Helvetica,sans-Serif" font-size="10.00">+ delayDict</text>
<text text-anchor="start" x="40" y="-379.5" font-family="Helvetica,sans-Serif" font-size="10.00">+ m_spc</text>
<text text-anchor="start" x="40" y="-368.5" font-family="Helvetica,sans-Serif" font-size="10.00">+ m_spcl</text>
<text text-anchor="start" x="40" y="-357.5" font-family="Helvetica,sans-Serif" font-size="10.00">+ m_ul</text>
<text text-anchor="start" x="40" y="-346.5" font-family="Helvetica,sans-Serif" font-size="10.00">+ MultiPortTee</text>
<polyline fill="none" stroke="black" points="32,-339.5 160,-339.5 "/>
<text text-anchor="start" x="40" y="-327.5" font-family="Helvetica,sans-Serif" font-size="10.00">+ __init__()</text>
<text text-anchor="start" x="40" y="-316.5" font-family="Helvetica,sans-Serif" font-size="10.00">+ SystemDescription()</text>
<text text-anchor="start" x="40" y="-305.5" font-family="Helvetica,sans-Serif" font-size="10.00">+ AddKnownDevices()</text>
<text text-anchor="start" x="40" y="-294.5" font-family="Helvetica,sans-Serif" font-size="10.00">+ AddLine()</text>
<text text-anchor="start" x="40" y="-283.5" font-family="Helvetica,sans-Serif" font-size="10.00">+ AddLines()</text>
</a>
</g>
</g>
<!-- Node3&#45;&gt;Node2 -->
<g id="edge2" class="edge">
<title>Node3&#45;&gt;Node2</title>
<path fill="none" stroke="midnightblue" d="M166.04,-281.54C167.37,-279.68 168.69,-277.83 170,-276 178.55,-264.11 188.07,-251.47 197.03,-239.81"/>
<polygon fill="none" stroke="midnightblue" points="163.11,-279.63 160.2,-289.82 168.83,-283.66 163.11,-279.63"/>
</g>
<!-- Node4 -->
<g id="node4" class="node">
<title>Node4</title>
<g id="a_node4"><a xlink:href="classSignalIntegrity_1_1Lib_1_1Parsers_1_1ParserFile_1_1ParserFile.xhtml" target="_top" xlink:title="file handling base class for parsers">
<polygon fill="white" stroke="black" points="0,-607 0,-675 80,-675 80,-607 0,-607"/>
<text text-anchor="middle" x="40" y="-663" font-family="Helvetica,sans-Serif" font-size="10.00">ParserFile</text>
<polyline fill="none" stroke="black" points="0,-656 80,-656 "/>
<text text-anchor="middle" x="40" y="-644" font-family="Helvetica,sans-Serif" font-size="10.00"> </text>
<polyline fill="none" stroke="black" points="0,-637 80,-637 "/>
<text text-anchor="start" x="8" y="-625" font-family="Helvetica,sans-Serif" font-size="10.00">+ File()</text>
<text text-anchor="start" x="8" y="-614" font-family="Helvetica,sans-Serif" font-size="10.00">+ WriteToFile()</text>
</a>
</g>
</g>
<!-- Node4&#45;&gt;Node3 -->
<g id="edge3" class="edge">
<title>Node4&#45;&gt;Node3</title>
<path fill="none" stroke="midnightblue" d="M49.59,-596.94C55.63,-569.8 63.73,-533.44 71.47,-498.69"/>
<polygon fill="none" stroke="midnightblue" points="46.14,-596.34 47.38,-606.86 52.97,-597.86 46.14,-596.34"/>
</g>
<!-- Node5 -->
<g id="node5" class="node">
<title>Node5</title>
<g id="a_node5"><a xlink:href="classSignalIntegrity_1_1Lib_1_1Parsers_1_1ParserArgs_1_1ParserArgs.xhtml" target="_top" xlink:title="argument handling base class for parsers">
<polygon fill="white" stroke="black" points="98,-596 98,-686 206,-686 206,-596 98,-596"/>
<text text-anchor="middle" x="152" y="-674" font-family="Helvetica,sans-Serif" font-size="10.00">ParserArgs</text>
<polyline fill="none" stroke="black" points="98,-667 206,-667 "/>
<text text-anchor="start" x="106" y="-655" font-family="Helvetica,sans-Serif" font-size="10.00">+ m_vars</text>
<text text-anchor="start" x="106" y="-644" font-family="Helvetica,sans-Serif" font-size="10.00">+ m_args</text>
<polyline fill="none" stroke="black" points="98,-637 206,-637 "/>
<text text-anchor="start" x="106" y="-625" font-family="Helvetica,sans-Serif" font-size="10.00">+ AssignArguments()</text>
<text text-anchor="start" x="106" y="-614" font-family="Helvetica,sans-Serif" font-size="10.00">+ ReplaceArgs()</text>
<text text-anchor="start" x="106" y="-603" font-family="Helvetica,sans-Serif" font-size="10.00">+ ProcessVariables()</text>
</a>
</g>
</g>
<!-- Node5&#45;&gt;Node3 -->
<g id="edge4" class="edge">
<title>Node5&#45;&gt;Node3</title>
<path fill="none" stroke="midnightblue" d="M139.99,-586.05C134.29,-560.46 127.26,-528.9 120.51,-498.58"/>
<polygon fill="none" stroke="midnightblue" points="136.59,-586.9 142.18,-595.9 143.42,-585.38 136.59,-586.9"/>
</g>
<!-- Node6 -->
<g id="node6" class="node">
<title>Node6</title>
<g id="a_node6"><a xlink:href="classSignalIntegrity_1_1Lib_1_1CallBacker_1_1CallBacker.xhtml" target="_top" xlink:title="Handles Callbacks that allow progress reporting during long calculations and capability to abort.">
<polygon fill="white" stroke="black" points="178.5,-337 178.5,-438 285.5,-438 285.5,-337 178.5,-337"/>
<text text-anchor="middle" x="232" y="-426" font-family="Helvetica,sans-Serif" font-size="10.00">CallBacker</text>
<polyline fill="none" stroke="black" points="178.5,-419 285.5,-419 "/>
<text text-anchor="start" x="186.5" y="-407" font-family="Helvetica,sans-Serif" font-size="10.00">+ callback</text>
<polyline fill="none" stroke="black" points="178.5,-400 285.5,-400 "/>
<text text-anchor="start" x="186.5" y="-388" font-family="Helvetica,sans-Serif" font-size="10.00">+ __init__()</text>
<text text-anchor="start" x="186.5" y="-377" font-family="Helvetica,sans-Serif" font-size="10.00">+ HasACallBack()</text>
<text text-anchor="start" x="186.5" y="-366" font-family="Helvetica,sans-Serif" font-size="10.00">+ CallBack()</text>
<text text-anchor="start" x="186.5" y="-355" font-family="Helvetica,sans-Serif" font-size="10.00">+ InstallCallback()</text>
<text text-anchor="start" x="186.5" y="-344" font-family="Helvetica,sans-Serif" font-size="10.00">+ RemoveCallback()</text>
</a>
</g>
</g>
<!-- Node6&#45;&gt;Node2 -->
<g id="edge5" class="edge">
<title>Node6&#45;&gt;Node2</title>
<path fill="none" stroke="midnightblue" d="M232,-326.69C232,-298.54 232,-265.57 232,-239.72"/>
<polygon fill="none" stroke="midnightblue" points="228.5,-326.82 232,-336.82 235.5,-326.82 228.5,-326.82"/>
</g>
<!-- Node7 -->
<g id="node7" class="node">
<title>Node7</title>
<g id="a_node7"><a xlink:href="classSignalIntegrity_1_1Lib_1_1ResultsCache_1_1LinesCache.xhtml" target="_top" xlink:title="Caches results calculated based on netlist lines, as used in all of the parser classes.">
<polygon fill="white" stroke="black" points="303.5,-348 303.5,-427 390.5,-427 390.5,-348 303.5,-348"/>
<text text-anchor="middle" x="347" y="-415" font-family="Helvetica,sans-Serif" font-size="10.00">LinesCache</text>
<polyline fill="none" stroke="black" points="303.5,-408 390.5,-408 "/>
<text text-anchor="middle" x="347" y="-396" font-family="Helvetica,sans-Serif" font-size="10.00"> </text>
<polyline fill="none" stroke="black" points="303.5,-389 390.5,-389 "/>
<text text-anchor="start" x="311.5" y="-377" font-family="Helvetica,sans-Serif" font-size="10.00">+ __init__()</text>
<text text-anchor="start" x="311.5" y="-366" font-family="Helvetica,sans-Serif" font-size="10.00">+ HashValue()</text>
<text text-anchor="start" x="311.5" y="-355" font-family="Helvetica,sans-Serif" font-size="10.00">+ CheckTimes()</text>
</a>
</g>
</g>
<!-- Node7&#45;&gt;Node2 -->
<g id="edge6" class="edge">
<title>Node7&#45;&gt;Node2</title>
<path fill="none" stroke="midnightblue" d="M327.29,-338.62C318.39,-318.72 307.14,-295.72 295,-276 287.46,-263.76 278.39,-251.21 269.5,-239.76"/>
<polygon fill="none" stroke="midnightblue" points="324.11,-340.07 331.34,-347.81 330.51,-337.25 324.11,-340.07"/>
</g>
<!-- Node8 -->
<g id="node8" class="node">
<title>Node8</title>
<g id="a_node8"><a xlink:href="classSignalIntegrity_1_1Lib_1_1ResultsCache_1_1ResultsCache.xhtml" target="_top" xlink:title="base class for results caching">
<polygon fill="white" stroke="black" points="290.5,-535.5 290.5,-746.5 403.5,-746.5 403.5,-535.5 290.5,-535.5"/>
<text text-anchor="middle" x="347" y="-734.5" font-family="Helvetica,sans-Serif" font-size="10.00">ResultsCache</text>
<polyline fill="none" stroke="black" points="290.5,-727.5 403.5,-727.5 "/>
<text text-anchor="start" x="298.5" y="-715.5" font-family="Helvetica,sans-Serif" font-size="10.00">+ filename</text>
<text text-anchor="start" x="298.5" y="-704.5" font-family="Helvetica,sans-Serif" font-size="10.00">+ extra</text>
<text text-anchor="start" x="298.5" y="-693.5" font-family="Helvetica,sans-Serif" font-size="10.00">+ extension</text>
<text text-anchor="start" x="298.5" y="-682.5" font-family="Helvetica,sans-Serif" font-size="10.00">+ hash</text>
<text text-anchor="start" x="298.5" y="-671.5" font-family="Helvetica,sans-Serif" font-size="10.00">+ files_to_keep</text>
<text text-anchor="start" x="298.5" y="-660.5" font-family="Helvetica,sans-Serif" font-size="10.00">+ files_to_keep</text>
<text text-anchor="start" x="298.5" y="-649.5" font-family="Helvetica,sans-Serif" font-size="10.00">+ keep_extra_file_for</text>
<text text-anchor="start" x="298.5" y="-638.5" font-family="Helvetica,sans-Serif" font-size="10.00">_archive</text>
<text text-anchor="start" x="298.5" y="-627.5" font-family="Helvetica,sans-Serif" font-size="10.00">+ check_times</text>
<text text-anchor="start" x="298.5" y="-616.5" font-family="Helvetica,sans-Serif" font-size="10.00">+ logging</text>
<polyline fill="none" stroke="black" points="290.5,-609.5 403.5,-609.5 "/>
<text text-anchor="start" x="298.5" y="-597.5" font-family="Helvetica,sans-Serif" font-size="10.00">+ __init__()</text>
<text text-anchor="start" x="298.5" y="-586.5" font-family="Helvetica,sans-Serif" font-size="10.00">+ HashValue()</text>
<text text-anchor="start" x="298.5" y="-575.5" font-family="Helvetica,sans-Serif" font-size="10.00">+ CheckCache()</text>
<text text-anchor="start" x="298.5" y="-564.5" font-family="Helvetica,sans-Serif" font-size="10.00">+ CacheResult()</text>
<text text-anchor="start" x="298.5" y="-553.5" font-family="Helvetica,sans-Serif" font-size="10.00">+ CheckTimes()</text>
<text text-anchor="start" x="298.5" y="-542.5" font-family="Helvetica,sans-Serif" font-size="10.00">+ PreferencesCache()</text>
</a>
</g>
</g>
<!-- Node8&#45;&gt;Node7 -->
<g id="edge7" class="edge">
<title>Node8&#45;&gt;Node7</title>
<path fill="none" stroke="midnightblue" d="M347,-524.79C347,-489.63 347,-453.35 347,-427.08"/>
<polygon fill="none" stroke="midnightblue" points="343.5,-525.16 347,-535.16 350.5,-525.16 343.5,-525.16"/>
</g>
</g>
</svg>
