<?xml version="1.0" encoding="UTF-8" standalone="no"?>
<!DOCTYPE svg PUBLIC "-//W3C//DTD SVG 1.1//EN"
 "http://www.w3.org/Graphics/SVG/1.1/DTD/svg11.dtd">
<!-- Generated by graphviz version 2.40.1 (20161225.0304)
 -->
<!-- Title: FrequencyList Pages: 1 -->
<svg width="279pt" height="292pt"
 viewBox="0.00 0.00 279.50 292.00" xmlns="http://www.w3.org/2000/svg" xmlns:xlink="http://www.w3.org/1999/xlink">
<g id="graph0" class="graph" transform="scale(1 1) rotate(0) translate(4 288)">
<title>FrequencyList</title>
<polygon fill="#ffffff" stroke="transparent" points="-4,4 -4,-288 275.5,-288 275.5,4 -4,4"/>
<!-- Node0 -->
<g id="node1" class="node">
<title>Node0</title>
<polygon fill="#bfbfbf" stroke="#000000" points="81,-94.5 81,-283.5 204,-283.5 204,-94.5 81,-94.5"/>
<text text-anchor="middle" x="142.5" y="-271.5" font-family="Helvetica,sans-Serif" font-size="10.00" fill="#000000">FrequencyList</text>
<polyline fill="none" stroke="#000000" points="81,-264.5 204,-264.5 "/>
<text text-anchor="start" x="89" y="-252.5" font-family="Helvetica,sans-Serif" font-size="10.00" fill="#000000">+ N</text>
<text text-anchor="start" x="89" y="-241.5" font-family="Helvetica,sans-Serif" font-size="10.00" fill="#000000">+ Fe</text>
<text text-anchor="start" x="89" y="-230.5" font-family="Helvetica,sans-Serif" font-size="10.00" fill="#000000">+ m_EvenlySpaced</text>
<polyline fill="none" stroke="#000000" points="81,-223.5 204,-223.5 "/>
<text text-anchor="start" x="89" y="-211.5" font-family="Helvetica,sans-Serif" font-size="10.00" fill="#000000">+ __init__()</text>
<text text-anchor="start" x="89" y="-200.5" font-family="Helvetica,sans-Serif" font-size="10.00" fill="#000000">+ SetEvenlySpaced()</text>
<text text-anchor="start" x="89" y="-189.5" font-family="Helvetica,sans-Serif" font-size="10.00" fill="#000000">+ SetList()</text>
<text text-anchor="start" x="89" y="-178.5" font-family="Helvetica,sans-Serif" font-size="10.00" fill="#000000">+ EvenlySpaced()</text>
<text text-anchor="start" x="89" y="-167.5" font-family="Helvetica,sans-Serif" font-size="10.00" fill="#000000">+ Frequencies()</text>
<text text-anchor="start" x="89" y="-156.5" font-family="Helvetica,sans-Serif" font-size="10.00" fill="#000000">+ CheckEvenlySpaced()</text>
<text text-anchor="start" x="89" y="-145.5" font-family="Helvetica,sans-Serif" font-size="10.00" fill="#000000">+ __div__()</text>
<text text-anchor="start" x="89" y="-134.5" font-family="Helvetica,sans-Serif" font-size="10.00" fill="#000000">+ __mul__()</text>
<text text-anchor="start" x="89" y="-123.5" font-family="Helvetica,sans-Serif" font-size="10.00" fill="#000000">+ TimeDescriptor()</text>
<text text-anchor="start" x="89" y="-112.5" font-family="Helvetica,sans-Serif" font-size="10.00" fill="#000000">+ __eq__()</text>
<text text-anchor="start" x="89" y="-101.5" font-family="Helvetica,sans-Serif" font-size="10.00" fill="#000000">+ __ne__()</text>
</g>
<!-- Node1 -->
<g id="node2" class="node">
<title>Node1</title>
<g id="a_node2"><a xlink:href="classSignalIntegrity_1_1FrequencyDomain_1_1FrequencyList_1_1EvenlySpacedFrequencyList.xhtml" target="_top" xlink:title="A evenly spaced list of frequencies. ">
<polygon fill="#ffffff" stroke="#000000" points="0,-.5 0,-57.5 141,-57.5 141,-.5 0,-.5"/>
<text text-anchor="middle" x="70.5" y="-45.5" font-family="Helvetica,sans-Serif" font-size="10.00" fill="#000000">EvenlySpacedFrequencyList</text>
<polyline fill="none" stroke="#000000" points="0,-38.5 141,-38.5 "/>
<text text-anchor="middle" x="70.5" y="-26.5" font-family="Helvetica,sans-Serif" font-size="10.00" fill="#000000"> </text>
<polyline fill="none" stroke="#000000" points="0,-19.5 141,-19.5 "/>
<text text-anchor="start" x="8" y="-7.5" font-family="Helvetica,sans-Serif" font-size="10.00" fill="#000000">+ __init__()</text>
</a>
</g>
</g>
<!-- Node0&#45;&gt;Node1 -->
<g id="edge1" class="edge">
<title>Node0&#45;&gt;Node1</title>
<path fill="none" stroke="#191970" d="M95.6624,-84.9164C91.2374,-75.083 87.0533,-65.7851 83.4137,-57.6971"/>
<polygon fill="none" stroke="#191970" points="92.4897,-86.3952 99.7852,-94.0781 98.8732,-83.5226 92.4897,-86.3952"/>
</g>
<!-- Node2 -->
<g id="node3" class="node">
<title>Node2</title>
<g id="a_node3"><a xlink:href="classSignalIntegrity_1_1FrequencyDomain_1_1FrequencyList_1_1GenericFrequencyList.xhtml" target="_top" xlink:title="A generic list of frequencies assumed to be not evenly spaced. ">
<polygon fill="#ffffff" stroke="#000000" points="159.5,-.5 159.5,-57.5 271.5,-57.5 271.5,-.5 159.5,-.5"/>
<text text-anchor="middle" x="215.5" y="-45.5" font-family="Helvetica,sans-Serif" font-size="10.00" fill="#000000">GenericFrequencyList</text>
<polyline fill="none" stroke="#000000" points="159.5,-38.5 271.5,-38.5 "/>
<text text-anchor="middle" x="215.5" y="-26.5" font-family="Helvetica,sans-Serif" font-size="10.00" fill="#000000"> </text>
<polyline fill="none" stroke="#000000" points="159.5,-19.5 271.5,-19.5 "/>
<text text-anchor="start" x="167.5" y="-7.5" font-family="Helvetica,sans-Serif" font-size="10.00" fill="#000000">+ __init__()</text>
</a>
</g>
</g>
<!-- Node0&#45;&gt;Node2 -->
<g id="edge2" class="edge">
<title>Node0&#45;&gt;Node2</title>
<path fill="none" stroke="#191970" d="M189.9882,-84.9164C194.4746,-75.083 198.7168,-65.7851 202.4069,-57.6971"/>
<polygon fill="none" stroke="#191970" points="186.7748,-83.5275 185.8081,-94.0781 193.1433,-86.4331 186.7748,-83.5275"/>
</g>
</g>
</svg>
