<?xml version="1.0" encoding="UTF-8" standalone="no"?>
<!DOCTYPE svg PUBLIC "-//W3C//DTD SVG 1.1//EN"
 "http://www.w3.org/Graphics/SVG/1.1/DTD/svg11.dtd">
<!-- Generated by graphviz version 2.43.0 (0)
 -->
<!-- Title: Deembedder Pages: 1 -->
<svg width="254pt" height="601pt"
 viewBox="0.00 0.00 253.50 601.00" xmlns="http://www.w3.org/2000/svg" xmlns:xlink="http://www.w3.org/1999/xlink">
<g id="graph0" class="graph" transform="scale(1 1) rotate(0) translate(4 597)">
<title>Deembedder</title>
<polygon fill="white" stroke="transparent" points="-4,4 -4,-597 249.5,-597 249.5,4 -4,4"/>
<!-- Node1 -->
<g id="node1" class="node">
<title>Node1</title>
<g id="a_node1"><a xlink:title="housekeeping base class for deembedders">
<polygon fill="#bfbfbf" stroke="black" points="71,-105.5 71,-228.5 175,-228.5 175,-105.5 71,-105.5"/>
<text text-anchor="middle" x="123" y="-216.5" font-family="Helvetica,sans-Serif" font-size="10.00">Deembedder</text>
<polyline fill="none" stroke="black" points="71,-209.5 175,-209.5 "/>
<text text-anchor="middle" x="123" y="-197.5" font-family="Helvetica,sans-Serif" font-size="10.00"> </text>
<polyline fill="none" stroke="black" points="71,-190.5 175,-190.5 "/>
<text text-anchor="start" x="79" y="-178.5" font-family="Helvetica,sans-Serif" font-size="10.00">+ __init__()</text>
<text text-anchor="start" x="79" y="-167.5" font-family="Helvetica,sans-Serif" font-size="10.00">+ AddUnknown()</text>
<text text-anchor="start" x="79" y="-156.5" font-family="Helvetica,sans-Serif" font-size="10.00">+ DutANames()</text>
<text text-anchor="start" x="79" y="-145.5" font-family="Helvetica,sans-Serif" font-size="10.00">+ DutBNames()</text>
<text text-anchor="start" x="79" y="-134.5" font-family="Helvetica,sans-Serif" font-size="10.00">+ UnknownNames()</text>
<text text-anchor="start" x="79" y="-123.5" font-family="Helvetica,sans-Serif" font-size="10.00">+ UnknownPorts()</text>
<text text-anchor="start" x="79" y="-112.5" font-family="Helvetica,sans-Serif" font-size="10.00">+ Partition()</text>
</a>
</g>
</g>
<!-- Node4 -->
<g id="node4" class="node">
<title>Node4</title>
<g id="a_node4"><a xlink:href="classSignalIntegrity_1_1Lib_1_1SystemDescriptions_1_1DeembedderNumeric_1_1DeembedderNumeric.xhtml" target="_top" xlink:title=" ">
<polygon fill="white" stroke="black" points="0,-0.5 0,-68.5 114,-68.5 114,-0.5 0,-0.5"/>
<text text-anchor="middle" x="57" y="-56.5" font-family="Helvetica,sans-Serif" font-size="10.00">DeembedderNumeric</text>
<polyline fill="none" stroke="black" points="0,-49.5 114,-49.5 "/>
<text text-anchor="middle" x="57" y="-37.5" font-family="Helvetica,sans-Serif" font-size="10.00"> </text>
<polyline fill="none" stroke="black" points="0,-30.5 114,-30.5 "/>
<text text-anchor="start" x="8" y="-18.5" font-family="Helvetica,sans-Serif" font-size="10.00">+ __init__()</text>
<text text-anchor="start" x="8" y="-7.5" font-family="Helvetica,sans-Serif" font-size="10.00">+ CalculateUnknown()</text>
</a>
</g>
</g>
<!-- Node1&#45;&gt;Node4 -->
<g id="edge3" class="edge">
<title>Node1&#45;&gt;Node4</title>
<path fill="none" stroke="midnightblue" d="M87.66,-96.13C82.82,-86.55 78.04,-77.1 73.75,-68.62"/>
<polygon fill="none" stroke="midnightblue" points="84.68,-97.99 92.32,-105.33 90.93,-94.83 84.68,-97.99"/>
</g>
<!-- Node5 -->
<g id="node5" class="node">
<title>Node5</title>
<g id="a_node5"><a xlink:href="classSignalIntegrity_1_1Lib_1_1SystemDescriptions_1_1DeembedderSymbolic_1_1DeembedderSymbolic.xhtml" target="_top" xlink:title=" ">
<polygon fill="white" stroke="black" points="132.5,-0.5 132.5,-68.5 245.5,-68.5 245.5,-0.5 132.5,-0.5"/>
<text text-anchor="middle" x="189" y="-56.5" font-family="Helvetica,sans-Serif" font-size="10.00">DeembedderSymbolic</text>
<polyline fill="none" stroke="black" points="132.5,-49.5 245.5,-49.5 "/>
<text text-anchor="start" x="140.5" y="-37.5" font-family="Helvetica,sans-Serif" font-size="10.00">+ m_Sk</text>
<polyline fill="none" stroke="black" points="132.5,-30.5 245.5,-30.5 "/>
<text text-anchor="start" x="140.5" y="-18.5" font-family="Helvetica,sans-Serif" font-size="10.00">+ __init__()</text>
<text text-anchor="start" x="140.5" y="-7.5" font-family="Helvetica,sans-Serif" font-size="10.00">+ SymbolicSolution()</text>
</a>
</g>
</g>
<!-- Node1&#45;&gt;Node5 -->
<g id="edge4" class="edge">
<title>Node1&#45;&gt;Node5</title>
<path fill="none" stroke="midnightblue" d="M158.34,-96.13C163.18,-86.55 167.96,-77.1 172.25,-68.62"/>
<polygon fill="none" stroke="midnightblue" points="155.07,-94.83 153.68,-105.33 161.32,-97.99 155.07,-94.83"/>
</g>
<!-- Node2 -->
<g id="node2" class="node">
<title>Node2</title>
<g id="a_node2"><a xlink:href="classSignalIntegrity_1_1Lib_1_1SystemDescriptions_1_1SystemSParameters_1_1SystemSParameters.xhtml" target="_top" xlink:title="base class for housekeeping involving system s&#45;parameters calculations">
<polygon fill="white" stroke="black" points="69.5,-265.5 69.5,-388.5 176.5,-388.5 176.5,-265.5 69.5,-265.5"/>
<text text-anchor="middle" x="123" y="-376.5" font-family="Helvetica,sans-Serif" font-size="10.00">SystemSParameters</text>
<polyline fill="none" stroke="black" points="69.5,-369.5 176.5,-369.5 "/>
<text text-anchor="middle" x="123" y="-357.5" font-family="Helvetica,sans-Serif" font-size="10.00"> </text>
<polyline fill="none" stroke="black" points="69.5,-350.5 176.5,-350.5 "/>
<text text-anchor="start" x="77.5" y="-338.5" font-family="Helvetica,sans-Serif" font-size="10.00">+ __init__()</text>
<text text-anchor="start" x="77.5" y="-327.5" font-family="Helvetica,sans-Serif" font-size="10.00">+ PortANames()</text>
<text text-anchor="start" x="77.5" y="-316.5" font-family="Helvetica,sans-Serif" font-size="10.00">+ PortBNames()</text>
<text text-anchor="start" x="77.5" y="-305.5" font-family="Helvetica,sans-Serif" font-size="10.00">+ OtherNames()</text>
<text text-anchor="start" x="77.5" y="-294.5" font-family="Helvetica,sans-Serif" font-size="10.00">+ NodeVector()</text>
<text text-anchor="start" x="77.5" y="-283.5" font-family="Helvetica,sans-Serif" font-size="10.00">+ StimulusVector()</text>
<text text-anchor="start" x="77.5" y="-272.5" font-family="Helvetica,sans-Serif" font-size="10.00"># WeightsMatrix()</text>
</a>
</g>
</g>
<!-- Node2&#45;&gt;Node1 -->
<g id="edge1" class="edge">
<title>Node2&#45;&gt;Node1</title>
<path fill="none" stroke="midnightblue" d="M123,-255.12C123,-246.31 123,-237.37 123,-228.73"/>
<polygon fill="none" stroke="midnightblue" points="119.5,-255.36 123,-265.36 126.5,-255.36 119.5,-255.36"/>
</g>
<!-- Node3 -->
<g id="node3" class="node">
<title>Node3</title>
<g id="a_node3"><a xlink:href="classSignalIntegrity_1_1Lib_1_1SystemDescriptions_1_1SystemDescription_1_1SystemDescription.xhtml" target="_top" xlink:title="Allows the construction of system descriptions for use with all of the classes that solve schematics ...">
<polygon fill="white" stroke="black" points="64,-425.5 64,-592.5 182,-592.5 182,-425.5 64,-425.5"/>
<text text-anchor="middle" x="123" y="-580.5" font-family="Helvetica,sans-Serif" font-size="10.00">SystemDescription</text>
<polyline fill="none" stroke="black" points="64,-573.5 182,-573.5 "/>
<text text-anchor="start" x="72" y="-561.5" font-family="Helvetica,sans-Serif" font-size="10.00">+ m_UniqueDevice</text>
<text text-anchor="start" x="72" y="-550.5" font-family="Helvetica,sans-Serif" font-size="10.00">+ m_UniqueNode</text>
<polyline fill="none" stroke="black" points="64,-543.5 182,-543.5 "/>
<text text-anchor="start" x="72" y="-531.5" font-family="Helvetica,sans-Serif" font-size="10.00">+ __init__()</text>
<text text-anchor="start" x="72" y="-520.5" font-family="Helvetica,sans-Serif" font-size="10.00">+ AddDevice()</text>
<text text-anchor="start" x="72" y="-509.5" font-family="Helvetica,sans-Serif" font-size="10.00">+ AssignM()</text>
<text text-anchor="start" x="72" y="-498.5" font-family="Helvetica,sans-Serif" font-size="10.00">+ DeviceNames()</text>
<text text-anchor="start" x="72" y="-487.5" font-family="Helvetica,sans-Serif" font-size="10.00">+ IndexOfDevice()</text>
<text text-anchor="start" x="72" y="-476.5" font-family="Helvetica,sans-Serif" font-size="10.00">+ CheckConnections()</text>
<text text-anchor="start" x="72" y="-465.5" font-family="Helvetica,sans-Serif" font-size="10.00">+ ConnectDevicePort()</text>
<text text-anchor="start" x="72" y="-454.5" font-family="Helvetica,sans-Serif" font-size="10.00">+ AddPort()</text>
<text text-anchor="start" x="72" y="-443.5" font-family="Helvetica,sans-Serif" font-size="10.00">+ AssignSParameters()</text>
<text text-anchor="start" x="72" y="-432.5" font-family="Helvetica,sans-Serif" font-size="10.00">+ Print()</text>
</a>
</g>
</g>
<!-- Node3&#45;&gt;Node2 -->
<g id="edge2" class="edge">
<title>Node3&#45;&gt;Node2</title>
<path fill="none" stroke="midnightblue" d="M123,-415.19C123,-406.17 123,-397.19 123,-388.61"/>
<polygon fill="none" stroke="midnightblue" points="119.5,-415.38 123,-425.38 126.5,-415.38 119.5,-415.38"/>
</g>
</g>
</svg>
