<?xml version="1.0" encoding="UTF-8" standalone="no"?>
<!DOCTYPE svg PUBLIC "-//W3C//DTD SVG 1.1//EN"
 "http://www.w3.org/Graphics/SVG/1.1/DTD/svg11.dtd">
<!-- Generated by graphviz version 2.43.0 (0)
 -->
<!-- Title: FractionalDelayFilterSinX Pages: 1 -->
<svg width="142pt" height="331pt"
 viewBox="0.00 0.00 142.00 331.00" xmlns="http://www.w3.org/2000/svg" xmlns:xlink="http://www.w3.org/1999/xlink">
<g id="graph0" class="graph" transform="scale(1 1) rotate(0) translate(4 327)">
<title>FractionalDelayFilterSinX</title>
<polygon fill="white" stroke="transparent" points="-4,4 -4,-327 138,-327 138,4 -4,4"/>
<!-- Node1 -->
<g id="node1" class="node">
<title>Node1</title>
<g id="a_node1"><a xlink:title="sinx/x fractional delay filter">
<polygon fill="#bfbfbf" stroke="black" points="3,-0.5 3,-57.5 131,-57.5 131,-0.5 3,-0.5"/>
<text text-anchor="middle" x="67" y="-45.5" font-family="Helvetica,sans-Serif" font-size="10.00">FractionalDelayFilterSinX</text>
<polyline fill="none" stroke="black" points="3,-38.5 131,-38.5 "/>
<text text-anchor="start" x="11" y="-26.5" font-family="Helvetica,sans-Serif" font-size="10.00">+ S</text>
<polyline fill="none" stroke="black" points="3,-19.5 131,-19.5 "/>
<text text-anchor="start" x="11" y="-7.5" font-family="Helvetica,sans-Serif" font-size="10.00">+ __init__()</text>
</a>
</g>
</g>
<!-- Node2 -->
<g id="node2" class="node">
<title>Node2</title>
<g id="a_node2"><a xlink:href="classSignalIntegrity_1_1Lib_1_1TimeDomain_1_1Filters_1_1FirFilter_1_1FirFilter.xhtml" target="_top" xlink:title="base filter class for all FIR filters">
<polygon fill="white" stroke="black" points="0,-94.5 0,-228.5 134,-228.5 134,-94.5 0,-94.5"/>
<text text-anchor="middle" x="67" y="-216.5" font-family="Helvetica,sans-Serif" font-size="10.00">FirFilter</text>
<polyline fill="none" stroke="black" points="0,-209.5 134,-209.5 "/>
<text text-anchor="start" x="8" y="-197.5" font-family="Helvetica,sans-Serif" font-size="10.00">+ m_fd</text>
<text text-anchor="start" x="8" y="-186.5" font-family="Helvetica,sans-Serif" font-size="10.00">+ m_ft</text>
<polyline fill="none" stroke="black" points="0,-179.5 134,-179.5 "/>
<text text-anchor="start" x="8" y="-167.5" font-family="Helvetica,sans-Serif" font-size="10.00">+ __init__()</text>
<text text-anchor="start" x="8" y="-156.5" font-family="Helvetica,sans-Serif" font-size="10.00">+ ProcessWaveform()</text>
<text text-anchor="start" x="8" y="-145.5" font-family="Helvetica,sans-Serif" font-size="10.00">+ FilterTaps()</text>
<text text-anchor="start" x="8" y="-134.5" font-family="Helvetica,sans-Serif" font-size="10.00">+ FilterDescriptor()</text>
<text text-anchor="start" x="8" y="-123.5" font-family="Helvetica,sans-Serif" font-size="10.00">+ FilterWaveform()</text>
<text text-anchor="start" x="8" y="-112.5" font-family="Helvetica,sans-Serif" font-size="10.00">+ Print()</text>
<text text-anchor="start" x="8" y="-101.5" font-family="Helvetica,sans-Serif" font-size="10.00">+ NormalizeUnityDCGain()</text>
</a>
</g>
</g>
<!-- Node2&#45;&gt;Node1 -->
<g id="edge1" class="edge">
<title>Node2&#45;&gt;Node1</title>
<path fill="none" stroke="midnightblue" d="M67,-84.46C67,-74.91 67,-65.68 67,-57.61"/>
<polygon fill="none" stroke="midnightblue" points="63.5,-84.49 67,-94.49 70.5,-84.49 63.5,-84.49"/>
</g>
<!-- Node3 -->
<g id="node3" class="node">
<title>Node3</title>
<g id="a_node3"><a xlink:href="classSignalIntegrity_1_1Lib_1_1TimeDomain_1_1Filters_1_1WaveformProcessor_1_1WaveformProcessor.xhtml" target="_top" xlink:title="WaveformProcessor.py.">
<polygon fill="white" stroke="black" points="11,-265.5 11,-322.5 123,-322.5 123,-265.5 11,-265.5"/>
<text text-anchor="middle" x="67" y="-310.5" font-family="Helvetica,sans-Serif" font-size="10.00">WaveformProcessor</text>
<polyline fill="none" stroke="black" points="11,-303.5 123,-303.5 "/>
<text text-anchor="middle" x="67" y="-291.5" font-family="Helvetica,sans-Serif" font-size="10.00"> </text>
<polyline fill="none" stroke="black" points="11,-284.5 123,-284.5 "/>
<text text-anchor="start" x="19" y="-272.5" font-family="Helvetica,sans-Serif" font-size="10.00">+ ProcessWaveform()</text>
</a>
</g>
</g>
<!-- Node3&#45;&gt;Node2 -->
<g id="edge2" class="edge">
<title>Node3&#45;&gt;Node2</title>
<path fill="none" stroke="midnightblue" d="M67,-255.16C67,-246.78 67,-237.67 67,-228.53"/>
<polygon fill="none" stroke="midnightblue" points="63.5,-255.32 67,-265.32 70.5,-255.32 63.5,-255.32"/>
</g>
</g>
</svg>
