<?xml version="1.0" encoding="UTF-8" standalone="no"?>
<!DOCTYPE svg PUBLIC "-//W3C//DTD SVG 1.1//EN"
 "http://www.w3.org/Graphics/SVG/1.1/DTD/svg11.dtd">
<!-- Generated by graphviz version 2.43.0 (0)
 -->
<!-- Title: FrequencyList Pages: 1 -->
<svg width="300pt" height="303pt"
 viewBox="0.00 0.00 300.00 303.00" xmlns="http://www.w3.org/2000/svg" xmlns:xlink="http://www.w3.org/1999/xlink">
<g id="graph0" class="graph" transform="scale(1 1) rotate(0) translate(4 299)">
<title>FrequencyList</title>
<polygon fill="white" stroke="transparent" points="-4,4 -4,-299 296,-299 296,4 -4,4"/>
<!-- Node1 -->
<g id="node1" class="node">
<title>Node1</title>
<g id="a_node1"><a xlink:title="Frequency lists.">
<polygon fill="#bfbfbf" stroke="black" points="86,-94.5 86,-294.5 220,-294.5 220,-94.5 86,-94.5"/>
<text text-anchor="middle" x="153" y="-282.5" font-family="Helvetica,sans-Serif" font-size="10.00">FrequencyList</text>
<polyline fill="none" stroke="black" points="86,-275.5 220,-275.5 "/>
<text text-anchor="start" x="94" y="-263.5" font-family="Helvetica,sans-Serif" font-size="10.00">+ N</text>
<text text-anchor="start" x="94" y="-252.5" font-family="Helvetica,sans-Serif" font-size="10.00">+ Fe</text>
<text text-anchor="start" x="94" y="-241.5" font-family="Helvetica,sans-Serif" font-size="10.00">+ m_EvenlySpaced</text>
<polyline fill="none" stroke="black" points="86,-234.5 220,-234.5 "/>
<text text-anchor="start" x="94" y="-222.5" font-family="Helvetica,sans-Serif" font-size="10.00">+ __init__()</text>
<text text-anchor="start" x="94" y="-211.5" font-family="Helvetica,sans-Serif" font-size="10.00">+ SetEvenlySpaced()</text>
<text text-anchor="start" x="94" y="-200.5" font-family="Helvetica,sans-Serif" font-size="10.00">+ SetList()</text>
<text text-anchor="start" x="94" y="-189.5" font-family="Helvetica,sans-Serif" font-size="10.00">+ EvenlySpaced()</text>
<text text-anchor="start" x="94" y="-178.5" font-family="Helvetica,sans-Serif" font-size="10.00">+ Frequencies()</text>
<text text-anchor="start" x="94" y="-167.5" font-family="Helvetica,sans-Serif" font-size="10.00">+ CheckEvenlySpaced()</text>
<text text-anchor="start" x="94" y="-156.5" font-family="Helvetica,sans-Serif" font-size="10.00">+ __div__()</text>
<text text-anchor="start" x="94" y="-145.5" font-family="Helvetica,sans-Serif" font-size="10.00">+ __truediv__()</text>
<text text-anchor="start" x="94" y="-134.5" font-family="Helvetica,sans-Serif" font-size="10.00">+ __mul__()</text>
<text text-anchor="start" x="94" y="-123.5" font-family="Helvetica,sans-Serif" font-size="10.00">+ TimeDescriptor()</text>
<text text-anchor="start" x="94" y="-112.5" font-family="Helvetica,sans-Serif" font-size="10.00">+ __eq__()</text>
<text text-anchor="start" x="94" y="-101.5" font-family="Helvetica,sans-Serif" font-size="10.00">+ __ne__()</text>
</a>
</g>
</g>
<!-- Node2 -->
<g id="node2" class="node">
<title>Node2</title>
<g id="a_node2"><a xlink:href="classSignalIntegrity_1_1Lib_1_1FrequencyDomain_1_1FrequencyList_1_1EvenlySpacedFrequencyList.xhtml" target="_top" xlink:title="A evenly spaced list of frequencies.">
<polygon fill="white" stroke="black" points="0,-0.5 0,-57.5 152,-57.5 152,-0.5 0,-0.5"/>
<text text-anchor="middle" x="76" y="-45.5" font-family="Helvetica,sans-Serif" font-size="10.00">EvenlySpacedFrequencyList</text>
<polyline fill="none" stroke="black" points="0,-38.5 152,-38.5 "/>
<text text-anchor="middle" x="76" y="-26.5" font-family="Helvetica,sans-Serif" font-size="10.00"> </text>
<polyline fill="none" stroke="black" points="0,-19.5 152,-19.5 "/>
<text text-anchor="start" x="8" y="-7.5" font-family="Helvetica,sans-Serif" font-size="10.00">+ __init__()</text>
</a>
</g>
</g>
<!-- Node1&#45;&gt;Node2 -->
<g id="edge1" class="edge">
<title>Node1&#45;&gt;Node2</title>
<path fill="none" stroke="midnightblue" d="M101.84,-84.88C97.16,-74.94 92.76,-65.59 88.97,-57.53"/>
<polygon fill="none" stroke="midnightblue" points="98.78,-86.59 106.21,-94.15 105.12,-83.61 98.78,-86.59"/>
</g>
<!-- Node3 -->
<g id="node3" class="node">
<title>Node3</title>
<g id="a_node3"><a xlink:href="classSignalIntegrity_1_1Lib_1_1FrequencyDomain_1_1FrequencyList_1_1GenericFrequencyList.xhtml" target="_top" xlink:title="A generic list of frequencies assumed to be not evenly spaced.">
<polygon fill="white" stroke="black" points="170,-0.5 170,-57.5 292,-57.5 292,-0.5 170,-0.5"/>
<text text-anchor="middle" x="231" y="-45.5" font-family="Helvetica,sans-Serif" font-size="10.00">GenericFrequencyList</text>
<polyline fill="none" stroke="black" points="170,-38.5 292,-38.5 "/>
<text text-anchor="middle" x="231" y="-26.5" font-family="Helvetica,sans-Serif" font-size="10.00"> </text>
<polyline fill="none" stroke="black" points="170,-19.5 292,-19.5 "/>
<text text-anchor="start" x="178" y="-7.5" font-family="Helvetica,sans-Serif" font-size="10.00">+ __init__()</text>
</a>
</g>
</g>
<!-- Node1&#45;&gt;Node3 -->
<g id="edge2" class="edge">
<title>Node1&#45;&gt;Node3</title>
<path fill="none" stroke="midnightblue" d="M204.82,-84.88C209.56,-74.94 214.02,-65.59 217.86,-57.53"/>
<polygon fill="none" stroke="midnightblue" points="201.54,-83.62 200.4,-94.15 207.86,-86.63 201.54,-83.62"/>
</g>
</g>
</svg>
