<?xml version="1.0" encoding="UTF-8" standalone="no"?>
<!DOCTYPE svg PUBLIC "-//W3C//DTD SVG 1.1//EN"
 "http://www.w3.org/Graphics/SVG/1.1/DTD/svg11.dtd">
<!-- Generated by graphviz version 2.40.1 (20161225.0304)
 -->
<!-- Title: CallBacker Pages: 1 -->
<svg width="929pt" height="391pt"
 viewBox="0.00 0.00 929.00 391.00" xmlns="http://www.w3.org/2000/svg" xmlns:xlink="http://www.w3.org/1999/xlink">
<g id="graph0" class="graph" transform="scale(1 1) rotate(0) translate(4 387)">
<title>CallBacker</title>
<polygon fill="#ffffff" stroke="transparent" points="-4,4 -4,-387 925,-387 925,4 -4,4"/>
<!-- Node0 -->
<g id="node1" class="node">
<title>Node0</title>
<polygon fill="#bfbfbf" stroke="#000000" points="413.5,-281.5 413.5,-382.5 520.5,-382.5 520.5,-281.5 413.5,-281.5"/>
<text text-anchor="middle" x="467" y="-370.5" font-family="Helvetica,sans-Serif" font-size="10.00" fill="#000000">CallBacker</text>
<polyline fill="none" stroke="#000000" points="413.5,-363.5 520.5,-363.5 "/>
<text text-anchor="start" x="421.5" y="-351.5" font-family="Helvetica,sans-Serif" font-size="10.00" fill="#000000">+ callback</text>
<polyline fill="none" stroke="#000000" points="413.5,-344.5 520.5,-344.5 "/>
<text text-anchor="start" x="421.5" y="-332.5" font-family="Helvetica,sans-Serif" font-size="10.00" fill="#000000">+ __init__()</text>
<text text-anchor="start" x="421.5" y="-321.5" font-family="Helvetica,sans-Serif" font-size="10.00" fill="#000000">+ HasACallBack()</text>
<text text-anchor="start" x="421.5" y="-310.5" font-family="Helvetica,sans-Serif" font-size="10.00" fill="#000000">+ CallBack()</text>
<text text-anchor="start" x="421.5" y="-299.5" font-family="Helvetica,sans-Serif" font-size="10.00" fill="#000000">+ InstallCallback()</text>
<text text-anchor="start" x="421.5" y="-288.5" font-family="Helvetica,sans-Serif" font-size="10.00" fill="#000000">+ RemoveCallback()</text>
</g>
<!-- Node1 -->
<g id="node2" class="node">
<title>Node1</title>
<g id="a_node2"><a xlink:href="classSignalIntegrity_1_1Lib_1_1Fit_1_1LevMar_1_1LevMar.xhtml" target="_top" xlink:title="Implements the Levenberg&#45;Marquardt algorithm for non&#45;linear fitting. ">
<polygon fill="#ffffff" stroke="#000000" points="0,-.5 0,-244.5 156,-244.5 156,-.5 0,-.5"/>
<text text-anchor="middle" x="78" y="-232.5" font-family="Helvetica,sans-Serif" font-size="10.00" fill="#000000">LevMar</text>
<polyline fill="none" stroke="#000000" points="0,-225.5 156,-225.5 "/>
<text text-anchor="start" x="8" y="-213.5" font-family="Helvetica,sans-Serif" font-size="10.00" fill="#000000">+ m_lambda</text>
<text text-anchor="start" x="8" y="-202.5" font-family="Helvetica,sans-Serif" font-size="10.00" fill="#000000">+ m_lambdamin</text>
<text text-anchor="start" x="8" y="-191.5" font-family="Helvetica,sans-Serif" font-size="10.00" fill="#000000">+ m_lambdamax</text>
<text text-anchor="start" x="8" y="-180.5" font-family="Helvetica,sans-Serif" font-size="10.00" fill="#000000">+ m_lambdaMultiplier</text>
<text text-anchor="start" x="8" y="-169.5" font-family="Helvetica,sans-Serif" font-size="10.00" fill="#000000">+ m_epsilon</text>
<text text-anchor="start" x="8" y="-158.5" font-family="Helvetica,sans-Serif" font-size="10.00" fill="#000000">+ ccm</text>
<text text-anchor="start" x="8" y="-147.5" font-family="Helvetica,sans-Serif" font-size="10.00" fill="#000000">+ m_a</text>
<text text-anchor="start" x="8" y="-136.5" font-family="Helvetica,sans-Serif" font-size="10.00" fill="#000000">+ m_y</text>
<text text-anchor="start" x="8" y="-125.5" font-family="Helvetica,sans-Serif" font-size="10.00" fill="#000000">+ m_sumw</text>
<text text-anchor="start" x="8" y="-114.5" font-family="Helvetica,sans-Serif" font-size="10.00" fill="#000000">+ m_W</text>
<text text-anchor="start" x="8" y="-103.5" font-family="Helvetica,sans-Serif" font-size="10.00" fill="#000000">and 11 more...</text>
<polyline fill="none" stroke="#000000" points="0,-96.5 156,-96.5 "/>
<text text-anchor="start" x="8" y="-84.5" font-family="Helvetica,sans-Serif" font-size="10.00" fill="#000000">+ __init__()</text>
<text text-anchor="start" x="8" y="-73.5" font-family="Helvetica,sans-Serif" font-size="10.00" fill="#000000">+ fF()</text>
<text text-anchor="start" x="8" y="-62.5" font-family="Helvetica,sans-Serif" font-size="10.00" fill="#000000">+ fPartialFPartiala()</text>
<text text-anchor="start" x="8" y="-51.5" font-family="Helvetica,sans-Serif" font-size="10.00" fill="#000000">+ fJ()</text>
<text text-anchor="start" x="8" y="-40.5" font-family="Helvetica,sans-Serif" font-size="10.00" fill="#000000">+ AdjustVariablesAfterIteration()</text>
<text text-anchor="start" x="8" y="-29.5" font-family="Helvetica,sans-Serif" font-size="10.00" fill="#000000">+ Initialize()</text>
<text text-anchor="start" x="8" y="-18.5" font-family="Helvetica,sans-Serif" font-size="10.00" fill="#000000">+ Iterate()</text>
<text text-anchor="start" x="8" y="-7.5" font-family="Helvetica,sans-Serif" font-size="10.00" fill="#000000">+ Solve()</text>
</a>
</g>
</g>
<!-- Node0&#45;&gt;Node1 -->
<g id="edge1" class="edge">
<title>Node0&#45;&gt;Node1</title>
<path fill="none" stroke="#191970" d="M403.1486,-326.0041C338.0905,-317.2238 236.8189,-295.9335 165,-245 162.0211,-242.8874 159.1079,-240.6395 156.262,-238.2775"/>
<polygon fill="none" stroke="#191970" points="402.9036,-329.5014 413.269,-327.3085 403.7985,-322.5588 402.9036,-329.5014"/>
</g>
<!-- Node2 -->
<g id="node3" class="node">
<title>Node2</title>
<g id="a_node3"><a xlink:href="classSignalIntegrity_1_1Lib_1_1Parsers_1_1DeembedderNumericParser_1_1DeembedderNumericParser.xhtml" target="_top" xlink:title="generates deembedd s&#45;parameters from a netlist ">
<polygon fill="#ffffff" stroke="#000000" points="174.5,-88.5 174.5,-156.5 311.5,-156.5 311.5,-88.5 174.5,-88.5"/>
<text text-anchor="middle" x="243" y="-144.5" font-family="Helvetica,sans-Serif" font-size="10.00" fill="#000000">DeembedderNumericParser</text>
<polyline fill="none" stroke="#000000" points="174.5,-137.5 311.5,-137.5 "/>
<text text-anchor="start" x="182.5" y="-125.5" font-family="Helvetica,sans-Serif" font-size="10.00" fill="#000000">+ sf</text>
<polyline fill="none" stroke="#000000" points="174.5,-118.5 311.5,-118.5 "/>
<text text-anchor="start" x="182.5" y="-106.5" font-family="Helvetica,sans-Serif" font-size="10.00" fill="#000000">+ __init__()</text>
<text text-anchor="start" x="182.5" y="-95.5" font-family="Helvetica,sans-Serif" font-size="10.00" fill="#000000">+ Deembed()</text>
</a>
</g>
</g>
<!-- Node0&#45;&gt;Node2 -->
<g id="edge2" class="edge">
<title>Node0&#45;&gt;Node2</title>
<path fill="none" stroke="#191970" d="M404.2856,-303.3914C376.3568,-288.6229 344.3501,-268.7069 320,-245 293.7221,-219.4163 272.3727,-183.1701 258.8773,-156.7446"/>
<polygon fill="none" stroke="#191970" points="402.7056,-306.5146 413.1952,-308.0038 405.9237,-300.2982 402.7056,-306.5146"/>
</g>
<!-- Node3 -->
<g id="node4" class="node">
<title>Node3</title>
<g id="a_node4"><a xlink:href="classSignalIntegrity_1_1Lib_1_1Parsers_1_1SimulatorNumericParser_1_1SimulatorNumericParser.xhtml" target="_top" xlink:title="performs numeric simulations from netlists ">
<polygon fill="#ffffff" stroke="#000000" points="329.5,-88.5 329.5,-156.5 452.5,-156.5 452.5,-88.5 329.5,-88.5"/>
<text text-anchor="middle" x="391" y="-144.5" font-family="Helvetica,sans-Serif" font-size="10.00" fill="#000000">SimulatorNumericParser</text>
<polyline fill="none" stroke="#000000" points="329.5,-137.5 452.5,-137.5 "/>
<text text-anchor="start" x="337.5" y="-125.5" font-family="Helvetica,sans-Serif" font-size="10.00" fill="#000000">+ transferMatrices</text>
<polyline fill="none" stroke="#000000" points="329.5,-118.5 452.5,-118.5 "/>
<text text-anchor="start" x="337.5" y="-106.5" font-family="Helvetica,sans-Serif" font-size="10.00" fill="#000000">+ __init__()</text>
<text text-anchor="start" x="337.5" y="-95.5" font-family="Helvetica,sans-Serif" font-size="10.00" fill="#000000">+ TransferMatrices()</text>
</a>
</g>
</g>
<!-- Node0&#45;&gt;Node3 -->
<g id="edge3" class="edge">
<title>Node0&#45;&gt;Node3</title>
<path fill="none" stroke="#191970" d="M445.0613,-271.5242C431.5307,-234.226 414.6706,-187.7499 403.4103,-156.7101"/>
<polygon fill="none" stroke="#191970" points="441.902,-273.0789 448.6025,-281.2859 448.4824,-270.6917 441.902,-273.0789"/>
</g>
<!-- Node4 -->
<g id="node5" class="node">
<title>Node4</title>
<g id="a_node5"><a xlink:href="classSignalIntegrity_1_1Lib_1_1Parsers_1_1SystemSParametersParser_1_1SystemSParametersNumericParser.xhtml" target="_top" xlink:title="generates system s&#45;parameters from a netlist ">
<polygon fill="#ffffff" stroke="#000000" points="471,-83 471,-162 615,-162 615,-83 471,-83"/>
<text text-anchor="start" x="479" y="-150" font-family="Helvetica,sans-Serif" font-size="10.00" fill="#000000">SystemSParametersNumeric</text>
<text text-anchor="middle" x="543" y="-139" font-family="Helvetica,sans-Serif" font-size="10.00" fill="#000000">Parser</text>
<polyline fill="none" stroke="#000000" points="471,-132 615,-132 "/>
<text text-anchor="start" x="479" y="-120" font-family="Helvetica,sans-Serif" font-size="10.00" fill="#000000">+ sf</text>
<polyline fill="none" stroke="#000000" points="471,-113 615,-113 "/>
<text text-anchor="start" x="479" y="-101" font-family="Helvetica,sans-Serif" font-size="10.00" fill="#000000">+ __init__()</text>
<text text-anchor="start" x="479" y="-90" font-family="Helvetica,sans-Serif" font-size="10.00" fill="#000000">+ SParameters()</text>
</a>
</g>
</g>
<!-- Node0&#45;&gt;Node4 -->
<g id="edge4" class="edge">
<title>Node0&#45;&gt;Node4</title>
<path fill="none" stroke="#191970" d="M488.9089,-271.6063C501.6594,-236.4588 517.3743,-193.1392 528.5737,-162.2673"/>
<polygon fill="none" stroke="#191970" points="485.5176,-270.6917 485.3975,-281.2859 492.098,-273.0789 485.5176,-270.6917"/>
</g>
<!-- Node5 -->
<g id="node6" class="node">
<title>Node5</title>
<g id="a_node6"><a xlink:href="classSignalIntegrity_1_1Lib_1_1Parsers_1_1VirtualProbeNumericParser_1_1VirtualProbeNumericParser.xhtml" target="_top" xlink:title="performs numeric virtual probing from netlists ">
<polygon fill="#ffffff" stroke="#000000" points="633.5,-83 633.5,-162 768.5,-162 768.5,-83 633.5,-83"/>
<text text-anchor="middle" x="701" y="-150" font-family="Helvetica,sans-Serif" font-size="10.00" fill="#000000">VirtualProbeNumericParser</text>
<polyline fill="none" stroke="#000000" points="633.5,-143 768.5,-143 "/>
<text text-anchor="start" x="641.5" y="-131" font-family="Helvetica,sans-Serif" font-size="10.00" fill="#000000">+ transferMatrices</text>
<text text-anchor="start" x="641.5" y="-120" font-family="Helvetica,sans-Serif" font-size="10.00" fill="#000000">+ m_tm</text>
<polyline fill="none" stroke="#000000" points="633.5,-113 768.5,-113 "/>
<text text-anchor="start" x="641.5" y="-101" font-family="Helvetica,sans-Serif" font-size="10.00" fill="#000000">+ __init__()</text>
<text text-anchor="start" x="641.5" y="-90" font-family="Helvetica,sans-Serif" font-size="10.00" fill="#000000">+ TransferMatrices()</text>
</a>
</g>
</g>
<!-- Node0&#45;&gt;Node5 -->
<g id="edge5" class="edge">
<title>Node0&#45;&gt;Node5</title>
<path fill="none" stroke="#191970" d="M530.1421,-306.0507C560.8706,-291.2959 596.924,-270.6225 624,-245 648.9049,-221.432 669.1426,-188.1696 682.6096,-162.2515"/>
<polygon fill="none" stroke="#191970" points="528.358,-303.0216 520.7924,-310.4387 531.332,-309.3585 528.358,-303.0216"/>
</g>
<!-- Node6 -->
<g id="node7" class="node">
<title>Node6</title>
<g id="a_node7"><a xlink:href="classSignalIntegrity_1_1Lib_1_1TimeDomain_1_1Filters_1_1TransferMatricesProcessor_1_1TransferMatricesProcessor.xhtml" target="_top" xlink:title="process transfer matrices ">
<polygon fill="#ffffff" stroke="#000000" points="787,-88.5 787,-156.5 921,-156.5 921,-88.5 787,-88.5"/>
<text text-anchor="middle" x="854" y="-144.5" font-family="Helvetica,sans-Serif" font-size="10.00" fill="#000000">TransferMatricesProcessor</text>
<polyline fill="none" stroke="#000000" points="787,-137.5 921,-137.5 "/>
<text text-anchor="start" x="795" y="-125.5" font-family="Helvetica,sans-Serif" font-size="10.00" fill="#000000">+ TransferMatrices</text>
<polyline fill="none" stroke="#000000" points="787,-118.5 921,-118.5 "/>
<text text-anchor="start" x="795" y="-106.5" font-family="Helvetica,sans-Serif" font-size="10.00" fill="#000000">+ __init__()</text>
<text text-anchor="start" x="795" y="-95.5" font-family="Helvetica,sans-Serif" font-size="10.00" fill="#000000">+ ProcessWaveforms()</text>
</a>
</g>
</g>
<!-- Node0&#45;&gt;Node6 -->
<g id="edge6" class="edge">
<title>Node0&#45;&gt;Node6</title>
<path fill="none" stroke="#191970" d="M530.6333,-327.7071C598.0401,-320.2929 704.6553,-300.0815 778,-245 808.0191,-222.4558 828.9521,-184.2735 841.1405,-156.519"/>
<polygon fill="none" stroke="#191970" points="530.1576,-324.2376 520.5721,-328.7508 530.8799,-331.2002 530.1576,-324.2376"/>
</g>
</g>
</svg>
