<?xml version="1.0" encoding="UTF-8" standalone="no"?>
<!DOCTYPE svg PUBLIC "-//W3C//DTD SVG 1.1//EN"
 "http://www.w3.org/Graphics/SVG/1.1/DTD/svg11.dtd">
<!-- Generated by graphviz version 2.40.1 (20161225.0304)
 -->
<!-- Title: WaveletDaubechies8 Pages: 1 -->
<svg width="118pt" height="215pt"
 viewBox="0.00 0.00 118.00 215.00" xmlns="http://www.w3.org/2000/svg" xmlns:xlink="http://www.w3.org/1999/xlink">
<g id="graph0" class="graph" transform="scale(1 1) rotate(0) translate(4 211)">
<title>WaveletDaubechies8</title>
<polygon fill="#ffffff" stroke="transparent" points="-4,4 -4,-211 114,-211 114,4 -4,4"/>
<!-- Node0 -->
<g id="node1" class="node">
<title>Node0</title>
<polygon fill="#bfbfbf" stroke="#000000" points="0,-.5 0,-57.5 110,-57.5 110,-.5 0,-.5"/>
<text text-anchor="middle" x="55" y="-45.5" font-family="Helvetica,sans-Serif" font-size="10.00" fill="#000000">WaveletDaubechies8</text>
<polyline fill="none" stroke="#000000" points="0,-38.5 110,-38.5 "/>
<text text-anchor="middle" x="55" y="-26.5" font-family="Helvetica,sans-Serif" font-size="10.00" fill="#000000"> </text>
<polyline fill="none" stroke="#000000" points="0,-19.5 110,-19.5 "/>
<text text-anchor="start" x="8" y="-7.5" font-family="Helvetica,sans-Serif" font-size="10.00" fill="#000000">+ __init__()</text>
</g>
<!-- Node1 -->
<g id="node2" class="node">
<title>Node1</title>
<g id="a_node2"><a xlink:href="classSignalIntegrity_1_1Lib_1_1Wavelets_1_1Wavelets_1_1Wavelet.xhtml" target="_top" xlink:title="base class that performs forward and inverse wavelet transforms ">
<polygon fill="#ffffff" stroke="#000000" points="22.5,-94.5 22.5,-206.5 87.5,-206.5 87.5,-94.5 22.5,-94.5"/>
<text text-anchor="middle" x="55" y="-194.5" font-family="Helvetica,sans-Serif" font-size="10.00" fill="#000000">Wavelet</text>
<polyline fill="none" stroke="#000000" points="22.5,-187.5 87.5,-187.5 "/>
<text text-anchor="start" x="30.5" y="-175.5" font-family="Helvetica,sans-Serif" font-size="10.00" fill="#000000">+ h</text>
<text text-anchor="start" x="30.5" y="-164.5" font-family="Helvetica,sans-Serif" font-size="10.00" fill="#000000">+ L</text>
<text text-anchor="start" x="30.5" y="-153.5" font-family="Helvetica,sans-Serif" font-size="10.00" fill="#000000">+ g</text>
<polyline fill="none" stroke="#000000" points="22.5,-146.5 87.5,-146.5 "/>
<text text-anchor="start" x="30.5" y="-134.5" font-family="Helvetica,sans-Serif" font-size="10.00" fill="#000000">+ __init__()</text>
<text text-anchor="start" x="30.5" y="-123.5" font-family="Helvetica,sans-Serif" font-size="10.00" fill="#000000">+ DWT()</text>
<text text-anchor="start" x="30.5" y="-112.5" font-family="Helvetica,sans-Serif" font-size="10.00" fill="#000000">+ IDWT()</text>
<text text-anchor="start" x="30.5" y="-101.5" font-family="Helvetica,sans-Serif" font-size="10.00" fill="#000000">+ intlog2()</text>
</a>
</g>
</g>
<!-- Node1&#45;&gt;Node0 -->
<g id="edge1" class="edge">
<title>Node1&#45;&gt;Node0</title>
<path fill="none" stroke="#191970" d="M55,-84.2502C55,-74.9452 55,-65.8136 55,-57.7385"/>
<polygon fill="none" stroke="#191970" points="51.5001,-84.3734 55,-94.3735 58.5001,-84.3735 51.5001,-84.3734"/>
</g>
</g>
</svg>
