<?xml version="1.0" encoding="UTF-8" standalone="no"?>
<!DOCTYPE svg PUBLIC "-//W3C//DTD SVG 1.1//EN"
 "http://www.w3.org/Graphics/SVG/1.1/DTD/svg11.dtd">
<!-- Generated by graphviz version 2.40.1 (20161225.0304)
 -->
<!-- Title: Symbolic Pages: 1 -->
<svg width="342pt" height="546pt"
 viewBox="0.00 0.00 342.00 546.00" xmlns="http://www.w3.org/2000/svg" xmlns:xlink="http://www.w3.org/1999/xlink">
<g id="graph0" class="graph" transform="scale(1 1) rotate(0) translate(4 542)">
<title>Symbolic</title>
<polygon fill="#ffffff" stroke="transparent" points="-4,4 -4,-542 338,-542 338,4 -4,4"/>
<!-- Node0 -->
<g id="node1" class="node">
<title>Node0</title>
<polygon fill="#bfbfbf" stroke="#000000" points="76.5,-326.5 76.5,-537.5 180.5,-537.5 180.5,-326.5 76.5,-326.5"/>
<text text-anchor="middle" x="128.5" y="-525.5" font-family="Helvetica,sans-Serif" font-size="10.00" fill="#000000">Symbolic</text>
<polyline fill="none" stroke="#000000" points="76.5,-518.5 180.5,-518.5 "/>
<text text-anchor="start" x="84.5" y="-506.5" font-family="Helvetica,sans-Serif" font-size="10.00" fill="#000000">+ m_lines</text>
<text text-anchor="start" x="84.5" y="-495.5" font-family="Helvetica,sans-Serif" font-size="10.00" fill="#000000">+ m_docStart</text>
<text text-anchor="start" x="84.5" y="-484.5" font-family="Helvetica,sans-Serif" font-size="10.00" fill="#000000">+ m_docEnd</text>
<text text-anchor="start" x="84.5" y="-473.5" font-family="Helvetica,sans-Serif" font-size="10.00" fill="#000000">+ m_eqPrefix</text>
<text text-anchor="start" x="84.5" y="-462.5" font-family="Helvetica,sans-Serif" font-size="10.00" fill="#000000">+ m_eqSuffix</text>
<text text-anchor="start" x="84.5" y="-451.5" font-family="Helvetica,sans-Serif" font-size="10.00" fill="#000000">+ m_identity</text>
<text text-anchor="start" x="84.5" y="-440.5" font-family="Helvetica,sans-Serif" font-size="10.00" fill="#000000">+ m_eqEnvironment</text>
<text text-anchor="start" x="84.5" y="-429.5" font-family="Helvetica,sans-Serif" font-size="10.00" fill="#000000">+ m_small</text>
<polyline fill="none" stroke="#000000" points="76.5,-422.5 180.5,-422.5 "/>
<text text-anchor="start" x="84.5" y="-410.5" font-family="Helvetica,sans-Serif" font-size="10.00" fill="#000000">+ __init__()</text>
<text text-anchor="start" x="84.5" y="-399.5" font-family="Helvetica,sans-Serif" font-size="10.00" fill="#000000">+ Clear()</text>
<text text-anchor="start" x="84.5" y="-388.5" font-family="Helvetica,sans-Serif" font-size="10.00" fill="#000000">+ Emit()</text>
<text text-anchor="start" x="84.5" y="-377.5" font-family="Helvetica,sans-Serif" font-size="10.00" fill="#000000">+ DocStart()</text>
<text text-anchor="start" x="84.5" y="-366.5" font-family="Helvetica,sans-Serif" font-size="10.00" fill="#000000">+ DocEnd()</text>
<text text-anchor="start" x="84.5" y="-355.5" font-family="Helvetica,sans-Serif" font-size="10.00" fill="#000000">+ WriteToFile()</text>
<text text-anchor="start" x="84.5" y="-344.5" font-family="Helvetica,sans-Serif" font-size="10.00" fill="#000000">+ Get()</text>
<text text-anchor="start" x="84.5" y="-333.5" font-family="Helvetica,sans-Serif" font-size="10.00" fill="#000000">+ InstallSafeTees()</text>
</g>
<!-- Node1 -->
<g id="node2" class="node">
<title>Node1</title>
<g id="a_node2"><a xlink:href="classSignalIntegrity_1_1SystemDescriptions_1_1DeembedderSymbolic_1_1DeembedderSymbolic.xhtml" target="_top" xlink:title="Produces symbolic solutions to deembedding problems. ">
<polygon fill="#ffffff" stroke="#000000" points="0,-221.5 0,-289.5 113,-289.5 113,-221.5 0,-221.5"/>
<text text-anchor="middle" x="56.5" y="-277.5" font-family="Helvetica,sans-Serif" font-size="10.00" fill="#000000">DeembedderSymbolic</text>
<polyline fill="none" stroke="#000000" points="0,-270.5 113,-270.5 "/>
<text text-anchor="start" x="8" y="-258.5" font-family="Helvetica,sans-Serif" font-size="10.00" fill="#000000">+ m_Sk</text>
<polyline fill="none" stroke="#000000" points="0,-251.5 113,-251.5 "/>
<text text-anchor="start" x="8" y="-239.5" font-family="Helvetica,sans-Serif" font-size="10.00" fill="#000000">+ __init__()</text>
<text text-anchor="start" x="8" y="-228.5" font-family="Helvetica,sans-Serif" font-size="10.00" fill="#000000">+ SymbolicSolution()</text>
</a>
</g>
</g>
<!-- Node0&#45;&gt;Node1 -->
<g id="edge1" class="edge">
<title>Node0&#45;&gt;Node1</title>
<path fill="none" stroke="#191970" d="M81.4998,-316.7843C77.5188,-307.0252 73.7363,-297.7529 70.3743,-289.5114"/>
<polygon fill="none" stroke="#191970" points="78.3524,-318.3351 85.3703,-326.2723 84.8338,-315.6911 78.3524,-318.3351"/>
</g>
<!-- Node2 -->
<g id="node3" class="node">
<title>Node2</title>
<g id="a_node3"><a xlink:href="classSignalIntegrity_1_1SystemDescriptions_1_1SystemDescriptionSymbolic_1_1SystemDescriptionSymbolic.xhtml" target="_top" xlink:title="Solves system descriptions in the most basic manner common to all of the simulation, system s&#45;parameters, deembedding and virtual probing applications. ">
<polygon fill="#ffffff" stroke="#000000" points="131.5,-221.5 131.5,-289.5 271.5,-289.5 271.5,-221.5 131.5,-221.5"/>
<text text-anchor="middle" x="201.5" y="-277.5" font-family="Helvetica,sans-Serif" font-size="10.00" fill="#000000">SystemDescriptionSymbolic</text>
<polyline fill="none" stroke="#000000" points="131.5,-270.5 271.5,-270.5 "/>
<text text-anchor="middle" x="201.5" y="-258.5" font-family="Helvetica,sans-Serif" font-size="10.00" fill="#000000"> </text>
<polyline fill="none" stroke="#000000" points="131.5,-251.5 271.5,-251.5 "/>
<text text-anchor="start" x="139.5" y="-239.5" font-family="Helvetica,sans-Serif" font-size="10.00" fill="#000000">+ __init__()</text>
<text text-anchor="start" x="139.5" y="-228.5" font-family="Helvetica,sans-Serif" font-size="10.00" fill="#000000">+ LaTeXSystemEquation()</text>
</a>
</g>
</g>
<!-- Node0&#45;&gt;Node2 -->
<g id="edge2" class="edge">
<title>Node0&#45;&gt;Node2</title>
<path fill="none" stroke="#191970" d="M176.1529,-316.7843C180.1893,-307.0252 184.0243,-297.7529 187.433,-289.5114"/>
<polygon fill="none" stroke="#191970" points="172.8165,-315.6938 172.2287,-326.2723 179.2851,-318.3692 172.8165,-315.6938"/>
</g>
<!-- Node3 -->
<g id="node4" class="node">
<title>Node3</title>
<g id="a_node4"><a xlink:href="classSignalIntegrity_1_1SystemDescriptions_1_1SystemSParametersSymbolic_1_1SystemSParametersSymbolic.xhtml" target="_top" xlink:title="Class for solving symbolically the s&#45;parameters of interconnected systems. ">
<polygon fill="#ffffff" stroke="#000000" points="127.5,-116.5 127.5,-184.5 275.5,-184.5 275.5,-116.5 127.5,-116.5"/>
<text text-anchor="middle" x="201.5" y="-172.5" font-family="Helvetica,sans-Serif" font-size="10.00" fill="#000000">SystemSParametersSymbolic</text>
<polyline fill="none" stroke="#000000" points="127.5,-165.5 275.5,-165.5 "/>
<text text-anchor="middle" x="201.5" y="-153.5" font-family="Helvetica,sans-Serif" font-size="10.00" fill="#000000"> </text>
<polyline fill="none" stroke="#000000" points="127.5,-146.5 275.5,-146.5 "/>
<text text-anchor="start" x="135.5" y="-134.5" font-family="Helvetica,sans-Serif" font-size="10.00" fill="#000000">+ __init__()</text>
<text text-anchor="start" x="135.5" y="-123.5" font-family="Helvetica,sans-Serif" font-size="10.00" fill="#000000">+ LaTeXSolution()</text>
</a>
</g>
</g>
<!-- Node2&#45;&gt;Node3 -->
<g id="edge3" class="edge">
<title>Node2&#45;&gt;Node3</title>
<path fill="none" stroke="#191970" d="M201.5,-211.2353C201.5,-202.3902 201.5,-193.2253 201.5,-184.7788"/>
<polygon fill="none" stroke="#191970" points="198.0001,-211.4095 201.5,-221.4095 205.0001,-211.4095 198.0001,-211.4095"/>
</g>
<!-- Node4 -->
<g id="node5" class="node">
<title>Node4</title>
<g id="a_node5"><a xlink:href="classSignalIntegrity_1_1SystemDescriptions_1_1SimulatorSymbolic_1_1SimulatorSymbolic.xhtml" target="_top" xlink:title="class for producing symbolic solutions to simulation problems. ">
<polygon fill="#ffffff" stroke="#000000" points="70,-.5 70,-79.5 193,-79.5 193,-.5 70,-.5"/>
<text text-anchor="middle" x="131.5" y="-67.5" font-family="Helvetica,sans-Serif" font-size="10.00" fill="#000000">SimulatorSymbolic</text>
<polyline fill="none" stroke="#000000" points="70,-60.5 193,-60.5 "/>
<text text-anchor="middle" x="131.5" y="-48.5" font-family="Helvetica,sans-Serif" font-size="10.00" fill="#000000"> </text>
<polyline fill="none" stroke="#000000" points="70,-41.5 193,-41.5 "/>
<text text-anchor="start" x="78" y="-29.5" font-family="Helvetica,sans-Serif" font-size="10.00" fill="#000000">+ __init__()</text>
<text text-anchor="start" x="78" y="-18.5" font-family="Helvetica,sans-Serif" font-size="10.00" fill="#000000">+ LaTeXTransferMatrix()</text>
<text text-anchor="start" x="78" y="-7.5" font-family="Helvetica,sans-Serif" font-size="10.00" fill="#000000">+ LaTeXEquations()</text>
</a>
</g>
</g>
<!-- Node3&#45;&gt;Node4 -->
<g id="edge4" class="edge">
<title>Node3&#45;&gt;Node4</title>
<path fill="none" stroke="#191970" d="M174.4136,-107.7422C168.5391,-98.4689 162.3507,-88.7001 156.5585,-79.5566"/>
<polygon fill="none" stroke="#191970" points="171.6184,-109.8701 179.9265,-116.4447 177.5317,-106.1241 171.6184,-109.8701"/>
</g>
<!-- Node5 -->
<g id="node6" class="node">
<title>Node5</title>
<g id="a_node6"><a xlink:href="classSignalIntegrity_1_1SystemDescriptions_1_1VirtualProbeSymbolic_1_1VirtualProbeSymbolic.xhtml" target="_top" xlink:title="Class that provides symbolic solutions to virtual probe problems. ">
<polygon fill="#ffffff" stroke="#000000" points="211,-.5 211,-79.5 334,-79.5 334,-.5 211,-.5"/>
<text text-anchor="middle" x="272.5" y="-67.5" font-family="Helvetica,sans-Serif" font-size="10.00" fill="#000000">VirtualProbeSymbolic</text>
<polyline fill="none" stroke="#000000" points="211,-60.5 334,-60.5 "/>
<text text-anchor="middle" x="272.5" y="-48.5" font-family="Helvetica,sans-Serif" font-size="10.00" fill="#000000"> </text>
<polyline fill="none" stroke="#000000" points="211,-41.5 334,-41.5 "/>
<text text-anchor="start" x="219" y="-29.5" font-family="Helvetica,sans-Serif" font-size="10.00" fill="#000000">+ __init__()</text>
<text text-anchor="start" x="219" y="-18.5" font-family="Helvetica,sans-Serif" font-size="10.00" fill="#000000">+ LaTeXTransferMatrix()</text>
<text text-anchor="start" x="219" y="-7.5" font-family="Helvetica,sans-Serif" font-size="10.00" fill="#000000">+ LaTeXEquations()</text>
</a>
</g>
</g>
<!-- Node3&#45;&gt;Node5 -->
<g id="edge5" class="edge">
<title>Node3&#45;&gt;Node5</title>
<path fill="none" stroke="#191970" d="M228.7892,-108.0288C234.8023,-98.6703 241.148,-88.7943 247.0836,-79.5566"/>
<polygon fill="none" stroke="#191970" points="225.8428,-106.1397 223.3817,-116.4447 231.7319,-109.9237 225.8428,-106.1397"/>
</g>
</g>
</svg>
