<?xml version="1.0" encoding="UTF-8" standalone="no"?>
<!DOCTYPE svg PUBLIC "-//W3C//DTD SVG 1.1//EN"
 "http://www.w3.org/Graphics/SVG/1.1/DTD/svg11.dtd">
<!-- Generated by graphviz version 2.43.0 (0)
 -->
<!-- Title: SystemSParametersNumeric Pages: 1 -->
<svg width="287pt" height="441pt"
 viewBox="0.00 0.00 286.50 441.00" xmlns="http://www.w3.org/2000/svg" xmlns:xlink="http://www.w3.org/1999/xlink">
<g id="graph0" class="graph" transform="scale(1 1) rotate(0) translate(4 437)">
<title>SystemSParametersNumeric</title>
<polygon fill="white" stroke="transparent" points="-4,4 -4,-437 282.5,-437 282.5,4 -4,4"/>
<!-- Node1 -->
<g id="node1" class="node">
<title>Node1</title>
<g id="a_node1"><a xlink:title="Class for computing s&#45;parameters of interconnected systems.">
<polygon fill="#bfbfbf" stroke="black" points="58.5,-0.5 58.5,-68.5 215.5,-68.5 215.5,-0.5 58.5,-0.5"/>
<text text-anchor="middle" x="137" y="-56.5" font-family="Helvetica,sans-Serif" font-size="10.00">SystemSParametersNumeric</text>
<polyline fill="none" stroke="black" points="58.5,-49.5 215.5,-49.5 "/>
<text text-anchor="middle" x="137" y="-37.5" font-family="Helvetica,sans-Serif" font-size="10.00"> </text>
<polyline fill="none" stroke="black" points="58.5,-30.5 215.5,-30.5 "/>
<text text-anchor="start" x="66.5" y="-18.5" font-family="Helvetica,sans-Serif" font-size="10.00">+ __init__()</text>
<text text-anchor="start" x="66.5" y="-7.5" font-family="Helvetica,sans-Serif" font-size="10.00">+ SParameters()</text>
</a>
</g>
</g>
<!-- Node2 -->
<g id="node2" class="node">
<title>Node2</title>
<g id="a_node2"><a xlink:href="classSignalIntegrity_1_1Lib_1_1SystemDescriptions_1_1SystemSParameters_1_1SystemSParameters.xhtml" target="_top" xlink:title="base class for housekeeping involving system s&#45;parameters calculations">
<polygon fill="white" stroke="black" points="7,-105.5 7,-228.5 123,-228.5 123,-105.5 7,-105.5"/>
<text text-anchor="middle" x="65" y="-216.5" font-family="Helvetica,sans-Serif" font-size="10.00">SystemSParameters</text>
<polyline fill="none" stroke="black" points="7,-209.5 123,-209.5 "/>
<text text-anchor="middle" x="65" y="-197.5" font-family="Helvetica,sans-Serif" font-size="10.00"> </text>
<polyline fill="none" stroke="black" points="7,-190.5 123,-190.5 "/>
<text text-anchor="start" x="15" y="-178.5" font-family="Helvetica,sans-Serif" font-size="10.00">+ __init__()</text>
<text text-anchor="start" x="15" y="-167.5" font-family="Helvetica,sans-Serif" font-size="10.00">+ PortANames()</text>
<text text-anchor="start" x="15" y="-156.5" font-family="Helvetica,sans-Serif" font-size="10.00">+ PortBNames()</text>
<text text-anchor="start" x="15" y="-145.5" font-family="Helvetica,sans-Serif" font-size="10.00">+ OtherNames()</text>
<text text-anchor="start" x="15" y="-134.5" font-family="Helvetica,sans-Serif" font-size="10.00">+ NodeVector()</text>
<text text-anchor="start" x="15" y="-123.5" font-family="Helvetica,sans-Serif" font-size="10.00">+ StimulusVector()</text>
<text text-anchor="start" x="15" y="-112.5" font-family="Helvetica,sans-Serif" font-size="10.00"># WeightsMatrix()</text>
</a>
</g>
</g>
<!-- Node2&#45;&gt;Node1 -->
<g id="edge1" class="edge">
<title>Node2&#45;&gt;Node1</title>
<path fill="none" stroke="midnightblue" d="M103.38,-96.43C108.73,-86.74 114,-77.19 118.73,-68.62"/>
<polygon fill="none" stroke="midnightblue" points="100.24,-94.89 98.47,-105.33 106.37,-98.27 100.24,-94.89"/>
</g>
<!-- Node3 -->
<g id="node3" class="node">
<title>Node3</title>
<g id="a_node3"><a xlink:href="classSignalIntegrity_1_1Lib_1_1SystemDescriptions_1_1SystemDescription_1_1SystemDescription.xhtml" target="_top" xlink:title="Allows the construction of system descriptions for use with all of the classes that solve schematics ...">
<polygon fill="white" stroke="black" points="0,-265.5 0,-432.5 130,-432.5 130,-265.5 0,-265.5"/>
<text text-anchor="middle" x="65" y="-420.5" font-family="Helvetica,sans-Serif" font-size="10.00">SystemDescription</text>
<polyline fill="none" stroke="black" points="0,-413.5 130,-413.5 "/>
<text text-anchor="start" x="8" y="-401.5" font-family="Helvetica,sans-Serif" font-size="10.00">+ m_UniqueDevice</text>
<text text-anchor="start" x="8" y="-390.5" font-family="Helvetica,sans-Serif" font-size="10.00">+ m_UniqueNode</text>
<polyline fill="none" stroke="black" points="0,-383.5 130,-383.5 "/>
<text text-anchor="start" x="8" y="-371.5" font-family="Helvetica,sans-Serif" font-size="10.00">+ __init__()</text>
<text text-anchor="start" x="8" y="-360.5" font-family="Helvetica,sans-Serif" font-size="10.00">+ AddDevice()</text>
<text text-anchor="start" x="8" y="-349.5" font-family="Helvetica,sans-Serif" font-size="10.00">+ AssignM()</text>
<text text-anchor="start" x="8" y="-338.5" font-family="Helvetica,sans-Serif" font-size="10.00">+ DeviceNames()</text>
<text text-anchor="start" x="8" y="-327.5" font-family="Helvetica,sans-Serif" font-size="10.00">+ IndexOfDevice()</text>
<text text-anchor="start" x="8" y="-316.5" font-family="Helvetica,sans-Serif" font-size="10.00">+ CheckConnections()</text>
<text text-anchor="start" x="8" y="-305.5" font-family="Helvetica,sans-Serif" font-size="10.00">+ ConnectDevicePort()</text>
<text text-anchor="start" x="8" y="-294.5" font-family="Helvetica,sans-Serif" font-size="10.00">+ AddPort()</text>
<text text-anchor="start" x="8" y="-283.5" font-family="Helvetica,sans-Serif" font-size="10.00">+ AssignSParameters()</text>
<text text-anchor="start" x="8" y="-272.5" font-family="Helvetica,sans-Serif" font-size="10.00">+ Print()</text>
</a>
</g>
</g>
<!-- Node3&#45;&gt;Node2 -->
<g id="edge2" class="edge">
<title>Node3&#45;&gt;Node2</title>
<path fill="none" stroke="midnightblue" d="M65,-255.19C65,-246.17 65,-237.19 65,-228.61"/>
<polygon fill="none" stroke="midnightblue" points="61.5,-255.38 65,-265.38 68.5,-255.38 61.5,-255.38"/>
</g>
<!-- Node4 -->
<g id="node4" class="node">
<title>Node4</title>
<g id="a_node4"><a xlink:href="classSignalIntegrity_1_1Lib_1_1SystemDescriptions_1_1Numeric_1_1Numeric.xhtml" target="_top" xlink:title="handles numeric details of derived class solutions">
<polygon fill="white" stroke="black" points="141.5,-111 141.5,-223 278.5,-223 278.5,-111 141.5,-111"/>
<text text-anchor="middle" x="210" y="-211" font-family="Helvetica,sans-Serif" font-size="10.00">Numeric</text>
<polyline fill="none" stroke="black" points="141.5,-204 278.5,-204 "/>
<text text-anchor="start" x="149.5" y="-192" font-family="Helvetica,sans-Serif" font-size="10.00">+ alwaysUseSVD</text>
<text text-anchor="start" x="149.5" y="-181" font-family="Helvetica,sans-Serif" font-size="10.00">+ trySVD</text>
<text text-anchor="start" x="149.5" y="-170" font-family="Helvetica,sans-Serif" font-size="10.00">+ singularValueLimit</text>
<text text-anchor="start" x="149.5" y="-159" font-family="Helvetica,sans-Serif" font-size="10.00">+ conditionNumberLimit</text>
<polyline fill="none" stroke="black" points="141.5,-152 278.5,-152 "/>
<text text-anchor="start" x="149.5" y="-140" font-family="Helvetica,sans-Serif" font-size="10.00">+ InstallSafeTees()</text>
<text text-anchor="start" x="149.5" y="-129" font-family="Helvetica,sans-Serif" font-size="10.00">+ Dagger()</text>
<text text-anchor="start" x="149.5" y="-118" font-family="Helvetica,sans-Serif" font-size="10.00">+ PermutationMatrix()</text>
</a>
</g>
</g>
<!-- Node4&#45;&gt;Node1 -->
<g id="edge3" class="edge">
<title>Node4&#45;&gt;Node1</title>
<path fill="none" stroke="midnightblue" d="M174.13,-101.88C167.69,-90.36 161.22,-78.79 155.52,-68.61"/>
<polygon fill="none" stroke="midnightblue" points="171.1,-103.64 179.04,-110.66 177.21,-100.22 171.1,-103.64"/>
</g>
</g>
</svg>
