<?xml version="1.0" encoding="UTF-8" standalone="no"?>
<!DOCTYPE svg PUBLIC "-//W3C//DTD SVG 1.1//EN"
 "http://www.w3.org/Graphics/SVG/1.1/DTD/svg11.dtd">
<!-- Generated by graphviz version 2.40.1 (20161225.0304)
 -->
<!-- Title: DeembedderParser Pages: 1 -->
<svg width="145pt" height="502pt"
 viewBox="0.00 0.00 145.00 502.00" xmlns="http://www.w3.org/2000/svg" xmlns:xlink="http://www.w3.org/1999/xlink">
<g id="graph0" class="graph" transform="scale(1 1) rotate(0) translate(4 498)">
<title>DeembedderParser</title>
<polygon fill="#ffffff" stroke="transparent" points="-4,4 -4,-498 141,-498 141,4 -4,4"/>
<!-- Node0 -->
<g id="node1" class="node">
<title>Node0</title>
<polygon fill="#bfbfbf" stroke="#000000" points="18,-105.5 18,-173.5 119,-173.5 119,-105.5 18,-105.5"/>
<text text-anchor="middle" x="68.5" y="-161.5" font-family="Helvetica,sans-Serif" font-size="10.00" fill="#000000">DeembedderParser</text>
<polyline fill="none" stroke="#000000" points="18,-154.5 119,-154.5 "/>
<text text-anchor="start" x="26" y="-142.5" font-family="Helvetica,sans-Serif" font-size="10.00" fill="#000000">+ m_sd</text>
<text text-anchor="start" x="26" y="-131.5" font-family="Helvetica,sans-Serif" font-size="10.00" fill="#000000">+ m_ul</text>
<polyline fill="none" stroke="#000000" points="18,-124.5 119,-124.5 "/>
<text text-anchor="start" x="26" y="-112.5" font-family="Helvetica,sans-Serif" font-size="10.00" fill="#000000">+ __init__()</text>
</g>
<!-- Node3 -->
<g id="node4" class="node">
<title>Node3</title>
<g id="a_node4"><a xlink:href="classSignalIntegrity_1_1Lib_1_1Parsers_1_1DeembedderNumericParser_1_1DeembedderNumericParser.xhtml" target="_top" xlink:title="generates deembedd s&#45;parameters from a netlist ">
<polygon fill="#ffffff" stroke="#000000" points="0,-.5 0,-68.5 137,-68.5 137,-.5 0,-.5"/>
<text text-anchor="middle" x="68.5" y="-56.5" font-family="Helvetica,sans-Serif" font-size="10.00" fill="#000000">DeembedderNumericParser</text>
<polyline fill="none" stroke="#000000" points="0,-49.5 137,-49.5 "/>
<text text-anchor="start" x="8" y="-37.5" font-family="Helvetica,sans-Serif" font-size="10.00" fill="#000000">+ sf</text>
<polyline fill="none" stroke="#000000" points="0,-30.5 137,-30.5 "/>
<text text-anchor="start" x="8" y="-18.5" font-family="Helvetica,sans-Serif" font-size="10.00" fill="#000000">+ __init__()</text>
<text text-anchor="start" x="8" y="-7.5" font-family="Helvetica,sans-Serif" font-size="10.00" fill="#000000">+ Deembed()</text>
</a>
</g>
</g>
<!-- Node0&#45;&gt;Node3 -->
<g id="edge3" class="edge">
<title>Node0&#45;&gt;Node3</title>
<path fill="none" stroke="#191970" d="M68.5,-95.2353C68.5,-86.3902 68.5,-77.2253 68.5,-68.7788"/>
<polygon fill="none" stroke="#191970" points="65.0001,-95.4095 68.5,-105.4095 72.0001,-95.4095 65.0001,-95.4095"/>
</g>
<!-- Node1 -->
<g id="node2" class="node">
<title>Node1</title>
<g id="a_node2"><a xlink:href="classSignalIntegrity_1_1Lib_1_1Parsers_1_1SystemDescriptionParser_1_1SystemDescriptionParser.xhtml" target="_top" xlink:title="Parses netlists and produces system descriptions. ">
<polygon fill="#ffffff" stroke="#000000" points="4.5,-210.5 4.5,-388.5 132.5,-388.5 132.5,-210.5 4.5,-210.5"/>
<text text-anchor="middle" x="68.5" y="-376.5" font-family="Helvetica,sans-Serif" font-size="10.00" fill="#000000">SystemDescriptionParser</text>
<polyline fill="none" stroke="#000000" points="4.5,-369.5 132.5,-369.5 "/>
<text text-anchor="start" x="12.5" y="-357.5" font-family="Helvetica,sans-Serif" font-size="10.00" fill="#000000">+ m_sd</text>
<text text-anchor="start" x="12.5" y="-346.5" font-family="Helvetica,sans-Serif" font-size="10.00" fill="#000000">+ m_f</text>
<text text-anchor="start" x="12.5" y="-335.5" font-family="Helvetica,sans-Serif" font-size="10.00" fill="#000000">+ m_lines</text>
<text text-anchor="start" x="12.5" y="-324.5" font-family="Helvetica,sans-Serif" font-size="10.00" fill="#000000">+ m_addThru</text>
<text text-anchor="start" x="12.5" y="-313.5" font-family="Helvetica,sans-Serif" font-size="10.00" fill="#000000">+ known</text>
<text text-anchor="start" x="12.5" y="-302.5" font-family="Helvetica,sans-Serif" font-size="10.00" fill="#000000">+ m_spc</text>
<text text-anchor="start" x="12.5" y="-291.5" font-family="Helvetica,sans-Serif" font-size="10.00" fill="#000000">+ m_spcl</text>
<text text-anchor="start" x="12.5" y="-280.5" font-family="Helvetica,sans-Serif" font-size="10.00" fill="#000000">+ m_ul</text>
<polyline fill="none" stroke="#000000" points="4.5,-273.5 132.5,-273.5 "/>
<text text-anchor="start" x="12.5" y="-261.5" font-family="Helvetica,sans-Serif" font-size="10.00" fill="#000000">+ __init__()</text>
<text text-anchor="start" x="12.5" y="-250.5" font-family="Helvetica,sans-Serif" font-size="10.00" fill="#000000">+ SystemDescription()</text>
<text text-anchor="start" x="12.5" y="-239.5" font-family="Helvetica,sans-Serif" font-size="10.00" fill="#000000">+ AddKnownDevices()</text>
<text text-anchor="start" x="12.5" y="-228.5" font-family="Helvetica,sans-Serif" font-size="10.00" fill="#000000">+ AddLine()</text>
<text text-anchor="start" x="12.5" y="-217.5" font-family="Helvetica,sans-Serif" font-size="10.00" fill="#000000">+ AddLines()</text>
</a>
</g>
</g>
<!-- Node1&#45;&gt;Node0 -->
<g id="edge1" class="edge">
<title>Node1&#45;&gt;Node0</title>
<path fill="none" stroke="#191970" d="M68.5,-199.9715C68.5,-190.7079 68.5,-181.8164 68.5,-173.8363"/>
<polygon fill="none" stroke="#191970" points="65.0001,-200.144 68.5,-210.1441 72.0001,-200.1441 65.0001,-200.144"/>
</g>
<!-- Node2 -->
<g id="node3" class="node">
<title>Node2</title>
<g id="a_node3"><a xlink:href="classSignalIntegrity_1_1Lib_1_1Parsers_1_1ParserFile_1_1ParserFile.xhtml" target="_top" xlink:title="file handling base class for parsers ">
<polygon fill="#ffffff" stroke="#000000" points="27.5,-425.5 27.5,-493.5 109.5,-493.5 109.5,-425.5 27.5,-425.5"/>
<text text-anchor="middle" x="68.5" y="-481.5" font-family="Helvetica,sans-Serif" font-size="10.00" fill="#000000">ParserFile</text>
<polyline fill="none" stroke="#000000" points="27.5,-474.5 109.5,-474.5 "/>
<text text-anchor="middle" x="68.5" y="-462.5" font-family="Helvetica,sans-Serif" font-size="10.00" fill="#000000"> </text>
<polyline fill="none" stroke="#000000" points="27.5,-455.5 109.5,-455.5 "/>
<text text-anchor="start" x="35.5" y="-443.5" font-family="Helvetica,sans-Serif" font-size="10.00" fill="#000000">+ File()</text>
<text text-anchor="start" x="35.5" y="-432.5" font-family="Helvetica,sans-Serif" font-size="10.00" fill="#000000">+ WriteToFile()</text>
</a>
</g>
</g>
<!-- Node2&#45;&gt;Node1 -->
<g id="edge2" class="edge">
<title>Node2&#45;&gt;Node1</title>
<path fill="none" stroke="#191970" d="M68.5,-415.0284C68.5,-406.7175 68.5,-397.7646 68.5,-388.6512"/>
<polygon fill="none" stroke="#191970" points="65.0001,-415.176 68.5,-425.176 72.0001,-415.176 65.0001,-415.176"/>
</g>
</g>
</svg>
