<?xml version="1.0" encoding="UTF-8" standalone="no"?>
<!DOCTYPE svg PUBLIC "-//W3C//DTD SVG 1.1//EN"
 "http://www.w3.org/Graphics/SVG/1.1/DTD/svg11.dtd">
<!-- Generated by graphviz version 2.40.1 (20161225.0304)
 -->
<!-- Title: FilterDescriptor Pages: 1 -->
<svg width="258pt" height="303pt"
 viewBox="0.00 0.00 258.00 303.00" xmlns="http://www.w3.org/2000/svg" xmlns:xlink="http://www.w3.org/1999/xlink">
<g id="graph0" class="graph" transform="scale(1 1) rotate(0) translate(4 299)">
<title>FilterDescriptor</title>
<polygon fill="#ffffff" stroke="transparent" points="-4,4 -4,-299 254,-299 254,4 -4,4"/>
<!-- Node0 -->
<g id="node1" class="node">
<title>Node0</title>
<polygon fill="#bfbfbf" stroke="#000000" points="85,-127.5 85,-294.5 168,-294.5 168,-127.5 85,-127.5"/>
<text text-anchor="middle" x="126.5" y="-282.5" font-family="Helvetica,sans-Serif" font-size="10.00" fill="#000000">FilterDescriptor</text>
<polyline fill="none" stroke="#000000" points="85,-275.5 168,-275.5 "/>
<text text-anchor="start" x="93" y="-263.5" font-family="Helvetica,sans-Serif" font-size="10.00" fill="#000000">+ U</text>
<text text-anchor="start" x="93" y="-252.5" font-family="Helvetica,sans-Serif" font-size="10.00" fill="#000000">+ D</text>
<text text-anchor="start" x="93" y="-241.5" font-family="Helvetica,sans-Serif" font-size="10.00" fill="#000000">+ S</text>
<polyline fill="none" stroke="#000000" points="85,-234.5 168,-234.5 "/>
<text text-anchor="start" x="93" y="-222.5" font-family="Helvetica,sans-Serif" font-size="10.00" fill="#000000">+ __init__()</text>
<text text-anchor="start" x="93" y="-211.5" font-family="Helvetica,sans-Serif" font-size="10.00" fill="#000000">+ __eq__()</text>
<text text-anchor="start" x="93" y="-200.5" font-family="Helvetica,sans-Serif" font-size="10.00" fill="#000000">+ __mul__()</text>
<text text-anchor="start" x="93" y="-189.5" font-family="Helvetica,sans-Serif" font-size="10.00" fill="#000000">+ Before()</text>
<text text-anchor="start" x="93" y="-178.5" font-family="Helvetica,sans-Serif" font-size="10.00" fill="#000000">+ After()</text>
<text text-anchor="start" x="93" y="-167.5" font-family="Helvetica,sans-Serif" font-size="10.00" fill="#000000">+ TrimLeft()</text>
<text text-anchor="start" x="93" y="-156.5" font-family="Helvetica,sans-Serif" font-size="10.00" fill="#000000">+ TrimRight()</text>
<text text-anchor="start" x="93" y="-145.5" font-family="Helvetica,sans-Serif" font-size="10.00" fill="#000000">+ TrimTotal()</text>
<text text-anchor="start" x="93" y="-134.5" font-family="Helvetica,sans-Serif" font-size="10.00" fill="#000000">+ Print()</text>
</g>
<!-- Node1 -->
<g id="node2" class="node">
<title>Node1</title>
<g id="a_node2"><a xlink:href="classSignalIntegrity_1_1Lib_1_1TimeDomain_1_1Filters_1_1WaveformDecimator_1_1WaveformDecimator.xhtml" target="_top" xlink:title="decimates waveforms ">
<polygon fill="#ffffff" stroke="#000000" points="0,-.5 0,-90.5 119,-90.5 119,-.5 0,-.5"/>
<text text-anchor="middle" x="59.5" y="-78.5" font-family="Helvetica,sans-Serif" font-size="10.00" fill="#000000">WaveformDecimator</text>
<polyline fill="none" stroke="#000000" points="0,-71.5 119,-71.5 "/>
<text text-anchor="start" x="8" y="-59.5" font-family="Helvetica,sans-Serif" font-size="10.00" fill="#000000">+ df</text>
<text text-anchor="start" x="8" y="-48.5" font-family="Helvetica,sans-Serif" font-size="10.00" fill="#000000">+ dph</text>
<polyline fill="none" stroke="#000000" points="0,-41.5 119,-41.5 "/>
<text text-anchor="start" x="8" y="-29.5" font-family="Helvetica,sans-Serif" font-size="10.00" fill="#000000">+ __init__()</text>
<text text-anchor="start" x="8" y="-18.5" font-family="Helvetica,sans-Serif" font-size="10.00" fill="#000000">+ ProcessWaveform()</text>
<text text-anchor="start" x="8" y="-7.5" font-family="Helvetica,sans-Serif" font-size="10.00" fill="#000000">+ DecimateWaveform()</text>
</a>
</g>
</g>
<!-- Node0&#45;&gt;Node1 -->
<g id="edge1" class="edge">
<title>Node0&#45;&gt;Node1</title>
<path fill="none" stroke="#191970" d="M88.7711,-117.8039C84.952,-108.3703 81.2075,-99.1207 77.7403,-90.5562"/>
<polygon fill="none" stroke="#191970" points="85.6106,-119.3244 92.6074,-127.2803 92.0991,-116.6977 85.6106,-119.3244"/>
</g>
<!-- Node2 -->
<g id="node3" class="node">
<title>Node2</title>
<g id="a_node3"><a xlink:href="classSignalIntegrity_1_1Lib_1_1TimeDomain_1_1Filters_1_1WaveformTrimmer_1_1WaveformTrimmer.xhtml" target="_top" xlink:title="trims waveforms ">
<polygon fill="#ffffff" stroke="#000000" points="137,-6 137,-85 250,-85 250,-6 137,-6"/>
<text text-anchor="middle" x="193.5" y="-73" font-family="Helvetica,sans-Serif" font-size="10.00" fill="#000000">WaveformTrimmer</text>
<polyline fill="none" stroke="#000000" points="137,-66 250,-66 "/>
<text text-anchor="middle" x="193.5" y="-54" font-family="Helvetica,sans-Serif" font-size="10.00" fill="#000000"> </text>
<polyline fill="none" stroke="#000000" points="137,-47 250,-47 "/>
<text text-anchor="start" x="145" y="-35" font-family="Helvetica,sans-Serif" font-size="10.00" fill="#000000">+ __init__()</text>
<text text-anchor="start" x="145" y="-24" font-family="Helvetica,sans-Serif" font-size="10.00" fill="#000000">+ ProcessWaveform()</text>
<text text-anchor="start" x="145" y="-13" font-family="Helvetica,sans-Serif" font-size="10.00" fill="#000000">+ TrimWaveform()</text>
</a>
</g>
</g>
<!-- Node0&#45;&gt;Node2 -->
<g id="edge2" class="edge">
<title>Node0&#45;&gt;Node2</title>
<path fill="none" stroke="#191970" d="M164.1625,-117.9681C168.8427,-106.4073 173.4128,-95.1185 177.4997,-85.0231"/>
<polygon fill="none" stroke="#191970" points="160.9009,-116.6977 160.3926,-127.2803 167.3894,-119.3244 160.9009,-116.6977"/>
</g>
</g>
</svg>
