<?xml version="1.0" encoding="UTF-8" standalone="no"?>
<!DOCTYPE svg PUBLIC "-//W3C//DTD SVG 1.1//EN"
 "http://www.w3.org/Graphics/SVG/1.1/DTD/svg11.dtd">
<!-- Generated by graphviz version 2.43.0 (0)
 -->
<!-- Title: FrequencyList Pages: 1 -->
<svg width="280pt" height="303pt"
 viewBox="0.00 0.00 279.50 303.00" xmlns="http://www.w3.org/2000/svg" xmlns:xlink="http://www.w3.org/1999/xlink">
<g id="graph0" class="graph" transform="scale(1 1) rotate(0) translate(4 299)">
<title>FrequencyList</title>
<polygon fill="white" stroke="transparent" points="-4,4 -4,-299 275.5,-299 275.5,4 -4,4"/>
<!-- Node1 -->
<g id="node1" class="node">
<title>Node1</title>
<g id="a_node1"><a xlink:title="Frequency lists.">
<polygon fill="#bfbfbf" stroke="black" points="81,-94.5 81,-294.5 204,-294.5 204,-94.5 81,-94.5"/>
<text text-anchor="middle" x="142.5" y="-282.5" font-family="Helvetica,sans-Serif" font-size="10.00">FrequencyList</text>
<polyline fill="none" stroke="black" points="81,-275.5 204,-275.5 "/>
<text text-anchor="start" x="89" y="-263.5" font-family="Helvetica,sans-Serif" font-size="10.00">+ N</text>
<text text-anchor="start" x="89" y="-252.5" font-family="Helvetica,sans-Serif" font-size="10.00">+ Fe</text>
<text text-anchor="start" x="89" y="-241.5" font-family="Helvetica,sans-Serif" font-size="10.00">+ m_EvenlySpaced</text>
<polyline fill="none" stroke="black" points="81,-234.5 204,-234.5 "/>
<text text-anchor="start" x="89" y="-222.5" font-family="Helvetica,sans-Serif" font-size="10.00">+ __init__()</text>
<text text-anchor="start" x="89" y="-211.5" font-family="Helvetica,sans-Serif" font-size="10.00">+ SetEvenlySpaced()</text>
<text text-anchor="start" x="89" y="-200.5" font-family="Helvetica,sans-Serif" font-size="10.00">+ SetList()</text>
<text text-anchor="start" x="89" y="-189.5" font-family="Helvetica,sans-Serif" font-size="10.00">+ EvenlySpaced()</text>
<text text-anchor="start" x="89" y="-178.5" font-family="Helvetica,sans-Serif" font-size="10.00">+ Frequencies()</text>
<text text-anchor="start" x="89" y="-167.5" font-family="Helvetica,sans-Serif" font-size="10.00">+ CheckEvenlySpaced()</text>
<text text-anchor="start" x="89" y="-156.5" font-family="Helvetica,sans-Serif" font-size="10.00">+ __div__()</text>
<text text-anchor="start" x="89" y="-145.5" font-family="Helvetica,sans-Serif" font-size="10.00">+ __truediv__()</text>
<text text-anchor="start" x="89" y="-134.5" font-family="Helvetica,sans-Serif" font-size="10.00">+ __mul__()</text>
<text text-anchor="start" x="89" y="-123.5" font-family="Helvetica,sans-Serif" font-size="10.00">+ TimeDescriptor()</text>
<text text-anchor="start" x="89" y="-112.5" font-family="Helvetica,sans-Serif" font-size="10.00">+ __eq__()</text>
<text text-anchor="start" x="89" y="-101.5" font-family="Helvetica,sans-Serif" font-size="10.00">+ __ne__()</text>
</a>
</g>
</g>
<!-- Node2 -->
<g id="node2" class="node">
<title>Node2</title>
<g id="a_node2"><a xlink:href="classSignalIntegrity_1_1Lib_1_1FrequencyDomain_1_1FrequencyList_1_1EvenlySpacedFrequencyList.xhtml" target="_top" xlink:title="A evenly spaced list of frequencies.">
<polygon fill="white" stroke="black" points="0,-0.5 0,-57.5 141,-57.5 141,-0.5 0,-0.5"/>
<text text-anchor="middle" x="70.5" y="-45.5" font-family="Helvetica,sans-Serif" font-size="10.00">EvenlySpacedFrequencyList</text>
<polyline fill="none" stroke="black" points="0,-38.5 141,-38.5 "/>
<text text-anchor="middle" x="70.5" y="-26.5" font-family="Helvetica,sans-Serif" font-size="10.00"> </text>
<polyline fill="none" stroke="black" points="0,-19.5 141,-19.5 "/>
<text text-anchor="start" x="8" y="-7.5" font-family="Helvetica,sans-Serif" font-size="10.00">+ __init__()</text>
</a>
</g>
</g>
<!-- Node1&#45;&gt;Node2 -->
<g id="edge1" class="edge">
<title>Node1&#45;&gt;Node2</title>
<path fill="none" stroke="midnightblue" d="M94.67,-84.88C90.29,-74.94 86.17,-65.59 82.62,-57.53"/>
<polygon fill="none" stroke="midnightblue" points="91.52,-86.41 98.75,-94.15 97.92,-83.59 91.52,-86.41"/>
</g>
<!-- Node3 -->
<g id="node3" class="node">
<title>Node3</title>
<g id="a_node3"><a xlink:href="classSignalIntegrity_1_1Lib_1_1FrequencyDomain_1_1FrequencyList_1_1GenericFrequencyList.xhtml" target="_top" xlink:title="A generic list of frequencies assumed to be not evenly spaced.">
<polygon fill="white" stroke="black" points="159.5,-0.5 159.5,-57.5 271.5,-57.5 271.5,-0.5 159.5,-0.5"/>
<text text-anchor="middle" x="215.5" y="-45.5" font-family="Helvetica,sans-Serif" font-size="10.00">GenericFrequencyList</text>
<polyline fill="none" stroke="black" points="159.5,-38.5 271.5,-38.5 "/>
<text text-anchor="middle" x="215.5" y="-26.5" font-family="Helvetica,sans-Serif" font-size="10.00"> </text>
<polyline fill="none" stroke="black" points="159.5,-19.5 271.5,-19.5 "/>
<text text-anchor="start" x="167.5" y="-7.5" font-family="Helvetica,sans-Serif" font-size="10.00">+ __init__()</text>
</a>
</g>
</g>
<!-- Node1&#45;&gt;Node3 -->
<g id="edge2" class="edge">
<title>Node1&#45;&gt;Node3</title>
<path fill="none" stroke="midnightblue" d="M191,-84.88C195.44,-74.94 199.61,-65.59 203.21,-57.53"/>
<polygon fill="none" stroke="midnightblue" points="187.74,-83.59 186.86,-94.15 194.13,-86.45 187.74,-83.59"/>
</g>
</g>
</svg>
