<?xml version="1.0" encoding="UTF-8" standalone="no"?>
<!DOCTYPE svg PUBLIC "-//W3C//DTD SVG 1.1//EN"
 "http://www.w3.org/Graphics/SVG/1.1/DTD/svg11.dtd">
<!-- Generated by graphviz version 2.43.0 (0)
 -->
<!-- Title: SimulatorParser Pages: 1 -->
<svg width="161pt" height="706pt"
 viewBox="0.00 0.00 161.00 706.00" xmlns="http://www.w3.org/2000/svg" xmlns:xlink="http://www.w3.org/1999/xlink">
<g id="graph0" class="graph" transform="scale(1 1) rotate(0) translate(4 702)">
<title>SimulatorParser</title>
<polygon fill="white" stroke="transparent" points="-4,4 -4,-702 157,-702 157,4 -4,4"/>
<!-- Node1 -->
<g id="node1" class="node">
<title>Node1</title>
<g id="a_node1"><a xlink:title="base class for netlist based simulation solutions">
<polygon fill="#bfbfbf" stroke="black" points="29,-298.5 29,-366.5 124,-366.5 124,-298.5 29,-298.5"/>
<text text-anchor="middle" x="76.5" y="-354.5" font-family="Helvetica,sans-Serif" font-size="10.00">SimulatorParser</text>
<polyline fill="none" stroke="black" points="29,-347.5 124,-347.5 "/>
<text text-anchor="start" x="37" y="-335.5" font-family="Helvetica,sans-Serif" font-size="10.00">+ m_sd</text>
<text text-anchor="start" x="37" y="-324.5" font-family="Helvetica,sans-Serif" font-size="10.00">+ m_ul</text>
<polyline fill="none" stroke="black" points="29,-317.5 124,-317.5 "/>
<text text-anchor="start" x="37" y="-305.5" font-family="Helvetica,sans-Serif" font-size="10.00">+ __init__()</text>
</a>
</g>
</g>
<!-- Node4 -->
<g id="node4" class="node">
<title>Node4</title>
<g id="a_node4"><a xlink:href="classSignalIntegrity_1_1Lib_1_1Parsers_1_1SimulatorNumericParser_1_1SimulatorNumericParser.xhtml" target="_top" xlink:title="performs numeric simulations from netlists">
<polygon fill="white" stroke="black" points="8.5,-193.5 8.5,-261.5 144.5,-261.5 144.5,-193.5 8.5,-193.5"/>
<text text-anchor="middle" x="76.5" y="-249.5" font-family="Helvetica,sans-Serif" font-size="10.00">SimulatorNumericParser</text>
<polyline fill="none" stroke="black" points="8.5,-242.5 144.5,-242.5 "/>
<text text-anchor="start" x="16.5" y="-230.5" font-family="Helvetica,sans-Serif" font-size="10.00">+ transferMatrices</text>
<polyline fill="none" stroke="black" points="8.5,-223.5 144.5,-223.5 "/>
<text text-anchor="start" x="16.5" y="-211.5" font-family="Helvetica,sans-Serif" font-size="10.00">+ __init__()</text>
<text text-anchor="start" x="16.5" y="-200.5" font-family="Helvetica,sans-Serif" font-size="10.00">+ TransferMatrices()</text>
</a>
</g>
</g>
<!-- Node1&#45;&gt;Node4 -->
<g id="edge3" class="edge">
<title>Node1&#45;&gt;Node4</title>
<path fill="none" stroke="midnightblue" d="M76.5,-288.14C76.5,-279.26 76.5,-270.04 76.5,-261.59"/>
<polygon fill="none" stroke="midnightblue" points="73,-288.34 76.5,-298.34 80,-288.34 73,-288.34"/>
</g>
<!-- Node2 -->
<g id="node2" class="node">
<title>Node2</title>
<g id="a_node2"><a xlink:href="classSignalIntegrity_1_1Lib_1_1Parsers_1_1SystemDescriptionParser_1_1SystemDescriptionParser.xhtml" target="_top" xlink:title="Parses netlists and produces system descriptions.">
<polygon fill="white" stroke="black" points="6.5,-403.5 6.5,-592.5 146.5,-592.5 146.5,-403.5 6.5,-403.5"/>
<text text-anchor="middle" x="76.5" y="-580.5" font-family="Helvetica,sans-Serif" font-size="10.00">SystemDescriptionParser</text>
<polyline fill="none" stroke="black" points="6.5,-573.5 146.5,-573.5 "/>
<text text-anchor="start" x="14.5" y="-561.5" font-family="Helvetica,sans-Serif" font-size="10.00">+ m_sd</text>
<text text-anchor="start" x="14.5" y="-550.5" font-family="Helvetica,sans-Serif" font-size="10.00">+ m_f</text>
<text text-anchor="start" x="14.5" y="-539.5" font-family="Helvetica,sans-Serif" font-size="10.00">+ m_lines</text>
<text text-anchor="start" x="14.5" y="-528.5" font-family="Helvetica,sans-Serif" font-size="10.00">+ m_addThru</text>
<text text-anchor="start" x="14.5" y="-517.5" font-family="Helvetica,sans-Serif" font-size="10.00">+ known</text>
<text text-anchor="start" x="14.5" y="-506.5" font-family="Helvetica,sans-Serif" font-size="10.00">+ delayDict</text>
<text text-anchor="start" x="14.5" y="-495.5" font-family="Helvetica,sans-Serif" font-size="10.00">+ m_spc</text>
<text text-anchor="start" x="14.5" y="-484.5" font-family="Helvetica,sans-Serif" font-size="10.00">+ m_spcl</text>
<text text-anchor="start" x="14.5" y="-473.5" font-family="Helvetica,sans-Serif" font-size="10.00">+ m_ul</text>
<polyline fill="none" stroke="black" points="6.5,-466.5 146.5,-466.5 "/>
<text text-anchor="start" x="14.5" y="-454.5" font-family="Helvetica,sans-Serif" font-size="10.00">+ __init__()</text>
<text text-anchor="start" x="14.5" y="-443.5" font-family="Helvetica,sans-Serif" font-size="10.00">+ SystemDescription()</text>
<text text-anchor="start" x="14.5" y="-432.5" font-family="Helvetica,sans-Serif" font-size="10.00">+ AddKnownDevices()</text>
<text text-anchor="start" x="14.5" y="-421.5" font-family="Helvetica,sans-Serif" font-size="10.00">+ AddLine()</text>
<text text-anchor="start" x="14.5" y="-410.5" font-family="Helvetica,sans-Serif" font-size="10.00">+ AddLines()</text>
</a>
</g>
</g>
<!-- Node2&#45;&gt;Node1 -->
<g id="edge1" class="edge">
<title>Node2&#45;&gt;Node1</title>
<path fill="none" stroke="midnightblue" d="M76.5,-393.27C76.5,-383.75 76.5,-374.67 76.5,-366.58"/>
<polygon fill="none" stroke="midnightblue" points="73,-393.31 76.5,-403.31 80,-393.31 73,-393.31"/>
</g>
<!-- Node3 -->
<g id="node3" class="node">
<title>Node3</title>
<g id="a_node3"><a xlink:href="classSignalIntegrity_1_1Lib_1_1Parsers_1_1ParserFile_1_1ParserFile.xhtml" target="_top" xlink:title="file handling base class for parsers">
<polygon fill="white" stroke="black" points="32,-629.5 32,-697.5 121,-697.5 121,-629.5 32,-629.5"/>
<text text-anchor="middle" x="76.5" y="-685.5" font-family="Helvetica,sans-Serif" font-size="10.00">ParserFile</text>
<polyline fill="none" stroke="black" points="32,-678.5 121,-678.5 "/>
<text text-anchor="middle" x="76.5" y="-666.5" font-family="Helvetica,sans-Serif" font-size="10.00"> </text>
<polyline fill="none" stroke="black" points="32,-659.5 121,-659.5 "/>
<text text-anchor="start" x="40" y="-647.5" font-family="Helvetica,sans-Serif" font-size="10.00">+ File()</text>
<text text-anchor="start" x="40" y="-636.5" font-family="Helvetica,sans-Serif" font-size="10.00">+ WriteToFile()</text>
</a>
</g>
</g>
<!-- Node3&#45;&gt;Node2 -->
<g id="edge2" class="edge">
<title>Node3&#45;&gt;Node2</title>
<path fill="none" stroke="midnightblue" d="M76.5,-619.25C76.5,-610.9 76.5,-601.85 76.5,-592.6"/>
<polygon fill="none" stroke="midnightblue" points="73,-619.41 76.5,-629.41 80,-619.41 73,-619.41"/>
</g>
<!-- Node5 -->
<g id="node5" class="node">
<title>Node5</title>
<g id="a_node5"><a xlink:href="classSignalIntegrity_1_1Lib_1_1Parsers_1_1NetworkAnalyzerSimulationNumericParser_1_1NetworkAnalyzerSimulationNumericParser.xhtml" target="_top" xlink:title="performs numeric simulations from netlists">
<polygon fill="white" stroke="black" points="0,-0.5 0,-156.5 153,-156.5 153,-0.5 0,-0.5"/>
<text text-anchor="start" x="8" y="-144.5" font-family="Helvetica,sans-Serif" font-size="10.00">NetworkAnalyzerSimulation</text>
<text text-anchor="middle" x="76.5" y="-133.5" font-family="Helvetica,sans-Serif" font-size="10.00">NumericParser</text>
<polyline fill="none" stroke="black" points="0,-126.5 153,-126.5 "/>
<text text-anchor="start" x="8" y="-114.5" font-family="Helvetica,sans-Serif" font-size="10.00">+ PortConnectionList</text>
<text text-anchor="start" x="8" y="-103.5" font-family="Helvetica,sans-Serif" font-size="10.00">+ DutSParameters</text>
<text text-anchor="start" x="8" y="-92.5" font-family="Helvetica,sans-Serif" font-size="10.00">+ simulationType</text>
<text text-anchor="start" x="8" y="-81.5" font-family="Helvetica,sans-Serif" font-size="10.00">+ dutknown</text>
<text text-anchor="start" x="8" y="-70.5" font-family="Helvetica,sans-Serif" font-size="10.00">+ simulationNumPorts</text>
<text text-anchor="start" x="8" y="-59.5" font-family="Helvetica,sans-Serif" font-size="10.00">+ m_lines</text>
<polyline fill="none" stroke="black" points="0,-52.5 153,-52.5 "/>
<text text-anchor="start" x="8" y="-40.5" font-family="Helvetica,sans-Serif" font-size="10.00">+ __init__()</text>
<text text-anchor="start" x="8" y="-29.5" font-family="Helvetica,sans-Serif" font-size="10.00">+ HashValue()</text>
<text text-anchor="start" x="8" y="-18.5" font-family="Helvetica,sans-Serif" font-size="10.00">+ ArrangeSimulation()</text>
<text text-anchor="start" x="8" y="-7.5" font-family="Helvetica,sans-Serif" font-size="10.00">+ TransferMatrices()</text>
</a>
</g>
</g>
<!-- Node4&#45;&gt;Node5 -->
<g id="edge4" class="edge">
<title>Node4&#45;&gt;Node5</title>
<path fill="none" stroke="midnightblue" d="M76.5,-183C76.5,-174.7 76.5,-165.78 76.5,-156.79"/>
<polygon fill="none" stroke="midnightblue" points="73,-183.14 76.5,-193.14 80,-183.14 73,-183.14"/>
</g>
</g>
</svg>
