<?xml version="1.0" encoding="UTF-8" standalone="no"?>
<!DOCTYPE svg PUBLIC "-//W3C//DTD SVG 1.1//EN"
 "http://www.w3.org/Graphics/SVG/1.1/DTD/svg11.dtd">
<!-- Generated by graphviz version 2.43.0 (0)
 -->
<!-- Title: Symbolic Pages: 1 -->
<svg width="373pt" height="546pt"
 viewBox="0.00 0.00 373.00 546.00" xmlns="http://www.w3.org/2000/svg" xmlns:xlink="http://www.w3.org/1999/xlink">
<g id="graph0" class="graph" transform="scale(1 1) rotate(0) translate(4 542)">
<title>Symbolic</title>
<polygon fill="white" stroke="transparent" points="-4,4 -4,-542 369,-542 369,4 -4,4"/>
<!-- Node1 -->
<g id="node1" class="node">
<title>Node1</title>
<g id="a_node1"><a xlink:title="base class for all symbolic solutions.">
<polygon fill="#bfbfbf" stroke="black" points="83,-326.5 83,-537.5 200,-537.5 200,-326.5 83,-326.5"/>
<text text-anchor="middle" x="141.5" y="-525.5" font-family="Helvetica,sans-Serif" font-size="10.00">Symbolic</text>
<polyline fill="none" stroke="black" points="83,-518.5 200,-518.5 "/>
<text text-anchor="start" x="91" y="-506.5" font-family="Helvetica,sans-Serif" font-size="10.00">+ m_lines</text>
<text text-anchor="start" x="91" y="-495.5" font-family="Helvetica,sans-Serif" font-size="10.00">+ m_docStart</text>
<text text-anchor="start" x="91" y="-484.5" font-family="Helvetica,sans-Serif" font-size="10.00">+ m_docEnd</text>
<text text-anchor="start" x="91" y="-473.5" font-family="Helvetica,sans-Serif" font-size="10.00">+ m_eqPrefix</text>
<text text-anchor="start" x="91" y="-462.5" font-family="Helvetica,sans-Serif" font-size="10.00">+ m_eqSuffix</text>
<text text-anchor="start" x="91" y="-451.5" font-family="Helvetica,sans-Serif" font-size="10.00">+ m_identity</text>
<text text-anchor="start" x="91" y="-440.5" font-family="Helvetica,sans-Serif" font-size="10.00">+ m_eqEnvironment</text>
<text text-anchor="start" x="91" y="-429.5" font-family="Helvetica,sans-Serif" font-size="10.00">+ m_small</text>
<polyline fill="none" stroke="black" points="83,-422.5 200,-422.5 "/>
<text text-anchor="start" x="91" y="-410.5" font-family="Helvetica,sans-Serif" font-size="10.00">+ __init__()</text>
<text text-anchor="start" x="91" y="-399.5" font-family="Helvetica,sans-Serif" font-size="10.00">+ Clear()</text>
<text text-anchor="start" x="91" y="-388.5" font-family="Helvetica,sans-Serif" font-size="10.00">+ Emit()</text>
<text text-anchor="start" x="91" y="-377.5" font-family="Helvetica,sans-Serif" font-size="10.00">+ DocStart()</text>
<text text-anchor="start" x="91" y="-366.5" font-family="Helvetica,sans-Serif" font-size="10.00">+ DocEnd()</text>
<text text-anchor="start" x="91" y="-355.5" font-family="Helvetica,sans-Serif" font-size="10.00">+ WriteToFile()</text>
<text text-anchor="start" x="91" y="-344.5" font-family="Helvetica,sans-Serif" font-size="10.00">+ Get()</text>
<text text-anchor="start" x="91" y="-333.5" font-family="Helvetica,sans-Serif" font-size="10.00">+ InstallSafeTees()</text>
</a>
</g>
</g>
<!-- Node2 -->
<g id="node2" class="node">
<title>Node2</title>
<g id="a_node2"><a xlink:href="classSignalIntegrity_1_1Lib_1_1SystemDescriptions_1_1DeembedderSymbolic_1_1DeembedderSymbolic.xhtml" target="_top" xlink:title=" ">
<polygon fill="white" stroke="black" points="0,-221.5 0,-289.5 125,-289.5 125,-221.5 0,-221.5"/>
<text text-anchor="middle" x="62.5" y="-277.5" font-family="Helvetica,sans-Serif" font-size="10.00">DeembedderSymbolic</text>
<polyline fill="none" stroke="black" points="0,-270.5 125,-270.5 "/>
<text text-anchor="start" x="8" y="-258.5" font-family="Helvetica,sans-Serif" font-size="10.00">+ m_Sk</text>
<polyline fill="none" stroke="black" points="0,-251.5 125,-251.5 "/>
<text text-anchor="start" x="8" y="-239.5" font-family="Helvetica,sans-Serif" font-size="10.00">+ __init__()</text>
<text text-anchor="start" x="8" y="-228.5" font-family="Helvetica,sans-Serif" font-size="10.00">+ SymbolicSolution()</text>
</a>
</g>
</g>
<!-- Node1&#45;&gt;Node2 -->
<g id="edge1" class="edge">
<title>Node1&#45;&gt;Node2</title>
<path fill="none" stroke="midnightblue" d="M90.02,-317.29C85.56,-307.43 81.32,-298.06 77.56,-289.77"/>
<polygon fill="none" stroke="midnightblue" points="86.86,-318.8 94.18,-326.47 93.24,-315.92 86.86,-318.8"/>
</g>
<!-- Node3 -->
<g id="node3" class="node">
<title>Node3</title>
<g id="a_node3"><a xlink:href="classSignalIntegrity_1_1Lib_1_1SystemDescriptions_1_1SystemDescriptionSymbolic_1_1SystemDescriptionSymbolic.xhtml" target="_top" xlink:title="Solves system descriptions in the most basic manner common to all of the simulation,...">
<polygon fill="white" stroke="black" points="143.5,-221.5 143.5,-289.5 297.5,-289.5 297.5,-221.5 143.5,-221.5"/>
<text text-anchor="middle" x="220.5" y="-277.5" font-family="Helvetica,sans-Serif" font-size="10.00">SystemDescriptionSymbolic</text>
<polyline fill="none" stroke="black" points="143.5,-270.5 297.5,-270.5 "/>
<text text-anchor="middle" x="220.5" y="-258.5" font-family="Helvetica,sans-Serif" font-size="10.00"> </text>
<polyline fill="none" stroke="black" points="143.5,-251.5 297.5,-251.5 "/>
<text text-anchor="start" x="151.5" y="-239.5" font-family="Helvetica,sans-Serif" font-size="10.00">+ __init__()</text>
<text text-anchor="start" x="151.5" y="-228.5" font-family="Helvetica,sans-Serif" font-size="10.00">+ LaTeXSystemEquation()</text>
</a>
</g>
</g>
<!-- Node1&#45;&gt;Node3 -->
<g id="edge2" class="edge">
<title>Node1&#45;&gt;Node3</title>
<path fill="none" stroke="midnightblue" d="M192.98,-317.29C197.44,-307.43 201.68,-298.06 205.44,-289.77"/>
<polygon fill="none" stroke="midnightblue" points="189.76,-315.92 188.82,-326.47 196.14,-318.8 189.76,-315.92"/>
</g>
<!-- Node4 -->
<g id="node4" class="node">
<title>Node4</title>
<g id="a_node4"><a xlink:href="classSignalIntegrity_1_1Lib_1_1SystemDescriptions_1_1SystemSParametersSymbolic_1_1SystemSParametersSymbolic.xhtml" target="_top" xlink:title="Class for solving symbolically the s&#45;parameters of interconnected systems.">
<polygon fill="white" stroke="black" points="140,-116.5 140,-184.5 301,-184.5 301,-116.5 140,-116.5"/>
<text text-anchor="middle" x="220.5" y="-172.5" font-family="Helvetica,sans-Serif" font-size="10.00">SystemSParametersSymbolic</text>
<polyline fill="none" stroke="black" points="140,-165.5 301,-165.5 "/>
<text text-anchor="middle" x="220.5" y="-153.5" font-family="Helvetica,sans-Serif" font-size="10.00"> </text>
<polyline fill="none" stroke="black" points="140,-146.5 301,-146.5 "/>
<text text-anchor="start" x="148" y="-134.5" font-family="Helvetica,sans-Serif" font-size="10.00">+ __init__()</text>
<text text-anchor="start" x="148" y="-123.5" font-family="Helvetica,sans-Serif" font-size="10.00">+ LaTeXSolution()</text>
</a>
</g>
</g>
<!-- Node3&#45;&gt;Node4 -->
<g id="edge3" class="edge">
<title>Node3&#45;&gt;Node4</title>
<path fill="none" stroke="midnightblue" d="M220.5,-211.14C220.5,-202.26 220.5,-193.04 220.5,-184.59"/>
<polygon fill="none" stroke="midnightblue" points="217,-211.34 220.5,-221.34 224,-211.34 217,-211.34"/>
</g>
<!-- Node5 -->
<g id="node5" class="node">
<title>Node5</title>
<g id="a_node5"><a xlink:href="classSignalIntegrity_1_1Lib_1_1SystemDescriptions_1_1SimulatorSymbolic_1_1SimulatorSymbolic.xhtml" target="_top" xlink:title="class for producing symbolic solutions to simulation problems.">
<polygon fill="white" stroke="black" points="77,-0.5 77,-79.5 212,-79.5 212,-0.5 77,-0.5"/>
<text text-anchor="middle" x="144.5" y="-67.5" font-family="Helvetica,sans-Serif" font-size="10.00">SimulatorSymbolic</text>
<polyline fill="none" stroke="black" points="77,-60.5 212,-60.5 "/>
<text text-anchor="middle" x="144.5" y="-48.5" font-family="Helvetica,sans-Serif" font-size="10.00"> </text>
<polyline fill="none" stroke="black" points="77,-41.5 212,-41.5 "/>
<text text-anchor="start" x="85" y="-29.5" font-family="Helvetica,sans-Serif" font-size="10.00">+ __init__()</text>
<text text-anchor="start" x="85" y="-18.5" font-family="Helvetica,sans-Serif" font-size="10.00">+ LaTeXTransferMatrix()</text>
<text text-anchor="start" x="85" y="-7.5" font-family="Helvetica,sans-Serif" font-size="10.00">+ LaTeXEquations()</text>
</a>
</g>
</g>
<!-- Node4&#45;&gt;Node5 -->
<g id="edge4" class="edge">
<title>Node4&#45;&gt;Node5</title>
<path fill="none" stroke="midnightblue" d="M191.42,-107.99C184.9,-98.68 178.01,-88.84 171.57,-79.65"/>
<polygon fill="none" stroke="midnightblue" points="188.68,-110.17 197.28,-116.36 194.41,-106.16 188.68,-110.17"/>
</g>
<!-- Node6 -->
<g id="node6" class="node">
<title>Node6</title>
<g id="a_node6"><a xlink:href="classSignalIntegrity_1_1Lib_1_1SystemDescriptions_1_1VirtualProbeSymbolic_1_1VirtualProbeSymbolic.xhtml" target="_top" xlink:title=" ">
<polygon fill="white" stroke="black" points="230,-0.5 230,-79.5 365,-79.5 365,-0.5 230,-0.5"/>
<text text-anchor="middle" x="297.5" y="-67.5" font-family="Helvetica,sans-Serif" font-size="10.00">VirtualProbeSymbolic</text>
<polyline fill="none" stroke="black" points="230,-60.5 365,-60.5 "/>
<text text-anchor="middle" x="297.5" y="-48.5" font-family="Helvetica,sans-Serif" font-size="10.00"> </text>
<polyline fill="none" stroke="black" points="230,-41.5 365,-41.5 "/>
<text text-anchor="start" x="238" y="-29.5" font-family="Helvetica,sans-Serif" font-size="10.00">+ __init__()</text>
<text text-anchor="start" x="238" y="-18.5" font-family="Helvetica,sans-Serif" font-size="10.00">+ LaTeXTransferMatrix()</text>
<text text-anchor="start" x="238" y="-7.5" font-family="Helvetica,sans-Serif" font-size="10.00">+ LaTeXEquations()</text>
</a>
</g>
</g>
<!-- Node4&#45;&gt;Node6 -->
<g id="edge5" class="edge">
<title>Node4&#45;&gt;Node6</title>
<path fill="none" stroke="midnightblue" d="M249.96,-107.99C256.57,-98.68 263.55,-88.84 270.07,-79.65"/>
<polygon fill="none" stroke="midnightblue" points="246.95,-106.18 244.02,-116.36 252.66,-110.23 246.95,-106.18"/>
</g>
</g>
</svg>
