<?xml version="1.0" encoding="UTF-8" standalone="no"?>
<!DOCTYPE svg PUBLIC "-//W3C//DTD SVG 1.1//EN"
 "http://www.w3.org/Graphics/SVG/1.1/DTD/svg11.dtd">
<!-- Generated by graphviz version 2.43.0 (0)
 -->
<!-- Title: Numeric Pages: 1 -->
<svg width="524pt" height="237pt"
 viewBox="0.00 0.00 523.50 237.00" xmlns="http://www.w3.org/2000/svg" xmlns:xlink="http://www.w3.org/1999/xlink">
<g id="graph0" class="graph" transform="scale(1 1) rotate(0) translate(4 233)">
<title>Numeric</title>
<polygon fill="white" stroke="transparent" points="-4,4 -4,-233 519.5,-233 519.5,4 -4,4"/>
<!-- Node1 -->
<g id="node1" class="node">
<title>Node1</title>
<g id="a_node1"><a xlink:title="handles numeric details of derived class solutions">
<polygon fill="#bfbfbf" stroke="black" points="185,-105.5 185,-228.5 313,-228.5 313,-105.5 185,-105.5"/>
<text text-anchor="middle" x="249" y="-216.5" font-family="Helvetica,sans-Serif" font-size="10.00">Numeric</text>
<polyline fill="none" stroke="black" points="185,-209.5 313,-209.5 "/>
<text text-anchor="start" x="193" y="-197.5" font-family="Helvetica,sans-Serif" font-size="10.00">+ alwaysUseSVD</text>
<text text-anchor="start" x="193" y="-186.5" font-family="Helvetica,sans-Serif" font-size="10.00">+ trySVD</text>
<text text-anchor="start" x="193" y="-175.5" font-family="Helvetica,sans-Serif" font-size="10.00">+ singularValueLimit</text>
<text text-anchor="start" x="193" y="-164.5" font-family="Helvetica,sans-Serif" font-size="10.00">+ conditionNumberLimit</text>
<text text-anchor="start" x="193" y="-153.5" font-family="Helvetica,sans-Serif" font-size="10.00">+ checkConditionNumber</text>
<polyline fill="none" stroke="black" points="185,-146.5 313,-146.5 "/>
<text text-anchor="start" x="193" y="-134.5" font-family="Helvetica,sans-Serif" font-size="10.00">+ InstallSafeTees()</text>
<text text-anchor="start" x="193" y="-123.5" font-family="Helvetica,sans-Serif" font-size="10.00">+ Dagger()</text>
<text text-anchor="start" x="193" y="-112.5" font-family="Helvetica,sans-Serif" font-size="10.00">+ PermutationMatrix()</text>
</a>
</g>
</g>
<!-- Node2 -->
<g id="node2" class="node">
<title>Node2</title>
<g id="a_node2"><a xlink:href="classSignalIntegrity_1_1Lib_1_1SystemDescriptions_1_1DeembedderNumeric_1_1DeembedderNumeric.xhtml" target="_top" xlink:title=" ">
<polygon fill="white" stroke="black" points="0,-0.5 0,-68.5 114,-68.5 114,-0.5 0,-0.5"/>
<text text-anchor="middle" x="57" y="-56.5" font-family="Helvetica,sans-Serif" font-size="10.00">DeembedderNumeric</text>
<polyline fill="none" stroke="black" points="0,-49.5 114,-49.5 "/>
<text text-anchor="middle" x="57" y="-37.5" font-family="Helvetica,sans-Serif" font-size="10.00"> </text>
<polyline fill="none" stroke="black" points="0,-30.5 114,-30.5 "/>
<text text-anchor="start" x="8" y="-18.5" font-family="Helvetica,sans-Serif" font-size="10.00">+ __init__()</text>
<text text-anchor="start" x="8" y="-7.5" font-family="Helvetica,sans-Serif" font-size="10.00">+ CalculateUnknown()</text>
</a>
</g>
</g>
<!-- Node1&#45;&gt;Node2 -->
<g id="edge1" class="edge">
<title>Node1&#45;&gt;Node2</title>
<path fill="none" stroke="midnightblue" d="M176.52,-116.74C152.84,-100.64 127.13,-83.17 105.64,-68.56"/>
<polygon fill="none" stroke="midnightblue" points="174.56,-119.64 184.8,-122.36 178.5,-113.85 174.56,-119.64"/>
</g>
<!-- Node3 -->
<g id="node3" class="node">
<title>Node3</title>
<g id="a_node3"><a xlink:href="classSignalIntegrity_1_1Lib_1_1SystemDescriptions_1_1SimulatorNumeric_1_1SimulatorNumeric.xhtml" target="_top" xlink:title="class for performing numeric simulations">
<polygon fill="white" stroke="black" points="132.5,-0.5 132.5,-68.5 227.5,-68.5 227.5,-0.5 132.5,-0.5"/>
<text text-anchor="middle" x="180" y="-56.5" font-family="Helvetica,sans-Serif" font-size="10.00">SimulatorNumeric</text>
<polyline fill="none" stroke="black" points="132.5,-49.5 227.5,-49.5 "/>
<text text-anchor="middle" x="180" y="-37.5" font-family="Helvetica,sans-Serif" font-size="10.00"> </text>
<polyline fill="none" stroke="black" points="132.5,-30.5 227.5,-30.5 "/>
<text text-anchor="start" x="140.5" y="-18.5" font-family="Helvetica,sans-Serif" font-size="10.00">+ __init__()</text>
<text text-anchor="start" x="140.5" y="-7.5" font-family="Helvetica,sans-Serif" font-size="10.00">+ TransferMatrix()</text>
</a>
</g>
</g>
<!-- Node1&#45;&gt;Node3 -->
<g id="edge2" class="edge">
<title>Node1&#45;&gt;Node3</title>
<path fill="none" stroke="midnightblue" d="M212.22,-96.43C207.09,-86.74 202.04,-77.19 197.51,-68.62"/>
<polygon fill="none" stroke="midnightblue" points="209.16,-98.13 216.92,-105.33 215.34,-94.86 209.16,-98.13"/>
</g>
<!-- Node4 -->
<g id="node4" class="node">
<title>Node4</title>
<g id="a_node4"><a xlink:href="classSignalIntegrity_1_1Lib_1_1SystemDescriptions_1_1SystemSParametersNumeric_1_1SystemSParametersNumeric.xhtml" target="_top" xlink:title="Class for computing s&#45;parameters of interconnected systems.">
<polygon fill="white" stroke="black" points="246,-0.5 246,-68.5 390,-68.5 390,-0.5 246,-0.5"/>
<text text-anchor="middle" x="318" y="-56.5" font-family="Helvetica,sans-Serif" font-size="10.00">SystemSParametersNumeric</text>
<polyline fill="none" stroke="black" points="246,-49.5 390,-49.5 "/>
<text text-anchor="middle" x="318" y="-37.5" font-family="Helvetica,sans-Serif" font-size="10.00"> </text>
<polyline fill="none" stroke="black" points="246,-30.5 390,-30.5 "/>
<text text-anchor="start" x="254" y="-18.5" font-family="Helvetica,sans-Serif" font-size="10.00">+ __init__()</text>
<text text-anchor="start" x="254" y="-7.5" font-family="Helvetica,sans-Serif" font-size="10.00">+ SParameters()</text>
</a>
</g>
</g>
<!-- Node1&#45;&gt;Node4 -->
<g id="edge3" class="edge">
<title>Node1&#45;&gt;Node4</title>
<path fill="none" stroke="midnightblue" d="M285.78,-96.43C290.91,-86.74 295.96,-77.19 300.49,-68.62"/>
<polygon fill="none" stroke="midnightblue" points="282.66,-94.86 281.08,-105.33 288.84,-98.13 282.66,-94.86"/>
</g>
<!-- Node5 -->
<g id="node5" class="node">
<title>Node5</title>
<g id="a_node5"><a xlink:href="classSignalIntegrity_1_1Lib_1_1SystemDescriptions_1_1VirtualProbeNumeric_1_1VirtualProbeNumeric.xhtml" target="_top" xlink:title="class for performing virtual probing numerically.">
<polygon fill="white" stroke="black" points="408.5,-0.5 408.5,-68.5 515.5,-68.5 515.5,-0.5 408.5,-0.5"/>
<text text-anchor="middle" x="462" y="-56.5" font-family="Helvetica,sans-Serif" font-size="10.00">VirtualProbeNumeric</text>
<polyline fill="none" stroke="black" points="408.5,-49.5 515.5,-49.5 "/>
<text text-anchor="middle" x="462" y="-37.5" font-family="Helvetica,sans-Serif" font-size="10.00"> </text>
<polyline fill="none" stroke="black" points="408.5,-30.5 515.5,-30.5 "/>
<text text-anchor="start" x="416.5" y="-18.5" font-family="Helvetica,sans-Serif" font-size="10.00">+ __init__()</text>
<text text-anchor="start" x="416.5" y="-7.5" font-family="Helvetica,sans-Serif" font-size="10.00">+ TransferMatrix()</text>
</a>
</g>
</g>
<!-- Node1&#45;&gt;Node5 -->
<g id="edge4" class="edge">
<title>Node1&#45;&gt;Node5</title>
<path fill="none" stroke="midnightblue" d="M321.87,-121.35C350.24,-103.97 382.15,-84.42 408.34,-68.38"/>
<polygon fill="none" stroke="midnightblue" points="319.89,-118.46 313.2,-126.67 323.55,-124.43 319.89,-118.46"/>
</g>
</g>
</svg>
