<?xml version="1.0" encoding="UTF-8" standalone="no"?>
<!DOCTYPE svg PUBLIC "-//W3C//DTD SVG 1.1//EN"
 "http://www.w3.org/Graphics/SVG/1.1/DTD/svg11.dtd">
<!-- Generated by graphviz version 2.40.1 (20161225.0304)
 -->
<!-- Title: FractionalDelayFilterSinX Pages: 1 -->
<svg width="136pt" height="320pt"
 viewBox="0.00 0.00 136.00 320.00" xmlns="http://www.w3.org/2000/svg" xmlns:xlink="http://www.w3.org/1999/xlink">
<g id="graph0" class="graph" transform="scale(1 1) rotate(0) translate(4 316)">
<title>FractionalDelayFilterSinX</title>
<polygon fill="#ffffff" stroke="transparent" points="-4,4 -4,-316 132,-316 132,4 -4,4"/>
<!-- Node0 -->
<g id="node1" class="node">
<title>Node0</title>
<polygon fill="#bfbfbf" stroke="#000000" points="0,-.5 0,-57.5 128,-57.5 128,-.5 0,-.5"/>
<text text-anchor="middle" x="64" y="-45.5" font-family="Helvetica,sans-Serif" font-size="10.00" fill="#000000">FractionalDelayFilterSinX</text>
<polyline fill="none" stroke="#000000" points="0,-38.5 128,-38.5 "/>
<text text-anchor="start" x="8" y="-26.5" font-family="Helvetica,sans-Serif" font-size="10.00" fill="#000000">+ S</text>
<polyline fill="none" stroke="#000000" points="0,-19.5 128,-19.5 "/>
<text text-anchor="start" x="8" y="-7.5" font-family="Helvetica,sans-Serif" font-size="10.00" fill="#000000">+ __init__()</text>
</g>
<!-- Node1 -->
<g id="node2" class="node">
<title>Node1</title>
<g id="a_node2"><a xlink:href="classSignalIntegrity_1_1TimeDomain_1_1Filters_1_1FirFilter_1_1FirFilter.xhtml" target="_top" xlink:title="base filter class for all FIR filters ">
<polygon fill="#ffffff" stroke="#000000" points="7.5,-94.5 7.5,-217.5 120.5,-217.5 120.5,-94.5 7.5,-94.5"/>
<text text-anchor="middle" x="64" y="-205.5" font-family="Helvetica,sans-Serif" font-size="10.00" fill="#000000">FirFilter</text>
<polyline fill="none" stroke="#000000" points="7.5,-198.5 120.5,-198.5 "/>
<text text-anchor="start" x="15.5" y="-186.5" font-family="Helvetica,sans-Serif" font-size="10.00" fill="#000000">+ m_fd</text>
<text text-anchor="start" x="15.5" y="-175.5" font-family="Helvetica,sans-Serif" font-size="10.00" fill="#000000">+ m_ft</text>
<polyline fill="none" stroke="#000000" points="7.5,-168.5 120.5,-168.5 "/>
<text text-anchor="start" x="15.5" y="-156.5" font-family="Helvetica,sans-Serif" font-size="10.00" fill="#000000">+ __init__()</text>
<text text-anchor="start" x="15.5" y="-145.5" font-family="Helvetica,sans-Serif" font-size="10.00" fill="#000000">+ ProcessWaveform()</text>
<text text-anchor="start" x="15.5" y="-134.5" font-family="Helvetica,sans-Serif" font-size="10.00" fill="#000000">+ FilterTaps()</text>
<text text-anchor="start" x="15.5" y="-123.5" font-family="Helvetica,sans-Serif" font-size="10.00" fill="#000000">+ FilterDescriptor()</text>
<text text-anchor="start" x="15.5" y="-112.5" font-family="Helvetica,sans-Serif" font-size="10.00" fill="#000000">+ FilterWaveform()</text>
<text text-anchor="start" x="15.5" y="-101.5" font-family="Helvetica,sans-Serif" font-size="10.00" fill="#000000">+ Print()</text>
</a>
</g>
</g>
<!-- Node1&#45;&gt;Node0 -->
<g id="edge1" class="edge">
<title>Node1&#45;&gt;Node0</title>
<path fill="none" stroke="#191970" d="M64,-84.1046C64,-74.707 64,-65.5591 64,-57.5038"/>
<polygon fill="none" stroke="#191970" points="60.5001,-84.3601 64,-94.3601 67.5001,-84.3601 60.5001,-84.3601"/>
</g>
<!-- Node2 -->
<g id="node3" class="node">
<title>Node2</title>
<g id="a_node3"><a xlink:href="classSignalIntegrity_1_1TimeDomain_1_1Filters_1_1WaveformProcessor_1_1WaveformProcessor.xhtml" target="_top" xlink:title="base class for things that process waveforms ">
<polygon fill="#ffffff" stroke="#000000" points="7.5,-254.5 7.5,-311.5 120.5,-311.5 120.5,-254.5 7.5,-254.5"/>
<text text-anchor="middle" x="64" y="-299.5" font-family="Helvetica,sans-Serif" font-size="10.00" fill="#000000">WaveformProcessor</text>
<polyline fill="none" stroke="#000000" points="7.5,-292.5 120.5,-292.5 "/>
<text text-anchor="middle" x="64" y="-280.5" font-family="Helvetica,sans-Serif" font-size="10.00" fill="#000000"> </text>
<polyline fill="none" stroke="#000000" points="7.5,-273.5 120.5,-273.5 "/>
<text text-anchor="start" x="15.5" y="-261.5" font-family="Helvetica,sans-Serif" font-size="10.00" fill="#000000">+ ProcessWaveform()</text>
</a>
</g>
</g>
<!-- Node2&#45;&gt;Node1 -->
<g id="edge2" class="edge">
<title>Node2&#45;&gt;Node1</title>
<path fill="none" stroke="#191970" d="M64,-244.2486C64,-235.8213 64,-226.7045 64,-217.6384"/>
<polygon fill="none" stroke="#191970" points="60.5001,-244.4987 64,-254.4987 67.5001,-244.4988 60.5001,-244.4987"/>
</g>
</g>
</svg>
