<?xml version="1.0" encoding="UTF-8" standalone="no"?>
<!DOCTYPE svg PUBLIC "-//W3C//DTD SVG 1.1//EN"
 "http://www.w3.org/Graphics/SVG/1.1/DTD/svg11.dtd">
<!-- Generated by graphviz version 2.40.1 (20161225.0304)
 -->
<!-- Title: FrequencyDomain Pages: 1 -->
<svg width="276pt" height="325pt"
 viewBox="0.00 0.00 276.00 325.00" xmlns="http://www.w3.org/2000/svg" xmlns:xlink="http://www.w3.org/1999/xlink">
<g id="graph0" class="graph" transform="scale(1 1) rotate(0) translate(4 321)">
<title>FrequencyDomain</title>
<polygon fill="#ffffff" stroke="transparent" points="-4,4 -4,-321 272,-321 272,4 -4,4"/>
<!-- Node0 -->
<g id="node1" class="node">
<title>Node0</title>
<polygon fill="#bfbfbf" stroke="#000000" points="93,-182.5 93,-316.5 189,-316.5 189,-182.5 93,-182.5"/>
<text text-anchor="middle" x="141" y="-304.5" font-family="Helvetica,sans-Serif" font-size="10.00" fill="#000000">FrequencyDomain</text>
<polyline fill="none" stroke="#000000" points="93,-297.5 189,-297.5 "/>
<text text-anchor="start" x="101" y="-285.5" font-family="Helvetica,sans-Serif" font-size="10.00" fill="#000000">+ m_f</text>
<polyline fill="none" stroke="#000000" points="93,-278.5 189,-278.5 "/>
<text text-anchor="start" x="101" y="-266.5" font-family="Helvetica,sans-Serif" font-size="10.00" fill="#000000">+ __init__()</text>
<text text-anchor="start" x="101" y="-255.5" font-family="Helvetica,sans-Serif" font-size="10.00" fill="#000000">+ FrequencyList()</text>
<text text-anchor="start" x="101" y="-244.5" font-family="Helvetica,sans-Serif" font-size="10.00" fill="#000000">+ Frequencies()</text>
<text text-anchor="start" x="101" y="-233.5" font-family="Helvetica,sans-Serif" font-size="10.00" fill="#000000">+ Values()</text>
<text text-anchor="start" x="101" y="-222.5" font-family="Helvetica,sans-Serif" font-size="10.00" fill="#000000">+ ReadFromFile()</text>
<text text-anchor="start" x="101" y="-211.5" font-family="Helvetica,sans-Serif" font-size="10.00" fill="#000000">+ WriteToFile()</text>
<text text-anchor="start" x="101" y="-200.5" font-family="Helvetica,sans-Serif" font-size="10.00" fill="#000000">+ __eq__()</text>
<text text-anchor="start" x="101" y="-189.5" font-family="Helvetica,sans-Serif" font-size="10.00" fill="#000000">+ __ne__()</text>
</g>
<!-- Node1 -->
<g id="node2" class="node">
<title>Node1</title>
<g id="a_node2"><a xlink:href="classSignalIntegrity_1_1Lib_1_1FrequencyDomain_1_1FrequencyContent_1_1FrequencyContent.xhtml" target="_top" xlink:title="Handles frequency content of waveforms. ">
<polygon fill="#ffffff" stroke="#000000" points="0,-.5 0,-145.5 140,-145.5 140,-.5 0,-.5"/>
<text text-anchor="middle" x="70" y="-133.5" font-family="Helvetica,sans-Serif" font-size="10.00" fill="#000000">FrequencyContent</text>
<polyline fill="none" stroke="#000000" points="0,-126.5 140,-126.5 "/>
<text text-anchor="start" x="8" y="-114.5" font-family="Helvetica,sans-Serif" font-size="10.00" fill="#000000">+ td</text>
<text text-anchor="start" x="8" y="-103.5" font-family="Helvetica,sans-Serif" font-size="10.00" fill="#000000">+ R</text>
<text text-anchor="start" x="8" y="-92.5" font-family="Helvetica,sans-Serif" font-size="10.00" fill="#000000">+ P</text>
<text text-anchor="start" x="8" y="-81.5" font-family="Helvetica,sans-Serif" font-size="10.00" fill="#000000">+ LogRP10</text>
<text text-anchor="start" x="8" y="-70.5" font-family="Helvetica,sans-Serif" font-size="10.00" fill="#000000">+ dB3</text>
<text text-anchor="start" x="8" y="-59.5" font-family="Helvetica,sans-Serif" font-size="10.00" fill="#000000">+ dB6</text>
<polyline fill="none" stroke="#000000" points="0,-52.5 140,-52.5 "/>
<text text-anchor="start" x="8" y="-40.5" font-family="Helvetica,sans-Serif" font-size="10.00" fill="#000000">+ __init__()</text>
<text text-anchor="start" x="8" y="-29.5" font-family="Helvetica,sans-Serif" font-size="10.00" fill="#000000">+ Values()</text>
<text text-anchor="start" x="8" y="-18.5" font-family="Helvetica,sans-Serif" font-size="10.00" fill="#000000">+ Waveform()</text>
<text text-anchor="start" x="8" y="-7.5" font-family="Helvetica,sans-Serif" font-size="10.00" fill="#000000">+ WaveformFromDefinition()</text>
</a>
</g>
</g>
<!-- Node0&#45;&gt;Node1 -->
<g id="edge1" class="edge">
<title>Node0&#45;&gt;Node1</title>
<path fill="none" stroke="#191970" d="M110.1898,-172.9085C106.5468,-163.8522 102.8367,-154.6292 99.2166,-145.63"/>
<polygon fill="none" stroke="#191970" points="106.9762,-174.2981 113.9554,-182.2694 113.4704,-171.6857 106.9762,-174.2981"/>
</g>
<!-- Node2 -->
<g id="node3" class="node">
<title>Node2</title>
<g id="a_node3"><a xlink:href="classSignalIntegrity_1_1Lib_1_1FrequencyDomain_1_1FrequencyResponse_1_1FrequencyResponse.xhtml" target="_top" xlink:title="FrequencyResponse. ">
<polygon fill="#ffffff" stroke="#000000" points="158,-22.5 158,-123.5 268,-123.5 268,-22.5 158,-22.5"/>
<text text-anchor="middle" x="213" y="-111.5" font-family="Helvetica,sans-Serif" font-size="10.00" fill="#000000">FrequencyResponse</text>
<polyline fill="none" stroke="#000000" points="158,-104.5 268,-104.5 "/>
<text text-anchor="middle" x="213" y="-92.5" font-family="Helvetica,sans-Serif" font-size="10.00" fill="#000000"> </text>
<polyline fill="none" stroke="#000000" points="158,-85.5 268,-85.5 "/>
<text text-anchor="start" x="166" y="-73.5" font-family="Helvetica,sans-Serif" font-size="10.00" fill="#000000">+ __init__()</text>
<text text-anchor="start" x="166" y="-62.5" font-family="Helvetica,sans-Serif" font-size="10.00" fill="#000000">+ Response()</text>
<text text-anchor="start" x="166" y="-51.5" font-family="Helvetica,sans-Serif" font-size="10.00" fill="#000000">+ ImpulseResponse()</text>
<text text-anchor="start" x="166" y="-40.5" font-family="Helvetica,sans-Serif" font-size="10.00" fill="#000000">+ Resample()</text>
<text text-anchor="start" x="166" y="-29.5" font-family="Helvetica,sans-Serif" font-size="10.00" fill="#000000">+ ResampleCZT()</text>
</a>
</g>
</g>
<!-- Node0&#45;&gt;Node2 -->
<g id="edge2" class="edge">
<title>Node0&#45;&gt;Node2</title>
<path fill="none" stroke="#191970" d="M172.3779,-172.5806C179.1467,-155.9876 186.1372,-138.8512 192.3707,-123.5704"/>
<polygon fill="none" stroke="#191970" points="168.962,-171.6882 168.4255,-182.2694 175.4434,-174.3322 168.962,-171.6882"/>
</g>
</g>
</svg>
