<?xml version="1.0" encoding="UTF-8" standalone="no"?>
<!DOCTYPE svg PUBLIC "-//W3C//DTD SVG 1.1//EN"
 "http://www.w3.org/Graphics/SVG/1.1/DTD/svg11.dtd">
<!-- Generated by graphviz version 2.40.1 (20161225.0304)
 -->
<!-- Title: WaveformTrimmer Pages: 1 -->
<svg width="222pt" height="292pt"
 viewBox="0.00 0.00 222.00 292.00" xmlns="http://www.w3.org/2000/svg" xmlns:xlink="http://www.w3.org/1999/xlink">
<g id="graph0" class="graph" transform="scale(1 1) rotate(0) translate(4 288)">
<title>WaveformTrimmer</title>
<polygon fill="#ffffff" stroke="transparent" points="-4,4 -4,-288 218,-288 218,4 -4,4"/>
<!-- Node0 -->
<g id="node1" class="node">
<title>Node0</title>
<polygon fill="#bfbfbf" stroke="#000000" points="43,-.5 43,-79.5 156,-79.5 156,-.5 43,-.5"/>
<text text-anchor="middle" x="99.5" y="-67.5" font-family="Helvetica,sans-Serif" font-size="10.00" fill="#000000">WaveformTrimmer</text>
<polyline fill="none" stroke="#000000" points="43,-60.5 156,-60.5 "/>
<text text-anchor="middle" x="99.5" y="-48.5" font-family="Helvetica,sans-Serif" font-size="10.00" fill="#000000"> </text>
<polyline fill="none" stroke="#000000" points="43,-41.5 156,-41.5 "/>
<text text-anchor="start" x="51" y="-29.5" font-family="Helvetica,sans-Serif" font-size="10.00" fill="#000000">+ __init__()</text>
<text text-anchor="start" x="51" y="-18.5" font-family="Helvetica,sans-Serif" font-size="10.00" fill="#000000">+ ProcessWaveform()</text>
<text text-anchor="start" x="51" y="-7.5" font-family="Helvetica,sans-Serif" font-size="10.00" fill="#000000">+ TrimWaveform()</text>
</g>
<!-- Node1 -->
<g id="node2" class="node">
<title>Node1</title>
<g id="a_node2"><a xlink:href="classSignalIntegrity_1_1TimeDomain_1_1Filters_1_1FilterDescriptor_1_1FilterDescriptor.xhtml" target="_top" xlink:title="FilterDescriptor.py. ">
<polygon fill="#ffffff" stroke="#000000" points="0,-116.5 0,-283.5 83,-283.5 83,-116.5 0,-116.5"/>
<text text-anchor="middle" x="41.5" y="-271.5" font-family="Helvetica,sans-Serif" font-size="10.00" fill="#000000">FilterDescriptor</text>
<polyline fill="none" stroke="#000000" points="0,-264.5 83,-264.5 "/>
<text text-anchor="start" x="8" y="-252.5" font-family="Helvetica,sans-Serif" font-size="10.00" fill="#000000">+ U</text>
<text text-anchor="start" x="8" y="-241.5" font-family="Helvetica,sans-Serif" font-size="10.00" fill="#000000">+ D</text>
<text text-anchor="start" x="8" y="-230.5" font-family="Helvetica,sans-Serif" font-size="10.00" fill="#000000">+ S</text>
<polyline fill="none" stroke="#000000" points="0,-223.5 83,-223.5 "/>
<text text-anchor="start" x="8" y="-211.5" font-family="Helvetica,sans-Serif" font-size="10.00" fill="#000000">+ __init__()</text>
<text text-anchor="start" x="8" y="-200.5" font-family="Helvetica,sans-Serif" font-size="10.00" fill="#000000">+ __eq__()</text>
<text text-anchor="start" x="8" y="-189.5" font-family="Helvetica,sans-Serif" font-size="10.00" fill="#000000">+ __mul__()</text>
<text text-anchor="start" x="8" y="-178.5" font-family="Helvetica,sans-Serif" font-size="10.00" fill="#000000">+ Before()</text>
<text text-anchor="start" x="8" y="-167.5" font-family="Helvetica,sans-Serif" font-size="10.00" fill="#000000">+ After()</text>
<text text-anchor="start" x="8" y="-156.5" font-family="Helvetica,sans-Serif" font-size="10.00" fill="#000000">+ TrimLeft()</text>
<text text-anchor="start" x="8" y="-145.5" font-family="Helvetica,sans-Serif" font-size="10.00" fill="#000000">+ TrimRight()</text>
<text text-anchor="start" x="8" y="-134.5" font-family="Helvetica,sans-Serif" font-size="10.00" fill="#000000">+ TrimTotal()</text>
<text text-anchor="start" x="8" y="-123.5" font-family="Helvetica,sans-Serif" font-size="10.00" fill="#000000">+ Print()</text>
</a>
</g>
</g>
<!-- Node1&#45;&gt;Node0 -->
<g id="edge1" class="edge">
<title>Node1&#45;&gt;Node0</title>
<path fill="none" stroke="#191970" d="M75.2965,-106.7682C78.711,-97.3489 82.0342,-88.1814 85.0698,-79.8076"/>
<polygon fill="none" stroke="#191970" points="71.9765,-105.657 71.8589,-116.2512 78.5575,-108.0427 71.9765,-105.657"/>
</g>
<!-- Node2 -->
<g id="node3" class="node">
<title>Node2</title>
<g id="a_node3"><a xlink:href="classSignalIntegrity_1_1TimeDomain_1_1Filters_1_1WaveformProcessor_1_1WaveformProcessor.xhtml" target="_top" xlink:title="WaveformProcessor.py. ">
<polygon fill="#ffffff" stroke="#000000" points="101,-171.5 101,-228.5 214,-228.5 214,-171.5 101,-171.5"/>
<text text-anchor="middle" x="157.5" y="-216.5" font-family="Helvetica,sans-Serif" font-size="10.00" fill="#000000">WaveformProcessor</text>
<polyline fill="none" stroke="#000000" points="101,-209.5 214,-209.5 "/>
<text text-anchor="middle" x="157.5" y="-197.5" font-family="Helvetica,sans-Serif" font-size="10.00" fill="#000000"> </text>
<polyline fill="none" stroke="#000000" points="101,-190.5 214,-190.5 "/>
<text text-anchor="start" x="109" y="-178.5" font-family="Helvetica,sans-Serif" font-size="10.00" fill="#000000">+ ProcessWaveform()</text>
</a>
</g>
</g>
<!-- Node2&#45;&gt;Node0 -->
<g id="edge2" class="edge">
<title>Node2&#45;&gt;Node0</title>
<path fill="none" stroke="#191970" d="M143.7091,-161.9561C134.7251,-137.1728 123.0253,-104.8974 113.9186,-79.7754"/>
<polygon fill="none" stroke="#191970" points="140.4322,-163.1867 147.1308,-171.3952 147.0132,-160.801 140.4322,-163.1867"/>
</g>
</g>
</svg>
