<?xml version="1.0" encoding="UTF-8" standalone="no"?>
<!DOCTYPE svg PUBLIC "-//W3C//DTD SVG 1.1//EN"
 "http://www.w3.org/Graphics/SVG/1.1/DTD/svg11.dtd">
<!-- Generated by graphviz version 2.43.0 (0)
 -->
<!-- Title: FrequencyDomain Pages: 1 -->
<svg width="308pt" height="430pt"
 viewBox="0.00 0.00 307.50 430.00" xmlns="http://www.w3.org/2000/svg" xmlns:xlink="http://www.w3.org/1999/xlink">
<g id="graph0" class="graph" transform="scale(1 1) rotate(0) translate(4 426)">
<title>FrequencyDomain</title>
<polygon fill="white" stroke="transparent" points="-4,4 -4,-426 303.5,-426 303.5,4 -4,4"/>
<!-- Node1 -->
<g id="node1" class="node">
<title>Node1</title>
<g id="a_node1"><a xlink:title="base class for frequency domain elements.">
<polygon fill="#bfbfbf" stroke="black" points="94.5,-276.5 94.5,-421.5 222.5,-421.5 222.5,-276.5 94.5,-276.5"/>
<text text-anchor="middle" x="158.5" y="-409.5" font-family="Helvetica,sans-Serif" font-size="10.00">FrequencyDomain</text>
<polyline fill="none" stroke="black" points="94.5,-402.5 222.5,-402.5 "/>
<text text-anchor="start" x="102.5" y="-390.5" font-family="Helvetica,sans-Serif" font-size="10.00">+ m_f</text>
<polyline fill="none" stroke="black" points="94.5,-383.5 222.5,-383.5 "/>
<text text-anchor="start" x="102.5" y="-371.5" font-family="Helvetica,sans-Serif" font-size="10.00">+ __init__()</text>
<text text-anchor="start" x="102.5" y="-360.5" font-family="Helvetica,sans-Serif" font-size="10.00">+ FrequencyList()</text>
<text text-anchor="start" x="102.5" y="-349.5" font-family="Helvetica,sans-Serif" font-size="10.00">+ Frequencies()</text>
<text text-anchor="start" x="102.5" y="-338.5" font-family="Helvetica,sans-Serif" font-size="10.00">+ Values()</text>
<text text-anchor="start" x="102.5" y="-327.5" font-family="Helvetica,sans-Serif" font-size="10.00">+ ReadFromFile()</text>
<text text-anchor="start" x="102.5" y="-316.5" font-family="Helvetica,sans-Serif" font-size="10.00">+ WriteToFile()</text>
<text text-anchor="start" x="102.5" y="-305.5" font-family="Helvetica,sans-Serif" font-size="10.00">+ __eq__()</text>
<text text-anchor="start" x="102.5" y="-294.5" font-family="Helvetica,sans-Serif" font-size="10.00">+ __ne__()</text>
<text text-anchor="start" x="102.5" y="-283.5" font-family="Helvetica,sans-Serif" font-size="10.00">+ LimitEndFrequency()</text>
</a>
</g>
</g>
<!-- Node2 -->
<g id="node2" class="node">
<title>Node2</title>
<g id="a_node2"><a xlink:href="classSignalIntegrity_1_1Lib_1_1FrequencyDomain_1_1FrequencyContent_1_1FrequencyContent.xhtml" target="_top" xlink:title="Handles frequency content of waveforms.">
<polygon fill="white" stroke="black" points="0,-94.5 0,-239.5 159,-239.5 159,-94.5 0,-94.5"/>
<text text-anchor="middle" x="79.5" y="-227.5" font-family="Helvetica,sans-Serif" font-size="10.00">FrequencyContent</text>
<polyline fill="none" stroke="black" points="0,-220.5 159,-220.5 "/>
<text text-anchor="start" x="8" y="-208.5" font-family="Helvetica,sans-Serif" font-size="10.00">+ td</text>
<text text-anchor="start" x="8" y="-197.5" font-family="Helvetica,sans-Serif" font-size="10.00">+ R</text>
<text text-anchor="start" x="8" y="-186.5" font-family="Helvetica,sans-Serif" font-size="10.00">+ P</text>
<text text-anchor="start" x="8" y="-175.5" font-family="Helvetica,sans-Serif" font-size="10.00">+ LogRP10</text>
<text text-anchor="start" x="8" y="-164.5" font-family="Helvetica,sans-Serif" font-size="10.00">+ dB3</text>
<text text-anchor="start" x="8" y="-153.5" font-family="Helvetica,sans-Serif" font-size="10.00">+ dB6</text>
<polyline fill="none" stroke="black" points="0,-146.5 159,-146.5 "/>
<text text-anchor="start" x="8" y="-134.5" font-family="Helvetica,sans-Serif" font-size="10.00">+ __init__()</text>
<text text-anchor="start" x="8" y="-123.5" font-family="Helvetica,sans-Serif" font-size="10.00">+ Values()</text>
<text text-anchor="start" x="8" y="-112.5" font-family="Helvetica,sans-Serif" font-size="10.00">+ Waveform()</text>
<text text-anchor="start" x="8" y="-101.5" font-family="Helvetica,sans-Serif" font-size="10.00">+ WaveformFromDefinition()</text>
</a>
</g>
</g>
<!-- Node1&#45;&gt;Node2 -->
<g id="edge1" class="edge">
<title>Node1&#45;&gt;Node2</title>
<path fill="none" stroke="midnightblue" d="M122.92,-266.94C118.94,-257.86 114.9,-248.66 110.97,-239.71"/>
<polygon fill="none" stroke="midnightblue" points="119.83,-268.59 127.05,-276.34 126.24,-265.78 119.83,-268.59"/>
</g>
<!-- Node3 -->
<g id="node3" class="node">
<title>Node3</title>
<g id="a_node3"><a xlink:href="classSignalIntegrity_1_1Lib_1_1FrequencyDomain_1_1FrequencyResponse_1_1FrequencyResponse.xhtml" target="_top" xlink:title="FrequencyResponse &#160;&#160;Frequency response view of a waveform assumed computed from the FrequencyResponse...">
<polygon fill="white" stroke="black" points="177.5,-116.5 177.5,-217.5 299.5,-217.5 299.5,-116.5 177.5,-116.5"/>
<text text-anchor="middle" x="238.5" y="-205.5" font-family="Helvetica,sans-Serif" font-size="10.00">FrequencyResponse</text>
<polyline fill="none" stroke="black" points="177.5,-198.5 299.5,-198.5 "/>
<text text-anchor="middle" x="238.5" y="-186.5" font-family="Helvetica,sans-Serif" font-size="10.00"> </text>
<polyline fill="none" stroke="black" points="177.5,-179.5 299.5,-179.5 "/>
<text text-anchor="start" x="185.5" y="-167.5" font-family="Helvetica,sans-Serif" font-size="10.00">+ __init__()</text>
<text text-anchor="start" x="185.5" y="-156.5" font-family="Helvetica,sans-Serif" font-size="10.00">+ Response()</text>
<text text-anchor="start" x="185.5" y="-145.5" font-family="Helvetica,sans-Serif" font-size="10.00">+ ImpulseResponse()</text>
<text text-anchor="start" x="185.5" y="-134.5" font-family="Helvetica,sans-Serif" font-size="10.00">+ Resample()</text>
<text text-anchor="start" x="185.5" y="-123.5" font-family="Helvetica,sans-Serif" font-size="10.00">+ ResampleCZT()</text>
</a>
</g>
</g>
<!-- Node1&#45;&gt;Node3 -->
<g id="edge2" class="edge">
<title>Node1&#45;&gt;Node3</title>
<path fill="none" stroke="midnightblue" d="M194.49,-267.03C201.98,-250.16 209.67,-232.87 216.48,-217.55"/>
<polygon fill="none" stroke="midnightblue" points="191.21,-265.78 190.35,-276.34 197.61,-268.63 191.21,-265.78"/>
</g>
<!-- Node4 -->
<g id="node4" class="node">
<title>Node4</title>
<g id="a_node4"><a xlink:href="classSignalIntegrity_1_1Lib_1_1FrequencyDomain_1_1Differentiator_1_1Differentiator.xhtml" target="_top" xlink:title="Frequency response of a differentiator.">
<polygon fill="white" stroke="black" points="197,-0.5 197,-57.5 280,-57.5 280,-0.5 197,-0.5"/>
<text text-anchor="middle" x="238.5" y="-45.5" font-family="Helvetica,sans-Serif" font-size="10.00">Differentiator</text>
<polyline fill="none" stroke="black" points="197,-38.5 280,-38.5 "/>
<text text-anchor="middle" x="238.5" y="-26.5" font-family="Helvetica,sans-Serif" font-size="10.00"> </text>
<polyline fill="none" stroke="black" points="197,-19.5 280,-19.5 "/>
<text text-anchor="start" x="205" y="-7.5" font-family="Helvetica,sans-Serif" font-size="10.00">+ __init__()</text>
</a>
</g>
</g>
<!-- Node3&#45;&gt;Node4 -->
<g id="edge3" class="edge">
<title>Node3&#45;&gt;Node4</title>
<path fill="none" stroke="midnightblue" d="M238.5,-105.81C238.5,-89.04 238.5,-71.63 238.5,-57.73"/>
<polygon fill="none" stroke="midnightblue" points="235,-106.13 238.5,-116.13 242,-106.13 235,-106.13"/>
</g>
</g>
</svg>
