<?xml version="1.0" encoding="UTF-8" standalone="no"?>
<!DOCTYPE svg PUBLIC "-//W3C//DTD SVG 1.1//EN"
 "http://www.w3.org/Graphics/SVG/1.1/DTD/svg11.dtd">
<!-- Generated by graphviz version 2.43.0 (0)
 -->
<!-- Title: Waveform Pages: 1 -->
<svg width="1526pt" height="452pt"
 viewBox="0.00 0.00 1525.50 452.00" xmlns="http://www.w3.org/2000/svg" xmlns:xlink="http://www.w3.org/1999/xlink">
<g id="graph0" class="graph" transform="scale(1 1) rotate(0) translate(4 448)">
<title>Waveform</title>
<polygon fill="white" stroke="transparent" points="-4,4 -4,-448 1521.5,-448 1521.5,4 -4,4"/>
<!-- Node1 -->
<g id="node1" class="node">
<title>Node1</title>
<g id="a_node1"><a xlink:title="base class for all waveforms">
<polygon fill="#bfbfbf" stroke="black" points="794,-243.5 794,-443.5 926,-443.5 926,-243.5 794,-243.5"/>
<text text-anchor="middle" x="860" y="-431.5" font-family="Helvetica,sans-Serif" font-size="10.00">Waveform</text>
<polyline fill="none" stroke="black" points="794,-424.5 926,-424.5 "/>
<text text-anchor="start" x="802" y="-412.5" font-family="Helvetica,sans-Serif" font-size="10.00">+ td</text>
<text text-anchor="start" x="802" y="-401.5" font-family="Helvetica,sans-Serif" font-size="10.00">+ adaptionStrategy</text>
<text text-anchor="start" x="802" y="-390.5" font-family="Helvetica,sans-Serif" font-size="10.00">+ epsilon</text>
<text text-anchor="start" x="802" y="-379.5" font-family="Helvetica,sans-Serif" font-size="10.00">+ maximumWaveformSize</text>
<polyline fill="none" stroke="black" points="794,-372.5 926,-372.5 "/>
<text text-anchor="start" x="802" y="-360.5" font-family="Helvetica,sans-Serif" font-size="10.00">+ __init__()</text>
<text text-anchor="start" x="802" y="-349.5" font-family="Helvetica,sans-Serif" font-size="10.00">+ Times()</text>
<text text-anchor="start" x="802" y="-338.5" font-family="Helvetica,sans-Serif" font-size="10.00">+ TimeDescriptor()</text>
<text text-anchor="start" x="802" y="-327.5" font-family="Helvetica,sans-Serif" font-size="10.00">+ Values()</text>
<text text-anchor="start" x="802" y="-316.5" font-family="Helvetica,sans-Serif" font-size="10.00">+ OffsetBy()</text>
<text text-anchor="start" x="802" y="-305.5" font-family="Helvetica,sans-Serif" font-size="10.00">+ DelayBy()</text>
<text text-anchor="start" x="802" y="-294.5" font-family="Helvetica,sans-Serif" font-size="10.00">+ __add__()</text>
<text text-anchor="start" x="802" y="-283.5" font-family="Helvetica,sans-Serif" font-size="10.00">+ __sub__()</text>
<text text-anchor="start" x="802" y="-272.5" font-family="Helvetica,sans-Serif" font-size="10.00">+ __radd__()</text>
<text text-anchor="start" x="802" y="-261.5" font-family="Helvetica,sans-Serif" font-size="10.00">+ __mul__()</text>
<text text-anchor="start" x="802" y="-250.5" font-family="Helvetica,sans-Serif" font-size="10.00">and 16 more...</text>
</a>
</g>
</g>
<!-- Node2 -->
<g id="node2" class="node">
<title>Node2</title>
<g id="a_node2"><a xlink:href="classSignalIntegrity_1_1Lib_1_1Eye_1_1ClockRecovery_1_1ClockRecoveredWaveform.xhtml" target="_top" xlink:title="Resamples an input waveform using clock recovery.">
<polygon fill="white" stroke="black" points="0,-122 0,-179 134,-179 134,-122 0,-122"/>
<text text-anchor="middle" x="67" y="-167" font-family="Helvetica,sans-Serif" font-size="10.00">ClockRecoveredWaveform</text>
<polyline fill="none" stroke="black" points="0,-160 134,-160 "/>
<text text-anchor="middle" x="67" y="-148" font-family="Helvetica,sans-Serif" font-size="10.00"> </text>
<polyline fill="none" stroke="black" points="0,-141 134,-141 "/>
<text text-anchor="start" x="8" y="-129" font-family="Helvetica,sans-Serif" font-size="10.00">+ __init__()</text>
</a>
</g>
</g>
<!-- Node1&#45;&gt;Node2 -->
<g id="edge1" class="edge">
<title>Node1&#45;&gt;Node2</title>
<path fill="none" stroke="midnightblue" d="M783.68,-339.08C649.03,-330.69 362.79,-302.2 143,-207 127.11,-200.12 111.35,-189.42 98.33,-179.24"/>
<polygon fill="none" stroke="midnightblue" points="783.69,-342.59 793.89,-339.7 784.12,-335.6 783.69,-342.59"/>
</g>
<!-- Node3 -->
<g id="node3" class="node">
<title>Node3</title>
<g id="a_node3"><a xlink:href="classSignalIntegrity_1_1Lib_1_1ImpedanceProfile_1_1ImpedanceProfileWaveform_1_1ImpedanceProfileWaveform.xhtml" target="_top" xlink:title="Computes the impedance profile waveform from a set of s&#45;parameters using the port specified.">
<polygon fill="white" stroke="black" points="152.5,-116.5 152.5,-184.5 289.5,-184.5 289.5,-116.5 152.5,-116.5"/>
<text text-anchor="middle" x="221" y="-172.5" font-family="Helvetica,sans-Serif" font-size="10.00">ImpedanceProfileWaveform</text>
<polyline fill="none" stroke="black" points="152.5,-165.5 289.5,-165.5 "/>
<text text-anchor="start" x="160.5" y="-153.5" font-family="Helvetica,sans-Serif" font-size="10.00">+ rhoLimit</text>
<text text-anchor="start" x="160.5" y="-142.5" font-family="Helvetica,sans-Serif" font-size="10.00">+ ZLimit</text>
<polyline fill="none" stroke="black" points="152.5,-135.5 289.5,-135.5 "/>
<text text-anchor="start" x="160.5" y="-123.5" font-family="Helvetica,sans-Serif" font-size="10.00">+ __init__()</text>
</a>
</g>
</g>
<!-- Node1&#45;&gt;Node3 -->
<g id="edge2" class="edge">
<title>Node1&#45;&gt;Node3</title>
<path fill="none" stroke="midnightblue" d="M783.76,-333.45C672.95,-318.26 462.78,-281.66 299,-207 285.99,-201.07 272.92,-192.86 261.3,-184.57"/>
<polygon fill="none" stroke="midnightblue" points="783.46,-336.94 793.84,-334.81 784.4,-330.01 783.46,-336.94"/>
</g>
<!-- Node4 -->
<g id="node4" class="node">
<title>Node4</title>
<g id="a_node4"><a xlink:href="classSignalIntegrity_1_1Lib_1_1Prbs_1_1LevelsMultiLevelWaveform_1_1LevelsMultiLevelWaveform.xhtml" target="_top" xlink:title="a PRBS multi&#45;level waveform with a given PRBS polynomial">
<polygon fill="white" stroke="black" points="308,-122 308,-179 442,-179 442,-122 308,-122"/>
<text text-anchor="middle" x="375" y="-167" font-family="Helvetica,sans-Serif" font-size="10.00">LevelsMultiLevelWaveform</text>
<polyline fill="none" stroke="black" points="308,-160 442,-160 "/>
<text text-anchor="middle" x="375" y="-148" font-family="Helvetica,sans-Serif" font-size="10.00"> </text>
<polyline fill="none" stroke="black" points="308,-141 442,-141 "/>
<text text-anchor="start" x="316" y="-129" font-family="Helvetica,sans-Serif" font-size="10.00">+ __init__()</text>
</a>
</g>
</g>
<!-- Node1&#45;&gt;Node4 -->
<g id="edge3" class="edge">
<title>Node1&#45;&gt;Node4</title>
<path fill="none" stroke="midnightblue" d="M783.99,-324.89C699.68,-303.66 561.04,-263.64 451,-207 436.04,-199.3 420.81,-188.81 407.96,-179.02"/>
<polygon fill="none" stroke="midnightblue" points="783.19,-328.3 793.74,-327.33 784.89,-321.51 783.19,-328.3"/>
</g>
<!-- Node5 -->
<g id="node5" class="node">
<title>Node5</title>
<g id="a_node5"><a xlink:href="classSignalIntegrity_1_1Lib_1_1Prbs_1_1MultiLevelWaveform_1_1MultiLevelWaveform.xhtml" target="_top" xlink:title="a PRBS multi&#45;level waveform with a given PRBS polynomial">
<polygon fill="white" stroke="black" points="460.5,-122 460.5,-179 565.5,-179 565.5,-122 460.5,-122"/>
<text text-anchor="middle" x="513" y="-167" font-family="Helvetica,sans-Serif" font-size="10.00">MultiLevelWaveform</text>
<polyline fill="none" stroke="black" points="460.5,-160 565.5,-160 "/>
<text text-anchor="middle" x="513" y="-148" font-family="Helvetica,sans-Serif" font-size="10.00"> </text>
<polyline fill="none" stroke="black" points="460.5,-141 565.5,-141 "/>
<text text-anchor="start" x="468.5" y="-129" font-family="Helvetica,sans-Serif" font-size="10.00">+ __init__()</text>
</a>
</g>
</g>
<!-- Node1&#45;&gt;Node5 -->
<g id="edge4" class="edge">
<title>Node1&#45;&gt;Node5</title>
<path fill="none" stroke="midnightblue" d="M784.47,-313.57C725.14,-289.24 641.68,-251.36 575,-207 562.85,-198.92 550.64,-188.58 540.3,-179.01"/>
<polygon fill="none" stroke="midnightblue" points="783.2,-316.84 793.78,-317.36 785.83,-310.35 783.2,-316.84"/>
</g>
<!-- Node8 -->
<g id="node8" class="node">
<title>Node8</title>
<g id="a_node8"><a xlink:href="classSignalIntegrity_1_1Lib_1_1Prbs_1_1SerialDataWaveform_1_1SerialDataWaveform.xhtml" target="_top" xlink:title="a serial data NRZ waveform">
<polygon fill="white" stroke="black" points="583.5,-116.5 583.5,-184.5 690.5,-184.5 690.5,-116.5 583.5,-116.5"/>
<text text-anchor="middle" x="637" y="-172.5" font-family="Helvetica,sans-Serif" font-size="10.00">SerialDataWaveform</text>
<polyline fill="none" stroke="black" points="583.5,-165.5 690.5,-165.5 "/>
<text text-anchor="start" x="591.5" y="-153.5" font-family="Helvetica,sans-Serif" font-size="10.00">+ rtvsT</text>
<polyline fill="none" stroke="black" points="583.5,-146.5 690.5,-146.5 "/>
<text text-anchor="start" x="591.5" y="-134.5" font-family="Helvetica,sans-Serif" font-size="10.00">+ __init__()</text>
<text text-anchor="start" x="591.5" y="-123.5" font-family="Helvetica,sans-Serif" font-size="10.00">+ TimeDescriptor()</text>
</a>
</g>
</g>
<!-- Node1&#45;&gt;Node8 -->
<g id="edge7" class="edge">
<title>Node1&#45;&gt;Node8</title>
<path fill="none" stroke="midnightblue" d="M786.05,-280.39C758.89,-257.44 727.96,-231.15 700,-207 691.73,-199.85 682.89,-192.13 674.54,-184.78"/>
<polygon fill="none" stroke="midnightblue" points="784.08,-283.3 793.97,-287.08 788.59,-277.96 784.08,-283.3"/>
</g>
<!-- Node11 -->
<g id="node11" class="node">
<title>Node11</title>
<g id="a_node11"><a xlink:href="classSignalIntegrity_1_1Lib_1_1Prbs_1_1StandardsDefPRBSWaveform_1_1StandardsDefPRBSWaveform.xhtml" target="_top" xlink:title="a standards defined waveform loaded from a text file with a given rise time and amplitude">
<polygon fill="white" stroke="black" points="708.5,-122 708.5,-179 857.5,-179 857.5,-122 708.5,-122"/>
<text text-anchor="middle" x="783" y="-167" font-family="Helvetica,sans-Serif" font-size="10.00">StandardsDefPRBSWaveform</text>
<polyline fill="none" stroke="black" points="708.5,-160 857.5,-160 "/>
<text text-anchor="middle" x="783" y="-148" font-family="Helvetica,sans-Serif" font-size="10.00"> </text>
<polyline fill="none" stroke="black" points="708.5,-141 857.5,-141 "/>
<text text-anchor="start" x="716.5" y="-129" font-family="Helvetica,sans-Serif" font-size="10.00">+ __init__()</text>
</a>
</g>
</g>
<!-- Node1&#45;&gt;Node11 -->
<g id="edge10" class="edge">
<title>Node1&#45;&gt;Node11</title>
<path fill="none" stroke="midnightblue" d="M816.25,-233.98C808.06,-213.66 800.19,-194.14 794.16,-179.19"/>
<polygon fill="none" stroke="midnightblue" points="813.05,-235.4 820.03,-243.36 819.54,-232.78 813.05,-235.4"/>
</g>
<!-- Node12 -->
<g id="node12" class="node">
<title>Node12</title>
<g id="a_node12"><a xlink:href="classSignalIntegrity_1_1Lib_1_1TimeDomain_1_1Waveform_1_1ImpulseResponse_1_1ImpulseResponse.xhtml" target="_top" xlink:title="impulse response of a filter as a waveform">
<polygon fill="white" stroke="black" points="876,-94.5 876,-206.5 998,-206.5 998,-94.5 876,-94.5"/>
<text text-anchor="middle" x="937" y="-194.5" font-family="Helvetica,sans-Serif" font-size="10.00">ImpulseResponse</text>
<polyline fill="none" stroke="black" points="876,-187.5 998,-187.5 "/>
<text text-anchor="middle" x="937" y="-175.5" font-family="Helvetica,sans-Serif" font-size="10.00"> </text>
<polyline fill="none" stroke="black" points="876,-168.5 998,-168.5 "/>
<text text-anchor="start" x="884" y="-156.5" font-family="Helvetica,sans-Serif" font-size="10.00">+ __init__()</text>
<text text-anchor="start" x="884" y="-145.5" font-family="Helvetica,sans-Serif" font-size="10.00">+ DelayBy()</text>
<text text-anchor="start" x="884" y="-134.5" font-family="Helvetica,sans-Serif" font-size="10.00">+ FrequencyResponse()</text>
<text text-anchor="start" x="884" y="-123.5" font-family="Helvetica,sans-Serif" font-size="10.00">+ Resample()</text>
<text text-anchor="start" x="884" y="-112.5" font-family="Helvetica,sans-Serif" font-size="10.00">+ TrimToThreshold()</text>
<text text-anchor="start" x="884" y="-101.5" font-family="Helvetica,sans-Serif" font-size="10.00">+ FirFilter()</text>
</a>
</g>
</g>
<!-- Node1&#45;&gt;Node12 -->
<g id="edge11" class="edge">
<title>Node1&#45;&gt;Node12</title>
<path fill="none" stroke="midnightblue" d="M903.74,-233.99C907.51,-224.66 911.2,-215.5 914.68,-206.87"/>
<polygon fill="none" stroke="midnightblue" points="900.46,-232.78 899.97,-243.36 906.95,-235.4 900.46,-232.78"/>
</g>
<!-- Node13 -->
<g id="node13" class="node">
<title>Node13</title>
<g id="a_node13"><a xlink:href="classSignalIntegrity_1_1Lib_1_1TimeDomain_1_1Waveform_1_1ImpulseWaveform_1_1ImpulseWaveform.xhtml" target="_top" xlink:title="pulse waveform">
<polygon fill="white" stroke="black" points="1016.5,-122 1016.5,-179 1111.5,-179 1111.5,-122 1016.5,-122"/>
<text text-anchor="middle" x="1064" y="-167" font-family="Helvetica,sans-Serif" font-size="10.00">ImpulseWaveform</text>
<polyline fill="none" stroke="black" points="1016.5,-160 1111.5,-160 "/>
<text text-anchor="middle" x="1064" y="-148" font-family="Helvetica,sans-Serif" font-size="10.00"> </text>
<polyline fill="none" stroke="black" points="1016.5,-141 1111.5,-141 "/>
<text text-anchor="start" x="1024.5" y="-129" font-family="Helvetica,sans-Serif" font-size="10.00">+ __init__()</text>
</a>
</g>
</g>
<!-- Node1&#45;&gt;Node13 -->
<g id="edge12" class="edge">
<title>Node1&#45;&gt;Node13</title>
<path fill="none" stroke="midnightblue" d="M933.76,-275.24C957.29,-253.59 983.35,-229.4 1007,-207 1016.53,-197.98 1026.83,-188.01 1036.03,-179.04"/>
<polygon fill="none" stroke="midnightblue" points="931.21,-272.83 926.22,-282.17 935.95,-277.98 931.21,-272.83"/>
</g>
<!-- Node14 -->
<g id="node14" class="node">
<title>Node14</title>
<g id="a_node14"><a xlink:href="classSignalIntegrity_1_1Lib_1_1TimeDomain_1_1Waveform_1_1NoiseWaveform_1_1NoiseWaveform.xhtml" target="_top" xlink:title="noise waveform">
<polygon fill="white" stroke="black" points="1130,-122 1130,-179 1216,-179 1216,-122 1130,-122"/>
<text text-anchor="middle" x="1173" y="-167" font-family="Helvetica,sans-Serif" font-size="10.00">NoiseWaveform</text>
<polyline fill="none" stroke="black" points="1130,-160 1216,-160 "/>
<text text-anchor="middle" x="1173" y="-148" font-family="Helvetica,sans-Serif" font-size="10.00"> </text>
<polyline fill="none" stroke="black" points="1130,-141 1216,-141 "/>
<text text-anchor="start" x="1138" y="-129" font-family="Helvetica,sans-Serif" font-size="10.00">+ __init__()</text>
</a>
</g>
</g>
<!-- Node1&#45;&gt;Node14 -->
<g id="edge13" class="edge">
<title>Node1&#45;&gt;Node14</title>
<path fill="none" stroke="midnightblue" d="M935.3,-311.64C989.69,-287.46 1063.39,-250.65 1121,-207 1131.63,-198.95 1141.97,-188.61 1150.59,-179.04"/>
<polygon fill="none" stroke="midnightblue" points="933.81,-308.48 926.07,-315.71 936.63,-314.88 933.81,-308.48"/>
</g>
<!-- Node15 -->
<g id="node15" class="node">
<title>Node15</title>
<g id="a_node15"><a xlink:href="classSignalIntegrity_1_1Lib_1_1TimeDomain_1_1Waveform_1_1PulseWaveform_1_1PulseWaveform.xhtml" target="_top" xlink:title="pulse waveform">
<polygon fill="white" stroke="black" points="1234,-122 1234,-179 1320,-179 1320,-122 1234,-122"/>
<text text-anchor="middle" x="1277" y="-167" font-family="Helvetica,sans-Serif" font-size="10.00">PulseWaveform</text>
<polyline fill="none" stroke="black" points="1234,-160 1320,-160 "/>
<text text-anchor="middle" x="1277" y="-148" font-family="Helvetica,sans-Serif" font-size="10.00"> </text>
<polyline fill="none" stroke="black" points="1234,-141 1320,-141 "/>
<text text-anchor="start" x="1242" y="-129" font-family="Helvetica,sans-Serif" font-size="10.00">+ __init__()</text>
</a>
</g>
</g>
<!-- Node1&#45;&gt;Node15 -->
<g id="edge14" class="edge">
<title>Node1&#45;&gt;Node15</title>
<path fill="none" stroke="midnightblue" d="M936.36,-325.18C1013.7,-305.21 1134.5,-267.17 1225,-207 1236.33,-199.47 1246.96,-189.02 1255.62,-179.21"/>
<polygon fill="none" stroke="midnightblue" points="935.04,-321.9 926.21,-327.76 936.77,-328.69 935.04,-321.9"/>
</g>
<!-- Node16 -->
<g id="node16" class="node">
<title>Node16</title>
<g id="a_node16"><a xlink:href="classSignalIntegrity_1_1Lib_1_1TimeDomain_1_1Waveform_1_1SineWaveform_1_1SineWaveform.xhtml" target="_top" xlink:title="sinewave waveform">
<polygon fill="white" stroke="black" points="1338,-122 1338,-179 1418,-179 1418,-122 1338,-122"/>
<text text-anchor="middle" x="1378" y="-167" font-family="Helvetica,sans-Serif" font-size="10.00">SineWaveform</text>
<polyline fill="none" stroke="black" points="1338,-160 1418,-160 "/>
<text text-anchor="middle" x="1378" y="-148" font-family="Helvetica,sans-Serif" font-size="10.00"> </text>
<polyline fill="none" stroke="black" points="1338,-141 1418,-141 "/>
<text text-anchor="start" x="1346" y="-129" font-family="Helvetica,sans-Serif" font-size="10.00">+ __init__()</text>
</a>
</g>
</g>
<!-- Node1&#45;&gt;Node16 -->
<g id="edge15" class="edge">
<title>Node1&#45;&gt;Node16</title>
<path fill="none" stroke="midnightblue" d="M936.25,-333.83C1033.77,-319.88 1204.85,-285.59 1329,-207 1340.4,-199.78 1350.7,-189.15 1358.87,-179.11"/>
<polygon fill="none" stroke="midnightblue" points="935.6,-330.38 926.18,-335.23 936.56,-337.32 935.6,-330.38"/>
</g>
<!-- Node17 -->
<g id="node17" class="node">
<title>Node17</title>
<g id="a_node17"><a xlink:href="classSignalIntegrity_1_1Lib_1_1TimeDomain_1_1Waveform_1_1StepWaveform_1_1StepWaveform.xhtml" target="_top" xlink:title="step waveform">
<polygon fill="white" stroke="black" points="1436.5,-122 1436.5,-179 1517.5,-179 1517.5,-122 1436.5,-122"/>
<text text-anchor="middle" x="1477" y="-167" font-family="Helvetica,sans-Serif" font-size="10.00">StepWaveform</text>
<polyline fill="none" stroke="black" points="1436.5,-160 1517.5,-160 "/>
<text text-anchor="start" x="1444.5" y="-148" font-family="Helvetica,sans-Serif" font-size="10.00">+ rtvsT</text>
<polyline fill="none" stroke="black" points="1436.5,-141 1517.5,-141 "/>
<text text-anchor="start" x="1444.5" y="-129" font-family="Helvetica,sans-Serif" font-size="10.00">+ __init__()</text>
</a>
</g>
</g>
<!-- Node1&#45;&gt;Node17 -->
<g id="edge16" class="edge">
<title>Node1&#45;&gt;Node17</title>
<path fill="none" stroke="midnightblue" d="M936.4,-338.56C1050.61,-329.64 1269.26,-300.7 1427,-207 1438.82,-199.98 1449.42,-189.26 1457.79,-179.1"/>
<polygon fill="none" stroke="midnightblue" points="936.06,-335.07 926.35,-339.31 936.58,-342.05 936.06,-335.07"/>
</g>
<!-- Node6 -->
<g id="node6" class="node">
<title>Node6</title>
<g id="a_node6"><a xlink:href="classSignalIntegrity_1_1Lib_1_1Prbs_1_1PRBS13QWaveform_1_1PRBS13QWaveform.xhtml" target="_top" xlink:title="a PRBS13Q PAM4 waveform with a given rise time and amplitude">
<polygon fill="white" stroke="black" points="343.5,-0.5 343.5,-57.5 450.5,-57.5 450.5,-0.5 343.5,-0.5"/>
<text text-anchor="middle" x="397" y="-45.5" font-family="Helvetica,sans-Serif" font-size="10.00">PRBS13QWaveform</text>
<polyline fill="none" stroke="black" points="343.5,-38.5 450.5,-38.5 "/>
<text text-anchor="start" x="351.5" y="-26.5" font-family="Helvetica,sans-Serif" font-size="10.00">+ pattern</text>
<polyline fill="none" stroke="black" points="343.5,-19.5 450.5,-19.5 "/>
<text text-anchor="start" x="351.5" y="-7.5" font-family="Helvetica,sans-Serif" font-size="10.00">+ __init__()</text>
</a>
</g>
</g>
<!-- Node5&#45;&gt;Node6 -->
<g id="edge5" class="edge">
<title>Node5&#45;&gt;Node6</title>
<path fill="none" stroke="midnightblue" d="M478.8,-114.27C461.23,-96.17 440.13,-74.43 423.76,-57.57"/>
<polygon fill="none" stroke="midnightblue" points="476.62,-117.05 486.1,-121.78 481.64,-112.17 476.62,-117.05"/>
</g>
<!-- Node7 -->
<g id="node7" class="node">
<title>Node7</title>
<g id="a_node7"><a xlink:href="classSignalIntegrity_1_1Lib_1_1Prbs_1_1SSPRQWaveform_1_1SSPRQWaveform.xhtml" target="_top" xlink:title="a SSPRQ PAM4 waveform with a given rise time and amplitude">
<polygon fill="white" stroke="black" points="469,-0.5 469,-57.5 565,-57.5 565,-0.5 469,-0.5"/>
<text text-anchor="middle" x="517" y="-45.5" font-family="Helvetica,sans-Serif" font-size="10.00">SSPRQWaveform</text>
<polyline fill="none" stroke="black" points="469,-38.5 565,-38.5 "/>
<text text-anchor="start" x="477" y="-26.5" font-family="Helvetica,sans-Serif" font-size="10.00">+ pattern</text>
<polyline fill="none" stroke="black" points="469,-19.5 565,-19.5 "/>
<text text-anchor="start" x="477" y="-7.5" font-family="Helvetica,sans-Serif" font-size="10.00">+ __init__()</text>
</a>
</g>
</g>
<!-- Node5&#45;&gt;Node7 -->
<g id="edge6" class="edge">
<title>Node5&#45;&gt;Node7</title>
<path fill="none" stroke="midnightblue" d="M514.28,-111.33C514.86,-93.85 515.54,-73.53 516.08,-57.57"/>
<polygon fill="none" stroke="midnightblue" points="510.76,-111.67 513.93,-121.78 517.76,-111.91 510.76,-111.67"/>
</g>
<!-- Node9 -->
<g id="node9" class="node">
<title>Node9</title>
<g id="a_node9"><a xlink:href="classSignalIntegrity_1_1Lib_1_1Prbs_1_1ClockWaveform_1_1ClockWaveform.xhtml" target="_top" xlink:title="a clock waveform">
<polygon fill="white" stroke="black" points="590,-0.5 590,-57.5 676,-57.5 676,-0.5 590,-0.5"/>
<text text-anchor="middle" x="633" y="-45.5" font-family="Helvetica,sans-Serif" font-size="10.00">ClockWaveform</text>
<polyline fill="none" stroke="black" points="590,-38.5 676,-38.5 "/>
<text text-anchor="middle" x="633" y="-26.5" font-family="Helvetica,sans-Serif" font-size="10.00"> </text>
<polyline fill="none" stroke="black" points="590,-19.5 676,-19.5 "/>
<text text-anchor="start" x="598" y="-7.5" font-family="Helvetica,sans-Serif" font-size="10.00">+ __init__()</text>
</a>
</g>
</g>
<!-- Node8&#45;&gt;Node9 -->
<g id="edge8" class="edge">
<title>Node8&#45;&gt;Node9</title>
<path fill="none" stroke="midnightblue" d="M635.54,-105.96C635.01,-89.9 634.41,-72.16 633.93,-57.86"/>
<polygon fill="none" stroke="midnightblue" points="632.05,-106.34 635.89,-116.21 639.05,-106.1 632.05,-106.34"/>
</g>
<!-- Node10 -->
<g id="node10" class="node">
<title>Node10</title>
<g id="a_node10"><a xlink:href="classSignalIntegrity_1_1Lib_1_1Prbs_1_1PseudoRandomWaveform_1_1PseudoRandomWaveform.xhtml" target="_top" xlink:title="a PRBS waveform with a given PRBS polynomial">
<polygon fill="white" stroke="black" points="694.5,-0.5 694.5,-57.5 825.5,-57.5 825.5,-0.5 694.5,-0.5"/>
<text text-anchor="middle" x="760" y="-45.5" font-family="Helvetica,sans-Serif" font-size="10.00">PseudoRandomWaveform</text>
<polyline fill="none" stroke="black" points="694.5,-38.5 825.5,-38.5 "/>
<text text-anchor="middle" x="760" y="-26.5" font-family="Helvetica,sans-Serif" font-size="10.00"> </text>
<polyline fill="none" stroke="black" points="694.5,-19.5 825.5,-19.5 "/>
<text text-anchor="start" x="702.5" y="-7.5" font-family="Helvetica,sans-Serif" font-size="10.00">+ __init__()</text>
</a>
</g>
</g>
<!-- Node8&#45;&gt;Node10 -->
<g id="edge9" class="edge">
<title>Node8&#45;&gt;Node10</title>
<path fill="none" stroke="midnightblue" d="M678.54,-109.15C695.89,-92.28 715.63,-73.11 731.32,-57.86"/>
<polygon fill="none" stroke="midnightblue" points="676,-106.73 671.26,-116.21 680.87,-111.75 676,-106.73"/>
</g>
</g>
</svg>
