<?xml version="1.0" encoding="UTF-8" standalone="no"?>
<!DOCTYPE svg PUBLIC "-//W3C//DTD SVG 1.1//EN"
 "http://www.w3.org/Graphics/SVG/1.1/DTD/svg11.dtd">
<!-- Generated by graphviz version 2.43.0 (0)
 -->
<!-- Title: Waveform Pages: 1 -->
<svg width="939pt" height="452pt"
 viewBox="0.00 0.00 939.00 452.00" xmlns="http://www.w3.org/2000/svg" xmlns:xlink="http://www.w3.org/1999/xlink">
<g id="graph0" class="graph" transform="scale(1 1) rotate(0) translate(4 448)">
<title>Waveform</title>
<polygon fill="white" stroke="transparent" points="-4,4 -4,-448 935,-448 935,4 -4,4"/>
<!-- Node1 -->
<g id="node1" class="node">
<title>Node1</title>
<g id="a_node1"><a xlink:title="base class for all waveforms">
<polygon fill="#bfbfbf" stroke="black" points="459.5,-243.5 459.5,-443.5 591.5,-443.5 591.5,-243.5 459.5,-243.5"/>
<text text-anchor="middle" x="525.5" y="-431.5" font-family="Helvetica,sans-Serif" font-size="10.00">Waveform</text>
<polyline fill="none" stroke="black" points="459.5,-424.5 591.5,-424.5 "/>
<text text-anchor="start" x="467.5" y="-412.5" font-family="Helvetica,sans-Serif" font-size="10.00">+ td</text>
<text text-anchor="start" x="467.5" y="-401.5" font-family="Helvetica,sans-Serif" font-size="10.00">+ adaptionStrategy</text>
<text text-anchor="start" x="467.5" y="-390.5" font-family="Helvetica,sans-Serif" font-size="10.00">+ epsilon</text>
<text text-anchor="start" x="467.5" y="-379.5" font-family="Helvetica,sans-Serif" font-size="10.00">+ maximumWaveformSize</text>
<polyline fill="none" stroke="black" points="459.5,-372.5 591.5,-372.5 "/>
<text text-anchor="start" x="467.5" y="-360.5" font-family="Helvetica,sans-Serif" font-size="10.00">+ __init__()</text>
<text text-anchor="start" x="467.5" y="-349.5" font-family="Helvetica,sans-Serif" font-size="10.00">+ Times()</text>
<text text-anchor="start" x="467.5" y="-338.5" font-family="Helvetica,sans-Serif" font-size="10.00">+ TimeDescriptor()</text>
<text text-anchor="start" x="467.5" y="-327.5" font-family="Helvetica,sans-Serif" font-size="10.00">+ Values()</text>
<text text-anchor="start" x="467.5" y="-316.5" font-family="Helvetica,sans-Serif" font-size="10.00">+ OffsetBy()</text>
<text text-anchor="start" x="467.5" y="-305.5" font-family="Helvetica,sans-Serif" font-size="10.00">+ DelayBy()</text>
<text text-anchor="start" x="467.5" y="-294.5" font-family="Helvetica,sans-Serif" font-size="10.00">+ __add__()</text>
<text text-anchor="start" x="467.5" y="-283.5" font-family="Helvetica,sans-Serif" font-size="10.00">+ __sub__()</text>
<text text-anchor="start" x="467.5" y="-272.5" font-family="Helvetica,sans-Serif" font-size="10.00">+ __radd__()</text>
<text text-anchor="start" x="467.5" y="-261.5" font-family="Helvetica,sans-Serif" font-size="10.00">+ __mul__()</text>
<text text-anchor="start" x="467.5" y="-250.5" font-family="Helvetica,sans-Serif" font-size="10.00">and 14 more...</text>
</a>
</g>
</g>
<!-- Node2 -->
<g id="node2" class="node">
<title>Node2</title>
<g id="a_node2"><a xlink:href="classSignalIntegrity_1_1Lib_1_1ImpedanceProfile_1_1ImpedanceProfileWaveform_1_1ImpedanceProfileWaveform.xhtml" target="_top" xlink:title="Computes the impedance profile waveform from a set of s&#45;parameters using the port specified.">
<polygon fill="white" stroke="black" points="0,-116.5 0,-184.5 137,-184.5 137,-116.5 0,-116.5"/>
<text text-anchor="middle" x="68.5" y="-172.5" font-family="Helvetica,sans-Serif" font-size="10.00">ImpedanceProfileWaveform</text>
<polyline fill="none" stroke="black" points="0,-165.5 137,-165.5 "/>
<text text-anchor="start" x="8" y="-153.5" font-family="Helvetica,sans-Serif" font-size="10.00">+ rhoLimit</text>
<text text-anchor="start" x="8" y="-142.5" font-family="Helvetica,sans-Serif" font-size="10.00">+ ZLimit</text>
<polyline fill="none" stroke="black" points="0,-135.5 137,-135.5 "/>
<text text-anchor="start" x="8" y="-123.5" font-family="Helvetica,sans-Serif" font-size="10.00">+ __init__()</text>
</a>
</g>
</g>
<!-- Node1&#45;&gt;Node2 -->
<g id="edge1" class="edge">
<title>Node1&#45;&gt;Node2</title>
<path fill="none" stroke="midnightblue" d="M449.46,-322.27C370.81,-299.8 245.7,-259.62 145.5,-207 133.39,-200.64 121.04,-192.57 109.88,-184.57"/>
<polygon fill="none" stroke="midnightblue" points="448.71,-325.7 459.29,-325.06 450.62,-318.97 448.71,-325.7"/>
</g>
<!-- Node3 -->
<g id="node3" class="node">
<title>Node3</title>
<g id="a_node3"><a xlink:href="classSignalIntegrity_1_1Lib_1_1Prbs_1_1MultiLevelWaveform_1_1MultiLevelWaveform.xhtml" target="_top" xlink:title="a PRBS multi&#45;level waveform with a given PRBS polynomial">
<polygon fill="white" stroke="black" points="155,-122 155,-179 260,-179 260,-122 155,-122"/>
<text text-anchor="middle" x="207.5" y="-167" font-family="Helvetica,sans-Serif" font-size="10.00">MultiLevelWaveform</text>
<polyline fill="none" stroke="black" points="155,-160 260,-160 "/>
<text text-anchor="middle" x="207.5" y="-148" font-family="Helvetica,sans-Serif" font-size="10.00"> </text>
<polyline fill="none" stroke="black" points="155,-141 260,-141 "/>
<text text-anchor="start" x="163" y="-129" font-family="Helvetica,sans-Serif" font-size="10.00">+ __init__()</text>
</a>
</g>
</g>
<!-- Node1&#45;&gt;Node3 -->
<g id="edge2" class="edge">
<title>Node1&#45;&gt;Node3</title>
<path fill="none" stroke="midnightblue" d="M450.06,-308.58C397.54,-283.54 326.91,-247 269.5,-207 257.65,-198.74 245.59,-188.47 235.3,-179.01"/>
<polygon fill="none" stroke="midnightblue" points="448.78,-311.84 459.32,-312.96 451.78,-305.52 448.78,-311.84"/>
</g>
<!-- Node4 -->
<g id="node4" class="node">
<title>Node4</title>
<g id="a_node4"><a xlink:href="classSignalIntegrity_1_1Lib_1_1Prbs_1_1SerialDataWaveform_1_1SerialDataWaveform.xhtml" target="_top" xlink:title="a serial data NRZ waveform">
<polygon fill="white" stroke="black" points="278,-116.5 278,-184.5 385,-184.5 385,-116.5 278,-116.5"/>
<text text-anchor="middle" x="331.5" y="-172.5" font-family="Helvetica,sans-Serif" font-size="10.00">SerialDataWaveform</text>
<polyline fill="none" stroke="black" points="278,-165.5 385,-165.5 "/>
<text text-anchor="start" x="286" y="-153.5" font-family="Helvetica,sans-Serif" font-size="10.00">+ rtvsT</text>
<polyline fill="none" stroke="black" points="278,-146.5 385,-146.5 "/>
<text text-anchor="start" x="286" y="-134.5" font-family="Helvetica,sans-Serif" font-size="10.00">+ __init__()</text>
<text text-anchor="start" x="286" y="-123.5" font-family="Helvetica,sans-Serif" font-size="10.00">+ TimeDescriptor()</text>
</a>
</g>
</g>
<!-- Node1&#45;&gt;Node4 -->
<g id="edge3" class="edge">
<title>Node1&#45;&gt;Node4</title>
<path fill="none" stroke="midnightblue" d="M452.14,-270.28C422.18,-240.78 389.01,-208.12 365.05,-184.53"/>
<polygon fill="none" stroke="midnightblue" points="449.7,-272.78 459.28,-277.3 454.61,-267.79 449.7,-272.78"/>
</g>
<!-- Node7 -->
<g id="node7" class="node">
<title>Node7</title>
<g id="a_node7"><a xlink:href="classSignalIntegrity_1_1Lib_1_1TimeDomain_1_1Waveform_1_1ImpulseResponse_1_1ImpulseResponse.xhtml" target="_top" xlink:title="impulse response of a filter as a waveform">
<polygon fill="white" stroke="black" points="403.5,-94.5 403.5,-206.5 525.5,-206.5 525.5,-94.5 403.5,-94.5"/>
<text text-anchor="middle" x="464.5" y="-194.5" font-family="Helvetica,sans-Serif" font-size="10.00">ImpulseResponse</text>
<polyline fill="none" stroke="black" points="403.5,-187.5 525.5,-187.5 "/>
<text text-anchor="middle" x="464.5" y="-175.5" font-family="Helvetica,sans-Serif" font-size="10.00"> </text>
<polyline fill="none" stroke="black" points="403.5,-168.5 525.5,-168.5 "/>
<text text-anchor="start" x="411.5" y="-156.5" font-family="Helvetica,sans-Serif" font-size="10.00">+ __init__()</text>
<text text-anchor="start" x="411.5" y="-145.5" font-family="Helvetica,sans-Serif" font-size="10.00">+ DelayBy()</text>
<text text-anchor="start" x="411.5" y="-134.5" font-family="Helvetica,sans-Serif" font-size="10.00">+ FrequencyResponse()</text>
<text text-anchor="start" x="411.5" y="-123.5" font-family="Helvetica,sans-Serif" font-size="10.00">+ Resample()</text>
<text text-anchor="start" x="411.5" y="-112.5" font-family="Helvetica,sans-Serif" font-size="10.00">+ TrimToThreshold()</text>
<text text-anchor="start" x="411.5" y="-101.5" font-family="Helvetica,sans-Serif" font-size="10.00">+ FirFilter()</text>
</a>
</g>
</g>
<!-- Node1&#45;&gt;Node7 -->
<g id="edge6" class="edge">
<title>Node1&#45;&gt;Node7</title>
<path fill="none" stroke="midnightblue" d="M490.75,-233.7C487.8,-224.47 484.91,-215.41 482.19,-206.87"/>
<polygon fill="none" stroke="midnightblue" points="487.46,-234.9 493.84,-243.36 494.13,-232.77 487.46,-234.9"/>
</g>
<!-- Node8 -->
<g id="node8" class="node">
<title>Node8</title>
<g id="a_node8"><a xlink:href="classSignalIntegrity_1_1Lib_1_1TimeDomain_1_1Waveform_1_1NoiseWaveform_1_1NoiseWaveform.xhtml" target="_top" xlink:title="noise waveform">
<polygon fill="white" stroke="black" points="543.5,-122 543.5,-179 629.5,-179 629.5,-122 543.5,-122"/>
<text text-anchor="middle" x="586.5" y="-167" font-family="Helvetica,sans-Serif" font-size="10.00">NoiseWaveform</text>
<polyline fill="none" stroke="black" points="543.5,-160 629.5,-160 "/>
<text text-anchor="middle" x="586.5" y="-148" font-family="Helvetica,sans-Serif" font-size="10.00"> </text>
<polyline fill="none" stroke="black" points="543.5,-141 629.5,-141 "/>
<text text-anchor="start" x="551.5" y="-129" font-family="Helvetica,sans-Serif" font-size="10.00">+ __init__()</text>
</a>
</g>
</g>
<!-- Node1&#45;&gt;Node8 -->
<g id="edge7" class="edge">
<title>Node1&#45;&gt;Node8</title>
<path fill="none" stroke="midnightblue" d="M560.24,-233.71C566.7,-213.48 572.9,-194.07 577.66,-179.19"/>
<polygon fill="none" stroke="midnightblue" points="556.87,-232.77 557.16,-243.36 563.54,-234.9 556.87,-232.77"/>
</g>
<!-- Node9 -->
<g id="node9" class="node">
<title>Node9</title>
<g id="a_node9"><a xlink:href="classSignalIntegrity_1_1Lib_1_1TimeDomain_1_1Waveform_1_1PulseWaveform_1_1PulseWaveform.xhtml" target="_top" xlink:title="pulse waveform">
<polygon fill="white" stroke="black" points="647.5,-122 647.5,-179 733.5,-179 733.5,-122 647.5,-122"/>
<text text-anchor="middle" x="690.5" y="-167" font-family="Helvetica,sans-Serif" font-size="10.00">PulseWaveform</text>
<polyline fill="none" stroke="black" points="647.5,-160 733.5,-160 "/>
<text text-anchor="middle" x="690.5" y="-148" font-family="Helvetica,sans-Serif" font-size="10.00"> </text>
<polyline fill="none" stroke="black" points="647.5,-141 733.5,-141 "/>
<text text-anchor="start" x="655.5" y="-129" font-family="Helvetica,sans-Serif" font-size="10.00">+ __init__()</text>
</a>
</g>
</g>
<!-- Node1&#45;&gt;Node9 -->
<g id="edge8" class="edge">
<title>Node1&#45;&gt;Node9</title>
<path fill="none" stroke="midnightblue" d="M598.23,-258.31C622.88,-229.78 648.7,-199.89 666.74,-179.01"/>
<polygon fill="none" stroke="midnightblue" points="595.55,-256.06 591.66,-265.91 600.85,-260.63 595.55,-256.06"/>
</g>
<!-- Node10 -->
<g id="node10" class="node">
<title>Node10</title>
<g id="a_node10"><a xlink:href="classSignalIntegrity_1_1Lib_1_1TimeDomain_1_1Waveform_1_1SineWaveform_1_1SineWaveform.xhtml" target="_top" xlink:title="sinewave waveform">
<polygon fill="white" stroke="black" points="751.5,-122 751.5,-179 831.5,-179 831.5,-122 751.5,-122"/>
<text text-anchor="middle" x="791.5" y="-167" font-family="Helvetica,sans-Serif" font-size="10.00">SineWaveform</text>
<polyline fill="none" stroke="black" points="751.5,-160 831.5,-160 "/>
<text text-anchor="middle" x="791.5" y="-148" font-family="Helvetica,sans-Serif" font-size="10.00"> </text>
<polyline fill="none" stroke="black" points="751.5,-141 831.5,-141 "/>
<text text-anchor="start" x="759.5" y="-129" font-family="Helvetica,sans-Serif" font-size="10.00">+ __init__()</text>
</a>
</g>
</g>
<!-- Node1&#45;&gt;Node10 -->
<g id="edge9" class="edge">
<title>Node1&#45;&gt;Node10</title>
<path fill="none" stroke="midnightblue" d="M600.34,-302.95C643.93,-278.21 698.75,-244.07 742.5,-207 752.21,-198.77 761.74,-188.61 769.77,-179.24"/>
<polygon fill="none" stroke="midnightblue" points="598.5,-299.97 591.5,-307.93 601.93,-306.07 598.5,-299.97"/>
</g>
<!-- Node11 -->
<g id="node11" class="node">
<title>Node11</title>
<g id="a_node11"><a xlink:href="classSignalIntegrity_1_1Lib_1_1TimeDomain_1_1Waveform_1_1StepWaveform_1_1StepWaveform.xhtml" target="_top" xlink:title="step waveform">
<polygon fill="white" stroke="black" points="850,-122 850,-179 931,-179 931,-122 850,-122"/>
<text text-anchor="middle" x="890.5" y="-167" font-family="Helvetica,sans-Serif" font-size="10.00">StepWaveform</text>
<polyline fill="none" stroke="black" points="850,-160 931,-160 "/>
<text text-anchor="start" x="858" y="-148" font-family="Helvetica,sans-Serif" font-size="10.00">+ rtvsT</text>
<polyline fill="none" stroke="black" points="850,-141 931,-141 "/>
<text text-anchor="start" x="858" y="-129" font-family="Helvetica,sans-Serif" font-size="10.00">+ __init__()</text>
</a>
</g>
</g>
<!-- Node1&#45;&gt;Node11 -->
<g id="edge10" class="edge">
<title>Node1&#45;&gt;Node11</title>
<path fill="none" stroke="midnightblue" d="M601.21,-320.21C668.14,-298.2 766.36,-260.14 840.5,-207 851.25,-199.29 861.37,-188.92 869.66,-179.22"/>
<polygon fill="none" stroke="midnightblue" points="600,-316.92 591.57,-323.34 602.16,-323.58 600,-316.92"/>
</g>
<!-- Node5 -->
<g id="node5" class="node">
<title>Node5</title>
<g id="a_node5"><a xlink:href="classSignalIntegrity_1_1Lib_1_1Prbs_1_1ClockWaveform_1_1ClockWaveform.xhtml" target="_top" xlink:title="a clock waveform">
<polygon fill="white" stroke="black" points="224.5,-0.5 224.5,-57.5 310.5,-57.5 310.5,-0.5 224.5,-0.5"/>
<text text-anchor="middle" x="267.5" y="-45.5" font-family="Helvetica,sans-Serif" font-size="10.00">ClockWaveform</text>
<polyline fill="none" stroke="black" points="224.5,-38.5 310.5,-38.5 "/>
<text text-anchor="middle" x="267.5" y="-26.5" font-family="Helvetica,sans-Serif" font-size="10.00"> </text>
<polyline fill="none" stroke="black" points="224.5,-19.5 310.5,-19.5 "/>
<text text-anchor="start" x="232.5" y="-7.5" font-family="Helvetica,sans-Serif" font-size="10.00">+ __init__()</text>
</a>
</g>
</g>
<!-- Node4&#45;&gt;Node5 -->
<g id="edge4" class="edge">
<title>Node4&#45;&gt;Node5</title>
<path fill="none" stroke="midnightblue" d="M308.92,-107.33C300.13,-90.92 290.3,-72.57 282.42,-57.86"/>
<polygon fill="none" stroke="midnightblue" points="305.87,-109.05 313.67,-116.21 312.04,-105.74 305.87,-109.05"/>
</g>
<!-- Node6 -->
<g id="node6" class="node">
<title>Node6</title>
<g id="a_node6"><a xlink:href="classSignalIntegrity_1_1Lib_1_1Prbs_1_1PseudoRandomWaveform_1_1PseudoRandomWaveform.xhtml" target="_top" xlink:title="a PRBS waveform with a given PRBS polynomial">
<polygon fill="white" stroke="black" points="329,-0.5 329,-57.5 460,-57.5 460,-0.5 329,-0.5"/>
<text text-anchor="middle" x="394.5" y="-45.5" font-family="Helvetica,sans-Serif" font-size="10.00">PseudoRandomWaveform</text>
<polyline fill="none" stroke="black" points="329,-38.5 460,-38.5 "/>
<text text-anchor="middle" x="394.5" y="-26.5" font-family="Helvetica,sans-Serif" font-size="10.00"> </text>
<polyline fill="none" stroke="black" points="329,-19.5 460,-19.5 "/>
<text text-anchor="start" x="337" y="-7.5" font-family="Helvetica,sans-Serif" font-size="10.00">+ __init__()</text>
</a>
</g>
</g>
<!-- Node4&#45;&gt;Node6 -->
<g id="edge5" class="edge">
<title>Node4&#45;&gt;Node6</title>
<path fill="none" stroke="midnightblue" d="M353.73,-107.33C362.38,-90.92 372.06,-72.57 379.81,-57.86"/>
<polygon fill="none" stroke="midnightblue" points="350.62,-105.73 349.05,-116.21 356.81,-109 350.62,-105.73"/>
</g>
</g>
</svg>
