<?xml version="1.0" encoding="UTF-8" standalone="no"?>
<!DOCTYPE svg PUBLIC "-//W3C//DTD SVG 1.1//EN"
 "http://www.w3.org/Graphics/SVG/1.1/DTD/svg11.dtd">
<!-- Generated by graphviz version 2.43.0 (0)
 -->
<!-- Title: Numeric Pages: 1 -->
<svg width="392pt" height="247pt"
 viewBox="0.00 0.00 391.50 247.00" xmlns="http://www.w3.org/2000/svg" xmlns:xlink="http://www.w3.org/1999/xlink">
<g id="graph0" class="graph" transform="scale(1 1) rotate(0) translate(4 243)">
<title>Numeric</title>
<!-- Node1 -->
<g id="Node000001" class="node">
<title>Node1</title>
<g id="a_Node000001"><a xlink:title="handles numeric details of derived class solutions">
<polygon fill="#999999" stroke="transparent" points="279.5,-239 110.5,-239 110.5,-100 279.5,-100 279.5,-239"/>
<text text-anchor="start" x="177" y="-226.5" font-family="Helvetica,sans-Serif" font-size="10.00">Numeric</text>
<text text-anchor="start" x="115" y="-211.5" font-family="Helvetica,sans-Serif" font-size="10.00">+</text>
<text text-anchor="start" x="126" y="-211.5" font-family="Helvetica,sans-Serif" font-size="10.00">alwaysUseSVD</text>
<text text-anchor="start" x="115" y="-196.5" font-family="Helvetica,sans-Serif" font-size="10.00">+</text>
<text text-anchor="start" x="126" y="-196.5" font-family="Helvetica,sans-Serif" font-size="10.00">trySVD</text>
<text text-anchor="start" x="115" y="-181.5" font-family="Helvetica,sans-Serif" font-size="10.00">+</text>
<text text-anchor="start" x="126" y="-181.5" font-family="Helvetica,sans-Serif" font-size="10.00">allowPossibleNonUniqueSolutions</text>
<text text-anchor="start" x="115" y="-166.5" font-family="Helvetica,sans-Serif" font-size="10.00">+</text>
<text text-anchor="start" x="126" y="-166.5" font-family="Helvetica,sans-Serif" font-size="10.00">singularValueLimit</text>
<text text-anchor="start" x="115" y="-151.5" font-family="Helvetica,sans-Serif" font-size="10.00">+</text>
<text text-anchor="start" x="126" y="-151.5" font-family="Helvetica,sans-Serif" font-size="10.00">conditionNumberLimit</text>
<text text-anchor="start" x="115" y="-136.5" font-family="Helvetica,sans-Serif" font-size="10.00">+</text>
<text text-anchor="start" x="126" y="-136.5" font-family="Helvetica,sans-Serif" font-size="10.00">InstallSafeTees()</text>
<text text-anchor="start" x="115" y="-121.5" font-family="Helvetica,sans-Serif" font-size="10.00">+</text>
<text text-anchor="start" x="126" y="-121.5" font-family="Helvetica,sans-Serif" font-size="10.00">Dagger()</text>
<text text-anchor="start" x="115" y="-106.5" font-family="Helvetica,sans-Serif" font-size="10.00">+</text>
<text text-anchor="start" x="126" y="-106.5" font-family="Helvetica,sans-Serif" font-size="10.00">PermutationMatrix()</text>
<polygon fill="#666666" stroke="#666666" points="111,-221.5 111,-221.5 280,-221.5 280,-221.5 111,-221.5"/>
<polygon fill="#666666" stroke="#666666" points="111,-146.5 111,-146.5 124,-146.5 124,-146.5 111,-146.5"/>
<polygon fill="#666666" stroke="#666666" points="124,-146.5 124,-146.5 280,-146.5 280,-146.5 124,-146.5"/>
<polygon fill="none" stroke="#666666" points="110.5,-100 110.5,-239 279.5,-239 279.5,-100 110.5,-100"/>
</a>
</g>
</g>
<!-- Node2 -->
<g id="Node000002" class="node">
<title>Node2</title>
<g id="a_Node000002"><a xlink:href="classSignalIntegrity_1_1Lib_1_1SystemDescriptions_1_1DeembedderNumeric_1_1DeembedderNumeric.xhtml" target="_top" xlink:title="Performs numerical device deembedding.">
<polygon fill="white" stroke="transparent" points="108,-64 0,-64 0,0 108,0 108,-64"/>
<text text-anchor="start" x="7.5" y="-52" font-family="Helvetica,sans-Serif" font-size="10.00">DeembedderNumeric</text>
<text text-anchor="start" x="52" y="-37" font-family="Helvetica,sans-Serif" font-size="10.00"> </text>
<text text-anchor="start" x="4" y="-22" font-family="Helvetica,sans-Serif" font-size="10.00">+</text>
<text text-anchor="start" x="15" y="-22" font-family="Helvetica,sans-Serif" font-size="10.00">__init__()</text>
<text text-anchor="start" x="4" y="-7" font-family="Helvetica,sans-Serif" font-size="10.00">+</text>
<text text-anchor="start" x="15" y="-7" font-family="Helvetica,sans-Serif" font-size="10.00">CalculateUnknown()</text>
<polygon fill="#666666" stroke="#666666" points="0,-47 0,-47 108,-47 108,-47 0,-47"/>
<polygon fill="#666666" stroke="#666666" points="0,-32 0,-32 108,-32 108,-32 0,-32"/>
<polygon fill="none" stroke="#666666" points="0,0 0,-64 108,-64 108,0 0,0"/>
</a>
</g>
</g>
<!-- Node1&#45;&gt;Node2 -->
<g id="edge1_Node000001_Node000002" class="edge">
<title>Node1&#45;&gt;Node2</title>
<g id="a_edge1_Node000001_Node000002"><a xlink:title=" ">
<path fill="none" stroke="#63b8ff" d="M116.31,-92.88C105.72,-82.7 95.38,-72.76 86.26,-64"/>
<polygon fill="none" stroke="#63b8ff" points="114.04,-95.55 123.67,-99.96 118.89,-90.5 114.04,-95.55"/>
</a>
</g>
</g>
<!-- Node3 -->
<g id="Node000003" class="node">
<title>Node3</title>
<g id="a_Node000003"><a xlink:href="classSignalIntegrity_1_1Lib_1_1SystemDescriptions_1_1SystemSParametersNumeric_1_1SystemSParametersNumeric.xhtml" target="_top" xlink:title="Class for computing s&#45;parameters of interconnected systems.">
<polygon fill="white" stroke="transparent" points="264,-64 126,-64 126,0 264,0 264,-64"/>
<text text-anchor="start" x="131" y="-52" font-family="Helvetica,sans-Serif" font-size="10.00">SystemSParametersNumeric</text>
<text text-anchor="start" x="193" y="-37" font-family="Helvetica,sans-Serif" font-size="10.00"> </text>
<text text-anchor="start" x="143.5" y="-22" font-family="Helvetica,sans-Serif" font-size="10.00">+</text>
<text text-anchor="start" x="168" y="-22" font-family="Helvetica,sans-Serif" font-size="10.00">__init__()</text>
<text text-anchor="start" x="143.5" y="-7" font-family="Helvetica,sans-Serif" font-size="10.00">+</text>
<text text-anchor="start" x="168" y="-7" font-family="Helvetica,sans-Serif" font-size="10.00">SParameters()</text>
<polygon fill="#666666" stroke="#666666" points="126,-47 126,-47 264,-47 264,-47 126,-47"/>
<polygon fill="#666666" stroke="#666666" points="126,-32 126,-32 264,-32 264,-32 126,-32"/>
<polygon fill="none" stroke="#666666" points="126,0 126,-64 264,-64 264,0 126,0"/>
</a>
</g>
</g>
<!-- Node1&#45;&gt;Node3 -->
<g id="edge2_Node000001_Node000003" class="edge">
<title>Node1&#45;&gt;Node3</title>
<g id="a_edge2_Node000001_Node000003"><a xlink:title=" ">
<path fill="none" stroke="#63b8ff" d="M195,-89.95C195,-80.8 195,-71.92 195,-64"/>
<polygon fill="none" stroke="#63b8ff" points="191.5,-89.96 195,-99.96 198.5,-89.96 191.5,-89.96"/>
</a>
</g>
</g>
<!-- Node4 -->
<g id="Node000004" class="node">
<title>Node4</title>
<g id="a_Node000004"><a xlink:href="classSignalIntegrity_1_1Lib_1_1SystemDescriptions_1_1VirtualProbeNumeric_1_1VirtualProbeNumeric.xhtml" target="_top" xlink:title="class for performing virtual probing numerically.">
<polygon fill="white" stroke="transparent" points="383.5,-64 282.5,-64 282.5,0 383.5,0 383.5,-64"/>
<text text-anchor="start" x="288" y="-52" font-family="Helvetica,sans-Serif" font-size="10.00">VirtualProbeNumeric</text>
<text text-anchor="start" x="331.5" y="-37" font-family="Helvetica,sans-Serif" font-size="10.00"> </text>
<text text-anchor="start" x="290" y="-22" font-family="Helvetica,sans-Serif" font-size="10.00">+</text>
<text text-anchor="start" x="304" y="-22" font-family="Helvetica,sans-Serif" font-size="10.00">__init__()</text>
<text text-anchor="start" x="290" y="-7" font-family="Helvetica,sans-Serif" font-size="10.00">+</text>
<text text-anchor="start" x="304" y="-7" font-family="Helvetica,sans-Serif" font-size="10.00">TransferMatrix()</text>
<polygon fill="#666666" stroke="#666666" points="283,-47 283,-47 384,-47 384,-47 283,-47"/>
<polygon fill="#666666" stroke="#666666" points="283,-32 283,-32 384,-32 384,-32 283,-32"/>
<polygon fill="none" stroke="#666666" points="282.5,0 282.5,-64 383.5,-64 383.5,0 282.5,0"/>
</a>
</g>
</g>
<!-- Node1&#45;&gt;Node4 -->
<g id="edge3_Node000001_Node000004" class="edge">
<title>Node1&#45;&gt;Node4</title>
<g id="a_edge3_Node000001_Node000004"><a xlink:title=" ">
<path fill="none" stroke="#63b8ff" d="M272.01,-92.88C282.38,-82.7 292.5,-72.76 301.43,-64"/>
<polygon fill="none" stroke="#63b8ff" points="269.49,-90.45 264.81,-99.96 274.4,-95.45 269.49,-90.45"/>
</a>
</g>
</g>
</g>
</svg>
