<?xml version="1.0" encoding="UTF-8" standalone="no"?>
<!DOCTYPE svg PUBLIC "-//W3C//DTD SVG 1.1//EN"
 "http://www.w3.org/Graphics/SVG/1.1/DTD/svg11.dtd">
<!-- Generated by graphviz version 2.43.0 (0)
 -->
<!-- Title: TransferMatricesProcessor Pages: 1 -->
<svg width="189pt" height="237pt"
 viewBox="0.00 0.00 189.00 237.00" xmlns="http://www.w3.org/2000/svg" xmlns:xlink="http://www.w3.org/1999/xlink">
<g id="graph0" class="graph" transform="scale(1 1) rotate(0) translate(4 233)">
<title>TransferMatricesProcessor</title>
<polygon fill="white" stroke="transparent" points="-4,4 -4,-233 185,-233 185,4 -4,4"/>
<!-- Node1 -->
<g id="node1" class="node">
<title>Node1</title>
<g id="a_node1"><a xlink:title="process transfer matrices &#160;&#160;Usually transfer matrices are produced in simulation and virtual probing ...">
<polygon fill="#bfbfbf" stroke="black" points="0,-0.5 0,-90.5 181,-90.5 181,-0.5 0,-0.5"/>
<text text-anchor="middle" x="90.5" y="-78.5" font-family="Helvetica,sans-Serif" font-size="10.00">TransferMatricesProcessor</text>
<polyline fill="none" stroke="black" points="0,-71.5 181,-71.5 "/>
<text text-anchor="start" x="8" y="-59.5" font-family="Helvetica,sans-Serif" font-size="10.00">+ TransferMatrices</text>
<polyline fill="none" stroke="black" points="0,-52.5 181,-52.5 "/>
<text text-anchor="start" x="8" y="-40.5" font-family="Helvetica,sans-Serif" font-size="10.00">+ __init__()</text>
<text text-anchor="start" x="8" y="-29.5" font-family="Helvetica,sans-Serif" font-size="10.00">+ PrecalculateFrequencyResponses()</text>
<text text-anchor="start" x="8" y="-18.5" font-family="Helvetica,sans-Serif" font-size="10.00">+ PrecalculateImpulseResponses()</text>
<text text-anchor="start" x="8" y="-7.5" font-family="Helvetica,sans-Serif" font-size="10.00">+ ProcessWaveforms()</text>
</a>
</g>
</g>
<!-- Node2 -->
<g id="node2" class="node">
<title>Node2</title>
<g id="a_node2"><a xlink:href="classSignalIntegrity_1_1Lib_1_1CallBacker_1_1CallBacker.xhtml" target="_top" xlink:title="Handles Callbacks that allow progress reporting during long calculations and capability to abort.">
<polygon fill="white" stroke="black" points="37,-127.5 37,-228.5 144,-228.5 144,-127.5 37,-127.5"/>
<text text-anchor="middle" x="90.5" y="-216.5" font-family="Helvetica,sans-Serif" font-size="10.00">CallBacker</text>
<polyline fill="none" stroke="black" points="37,-209.5 144,-209.5 "/>
<text text-anchor="start" x="45" y="-197.5" font-family="Helvetica,sans-Serif" font-size="10.00">+ callback</text>
<polyline fill="none" stroke="black" points="37,-190.5 144,-190.5 "/>
<text text-anchor="start" x="45" y="-178.5" font-family="Helvetica,sans-Serif" font-size="10.00">+ __init__()</text>
<text text-anchor="start" x="45" y="-167.5" font-family="Helvetica,sans-Serif" font-size="10.00">+ HasACallBack()</text>
<text text-anchor="start" x="45" y="-156.5" font-family="Helvetica,sans-Serif" font-size="10.00">+ CallBack()</text>
<text text-anchor="start" x="45" y="-145.5" font-family="Helvetica,sans-Serif" font-size="10.00">+ InstallCallback()</text>
<text text-anchor="start" x="45" y="-134.5" font-family="Helvetica,sans-Serif" font-size="10.00">+ RemoveCallback()</text>
</a>
</g>
</g>
<!-- Node2&#45;&gt;Node1 -->
<g id="edge1" class="edge">
<title>Node2&#45;&gt;Node1</title>
<path fill="none" stroke="midnightblue" d="M90.5,-117.23C90.5,-108.24 90.5,-99.1 90.5,-90.52"/>
<polygon fill="none" stroke="midnightblue" points="87,-117.29 90.5,-127.29 94,-117.29 87,-117.29"/>
</g>
</g>
</svg>
