<?xml version="1.0" encoding="UTF-8" standalone="no"?>
<!DOCTYPE svg PUBLIC "-//W3C//DTD SVG 1.1//EN"
 "http://www.w3.org/Graphics/SVG/1.1/DTD/svg11.dtd">
<!-- Generated by graphviz version 2.43.0 (0)
 -->
<!-- Title: DeembedderNumeric Pages: 1 -->
<svg width="287pt" height="601pt"
 viewBox="0.00 0.00 286.50 601.00" xmlns="http://www.w3.org/2000/svg" xmlns:xlink="http://www.w3.org/1999/xlink">
<g id="graph0" class="graph" transform="scale(1 1) rotate(0) translate(4 597)">
<title>DeembedderNumeric</title>
<polygon fill="white" stroke="transparent" points="-4,4 -4,-597 282.5,-597 282.5,4 -4,4"/>
<!-- Node1 -->
<g id="node1" class="node">
<title>Node1</title>
<g id="a_node1"><a xlink:title=" ">
<polygon fill="#bfbfbf" stroke="black" points="73.5,-0.5 73.5,-68.5 200.5,-68.5 200.5,-0.5 73.5,-0.5"/>
<text text-anchor="middle" x="137" y="-56.5" font-family="Helvetica,sans-Serif" font-size="10.00">DeembedderNumeric</text>
<polyline fill="none" stroke="black" points="73.5,-49.5 200.5,-49.5 "/>
<text text-anchor="middle" x="137" y="-37.5" font-family="Helvetica,sans-Serif" font-size="10.00"> </text>
<polyline fill="none" stroke="black" points="73.5,-30.5 200.5,-30.5 "/>
<text text-anchor="start" x="81.5" y="-18.5" font-family="Helvetica,sans-Serif" font-size="10.00">+ __init__()</text>
<text text-anchor="start" x="81.5" y="-7.5" font-family="Helvetica,sans-Serif" font-size="10.00">+ CalculateUnknown()</text>
</a>
</g>
</g>
<!-- Node2 -->
<g id="node2" class="node">
<title>Node2</title>
<g id="a_node2"><a xlink:href="classSignalIntegrity_1_1Lib_1_1SystemDescriptions_1_1Deembedder_1_1Deembedder.xhtml" target="_top" xlink:title="housekeeping base class for deembedders">
<polygon fill="white" stroke="black" points="7,-105.5 7,-228.5 123,-228.5 123,-105.5 7,-105.5"/>
<text text-anchor="middle" x="65" y="-216.5" font-family="Helvetica,sans-Serif" font-size="10.00">Deembedder</text>
<polyline fill="none" stroke="black" points="7,-209.5 123,-209.5 "/>
<text text-anchor="middle" x="65" y="-197.5" font-family="Helvetica,sans-Serif" font-size="10.00"> </text>
<polyline fill="none" stroke="black" points="7,-190.5 123,-190.5 "/>
<text text-anchor="start" x="15" y="-178.5" font-family="Helvetica,sans-Serif" font-size="10.00">+ __init__()</text>
<text text-anchor="start" x="15" y="-167.5" font-family="Helvetica,sans-Serif" font-size="10.00">+ AddUnknown()</text>
<text text-anchor="start" x="15" y="-156.5" font-family="Helvetica,sans-Serif" font-size="10.00">+ DutANames()</text>
<text text-anchor="start" x="15" y="-145.5" font-family="Helvetica,sans-Serif" font-size="10.00">+ DutBNames()</text>
<text text-anchor="start" x="15" y="-134.5" font-family="Helvetica,sans-Serif" font-size="10.00">+ UnknownNames()</text>
<text text-anchor="start" x="15" y="-123.5" font-family="Helvetica,sans-Serif" font-size="10.00">+ UnknownPorts()</text>
<text text-anchor="start" x="15" y="-112.5" font-family="Helvetica,sans-Serif" font-size="10.00">+ Partition()</text>
</a>
</g>
</g>
<!-- Node2&#45;&gt;Node1 -->
<g id="edge1" class="edge">
<title>Node2&#45;&gt;Node1</title>
<path fill="none" stroke="midnightblue" d="M103.38,-96.43C108.73,-86.74 114,-77.19 118.73,-68.62"/>
<polygon fill="none" stroke="midnightblue" points="100.24,-94.89 98.47,-105.33 106.37,-98.27 100.24,-94.89"/>
</g>
<!-- Node3 -->
<g id="node3" class="node">
<title>Node3</title>
<g id="a_node3"><a xlink:href="classSignalIntegrity_1_1Lib_1_1SystemDescriptions_1_1SystemSParameters_1_1SystemSParameters.xhtml" target="_top" xlink:title="base class for housekeeping involving system s&#45;parameters calculations">
<polygon fill="white" stroke="black" points="7,-265.5 7,-388.5 123,-388.5 123,-265.5 7,-265.5"/>
<text text-anchor="middle" x="65" y="-376.5" font-family="Helvetica,sans-Serif" font-size="10.00">SystemSParameters</text>
<polyline fill="none" stroke="black" points="7,-369.5 123,-369.5 "/>
<text text-anchor="middle" x="65" y="-357.5" font-family="Helvetica,sans-Serif" font-size="10.00"> </text>
<polyline fill="none" stroke="black" points="7,-350.5 123,-350.5 "/>
<text text-anchor="start" x="15" y="-338.5" font-family="Helvetica,sans-Serif" font-size="10.00">+ __init__()</text>
<text text-anchor="start" x="15" y="-327.5" font-family="Helvetica,sans-Serif" font-size="10.00">+ PortANames()</text>
<text text-anchor="start" x="15" y="-316.5" font-family="Helvetica,sans-Serif" font-size="10.00">+ PortBNames()</text>
<text text-anchor="start" x="15" y="-305.5" font-family="Helvetica,sans-Serif" font-size="10.00">+ OtherNames()</text>
<text text-anchor="start" x="15" y="-294.5" font-family="Helvetica,sans-Serif" font-size="10.00">+ NodeVector()</text>
<text text-anchor="start" x="15" y="-283.5" font-family="Helvetica,sans-Serif" font-size="10.00">+ StimulusVector()</text>
<text text-anchor="start" x="15" y="-272.5" font-family="Helvetica,sans-Serif" font-size="10.00"># WeightsMatrix()</text>
</a>
</g>
</g>
<!-- Node3&#45;&gt;Node2 -->
<g id="edge2" class="edge">
<title>Node3&#45;&gt;Node2</title>
<path fill="none" stroke="midnightblue" d="M65,-255.12C65,-246.31 65,-237.37 65,-228.73"/>
<polygon fill="none" stroke="midnightblue" points="61.5,-255.36 65,-265.36 68.5,-255.36 61.5,-255.36"/>
</g>
<!-- Node4 -->
<g id="node4" class="node">
<title>Node4</title>
<g id="a_node4"><a xlink:href="classSignalIntegrity_1_1Lib_1_1SystemDescriptions_1_1SystemDescription_1_1SystemDescription.xhtml" target="_top" xlink:title="Allows the construction of system descriptions for use with all of the classes that solve schematics ...">
<polygon fill="white" stroke="black" points="0,-425.5 0,-592.5 130,-592.5 130,-425.5 0,-425.5"/>
<text text-anchor="middle" x="65" y="-580.5" font-family="Helvetica,sans-Serif" font-size="10.00">SystemDescription</text>
<polyline fill="none" stroke="black" points="0,-573.5 130,-573.5 "/>
<text text-anchor="start" x="8" y="-561.5" font-family="Helvetica,sans-Serif" font-size="10.00">+ m_UniqueDevice</text>
<text text-anchor="start" x="8" y="-550.5" font-family="Helvetica,sans-Serif" font-size="10.00">+ m_UniqueNode</text>
<polyline fill="none" stroke="black" points="0,-543.5 130,-543.5 "/>
<text text-anchor="start" x="8" y="-531.5" font-family="Helvetica,sans-Serif" font-size="10.00">+ __init__()</text>
<text text-anchor="start" x="8" y="-520.5" font-family="Helvetica,sans-Serif" font-size="10.00">+ AddDevice()</text>
<text text-anchor="start" x="8" y="-509.5" font-family="Helvetica,sans-Serif" font-size="10.00">+ AssignM()</text>
<text text-anchor="start" x="8" y="-498.5" font-family="Helvetica,sans-Serif" font-size="10.00">+ DeviceNames()</text>
<text text-anchor="start" x="8" y="-487.5" font-family="Helvetica,sans-Serif" font-size="10.00">+ IndexOfDevice()</text>
<text text-anchor="start" x="8" y="-476.5" font-family="Helvetica,sans-Serif" font-size="10.00">+ CheckConnections()</text>
<text text-anchor="start" x="8" y="-465.5" font-family="Helvetica,sans-Serif" font-size="10.00">+ ConnectDevicePort()</text>
<text text-anchor="start" x="8" y="-454.5" font-family="Helvetica,sans-Serif" font-size="10.00">+ AddPort()</text>
<text text-anchor="start" x="8" y="-443.5" font-family="Helvetica,sans-Serif" font-size="10.00">+ AssignSParameters()</text>
<text text-anchor="start" x="8" y="-432.5" font-family="Helvetica,sans-Serif" font-size="10.00">+ Print()</text>
</a>
</g>
</g>
<!-- Node4&#45;&gt;Node3 -->
<g id="edge3" class="edge">
<title>Node4&#45;&gt;Node3</title>
<path fill="none" stroke="midnightblue" d="M65,-415.19C65,-406.17 65,-397.19 65,-388.61"/>
<polygon fill="none" stroke="midnightblue" points="61.5,-415.38 65,-425.38 68.5,-415.38 61.5,-415.38"/>
</g>
<!-- Node5 -->
<g id="node5" class="node">
<title>Node5</title>
<g id="a_node5"><a xlink:href="classSignalIntegrity_1_1Lib_1_1SystemDescriptions_1_1Numeric_1_1Numeric.xhtml" target="_top" xlink:title="handles numeric details of derived class solutions">
<polygon fill="white" stroke="black" points="141.5,-111 141.5,-223 278.5,-223 278.5,-111 141.5,-111"/>
<text text-anchor="middle" x="210" y="-211" font-family="Helvetica,sans-Serif" font-size="10.00">Numeric</text>
<polyline fill="none" stroke="black" points="141.5,-204 278.5,-204 "/>
<text text-anchor="start" x="149.5" y="-192" font-family="Helvetica,sans-Serif" font-size="10.00">+ alwaysUseSVD</text>
<text text-anchor="start" x="149.5" y="-181" font-family="Helvetica,sans-Serif" font-size="10.00">+ trySVD</text>
<text text-anchor="start" x="149.5" y="-170" font-family="Helvetica,sans-Serif" font-size="10.00">+ singularValueLimit</text>
<text text-anchor="start" x="149.5" y="-159" font-family="Helvetica,sans-Serif" font-size="10.00">+ conditionNumberLimit</text>
<polyline fill="none" stroke="black" points="141.5,-152 278.5,-152 "/>
<text text-anchor="start" x="149.5" y="-140" font-family="Helvetica,sans-Serif" font-size="10.00">+ InstallSafeTees()</text>
<text text-anchor="start" x="149.5" y="-129" font-family="Helvetica,sans-Serif" font-size="10.00">+ Dagger()</text>
<text text-anchor="start" x="149.5" y="-118" font-family="Helvetica,sans-Serif" font-size="10.00">+ PermutationMatrix()</text>
</a>
</g>
</g>
<!-- Node5&#45;&gt;Node1 -->
<g id="edge4" class="edge">
<title>Node5&#45;&gt;Node1</title>
<path fill="none" stroke="midnightblue" d="M174.13,-101.88C167.69,-90.36 161.22,-78.79 155.52,-68.61"/>
<polygon fill="none" stroke="midnightblue" points="171.1,-103.64 179.04,-110.66 177.21,-100.22 171.1,-103.64"/>
</g>
</g>
</svg>
