<?xml version="1.0" encoding="UTF-8" standalone="no"?>
<!DOCTYPE svg PUBLIC "-//W3C//DTD SVG 1.1//EN"
 "http://www.w3.org/Graphics/SVG/1.1/DTD/svg11.dtd">
<!-- Generated by graphviz version 2.43.0 (0)
 -->
<!-- Title: SParameterManipulation Pages: 1 -->
<svg width="3305pt" height="700pt"
 viewBox="0.00 0.00 3304.50 700.00" xmlns="http://www.w3.org/2000/svg" xmlns:xlink="http://www.w3.org/1999/xlink">
<g id="graph0" class="graph" transform="scale(1 1) rotate(0) translate(4 696)">
<title>SParameterManipulation</title>
<polygon fill="white" stroke="transparent" points="-4,4 -4,-696 3300.5,-696 3300.5,4 -4,4"/>
<!-- Node1 -->
<g id="node1" class="node">
<title>Node1</title>
<g id="a_node1"><a xlink:title="Class for manipulations on s&#45;parameters involving passivity, causality, etc.">
<polygon fill="#bfbfbf" stroke="black" points="1377,-524.5 1377,-691.5 1580,-691.5 1580,-524.5 1377,-524.5"/>
<text text-anchor="middle" x="1478.5" y="-679.5" font-family="Helvetica,sans-Serif" font-size="10.00">SParameterManipulation</text>
<polyline fill="none" stroke="black" points="1377,-672.5 1580,-672.5 "/>
<text text-anchor="middle" x="1478.5" y="-660.5" font-family="Helvetica,sans-Serif" font-size="10.00"> </text>
<polyline fill="none" stroke="black" points="1377,-653.5 1580,-653.5 "/>
<text text-anchor="start" x="1385" y="-641.5" font-family="Helvetica,sans-Serif" font-size="10.00">+ EnforcePassivity()</text>
<text text-anchor="start" x="1385" y="-630.5" font-family="Helvetica,sans-Serif" font-size="10.00">+ IsCausal()</text>
<text text-anchor="start" x="1385" y="-619.5" font-family="Helvetica,sans-Serif" font-size="10.00">+ EnforceCausality()</text>
<text text-anchor="start" x="1385" y="-608.5" font-family="Helvetica,sans-Serif" font-size="10.00">+ WaveletDenoise()</text>
<text text-anchor="start" x="1385" y="-597.5" font-family="Helvetica,sans-Serif" font-size="10.00">+ PortReorder()</text>
<text text-anchor="start" x="1385" y="-586.5" font-family="Helvetica,sans-Serif" font-size="10.00">+ DetermineImpulseResponse</text>
<text text-anchor="start" x="1385" y="-575.5" font-family="Helvetica,sans-Serif" font-size="10.00">Length()</text>
<text text-anchor="start" x="1385" y="-564.5" font-family="Helvetica,sans-Serif" font-size="10.00">+ LimitImpulseResponseLength()</text>
<text text-anchor="start" x="1385" y="-553.5" font-family="Helvetica,sans-Serif" font-size="10.00">+ EnforceReciprocity()</text>
<text text-anchor="start" x="1385" y="-542.5" font-family="Helvetica,sans-Serif" font-size="10.00">+ EnforceBothPassivityAndCausality()</text>
<text text-anchor="start" x="1385" y="-531.5" font-family="Helvetica,sans-Serif" font-size="10.00">+ EnforceAll()</text>
</a>
</g>
</g>
<!-- Node2 -->
<g id="node2" class="node">
<title>Node2</title>
<g id="a_node2"><a xlink:href="classSignalIntegrity_1_1Lib_1_1SParameters_1_1SParameters_1_1SParameters.xhtml" target="_top" xlink:title="Class containing s&#45;parameters.">
<polygon fill="white" stroke="black" points="1401,-254.5 1401,-487.5 1556,-487.5 1556,-254.5 1401,-254.5"/>
<text text-anchor="middle" x="1478.5" y="-475.5" font-family="Helvetica,sans-Serif" font-size="10.00">SParameters</text>
<polyline fill="none" stroke="black" points="1401,-468.5 1556,-468.5 "/>
<text text-anchor="start" x="1409" y="-456.5" font-family="Helvetica,sans-Serif" font-size="10.00">+ m_sToken</text>
<text text-anchor="start" x="1409" y="-445.5" font-family="Helvetica,sans-Serif" font-size="10.00">+ m_d</text>
<text text-anchor="start" x="1409" y="-434.5" font-family="Helvetica,sans-Serif" font-size="10.00">+ m_Z0</text>
<text text-anchor="start" x="1409" y="-423.5" font-family="Helvetica,sans-Serif" font-size="10.00">+ m_f</text>
<text text-anchor="start" x="1409" y="-412.5" font-family="Helvetica,sans-Serif" font-size="10.00">+ m_P</text>
<text text-anchor="start" x="1409" y="-401.5" font-family="Helvetica,sans-Serif" font-size="10.00">+ header</text>
<text text-anchor="start" x="1409" y="-390.5" font-family="Helvetica,sans-Serif" font-size="10.00">+ maxTokensOnLine</text>
<text text-anchor="start" x="1409" y="-379.5" font-family="Helvetica,sans-Serif" font-size="10.00">+ numDigits</text>
<polyline fill="none" stroke="black" points="1401,-372.5 1556,-372.5 "/>
<text text-anchor="start" x="1409" y="-360.5" font-family="Helvetica,sans-Serif" font-size="10.00">+ __init__()</text>
<text text-anchor="start" x="1409" y="-349.5" font-family="Helvetica,sans-Serif" font-size="10.00">+ __getitem__()</text>
<text text-anchor="start" x="1409" y="-338.5" font-family="Helvetica,sans-Serif" font-size="10.00">+ __len__()</text>
<text text-anchor="start" x="1409" y="-327.5" font-family="Helvetica,sans-Serif" font-size="10.00">+ f()</text>
<text text-anchor="start" x="1409" y="-316.5" font-family="Helvetica,sans-Serif" font-size="10.00">+ Response()</text>
<text text-anchor="start" x="1409" y="-305.5" font-family="Helvetica,sans-Serif" font-size="10.00">+ FrequencyResponse()</text>
<text text-anchor="start" x="1409" y="-294.5" font-family="Helvetica,sans-Serif" font-size="10.00">+ Text()</text>
<text text-anchor="start" x="1409" y="-283.5" font-family="Helvetica,sans-Serif" font-size="10.00">+ WriteToFile()</text>
<text text-anchor="start" x="1409" y="-272.5" font-family="Helvetica,sans-Serif" font-size="10.00">+ Resample()</text>
<text text-anchor="start" x="1409" y="-261.5" font-family="Helvetica,sans-Serif" font-size="10.00">+ SetReferenceImpedance()</text>
</a>
</g>
</g>
<!-- Node1&#45;&gt;Node2 -->
<g id="edge1" class="edge">
<title>Node1&#45;&gt;Node2</title>
<path fill="none" stroke="midnightblue" d="M1478.5,-514.32C1478.5,-505.59 1478.5,-496.66 1478.5,-487.74"/>
<polygon fill="none" stroke="midnightblue" points="1475,-514.48 1478.5,-524.48 1482,-514.48 1475,-514.48"/>
</g>
<!-- Node3 -->
<g id="node3" class="node">
<title>Node3</title>
<g id="a_node3"><a xlink:href="classSignalIntegrity_1_1Lib_1_1ImpedanceProfile_1_1PeeledLaunches_1_1PeeledLaunches.xhtml" target="_top" xlink:title="S&#45;parameters with launches peeled from them.">
<polygon fill="white" stroke="black" points="0,-127.5 0,-184.5 95,-184.5 95,-127.5 0,-127.5"/>
<text text-anchor="middle" x="47.5" y="-172.5" font-family="Helvetica,sans-Serif" font-size="10.00">PeeledLaunches</text>
<polyline fill="none" stroke="black" points="0,-165.5 95,-165.5 "/>
<text text-anchor="middle" x="47.5" y="-153.5" font-family="Helvetica,sans-Serif" font-size="10.00"> </text>
<polyline fill="none" stroke="black" points="0,-146.5 95,-146.5 "/>
<text text-anchor="start" x="8" y="-134.5" font-family="Helvetica,sans-Serif" font-size="10.00">+ __init__()</text>
</a>
</g>
</g>
<!-- Node2&#45;&gt;Node3 -->
<g id="edge2" class="edge">
<title>Node2&#45;&gt;Node3</title>
<path fill="none" stroke="midnightblue" d="M1390.53,-368.17C1124.34,-361.41 331.83,-331.97 104.5,-218 89.34,-210.4 76.13,-197 66.26,-184.7"/>
<polygon fill="none" stroke="midnightblue" points="1390.83,-371.68 1400.92,-368.43 1391.01,-364.68 1390.83,-371.68"/>
</g>
<!-- Node4 -->
<g id="node4" class="node">
<title>Node4</title>
<g id="a_node4"><a xlink:href="classSignalIntegrity_1_1Lib_1_1ImpedanceProfile_1_1PeeledPortSParameters_1_1PeeledPortSParameters.xhtml" target="_top" xlink:title="s&#45;parameters of peeled impedance profile from port calculates the impedance profile looking into a po...">
<polygon fill="white" stroke="black" points="113,-127.5 113,-184.5 244,-184.5 244,-127.5 113,-127.5"/>
<text text-anchor="middle" x="178.5" y="-172.5" font-family="Helvetica,sans-Serif" font-size="10.00">PeeledPortSParameters</text>
<polyline fill="none" stroke="black" points="113,-165.5 244,-165.5 "/>
<text text-anchor="middle" x="178.5" y="-153.5" font-family="Helvetica,sans-Serif" font-size="10.00"> </text>
<polyline fill="none" stroke="black" points="113,-146.5 244,-146.5 "/>
<text text-anchor="start" x="121" y="-134.5" font-family="Helvetica,sans-Serif" font-size="10.00">+ __init__()</text>
</a>
</g>
</g>
<!-- Node2&#45;&gt;Node4 -->
<g id="edge3" class="edge">
<title>Node2&#45;&gt;Node4</title>
<path fill="none" stroke="midnightblue" d="M1390.61,-365.39C1145.61,-351.57 459.49,-305.85 253.5,-218 235.44,-210.3 218.22,-196.89 204.85,-184.61"/>
<polygon fill="none" stroke="midnightblue" points="1390.71,-368.91 1400.89,-365.97 1391.11,-361.92 1390.71,-368.91"/>
</g>
<!-- Node5 -->
<g id="node5" class="node">
<title>Node5</title>
<g id="a_node5"><a xlink:href="classSignalIntegrity_1_1Lib_1_1Measurement_1_1Calibration_1_1NetworkAnalyzer_1_1NetworkAnalyzer.xhtml" target="_top" xlink:title="produces calibrated or uncalibrated s&#45;parameters from a network analyzer.">
<polygon fill="white" stroke="black" points="262,-127.5 262,-184.5 363,-184.5 363,-127.5 262,-127.5"/>
<text text-anchor="middle" x="312.5" y="-172.5" font-family="Helvetica,sans-Serif" font-size="10.00">NetworkAnalyzer</text>
<polyline fill="none" stroke="black" points="262,-165.5 363,-165.5 "/>
<text text-anchor="middle" x="312.5" y="-153.5" font-family="Helvetica,sans-Serif" font-size="10.00"> </text>
<polyline fill="none" stroke="black" points="262,-146.5 363,-146.5 "/>
<text text-anchor="start" x="270" y="-134.5" font-family="Helvetica,sans-Serif" font-size="10.00">+ __init__()</text>
</a>
</g>
</g>
<!-- Node2&#45;&gt;Node5 -->
<g id="edge4" class="edge">
<title>Node2&#45;&gt;Node5</title>
<path fill="none" stroke="midnightblue" d="M1390.34,-365.21C1161.02,-351.59 551.32,-307.74 372.5,-218 356.97,-210.2 343.1,-196.79 332.62,-184.53"/>
<polygon fill="none" stroke="midnightblue" points="1390.45,-368.72 1400.64,-365.81 1390.86,-361.73 1390.45,-368.72"/>
</g>
<!-- Node6 -->
<g id="node6" class="node">
<title>Node6</title>
<g id="a_node6"><a xlink:href="classSignalIntegrity_1_1Lib_1_1Measurement_1_1CalKit_1_1Standards_1_1LoadStandard_1_1LoadStandard.xhtml" target="_top" xlink:title="Class providing the s&#45;parameters of a load standard as commonly defined for a calibration kit.">
<polygon fill="white" stroke="black" points="381,-127.5 381,-184.5 464,-184.5 464,-127.5 381,-127.5"/>
<text text-anchor="middle" x="422.5" y="-172.5" font-family="Helvetica,sans-Serif" font-size="10.00">LoadStandard</text>
<polyline fill="none" stroke="black" points="381,-165.5 464,-165.5 "/>
<text text-anchor="middle" x="422.5" y="-153.5" font-family="Helvetica,sans-Serif" font-size="10.00"> </text>
<polyline fill="none" stroke="black" points="381,-146.5 464,-146.5 "/>
<text text-anchor="start" x="389" y="-134.5" font-family="Helvetica,sans-Serif" font-size="10.00">+ __init__()</text>
</a>
</g>
</g>
<!-- Node2&#45;&gt;Node6 -->
<g id="edge5" class="edge">
<title>Node2&#45;&gt;Node6</title>
<path fill="none" stroke="midnightblue" d="M1390.47,-364.66C1175.6,-350.38 630.41,-306.24 473.5,-218 459.54,-210.15 447.76,-196.89 439.05,-184.73"/>
<polygon fill="none" stroke="midnightblue" points="1390.55,-368.17 1400.76,-365.34 1391.01,-361.19 1390.55,-368.17"/>
</g>
<!-- Node7 -->
<g id="node7" class="node">
<title>Node7</title>
<g id="a_node7"><a xlink:href="classSignalIntegrity_1_1Lib_1_1Measurement_1_1CalKit_1_1Standards_1_1Offset_1_1Offset.xhtml" target="_top" xlink:title="class providing the s&#45;parameters of an offset portion of the various calibration standards for a cali...">
<polygon fill="white" stroke="black" points="482.5,-127.5 482.5,-184.5 554.5,-184.5 554.5,-127.5 482.5,-127.5"/>
<text text-anchor="middle" x="518.5" y="-172.5" font-family="Helvetica,sans-Serif" font-size="10.00">Offset</text>
<polyline fill="none" stroke="black" points="482.5,-165.5 554.5,-165.5 "/>
<text text-anchor="start" x="490.5" y="-153.5" font-family="Helvetica,sans-Serif" font-size="10.00">+ calcZc</text>
<polyline fill="none" stroke="black" points="482.5,-146.5 554.5,-146.5 "/>
<text text-anchor="start" x="490.5" y="-134.5" font-family="Helvetica,sans-Serif" font-size="10.00">+ __init__()</text>
</a>
</g>
</g>
<!-- Node2&#45;&gt;Node7 -->
<g id="edge6" class="edge">
<title>Node2&#45;&gt;Node7</title>
<path fill="none" stroke="midnightblue" d="M1390.54,-363.79C1189.26,-348.27 701.82,-302.79 563.5,-218 550.48,-210.02 540.03,-196.75 532.48,-184.62"/>
<polygon fill="none" stroke="midnightblue" points="1390.54,-367.3 1400.78,-364.58 1391.08,-360.32 1390.54,-367.3"/>
</g>
<!-- Node9 -->
<g id="node9" class="node">
<title>Node9</title>
<g id="a_node9"><a xlink:href="classSignalIntegrity_1_1Lib_1_1Measurement_1_1CalKit_1_1Standards_1_1OpenStandard_1_1OpenStandard.xhtml" target="_top" xlink:title="class providing the s&#45;parameters of an open standard as commonly defined for a calibration kit.">
<polygon fill="white" stroke="black" points="572.5,-127.5 572.5,-184.5 658.5,-184.5 658.5,-127.5 572.5,-127.5"/>
<text text-anchor="middle" x="615.5" y="-172.5" font-family="Helvetica,sans-Serif" font-size="10.00">OpenStandard</text>
<polyline fill="none" stroke="black" points="572.5,-165.5 658.5,-165.5 "/>
<text text-anchor="middle" x="615.5" y="-153.5" font-family="Helvetica,sans-Serif" font-size="10.00"> </text>
<polyline fill="none" stroke="black" points="572.5,-146.5 658.5,-146.5 "/>
<text text-anchor="start" x="580.5" y="-134.5" font-family="Helvetica,sans-Serif" font-size="10.00">+ __init__()</text>
</a>
</g>
</g>
<!-- Node2&#45;&gt;Node9 -->
<g id="edge8" class="edge">
<title>Node2&#45;&gt;Node9</title>
<path fill="none" stroke="midnightblue" d="M1390.71,-361C1207.24,-341.01 790.06,-289 667.5,-218 653.53,-209.91 641.55,-196.62 632.61,-184.52"/>
<polygon fill="none" stroke="midnightblue" points="1390.54,-364.51 1400.86,-362.1 1391.3,-357.55 1390.54,-364.51"/>
</g>
<!-- Node10 -->
<g id="node10" class="node">
<title>Node10</title>
<g id="a_node10"><a xlink:href="classSignalIntegrity_1_1Lib_1_1Measurement_1_1CalKit_1_1Standards_1_1ShortStandard_1_1ShortStandard.xhtml" target="_top" xlink:title="Class providing the s&#45;parameters of a short standard as commonly defined for a calibration kit.">
<polygon fill="white" stroke="black" points="676.5,-127.5 676.5,-184.5 762.5,-184.5 762.5,-127.5 676.5,-127.5"/>
<text text-anchor="middle" x="719.5" y="-172.5" font-family="Helvetica,sans-Serif" font-size="10.00">ShortStandard</text>
<polyline fill="none" stroke="black" points="676.5,-165.5 762.5,-165.5 "/>
<text text-anchor="middle" x="719.5" y="-153.5" font-family="Helvetica,sans-Serif" font-size="10.00"> </text>
<polyline fill="none" stroke="black" points="676.5,-146.5 762.5,-146.5 "/>
<text text-anchor="start" x="684.5" y="-134.5" font-family="Helvetica,sans-Serif" font-size="10.00">+ __init__()</text>
</a>
</g>
</g>
<!-- Node2&#45;&gt;Node10 -->
<g id="edge9" class="edge">
<title>Node2&#45;&gt;Node10</title>
<path fill="none" stroke="midnightblue" d="M1390.69,-368.86C1250.21,-363.33 970.52,-336.84 771.5,-218 757.76,-209.8 745.87,-196.65 736.94,-184.66"/>
<polygon fill="none" stroke="midnightblue" points="1390.85,-372.36 1400.97,-369.23 1391.11,-365.37 1390.85,-372.36"/>
</g>
<!-- Node11 -->
<g id="node11" class="node">
<title>Node11</title>
<g id="a_node11"><a xlink:href="classSignalIntegrity_1_1Lib_1_1Measurement_1_1CalKit_1_1Standards_1_1TerminationPolynomial_1_1TerminationCPolynomial.xhtml" target="_top" xlink:title="Class for capacitive terminations for open calibration standards.">
<polygon fill="white" stroke="black" points="780.5,-116.5 780.5,-195.5 916.5,-195.5 916.5,-116.5 780.5,-116.5"/>
<text text-anchor="middle" x="848.5" y="-183.5" font-family="Helvetica,sans-Serif" font-size="10.00">TerminationCPolynomial</text>
<polyline fill="none" stroke="black" points="780.5,-176.5 916.5,-176.5 "/>
<text text-anchor="middle" x="848.5" y="-164.5" font-family="Helvetica,sans-Serif" font-size="10.00"> </text>
<polyline fill="none" stroke="black" points="780.5,-157.5 916.5,-157.5 "/>
<text text-anchor="start" x="788.5" y="-145.5" font-family="Helvetica,sans-Serif" font-size="10.00">+ __init__()</text>
<text text-anchor="start" x="788.5" y="-134.5" font-family="Helvetica,sans-Serif" font-size="10.00">+ PolynomialC()</text>
<text text-anchor="start" x="788.5" y="-123.5" font-family="Helvetica,sans-Serif" font-size="10.00">+ __getitem__()</text>
</a>
</g>
</g>
<!-- Node2&#45;&gt;Node11 -->
<g id="edge10" class="edge">
<title>Node2&#45;&gt;Node11</title>
<path fill="none" stroke="midnightblue" d="M1390.78,-357.07C1278.29,-338.04 1079.38,-295.99 925.5,-218 913.63,-211.99 901.85,-203.97 891.2,-195.74"/>
<polygon fill="none" stroke="midnightblue" points="1390.29,-360.54 1400.73,-358.73 1391.44,-353.64 1390.29,-360.54"/>
</g>
<!-- Node12 -->
<g id="node12" class="node">
<title>Node12</title>
<g id="a_node12"><a xlink:href="classSignalIntegrity_1_1Lib_1_1Measurement_1_1CalKit_1_1Standards_1_1TerminationPolynomial_1_1TerminationLPolynomial.xhtml" target="_top" xlink:title="Class for inductive terminations for short calibration standards.">
<polygon fill="white" stroke="black" points="934.5,-116.5 934.5,-195.5 1068.5,-195.5 1068.5,-116.5 934.5,-116.5"/>
<text text-anchor="middle" x="1001.5" y="-183.5" font-family="Helvetica,sans-Serif" font-size="10.00">TerminationLPolynomial</text>
<polyline fill="none" stroke="black" points="934.5,-176.5 1068.5,-176.5 "/>
<text text-anchor="middle" x="1001.5" y="-164.5" font-family="Helvetica,sans-Serif" font-size="10.00"> </text>
<polyline fill="none" stroke="black" points="934.5,-157.5 1068.5,-157.5 "/>
<text text-anchor="start" x="942.5" y="-145.5" font-family="Helvetica,sans-Serif" font-size="10.00">+ __init__()</text>
<text text-anchor="start" x="942.5" y="-134.5" font-family="Helvetica,sans-Serif" font-size="10.00">+ PolynomialL()</text>
<text text-anchor="start" x="942.5" y="-123.5" font-family="Helvetica,sans-Serif" font-size="10.00">+ __getitem__()</text>
</a>
</g>
</g>
<!-- Node2&#45;&gt;Node12 -->
<g id="edge11" class="edge">
<title>Node2&#45;&gt;Node12</title>
<path fill="none" stroke="midnightblue" d="M1390.94,-345.55C1307.25,-320.19 1179.15,-276.11 1077.5,-218 1066.34,-211.62 1055.1,-203.65 1044.83,-195.6"/>
<polygon fill="none" stroke="midnightblue" points="1390.08,-348.94 1400.66,-348.47 1392.09,-342.24 1390.08,-348.94"/>
</g>
<!-- Node13 -->
<g id="node13" class="node">
<title>Node13</title>
<g id="a_node13"><a xlink:href="classSignalIntegrity_1_1Lib_1_1SParameters_1_1Devices_1_1MixedModeTline_1_1MixedModeTLine.xhtml" target="_top" xlink:title="s&#45;parameters of a mixed&#45;mode, balanced transmission line">
<polygon fill="white" stroke="black" points="1086.5,-116.5 1086.5,-195.5 1186.5,-195.5 1186.5,-116.5 1086.5,-116.5"/>
<text text-anchor="middle" x="1136.5" y="-183.5" font-family="Helvetica,sans-Serif" font-size="10.00">MixedModeTLine</text>
<polyline fill="none" stroke="black" points="1086.5,-176.5 1186.5,-176.5 "/>
<text text-anchor="start" x="1094.5" y="-164.5" font-family="Helvetica,sans-Serif" font-size="10.00">+ m_sspn</text>
<text text-anchor="start" x="1094.5" y="-153.5" font-family="Helvetica,sans-Serif" font-size="10.00">+ m_spdl</text>
<polyline fill="none" stroke="black" points="1086.5,-146.5 1186.5,-146.5 "/>
<text text-anchor="start" x="1094.5" y="-134.5" font-family="Helvetica,sans-Serif" font-size="10.00">+ __init__()</text>
<text text-anchor="start" x="1094.5" y="-123.5" font-family="Helvetica,sans-Serif" font-size="10.00">+ __getitem__()</text>
</a>
</g>
</g>
<!-- Node2&#45;&gt;Node13 -->
<g id="edge12" class="edge">
<title>Node2&#45;&gt;Node13</title>
<path fill="none" stroke="midnightblue" d="M1391.75,-331.61C1333.83,-304.02 1257.4,-263.72 1196.5,-218 1187.71,-211.4 1178.99,-203.52 1171.03,-195.65"/>
<polygon fill="none" stroke="midnightblue" points="1390.35,-334.82 1400.88,-335.93 1393.34,-328.49 1390.35,-334.82"/>
</g>
<!-- Node14 -->
<g id="node14" class="node">
<title>Node14</title>
<g id="a_node14"><a xlink:href="classSignalIntegrity_1_1Lib_1_1SParameters_1_1Devices_1_1Mutual_1_1Mutual.xhtml" target="_top" xlink:title="s&#45;parameters of a mutual inductance">
<polygon fill="white" stroke="black" points="1205,-122 1205,-190 1300,-190 1300,-122 1205,-122"/>
<text text-anchor="middle" x="1252.5" y="-178" font-family="Helvetica,sans-Serif" font-size="10.00">Mutual</text>
<polyline fill="none" stroke="black" points="1205,-171 1300,-171 "/>
<text text-anchor="start" x="1213" y="-159" font-family="Helvetica,sans-Serif" font-size="10.00">+ m_M</text>
<polyline fill="none" stroke="black" points="1205,-152 1300,-152 "/>
<text text-anchor="start" x="1213" y="-140" font-family="Helvetica,sans-Serif" font-size="10.00">+ __init__()</text>
<text text-anchor="start" x="1213" y="-129" font-family="Helvetica,sans-Serif" font-size="10.00">+ __getitem__()</text>
</a>
</g>
</g>
<!-- Node2&#45;&gt;Node14 -->
<g id="edge13" class="edge">
<title>Node2&#45;&gt;Node14</title>
<path fill="none" stroke="midnightblue" d="M1393.06,-295.76C1365.89,-271.46 1336.02,-244.02 1309.5,-218 1300.5,-209.17 1291.03,-199.29 1282.46,-190.11"/>
<polygon fill="none" stroke="midnightblue" points="1390.86,-298.48 1400.65,-302.52 1395.51,-293.25 1390.86,-298.48"/>
</g>
<!-- Node15 -->
<g id="node15" class="node">
<title>Node15</title>
<g id="a_node15"><a xlink:href="classSignalIntegrity_1_1Lib_1_1SParameters_1_1Devices_1_1SeriesC_1_1SeriesC.xhtml" target="_top" xlink:title="s&#45;parameters of a series capacitance">
<polygon fill="white" stroke="black" points="1318,-111 1318,-201 1413,-201 1413,-111 1318,-111"/>
<text text-anchor="middle" x="1365.5" y="-189" font-family="Helvetica,sans-Serif" font-size="10.00">SeriesC</text>
<polyline fill="none" stroke="black" points="1318,-182 1413,-182 "/>
<text text-anchor="start" x="1326" y="-170" font-family="Helvetica,sans-Serif" font-size="10.00">+ m_C</text>
<text text-anchor="start" x="1326" y="-159" font-family="Helvetica,sans-Serif" font-size="10.00">+ m_df</text>
<text text-anchor="start" x="1326" y="-148" font-family="Helvetica,sans-Serif" font-size="10.00">+ m_esr</text>
<polyline fill="none" stroke="black" points="1318,-141 1413,-141 "/>
<text text-anchor="start" x="1326" y="-129" font-family="Helvetica,sans-Serif" font-size="10.00">+ __init__()</text>
<text text-anchor="start" x="1326" y="-118" font-family="Helvetica,sans-Serif" font-size="10.00">+ __getitem__()</text>
</a>
</g>
</g>
<!-- Node2&#45;&gt;Node15 -->
<g id="edge14" class="edge">
<title>Node2&#45;&gt;Node15</title>
<path fill="none" stroke="midnightblue" d="M1412.51,-245.61C1404.09,-229.75 1395.97,-214.44 1388.91,-201.13"/>
<polygon fill="none" stroke="midnightblue" points="1409.43,-247.27 1417.2,-254.46 1415.61,-243.99 1409.43,-247.27"/>
</g>
<!-- Node16 -->
<g id="node16" class="node">
<title>Node16</title>
<g id="a_node16"><a xlink:href="classSignalIntegrity_1_1Lib_1_1SParameters_1_1Devices_1_1SeriesL_1_1SeriesL.xhtml" target="_top" xlink:title="s&#45;parameters of a series inductance">
<polygon fill="white" stroke="black" points="1431,-122 1431,-190 1526,-190 1526,-122 1431,-122"/>
<text text-anchor="middle" x="1478.5" y="-178" font-family="Helvetica,sans-Serif" font-size="10.00">SeriesL</text>
<polyline fill="none" stroke="black" points="1431,-171 1526,-171 "/>
<text text-anchor="start" x="1439" y="-159" font-family="Helvetica,sans-Serif" font-size="10.00">+ m_L</text>
<polyline fill="none" stroke="black" points="1431,-152 1526,-152 "/>
<text text-anchor="start" x="1439" y="-140" font-family="Helvetica,sans-Serif" font-size="10.00">+ __init__()</text>
<text text-anchor="start" x="1439" y="-129" font-family="Helvetica,sans-Serif" font-size="10.00">+ __getitem__()</text>
</a>
</g>
</g>
<!-- Node2&#45;&gt;Node16 -->
<g id="edge15" class="edge">
<title>Node2&#45;&gt;Node16</title>
<path fill="none" stroke="midnightblue" d="M1478.5,-244.34C1478.5,-224.48 1478.5,-205.55 1478.5,-190.42"/>
<polygon fill="none" stroke="midnightblue" points="1475,-244.46 1478.5,-254.46 1482,-244.46 1475,-244.46"/>
</g>
<!-- Node17 -->
<g id="node17" class="node">
<title>Node17</title>
<g id="a_node17"><a xlink:href="classSignalIntegrity_1_1Lib_1_1SParameters_1_1Devices_1_1SeriesRse_1_1SeriesRse.xhtml" target="_top" xlink:title="s&#45;parameters of series skin&#45;effect Resistance">
<polygon fill="white" stroke="black" points="1544,-122 1544,-190 1639,-190 1639,-122 1544,-122"/>
<text text-anchor="middle" x="1591.5" y="-178" font-family="Helvetica,sans-Serif" font-size="10.00">SeriesRse</text>
<polyline fill="none" stroke="black" points="1544,-171 1639,-171 "/>
<text text-anchor="start" x="1552" y="-159" font-family="Helvetica,sans-Serif" font-size="10.00">+ m_Rse</text>
<polyline fill="none" stroke="black" points="1544,-152 1639,-152 "/>
<text text-anchor="start" x="1552" y="-140" font-family="Helvetica,sans-Serif" font-size="10.00">+ __init__()</text>
<text text-anchor="start" x="1552" y="-129" font-family="Helvetica,sans-Serif" font-size="10.00">+ __getitem__()</text>
</a>
</g>
</g>
<!-- Node2&#45;&gt;Node17 -->
<g id="edge16" class="edge">
<title>Node2&#45;&gt;Node17</title>
<path fill="none" stroke="midnightblue" d="M1544.59,-245.42C1555.33,-225.18 1565.6,-205.83 1573.77,-190.42"/>
<polygon fill="none" stroke="midnightblue" points="1541.39,-243.99 1539.8,-254.46 1547.57,-247.27 1541.39,-243.99"/>
</g>
<!-- Node18 -->
<g id="node18" class="node">
<title>Node18</title>
<g id="a_node18"><a xlink:href="classSignalIntegrity_1_1Lib_1_1SParameters_1_1Devices_1_1TerminationC_1_1TerminationC.xhtml" target="_top" xlink:title="s&#45;parameters of a termination (one&#45;port) capacitance">
<polygon fill="white" stroke="black" points="1657,-111 1657,-201 1752,-201 1752,-111 1657,-111"/>
<text text-anchor="middle" x="1704.5" y="-189" font-family="Helvetica,sans-Serif" font-size="10.00">TerminationC</text>
<polyline fill="none" stroke="black" points="1657,-182 1752,-182 "/>
<text text-anchor="start" x="1665" y="-170" font-family="Helvetica,sans-Serif" font-size="10.00">+ m_C</text>
<text text-anchor="start" x="1665" y="-159" font-family="Helvetica,sans-Serif" font-size="10.00">+ m_df</text>
<text text-anchor="start" x="1665" y="-148" font-family="Helvetica,sans-Serif" font-size="10.00">+ m_esr</text>
<polyline fill="none" stroke="black" points="1657,-141 1752,-141 "/>
<text text-anchor="start" x="1665" y="-129" font-family="Helvetica,sans-Serif" font-size="10.00">+ __init__()</text>
<text text-anchor="start" x="1665" y="-118" font-family="Helvetica,sans-Serif" font-size="10.00">+ __getitem__()</text>
</a>
</g>
</g>
<!-- Node2&#45;&gt;Node18 -->
<g id="edge17" class="edge">
<title>Node2&#45;&gt;Node18</title>
<path fill="none" stroke="midnightblue" d="M1563.82,-296.66C1591.38,-272.2 1621.71,-244.44 1648.5,-218 1653.92,-212.65 1659.5,-206.9 1664.94,-201.14"/>
<polygon fill="none" stroke="midnightblue" points="1561.3,-294.22 1556.13,-303.46 1565.94,-299.46 1561.3,-294.22"/>
</g>
<!-- Node19 -->
<g id="node19" class="node">
<title>Node19</title>
<g id="a_node19"><a xlink:href="classSignalIntegrity_1_1Lib_1_1SParameters_1_1Devices_1_1TerminationL_1_1TerminationL.xhtml" target="_top" xlink:title="s&#45;parameters of a termination (one&#45;port) inductance">
<polygon fill="white" stroke="black" points="1770,-122 1770,-190 1865,-190 1865,-122 1770,-122"/>
<text text-anchor="middle" x="1817.5" y="-178" font-family="Helvetica,sans-Serif" font-size="10.00">TerminationL</text>
<polyline fill="none" stroke="black" points="1770,-171 1865,-171 "/>
<text text-anchor="start" x="1778" y="-159" font-family="Helvetica,sans-Serif" font-size="10.00">+ m_L</text>
<polyline fill="none" stroke="black" points="1770,-152 1865,-152 "/>
<text text-anchor="start" x="1778" y="-140" font-family="Helvetica,sans-Serif" font-size="10.00">+ __init__()</text>
<text text-anchor="start" x="1778" y="-129" font-family="Helvetica,sans-Serif" font-size="10.00">+ __getitem__()</text>
</a>
</g>
</g>
<!-- Node2&#45;&gt;Node19 -->
<g id="edge18" class="edge">
<title>Node2&#45;&gt;Node19</title>
<path fill="none" stroke="midnightblue" d="M1565.48,-332.63C1623.91,-305.35 1700.99,-265.01 1761.5,-218 1771.94,-209.89 1782.11,-199.73 1790.86,-190.04"/>
<polygon fill="none" stroke="midnightblue" points="1563.87,-329.51 1556.27,-336.89 1566.81,-335.87 1563.87,-329.51"/>
</g>
<!-- Node20 -->
<g id="node20" class="node">
<title>Node20</title>
<g id="a_node20"><a xlink:href="classSignalIntegrity_1_1Lib_1_1SParameters_1_1Devices_1_1TLineDifferentialRLGC_1_1TLineDifferentialRLGC.xhtml" target="_top" xlink:title="s&#45;parameters of differential RLGC (telegrapher&#39;s) transmission line">
<polygon fill="white" stroke="black" points="1883,-116.5 1883,-195.5 2008,-195.5 2008,-116.5 1883,-116.5"/>
<text text-anchor="middle" x="1945.5" y="-183.5" font-family="Helvetica,sans-Serif" font-size="10.00">TLineDifferentialRLGC</text>
<polyline fill="none" stroke="black" points="1883,-176.5 2008,-176.5 "/>
<text text-anchor="start" x="1891" y="-164.5" font-family="Helvetica,sans-Serif" font-size="10.00">+ sp</text>
<text text-anchor="start" x="1891" y="-153.5" font-family="Helvetica,sans-Serif" font-size="10.00">+ rtFraction</text>
<polyline fill="none" stroke="black" points="1883,-146.5 2008,-146.5 "/>
<text text-anchor="start" x="1891" y="-134.5" font-family="Helvetica,sans-Serif" font-size="10.00">+ __init__()</text>
<text text-anchor="start" x="1891" y="-123.5" font-family="Helvetica,sans-Serif" font-size="10.00">+ __getitem__()</text>
</a>
</g>
</g>
<!-- Node2&#45;&gt;Node20 -->
<g id="edge19" class="edge">
<title>Node2&#45;&gt;Node20</title>
<path fill="none" stroke="midnightblue" d="M1565.77,-345.99C1648.72,-321.02 1775.2,-277.27 1874.5,-218 1885.11,-211.67 1895.67,-203.72 1905.29,-195.67"/>
<polygon fill="none" stroke="midnightblue" points="1564.71,-342.65 1556.13,-348.87 1566.71,-349.36 1564.71,-342.65"/>
</g>
<!-- Node21 -->
<g id="node21" class="node">
<title>Node21</title>
<g id="a_node21"><a xlink:href="classSignalIntegrity_1_1Lib_1_1SParameters_1_1Devices_1_1TLineDifferentialRLGCApproximate_1_1TLineDifferentialRLGCApproximate.xhtml" target="_top" xlink:title="s&#45;parameters of differential RLGC (telegrapher&#39;s) transmission line calculated by approximating distr...">
<polygon fill="white" stroke="black" points="2026.5,-105.5 2026.5,-206.5 2214.5,-206.5 2214.5,-105.5 2026.5,-105.5"/>
<text text-anchor="middle" x="2120.5" y="-194.5" font-family="Helvetica,sans-Serif" font-size="10.00">TLineDifferentialRLGCApproximate</text>
<polyline fill="none" stroke="black" points="2026.5,-187.5 2214.5,-187.5 "/>
<text text-anchor="start" x="2034.5" y="-175.5" font-family="Helvetica,sans-Serif" font-size="10.00">+ m_K</text>
<text text-anchor="start" x="2034.5" y="-164.5" font-family="Helvetica,sans-Serif" font-size="10.00">+ m_sspn</text>
<text text-anchor="start" x="2034.5" y="-153.5" font-family="Helvetica,sans-Serif" font-size="10.00">+ m_spdl</text>
<text text-anchor="start" x="2034.5" y="-142.5" font-family="Helvetica,sans-Serif" font-size="10.00">+ rtFraction</text>
<polyline fill="none" stroke="black" points="2026.5,-135.5 2214.5,-135.5 "/>
<text text-anchor="start" x="2034.5" y="-123.5" font-family="Helvetica,sans-Serif" font-size="10.00">+ __init__()</text>
<text text-anchor="start" x="2034.5" y="-112.5" font-family="Helvetica,sans-Serif" font-size="10.00">+ __getitem__()</text>
</a>
</g>
</g>
<!-- Node2&#45;&gt;Node21 -->
<g id="edge20" class="edge">
<title>Node2&#45;&gt;Node21</title>
<path fill="none" stroke="midnightblue" d="M1566,-352.67C1674.64,-329.51 1864.32,-283.63 2017.5,-218 2025.43,-214.6 2033.49,-210.71 2041.44,-206.56"/>
<polygon fill="none" stroke="midnightblue" points="1565.13,-349.28 1556.07,-354.78 1566.58,-356.13 1565.13,-349.28"/>
</g>
<!-- Node22 -->
<g id="node22" class="node">
<title>Node22</title>
<g id="a_node22"><a xlink:href="classSignalIntegrity_1_1Lib_1_1SParameters_1_1Devices_1_1TLineDifferentialRLGCBalanced_1_1TLineDifferentialRLGCBalanced.xhtml" target="_top" xlink:title="s&#45;parameters of analytic balanced differential RLGC (telegrapher&#39;s) transmission line.">
<polygon fill="white" stroke="black" points="2232.5,-116.5 2232.5,-195.5 2402.5,-195.5 2402.5,-116.5 2232.5,-116.5"/>
<text text-anchor="middle" x="2317.5" y="-183.5" font-family="Helvetica,sans-Serif" font-size="10.00">TLineDifferentialRLGCBalanced</text>
<polyline fill="none" stroke="black" points="2232.5,-176.5 2402.5,-176.5 "/>
<text text-anchor="start" x="2240.5" y="-164.5" font-family="Helvetica,sans-Serif" font-size="10.00">+ m_sspn</text>
<text text-anchor="start" x="2240.5" y="-153.5" font-family="Helvetica,sans-Serif" font-size="10.00">+ m_spdl</text>
<polyline fill="none" stroke="black" points="2232.5,-146.5 2402.5,-146.5 "/>
<text text-anchor="start" x="2240.5" y="-134.5" font-family="Helvetica,sans-Serif" font-size="10.00">+ __init__()</text>
<text text-anchor="start" x="2240.5" y="-123.5" font-family="Helvetica,sans-Serif" font-size="10.00">+ __getitem__()</text>
</a>
</g>
</g>
<!-- Node2&#45;&gt;Node22 -->
<g id="edge21" class="edge">
<title>Node2&#45;&gt;Node22</title>
<path fill="none" stroke="midnightblue" d="M1566.06,-362.79C1708.51,-348.76 1997.26,-310.58 2223.5,-218 2237.72,-212.18 2252.12,-204.14 2265.23,-195.81"/>
<polygon fill="none" stroke="midnightblue" points="1565.67,-359.32 1556.06,-363.76 1566.35,-366.28 1565.67,-359.32"/>
</g>
<!-- Node23 -->
<g id="node23" class="node">
<title>Node23</title>
<g id="a_node23"><a xlink:href="classSignalIntegrity_1_1Lib_1_1SParameters_1_1Devices_1_1TLineDifferentialRLGCUncoupled_1_1TLineDifferentialRLGCUncoupled.xhtml" target="_top" xlink:title="s&#45;parameters of analytic uncoupled differential RLGC (telegrapher&#39;s) transmission line.">
<polygon fill="white" stroke="black" points="2420.5,-116.5 2420.5,-195.5 2596.5,-195.5 2596.5,-116.5 2420.5,-116.5"/>
<text text-anchor="middle" x="2508.5" y="-183.5" font-family="Helvetica,sans-Serif" font-size="10.00">TLineDifferentialRLGCUncoupled</text>
<polyline fill="none" stroke="black" points="2420.5,-176.5 2596.5,-176.5 "/>
<text text-anchor="start" x="2428.5" y="-164.5" font-family="Helvetica,sans-Serif" font-size="10.00">+ m_sspn</text>
<text text-anchor="start" x="2428.5" y="-153.5" font-family="Helvetica,sans-Serif" font-size="10.00">+ m_spdl</text>
<polyline fill="none" stroke="black" points="2420.5,-146.5 2596.5,-146.5 "/>
<text text-anchor="start" x="2428.5" y="-134.5" font-family="Helvetica,sans-Serif" font-size="10.00">+ __init__()</text>
<text text-anchor="start" x="2428.5" y="-123.5" font-family="Helvetica,sans-Serif" font-size="10.00">+ __getitem__()</text>
</a>
</g>
</g>
<!-- Node2&#45;&gt;Node23 -->
<g id="edge22" class="edge">
<title>Node2&#45;&gt;Node23</title>
<path fill="none" stroke="midnightblue" d="M1566.23,-367.27C1735.16,-359.54 2115.14,-330.04 2411.5,-218 2426.57,-212.3 2441.82,-204.1 2455.62,-195.56"/>
<polygon fill="none" stroke="midnightblue" points="1565.97,-363.78 1556.14,-367.72 1566.28,-370.77 1565.97,-363.78"/>
</g>
<!-- Node24 -->
<g id="node24" class="node">
<title>Node24</title>
<g id="a_node24"><a xlink:href="classSignalIntegrity_1_1Lib_1_1SParameters_1_1Devices_1_1TLineLossless_1_1TLineLossless.xhtml" target="_top" xlink:title="s&#45;parameters of ideal lossless single&#45;ended transmission line">
<polygon fill="white" stroke="black" points="2615,-111 2615,-201 2710,-201 2710,-111 2615,-111"/>
<text text-anchor="middle" x="2662.5" y="-189" font-family="Helvetica,sans-Serif" font-size="10.00">TLineLossless</text>
<polyline fill="none" stroke="black" points="2615,-182 2710,-182 "/>
<text text-anchor="start" x="2623" y="-170" font-family="Helvetica,sans-Serif" font-size="10.00">+ m_Zc</text>
<text text-anchor="start" x="2623" y="-159" font-family="Helvetica,sans-Serif" font-size="10.00">+ m_Td</text>
<text text-anchor="start" x="2623" y="-148" font-family="Helvetica,sans-Serif" font-size="10.00">+ m_P</text>
<polyline fill="none" stroke="black" points="2615,-141 2710,-141 "/>
<text text-anchor="start" x="2623" y="-129" font-family="Helvetica,sans-Serif" font-size="10.00">+ __init__()</text>
<text text-anchor="start" x="2623" y="-118" font-family="Helvetica,sans-Serif" font-size="10.00">+ __getitem__()</text>
</a>
</g>
</g>
<!-- Node2&#45;&gt;Node24 -->
<g id="edge23" class="edge">
<title>Node2&#45;&gt;Node24</title>
<path fill="none" stroke="midnightblue" d="M1566.45,-365.74C1798.85,-353.29 2423.9,-311.78 2605.5,-218 2613.74,-213.74 2621.43,-207.8 2628.31,-201.29"/>
<polygon fill="none" stroke="midnightblue" points="1566.15,-362.25 1556.35,-366.27 1566.52,-369.24 1566.15,-362.25"/>
</g>
<!-- Node25 -->
<g id="node25" class="node">
<title>Node25</title>
<g id="a_node25"><a xlink:href="classSignalIntegrity_1_1Lib_1_1SParameters_1_1Devices_1_1TLineTwoPortRLGC_1_1TLineTwoPortRLGC.xhtml" target="_top" xlink:title="s&#45;parameters of single&#45;ended RLGC (telegraphers) transmission line">
<polygon fill="white" stroke="black" points="2728,-122 2728,-190 2835,-190 2835,-122 2728,-122"/>
<text text-anchor="middle" x="2781.5" y="-178" font-family="Helvetica,sans-Serif" font-size="10.00">TLineTwoPortRLGC</text>
<polyline fill="none" stroke="black" points="2728,-171 2835,-171 "/>
<text text-anchor="start" x="2736" y="-159" font-family="Helvetica,sans-Serif" font-size="10.00">+ sp</text>
<polyline fill="none" stroke="black" points="2728,-152 2835,-152 "/>
<text text-anchor="start" x="2736" y="-140" font-family="Helvetica,sans-Serif" font-size="10.00">+ __init__()</text>
<text text-anchor="start" x="2736" y="-129" font-family="Helvetica,sans-Serif" font-size="10.00">+ __getitem__()</text>
</a>
</g>
</g>
<!-- Node2&#45;&gt;Node25 -->
<g id="edge24" class="edge">
<title>Node2&#45;&gt;Node25</title>
<path fill="none" stroke="midnightblue" d="M1566.29,-366.55C1814.19,-355.68 2514.75,-316.8 2719.5,-218 2733.1,-211.44 2745.54,-200.69 2755.64,-190.04"/>
<polygon fill="none" stroke="midnightblue" points="1566.09,-363.06 1556.25,-366.99 1566.39,-370.05 1566.09,-363.06"/>
</g>
<!-- Node26 -->
<g id="node26" class="node">
<title>Node26</title>
<g id="a_node26"><a xlink:href="classSignalIntegrity_1_1Lib_1_1SParameters_1_1Devices_1_1TLineTwoPortRLGCAnalytic_1_1TLineTwoPortRLGCAnalytic.xhtml" target="_top" xlink:title="s&#45;parameters of analytic single&#45;ended telegraphers transmission line">
<polygon fill="white" stroke="black" points="2853,-94.5 2853,-217.5 3000,-217.5 3000,-94.5 2853,-94.5"/>
<text text-anchor="middle" x="2926.5" y="-205.5" font-family="Helvetica,sans-Serif" font-size="10.00">TLineTwoPortRLGCAnalytic</text>
<polyline fill="none" stroke="black" points="2853,-198.5 3000,-198.5 "/>
<text text-anchor="start" x="2861" y="-186.5" font-family="Helvetica,sans-Serif" font-size="10.00">+ R</text>
<text text-anchor="start" x="2861" y="-175.5" font-family="Helvetica,sans-Serif" font-size="10.00">+ Rse</text>
<text text-anchor="start" x="2861" y="-164.5" font-family="Helvetica,sans-Serif" font-size="10.00">+ L</text>
<text text-anchor="start" x="2861" y="-153.5" font-family="Helvetica,sans-Serif" font-size="10.00">+ G</text>
<text text-anchor="start" x="2861" y="-142.5" font-family="Helvetica,sans-Serif" font-size="10.00">+ C</text>
<text text-anchor="start" x="2861" y="-131.5" font-family="Helvetica,sans-Serif" font-size="10.00">+ df</text>
<polyline fill="none" stroke="black" points="2853,-124.5 3000,-124.5 "/>
<text text-anchor="start" x="2861" y="-112.5" font-family="Helvetica,sans-Serif" font-size="10.00">+ __init__()</text>
<text text-anchor="start" x="2861" y="-101.5" font-family="Helvetica,sans-Serif" font-size="10.00">+ __getitem__()</text>
</a>
</g>
</g>
<!-- Node2&#45;&gt;Node26 -->
<g id="edge25" class="edge">
<title>Node2&#45;&gt;Node26</title>
<path fill="none" stroke="midnightblue" d="M1566.51,-366.21C1830.14,-353.92 2609.66,-310.49 2844.5,-218 2847.31,-216.89 2850.1,-215.67 2852.88,-214.34"/>
<polygon fill="none" stroke="midnightblue" points="1566.05,-362.73 1556.22,-366.69 1566.38,-369.72 1566.05,-362.73"/>
</g>
<!-- Node27 -->
<g id="node27" class="node">
<title>Node27</title>
<g id="a_node27"><a xlink:href="classSignalIntegrity_1_1Lib_1_1SParameters_1_1Devices_1_1TLineTwoPortRLGCApproximate_1_1TLineTwoPortRLGCApproximate.xhtml" target="_top" xlink:title="s&#45;parameters of two port RLGC (telegrapher&#39;s) transmission line calculated by approximating distribut...">
<polygon fill="white" stroke="black" points="3018.5,-105.5 3018.5,-206.5 3188.5,-206.5 3188.5,-105.5 3018.5,-105.5"/>
<text text-anchor="middle" x="3103.5" y="-194.5" font-family="Helvetica,sans-Serif" font-size="10.00">TLineTwoPortRLGCApproximate</text>
<polyline fill="none" stroke="black" points="3018.5,-187.5 3188.5,-187.5 "/>
<text text-anchor="start" x="3026.5" y="-175.5" font-family="Helvetica,sans-Serif" font-size="10.00">+ m_K</text>
<text text-anchor="start" x="3026.5" y="-164.5" font-family="Helvetica,sans-Serif" font-size="10.00">+ m_sspn</text>
<text text-anchor="start" x="3026.5" y="-153.5" font-family="Helvetica,sans-Serif" font-size="10.00">+ m_spdl</text>
<text text-anchor="start" x="3026.5" y="-142.5" font-family="Helvetica,sans-Serif" font-size="10.00">+ rtFraction</text>
<polyline fill="none" stroke="black" points="3018.5,-135.5 3188.5,-135.5 "/>
<text text-anchor="start" x="3026.5" y="-123.5" font-family="Helvetica,sans-Serif" font-size="10.00">+ __init__()</text>
<text text-anchor="start" x="3026.5" y="-112.5" font-family="Helvetica,sans-Serif" font-size="10.00">+ __getitem__()</text>
</a>
</g>
</g>
<!-- Node2&#45;&gt;Node27 -->
<g id="edge26" class="edge">
<title>Node2&#45;&gt;Node27</title>
<path fill="none" stroke="midnightblue" d="M1566.41,-366.72C1850.29,-355.29 2739.67,-312.63 3009.5,-218 3018.13,-214.97 3026.76,-211 3035.09,-206.54"/>
<polygon fill="none" stroke="midnightblue" points="1566.02,-363.24 1556.17,-367.13 1566.3,-370.23 1566.02,-363.24"/>
</g>
<!-- Node28 -->
<g id="node28" class="node">
<title>Node28</title>
<g id="a_node28"><a xlink:href="classSignalIntegrity_1_1Lib_1_1SParameters_1_1SParameterFile_1_1SParameterFile.xhtml" target="_top" xlink:title="class for s&#45;parameters read from a file">
<polygon fill="white" stroke="black" points="3206.5,-105.5 3206.5,-206.5 3296.5,-206.5 3296.5,-105.5 3206.5,-105.5"/>
<text text-anchor="middle" x="3251.5" y="-194.5" font-family="Helvetica,sans-Serif" font-size="10.00">SParameterFile</text>
<polyline fill="none" stroke="black" points="3206.5,-187.5 3296.5,-187.5 "/>
<text text-anchor="start" x="3214.5" y="-175.5" font-family="Helvetica,sans-Serif" font-size="10.00">+ m_sToken</text>
<text text-anchor="start" x="3214.5" y="-164.5" font-family="Helvetica,sans-Serif" font-size="10.00">+ m_Z0</text>
<text text-anchor="start" x="3214.5" y="-153.5" font-family="Helvetica,sans-Serif" font-size="10.00">+ m_P</text>
<text text-anchor="start" x="3214.5" y="-142.5" font-family="Helvetica,sans-Serif" font-size="10.00">+ m_f</text>
<text text-anchor="start" x="3214.5" y="-131.5" font-family="Helvetica,sans-Serif" font-size="10.00">+ m_d</text>
<polyline fill="none" stroke="black" points="3206.5,-124.5 3296.5,-124.5 "/>
<text text-anchor="start" x="3214.5" y="-112.5" font-family="Helvetica,sans-Serif" font-size="10.00">+ __init__()</text>
</a>
</g>
</g>
<!-- Node2&#45;&gt;Node28 -->
<g id="edge27" class="edge">
<title>Node2&#45;&gt;Node28</title>
<path fill="none" stroke="midnightblue" d="M1566.47,-370.69C1875.36,-371.81 2907.47,-364.3 3197.5,-218 3203.44,-215.01 3209.01,-211.06 3214.16,-206.6"/>
<polygon fill="none" stroke="midnightblue" points="1566.24,-367.19 1556.22,-370.65 1566.21,-374.19 1566.24,-367.19"/>
</g>
<!-- Node8 -->
<g id="node8" class="node">
<title>Node8</title>
<g id="a_node8"><a xlink:href="classSignalIntegrity_1_1Lib_1_1Measurement_1_1CalKit_1_1Standards_1_1ThruStandard_1_1ThruStandard.xhtml" target="_top" xlink:title="Class providing the s&#45;parameters of a thru standard as commonly defined for a calibration kit.">
<polygon fill="white" stroke="black" points="477.5,-0.5 477.5,-57.5 559.5,-57.5 559.5,-0.5 477.5,-0.5"/>
<text text-anchor="middle" x="518.5" y="-45.5" font-family="Helvetica,sans-Serif" font-size="10.00">ThruStandard</text>
<polyline fill="none" stroke="black" points="477.5,-38.5 559.5,-38.5 "/>
<text text-anchor="middle" x="518.5" y="-26.5" font-family="Helvetica,sans-Serif" font-size="10.00"> </text>
<polyline fill="none" stroke="black" points="477.5,-19.5 559.5,-19.5 "/>
<text text-anchor="start" x="485.5" y="-7.5" font-family="Helvetica,sans-Serif" font-size="10.00">+ __init__()</text>
</a>
</g>
</g>
<!-- Node7&#45;&gt;Node8 -->
<g id="edge7" class="edge">
<title>Node7&#45;&gt;Node8</title>
<path fill="none" stroke="midnightblue" d="M518.5,-117.06C518.5,-97.92 518.5,-75.13 518.5,-57.66"/>
<polygon fill="none" stroke="midnightblue" points="515,-117.26 518.5,-127.26 522,-117.26 515,-117.26"/>
</g>
</g>
</svg>
