<?xml version="1.0" encoding="UTF-8" standalone="no"?>
<!DOCTYPE svg PUBLIC "-//W3C//DTD SVG 1.1//EN"
 "http://www.w3.org/Graphics/SVG/1.1/DTD/svg11.dtd">
<!-- Generated by graphviz version 2.40.1 (20161225.0304)
 -->
<!-- Title: Simulator Pages: 1 -->
<svg width="447pt" height="816pt"
 viewBox="0.00 0.00 447.00 816.00" xmlns="http://www.w3.org/2000/svg" xmlns:xlink="http://www.w3.org/1999/xlink">
<g id="graph0" class="graph" transform="scale(1 1) rotate(0) translate(4 812)">
<title>Simulator</title>
<polygon fill="#ffffff" stroke="transparent" points="-4,4 -4,-812 443,-812 443,4 -4,4"/>
<!-- Node0 -->
<g id="node1" class="node">
<title>Node0</title>
<polygon fill="#bfbfbf" stroke="#000000" points="98.5,-276.5 98.5,-443.5 250.5,-443.5 250.5,-276.5 98.5,-276.5"/>
<text text-anchor="middle" x="174.5" y="-431.5" font-family="Helvetica,sans-Serif" font-size="10.00" fill="#000000">Simulator</text>
<polyline fill="none" stroke="#000000" points="98.5,-424.5 250.5,-424.5 "/>
<text text-anchor="start" x="106.5" y="-412.5" font-family="Helvetica,sans-Serif" font-size="10.00" fill="#000000">+ m_ol</text>
<polyline fill="none" stroke="#000000" points="98.5,-405.5 250.5,-405.5 "/>
<text text-anchor="start" x="106.5" y="-393.5" font-family="Helvetica,sans-Serif" font-size="10.00" fill="#000000">+ __init__()</text>
<text text-anchor="start" x="106.5" y="-382.5" font-family="Helvetica,sans-Serif" font-size="10.00" fill="#000000">+ Check()</text>
<text text-anchor="start" x="106.5" y="-371.5" font-family="Helvetica,sans-Serif" font-size="10.00" fill="#000000">+ pOutputList()</text>
<text text-anchor="start" x="106.5" y="-360.5" font-family="Helvetica,sans-Serif" font-size="10.00" fill="#000000">+ pOutputList()</text>
<text text-anchor="start" x="106.5" y="-349.5" font-family="Helvetica,sans-Serif" font-size="10.00" fill="#000000">+ AddVoltageSource()</text>
<text text-anchor="start" x="106.5" y="-338.5" font-family="Helvetica,sans-Serif" font-size="10.00" fill="#000000">+ AddCurrentSource()</text>
<text text-anchor="start" x="106.5" y="-327.5" font-family="Helvetica,sans-Serif" font-size="10.00" fill="#000000">+ SourceVector()</text>
<text text-anchor="start" x="106.5" y="-316.5" font-family="Helvetica,sans-Serif" font-size="10.00" fill="#000000">+ SourceToStimsPrimeMatrix()</text>
<text text-anchor="start" x="106.5" y="-305.5" font-family="Helvetica,sans-Serif" font-size="10.00" fill="#000000">+ StimsPrime()</text>
<text text-anchor="start" x="106.5" y="-294.5" font-family="Helvetica,sans-Serif" font-size="10.00" fill="#000000">+ SIPrime()</text>
<text text-anchor="start" x="106.5" y="-283.5" font-family="Helvetica,sans-Serif" font-size="10.00" fill="#000000">+ VoltageExtractionMatrix()</text>
</g>
<!-- Node3 -->
<g id="node4" class="node">
<title>Node3</title>
<g id="a_node4"><a xlink:href="classSignalIntegrity_1_1SystemDescriptions_1_1SimulatorNumeric_1_1SimulatorNumeric.xhtml" target="_top" xlink:title="class for performing numeric simulations ">
<polygon fill="#ffffff" stroke="#000000" points="0,-144 0,-212 95,-212 95,-144 0,-144"/>
<text text-anchor="middle" x="47.5" y="-200" font-family="Helvetica,sans-Serif" font-size="10.00" fill="#000000">SimulatorNumeric</text>
<polyline fill="none" stroke="#000000" points="0,-193 95,-193 "/>
<text text-anchor="middle" x="47.5" y="-181" font-family="Helvetica,sans-Serif" font-size="10.00" fill="#000000"> </text>
<polyline fill="none" stroke="#000000" points="0,-174 95,-174 "/>
<text text-anchor="start" x="8" y="-162" font-family="Helvetica,sans-Serif" font-size="10.00" fill="#000000">+ __init__()</text>
<text text-anchor="start" x="8" y="-151" font-family="Helvetica,sans-Serif" font-size="10.00" fill="#000000">+ TransferMatrix()</text>
</a>
</g>
</g>
<!-- Node0&#45;&gt;Node3 -->
<g id="edge3" class="edge">
<title>Node0&#45;&gt;Node3</title>
<path fill="none" stroke="#191970" d="M110.4591,-268.2249C96.5487,-248.2902 82.6728,-228.4052 71.502,-212.3966"/>
<polygon fill="none" stroke="#191970" points="107.6109,-270.2595 116.2038,-276.4574 113.3515,-266.2537 107.6109,-270.2595"/>
</g>
<!-- Node4 -->
<g id="node5" class="node">
<title>Node4</title>
<g id="a_node5"><a xlink:href="classSignalIntegrity_1_1SystemDescriptions_1_1SimulatorSymbolic_1_1SimulatorSymbolic.xhtml" target="_top" xlink:title="class for producing symbolic solutions to simulation problems. ">
<polygon fill="#ffffff" stroke="#000000" points="113,-138.5 113,-217.5 236,-217.5 236,-138.5 113,-138.5"/>
<text text-anchor="middle" x="174.5" y="-205.5" font-family="Helvetica,sans-Serif" font-size="10.00" fill="#000000">SimulatorSymbolic</text>
<polyline fill="none" stroke="#000000" points="113,-198.5 236,-198.5 "/>
<text text-anchor="middle" x="174.5" y="-186.5" font-family="Helvetica,sans-Serif" font-size="10.00" fill="#000000"> </text>
<polyline fill="none" stroke="#000000" points="113,-179.5 236,-179.5 "/>
<text text-anchor="start" x="121" y="-167.5" font-family="Helvetica,sans-Serif" font-size="10.00" fill="#000000">+ __init__()</text>
<text text-anchor="start" x="121" y="-156.5" font-family="Helvetica,sans-Serif" font-size="10.00" fill="#000000">+ LaTeXTransferMatrix()</text>
<text text-anchor="start" x="121" y="-145.5" font-family="Helvetica,sans-Serif" font-size="10.00" fill="#000000">+ LaTeXEquations()</text>
</a>
</g>
</g>
<!-- Node0&#45;&gt;Node4 -->
<g id="edge4" class="edge">
<title>Node0&#45;&gt;Node4</title>
<path fill="none" stroke="#191970" d="M174.5,-266.4085C174.5,-249.3344 174.5,-232.382 174.5,-217.9583"/>
<polygon fill="none" stroke="#191970" points="171.0001,-266.4574 174.5,-276.4574 178.0001,-266.4574 171.0001,-266.4574"/>
</g>
<!-- Node5 -->
<g id="node6" class="node">
<title>Node5</title>
<g id="a_node6"><a xlink:href="classSignalIntegrity_1_1SystemDescriptions_1_1VirtualProbe_1_1VirtualProbe.xhtml" target="_top" xlink:title="Base class for virtual probing. ">
<polygon fill="#ffffff" stroke="#000000" points="254.5,-116.5 254.5,-239.5 366.5,-239.5 366.5,-116.5 254.5,-116.5"/>
<text text-anchor="middle" x="310.5" y="-227.5" font-family="Helvetica,sans-Serif" font-size="10.00" fill="#000000">VirtualProbe</text>
<polyline fill="none" stroke="#000000" points="254.5,-220.5 366.5,-220.5 "/>
<text text-anchor="start" x="262.5" y="-208.5" font-family="Helvetica,sans-Serif" font-size="10.00" fill="#000000">+ m_ml</text>
<text text-anchor="start" x="262.5" y="-197.5" font-family="Helvetica,sans-Serif" font-size="10.00" fill="#000000">+ m_D</text>
<polyline fill="none" stroke="#000000" points="254.5,-190.5 366.5,-190.5 "/>
<text text-anchor="start" x="262.5" y="-178.5" font-family="Helvetica,sans-Serif" font-size="10.00" fill="#000000">+ __init__()</text>
<text text-anchor="start" x="262.5" y="-167.5" font-family="Helvetica,sans-Serif" font-size="10.00" fill="#000000">+ Check()</text>
<text text-anchor="start" x="262.5" y="-156.5" font-family="Helvetica,sans-Serif" font-size="10.00" fill="#000000">+ pMeasurementList()</text>
<text text-anchor="start" x="262.5" y="-145.5" font-family="Helvetica,sans-Serif" font-size="10.00" fill="#000000">+ pMeasurementList()</text>
<text text-anchor="start" x="262.5" y="-134.5" font-family="Helvetica,sans-Serif" font-size="10.00" fill="#000000">+ pStimDef()</text>
<text text-anchor="start" x="262.5" y="-123.5" font-family="Helvetica,sans-Serif" font-size="10.00" fill="#000000">+ pStimDef()</text>
</a>
</g>
</g>
<!-- Node0&#45;&gt;Node5 -->
<g id="edge5" class="edge">
<title>Node0&#45;&gt;Node5</title>
<path fill="none" stroke="#191970" d="M243.0349,-268.2842C250.312,-258.5457 257.581,-248.818 264.5085,-239.5475"/>
<polygon fill="none" stroke="#191970" points="240.1097,-266.3518 236.9274,-276.4574 245.7171,-270.5419 240.1097,-266.3518"/>
</g>
<!-- Node1 -->
<g id="node2" class="node">
<title>Node1</title>
<g id="a_node2"><a xlink:href="classSignalIntegrity_1_1SystemDescriptions_1_1SystemSParameters_1_1SystemSParameters.xhtml" target="_top" xlink:title="base class for housekeeping involving system s&#45;parameters calculations ">
<polygon fill="#ffffff" stroke="#000000" points="121,-480.5 121,-603.5 228,-603.5 228,-480.5 121,-480.5"/>
<text text-anchor="middle" x="174.5" y="-591.5" font-family="Helvetica,sans-Serif" font-size="10.00" fill="#000000">SystemSParameters</text>
<polyline fill="none" stroke="#000000" points="121,-584.5 228,-584.5 "/>
<text text-anchor="middle" x="174.5" y="-572.5" font-family="Helvetica,sans-Serif" font-size="10.00" fill="#000000"> </text>
<polyline fill="none" stroke="#000000" points="121,-565.5 228,-565.5 "/>
<text text-anchor="start" x="129" y="-553.5" font-family="Helvetica,sans-Serif" font-size="10.00" fill="#000000">+ __init__()</text>
<text text-anchor="start" x="129" y="-542.5" font-family="Helvetica,sans-Serif" font-size="10.00" fill="#000000">+ PortANames()</text>
<text text-anchor="start" x="129" y="-531.5" font-family="Helvetica,sans-Serif" font-size="10.00" fill="#000000">+ PortBNames()</text>
<text text-anchor="start" x="129" y="-520.5" font-family="Helvetica,sans-Serif" font-size="10.00" fill="#000000">+ OtherNames()</text>
<text text-anchor="start" x="129" y="-509.5" font-family="Helvetica,sans-Serif" font-size="10.00" fill="#000000">+ NodeVector()</text>
<text text-anchor="start" x="129" y="-498.5" font-family="Helvetica,sans-Serif" font-size="10.00" fill="#000000">+ StimulusVector()</text>
<text text-anchor="start" x="129" y="-487.5" font-family="Helvetica,sans-Serif" font-size="10.00" fill="#000000"># WeightsMatrix()</text>
</a>
</g>
</g>
<!-- Node1&#45;&gt;Node0 -->
<g id="edge1" class="edge">
<title>Node1&#45;&gt;Node0</title>
<path fill="none" stroke="#191970" d="M174.5,-470.2206C174.5,-461.4483 174.5,-452.4262 174.5,-443.5011"/>
<polygon fill="none" stroke="#191970" points="171.0001,-470.3831 174.5,-480.3831 178.0001,-470.3831 171.0001,-470.3831"/>
</g>
<!-- Node2 -->
<g id="node3" class="node">
<title>Node2</title>
<g id="a_node3"><a xlink:href="classSignalIntegrity_1_1SystemDescriptions_1_1SystemDescription_1_1SystemDescription.xhtml" target="_top" xlink:title="Allows the construction of system descriptions for use with all of the classes that solve schematics ...">
<polygon fill="#ffffff" stroke="#000000" points="115,-640.5 115,-807.5 234,-807.5 234,-640.5 115,-640.5"/>
<text text-anchor="middle" x="174.5" y="-795.5" font-family="Helvetica,sans-Serif" font-size="10.00" fill="#000000">SystemDescription</text>
<polyline fill="none" stroke="#000000" points="115,-788.5 234,-788.5 "/>
<text text-anchor="start" x="123" y="-776.5" font-family="Helvetica,sans-Serif" font-size="10.00" fill="#000000">+ m_UniqueDevice</text>
<text text-anchor="start" x="123" y="-765.5" font-family="Helvetica,sans-Serif" font-size="10.00" fill="#000000">+ m_UniqueNode</text>
<polyline fill="none" stroke="#000000" points="115,-758.5 234,-758.5 "/>
<text text-anchor="start" x="123" y="-746.5" font-family="Helvetica,sans-Serif" font-size="10.00" fill="#000000">+ __init__()</text>
<text text-anchor="start" x="123" y="-735.5" font-family="Helvetica,sans-Serif" font-size="10.00" fill="#000000">+ AddDevice()</text>
<text text-anchor="start" x="123" y="-724.5" font-family="Helvetica,sans-Serif" font-size="10.00" fill="#000000">+ AssignM()</text>
<text text-anchor="start" x="123" y="-713.5" font-family="Helvetica,sans-Serif" font-size="10.00" fill="#000000">+ DeviceNames()</text>
<text text-anchor="start" x="123" y="-702.5" font-family="Helvetica,sans-Serif" font-size="10.00" fill="#000000">+ IndexOfDevice()</text>
<text text-anchor="start" x="123" y="-691.5" font-family="Helvetica,sans-Serif" font-size="10.00" fill="#000000">+ CheckConnections()</text>
<text text-anchor="start" x="123" y="-680.5" font-family="Helvetica,sans-Serif" font-size="10.00" fill="#000000">+ ConnectDevicePort()</text>
<text text-anchor="start" x="123" y="-669.5" font-family="Helvetica,sans-Serif" font-size="10.00" fill="#000000">+ AddPort()</text>
<text text-anchor="start" x="123" y="-658.5" font-family="Helvetica,sans-Serif" font-size="10.00" fill="#000000">+ AssignSParameters()</text>
<text text-anchor="start" x="123" y="-647.5" font-family="Helvetica,sans-Serif" font-size="10.00" fill="#000000">+ Print()</text>
</a>
</g>
</g>
<!-- Node2&#45;&gt;Node1 -->
<g id="edge2" class="edge">
<title>Node2&#45;&gt;Node1</title>
<path fill="none" stroke="#191970" d="M174.5,-630.2394C174.5,-621.186 174.5,-612.1691 174.5,-603.5475"/>
<polygon fill="none" stroke="#191970" points="171.0001,-630.4574 174.5,-640.4574 178.0001,-630.4574 171.0001,-630.4574"/>
</g>
<!-- Node6 -->
<g id="node7" class="node">
<title>Node6</title>
<g id="a_node7"><a xlink:href="classSignalIntegrity_1_1SystemDescriptions_1_1VirtualProbeNumeric_1_1VirtualProbeNumeric.xhtml" target="_top" xlink:title="class for performing virtual probing numerically. ">
<polygon fill="#ffffff" stroke="#000000" points="191,-6 191,-74 298,-74 298,-6 191,-6"/>
<text text-anchor="middle" x="244.5" y="-62" font-family="Helvetica,sans-Serif" font-size="10.00" fill="#000000">VirtualProbeNumeric</text>
<polyline fill="none" stroke="#000000" points="191,-55 298,-55 "/>
<text text-anchor="middle" x="244.5" y="-43" font-family="Helvetica,sans-Serif" font-size="10.00" fill="#000000"> </text>
<polyline fill="none" stroke="#000000" points="191,-36 298,-36 "/>
<text text-anchor="start" x="199" y="-24" font-family="Helvetica,sans-Serif" font-size="10.00" fill="#000000">+ __init__()</text>
<text text-anchor="start" x="199" y="-13" font-family="Helvetica,sans-Serif" font-size="10.00" fill="#000000">+ TransferMatrix()</text>
</a>
</g>
</g>
<!-- Node5&#45;&gt;Node6 -->
<g id="edge6" class="edge">
<title>Node5&#45;&gt;Node6</title>
<path fill="none" stroke="#191970" d="M276.5715,-107.0585C271.0756,-95.5672 265.6141,-84.1478 260.7974,-74.0764"/>
<polygon fill="none" stroke="#191970" points="273.5026,-108.7541 280.9747,-116.2654 279.8176,-105.7339 273.5026,-108.7541"/>
</g>
<!-- Node7 -->
<g id="node8" class="node">
<title>Node7</title>
<g id="a_node8"><a xlink:href="classSignalIntegrity_1_1SystemDescriptions_1_1VirtualProbeSymbolic_1_1VirtualProbeSymbolic.xhtml" target="_top" xlink:title="Class that provides symbolic solutions to virtual probe problems. ">
<polygon fill="#ffffff" stroke="#000000" points="316,-.5 316,-79.5 439,-79.5 439,-.5 316,-.5"/>
<text text-anchor="middle" x="377.5" y="-67.5" font-family="Helvetica,sans-Serif" font-size="10.00" fill="#000000">VirtualProbeSymbolic</text>
<polyline fill="none" stroke="#000000" points="316,-60.5 439,-60.5 "/>
<text text-anchor="middle" x="377.5" y="-48.5" font-family="Helvetica,sans-Serif" font-size="10.00" fill="#000000"> </text>
<polyline fill="none" stroke="#000000" points="316,-41.5 439,-41.5 "/>
<text text-anchor="start" x="324" y="-29.5" font-family="Helvetica,sans-Serif" font-size="10.00" fill="#000000">+ __init__()</text>
<text text-anchor="start" x="324" y="-18.5" font-family="Helvetica,sans-Serif" font-size="10.00" fill="#000000">+ LaTeXTransferMatrix()</text>
<text text-anchor="start" x="324" y="-7.5" font-family="Helvetica,sans-Serif" font-size="10.00" fill="#000000">+ LaTeXEquations()</text>
</a>
</g>
</g>
<!-- Node5&#45;&gt;Node7 -->
<g id="edge7" class="edge">
<title>Node5&#45;&gt;Node7</title>
<path fill="none" stroke="#191970" d="M344.8934,-107.1599C349.509,-97.6531 354.102,-88.193 358.3215,-79.502"/>
<polygon fill="none" stroke="#191970" points="341.6917,-105.7409 340.4726,-116.2654 347.9887,-108.7982 341.6917,-105.7409"/>
</g>
</g>
</svg>
