<?xml version="1.0" encoding="UTF-8" standalone="no"?>
<!DOCTYPE svg PUBLIC "-//W3C//DTD SVG 1.1//EN"
 "http://www.w3.org/Graphics/SVG/1.1/DTD/svg11.dtd">
<!-- Generated by graphviz version 2.43.0 (0)
 -->
<!-- Title: Deembedder Pages: 1 -->
<svg width="278pt" height="601pt"
 viewBox="0.00 0.00 278.00 601.00" xmlns="http://www.w3.org/2000/svg" xmlns:xlink="http://www.w3.org/1999/xlink">
<g id="graph0" class="graph" transform="scale(1 1) rotate(0) translate(4 597)">
<title>Deembedder</title>
<polygon fill="white" stroke="transparent" points="-4,4 -4,-597 274,-597 274,4 -4,4"/>
<!-- Node1 -->
<g id="node1" class="node">
<title>Node1</title>
<g id="a_node1"><a xlink:title="housekeeping base class for deembedders">
<polygon fill="#bfbfbf" stroke="black" points="77.5,-105.5 77.5,-228.5 193.5,-228.5 193.5,-105.5 77.5,-105.5"/>
<text text-anchor="middle" x="135.5" y="-216.5" font-family="Helvetica,sans-Serif" font-size="10.00">Deembedder</text>
<polyline fill="none" stroke="black" points="77.5,-209.5 193.5,-209.5 "/>
<text text-anchor="middle" x="135.5" y="-197.5" font-family="Helvetica,sans-Serif" font-size="10.00"> </text>
<polyline fill="none" stroke="black" points="77.5,-190.5 193.5,-190.5 "/>
<text text-anchor="start" x="85.5" y="-178.5" font-family="Helvetica,sans-Serif" font-size="10.00">+ __init__()</text>
<text text-anchor="start" x="85.5" y="-167.5" font-family="Helvetica,sans-Serif" font-size="10.00">+ AddUnknown()</text>
<text text-anchor="start" x="85.5" y="-156.5" font-family="Helvetica,sans-Serif" font-size="10.00">+ DutANames()</text>
<text text-anchor="start" x="85.5" y="-145.5" font-family="Helvetica,sans-Serif" font-size="10.00">+ DutBNames()</text>
<text text-anchor="start" x="85.5" y="-134.5" font-family="Helvetica,sans-Serif" font-size="10.00">+ UnknownNames()</text>
<text text-anchor="start" x="85.5" y="-123.5" font-family="Helvetica,sans-Serif" font-size="10.00">+ UnknownPorts()</text>
<text text-anchor="start" x="85.5" y="-112.5" font-family="Helvetica,sans-Serif" font-size="10.00">+ Partition()</text>
</a>
</g>
</g>
<!-- Node4 -->
<g id="node4" class="node">
<title>Node4</title>
<g id="a_node4"><a xlink:href="classSignalIntegrity_1_1Lib_1_1SystemDescriptions_1_1DeembedderNumeric_1_1DeembedderNumeric.xhtml" target="_top" xlink:title=" ">
<polygon fill="white" stroke="black" points="0,-0.5 0,-68.5 127,-68.5 127,-0.5 0,-0.5"/>
<text text-anchor="middle" x="63.5" y="-56.5" font-family="Helvetica,sans-Serif" font-size="10.00">DeembedderNumeric</text>
<polyline fill="none" stroke="black" points="0,-49.5 127,-49.5 "/>
<text text-anchor="middle" x="63.5" y="-37.5" font-family="Helvetica,sans-Serif" font-size="10.00"> </text>
<polyline fill="none" stroke="black" points="0,-30.5 127,-30.5 "/>
<text text-anchor="start" x="8" y="-18.5" font-family="Helvetica,sans-Serif" font-size="10.00">+ __init__()</text>
<text text-anchor="start" x="8" y="-7.5" font-family="Helvetica,sans-Serif" font-size="10.00">+ CalculateUnknown()</text>
</a>
</g>
</g>
<!-- Node1&#45;&gt;Node4 -->
<g id="edge3" class="edge">
<title>Node1&#45;&gt;Node4</title>
<path fill="none" stroke="midnightblue" d="M97.12,-96.43C91.77,-86.74 86.5,-77.19 81.77,-68.62"/>
<polygon fill="none" stroke="midnightblue" points="94.13,-98.27 102.03,-105.33 100.26,-94.89 94.13,-98.27"/>
</g>
<!-- Node5 -->
<g id="node5" class="node">
<title>Node5</title>
<g id="a_node5"><a xlink:href="classSignalIntegrity_1_1Lib_1_1SystemDescriptions_1_1DeembedderSymbolic_1_1DeembedderSymbolic.xhtml" target="_top" xlink:title=" ">
<polygon fill="white" stroke="black" points="145,-0.5 145,-68.5 270,-68.5 270,-0.5 145,-0.5"/>
<text text-anchor="middle" x="207.5" y="-56.5" font-family="Helvetica,sans-Serif" font-size="10.00">DeembedderSymbolic</text>
<polyline fill="none" stroke="black" points="145,-49.5 270,-49.5 "/>
<text text-anchor="start" x="153" y="-37.5" font-family="Helvetica,sans-Serif" font-size="10.00">+ m_Sk</text>
<polyline fill="none" stroke="black" points="145,-30.5 270,-30.5 "/>
<text text-anchor="start" x="153" y="-18.5" font-family="Helvetica,sans-Serif" font-size="10.00">+ __init__()</text>
<text text-anchor="start" x="153" y="-7.5" font-family="Helvetica,sans-Serif" font-size="10.00">+ SymbolicSolution()</text>
</a>
</g>
</g>
<!-- Node1&#45;&gt;Node5 -->
<g id="edge4" class="edge">
<title>Node1&#45;&gt;Node5</title>
<path fill="none" stroke="midnightblue" d="M173.88,-96.43C179.23,-86.74 184.5,-77.19 189.23,-68.62"/>
<polygon fill="none" stroke="midnightblue" points="170.74,-94.89 168.97,-105.33 176.87,-98.27 170.74,-94.89"/>
</g>
<!-- Node2 -->
<g id="node2" class="node">
<title>Node2</title>
<g id="a_node2"><a xlink:href="classSignalIntegrity_1_1Lib_1_1SystemDescriptions_1_1SystemSParameters_1_1SystemSParameters.xhtml" target="_top" xlink:title="base class for housekeeping involving system s&#45;parameters calculations">
<polygon fill="white" stroke="black" points="77.5,-265.5 77.5,-388.5 193.5,-388.5 193.5,-265.5 77.5,-265.5"/>
<text text-anchor="middle" x="135.5" y="-376.5" font-family="Helvetica,sans-Serif" font-size="10.00">SystemSParameters</text>
<polyline fill="none" stroke="black" points="77.5,-369.5 193.5,-369.5 "/>
<text text-anchor="middle" x="135.5" y="-357.5" font-family="Helvetica,sans-Serif" font-size="10.00"> </text>
<polyline fill="none" stroke="black" points="77.5,-350.5 193.5,-350.5 "/>
<text text-anchor="start" x="85.5" y="-338.5" font-family="Helvetica,sans-Serif" font-size="10.00">+ __init__()</text>
<text text-anchor="start" x="85.5" y="-327.5" font-family="Helvetica,sans-Serif" font-size="10.00">+ PortANames()</text>
<text text-anchor="start" x="85.5" y="-316.5" font-family="Helvetica,sans-Serif" font-size="10.00">+ PortBNames()</text>
<text text-anchor="start" x="85.5" y="-305.5" font-family="Helvetica,sans-Serif" font-size="10.00">+ OtherNames()</text>
<text text-anchor="start" x="85.5" y="-294.5" font-family="Helvetica,sans-Serif" font-size="10.00">+ NodeVector()</text>
<text text-anchor="start" x="85.5" y="-283.5" font-family="Helvetica,sans-Serif" font-size="10.00">+ StimulusVector()</text>
<text text-anchor="start" x="85.5" y="-272.5" font-family="Helvetica,sans-Serif" font-size="10.00"># WeightsMatrix()</text>
</a>
</g>
</g>
<!-- Node2&#45;&gt;Node1 -->
<g id="edge1" class="edge">
<title>Node2&#45;&gt;Node1</title>
<path fill="none" stroke="midnightblue" d="M135.5,-255.12C135.5,-246.31 135.5,-237.37 135.5,-228.73"/>
<polygon fill="none" stroke="midnightblue" points="132,-255.36 135.5,-265.36 139,-255.36 132,-255.36"/>
</g>
<!-- Node3 -->
<g id="node3" class="node">
<title>Node3</title>
<g id="a_node3"><a xlink:href="classSignalIntegrity_1_1Lib_1_1SystemDescriptions_1_1SystemDescription_1_1SystemDescription.xhtml" target="_top" xlink:title="Allows the construction of system descriptions for use with all of the classes that solve schematics ...">
<polygon fill="white" stroke="black" points="70.5,-425.5 70.5,-592.5 200.5,-592.5 200.5,-425.5 70.5,-425.5"/>
<text text-anchor="middle" x="135.5" y="-580.5" font-family="Helvetica,sans-Serif" font-size="10.00">SystemDescription</text>
<polyline fill="none" stroke="black" points="70.5,-573.5 200.5,-573.5 "/>
<text text-anchor="start" x="78.5" y="-561.5" font-family="Helvetica,sans-Serif" font-size="10.00">+ m_UniqueDevice</text>
<text text-anchor="start" x="78.5" y="-550.5" font-family="Helvetica,sans-Serif" font-size="10.00">+ m_UniqueNode</text>
<polyline fill="none" stroke="black" points="70.5,-543.5 200.5,-543.5 "/>
<text text-anchor="start" x="78.5" y="-531.5" font-family="Helvetica,sans-Serif" font-size="10.00">+ __init__()</text>
<text text-anchor="start" x="78.5" y="-520.5" font-family="Helvetica,sans-Serif" font-size="10.00">+ AddDevice()</text>
<text text-anchor="start" x="78.5" y="-509.5" font-family="Helvetica,sans-Serif" font-size="10.00">+ AssignM()</text>
<text text-anchor="start" x="78.5" y="-498.5" font-family="Helvetica,sans-Serif" font-size="10.00">+ DeviceNames()</text>
<text text-anchor="start" x="78.5" y="-487.5" font-family="Helvetica,sans-Serif" font-size="10.00">+ IndexOfDevice()</text>
<text text-anchor="start" x="78.5" y="-476.5" font-family="Helvetica,sans-Serif" font-size="10.00">+ CheckConnections()</text>
<text text-anchor="start" x="78.5" y="-465.5" font-family="Helvetica,sans-Serif" font-size="10.00">+ ConnectDevicePort()</text>
<text text-anchor="start" x="78.5" y="-454.5" font-family="Helvetica,sans-Serif" font-size="10.00">+ AddPort()</text>
<text text-anchor="start" x="78.5" y="-443.5" font-family="Helvetica,sans-Serif" font-size="10.00">+ AssignSParameters()</text>
<text text-anchor="start" x="78.5" y="-432.5" font-family="Helvetica,sans-Serif" font-size="10.00">+ Print()</text>
</a>
</g>
</g>
<!-- Node3&#45;&gt;Node2 -->
<g id="edge2" class="edge">
<title>Node3&#45;&gt;Node2</title>
<path fill="none" stroke="midnightblue" d="M135.5,-415.19C135.5,-406.17 135.5,-397.19 135.5,-388.61"/>
<polygon fill="none" stroke="midnightblue" points="132,-415.38 135.5,-425.38 139,-415.38 132,-415.38"/>
</g>
</g>
</svg>
