<?xml version="1.0" encoding="UTF-8" standalone="no"?>
<!DOCTYPE svg PUBLIC "-//W3C//DTD SVG 1.1//EN"
 "http://www.w3.org/Graphics/SVG/1.1/DTD/svg11.dtd">
<!-- Generated by graphviz version 2.43.0 (0)
 -->
<!-- Title: CalibrationMeasurement Pages: 1 -->
<svg width="687pt" height="215pt"
 viewBox="0.00 0.00 686.50 215.00" xmlns="http://www.w3.org/2000/svg" xmlns:xlink="http://www.w3.org/1999/xlink">
<g id="graph0" class="graph" transform="scale(1 1) rotate(0) translate(4 211)">
<title>CalibrationMeasurement</title>
<polygon fill="white" stroke="transparent" points="-4,4 -4,-211 682.5,-211 682.5,4 -4,4"/>
<!-- Node1 -->
<g id="node1" class="node">
<title>Node1</title>
<g id="a_node1"><a xlink:title="Calibration Measurements.">
<polygon fill="#bfbfbf" stroke="black" points="272,-138.5 272,-206.5 394,-206.5 394,-138.5 272,-138.5"/>
<text text-anchor="middle" x="333" y="-194.5" font-family="Helvetica,sans-Serif" font-size="10.00">CalibrationMeasurement</text>
<polyline fill="none" stroke="black" points="272,-187.5 394,-187.5 "/>
<text text-anchor="start" x="280" y="-175.5" font-family="Helvetica,sans-Serif" font-size="10.00">+ type</text>
<text text-anchor="start" x="280" y="-164.5" font-family="Helvetica,sans-Serif" font-size="10.00">+ name</text>
<polyline fill="none" stroke="black" points="272,-157.5 394,-157.5 "/>
<text text-anchor="start" x="280" y="-145.5" font-family="Helvetica,sans-Serif" font-size="10.00">+ __init__()</text>
</a>
</g>
</g>
<!-- Node2 -->
<g id="node2" class="node">
<title>Node2</title>
<g id="a_node2"><a xlink:href="classSignalIntegrity_1_1Lib_1_1Measurement_1_1Calibration_1_1CalibrationMeasurements_1_1ReflectCalibrationMeasurement.xhtml" target="_top" xlink:title="A reflect measurement taken on a port with a reflect standard (like short, open, or load).">
<polygon fill="white" stroke="black" points="0,-11.5 0,-90.5 154,-90.5 154,-11.5 0,-11.5"/>
<text text-anchor="middle" x="77" y="-78.5" font-family="Helvetica,sans-Serif" font-size="10.00">ReflectCalibrationMeasurement</text>
<polyline fill="none" stroke="black" points="0,-71.5 154,-71.5 "/>
<text text-anchor="start" x="8" y="-59.5" font-family="Helvetica,sans-Serif" font-size="10.00">+ gamma</text>
<text text-anchor="start" x="8" y="-48.5" font-family="Helvetica,sans-Serif" font-size="10.00">+ Gamma</text>
<text text-anchor="start" x="8" y="-37.5" font-family="Helvetica,sans-Serif" font-size="10.00">+ port</text>
<polyline fill="none" stroke="black" points="0,-30.5 154,-30.5 "/>
<text text-anchor="start" x="8" y="-18.5" font-family="Helvetica,sans-Serif" font-size="10.00">+ __init__()</text>
</a>
</g>
</g>
<!-- Node1&#45;&gt;Node2 -->
<g id="edge1" class="edge">
<title>Node1&#45;&gt;Node2</title>
<path fill="none" stroke="midnightblue" d="M262.49,-145.21C231.53,-133.02 195.02,-117.76 163,-102 155.87,-98.49 148.53,-94.63 141.28,-90.66"/>
<polygon fill="none" stroke="midnightblue" points="261.33,-148.51 271.91,-148.89 263.87,-141.99 261.33,-148.51"/>
</g>
<!-- Node3 -->
<g id="node3" class="node">
<title>Node3</title>
<g id="a_node3"><a xlink:href="classSignalIntegrity_1_1Lib_1_1Measurement_1_1Calibration_1_1CalibrationMeasurements_1_1ThruCalibrationMeasurement.xhtml" target="_top" xlink:title="A thru calibration measurement taken between two ports.">
<polygon fill="white" stroke="black" points="172,-0.5 172,-101.5 314,-101.5 314,-0.5 172,-0.5"/>
<text text-anchor="middle" x="243" y="-89.5" font-family="Helvetica,sans-Serif" font-size="10.00">ThruCalibrationMeasurement</text>
<polyline fill="none" stroke="black" points="172,-82.5 314,-82.5 "/>
<text text-anchor="start" x="180" y="-70.5" font-family="Helvetica,sans-Serif" font-size="10.00">+ b1a1</text>
<text text-anchor="start" x="180" y="-59.5" font-family="Helvetica,sans-Serif" font-size="10.00">+ b2a1</text>
<text text-anchor="start" x="180" y="-48.5" font-family="Helvetica,sans-Serif" font-size="10.00">+ S</text>
<text text-anchor="start" x="180" y="-37.5" font-family="Helvetica,sans-Serif" font-size="10.00">+ portDriven</text>
<text text-anchor="start" x="180" y="-26.5" font-family="Helvetica,sans-Serif" font-size="10.00">+ otherPort</text>
<polyline fill="none" stroke="black" points="172,-19.5 314,-19.5 "/>
<text text-anchor="start" x="180" y="-7.5" font-family="Helvetica,sans-Serif" font-size="10.00">+ __init__()</text>
</a>
</g>
</g>
<!-- Node1&#45;&gt;Node3 -->
<g id="edge2" class="edge">
<title>Node1&#45;&gt;Node3</title>
<path fill="none" stroke="midnightblue" d="M301.76,-130.02C294.86,-120.86 287.5,-111.08 280.39,-101.65"/>
<polygon fill="none" stroke="midnightblue" points="299.12,-132.33 307.93,-138.21 304.71,-128.12 299.12,-132.33"/>
</g>
<!-- Node4 -->
<g id="node4" class="node">
<title>Node4</title>
<g id="a_node4"><a xlink:href="classSignalIntegrity_1_1Lib_1_1Measurement_1_1Calibration_1_1CalibrationMeasurements_1_1UnknownThruCalibrationMeasurement.xhtml" target="_top" xlink:title="An unknown thru calibration measurement taken between two ports.">
<polygon fill="white" stroke="black" points="332.5,-0.5 332.5,-101.5 515.5,-101.5 515.5,-0.5 332.5,-0.5"/>
<text text-anchor="middle" x="424" y="-89.5" font-family="Helvetica,sans-Serif" font-size="10.00">UnknownThruCalibrationMeasurement</text>
<polyline fill="none" stroke="black" points="332.5,-82.5 515.5,-82.5 "/>
<text text-anchor="start" x="340.5" y="-70.5" font-family="Helvetica,sans-Serif" font-size="10.00">+ Smeasured</text>
<text text-anchor="start" x="340.5" y="-59.5" font-family="Helvetica,sans-Serif" font-size="10.00">+ S</text>
<text text-anchor="start" x="340.5" y="-48.5" font-family="Helvetica,sans-Serif" font-size="10.00">+ portDriven</text>
<text text-anchor="start" x="340.5" y="-37.5" font-family="Helvetica,sans-Serif" font-size="10.00">+ otherPort</text>
<text text-anchor="start" x="340.5" y="-26.5" font-family="Helvetica,sans-Serif" font-size="10.00">+ limit</text>
<polyline fill="none" stroke="black" points="332.5,-19.5 515.5,-19.5 "/>
<text text-anchor="start" x="340.5" y="-7.5" font-family="Helvetica,sans-Serif" font-size="10.00">+ __init__()</text>
</a>
</g>
</g>
<!-- Node1&#45;&gt;Node4 -->
<g id="edge3" class="edge">
<title>Node1&#45;&gt;Node4</title>
<path fill="none" stroke="midnightblue" d="M364.59,-130.02C371.56,-120.86 379.01,-111.08 386.19,-101.65"/>
<polygon fill="none" stroke="midnightblue" points="361.62,-128.14 358.35,-138.21 367.19,-132.38 361.62,-128.14"/>
</g>
<!-- Node5 -->
<g id="node5" class="node">
<title>Node5</title>
<g id="a_node5"><a xlink:href="classSignalIntegrity_1_1Lib_1_1Measurement_1_1Calibration_1_1CalibrationMeasurements_1_1XtalkCalibrationMeasurement.xhtml" target="_top" xlink:title="A crosstalk calibration measurement typically taken between two ports that are completely unconnected...">
<polygon fill="white" stroke="black" points="533.5,-11.5 533.5,-90.5 678.5,-90.5 678.5,-11.5 533.5,-11.5"/>
<text text-anchor="middle" x="606" y="-78.5" font-family="Helvetica,sans-Serif" font-size="10.00">XtalkCalibrationMeasurement</text>
<polyline fill="none" stroke="black" points="533.5,-71.5 678.5,-71.5 "/>
<text text-anchor="start" x="541.5" y="-59.5" font-family="Helvetica,sans-Serif" font-size="10.00">+ b2a1</text>
<text text-anchor="start" x="541.5" y="-48.5" font-family="Helvetica,sans-Serif" font-size="10.00">+ portDriven</text>
<text text-anchor="start" x="541.5" y="-37.5" font-family="Helvetica,sans-Serif" font-size="10.00">+ otherPort</text>
<polyline fill="none" stroke="black" points="533.5,-30.5 678.5,-30.5 "/>
<text text-anchor="start" x="541.5" y="-18.5" font-family="Helvetica,sans-Serif" font-size="10.00">+ __init__()</text>
</a>
</g>
</g>
<!-- Node1&#45;&gt;Node5 -->
<g id="edge4" class="edge">
<title>Node1&#45;&gt;Node5</title>
<path fill="none" stroke="midnightblue" d="M404.07,-149.66C440.9,-137.38 486.18,-120.76 525,-102 532.14,-98.55 539.45,-94.63 546.62,-90.55"/>
<polygon fill="none" stroke="midnightblue" points="402.81,-146.39 394.41,-152.85 405.01,-153.04 402.81,-146.39"/>
</g>
</g>
</svg>
