<?xml version="1.0" encoding="UTF-8" standalone="no"?>
<!DOCTYPE svg PUBLIC "-//W3C//DTD SVG 1.1//EN"
 "http://www.w3.org/Graphics/SVG/1.1/DTD/svg11.dtd">
<!-- Generated by graphviz version 2.43.0 (0)
 -->
<!-- Title: FrequencyDomain Pages: 1 -->
<svg width="276pt" height="430pt"
 viewBox="0.00 0.00 276.00 430.00" xmlns="http://www.w3.org/2000/svg" xmlns:xlink="http://www.w3.org/1999/xlink">
<g id="graph0" class="graph" transform="scale(1 1) rotate(0) translate(4 426)">
<title>FrequencyDomain</title>
<polygon fill="white" stroke="transparent" points="-4,4 -4,-426 272,-426 272,4 -4,4"/>
<!-- Node1 -->
<g id="node1" class="node">
<title>Node1</title>
<g id="a_node1"><a xlink:title="base class for frequency domain elements.">
<polygon fill="#bfbfbf" stroke="black" points="83,-276.5 83,-421.5 199,-421.5 199,-276.5 83,-276.5"/>
<text text-anchor="middle" x="141" y="-409.5" font-family="Helvetica,sans-Serif" font-size="10.00">FrequencyDomain</text>
<polyline fill="none" stroke="black" points="83,-402.5 199,-402.5 "/>
<text text-anchor="start" x="91" y="-390.5" font-family="Helvetica,sans-Serif" font-size="10.00">+ m_f</text>
<polyline fill="none" stroke="black" points="83,-383.5 199,-383.5 "/>
<text text-anchor="start" x="91" y="-371.5" font-family="Helvetica,sans-Serif" font-size="10.00">+ __init__()</text>
<text text-anchor="start" x="91" y="-360.5" font-family="Helvetica,sans-Serif" font-size="10.00">+ FrequencyList()</text>
<text text-anchor="start" x="91" y="-349.5" font-family="Helvetica,sans-Serif" font-size="10.00">+ Frequencies()</text>
<text text-anchor="start" x="91" y="-338.5" font-family="Helvetica,sans-Serif" font-size="10.00">+ Values()</text>
<text text-anchor="start" x="91" y="-327.5" font-family="Helvetica,sans-Serif" font-size="10.00">+ ReadFromFile()</text>
<text text-anchor="start" x="91" y="-316.5" font-family="Helvetica,sans-Serif" font-size="10.00">+ WriteToFile()</text>
<text text-anchor="start" x="91" y="-305.5" font-family="Helvetica,sans-Serif" font-size="10.00">+ __eq__()</text>
<text text-anchor="start" x="91" y="-294.5" font-family="Helvetica,sans-Serif" font-size="10.00">+ __ne__()</text>
<text text-anchor="start" x="91" y="-283.5" font-family="Helvetica,sans-Serif" font-size="10.00">+ LimitEndFrequency()</text>
</a>
</g>
</g>
<!-- Node2 -->
<g id="node2" class="node">
<title>Node2</title>
<g id="a_node2"><a xlink:href="classSignalIntegrity_1_1Lib_1_1FrequencyDomain_1_1FrequencyContent_1_1FrequencyContent.xhtml" target="_top" xlink:title="Handles frequency content of waveforms.">
<polygon fill="white" stroke="black" points="0,-94.5 0,-239.5 140,-239.5 140,-94.5 0,-94.5"/>
<text text-anchor="middle" x="70" y="-227.5" font-family="Helvetica,sans-Serif" font-size="10.00">FrequencyContent</text>
<polyline fill="none" stroke="black" points="0,-220.5 140,-220.5 "/>
<text text-anchor="start" x="8" y="-208.5" font-family="Helvetica,sans-Serif" font-size="10.00">+ td</text>
<text text-anchor="start" x="8" y="-197.5" font-family="Helvetica,sans-Serif" font-size="10.00">+ R</text>
<text text-anchor="start" x="8" y="-186.5" font-family="Helvetica,sans-Serif" font-size="10.00">+ P</text>
<text text-anchor="start" x="8" y="-175.5" font-family="Helvetica,sans-Serif" font-size="10.00">+ LogRP10</text>
<text text-anchor="start" x="8" y="-164.5" font-family="Helvetica,sans-Serif" font-size="10.00">+ dB3</text>
<text text-anchor="start" x="8" y="-153.5" font-family="Helvetica,sans-Serif" font-size="10.00">+ dB6</text>
<polyline fill="none" stroke="black" points="0,-146.5 140,-146.5 "/>
<text text-anchor="start" x="8" y="-134.5" font-family="Helvetica,sans-Serif" font-size="10.00">+ __init__()</text>
<text text-anchor="start" x="8" y="-123.5" font-family="Helvetica,sans-Serif" font-size="10.00">+ Values()</text>
<text text-anchor="start" x="8" y="-112.5" font-family="Helvetica,sans-Serif" font-size="10.00">+ Waveform()</text>
<text text-anchor="start" x="8" y="-101.5" font-family="Helvetica,sans-Serif" font-size="10.00">+ WaveformFromDefinition()</text>
</a>
</g>
</g>
<!-- Node1&#45;&gt;Node2 -->
<g id="edge1" class="edge">
<title>Node1&#45;&gt;Node2</title>
<path fill="none" stroke="midnightblue" d="M109.03,-266.94C105.44,-257.86 101.81,-248.66 98.28,-239.71"/>
<polygon fill="none" stroke="midnightblue" points="105.81,-268.32 112.73,-276.34 112.32,-265.76 105.81,-268.32"/>
</g>
<!-- Node3 -->
<g id="node3" class="node">
<title>Node3</title>
<g id="a_node3"><a xlink:href="classSignalIntegrity_1_1Lib_1_1FrequencyDomain_1_1FrequencyResponse_1_1FrequencyResponse.xhtml" target="_top" xlink:title="FrequencyResponse &#160;&#160;Frequency response view of a waveform assumed computed from the FrequencyResponse...">
<polygon fill="white" stroke="black" points="158,-116.5 158,-217.5 268,-217.5 268,-116.5 158,-116.5"/>
<text text-anchor="middle" x="213" y="-205.5" font-family="Helvetica,sans-Serif" font-size="10.00">FrequencyResponse</text>
<polyline fill="none" stroke="black" points="158,-198.5 268,-198.5 "/>
<text text-anchor="start" x="166" y="-186.5" font-family="Helvetica,sans-Serif" font-size="10.00">+ oldSpline</text>
<polyline fill="none" stroke="black" points="158,-179.5 268,-179.5 "/>
<text text-anchor="start" x="166" y="-167.5" font-family="Helvetica,sans-Serif" font-size="10.00">+ __init__()</text>
<text text-anchor="start" x="166" y="-156.5" font-family="Helvetica,sans-Serif" font-size="10.00">+ Response()</text>
<text text-anchor="start" x="166" y="-145.5" font-family="Helvetica,sans-Serif" font-size="10.00">+ ImpulseResponse()</text>
<text text-anchor="start" x="166" y="-134.5" font-family="Helvetica,sans-Serif" font-size="10.00">+ Resample()</text>
<text text-anchor="start" x="166" y="-123.5" font-family="Helvetica,sans-Serif" font-size="10.00">+ ResampleCZT()</text>
</a>
</g>
</g>
<!-- Node1&#45;&gt;Node3 -->
<g id="edge2" class="edge">
<title>Node1&#45;&gt;Node3</title>
<path fill="none" stroke="midnightblue" d="M173.39,-267.03C180.13,-250.16 187.05,-232.87 193.18,-217.55"/>
<polygon fill="none" stroke="midnightblue" points="170.13,-265.76 169.66,-276.34 176.63,-268.36 170.13,-265.76"/>
</g>
<!-- Node4 -->
<g id="node4" class="node">
<title>Node4</title>
<g id="a_node4"><a xlink:href="classSignalIntegrity_1_1Lib_1_1FrequencyDomain_1_1Differentiator_1_1Differentiator.xhtml" target="_top" xlink:title="Frequency response of a differentiator.">
<polygon fill="white" stroke="black" points="176.5,-0.5 176.5,-57.5 249.5,-57.5 249.5,-0.5 176.5,-0.5"/>
<text text-anchor="middle" x="213" y="-45.5" font-family="Helvetica,sans-Serif" font-size="10.00">Differentiator</text>
<polyline fill="none" stroke="black" points="176.5,-38.5 249.5,-38.5 "/>
<text text-anchor="middle" x="213" y="-26.5" font-family="Helvetica,sans-Serif" font-size="10.00"> </text>
<polyline fill="none" stroke="black" points="176.5,-19.5 249.5,-19.5 "/>
<text text-anchor="start" x="184.5" y="-7.5" font-family="Helvetica,sans-Serif" font-size="10.00">+ __init__()</text>
</a>
</g>
</g>
<!-- Node3&#45;&gt;Node4 -->
<g id="edge3" class="edge">
<title>Node3&#45;&gt;Node4</title>
<path fill="none" stroke="midnightblue" d="M213,-105.81C213,-89.04 213,-71.63 213,-57.73"/>
<polygon fill="none" stroke="midnightblue" points="209.5,-106.13 213,-116.13 216.5,-106.13 209.5,-106.13"/>
</g>
</g>
</svg>
