<?xml version="1.0" encoding="UTF-8" standalone="no"?>
<!DOCTYPE svg PUBLIC "-//W3C//DTD SVG 1.1//EN"
 "http://www.w3.org/Graphics/SVG/1.1/DTD/svg11.dtd">
<!-- Generated by graphviz version 2.43.0 (0)
 -->
<!-- Title: WaveformTrimmer Pages: 1 -->
<svg width="222pt" height="292pt"
 viewBox="0.00 0.00 221.50 292.00" xmlns="http://www.w3.org/2000/svg" xmlns:xlink="http://www.w3.org/1999/xlink">
<g id="graph0" class="graph" transform="scale(1 1) rotate(0) translate(4 288)">
<title>WaveformTrimmer</title>
<polygon fill="white" stroke="transparent" points="-4,4 -4,-288 217.5,-288 217.5,4 -4,4"/>
<!-- Node1 -->
<g id="node1" class="node">
<title>Node1</title>
<g id="a_node1"><a xlink:title="trims waveforms">
<polygon fill="#bfbfbf" stroke="black" points="43.5,-0.5 43.5,-79.5 155.5,-79.5 155.5,-0.5 43.5,-0.5"/>
<text text-anchor="middle" x="99.5" y="-67.5" font-family="Helvetica,sans-Serif" font-size="10.00">WaveformTrimmer</text>
<polyline fill="none" stroke="black" points="43.5,-60.5 155.5,-60.5 "/>
<text text-anchor="middle" x="99.5" y="-48.5" font-family="Helvetica,sans-Serif" font-size="10.00"> </text>
<polyline fill="none" stroke="black" points="43.5,-41.5 155.5,-41.5 "/>
<text text-anchor="start" x="51.5" y="-29.5" font-family="Helvetica,sans-Serif" font-size="10.00">+ __init__()</text>
<text text-anchor="start" x="51.5" y="-18.5" font-family="Helvetica,sans-Serif" font-size="10.00">+ ProcessWaveform()</text>
<text text-anchor="start" x="51.5" y="-7.5" font-family="Helvetica,sans-Serif" font-size="10.00">+ TrimWaveform()</text>
</a>
</g>
</g>
<!-- Node2 -->
<g id="node2" class="node">
<title>Node2</title>
<g id="a_node2"><a xlink:href="classSignalIntegrity_1_1Lib_1_1TimeDomain_1_1Filters_1_1FilterDescriptor_1_1FilterDescriptor.xhtml" target="_top" xlink:title="FilterDescriptor.py.">
<polygon fill="white" stroke="black" points="0,-116.5 0,-283.5 83,-283.5 83,-116.5 0,-116.5"/>
<text text-anchor="middle" x="41.5" y="-271.5" font-family="Helvetica,sans-Serif" font-size="10.00">FilterDescriptor</text>
<polyline fill="none" stroke="black" points="0,-264.5 83,-264.5 "/>
<text text-anchor="start" x="8" y="-252.5" font-family="Helvetica,sans-Serif" font-size="10.00">+ U</text>
<text text-anchor="start" x="8" y="-241.5" font-family="Helvetica,sans-Serif" font-size="10.00">+ D</text>
<text text-anchor="start" x="8" y="-230.5" font-family="Helvetica,sans-Serif" font-size="10.00">+ S</text>
<polyline fill="none" stroke="black" points="0,-223.5 83,-223.5 "/>
<text text-anchor="start" x="8" y="-211.5" font-family="Helvetica,sans-Serif" font-size="10.00">+ __init__()</text>
<text text-anchor="start" x="8" y="-200.5" font-family="Helvetica,sans-Serif" font-size="10.00">+ __eq__()</text>
<text text-anchor="start" x="8" y="-189.5" font-family="Helvetica,sans-Serif" font-size="10.00">+ __mul__()</text>
<text text-anchor="start" x="8" y="-178.5" font-family="Helvetica,sans-Serif" font-size="10.00">+ Before()</text>
<text text-anchor="start" x="8" y="-167.5" font-family="Helvetica,sans-Serif" font-size="10.00">+ After()</text>
<text text-anchor="start" x="8" y="-156.5" font-family="Helvetica,sans-Serif" font-size="10.00">+ TrimLeft()</text>
<text text-anchor="start" x="8" y="-145.5" font-family="Helvetica,sans-Serif" font-size="10.00">+ TrimRight()</text>
<text text-anchor="start" x="8" y="-134.5" font-family="Helvetica,sans-Serif" font-size="10.00">+ TrimTotal()</text>
<text text-anchor="start" x="8" y="-123.5" font-family="Helvetica,sans-Serif" font-size="10.00">+ Print()</text>
</a>
</g>
</g>
<!-- Node2&#45;&gt;Node1 -->
<g id="edge1" class="edge">
<title>Node2&#45;&gt;Node1</title>
<path fill="none" stroke="midnightblue" d="M75.38,-106.71C78.87,-97.19 82.27,-87.94 85.36,-79.52"/>
<polygon fill="none" stroke="midnightblue" points="72.02,-105.7 71.86,-116.3 78.59,-108.12 72.02,-105.7"/>
</g>
<!-- Node3 -->
<g id="node3" class="node">
<title>Node3</title>
<g id="a_node3"><a xlink:href="classSignalIntegrity_1_1Lib_1_1TimeDomain_1_1Filters_1_1WaveformProcessor_1_1WaveformProcessor.xhtml" target="_top" xlink:title="WaveformProcessor.py.">
<polygon fill="white" stroke="black" points="101.5,-171.5 101.5,-228.5 213.5,-228.5 213.5,-171.5 101.5,-171.5"/>
<text text-anchor="middle" x="157.5" y="-216.5" font-family="Helvetica,sans-Serif" font-size="10.00">WaveformProcessor</text>
<polyline fill="none" stroke="black" points="101.5,-209.5 213.5,-209.5 "/>
<text text-anchor="middle" x="157.5" y="-197.5" font-family="Helvetica,sans-Serif" font-size="10.00"> </text>
<polyline fill="none" stroke="black" points="101.5,-190.5 213.5,-190.5 "/>
<text text-anchor="start" x="109.5" y="-178.5" font-family="Helvetica,sans-Serif" font-size="10.00">+ ProcessWaveform()</text>
</a>
</g>
</g>
<!-- Node3&#45;&gt;Node1 -->
<g id="edge2" class="edge">
<title>Node3&#45;&gt;Node1</title>
<path fill="none" stroke="midnightblue" d="M143.95,-162.08C134.87,-137.35 122.94,-104.85 113.72,-79.75"/>
<polygon fill="none" stroke="midnightblue" points="140.67,-163.3 147.4,-171.48 147.24,-160.88 140.67,-163.3"/>
</g>
</g>
</svg>
