<?xml version="1.0" encoding="UTF-8" standalone="no"?>
<!DOCTYPE svg PUBLIC "-//W3C//DTD SVG 1.1//EN"
 "http://www.w3.org/Graphics/SVG/1.1/DTD/svg11.dtd">
<!-- Generated by graphviz version 2.43.0 (0)
 -->
<!-- Title: Wavelet Pages: 1 -->
<svg width="652pt" height="215pt"
 viewBox="0.00 0.00 652.00 215.00" xmlns="http://www.w3.org/2000/svg" xmlns:xlink="http://www.w3.org/1999/xlink">
<g id="graph0" class="graph" transform="scale(1 1) rotate(0) translate(4 211)">
<title>Wavelet</title>
<polygon fill="white" stroke="transparent" points="-4,4 -4,-211 648,-211 648,4 -4,4"/>
<!-- Node1 -->
<g id="node1" class="node">
<title>Node1</title>
<g id="a_node1"><a xlink:title="base class that performs forward and inverse wavelet transforms">
<polygon fill="#bfbfbf" stroke="black" points="312,-94.5 312,-206.5 384,-206.5 384,-94.5 312,-94.5"/>
<text text-anchor="middle" x="348" y="-194.5" font-family="Helvetica,sans-Serif" font-size="10.00">Wavelet</text>
<polyline fill="none" stroke="black" points="312,-187.5 384,-187.5 "/>
<text text-anchor="start" x="320" y="-175.5" font-family="Helvetica,sans-Serif" font-size="10.00">+ h</text>
<text text-anchor="start" x="320" y="-164.5" font-family="Helvetica,sans-Serif" font-size="10.00">+ L</text>
<text text-anchor="start" x="320" y="-153.5" font-family="Helvetica,sans-Serif" font-size="10.00">+ g</text>
<polyline fill="none" stroke="black" points="312,-146.5 384,-146.5 "/>
<text text-anchor="start" x="320" y="-134.5" font-family="Helvetica,sans-Serif" font-size="10.00">+ __init__()</text>
<text text-anchor="start" x="320" y="-123.5" font-family="Helvetica,sans-Serif" font-size="10.00">+ DWT()</text>
<text text-anchor="start" x="320" y="-112.5" font-family="Helvetica,sans-Serif" font-size="10.00">+ IDWT()</text>
<text text-anchor="start" x="320" y="-101.5" font-family="Helvetica,sans-Serif" font-size="10.00">+ intlog2()</text>
</a>
</g>
</g>
<!-- Node2 -->
<g id="node2" class="node">
<title>Node2</title>
<g id="a_node2"><a xlink:href="classSignalIntegrity_1_1Lib_1_1Wavelets_1_1Wavelets_1_1WaveletDaubechies14.xhtml" target="_top" xlink:title="14 tap Daubechies wavelet transformer">
<polygon fill="white" stroke="black" points="0,-0.5 0,-57.5 126,-57.5 126,-0.5 0,-0.5"/>
<text text-anchor="middle" x="63" y="-45.5" font-family="Helvetica,sans-Serif" font-size="10.00">WaveletDaubechies14</text>
<polyline fill="none" stroke="black" points="0,-38.5 126,-38.5 "/>
<text text-anchor="middle" x="63" y="-26.5" font-family="Helvetica,sans-Serif" font-size="10.00"> </text>
<polyline fill="none" stroke="black" points="0,-19.5 126,-19.5 "/>
<text text-anchor="start" x="8" y="-7.5" font-family="Helvetica,sans-Serif" font-size="10.00">+ __init__()</text>
</a>
</g>
</g>
<!-- Node1&#45;&gt;Node2 -->
<g id="edge1" class="edge">
<title>Node1&#45;&gt;Node2</title>
<path fill="none" stroke="midnightblue" d="M302.46,-130.4C254.78,-110.41 179.55,-78.87 126.15,-56.48"/>
<polygon fill="none" stroke="midnightblue" points="301.33,-133.73 311.9,-134.37 304.04,-127.27 301.33,-133.73"/>
</g>
<!-- Node3 -->
<g id="node3" class="node">
<title>Node3</title>
<g id="a_node3"><a xlink:href="classSignalIntegrity_1_1Lib_1_1Wavelets_1_1Wavelets_1_1WaveletDaubechies16.xhtml" target="_top" xlink:title="16 tap Daubechies wavelet transformer">
<polygon fill="white" stroke="black" points="144,-0.5 144,-57.5 270,-57.5 270,-0.5 144,-0.5"/>
<text text-anchor="middle" x="207" y="-45.5" font-family="Helvetica,sans-Serif" font-size="10.00">WaveletDaubechies16</text>
<polyline fill="none" stroke="black" points="144,-38.5 270,-38.5 "/>
<text text-anchor="middle" x="207" y="-26.5" font-family="Helvetica,sans-Serif" font-size="10.00"> </text>
<polyline fill="none" stroke="black" points="144,-19.5 270,-19.5 "/>
<text text-anchor="start" x="152" y="-7.5" font-family="Helvetica,sans-Serif" font-size="10.00">+ __init__()</text>
</a>
</g>
</g>
<!-- Node1&#45;&gt;Node3 -->
<g id="edge2" class="edge">
<title>Node1&#45;&gt;Node3</title>
<path fill="none" stroke="midnightblue" d="M303.94,-112.15C283.2,-94.58 258.9,-73.98 239.81,-57.81"/>
<polygon fill="none" stroke="midnightblue" points="301.8,-114.93 311.69,-118.73 306.32,-109.59 301.8,-114.93"/>
</g>
<!-- Node4 -->
<g id="node4" class="node">
<title>Node4</title>
<g id="a_node4"><a xlink:href="classSignalIntegrity_1_1Lib_1_1Wavelets_1_1Wavelets_1_1WaveletDaubechies4.xhtml" target="_top" xlink:title="4 tap Daubechies wavelet transformer">
<polygon fill="white" stroke="black" points="288,-0.5 288,-57.5 408,-57.5 408,-0.5 288,-0.5"/>
<text text-anchor="middle" x="348" y="-45.5" font-family="Helvetica,sans-Serif" font-size="10.00">WaveletDaubechies4</text>
<polyline fill="none" stroke="black" points="288,-38.5 408,-38.5 "/>
<text text-anchor="middle" x="348" y="-26.5" font-family="Helvetica,sans-Serif" font-size="10.00"> </text>
<polyline fill="none" stroke="black" points="288,-19.5 408,-19.5 "/>
<text text-anchor="start" x="296" y="-7.5" font-family="Helvetica,sans-Serif" font-size="10.00">+ __init__()</text>
</a>
</g>
</g>
<!-- Node1&#45;&gt;Node4 -->
<g id="edge3" class="edge">
<title>Node1&#45;&gt;Node4</title>
<path fill="none" stroke="midnightblue" d="M348,-84.15C348,-74.82 348,-65.67 348,-57.63"/>
<polygon fill="none" stroke="midnightblue" points="344.5,-84.3 348,-94.3 351.5,-84.3 344.5,-84.3"/>
</g>
<!-- Node5 -->
<g id="node5" class="node">
<title>Node5</title>
<g id="a_node5"><a xlink:href="classSignalIntegrity_1_1Lib_1_1Wavelets_1_1Wavelets_1_1WaveletDaubechies8.xhtml" target="_top" xlink:title="8 tap Daubechies wavelet transformer">
<polygon fill="white" stroke="black" points="426,-0.5 426,-57.5 546,-57.5 546,-0.5 426,-0.5"/>
<text text-anchor="middle" x="486" y="-45.5" font-family="Helvetica,sans-Serif" font-size="10.00">WaveletDaubechies8</text>
<polyline fill="none" stroke="black" points="426,-38.5 546,-38.5 "/>
<text text-anchor="middle" x="486" y="-26.5" font-family="Helvetica,sans-Serif" font-size="10.00"> </text>
<polyline fill="none" stroke="black" points="426,-19.5 546,-19.5 "/>
<text text-anchor="start" x="434" y="-7.5" font-family="Helvetica,sans-Serif" font-size="10.00">+ __init__()</text>
</a>
</g>
</g>
<!-- Node1&#45;&gt;Node5 -->
<g id="edge4" class="edge">
<title>Node1&#45;&gt;Node5</title>
<path fill="none" stroke="midnightblue" d="M391.84,-111.54C412.09,-94 435.7,-73.56 454.21,-57.53"/>
<polygon fill="none" stroke="midnightblue" points="389.53,-108.91 384.26,-118.1 394.11,-114.2 389.53,-108.91"/>
</g>
<!-- Node6 -->
<g id="node6" class="node">
<title>Node6</title>
<g id="a_node6"><a xlink:href="classSignalIntegrity_1_1Lib_1_1Wavelets_1_1Wavelets_1_1WaveletHaar.xhtml" target="_top" xlink:title="2 tap Haar wavelet transformer">
<polygon fill="white" stroke="black" points="564,-0.5 564,-57.5 644,-57.5 644,-0.5 564,-0.5"/>
<text text-anchor="middle" x="604" y="-45.5" font-family="Helvetica,sans-Serif" font-size="10.00">WaveletHaar</text>
<polyline fill="none" stroke="black" points="564,-38.5 644,-38.5 "/>
<text text-anchor="middle" x="604" y="-26.5" font-family="Helvetica,sans-Serif" font-size="10.00"> </text>
<polyline fill="none" stroke="black" points="564,-19.5 644,-19.5 "/>
<text text-anchor="start" x="572" y="-7.5" font-family="Helvetica,sans-Serif" font-size="10.00">+ __init__()</text>
</a>
</g>
</g>
<!-- Node1&#45;&gt;Node6 -->
<g id="edge5" class="edge">
<title>Node1&#45;&gt;Node6</title>
<path fill="none" stroke="midnightblue" d="M393.53,-130.97C435.89,-113.35 500.5,-85.53 555,-58 557.89,-56.54 560.84,-55 563.8,-53.41"/>
<polygon fill="none" stroke="midnightblue" points="391.95,-127.83 384.05,-134.89 394.63,-134.3 391.95,-127.83"/>
</g>
</g>
</svg>
