<?xml version="1.0" encoding="UTF-8" standalone="no"?>
<!DOCTYPE svg PUBLIC "-//W3C//DTD SVG 1.1//EN"
 "http://www.w3.org/Graphics/SVG/1.1/DTD/svg11.dtd">
<!-- Generated by graphviz version 2.43.0 (0)
 -->
<!-- Title: SystemDescriptionParser Pages: 1 -->
<svg width="214pt" height="358pt"
 viewBox="0.00 0.00 214.00 358.00" xmlns="http://www.w3.org/2000/svg" xmlns:xlink="http://www.w3.org/1999/xlink">
<g id="graph0" class="graph" transform="scale(1 1) rotate(0) translate(4 354)">
<title>SystemDescriptionParser</title>
<polygon fill="white" stroke="transparent" points="-4,4 -4,-354 210,-354 210,4 -4,4"/>
<!-- Node1 -->
<g id="node1" class="node">
<title>Node1</title>
<g id="a_node1"><a xlink:title="Parses netlists and produces system descriptions.">
<polygon fill="#bfbfbf" stroke="black" points="32,-0.5 32,-222.5 160,-222.5 160,-0.5 32,-0.5"/>
<text text-anchor="middle" x="96" y="-210.5" font-family="Helvetica,sans-Serif" font-size="10.00">SystemDescriptionParser</text>
<polyline fill="none" stroke="black" points="32,-203.5 160,-203.5 "/>
<text text-anchor="start" x="40" y="-191.5" font-family="Helvetica,sans-Serif" font-size="10.00">+ m_sd</text>
<text text-anchor="start" x="40" y="-180.5" font-family="Helvetica,sans-Serif" font-size="10.00">+ m_f</text>
<text text-anchor="start" x="40" y="-169.5" font-family="Helvetica,sans-Serif" font-size="10.00">+ m_lines</text>
<text text-anchor="start" x="40" y="-158.5" font-family="Helvetica,sans-Serif" font-size="10.00">+ m_addThru</text>
<text text-anchor="start" x="40" y="-147.5" font-family="Helvetica,sans-Serif" font-size="10.00">+ known</text>
<text text-anchor="start" x="40" y="-136.5" font-family="Helvetica,sans-Serif" font-size="10.00">+ callback</text>
<text text-anchor="start" x="40" y="-125.5" font-family="Helvetica,sans-Serif" font-size="10.00">+ m_Z0</text>
<text text-anchor="start" x="40" y="-114.5" font-family="Helvetica,sans-Serif" font-size="10.00">+ delayDict</text>
<text text-anchor="start" x="40" y="-103.5" font-family="Helvetica,sans-Serif" font-size="10.00">+ m_spc</text>
<text text-anchor="start" x="40" y="-92.5" font-family="Helvetica,sans-Serif" font-size="10.00">+ m_spcl</text>
<text text-anchor="start" x="40" y="-81.5" font-family="Helvetica,sans-Serif" font-size="10.00">+ m_ul</text>
<text text-anchor="start" x="40" y="-70.5" font-family="Helvetica,sans-Serif" font-size="10.00">+ MultiPortTee</text>
<polyline fill="none" stroke="black" points="32,-63.5 160,-63.5 "/>
<text text-anchor="start" x="40" y="-51.5" font-family="Helvetica,sans-Serif" font-size="10.00">+ __init__()</text>
<text text-anchor="start" x="40" y="-40.5" font-family="Helvetica,sans-Serif" font-size="10.00">+ SystemDescription()</text>
<text text-anchor="start" x="40" y="-29.5" font-family="Helvetica,sans-Serif" font-size="10.00">+ AddKnownDevices()</text>
<text text-anchor="start" x="40" y="-18.5" font-family="Helvetica,sans-Serif" font-size="10.00">+ AddLine()</text>
<text text-anchor="start" x="40" y="-7.5" font-family="Helvetica,sans-Serif" font-size="10.00">+ AddLines()</text>
</a>
</g>
</g>
<!-- Node2 -->
<g id="node2" class="node">
<title>Node2</title>
<g id="a_node2"><a xlink:href="classSignalIntegrity_1_1Lib_1_1Parsers_1_1ParserFile_1_1ParserFile.xhtml" target="_top" xlink:title="file handling base class for parsers">
<polygon fill="white" stroke="black" points="0,-270.5 0,-338.5 80,-338.5 80,-270.5 0,-270.5"/>
<text text-anchor="middle" x="40" y="-326.5" font-family="Helvetica,sans-Serif" font-size="10.00">ParserFile</text>
<polyline fill="none" stroke="black" points="0,-319.5 80,-319.5 "/>
<text text-anchor="middle" x="40" y="-307.5" font-family="Helvetica,sans-Serif" font-size="10.00"> </text>
<polyline fill="none" stroke="black" points="0,-300.5 80,-300.5 "/>
<text text-anchor="start" x="8" y="-288.5" font-family="Helvetica,sans-Serif" font-size="10.00">+ File()</text>
<text text-anchor="start" x="8" y="-277.5" font-family="Helvetica,sans-Serif" font-size="10.00">+ WriteToFile()</text>
</a>
</g>
</g>
<!-- Node2&#45;&gt;Node1 -->
<g id="edge1" class="edge">
<title>Node2&#45;&gt;Node1</title>
<path fill="none" stroke="midnightblue" d="M52.59,-260.57C55.94,-249.13 59.73,-236.21 63.63,-222.91"/>
<polygon fill="none" stroke="midnightblue" points="49.21,-259.65 49.75,-270.23 55.93,-261.62 49.21,-259.65"/>
</g>
<!-- Node3 -->
<g id="node3" class="node">
<title>Node3</title>
<g id="a_node3"><a xlink:href="classSignalIntegrity_1_1Lib_1_1Parsers_1_1ParserArgs_1_1ParserArgs.xhtml" target="_top" xlink:title="argument handling base class for parsers">
<polygon fill="white" stroke="black" points="98,-259.5 98,-349.5 206,-349.5 206,-259.5 98,-259.5"/>
<text text-anchor="middle" x="152" y="-337.5" font-family="Helvetica,sans-Serif" font-size="10.00">ParserArgs</text>
<polyline fill="none" stroke="black" points="98,-330.5 206,-330.5 "/>
<text text-anchor="start" x="106" y="-318.5" font-family="Helvetica,sans-Serif" font-size="10.00">+ m_vars</text>
<text text-anchor="start" x="106" y="-307.5" font-family="Helvetica,sans-Serif" font-size="10.00">+ m_args</text>
<polyline fill="none" stroke="black" points="98,-300.5 206,-300.5 "/>
<text text-anchor="start" x="106" y="-288.5" font-family="Helvetica,sans-Serif" font-size="10.00">+ AssignArguments()</text>
<text text-anchor="start" x="106" y="-277.5" font-family="Helvetica,sans-Serif" font-size="10.00">+ ReplaceArgs()</text>
<text text-anchor="start" x="106" y="-266.5" font-family="Helvetica,sans-Serif" font-size="10.00">+ ProcessVariables()</text>
</a>
</g>
</g>
<!-- Node3&#45;&gt;Node1 -->
<g id="edge2" class="edge">
<title>Node3&#45;&gt;Node1</title>
<path fill="none" stroke="midnightblue" d="M136.17,-249.52C133.69,-241.04 131.04,-232.02 128.34,-222.81"/>
<polygon fill="none" stroke="midnightblue" points="132.84,-250.59 139.01,-259.2 139.56,-248.62 132.84,-250.59"/>
</g>
</g>
</svg>
