<?xml version="1.0" encoding="UTF-8" standalone="no"?>
<!DOCTYPE svg PUBLIC "-//W3C//DTD SVG 1.1//EN"
 "http://www.w3.org/Graphics/SVG/1.1/DTD/svg11.dtd">
<!-- Generated by graphviz version 2.40.1 (20161225.0304)
 -->
<!-- Title: WaveformDecimator Pages: 1 -->
<svg width="222pt" height="303pt"
 viewBox="0.00 0.00 222.00 303.00" xmlns="http://www.w3.org/2000/svg" xmlns:xlink="http://www.w3.org/1999/xlink">
<g id="graph0" class="graph" transform="scale(1 1) rotate(0) translate(4 299)">
<title>WaveformDecimator</title>
<polygon fill="#ffffff" stroke="transparent" points="-4,4 -4,-299 218,-299 218,4 -4,4"/>
<!-- Node3 -->
<g id="node1" class="node">
<title>Node3</title>
<polygon fill="#bfbfbf" stroke="#000000" points="40,-.5 40,-90.5 159,-90.5 159,-.5 40,-.5"/>
<text text-anchor="middle" x="99.5" y="-78.5" font-family="Helvetica,sans-Serif" font-size="10.00" fill="#000000">WaveformDecimator</text>
<polyline fill="none" stroke="#000000" points="40,-71.5 159,-71.5 "/>
<text text-anchor="start" x="48" y="-59.5" font-family="Helvetica,sans-Serif" font-size="10.00" fill="#000000">+ df</text>
<text text-anchor="start" x="48" y="-48.5" font-family="Helvetica,sans-Serif" font-size="10.00" fill="#000000">+ dph</text>
<polyline fill="none" stroke="#000000" points="40,-41.5 159,-41.5 "/>
<text text-anchor="start" x="48" y="-29.5" font-family="Helvetica,sans-Serif" font-size="10.00" fill="#000000">+ __init__()</text>
<text text-anchor="start" x="48" y="-18.5" font-family="Helvetica,sans-Serif" font-size="10.00" fill="#000000">+ ProcessWaveform()</text>
<text text-anchor="start" x="48" y="-7.5" font-family="Helvetica,sans-Serif" font-size="10.00" fill="#000000">+ DecimateWaveform()</text>
</g>
<!-- Node4 -->
<g id="node2" class="node">
<title>Node4</title>
<g id="a_node2"><a xlink:href="classSignalIntegrity_1_1TimeDomain_1_1Filters_1_1FilterDescriptor_1_1FilterDescriptor.xhtml" target="_top" xlink:title="FilterDescriptor.py. ">
<polygon fill="#ffffff" stroke="#000000" points="0,-127.5 0,-294.5 83,-294.5 83,-127.5 0,-127.5"/>
<text text-anchor="middle" x="41.5" y="-282.5" font-family="Helvetica,sans-Serif" font-size="10.00" fill="#000000">FilterDescriptor</text>
<polyline fill="none" stroke="#000000" points="0,-275.5 83,-275.5 "/>
<text text-anchor="start" x="8" y="-263.5" font-family="Helvetica,sans-Serif" font-size="10.00" fill="#000000">+ U</text>
<text text-anchor="start" x="8" y="-252.5" font-family="Helvetica,sans-Serif" font-size="10.00" fill="#000000">+ D</text>
<text text-anchor="start" x="8" y="-241.5" font-family="Helvetica,sans-Serif" font-size="10.00" fill="#000000">+ S</text>
<polyline fill="none" stroke="#000000" points="0,-234.5 83,-234.5 "/>
<text text-anchor="start" x="8" y="-222.5" font-family="Helvetica,sans-Serif" font-size="10.00" fill="#000000">+ __init__()</text>
<text text-anchor="start" x="8" y="-211.5" font-family="Helvetica,sans-Serif" font-size="10.00" fill="#000000">+ __eq__()</text>
<text text-anchor="start" x="8" y="-200.5" font-family="Helvetica,sans-Serif" font-size="10.00" fill="#000000">+ __mul__()</text>
<text text-anchor="start" x="8" y="-189.5" font-family="Helvetica,sans-Serif" font-size="10.00" fill="#000000">+ Before()</text>
<text text-anchor="start" x="8" y="-178.5" font-family="Helvetica,sans-Serif" font-size="10.00" fill="#000000">+ After()</text>
<text text-anchor="start" x="8" y="-167.5" font-family="Helvetica,sans-Serif" font-size="10.00" fill="#000000">+ TrimLeft()</text>
<text text-anchor="start" x="8" y="-156.5" font-family="Helvetica,sans-Serif" font-size="10.00" fill="#000000">+ TrimRight()</text>
<text text-anchor="start" x="8" y="-145.5" font-family="Helvetica,sans-Serif" font-size="10.00" fill="#000000">+ TrimTotal()</text>
<text text-anchor="start" x="8" y="-134.5" font-family="Helvetica,sans-Serif" font-size="10.00" fill="#000000">+ Print()</text>
</a>
</g>
</g>
<!-- Node4&#45;&gt;Node3 -->
<g id="edge1" class="edge">
<title>Node4&#45;&gt;Node3</title>
<path fill="none" stroke="#191970" d="M74.1609,-117.8039C77.4669,-108.3703 80.7085,-99.1207 83.7099,-90.5562"/>
<polygon fill="none" stroke="#191970" points="70.8442,-116.6855 70.8398,-127.2803 77.4503,-119.0006 70.8442,-116.6855"/>
</g>
<!-- Node5 -->
<g id="node3" class="node">
<title>Node5</title>
<g id="a_node3"><a xlink:href="classSignalIntegrity_1_1TimeDomain_1_1Filters_1_1WaveformProcessor_1_1WaveformProcessor.xhtml" target="_top" xlink:title="WaveformProcessor.py. ">
<polygon fill="#ffffff" stroke="#000000" points="101,-182.5 101,-239.5 214,-239.5 214,-182.5 101,-182.5"/>
<text text-anchor="middle" x="157.5" y="-227.5" font-family="Helvetica,sans-Serif" font-size="10.00" fill="#000000">WaveformProcessor</text>
<polyline fill="none" stroke="#000000" points="101,-220.5 214,-220.5 "/>
<text text-anchor="middle" x="157.5" y="-208.5" font-family="Helvetica,sans-Serif" font-size="10.00" fill="#000000"> </text>
<polyline fill="none" stroke="#000000" points="101,-201.5 214,-201.5 "/>
<text text-anchor="start" x="109" y="-189.5" font-family="Helvetica,sans-Serif" font-size="10.00" fill="#000000">+ ProcessWaveform()</text>
</a>
</g>
</g>
<!-- Node5&#45;&gt;Node3 -->
<g id="edge2" class="edge">
<title>Node5&#45;&gt;Node3</title>
<path fill="none" stroke="#191970" d="M144.0073,-172.4993C135.4223,-148.0023 124.2685,-116.1757 115.2745,-90.5118"/>
<polygon fill="none" stroke="#191970" points="140.7868,-173.8924 147.3972,-182.1721 147.3928,-171.5773 140.7868,-173.8924"/>
</g>
</g>
</svg>
