<?xml version="1.0" encoding="UTF-8" standalone="no"?>
<!DOCTYPE svg PUBLIC "-//W3C//DTD SVG 1.1//EN"
 "http://www.w3.org/Graphics/SVG/1.1/DTD/svg11.dtd">
<!-- Generated by graphviz version 2.40.1 (20161225.0304)
 -->
<!-- Title: SParameters Pages: 1 -->
<svg width="2959pt" height="678pt"
 viewBox="0.00 0.00 2958.50 678.00" xmlns="http://www.w3.org/2000/svg" xmlns:xlink="http://www.w3.org/1999/xlink">
<g id="graph0" class="graph" transform="scale(1 1) rotate(0) translate(4 674)">
<title>SParameters</title>
<polygon fill="#ffffff" stroke="transparent" points="-4,4 -4,-674 2954.5,-674 2954.5,4 -4,4"/>
<!-- Node0 -->
<g id="node1" class="node">
<title>Node0</title>
<polygon fill="#bfbfbf" stroke="#000000" points="1238.5,-254.5 1238.5,-465.5 1378.5,-465.5 1378.5,-254.5 1238.5,-254.5"/>
<text text-anchor="middle" x="1308.5" y="-453.5" font-family="Helvetica,sans-Serif" font-size="10.00" fill="#000000">SParameters</text>
<polyline fill="none" stroke="#000000" points="1238.5,-446.5 1378.5,-446.5 "/>
<text text-anchor="start" x="1246.5" y="-434.5" font-family="Helvetica,sans-Serif" font-size="10.00" fill="#000000">+ m_sToken</text>
<text text-anchor="start" x="1246.5" y="-423.5" font-family="Helvetica,sans-Serif" font-size="10.00" fill="#000000">+ m_d</text>
<text text-anchor="start" x="1246.5" y="-412.5" font-family="Helvetica,sans-Serif" font-size="10.00" fill="#000000">+ m_Z0</text>
<text text-anchor="start" x="1246.5" y="-401.5" font-family="Helvetica,sans-Serif" font-size="10.00" fill="#000000">+ m_f</text>
<text text-anchor="start" x="1246.5" y="-390.5" font-family="Helvetica,sans-Serif" font-size="10.00" fill="#000000">+ m_P</text>
<text text-anchor="start" x="1246.5" y="-379.5" font-family="Helvetica,sans-Serif" font-size="10.00" fill="#000000">+ header</text>
<text text-anchor="start" x="1246.5" y="-368.5" font-family="Helvetica,sans-Serif" font-size="10.00" fill="#000000">+ maxTokensOnLine</text>
<polyline fill="none" stroke="#000000" points="1238.5,-361.5 1378.5,-361.5 "/>
<text text-anchor="start" x="1246.5" y="-349.5" font-family="Helvetica,sans-Serif" font-size="10.00" fill="#000000">+ __init__()</text>
<text text-anchor="start" x="1246.5" y="-338.5" font-family="Helvetica,sans-Serif" font-size="10.00" fill="#000000">+ __getitem__()</text>
<text text-anchor="start" x="1246.5" y="-327.5" font-family="Helvetica,sans-Serif" font-size="10.00" fill="#000000">+ __len__()</text>
<text text-anchor="start" x="1246.5" y="-316.5" font-family="Helvetica,sans-Serif" font-size="10.00" fill="#000000">+ f()</text>
<text text-anchor="start" x="1246.5" y="-305.5" font-family="Helvetica,sans-Serif" font-size="10.00" fill="#000000">+ Response()</text>
<text text-anchor="start" x="1246.5" y="-294.5" font-family="Helvetica,sans-Serif" font-size="10.00" fill="#000000">+ FrequencyResponse()</text>
<text text-anchor="start" x="1246.5" y="-283.5" font-family="Helvetica,sans-Serif" font-size="10.00" fill="#000000">+ WriteToFile()</text>
<text text-anchor="start" x="1246.5" y="-272.5" font-family="Helvetica,sans-Serif" font-size="10.00" fill="#000000">+ Resample()</text>
<text text-anchor="start" x="1246.5" y="-261.5" font-family="Helvetica,sans-Serif" font-size="10.00" fill="#000000">+ SetReferenceImpedance()</text>
</g>
<!-- Node2 -->
<g id="node3" class="node">
<title>Node2</title>
<g id="a_node3"><a xlink:href="classSignalIntegrity_1_1Lib_1_1ImpedanceProfile_1_1PeeledLaunches_1_1PeeledLaunches.xhtml" target="_top" xlink:title="S&#45;parameters with launches peeled from them. ">
<polygon fill="#ffffff" stroke="#000000" points="0,-127.5 0,-184.5 89,-184.5 89,-127.5 0,-127.5"/>
<text text-anchor="middle" x="44.5" y="-172.5" font-family="Helvetica,sans-Serif" font-size="10.00" fill="#000000">PeeledLaunches</text>
<polyline fill="none" stroke="#000000" points="0,-165.5 89,-165.5 "/>
<text text-anchor="middle" x="44.5" y="-153.5" font-family="Helvetica,sans-Serif" font-size="10.00" fill="#000000"> </text>
<polyline fill="none" stroke="#000000" points="0,-146.5 89,-146.5 "/>
<text text-anchor="start" x="8" y="-134.5" font-family="Helvetica,sans-Serif" font-size="10.00" fill="#000000">+ __init__()</text>
</a>
</g>
</g>
<!-- Node0&#45;&gt;Node2 -->
<g id="edge2" class="edge">
<title>Node0&#45;&gt;Node2</title>
<path fill="none" stroke="#191970" d="M1228.1518,-358.0438C990.6136,-351.1073 295.9584,-322.1929 98.5,-218 83.9819,-210.3392 71.6104,-197.0498 62.3865,-184.7345"/>
<polygon fill="none" stroke="#191970" points="1228.3432,-361.5507 1238.4394,-358.3388 1228.5439,-354.5535 1228.3432,-361.5507"/>
</g>
<!-- Node3 -->
<g id="node4" class="node">
<title>Node3</title>
<g id="a_node4"><a xlink:href="classSignalIntegrity_1_1Lib_1_1ImpedanceProfile_1_1PeeledPortSParameters_1_1PeeledPortSParameters.xhtml" target="_top" xlink:title="s&#45;parameters of peeled impedance profile from port calculates the impedance profile looking into a po...">
<polygon fill="#ffffff" stroke="#000000" points="107.5,-127.5 107.5,-184.5 229.5,-184.5 229.5,-127.5 107.5,-127.5"/>
<text text-anchor="middle" x="168.5" y="-172.5" font-family="Helvetica,sans-Serif" font-size="10.00" fill="#000000">PeeledPortSParameters</text>
<polyline fill="none" stroke="#000000" points="107.5,-165.5 229.5,-165.5 "/>
<text text-anchor="middle" x="168.5" y="-153.5" font-family="Helvetica,sans-Serif" font-size="10.00" fill="#000000"> </text>
<polyline fill="none" stroke="#000000" points="107.5,-146.5 229.5,-146.5 "/>
<text text-anchor="start" x="115.5" y="-134.5" font-family="Helvetica,sans-Serif" font-size="10.00" fill="#000000">+ __init__()</text>
</a>
</g>
</g>
<!-- Node0&#45;&gt;Node3 -->
<g id="edge3" class="edge">
<title>Node0&#45;&gt;Node3</title>
<path fill="none" stroke="#191970" d="M1228.2929,-355.4245C1011.055,-342.0812 415.733,-298.9404 238.5,-218 221.5177,-210.2444 205.6672,-196.9453 193.3585,-184.6482"/>
<polygon fill="none" stroke="#191970" points="1228.1542,-358.9225 1238.3486,-356.0374 1228.5801,-351.9354 1228.1542,-358.9225"/>
</g>
<!-- Node4 -->
<g id="node5" class="node">
<title>Node4</title>
<g id="a_node5"><a xlink:href="classSignalIntegrity_1_1Lib_1_1Measurement_1_1CalKit_1_1Standards_1_1LoadStandard_1_1LoadStandard.xhtml" target="_top" xlink:title="Class providing the s&#45;parameters of a load standard as commonly defined for a calibration kit...">
<polygon fill="#ffffff" stroke="#000000" points="248,-127.5 248,-184.5 325,-184.5 325,-127.5 248,-127.5"/>
<text text-anchor="middle" x="286.5" y="-172.5" font-family="Helvetica,sans-Serif" font-size="10.00" fill="#000000">LoadStandard</text>
<polyline fill="none" stroke="#000000" points="248,-165.5 325,-165.5 "/>
<text text-anchor="middle" x="286.5" y="-153.5" font-family="Helvetica,sans-Serif" font-size="10.00" fill="#000000"> </text>
<polyline fill="none" stroke="#000000" points="248,-146.5 325,-146.5 "/>
<text text-anchor="start" x="256" y="-134.5" font-family="Helvetica,sans-Serif" font-size="10.00" fill="#000000">+ __init__()</text>
</a>
</g>
</g>
<!-- Node0&#45;&gt;Node4 -->
<g id="edge4" class="edge">
<title>Node0&#45;&gt;Node4</title>
<path fill="none" stroke="#191970" d="M1228.1424,-356.0809C1022.9263,-344.8605 485.0489,-307.4864 333.5,-218 320.1245,-210.1021 309.2816,-196.7885 301.395,-184.5187"/>
<polygon fill="none" stroke="#191970" points="1228.0735,-359.5822 1238.2478,-356.6269 1228.4512,-352.5924 1228.0735,-359.5822"/>
</g>
<!-- Node5 -->
<g id="node6" class="node">
<title>Node5</title>
<g id="a_node6"><a xlink:href="classSignalIntegrity_1_1Lib_1_1Measurement_1_1CalKit_1_1Standards_1_1Offset_1_1Offset.xhtml" target="_top" xlink:title="class providing the s&#45;parameters of an offset portion of the various calibration standards for a cali...">
<polygon fill="#ffffff" stroke="#000000" points="343,-127.5 343,-184.5 408,-184.5 408,-127.5 343,-127.5"/>
<text text-anchor="middle" x="375.5" y="-172.5" font-family="Helvetica,sans-Serif" font-size="10.00" fill="#000000">Offset</text>
<polyline fill="none" stroke="#000000" points="343,-165.5 408,-165.5 "/>
<text text-anchor="start" x="351" y="-153.5" font-family="Helvetica,sans-Serif" font-size="10.00" fill="#000000">+ calcZc</text>
<polyline fill="none" stroke="#000000" points="343,-146.5 408,-146.5 "/>
<text text-anchor="start" x="351" y="-134.5" font-family="Helvetica,sans-Serif" font-size="10.00" fill="#000000">+ __init__()</text>
</a>
</g>
</g>
<!-- Node0&#45;&gt;Node5 -->
<g id="edge5" class="edge">
<title>Node0&#45;&gt;Node5</title>
<path fill="none" stroke="#191970" d="M1228.2218,-355.431C1035.0984,-343.1597 550.6299,-304.3893 416.5,-218 404.1321,-210.0342 394.6489,-196.8681 387.9339,-184.7129"/>
<polygon fill="none" stroke="#191970" points="1228.105,-358.9305 1238.3048,-356.0644 1228.5439,-351.9442 1228.105,-358.9305"/>
</g>
<!-- Node7 -->
<g id="node8" class="node">
<title>Node7</title>
<g id="a_node8"><a xlink:href="classSignalIntegrity_1_1Lib_1_1Measurement_1_1CalKit_1_1Standards_1_1OpenStandard_1_1OpenStandard.xhtml" target="_top" xlink:title="class providing the s&#45;parameters of an open standard as commonly defined for a calibration kit...">
<polygon fill="#ffffff" stroke="#000000" points="426,-127.5 426,-184.5 505,-184.5 505,-127.5 426,-127.5"/>
<text text-anchor="middle" x="465.5" y="-172.5" font-family="Helvetica,sans-Serif" font-size="10.00" fill="#000000">OpenStandard</text>
<polyline fill="none" stroke="#000000" points="426,-165.5 505,-165.5 "/>
<text text-anchor="middle" x="465.5" y="-153.5" font-family="Helvetica,sans-Serif" font-size="10.00" fill="#000000"> </text>
<polyline fill="none" stroke="#000000" points="426,-146.5 505,-146.5 "/>
<text text-anchor="start" x="434" y="-134.5" font-family="Helvetica,sans-Serif" font-size="10.00" fill="#000000">+ __init__()</text>
</a>
</g>
</g>
<!-- Node0&#45;&gt;Node7 -->
<g id="edge7" class="edge">
<title>Node0&#45;&gt;Node7</title>
<path fill="none" stroke="#191970" d="M1228.2156,-353.0096C1051.172,-336.4332 633.4346,-290.6069 513.5,-218 500.2247,-209.9633 489.2541,-196.7895 481.1682,-184.6475"/>
<polygon fill="none" stroke="#191970" points="1227.9693,-356.5017 1238.2502,-353.9419 1228.6169,-349.5317 1227.9693,-356.5017"/>
</g>
<!-- Node8 -->
<g id="node9" class="node">
<title>Node8</title>
<g id="a_node9"><a xlink:href="classSignalIntegrity_1_1Lib_1_1Measurement_1_1CalKit_1_1Standards_1_1ShortStandard_1_1ShortStandard.xhtml" target="_top" xlink:title="Class providing the s&#45;parameters of a short standard as commonly defined for a calibration kit...">
<polygon fill="#ffffff" stroke="#000000" points="523,-127.5 523,-184.5 602,-184.5 602,-127.5 523,-127.5"/>
<text text-anchor="middle" x="562.5" y="-172.5" font-family="Helvetica,sans-Serif" font-size="10.00" fill="#000000">ShortStandard</text>
<polyline fill="none" stroke="#000000" points="523,-165.5 602,-165.5 "/>
<text text-anchor="middle" x="562.5" y="-153.5" font-family="Helvetica,sans-Serif" font-size="10.00" fill="#000000"> </text>
<polyline fill="none" stroke="#000000" points="523,-146.5 602,-146.5 "/>
<text text-anchor="start" x="531" y="-134.5" font-family="Helvetica,sans-Serif" font-size="10.00" fill="#000000">+ __init__()</text>
</a>
</g>
</g>
<!-- Node0&#45;&gt;Node8 -->
<g id="edge8" class="edge">
<title>Node0&#45;&gt;Node8</title>
<path fill="none" stroke="#191970" d="M1227.9763,-350.7498C1067.2641,-331.1494 713.3214,-281.9415 610.5,-218 597.3218,-209.8049 586.3619,-196.6138 578.2579,-184.5013"/>
<polygon fill="none" stroke="#191970" points="1227.9296,-354.2696 1238.278,-351.9979 1228.7716,-347.3205 1227.9296,-354.2696"/>
</g>
<!-- Node9 -->
<g id="node10" class="node">
<title>Node9</title>
<g id="a_node10"><a xlink:href="classSignalIntegrity_1_1Lib_1_1Measurement_1_1CalKit_1_1Standards_1_1TerminationPolynomial_1_1TerminationCPolynomial.xhtml" target="_top" xlink:title="Class for capacitive terminations for open calibration standards. ">
<polygon fill="#ffffff" stroke="#000000" points="620,-116.5 620,-195.5 743,-195.5 743,-116.5 620,-116.5"/>
<text text-anchor="middle" x="681.5" y="-183.5" font-family="Helvetica,sans-Serif" font-size="10.00" fill="#000000">TerminationCPolynomial</text>
<polyline fill="none" stroke="#000000" points="620,-176.5 743,-176.5 "/>
<text text-anchor="middle" x="681.5" y="-164.5" font-family="Helvetica,sans-Serif" font-size="10.00" fill="#000000"> </text>
<polyline fill="none" stroke="#000000" points="620,-157.5 743,-157.5 "/>
<text text-anchor="start" x="628" y="-145.5" font-family="Helvetica,sans-Serif" font-size="10.00" fill="#000000">+ __init__()</text>
<text text-anchor="start" x="628" y="-134.5" font-family="Helvetica,sans-Serif" font-size="10.00" fill="#000000">+ PolynomialC()</text>
<text text-anchor="start" x="628" y="-123.5" font-family="Helvetica,sans-Serif" font-size="10.00" fill="#000000">+ __getitem__()</text>
</a>
</g>
</g>
<!-- Node0&#45;&gt;Node9 -->
<g id="edge9" class="edge">
<title>Node0&#45;&gt;Node9</title>
<path fill="none" stroke="#191970" d="M1228.0348,-351.5758C1115.7405,-337.2099 908.1998,-301.0277 751.5,-218 740.3109,-212.0714 729.4417,-203.9998 719.7363,-195.6415"/>
<polygon fill="none" stroke="#191970" points="1227.9112,-355.0876 1238.2688,-352.8582 1228.7816,-348.142 1227.9112,-355.0876"/>
</g>
<!-- Node10 -->
<g id="node11" class="node">
<title>Node10</title>
<g id="a_node11"><a xlink:href="classSignalIntegrity_1_1Lib_1_1Measurement_1_1CalKit_1_1Standards_1_1TerminationPolynomial_1_1TerminationLPolynomial.xhtml" target="_top" xlink:title="Class for inductive terminations for short calibration standards. ">
<polygon fill="#ffffff" stroke="#000000" points="761,-116.5 761,-195.5 882,-195.5 882,-116.5 761,-116.5"/>
<text text-anchor="middle" x="821.5" y="-183.5" font-family="Helvetica,sans-Serif" font-size="10.00" fill="#000000">TerminationLPolynomial</text>
<polyline fill="none" stroke="#000000" points="761,-176.5 882,-176.5 "/>
<text text-anchor="middle" x="821.5" y="-164.5" font-family="Helvetica,sans-Serif" font-size="10.00" fill="#000000"> </text>
<polyline fill="none" stroke="#000000" points="761,-157.5 882,-157.5 "/>
<text text-anchor="start" x="769" y="-145.5" font-family="Helvetica,sans-Serif" font-size="10.00" fill="#000000">+ __init__()</text>
<text text-anchor="start" x="769" y="-134.5" font-family="Helvetica,sans-Serif" font-size="10.00" fill="#000000">+ PolynomialL()</text>
<text text-anchor="start" x="769" y="-123.5" font-family="Helvetica,sans-Serif" font-size="10.00" fill="#000000">+ __getitem__()</text>
</a>
</g>
</g>
<!-- Node0&#45;&gt;Node10 -->
<g id="edge10" class="edge">
<title>Node0&#45;&gt;Node10</title>
<path fill="none" stroke="#191970" d="M1228.4152,-343.0209C1141.1329,-322.2504 999.3983,-281.7684 890.5,-218 879.938,-211.8152 869.5659,-203.8382 860.2019,-195.6783"/>
<polygon fill="none" stroke="#191970" points="1227.7235,-346.4536 1238.2591,-345.3347 1229.3253,-339.6393 1227.7235,-346.4536"/>
</g>
<!-- Node11 -->
<g id="node12" class="node">
<title>Node11</title>
<g id="a_node12"><a xlink:href="classSignalIntegrity_1_1Lib_1_1SParameters_1_1Devices_1_1MixedModeTline_1_1MixedModeTLine.xhtml" target="_top" xlink:title="s&#45;parameters of a mixed&#45;mode, balanced transmission line ">
<polygon fill="#ffffff" stroke="#000000" points="900,-116.5 900,-195.5 991,-195.5 991,-116.5 900,-116.5"/>
<text text-anchor="middle" x="945.5" y="-183.5" font-family="Helvetica,sans-Serif" font-size="10.00" fill="#000000">MixedModeTLine</text>
<polyline fill="none" stroke="#000000" points="900,-176.5 991,-176.5 "/>
<text text-anchor="start" x="908" y="-164.5" font-family="Helvetica,sans-Serif" font-size="10.00" fill="#000000">+ m_sspn</text>
<text text-anchor="start" x="908" y="-153.5" font-family="Helvetica,sans-Serif" font-size="10.00" fill="#000000">+ m_spdl</text>
<polyline fill="none" stroke="#000000" points="900,-146.5 991,-146.5 "/>
<text text-anchor="start" x="908" y="-134.5" font-family="Helvetica,sans-Serif" font-size="10.00" fill="#000000">+ __init__()</text>
<text text-anchor="start" x="908" y="-123.5" font-family="Helvetica,sans-Serif" font-size="10.00" fill="#000000">+ __getitem__()</text>
</a>
</g>
</g>
<!-- Node0&#45;&gt;Node11 -->
<g id="edge11" class="edge">
<title>Node0&#45;&gt;Node11</title>
<path fill="none" stroke="#191970" d="M1228.8071,-334.02C1163.2547,-310.2542 1070.0046,-270.7693 999.5,-218 990.9291,-211.5851 982.7454,-203.6075 975.4576,-195.5333"/>
<polygon fill="none" stroke="#191970" points="1227.6773,-337.333 1238.2718,-337.4121 1230.039,-330.7434 1227.6773,-337.333"/>
</g>
<!-- Node12 -->
<g id="node13" class="node">
<title>Node12</title>
<g id="a_node13"><a xlink:href="classSignalIntegrity_1_1Lib_1_1SParameters_1_1Devices_1_1Mutual_1_1Mutual.xhtml" target="_top" xlink:title="s&#45;parameters of a mutual inductance ">
<polygon fill="#ffffff" stroke="#000000" points="1009,-122 1009,-190 1094,-190 1094,-122 1009,-122"/>
<text text-anchor="middle" x="1051.5" y="-178" font-family="Helvetica,sans-Serif" font-size="10.00" fill="#000000">Mutual</text>
<polyline fill="none" stroke="#000000" points="1009,-171 1094,-171 "/>
<text text-anchor="start" x="1017" y="-159" font-family="Helvetica,sans-Serif" font-size="10.00" fill="#000000">+ m_M</text>
<polyline fill="none" stroke="#000000" points="1009,-152 1094,-152 "/>
<text text-anchor="start" x="1017" y="-140" font-family="Helvetica,sans-Serif" font-size="10.00" fill="#000000">+ __init__()</text>
<text text-anchor="start" x="1017" y="-129" font-family="Helvetica,sans-Serif" font-size="10.00" fill="#000000">+ __getitem__()</text>
</a>
</g>
</g>
<!-- Node0&#45;&gt;Node12 -->
<g id="edge12" class="edge">
<title>Node0&#45;&gt;Node12</title>
<path fill="none" stroke="#191970" d="M1229.4643,-312.9167C1189.4358,-287.2865 1141.2439,-253.5889 1102.5,-218 1093.3646,-209.6085 1084.4171,-199.5581 1076.6309,-190.0165"/>
<polygon fill="none" stroke="#191970" points="1227.8192,-316.0181 1238.1368,-318.4258 1231.5726,-310.1094 1227.8192,-316.0181"/>
</g>
<!-- Node13 -->
<g id="node14" class="node">
<title>Node13</title>
<g id="a_node14"><a xlink:href="classSignalIntegrity_1_1Lib_1_1SParameters_1_1Devices_1_1SeriesC_1_1SeriesC.xhtml" target="_top" xlink:title="s&#45;parameters of a series capacitance ">
<polygon fill="#ffffff" stroke="#000000" points="1112,-111 1112,-201 1197,-201 1197,-111 1112,-111"/>
<text text-anchor="middle" x="1154.5" y="-189" font-family="Helvetica,sans-Serif" font-size="10.00" fill="#000000">SeriesC</text>
<polyline fill="none" stroke="#000000" points="1112,-182 1197,-182 "/>
<text text-anchor="start" x="1120" y="-170" font-family="Helvetica,sans-Serif" font-size="10.00" fill="#000000">+ m_C</text>
<text text-anchor="start" x="1120" y="-159" font-family="Helvetica,sans-Serif" font-size="10.00" fill="#000000">+ m_df</text>
<text text-anchor="start" x="1120" y="-148" font-family="Helvetica,sans-Serif" font-size="10.00" fill="#000000">+ m_esr</text>
<polyline fill="none" stroke="#000000" points="1112,-141 1197,-141 "/>
<text text-anchor="start" x="1120" y="-129" font-family="Helvetica,sans-Serif" font-size="10.00" fill="#000000">+ __init__()</text>
<text text-anchor="start" x="1120" y="-118" font-family="Helvetica,sans-Serif" font-size="10.00" fill="#000000">+ __getitem__()</text>
</a>
</g>
</g>
<!-- Node0&#45;&gt;Node13 -->
<g id="edge13" class="edge">
<title>Node0&#45;&gt;Node13</title>
<path fill="none" stroke="#191970" d="M1232.3812,-259.1673C1217.0343,-238.8377 1201.6407,-218.4462 1188.6395,-201.2238"/>
<polygon fill="none" stroke="#191970" points="1229.6661,-261.3799 1238.4846,-267.2524 1235.253,-257.1624 1229.6661,-261.3799"/>
</g>
<!-- Node14 -->
<g id="node15" class="node">
<title>Node14</title>
<g id="a_node15"><a xlink:href="classSignalIntegrity_1_1Lib_1_1SParameters_1_1Devices_1_1SeriesL_1_1SeriesL.xhtml" target="_top" xlink:title="s&#45;parameters of a series inductance ">
<polygon fill="#ffffff" stroke="#000000" points="1215,-122 1215,-190 1300,-190 1300,-122 1215,-122"/>
<text text-anchor="middle" x="1257.5" y="-178" font-family="Helvetica,sans-Serif" font-size="10.00" fill="#000000">SeriesL</text>
<polyline fill="none" stroke="#000000" points="1215,-171 1300,-171 "/>
<text text-anchor="start" x="1223" y="-159" font-family="Helvetica,sans-Serif" font-size="10.00" fill="#000000">+ m_L</text>
<polyline fill="none" stroke="#000000" points="1215,-152 1300,-152 "/>
<text text-anchor="start" x="1223" y="-140" font-family="Helvetica,sans-Serif" font-size="10.00" fill="#000000">+ __init__()</text>
<text text-anchor="start" x="1223" y="-129" font-family="Helvetica,sans-Serif" font-size="10.00" fill="#000000">+ __getitem__()</text>
</a>
</g>
</g>
<!-- Node0&#45;&gt;Node14 -->
<g id="edge14" class="edge">
<title>Node0&#45;&gt;Node14</title>
<path fill="none" stroke="#191970" d="M1279.6499,-244.5995C1274.6728,-224.6913 1269.869,-205.4761 1266.0147,-190.0589"/>
<polygon fill="none" stroke="#191970" points="1276.2827,-245.5622 1282.1037,-254.4147 1283.0737,-243.8644 1276.2827,-245.5622"/>
</g>
<!-- Node15 -->
<g id="node16" class="node">
<title>Node15</title>
<g id="a_node16"><a xlink:href="classSignalIntegrity_1_1Lib_1_1SParameters_1_1Devices_1_1SeriesRse_1_1SeriesRse.xhtml" target="_top" xlink:title="s&#45;parameters of series skin&#45;effect Resistance ">
<polygon fill="#ffffff" stroke="#000000" points="1318,-122 1318,-190 1403,-190 1403,-122 1318,-122"/>
<text text-anchor="middle" x="1360.5" y="-178" font-family="Helvetica,sans-Serif" font-size="10.00" fill="#000000">SeriesRse</text>
<polyline fill="none" stroke="#000000" points="1318,-171 1403,-171 "/>
<text text-anchor="start" x="1326" y="-159" font-family="Helvetica,sans-Serif" font-size="10.00" fill="#000000">+ m_Rse</text>
<polyline fill="none" stroke="#000000" points="1318,-152 1403,-152 "/>
<text text-anchor="start" x="1326" y="-140" font-family="Helvetica,sans-Serif" font-size="10.00" fill="#000000">+ __init__()</text>
<text text-anchor="start" x="1326" y="-129" font-family="Helvetica,sans-Serif" font-size="10.00" fill="#000000">+ __getitem__()</text>
</a>
</g>
</g>
<!-- Node0&#45;&gt;Node15 -->
<g id="edge15" class="edge">
<title>Node0&#45;&gt;Node15</title>
<path fill="none" stroke="#191970" d="M1337.9158,-244.5995C1342.9905,-224.6913 1347.8884,-205.4761 1351.8183,-190.0589"/>
<polygon fill="none" stroke="#191970" points="1334.4925,-243.86 1335.4139,-254.4147 1341.2756,-245.5891 1334.4925,-243.86"/>
</g>
<!-- Node16 -->
<g id="node17" class="node">
<title>Node16</title>
<g id="a_node17"><a xlink:href="classSignalIntegrity_1_1Lib_1_1SParameters_1_1Devices_1_1TerminationC_1_1TerminationC.xhtml" target="_top" xlink:title="s&#45;parameters of a termination (one&#45;port) capacitance ">
<polygon fill="#ffffff" stroke="#000000" points="1421,-111 1421,-201 1506,-201 1506,-111 1421,-111"/>
<text text-anchor="middle" x="1463.5" y="-189" font-family="Helvetica,sans-Serif" font-size="10.00" fill="#000000">TerminationC</text>
<polyline fill="none" stroke="#000000" points="1421,-182 1506,-182 "/>
<text text-anchor="start" x="1429" y="-170" font-family="Helvetica,sans-Serif" font-size="10.00" fill="#000000">+ m_C</text>
<text text-anchor="start" x="1429" y="-159" font-family="Helvetica,sans-Serif" font-size="10.00" fill="#000000">+ m_df</text>
<text text-anchor="start" x="1429" y="-148" font-family="Helvetica,sans-Serif" font-size="10.00" fill="#000000">+ m_esr</text>
<polyline fill="none" stroke="#000000" points="1421,-141 1506,-141 "/>
<text text-anchor="start" x="1429" y="-129" font-family="Helvetica,sans-Serif" font-size="10.00" fill="#000000">+ __init__()</text>
<text text-anchor="start" x="1429" y="-118" font-family="Helvetica,sans-Serif" font-size="10.00" fill="#000000">+ __getitem__()</text>
</a>
</g>
</g>
<!-- Node0&#45;&gt;Node16 -->
<g id="edge16" class="edge">
<title>Node0&#45;&gt;Node16</title>
<path fill="none" stroke="#191970" d="M1384.71,-259.6978C1400.2835,-239.201 1415.9266,-218.6128 1429.1226,-201.245"/>
<polygon fill="none" stroke="#191970" points="1381.7807,-257.7678 1378.5177,-267.8477 1387.3544,-262.0027 1381.7807,-257.7678"/>
</g>
<!-- Node17 -->
<g id="node18" class="node">
<title>Node17</title>
<g id="a_node18"><a xlink:href="classSignalIntegrity_1_1Lib_1_1SParameters_1_1Devices_1_1TerminationL_1_1TerminationL.xhtml" target="_top" xlink:title="s&#45;parameters of a termination (one&#45;port) inductance ">
<polygon fill="#ffffff" stroke="#000000" points="1524,-122 1524,-190 1609,-190 1609,-122 1524,-122"/>
<text text-anchor="middle" x="1566.5" y="-178" font-family="Helvetica,sans-Serif" font-size="10.00" fill="#000000">TerminationL</text>
<polyline fill="none" stroke="#000000" points="1524,-171 1609,-171 "/>
<text text-anchor="start" x="1532" y="-159" font-family="Helvetica,sans-Serif" font-size="10.00" fill="#000000">+ m_L</text>
<polyline fill="none" stroke="#000000" points="1524,-152 1609,-152 "/>
<text text-anchor="start" x="1532" y="-140" font-family="Helvetica,sans-Serif" font-size="10.00" fill="#000000">+ __init__()</text>
<text text-anchor="start" x="1532" y="-129" font-family="Helvetica,sans-Serif" font-size="10.00" fill="#000000">+ __getitem__()</text>
</a>
</g>
</g>
<!-- Node0&#45;&gt;Node17 -->
<g id="edge17" class="edge">
<title>Node0&#45;&gt;Node17</title>
<path fill="none" stroke="#191970" d="M1387.3946,-312.7624C1427.3857,-287.0912 1475.5867,-253.4036 1514.5,-218 1523.6444,-209.6803 1532.6466,-199.7543 1540.5237,-190.3093"/>
<polygon fill="none" stroke="#191970" points="1385.2847,-309.9566 1378.731,-318.2813 1389.0456,-315.8604 1385.2847,-309.9566"/>
</g>
<!-- Node18 -->
<g id="node19" class="node">
<title>Node18</title>
<g id="a_node19"><a xlink:href="classSignalIntegrity_1_1Lib_1_1SParameters_1_1Devices_1_1TLineDifferentialRLGC_1_1TLineDifferentialRLGC.xhtml" target="_top" xlink:title="s&#45;parameters of differential RLGC (telegrapher&#39;s) transmission line ">
<polygon fill="#ffffff" stroke="#000000" points="1627.5,-116.5 1627.5,-195.5 1743.5,-195.5 1743.5,-116.5 1627.5,-116.5"/>
<text text-anchor="middle" x="1685.5" y="-183.5" font-family="Helvetica,sans-Serif" font-size="10.00" fill="#000000">TLineDifferentialRLGC</text>
<polyline fill="none" stroke="#000000" points="1627.5,-176.5 1743.5,-176.5 "/>
<text text-anchor="start" x="1635.5" y="-164.5" font-family="Helvetica,sans-Serif" font-size="10.00" fill="#000000">+ sp</text>
<text text-anchor="start" x="1635.5" y="-153.5" font-family="Helvetica,sans-Serif" font-size="10.00" fill="#000000">+ rtFraction</text>
<polyline fill="none" stroke="#000000" points="1627.5,-146.5 1743.5,-146.5 "/>
<text text-anchor="start" x="1635.5" y="-134.5" font-family="Helvetica,sans-Serif" font-size="10.00" fill="#000000">+ __init__()</text>
<text text-anchor="start" x="1635.5" y="-123.5" font-family="Helvetica,sans-Serif" font-size="10.00" fill="#000000">+ __getitem__()</text>
</a>
</g>
</g>
<!-- Node0&#45;&gt;Node18 -->
<g id="edge18" class="edge">
<title>Node0&#45;&gt;Node18</title>
<path fill="none" stroke="#191970" d="M1388.3095,-331.2213C1452.8738,-306.1227 1544.6985,-266.2214 1617.5,-218 1627.3562,-211.4716 1637.1962,-203.5368 1646.2057,-195.5543"/>
<polygon fill="none" stroke="#191970" points="1386.66,-328.106 1378.5881,-334.9686 1389.1778,-334.6376 1386.66,-328.106"/>
</g>
<!-- Node19 -->
<g id="node20" class="node">
<title>Node19</title>
<g id="a_node20"><a xlink:href="classSignalIntegrity_1_1Lib_1_1SParameters_1_1Devices_1_1TLineDifferentialRLGCApproximate_1_1TLineDifferentialRLGCApproximate.xhtml" target="_top" xlink:title="s&#45;parameters of differential RLGC (telegrapher&#39;s) transmission line calculated by approximating distr...">
<polygon fill="#ffffff" stroke="#000000" points="1761.5,-105.5 1761.5,-206.5 1931.5,-206.5 1931.5,-105.5 1761.5,-105.5"/>
<text text-anchor="middle" x="1846.5" y="-194.5" font-family="Helvetica,sans-Serif" font-size="10.00" fill="#000000">TLineDifferentialRLGCApproximate</text>
<polyline fill="none" stroke="#000000" points="1761.5,-187.5 1931.5,-187.5 "/>
<text text-anchor="start" x="1769.5" y="-175.5" font-family="Helvetica,sans-Serif" font-size="10.00" fill="#000000">+ m_K</text>
<text text-anchor="start" x="1769.5" y="-164.5" font-family="Helvetica,sans-Serif" font-size="10.00" fill="#000000">+ m_sspn</text>
<text text-anchor="start" x="1769.5" y="-153.5" font-family="Helvetica,sans-Serif" font-size="10.00" fill="#000000">+ m_spdl</text>
<text text-anchor="start" x="1769.5" y="-142.5" font-family="Helvetica,sans-Serif" font-size="10.00" fill="#000000">+ rtFraction</text>
<polyline fill="none" stroke="#000000" points="1761.5,-135.5 1931.5,-135.5 "/>
<text text-anchor="start" x="1769.5" y="-123.5" font-family="Helvetica,sans-Serif" font-size="10.00" fill="#000000">+ __init__()</text>
<text text-anchor="start" x="1769.5" y="-112.5" font-family="Helvetica,sans-Serif" font-size="10.00" fill="#000000">+ __getitem__()</text>
</a>
</g>
</g>
<!-- Node0&#45;&gt;Node19 -->
<g id="edge19" class="edge">
<title>Node0&#45;&gt;Node19</title>
<path fill="none" stroke="#191970" d="M1388.7776,-341.3974C1479.6806,-318.7394 1630.9453,-276.1651 1752.5,-218 1759.642,-214.5825 1766.8769,-210.6945 1773.9966,-206.5705"/>
<polygon fill="none" stroke="#191970" points="1387.681,-338.0631 1378.8137,-343.8614 1389.3615,-344.8584 1387.681,-338.0631"/>
</g>
<!-- Node20 -->
<g id="node21" class="node">
<title>Node20</title>
<g id="a_node21"><a xlink:href="classSignalIntegrity_1_1Lib_1_1SParameters_1_1Devices_1_1TLineDifferentialRLGCBalanced_1_1TLineDifferentialRLGCBalanced.xhtml" target="_top" xlink:title="s&#45;parameters of analytic balanced differential RLGC (telegrapher&#39;s) transmission line. ">
<polygon fill="#ffffff" stroke="#000000" points="1949.5,-116.5 1949.5,-195.5 2105.5,-195.5 2105.5,-116.5 1949.5,-116.5"/>
<text text-anchor="middle" x="2027.5" y="-183.5" font-family="Helvetica,sans-Serif" font-size="10.00" fill="#000000">TLineDifferentialRLGCBalanced</text>
<polyline fill="none" stroke="#000000" points="1949.5,-176.5 2105.5,-176.5 "/>
<text text-anchor="start" x="1957.5" y="-164.5" font-family="Helvetica,sans-Serif" font-size="10.00" fill="#000000">+ m_sspn</text>
<text text-anchor="start" x="1957.5" y="-153.5" font-family="Helvetica,sans-Serif" font-size="10.00" fill="#000000">+ m_spdl</text>
<polyline fill="none" stroke="#000000" points="1949.5,-146.5 2105.5,-146.5 "/>
<text text-anchor="start" x="1957.5" y="-134.5" font-family="Helvetica,sans-Serif" font-size="10.00" fill="#000000">+ __init__()</text>
<text text-anchor="start" x="1957.5" y="-123.5" font-family="Helvetica,sans-Serif" font-size="10.00" fill="#000000">+ __getitem__()</text>
</a>
</g>
</g>
<!-- Node0&#45;&gt;Node20 -->
<g id="edge20" class="edge">
<title>Node0&#45;&gt;Node20</title>
<path fill="none" stroke="#191970" d="M1388.792,-352.2755C1512.0419,-338.1793 1753.2396,-301.6449 1940.5,-218 1953.7089,-212.0999 1966.9453,-204.0394 1978.9661,-195.6828"/>
<polygon fill="none" stroke="#191970" points="1388.2275,-348.8168 1378.6809,-353.4116 1389.0092,-355.773 1388.2275,-348.8168"/>
</g>
<!-- Node21 -->
<g id="node22" class="node">
<title>Node21</title>
<g id="a_node22"><a xlink:href="classSignalIntegrity_1_1Lib_1_1SParameters_1_1Devices_1_1TLineDifferentialRLGCUncoupled_1_1TLineDifferentialRLGCUncoupled.xhtml" target="_top" xlink:title="s&#45;parameters of analytic uncoupled differential RLGC (telegrapher&#39;s) transmission line...">
<polygon fill="#ffffff" stroke="#000000" points="2123.5,-116.5 2123.5,-195.5 2285.5,-195.5 2285.5,-116.5 2123.5,-116.5"/>
<text text-anchor="middle" x="2204.5" y="-183.5" font-family="Helvetica,sans-Serif" font-size="10.00" fill="#000000">TLineDifferentialRLGCUncoupled</text>
<polyline fill="none" stroke="#000000" points="2123.5,-176.5 2285.5,-176.5 "/>
<text text-anchor="start" x="2131.5" y="-164.5" font-family="Helvetica,sans-Serif" font-size="10.00" fill="#000000">+ m_sspn</text>
<text text-anchor="start" x="2131.5" y="-153.5" font-family="Helvetica,sans-Serif" font-size="10.00" fill="#000000">+ m_spdl</text>
<polyline fill="none" stroke="#000000" points="2123.5,-146.5 2285.5,-146.5 "/>
<text text-anchor="start" x="2131.5" y="-134.5" font-family="Helvetica,sans-Serif" font-size="10.00" fill="#000000">+ __init__()</text>
<text text-anchor="start" x="2131.5" y="-123.5" font-family="Helvetica,sans-Serif" font-size="10.00" fill="#000000">+ __getitem__()</text>
</a>
</g>
</g>
<!-- Node0&#45;&gt;Node21 -->
<g id="edge21" class="edge">
<title>Node0&#45;&gt;Node21</title>
<path fill="none" stroke="#191970" d="M1389.0497,-357.1022C1537.7577,-349.336 1863.1591,-320.9653 2114.5,-218 2128.3705,-212.3178 2142.2509,-204.2383 2154.8144,-195.7822"/>
<polygon fill="none" stroke="#191970" points="1388.4626,-353.6272 1378.6516,-357.6265 1388.8152,-360.6184 1388.4626,-353.6272"/>
</g>
<!-- Node22 -->
<g id="node23" class="node">
<title>Node22</title>
<g id="a_node23"><a xlink:href="classSignalIntegrity_1_1Lib_1_1SParameters_1_1Devices_1_1TLineLossless_1_1TLineLossless.xhtml" target="_top" xlink:title="s&#45;parameters of ideal lossless single&#45;ended transmission line ">
<polygon fill="#ffffff" stroke="#000000" points="2304,-111 2304,-201 2389,-201 2389,-111 2304,-111"/>
<text text-anchor="middle" x="2346.5" y="-189" font-family="Helvetica,sans-Serif" font-size="10.00" fill="#000000">TLineLossless</text>
<polyline fill="none" stroke="#000000" points="2304,-182 2389,-182 "/>
<text text-anchor="start" x="2312" y="-170" font-family="Helvetica,sans-Serif" font-size="10.00" fill="#000000">+ m_Zc</text>
<text text-anchor="start" x="2312" y="-159" font-family="Helvetica,sans-Serif" font-size="10.00" fill="#000000">+ m_Td</text>
<text text-anchor="start" x="2312" y="-148" font-family="Helvetica,sans-Serif" font-size="10.00" fill="#000000">+ m_P</text>
<polyline fill="none" stroke="#000000" points="2304,-141 2389,-141 "/>
<text text-anchor="start" x="2312" y="-129" font-family="Helvetica,sans-Serif" font-size="10.00" fill="#000000">+ __init__()</text>
<text text-anchor="start" x="2312" y="-118" font-family="Helvetica,sans-Serif" font-size="10.00" fill="#000000">+ __getitem__()</text>
</a>
</g>
</g>
<!-- Node0&#45;&gt;Node22 -->
<g id="edge22" class="edge">
<title>Node0&#45;&gt;Node22</title>
<path fill="none" stroke="#191970" d="M1388.7682,-355.7849C1595.1292,-343.802 2138.8402,-304.6539 2294.5,-218 2302.2331,-213.6951 2309.3093,-207.7541 2315.5836,-201.2431"/>
<polygon fill="none" stroke="#191970" points="1388.3916,-352.3007 1378.6089,-356.3686 1388.7932,-359.2891 1388.3916,-352.3007"/>
</g>
<!-- Node23 -->
<g id="node24" class="node">
<title>Node23</title>
<g id="a_node24"><a xlink:href="classSignalIntegrity_1_1Lib_1_1SParameters_1_1Devices_1_1TLineTwoPortRLGC_1_1TLineTwoPortRLGC.xhtml" target="_top" xlink:title="s&#45;parameters of single&#45;ended RLGC (telegraphers) transmission line ">
<polygon fill="#ffffff" stroke="#000000" points="2407,-122 2407,-190 2512,-190 2512,-122 2407,-122"/>
<text text-anchor="middle" x="2459.5" y="-178" font-family="Helvetica,sans-Serif" font-size="10.00" fill="#000000">TLineTwoPortRLGC</text>
<polyline fill="none" stroke="#000000" points="2407,-171 2512,-171 "/>
<text text-anchor="start" x="2415" y="-159" font-family="Helvetica,sans-Serif" font-size="10.00" fill="#000000">+ sp</text>
<polyline fill="none" stroke="#000000" points="2407,-152 2512,-152 "/>
<text text-anchor="start" x="2415" y="-140" font-family="Helvetica,sans-Serif" font-size="10.00" fill="#000000">+ __init__()</text>
<text text-anchor="start" x="2415" y="-129" font-family="Helvetica,sans-Serif" font-size="10.00" fill="#000000">+ __getitem__()</text>
</a>
</g>
</g>
<!-- Node0&#45;&gt;Node23 -->
<g id="edge23" class="edge">
<title>Node0&#45;&gt;Node23</title>
<path fill="none" stroke="#191970" d="M1388.941,-356.2889C1609.7066,-345.049 2220.4202,-306.5705 2398.5,-218 2411.7498,-211.41 2423.7945,-200.7797 2433.6151,-190.1681"/>
<polygon fill="none" stroke="#191970" points="1388.5375,-352.8047 1378.7264,-356.8037 1388.8899,-359.7958 1388.5375,-352.8047"/>
</g>
<!-- Node24 -->
<g id="node25" class="node">
<title>Node24</title>
<g id="a_node25"><a xlink:href="classSignalIntegrity_1_1Lib_1_1SParameters_1_1Devices_1_1TLineTwoPortRLGCAnalytic_1_1TLineTwoPortRLGCAnalytic.xhtml" target="_top" xlink:title="s&#45;parameters of analytic single&#45;ended telegraphers transmission line ">
<polygon fill="#ffffff" stroke="#000000" points="2530.5,-94.5 2530.5,-217.5 2670.5,-217.5 2670.5,-94.5 2530.5,-94.5"/>
<text text-anchor="middle" x="2600.5" y="-205.5" font-family="Helvetica,sans-Serif" font-size="10.00" fill="#000000">TLineTwoPortRLGCAnalytic</text>
<polyline fill="none" stroke="#000000" points="2530.5,-198.5 2670.5,-198.5 "/>
<text text-anchor="start" x="2538.5" y="-186.5" font-family="Helvetica,sans-Serif" font-size="10.00" fill="#000000">+ R</text>
<text text-anchor="start" x="2538.5" y="-175.5" font-family="Helvetica,sans-Serif" font-size="10.00" fill="#000000">+ Rse</text>
<text text-anchor="start" x="2538.5" y="-164.5" font-family="Helvetica,sans-Serif" font-size="10.00" fill="#000000">+ L</text>
<text text-anchor="start" x="2538.5" y="-153.5" font-family="Helvetica,sans-Serif" font-size="10.00" fill="#000000">+ G</text>
<text text-anchor="start" x="2538.5" y="-142.5" font-family="Helvetica,sans-Serif" font-size="10.00" fill="#000000">+ C</text>
<text text-anchor="start" x="2538.5" y="-131.5" font-family="Helvetica,sans-Serif" font-size="10.00" fill="#000000">+ df</text>
<polyline fill="none" stroke="#000000" points="2530.5,-124.5 2670.5,-124.5 "/>
<text text-anchor="start" x="2538.5" y="-112.5" font-family="Helvetica,sans-Serif" font-size="10.00" fill="#000000">+ __init__()</text>
<text text-anchor="start" x="2538.5" y="-101.5" font-family="Helvetica,sans-Serif" font-size="10.00" fill="#000000">+ __getitem__()</text>
</a>
</g>
</g>
<!-- Node0&#45;&gt;Node24 -->
<g id="edge24" class="edge">
<title>Node0&#45;&gt;Node24</title>
<path fill="none" stroke="#191970" d="M1389.0472,-356.2588C1625.6392,-344.3823 2314.822,-303.191 2521.5,-218 2524.4014,-216.8041 2527.2854,-215.4698 2530.1401,-214.0225"/>
<polygon fill="none" stroke="#191970" points="1388.6123,-352.776 1378.7987,-356.7691 1388.9604,-359.7674 1388.6123,-352.776"/>
</g>
<!-- Node25 -->
<g id="node26" class="node">
<title>Node25</title>
<g id="a_node26"><a xlink:href="classSignalIntegrity_1_1Lib_1_1SParameters_1_1Devices_1_1TLineTwoPortRLGCApproximate_1_1TLineTwoPortRLGCApproximate.xhtml" target="_top" xlink:title="s&#45;parameters of two port RLGC (telegrapher&#39;s) transmission line calculated by approximating distribut...">
<polygon fill="#ffffff" stroke="#000000" points="2688.5,-105.5 2688.5,-206.5 2848.5,-206.5 2848.5,-105.5 2688.5,-105.5"/>
<text text-anchor="middle" x="2768.5" y="-194.5" font-family="Helvetica,sans-Serif" font-size="10.00" fill="#000000">TLineTwoPortRLGCApproximate</text>
<polyline fill="none" stroke="#000000" points="2688.5,-187.5 2848.5,-187.5 "/>
<text text-anchor="start" x="2696.5" y="-175.5" font-family="Helvetica,sans-Serif" font-size="10.00" fill="#000000">+ m_K</text>
<text text-anchor="start" x="2696.5" y="-164.5" font-family="Helvetica,sans-Serif" font-size="10.00" fill="#000000">+ m_sspn</text>
<text text-anchor="start" x="2696.5" y="-153.5" font-family="Helvetica,sans-Serif" font-size="10.00" fill="#000000">+ m_spdl</text>
<text text-anchor="start" x="2696.5" y="-142.5" font-family="Helvetica,sans-Serif" font-size="10.00" fill="#000000">+ rtFraction</text>
<polyline fill="none" stroke="#000000" points="2688.5,-135.5 2848.5,-135.5 "/>
<text text-anchor="start" x="2696.5" y="-123.5" font-family="Helvetica,sans-Serif" font-size="10.00" fill="#000000">+ __init__()</text>
<text text-anchor="start" x="2696.5" y="-112.5" font-family="Helvetica,sans-Serif" font-size="10.00" fill="#000000">+ __getitem__()</text>
</a>
</g>
</g>
<!-- Node0&#45;&gt;Node25 -->
<g id="edge25" class="edge">
<title>Node0&#45;&gt;Node25</title>
<path fill="none" stroke="#191970" d="M1388.9261,-356.9407C1645.2108,-346.3729 2439.8724,-307.0583 2679.5,-218 2687.6196,-214.9823 2695.6949,-211.0473 2703.4795,-206.622"/>
<polygon fill="none" stroke="#191970" points="1388.4306,-353.458 1378.582,-357.3637 1388.7166,-360.4521 1388.4306,-353.458"/>
</g>
<!-- Node26 -->
<g id="node27" class="node">
<title>Node26</title>
<g id="a_node27"><a xlink:href="classSignalIntegrity_1_1Lib_1_1SParameters_1_1SParameterFile_1_1SParameterFile.xhtml" target="_top" xlink:title="class for s&#45;parameters read from a file ">
<polygon fill="#ffffff" stroke="#000000" points="2866.5,-105.5 2866.5,-206.5 2950.5,-206.5 2950.5,-105.5 2866.5,-105.5"/>
<text text-anchor="middle" x="2908.5" y="-194.5" font-family="Helvetica,sans-Serif" font-size="10.00" fill="#000000">SParameterFile</text>
<polyline fill="none" stroke="#000000" points="2866.5,-187.5 2950.5,-187.5 "/>
<text text-anchor="start" x="2874.5" y="-175.5" font-family="Helvetica,sans-Serif" font-size="10.00" fill="#000000">+ m_sToken</text>
<text text-anchor="start" x="2874.5" y="-164.5" font-family="Helvetica,sans-Serif" font-size="10.00" fill="#000000">+ m_Z0</text>
<text text-anchor="start" x="2874.5" y="-153.5" font-family="Helvetica,sans-Serif" font-size="10.00" fill="#000000">+ m_P</text>
<text text-anchor="start" x="2874.5" y="-142.5" font-family="Helvetica,sans-Serif" font-size="10.00" fill="#000000">+ m_f</text>
<text text-anchor="start" x="2874.5" y="-131.5" font-family="Helvetica,sans-Serif" font-size="10.00" fill="#000000">+ m_d</text>
<polyline fill="none" stroke="#000000" points="2866.5,-124.5 2950.5,-124.5 "/>
<text text-anchor="start" x="2874.5" y="-112.5" font-family="Helvetica,sans-Serif" font-size="10.00" fill="#000000">+ __init__()</text>
</a>
</g>
</g>
<!-- Node0&#45;&gt;Node26 -->
<g id="edge26" class="edge">
<title>Node0&#45;&gt;Node26</title>
<path fill="none" stroke="#191970" d="M1388.9279,-356.2508C1688.2116,-341.8078 2726.962,-287.113 2857.5,-218 2863.1662,-215.0001 2868.4427,-211.0764 2873.2867,-206.6578"/>
<polygon fill="none" stroke="#191970" points="1388.4165,-352.7713 1378.5961,-356.7476 1388.7527,-359.7632 1388.4165,-352.7713"/>
</g>
<!-- Node1 -->
<g id="node2" class="node">
<title>Node1</title>
<g id="a_node2"><a xlink:href="classSignalIntegrity_1_1Lib_1_1SParameters_1_1SParameterManipulation_1_1SParameterManipulation.xhtml" target="_top" xlink:title="Class for manipulations on s&#45;parameters involving passivity, causality, etc. ">
<polygon fill="#ffffff" stroke="#000000" points="1216,-502.5 1216,-669.5 1401,-669.5 1401,-502.5 1216,-502.5"/>
<text text-anchor="middle" x="1308.5" y="-657.5" font-family="Helvetica,sans-Serif" font-size="10.00" fill="#000000">SParameterManipulation</text>
<polyline fill="none" stroke="#000000" points="1216,-650.5 1401,-650.5 "/>
<text text-anchor="middle" x="1308.5" y="-638.5" font-family="Helvetica,sans-Serif" font-size="10.00" fill="#000000"> </text>
<polyline fill="none" stroke="#000000" points="1216,-631.5 1401,-631.5 "/>
<text text-anchor="start" x="1224" y="-619.5" font-family="Helvetica,sans-Serif" font-size="10.00" fill="#000000">+ EnforcePassivity()</text>
<text text-anchor="start" x="1224" y="-608.5" font-family="Helvetica,sans-Serif" font-size="10.00" fill="#000000">+ IsCausal()</text>
<text text-anchor="start" x="1224" y="-597.5" font-family="Helvetica,sans-Serif" font-size="10.00" fill="#000000">+ EnforceCausality()</text>
<text text-anchor="start" x="1224" y="-586.5" font-family="Helvetica,sans-Serif" font-size="10.00" fill="#000000">+ WaveletDenoise()</text>
<text text-anchor="start" x="1224" y="-575.5" font-family="Helvetica,sans-Serif" font-size="10.00" fill="#000000">+ PortReorder()</text>
<text text-anchor="start" x="1224" y="-564.5" font-family="Helvetica,sans-Serif" font-size="10.00" fill="#000000">+ DetermineImpulseResponse</text>
<text text-anchor="start" x="1224" y="-553.5" font-family="Helvetica,sans-Serif" font-size="10.00" fill="#000000">Length()</text>
<text text-anchor="start" x="1224" y="-542.5" font-family="Helvetica,sans-Serif" font-size="10.00" fill="#000000">+ LimitImpulseResponseLength()</text>
<text text-anchor="start" x="1224" y="-531.5" font-family="Helvetica,sans-Serif" font-size="10.00" fill="#000000">+ EnforceReciprocity()</text>
<text text-anchor="start" x="1224" y="-520.5" font-family="Helvetica,sans-Serif" font-size="10.00" fill="#000000">+ EnforceBothPassivityAndCausality()</text>
<text text-anchor="start" x="1224" y="-509.5" font-family="Helvetica,sans-Serif" font-size="10.00" fill="#000000">+ EnforceAll()</text>
</a>
</g>
</g>
<!-- Node1&#45;&gt;Node0 -->
<g id="edge1" class="edge">
<title>Node1&#45;&gt;Node0</title>
<path fill="none" stroke="#191970" d="M1308.5,-492.3101C1308.5,-483.5666 1308.5,-474.6642 1308.5,-465.8207"/>
<polygon fill="none" stroke="#191970" points="1305.0001,-492.488 1308.5,-502.488 1312.0001,-492.4881 1305.0001,-492.488"/>
</g>
<!-- Node6 -->
<g id="node7" class="node">
<title>Node6</title>
<g id="a_node7"><a xlink:href="classSignalIntegrity_1_1Lib_1_1Measurement_1_1CalKit_1_1Standards_1_1ThruStandard_1_1ThruStandard.xhtml" target="_top" xlink:title="Class providing the s&#45;parameters of a thru standard as commonly defined for a calibration kit...">
<polygon fill="#ffffff" stroke="#000000" points="338,-.5 338,-57.5 413,-57.5 413,-.5 338,-.5"/>
<text text-anchor="middle" x="375.5" y="-45.5" font-family="Helvetica,sans-Serif" font-size="10.00" fill="#000000">ThruStandard</text>
<polyline fill="none" stroke="#000000" points="338,-38.5 413,-38.5 "/>
<text text-anchor="middle" x="375.5" y="-26.5" font-family="Helvetica,sans-Serif" font-size="10.00" fill="#000000"> </text>
<polyline fill="none" stroke="#000000" points="338,-19.5 413,-19.5 "/>
<text text-anchor="start" x="346" y="-7.5" font-family="Helvetica,sans-Serif" font-size="10.00" fill="#000000">+ __init__()</text>
</a>
</g>
</g>
<!-- Node5&#45;&gt;Node6 -->
<g id="edge6" class="edge">
<title>Node5&#45;&gt;Node6</title>
<path fill="none" stroke="#191970" d="M375.5,-117.286C375.5,-98.1438 375.5,-75.4372 375.5,-57.8456"/>
<polygon fill="none" stroke="#191970" points="372.0001,-117.4987 375.5,-127.4987 379.0001,-117.4988 372.0001,-117.4987"/>
</g>
</g>
</svg>
