<?xml version="1.0" encoding="UTF-8" standalone="no"?>
<!DOCTYPE svg PUBLIC "-//W3C//DTD SVG 1.1//EN"
 "http://www.w3.org/Graphics/SVG/1.1/DTD/svg11.dtd">
<!-- Generated by graphviz version 2.43.0 (0)
 -->
<!-- Title: SystemDescriptionParser Pages: 1 -->
<svg width="789pt" height="816pt"
 viewBox="0.00 0.00 788.50 816.00" xmlns="http://www.w3.org/2000/svg" xmlns:xlink="http://www.w3.org/1999/xlink">
<g id="graph0" class="graph" transform="scale(1 1) rotate(0) translate(4 812)">
<title>SystemDescriptionParser</title>
<polygon fill="white" stroke="transparent" points="-4,4 -4,-812 784.5,-812 784.5,4 -4,4"/>
<!-- Node1 -->
<g id="node1" class="node">
<title>Node1</title>
<g id="a_node1"><a xlink:title="Parses netlists and produces system descriptions.">
<polygon fill="#bfbfbf" stroke="black" points="299,-480.5 299,-680.5 427,-680.5 427,-480.5 299,-480.5"/>
<text text-anchor="middle" x="363" y="-668.5" font-family="Helvetica,sans-Serif" font-size="10.00">SystemDescriptionParser</text>
<polyline fill="none" stroke="black" points="299,-661.5 427,-661.5 "/>
<text text-anchor="start" x="307" y="-649.5" font-family="Helvetica,sans-Serif" font-size="10.00">+ m_sd</text>
<text text-anchor="start" x="307" y="-638.5" font-family="Helvetica,sans-Serif" font-size="10.00">+ m_f</text>
<text text-anchor="start" x="307" y="-627.5" font-family="Helvetica,sans-Serif" font-size="10.00">+ m_lines</text>
<text text-anchor="start" x="307" y="-616.5" font-family="Helvetica,sans-Serif" font-size="10.00">+ m_addThru</text>
<text text-anchor="start" x="307" y="-605.5" font-family="Helvetica,sans-Serif" font-size="10.00">+ known</text>
<text text-anchor="start" x="307" y="-594.5" font-family="Helvetica,sans-Serif" font-size="10.00">+ delayDict</text>
<text text-anchor="start" x="307" y="-583.5" font-family="Helvetica,sans-Serif" font-size="10.00">+ m_spc</text>
<text text-anchor="start" x="307" y="-572.5" font-family="Helvetica,sans-Serif" font-size="10.00">+ m_spcl</text>
<text text-anchor="start" x="307" y="-561.5" font-family="Helvetica,sans-Serif" font-size="10.00">+ m_ul</text>
<text text-anchor="start" x="307" y="-550.5" font-family="Helvetica,sans-Serif" font-size="10.00">+ MultiPortTee</text>
<polyline fill="none" stroke="black" points="299,-543.5 427,-543.5 "/>
<text text-anchor="start" x="307" y="-531.5" font-family="Helvetica,sans-Serif" font-size="10.00">+ __init__()</text>
<text text-anchor="start" x="307" y="-520.5" font-family="Helvetica,sans-Serif" font-size="10.00">+ SystemDescription()</text>
<text text-anchor="start" x="307" y="-509.5" font-family="Helvetica,sans-Serif" font-size="10.00">+ AddKnownDevices()</text>
<text text-anchor="start" x="307" y="-498.5" font-family="Helvetica,sans-Serif" font-size="10.00">+ AddLine()</text>
<text text-anchor="start" x="307" y="-487.5" font-family="Helvetica,sans-Serif" font-size="10.00">+ AddLines()</text>
</a>
</g>
</g>
<!-- Node4 -->
<g id="node4" class="node">
<title>Node4</title>
<g id="a_node4"><a xlink:href="classSignalIntegrity_1_1Lib_1_1Parsers_1_1CalibrationParser_1_1CalibrationParser.xhtml" target="_top" xlink:title="base class for netlist based error terms solutions">
<polygon fill="white" stroke="black" points="14.5,-342.5 14.5,-443.5 159.5,-443.5 159.5,-342.5 14.5,-342.5"/>
<text text-anchor="middle" x="87" y="-431.5" font-family="Helvetica,sans-Serif" font-size="10.00">CalibrationParser</text>
<polyline fill="none" stroke="black" points="14.5,-424.5 159.5,-424.5 "/>
<text text-anchor="start" x="22.5" y="-412.5" font-family="Helvetica,sans-Serif" font-size="10.00">+ ports</text>
<text text-anchor="start" x="22.5" y="-401.5" font-family="Helvetica,sans-Serif" font-size="10.00">+ calibrationMeasurementList</text>
<text text-anchor="start" x="22.5" y="-390.5" font-family="Helvetica,sans-Serif" font-size="10.00">+ m_spc</text>
<text text-anchor="start" x="22.5" y="-379.5" font-family="Helvetica,sans-Serif" font-size="10.00">+ m_ul</text>
<text text-anchor="start" x="22.5" y="-368.5" font-family="Helvetica,sans-Serif" font-size="10.00">+ calibration</text>
<polyline fill="none" stroke="black" points="14.5,-361.5 159.5,-361.5 "/>
<text text-anchor="start" x="22.5" y="-349.5" font-family="Helvetica,sans-Serif" font-size="10.00">+ __init__()</text>
</a>
</g>
</g>
<!-- Node1&#45;&gt;Node4 -->
<g id="edge3" class="edge">
<title>Node1&#45;&gt;Node4</title>
<path fill="none" stroke="midnightblue" d="M290.55,-530.8C250.26,-503.73 200.28,-470.13 159.92,-443.01"/>
<polygon fill="none" stroke="midnightblue" points="288.73,-533.8 298.99,-536.48 292.64,-527.99 288.73,-533.8"/>
</g>
<!-- Node6 -->
<g id="node6" class="node">
<title>Node6</title>
<g id="a_node6"><a xlink:href="classSignalIntegrity_1_1Lib_1_1Parsers_1_1DeembedderParser_1_1DeembedderParser.xhtml" target="_top" xlink:title="base class for netlist based deembedding solutions">
<polygon fill="white" stroke="black" points="182.5,-359 182.5,-427 283.5,-427 283.5,-359 182.5,-359"/>
<text text-anchor="middle" x="233" y="-415" font-family="Helvetica,sans-Serif" font-size="10.00">DeembedderParser</text>
<polyline fill="none" stroke="black" points="182.5,-408 283.5,-408 "/>
<text text-anchor="start" x="190.5" y="-396" font-family="Helvetica,sans-Serif" font-size="10.00">+ m_sd</text>
<text text-anchor="start" x="190.5" y="-385" font-family="Helvetica,sans-Serif" font-size="10.00">+ m_ul</text>
<polyline fill="none" stroke="black" points="182.5,-378 283.5,-378 "/>
<text text-anchor="start" x="190.5" y="-366" font-family="Helvetica,sans-Serif" font-size="10.00">+ __init__()</text>
</a>
</g>
</g>
<!-- Node1&#45;&gt;Node6 -->
<g id="edge5" class="edge">
<title>Node1&#45;&gt;Node6</title>
<path fill="none" stroke="midnightblue" d="M293.06,-479.7C279.8,-460.78 266.82,-442.26 256.34,-427.31"/>
<polygon fill="none" stroke="midnightblue" points="290.35,-481.93 298.95,-488.11 296.08,-477.91 290.35,-481.93"/>
</g>
<!-- Node8 -->
<g id="node8" class="node">
<title>Node8</title>
<g id="a_node8"><a xlink:href="classSignalIntegrity_1_1Lib_1_1Parsers_1_1SimulatorParser_1_1SimulatorParser.xhtml" target="_top" xlink:title="base class for netlist based simulation solutions">
<polygon fill="white" stroke="black" points="320,-359 320,-427 406,-427 406,-359 320,-359"/>
<text text-anchor="middle" x="363" y="-415" font-family="Helvetica,sans-Serif" font-size="10.00">SimulatorParser</text>
<polyline fill="none" stroke="black" points="320,-408 406,-408 "/>
<text text-anchor="start" x="328" y="-396" font-family="Helvetica,sans-Serif" font-size="10.00">+ m_sd</text>
<text text-anchor="start" x="328" y="-385" font-family="Helvetica,sans-Serif" font-size="10.00">+ m_ul</text>
<polyline fill="none" stroke="black" points="320,-378 406,-378 "/>
<text text-anchor="start" x="328" y="-366" font-family="Helvetica,sans-Serif" font-size="10.00">+ __init__()</text>
</a>
</g>
</g>
<!-- Node1&#45;&gt;Node8 -->
<g id="edge7" class="edge">
<title>Node1&#45;&gt;Node8</title>
<path fill="none" stroke="midnightblue" d="M363,-469.98C363,-454.49 363,-439.64 363,-427.25"/>
<polygon fill="none" stroke="midnightblue" points="359.5,-470.23 363,-480.23 366.5,-470.23 359.5,-470.23"/>
</g>
<!-- Node11 -->
<g id="node11" class="node">
<title>Node11</title>
<g id="a_node11"><a xlink:href="classSignalIntegrity_1_1Lib_1_1Parsers_1_1SystemSParametersParser_1_1SystemSParametersNumericParser.xhtml" target="_top" xlink:title="generates system s&#45;parameters from a netlist">
<polygon fill="white" stroke="black" points="443,-353.5 443,-432.5 587,-432.5 587,-353.5 443,-353.5"/>
<text text-anchor="start" x="451" y="-420.5" font-family="Helvetica,sans-Serif" font-size="10.00">SystemSParametersNumeric</text>
<text text-anchor="middle" x="515" y="-409.5" font-family="Helvetica,sans-Serif" font-size="10.00">Parser</text>
<polyline fill="none" stroke="black" points="443,-402.5 587,-402.5 "/>
<text text-anchor="start" x="451" y="-390.5" font-family="Helvetica,sans-Serif" font-size="10.00">+ sf</text>
<polyline fill="none" stroke="black" points="443,-383.5 587,-383.5 "/>
<text text-anchor="start" x="451" y="-371.5" font-family="Helvetica,sans-Serif" font-size="10.00">+ __init__()</text>
<text text-anchor="start" x="451" y="-360.5" font-family="Helvetica,sans-Serif" font-size="10.00">+ SParameters()</text>
</a>
</g>
</g>
<!-- Node1&#45;&gt;Node11 -->
<g id="edge10" class="edge">
<title>Node1&#45;&gt;Node11</title>
<path fill="none" stroke="midnightblue" d="M433.44,-493.53C450.94,-472.18 468.83,-450.35 483.38,-432.59"/>
<polygon fill="none" stroke="midnightblue" points="430.65,-491.42 427.02,-501.37 436.07,-495.85 430.65,-491.42"/>
</g>
<!-- Node13 -->
<g id="node13" class="node">
<title>Node13</title>
<g id="a_node13"><a xlink:href="classSignalIntegrity_1_1Lib_1_1Parsers_1_1VirtualProbeParser_1_1VirtualProbeParser.xhtml" target="_top" xlink:title="base class for netlist based virtual probing solutions">
<polygon fill="white" stroke="black" points="634,-359 634,-427 732,-427 732,-359 634,-359"/>
<text text-anchor="middle" x="683" y="-415" font-family="Helvetica,sans-Serif" font-size="10.00">VirtualProbeParser</text>
<polyline fill="none" stroke="black" points="634,-408 732,-408 "/>
<text text-anchor="start" x="642" y="-396" font-family="Helvetica,sans-Serif" font-size="10.00">+ m_sd</text>
<text text-anchor="start" x="642" y="-385" font-family="Helvetica,sans-Serif" font-size="10.00">+ m_ul</text>
<polyline fill="none" stroke="black" points="634,-378 732,-378 "/>
<text text-anchor="start" x="642" y="-366" font-family="Helvetica,sans-Serif" font-size="10.00">+ __init__()</text>
</a>
</g>
</g>
<!-- Node1&#45;&gt;Node13 -->
<g id="edge12" class="edge">
<title>Node1&#45;&gt;Node13</title>
<path fill="none" stroke="midnightblue" d="M436.13,-537.11C496.71,-501.99 581.13,-453.05 633.9,-422.46"/>
<polygon fill="none" stroke="midnightblue" points="434.27,-534.14 427.37,-542.18 437.78,-540.2 434.27,-534.14"/>
</g>
<!-- Node2 -->
<g id="node2" class="node">
<title>Node2</title>
<g id="a_node2"><a xlink:href="classSignalIntegrity_1_1Lib_1_1Parsers_1_1ParserFile_1_1ParserFile.xhtml" target="_top" xlink:title="file handling base class for parsers">
<polygon fill="white" stroke="black" points="267,-728.5 267,-796.5 347,-796.5 347,-728.5 267,-728.5"/>
<text text-anchor="middle" x="307" y="-784.5" font-family="Helvetica,sans-Serif" font-size="10.00">ParserFile</text>
<polyline fill="none" stroke="black" points="267,-777.5 347,-777.5 "/>
<text text-anchor="middle" x="307" y="-765.5" font-family="Helvetica,sans-Serif" font-size="10.00"> </text>
<polyline fill="none" stroke="black" points="267,-758.5 347,-758.5 "/>
<text text-anchor="start" x="275" y="-746.5" font-family="Helvetica,sans-Serif" font-size="10.00">+ File()</text>
<text text-anchor="start" x="275" y="-735.5" font-family="Helvetica,sans-Serif" font-size="10.00">+ WriteToFile()</text>
</a>
</g>
</g>
<!-- Node2&#45;&gt;Node1 -->
<g id="edge1" class="edge">
<title>Node2&#45;&gt;Node1</title>
<path fill="none" stroke="midnightblue" d="M320.33,-718.67C323.95,-707.03 328.02,-693.92 332.18,-680.55"/>
<polygon fill="none" stroke="midnightblue" points="316.9,-717.9 317.27,-728.49 323.58,-719.98 316.9,-717.9"/>
</g>
<!-- Node3 -->
<g id="node3" class="node">
<title>Node3</title>
<g id="a_node3"><a xlink:href="classSignalIntegrity_1_1Lib_1_1Parsers_1_1ParserArgs_1_1ParserArgs.xhtml" target="_top" xlink:title="argument handling base class for parsers">
<polygon fill="white" stroke="black" points="365,-717.5 365,-807.5 473,-807.5 473,-717.5 365,-717.5"/>
<text text-anchor="middle" x="419" y="-795.5" font-family="Helvetica,sans-Serif" font-size="10.00">ParserArgs</text>
<polyline fill="none" stroke="black" points="365,-788.5 473,-788.5 "/>
<text text-anchor="start" x="373" y="-776.5" font-family="Helvetica,sans-Serif" font-size="10.00">+ m_vars</text>
<text text-anchor="start" x="373" y="-765.5" font-family="Helvetica,sans-Serif" font-size="10.00">+ m_args</text>
<polyline fill="none" stroke="black" points="365,-758.5 473,-758.5 "/>
<text text-anchor="start" x="373" y="-746.5" font-family="Helvetica,sans-Serif" font-size="10.00">+ AssignArguments()</text>
<text text-anchor="start" x="373" y="-735.5" font-family="Helvetica,sans-Serif" font-size="10.00">+ ReplaceArgs()</text>
<text text-anchor="start" x="373" y="-724.5" font-family="Helvetica,sans-Serif" font-size="10.00">+ ProcessVariables()</text>
</a>
</g>
</g>
<!-- Node3&#45;&gt;Node1 -->
<g id="edge2" class="edge">
<title>Node3&#45;&gt;Node1</title>
<path fill="none" stroke="midnightblue" d="M402.32,-707.88C399.61,-699.17 396.73,-689.91 393.81,-680.52"/>
<polygon fill="none" stroke="midnightblue" points="398.99,-708.96 405.3,-717.47 405.67,-706.88 398.99,-708.96"/>
</g>
<!-- Node5 -->
<g id="node5" class="node">
<title>Node5</title>
<g id="a_node5"><a xlink:href="classSignalIntegrity_1_1Lib_1_1Parsers_1_1CalibrationNumericParser_1_1CalibrationNumericParser.xhtml" target="_top" xlink:title="generates a calibration from a netlist">
<polygon fill="white" stroke="black" points="0,-215.5 0,-283.5 128,-283.5 128,-215.5 0,-215.5"/>
<text text-anchor="middle" x="64" y="-271.5" font-family="Helvetica,sans-Serif" font-size="10.00">CalibrationNumericParser</text>
<polyline fill="none" stroke="black" points="0,-264.5 128,-264.5 "/>
<text text-anchor="start" x="8" y="-252.5" font-family="Helvetica,sans-Serif" font-size="10.00">+ calibration</text>
<polyline fill="none" stroke="black" points="0,-245.5 128,-245.5 "/>
<text text-anchor="start" x="8" y="-233.5" font-family="Helvetica,sans-Serif" font-size="10.00">+ __init__()</text>
<text text-anchor="start" x="8" y="-222.5" font-family="Helvetica,sans-Serif" font-size="10.00">+ CalculateCalibration()</text>
</a>
</g>
</g>
<!-- Node4&#45;&gt;Node5 -->
<g id="edge4" class="edge">
<title>Node4&#45;&gt;Node5</title>
<path fill="none" stroke="midnightblue" d="M77.24,-331.93C74.54,-315.36 71.72,-297.99 69.37,-283.57"/>
<polygon fill="none" stroke="midnightblue" points="73.83,-332.8 78.89,-342.11 80.74,-331.68 73.83,-332.8"/>
</g>
<!-- Node7 -->
<g id="node7" class="node">
<title>Node7</title>
<g id="a_node7"><a xlink:href="classSignalIntegrity_1_1Lib_1_1Parsers_1_1DeembedderNumericParser_1_1DeembedderNumericParser.xhtml" target="_top" xlink:title="generates deembedd s&#45;parameters from a netlist">
<polygon fill="white" stroke="black" points="146.5,-215.5 146.5,-283.5 283.5,-283.5 283.5,-215.5 146.5,-215.5"/>
<text text-anchor="middle" x="215" y="-271.5" font-family="Helvetica,sans-Serif" font-size="10.00">DeembedderNumericParser</text>
<polyline fill="none" stroke="black" points="146.5,-264.5 283.5,-264.5 "/>
<text text-anchor="start" x="154.5" y="-252.5" font-family="Helvetica,sans-Serif" font-size="10.00">+ sf</text>
<polyline fill="none" stroke="black" points="146.5,-245.5 283.5,-245.5 "/>
<text text-anchor="start" x="154.5" y="-233.5" font-family="Helvetica,sans-Serif" font-size="10.00">+ __init__()</text>
<text text-anchor="start" x="154.5" y="-222.5" font-family="Helvetica,sans-Serif" font-size="10.00">+ Deembed()</text>
</a>
</g>
</g>
<!-- Node6&#45;&gt;Node7 -->
<g id="edge6" class="edge">
<title>Node6&#45;&gt;Node7</title>
<path fill="none" stroke="midnightblue" d="M227.48,-348.64C224.84,-327.84 221.72,-303.3 219.26,-283.96"/>
<polygon fill="none" stroke="midnightblue" points="224.05,-349.35 228.78,-358.82 230.99,-348.46 224.05,-349.35"/>
</g>
<!-- Node9 -->
<g id="node9" class="node">
<title>Node9</title>
<g id="a_node9"><a xlink:href="classSignalIntegrity_1_1Lib_1_1Parsers_1_1SimulatorNumericParser_1_1SimulatorNumericParser.xhtml" target="_top" xlink:title="performs numeric simulations from netlists">
<polygon fill="white" stroke="black" points="301.5,-215.5 301.5,-283.5 424.5,-283.5 424.5,-215.5 301.5,-215.5"/>
<text text-anchor="middle" x="363" y="-271.5" font-family="Helvetica,sans-Serif" font-size="10.00">SimulatorNumericParser</text>
<polyline fill="none" stroke="black" points="301.5,-264.5 424.5,-264.5 "/>
<text text-anchor="start" x="309.5" y="-252.5" font-family="Helvetica,sans-Serif" font-size="10.00">+ transferMatrices</text>
<polyline fill="none" stroke="black" points="301.5,-245.5 424.5,-245.5 "/>
<text text-anchor="start" x="309.5" y="-233.5" font-family="Helvetica,sans-Serif" font-size="10.00">+ __init__()</text>
<text text-anchor="start" x="309.5" y="-222.5" font-family="Helvetica,sans-Serif" font-size="10.00">+ TransferMatrices()</text>
</a>
</g>
</g>
<!-- Node8&#45;&gt;Node9 -->
<g id="edge8" class="edge">
<title>Node8&#45;&gt;Node9</title>
<path fill="none" stroke="midnightblue" d="M363,-348.64C363,-327.84 363,-303.3 363,-283.96"/>
<polygon fill="none" stroke="midnightblue" points="359.5,-348.82 363,-358.82 366.5,-348.82 359.5,-348.82"/>
</g>
<!-- Node10 -->
<g id="node10" class="node">
<title>Node10</title>
<g id="a_node10"><a xlink:href="classSignalIntegrity_1_1Lib_1_1Parsers_1_1NetworkAnalyzerSimulationNumericParser_1_1NetworkAnalyzerSimulationNumericParser.xhtml" target="_top" xlink:title="performs numeric simulations from netlists">
<polygon fill="white" stroke="black" points="294.5,-0.5 294.5,-156.5 431.5,-156.5 431.5,-0.5 294.5,-0.5"/>
<text text-anchor="start" x="302.5" y="-144.5" font-family="Helvetica,sans-Serif" font-size="10.00">NetworkAnalyzerSimulation</text>
<text text-anchor="middle" x="363" y="-133.5" font-family="Helvetica,sans-Serif" font-size="10.00">NumericParser</text>
<polyline fill="none" stroke="black" points="294.5,-126.5 431.5,-126.5 "/>
<text text-anchor="start" x="302.5" y="-114.5" font-family="Helvetica,sans-Serif" font-size="10.00">+ PortConnectionList</text>
<text text-anchor="start" x="302.5" y="-103.5" font-family="Helvetica,sans-Serif" font-size="10.00">+ DutSParameters</text>
<text text-anchor="start" x="302.5" y="-92.5" font-family="Helvetica,sans-Serif" font-size="10.00">+ simulationType</text>
<text text-anchor="start" x="302.5" y="-81.5" font-family="Helvetica,sans-Serif" font-size="10.00">+ dutknown</text>
<text text-anchor="start" x="302.5" y="-70.5" font-family="Helvetica,sans-Serif" font-size="10.00">+ simulationNumPorts</text>
<text text-anchor="start" x="302.5" y="-59.5" font-family="Helvetica,sans-Serif" font-size="10.00">+ m_lines</text>
<polyline fill="none" stroke="black" points="294.5,-52.5 431.5,-52.5 "/>
<text text-anchor="start" x="302.5" y="-40.5" font-family="Helvetica,sans-Serif" font-size="10.00">+ __init__()</text>
<text text-anchor="start" x="302.5" y="-29.5" font-family="Helvetica,sans-Serif" font-size="10.00">+ HashValue()</text>
<text text-anchor="start" x="302.5" y="-18.5" font-family="Helvetica,sans-Serif" font-size="10.00">+ ArrangeSimulation()</text>
<text text-anchor="start" x="302.5" y="-7.5" font-family="Helvetica,sans-Serif" font-size="10.00">+ TransferMatrices()</text>
</a>
</g>
</g>
<!-- Node9&#45;&gt;Node10 -->
<g id="edge9" class="edge">
<title>Node9&#45;&gt;Node10</title>
<path fill="none" stroke="midnightblue" d="M363,-204.79C363,-190.03 363,-173.09 363,-156.53"/>
<polygon fill="none" stroke="midnightblue" points="359.5,-205.11 363,-215.11 366.5,-205.11 359.5,-205.11"/>
</g>
<!-- Node12 -->
<g id="node12" class="node">
<title>Node12</title>
<g id="a_node12"><a xlink:href="classSignalIntegrity_1_1Lib_1_1Parsers_1_1DUTSParametersNumericParser_1_1DUTSParametersNumericParser.xhtml" target="_top" xlink:title="generates s&#45;parameters of a DUT from a network analyzer model netlist">
<polygon fill="white" stroke="black" points="443,-193.5 443,-305.5 627,-305.5 627,-193.5 443,-193.5"/>
<text text-anchor="middle" x="535" y="-293.5" font-family="Helvetica,sans-Serif" font-size="10.00">DUTSParametersNumericParser</text>
<polyline fill="none" stroke="black" points="443,-286.5 627,-286.5 "/>
<text text-anchor="start" x="451" y="-274.5" font-family="Helvetica,sans-Serif" font-size="10.00">+ NetworkAnalyzerProjectFile</text>
<text text-anchor="start" x="451" y="-263.5" font-family="Helvetica,sans-Serif" font-size="10.00">+ NetworkAnalyzerPortConnectionList</text>
<text text-anchor="start" x="451" y="-252.5" font-family="Helvetica,sans-Serif" font-size="10.00">+ m_lines</text>
<polyline fill="none" stroke="black" points="443,-245.5 627,-245.5 "/>
<text text-anchor="start" x="451" y="-233.5" font-family="Helvetica,sans-Serif" font-size="10.00">+ __init__()</text>
<text text-anchor="start" x="451" y="-222.5" font-family="Helvetica,sans-Serif" font-size="10.00">+ HashValue()</text>
<text text-anchor="start" x="451" y="-211.5" font-family="Helvetica,sans-Serif" font-size="10.00">+ ConfigureForDUTCalculation()</text>
<text text-anchor="start" x="451" y="-200.5" font-family="Helvetica,sans-Serif" font-size="10.00">+ SParameters()</text>
</a>
</g>
</g>
<!-- Node11&#45;&gt;Node12 -->
<g id="edge11" class="edge">
<title>Node11&#45;&gt;Node12</title>
<path fill="none" stroke="midnightblue" d="M521.87,-343.37C523.6,-331.19 525.45,-318.03 527.22,-305.56"/>
<polygon fill="none" stroke="midnightblue" points="518.4,-342.94 520.47,-353.33 525.33,-343.92 518.4,-342.94"/>
</g>
<!-- Node14 -->
<g id="node14" class="node">
<title>Node14</title>
<g id="a_node14"><a xlink:href="classSignalIntegrity_1_1Lib_1_1Parsers_1_1VirtualProbeNumericParser_1_1VirtualProbeNumericParser.xhtml" target="_top" xlink:title="performs numeric virtual probing from netlists">
<polygon fill="white" stroke="black" points="645.5,-210 645.5,-289 780.5,-289 780.5,-210 645.5,-210"/>
<text text-anchor="middle" x="713" y="-277" font-family="Helvetica,sans-Serif" font-size="10.00">VirtualProbeNumericParser</text>
<polyline fill="none" stroke="black" points="645.5,-270 780.5,-270 "/>
<text text-anchor="start" x="653.5" y="-258" font-family="Helvetica,sans-Serif" font-size="10.00">+ transferMatrices</text>
<text text-anchor="start" x="653.5" y="-247" font-family="Helvetica,sans-Serif" font-size="10.00">+ m_tm</text>
<polyline fill="none" stroke="black" points="645.5,-240 780.5,-240 "/>
<text text-anchor="start" x="653.5" y="-228" font-family="Helvetica,sans-Serif" font-size="10.00">+ __init__()</text>
<text text-anchor="start" x="653.5" y="-217" font-family="Helvetica,sans-Serif" font-size="10.00">+ TransferMatrices()</text>
</a>
</g>
</g>
<!-- Node13&#45;&gt;Node14 -->
<g id="edge13" class="edge">
<title>Node13&#45;&gt;Node14</title>
<path fill="none" stroke="midnightblue" d="M692.13,-348.92C696.17,-329.9 700.87,-307.72 704.79,-289.23"/>
<polygon fill="none" stroke="midnightblue" points="688.68,-348.32 690.03,-358.82 695.53,-349.77 688.68,-348.32"/>
</g>
</g>
</svg>
