<?xml version="1.0" encoding="UTF-8" standalone="no"?>
<!DOCTYPE svg PUBLIC "-//W3C//DTD SVG 1.1//EN"
 "http://www.w3.org/Graphics/SVG/1.1/DTD/svg11.dtd">
<!-- Generated by graphviz version 2.40.1 (20161225.0304)
 -->
<!-- Title: SystemSParametersNumericParser Pages: 1 -->
<svg width="367pt" height="430pt"
 viewBox="0.00 0.00 367.50 430.00" xmlns="http://www.w3.org/2000/svg" xmlns:xlink="http://www.w3.org/1999/xlink">
<g id="graph0" class="graph" transform="scale(1 1) rotate(0) translate(4 426)">
<title>SystemSParametersNumericParser</title>
<polygon fill="#ffffff" stroke="transparent" points="-4,4 -4,-426 363.5,-426 363.5,4 -4,4"/>
<!-- Node0 -->
<g id="node1" class="node">
<title>Node0</title>
<polygon fill="#bfbfbf" stroke="#000000" points="128,-.5 128,-79.5 272,-79.5 272,-.5 128,-.5"/>
<text text-anchor="start" x="136" y="-67.5" font-family="Helvetica,sans-Serif" font-size="10.00" fill="#000000">SystemSParametersNumeric</text>
<text text-anchor="middle" x="200" y="-56.5" font-family="Helvetica,sans-Serif" font-size="10.00" fill="#000000">Parser</text>
<polyline fill="none" stroke="#000000" points="128,-49.5 272,-49.5 "/>
<text text-anchor="start" x="136" y="-37.5" font-family="Helvetica,sans-Serif" font-size="10.00" fill="#000000">+ sf</text>
<polyline fill="none" stroke="#000000" points="128,-30.5 272,-30.5 "/>
<text text-anchor="start" x="136" y="-18.5" font-family="Helvetica,sans-Serif" font-size="10.00" fill="#000000">+ __init__()</text>
<text text-anchor="start" x="136" y="-7.5" font-family="Helvetica,sans-Serif" font-size="10.00" fill="#000000">+ SParameters()</text>
</g>
<!-- Node1 -->
<g id="node2" class="node">
<title>Node1</title>
<g id="a_node2"><a xlink:href="classSignalIntegrity_1_1Parsers_1_1SystemDescriptionParser_1_1SystemDescriptionParser.xhtml" target="_top" xlink:title="Parses netlists and produces system descriptions. ">
<polygon fill="#ffffff" stroke="#000000" points="0,-116.5 0,-272.5 128,-272.5 128,-116.5 0,-116.5"/>
<text text-anchor="middle" x="64" y="-260.5" font-family="Helvetica,sans-Serif" font-size="10.00" fill="#000000">SystemDescriptionParser</text>
<polyline fill="none" stroke="#000000" points="0,-253.5 128,-253.5 "/>
<text text-anchor="start" x="8" y="-241.5" font-family="Helvetica,sans-Serif" font-size="10.00" fill="#000000">+ m_sd</text>
<text text-anchor="start" x="8" y="-230.5" font-family="Helvetica,sans-Serif" font-size="10.00" fill="#000000">+ m_f</text>
<text text-anchor="start" x="8" y="-219.5" font-family="Helvetica,sans-Serif" font-size="10.00" fill="#000000">+ m_lines</text>
<text text-anchor="start" x="8" y="-208.5" font-family="Helvetica,sans-Serif" font-size="10.00" fill="#000000">+ m_addThru</text>
<text text-anchor="start" x="8" y="-197.5" font-family="Helvetica,sans-Serif" font-size="10.00" fill="#000000">+ m_spc</text>
<text text-anchor="start" x="8" y="-186.5" font-family="Helvetica,sans-Serif" font-size="10.00" fill="#000000">+ m_spcl</text>
<text text-anchor="start" x="8" y="-175.5" font-family="Helvetica,sans-Serif" font-size="10.00" fill="#000000">+ m_ul</text>
<polyline fill="none" stroke="#000000" points="0,-168.5 128,-168.5 "/>
<text text-anchor="start" x="8" y="-156.5" font-family="Helvetica,sans-Serif" font-size="10.00" fill="#000000">+ __init__()</text>
<text text-anchor="start" x="8" y="-145.5" font-family="Helvetica,sans-Serif" font-size="10.00" fill="#000000">+ SystemDescription()</text>
<text text-anchor="start" x="8" y="-134.5" font-family="Helvetica,sans-Serif" font-size="10.00" fill="#000000">+ AddLine()</text>
<text text-anchor="start" x="8" y="-123.5" font-family="Helvetica,sans-Serif" font-size="10.00" fill="#000000">+ AddLines()</text>
</a>
</g>
</g>
<!-- Node1&#45;&gt;Node0 -->
<g id="edge1" class="edge">
<title>Node1&#45;&gt;Node0</title>
<path fill="none" stroke="#191970" d="M134.6326,-114.2593C145.2537,-102.1934 155.789,-90.2249 165.2001,-79.5337"/>
<polygon fill="none" stroke="#191970" points="131.9979,-111.9553 128.0177,-121.7741 137.2522,-116.5805 131.9979,-111.9553"/>
</g>
<!-- Node2 -->
<g id="node3" class="node">
<title>Node2</title>
<g id="a_node3"><a xlink:href="classSignalIntegrity_1_1Parsers_1_1ParserFile_1_1ParserFile.xhtml" target="_top" xlink:title="file handling base class for parsers ">
<polygon fill="#ffffff" stroke="#000000" points="23,-331.5 23,-399.5 105,-399.5 105,-331.5 23,-331.5"/>
<text text-anchor="middle" x="64" y="-387.5" font-family="Helvetica,sans-Serif" font-size="10.00" fill="#000000">ParserFile</text>
<polyline fill="none" stroke="#000000" points="23,-380.5 105,-380.5 "/>
<text text-anchor="middle" x="64" y="-368.5" font-family="Helvetica,sans-Serif" font-size="10.00" fill="#000000"> </text>
<polyline fill="none" stroke="#000000" points="23,-361.5 105,-361.5 "/>
<text text-anchor="start" x="31" y="-349.5" font-family="Helvetica,sans-Serif" font-size="10.00" fill="#000000">+ File()</text>
<text text-anchor="start" x="31" y="-338.5" font-family="Helvetica,sans-Serif" font-size="10.00" fill="#000000">+ WriteToFile()</text>
</a>
</g>
</g>
<!-- Node2&#45;&gt;Node1 -->
<g id="edge2" class="edge">
<title>Node2&#45;&gt;Node1</title>
<path fill="none" stroke="#191970" d="M64,-320.979C64,-306.2296 64,-289.3492 64,-272.8285"/>
<polygon fill="none" stroke="#191970" points="60.5001,-321.3065 64,-331.3066 67.5001,-321.3066 60.5001,-321.3065"/>
</g>
<!-- Node3 -->
<g id="node4" class="node">
<title>Node3</title>
<g id="a_node4"><a xlink:href="classSignalIntegrity_1_1CallBacker_1_1CallBacker.xhtml" target="_top" xlink:title="Handles Callbacks that allow progress reporting during long calculations and capability to abort...">
<polygon fill="#ffffff" stroke="#000000" points="146.5,-144 146.5,-245 253.5,-245 253.5,-144 146.5,-144"/>
<text text-anchor="middle" x="200" y="-233" font-family="Helvetica,sans-Serif" font-size="10.00" fill="#000000">CallBacker</text>
<polyline fill="none" stroke="#000000" points="146.5,-226 253.5,-226 "/>
<text text-anchor="start" x="154.5" y="-214" font-family="Helvetica,sans-Serif" font-size="10.00" fill="#000000">+ callback</text>
<polyline fill="none" stroke="#000000" points="146.5,-207 253.5,-207 "/>
<text text-anchor="start" x="154.5" y="-195" font-family="Helvetica,sans-Serif" font-size="10.00" fill="#000000">+ __init__()</text>
<text text-anchor="start" x="154.5" y="-184" font-family="Helvetica,sans-Serif" font-size="10.00" fill="#000000">+ HasACallBack()</text>
<text text-anchor="start" x="154.5" y="-173" font-family="Helvetica,sans-Serif" font-size="10.00" fill="#000000">+ CallBack()</text>
<text text-anchor="start" x="154.5" y="-162" font-family="Helvetica,sans-Serif" font-size="10.00" fill="#000000">+ InstallCallback()</text>
<text text-anchor="start" x="154.5" y="-151" font-family="Helvetica,sans-Serif" font-size="10.00" fill="#000000">+ RemoveCallback()</text>
</a>
</g>
</g>
<!-- Node3&#45;&gt;Node0 -->
<g id="edge3" class="edge">
<title>Node3&#45;&gt;Node0</title>
<path fill="none" stroke="#191970" d="M200,-133.7357C200,-115.6576 200,-96.3162 200,-79.9257"/>
<polygon fill="none" stroke="#191970" points="196.5001,-133.9109 200,-143.9109 203.5001,-133.911 196.5001,-133.9109"/>
</g>
<!-- Node4 -->
<g id="node5" class="node">
<title>Node4</title>
<g id="a_node5"><a xlink:href="classSignalIntegrity_1_1ResultsCache_1_1LinesCache.xhtml" target="_top" xlink:title="classdocs ">
<polygon fill="#ffffff" stroke="#000000" points="271.5,-149.5 271.5,-239.5 358.5,-239.5 358.5,-149.5 271.5,-149.5"/>
<text text-anchor="middle" x="315" y="-227.5" font-family="Helvetica,sans-Serif" font-size="10.00" fill="#000000">LinesCache</text>
<polyline fill="none" stroke="#000000" points="271.5,-220.5 358.5,-220.5 "/>
<text text-anchor="middle" x="315" y="-208.5" font-family="Helvetica,sans-Serif" font-size="10.00" fill="#000000"> </text>
<polyline fill="none" stroke="#000000" points="271.5,-201.5 358.5,-201.5 "/>
<text text-anchor="start" x="279.5" y="-189.5" font-family="Helvetica,sans-Serif" font-size="10.00" fill="#000000">+ __init__()</text>
<text text-anchor="start" x="279.5" y="-178.5" font-family="Helvetica,sans-Serif" font-size="10.00" fill="#000000">+ HashValue()</text>
<text text-anchor="start" x="279.5" y="-167.5" font-family="Helvetica,sans-Serif" font-size="10.00" fill="#000000">+ FileTime()</text>
<text text-anchor="start" x="279.5" y="-156.5" font-family="Helvetica,sans-Serif" font-size="10.00" fill="#000000">+ CheckTimes()</text>
</a>
</g>
</g>
<!-- Node4&#45;&gt;Node0 -->
<g id="edge4" class="edge">
<title>Node4&#45;&gt;Node0</title>
<path fill="none" stroke="#191970" d="M279.7181,-140.8413C273.9225,-132.4384 267.8848,-123.9192 262,-116 253.0623,-103.9726 242.9431,-91.2336 233.5108,-79.6933"/>
<polygon fill="none" stroke="#191970" points="276.8852,-142.8992 285.4185,-149.179 282.6638,-138.9485 276.8852,-142.8992"/>
</g>
<!-- Node5 -->
<g id="node6" class="node">
<title>Node5</title>
<g id="a_node6"><a xlink:href="classSignalIntegrity_1_1ResultsCache_1_1ResultsCache.xhtml" target="_top" xlink:title="classdocs ">
<polygon fill="#ffffff" stroke="#000000" points="270.5,-309.5 270.5,-421.5 359.5,-421.5 359.5,-309.5 270.5,-309.5"/>
<text text-anchor="middle" x="315" y="-409.5" font-family="Helvetica,sans-Serif" font-size="10.00" fill="#000000">ResultsCache</text>
<polyline fill="none" stroke="#000000" points="270.5,-402.5 359.5,-402.5 "/>
<text text-anchor="start" x="278.5" y="-390.5" font-family="Helvetica,sans-Serif" font-size="10.00" fill="#000000">+ filename</text>
<text text-anchor="start" x="278.5" y="-379.5" font-family="Helvetica,sans-Serif" font-size="10.00" fill="#000000">+ extra</text>
<text text-anchor="start" x="278.5" y="-368.5" font-family="Helvetica,sans-Serif" font-size="10.00" fill="#000000">+ hash</text>
<polyline fill="none" stroke="#000000" points="270.5,-361.5 359.5,-361.5 "/>
<text text-anchor="start" x="278.5" y="-349.5" font-family="Helvetica,sans-Serif" font-size="10.00" fill="#000000">+ __init__()</text>
<text text-anchor="start" x="278.5" y="-338.5" font-family="Helvetica,sans-Serif" font-size="10.00" fill="#000000">+ CheckCache()</text>
<text text-anchor="start" x="278.5" y="-327.5" font-family="Helvetica,sans-Serif" font-size="10.00" fill="#000000">+ CacheResult()</text>
<text text-anchor="start" x="278.5" y="-316.5" font-family="Helvetica,sans-Serif" font-size="10.00" fill="#000000">+ CheckTimes()</text>
</a>
</g>
</g>
<!-- Node5&#45;&gt;Node4 -->
<g id="edge5" class="edge">
<title>Node5&#45;&gt;Node4</title>
<path fill="none" stroke="#191970" d="M315,-298.8056C315,-278.951 315,-257.6729 315,-239.547"/>
<polygon fill="none" stroke="#191970" points="311.5001,-299.0343 315,-309.0343 318.5001,-299.0343 311.5001,-299.0343"/>
</g>
</g>
</svg>
