<?xml version="1.0" encoding="UTF-8" standalone="no"?>
<!DOCTYPE svg PUBLIC "-//W3C//DTD SVG 1.1//EN"
 "http://www.w3.org/Graphics/SVG/1.1/DTD/svg11.dtd">
<!-- Generated by graphviz version 2.40.1 (20161225.0304)
 -->
<!-- Title: Deembedder Pages: 1 -->
<svg width="253pt" height="601pt"
 viewBox="0.00 0.00 253.50 601.00" xmlns="http://www.w3.org/2000/svg" xmlns:xlink="http://www.w3.org/1999/xlink">
<g id="graph0" class="graph" transform="scale(1 1) rotate(0) translate(4 597)">
<title>Deembedder</title>
<polygon fill="#ffffff" stroke="transparent" points="-4,4 -4,-597 249.5,-597 249.5,4 -4,4"/>
<!-- Node0 -->
<g id="node1" class="node">
<title>Node0</title>
<polygon fill="#bfbfbf" stroke="#000000" points="71,-105.5 71,-228.5 175,-228.5 175,-105.5 71,-105.5"/>
<text text-anchor="middle" x="123" y="-216.5" font-family="Helvetica,sans-Serif" font-size="10.00" fill="#000000">Deembedder</text>
<polyline fill="none" stroke="#000000" points="71,-209.5 175,-209.5 "/>
<text text-anchor="middle" x="123" y="-197.5" font-family="Helvetica,sans-Serif" font-size="10.00" fill="#000000"> </text>
<polyline fill="none" stroke="#000000" points="71,-190.5 175,-190.5 "/>
<text text-anchor="start" x="79" y="-178.5" font-family="Helvetica,sans-Serif" font-size="10.00" fill="#000000">+ __init__()</text>
<text text-anchor="start" x="79" y="-167.5" font-family="Helvetica,sans-Serif" font-size="10.00" fill="#000000">+ AddUnknown()</text>
<text text-anchor="start" x="79" y="-156.5" font-family="Helvetica,sans-Serif" font-size="10.00" fill="#000000">+ DutANames()</text>
<text text-anchor="start" x="79" y="-145.5" font-family="Helvetica,sans-Serif" font-size="10.00" fill="#000000">+ DutBNames()</text>
<text text-anchor="start" x="79" y="-134.5" font-family="Helvetica,sans-Serif" font-size="10.00" fill="#000000">+ UnknownNames()</text>
<text text-anchor="start" x="79" y="-123.5" font-family="Helvetica,sans-Serif" font-size="10.00" fill="#000000">+ UnknownPorts()</text>
<text text-anchor="start" x="79" y="-112.5" font-family="Helvetica,sans-Serif" font-size="10.00" fill="#000000">+ Partition()</text>
</g>
<!-- Node3 -->
<g id="node4" class="node">
<title>Node3</title>
<g id="a_node4"><a xlink:href="classSignalIntegrity_1_1SystemDescriptions_1_1DeembedderNumeric_1_1DeembedderNumeric.xhtml" target="_top" xlink:title="Performs numerical device deembedding. ">
<polygon fill="#ffffff" stroke="#000000" points="0,-.5 0,-68.5 114,-68.5 114,-.5 0,-.5"/>
<text text-anchor="middle" x="57" y="-56.5" font-family="Helvetica,sans-Serif" font-size="10.00" fill="#000000">DeembedderNumeric</text>
<polyline fill="none" stroke="#000000" points="0,-49.5 114,-49.5 "/>
<text text-anchor="middle" x="57" y="-37.5" font-family="Helvetica,sans-Serif" font-size="10.00" fill="#000000"> </text>
<polyline fill="none" stroke="#000000" points="0,-30.5 114,-30.5 "/>
<text text-anchor="start" x="8" y="-18.5" font-family="Helvetica,sans-Serif" font-size="10.00" fill="#000000">+ __init__()</text>
<text text-anchor="start" x="8" y="-7.5" font-family="Helvetica,sans-Serif" font-size="10.00" fill="#000000">+ CalculateUnknown()</text>
</a>
</g>
</g>
<!-- Node0&#45;&gt;Node3 -->
<g id="edge3" class="edge">
<title>Node0&#45;&gt;Node3</title>
<path fill="none" stroke="#191970" d="M87.7626,-96.2582C83.0169,-86.731 78.3333,-77.3282 74.1066,-68.8429"/>
<polygon fill="none" stroke="#191970" points="84.7271,-98.0143 92.3186,-105.4048 90.9928,-94.8932 84.7271,-98.0143"/>
</g>
<!-- Node4 -->
<g id="node5" class="node">
<title>Node4</title>
<g id="a_node5"><a xlink:href="classSignalIntegrity_1_1SystemDescriptions_1_1DeembedderSymbolic_1_1DeembedderSymbolic.xhtml" target="_top" xlink:title="class for producing symbolic solutions to deembedding problems. ">
<polygon fill="#ffffff" stroke="#000000" points="132.5,-.5 132.5,-68.5 245.5,-68.5 245.5,-.5 132.5,-.5"/>
<text text-anchor="middle" x="189" y="-56.5" font-family="Helvetica,sans-Serif" font-size="10.00" fill="#000000">DeembedderSymbolic</text>
<polyline fill="none" stroke="#000000" points="132.5,-49.5 245.5,-49.5 "/>
<text text-anchor="start" x="140.5" y="-37.5" font-family="Helvetica,sans-Serif" font-size="10.00" fill="#000000">+ m_Sk</text>
<polyline fill="none" stroke="#000000" points="132.5,-30.5 245.5,-30.5 "/>
<text text-anchor="start" x="140.5" y="-18.5" font-family="Helvetica,sans-Serif" font-size="10.00" fill="#000000">+ __init__()</text>
<text text-anchor="start" x="140.5" y="-7.5" font-family="Helvetica,sans-Serif" font-size="10.00" fill="#000000">+ SymbolicSolution()</text>
</a>
</g>
</g>
<!-- Node0&#45;&gt;Node4 -->
<g id="edge4" class="edge">
<title>Node0&#45;&gt;Node4</title>
<path fill="none" stroke="#191970" d="M158.2374,-96.2582C162.9831,-86.731 167.6667,-77.3282 171.8934,-68.8429"/>
<polygon fill="none" stroke="#191970" points="155.0072,-94.8932 153.6814,-105.4048 161.2729,-98.0143 155.0072,-94.8932"/>
</g>
<!-- Node1 -->
<g id="node2" class="node">
<title>Node1</title>
<g id="a_node2"><a xlink:href="classSignalIntegrity_1_1SystemDescriptions_1_1SystemSParameters_1_1SystemSParameters.xhtml" target="_top" xlink:title="base class for housekeeping involving system s&#45;parameters calculations ">
<polygon fill="#ffffff" stroke="#000000" points="69.5,-265.5 69.5,-388.5 176.5,-388.5 176.5,-265.5 69.5,-265.5"/>
<text text-anchor="middle" x="123" y="-376.5" font-family="Helvetica,sans-Serif" font-size="10.00" fill="#000000">SystemSParameters</text>
<polyline fill="none" stroke="#000000" points="69.5,-369.5 176.5,-369.5 "/>
<text text-anchor="middle" x="123" y="-357.5" font-family="Helvetica,sans-Serif" font-size="10.00" fill="#000000"> </text>
<polyline fill="none" stroke="#000000" points="69.5,-350.5 176.5,-350.5 "/>
<text text-anchor="start" x="77.5" y="-338.5" font-family="Helvetica,sans-Serif" font-size="10.00" fill="#000000">+ __init__()</text>
<text text-anchor="start" x="77.5" y="-327.5" font-family="Helvetica,sans-Serif" font-size="10.00" fill="#000000">+ PortANames()</text>
<text text-anchor="start" x="77.5" y="-316.5" font-family="Helvetica,sans-Serif" font-size="10.00" fill="#000000">+ PortBNames()</text>
<text text-anchor="start" x="77.5" y="-305.5" font-family="Helvetica,sans-Serif" font-size="10.00" fill="#000000">+ OtherNames()</text>
<text text-anchor="start" x="77.5" y="-294.5" font-family="Helvetica,sans-Serif" font-size="10.00" fill="#000000">+ NodeVector()</text>
<text text-anchor="start" x="77.5" y="-283.5" font-family="Helvetica,sans-Serif" font-size="10.00" fill="#000000">+ StimulusVector()</text>
<text text-anchor="start" x="77.5" y="-272.5" font-family="Helvetica,sans-Serif" font-size="10.00" fill="#000000"># WeightsMatrix()</text>
</a>
</g>
</g>
<!-- Node1&#45;&gt;Node0 -->
<g id="edge1" class="edge">
<title>Node1&#45;&gt;Node0</title>
<path fill="none" stroke="#191970" d="M123,-254.939C123,-246.1775 123,-237.2878 123,-228.6957"/>
<polygon fill="none" stroke="#191970" points="119.5001,-255.1398 123,-265.1398 126.5001,-255.1399 119.5001,-255.1398"/>
</g>
<!-- Node2 -->
<g id="node3" class="node">
<title>Node2</title>
<g id="a_node3"><a xlink:href="classSignalIntegrity_1_1SystemDescriptions_1_1SystemDescription_1_1SystemDescription.xhtml" target="_top" xlink:title="Allows the construction of system descriptions for use with all of the classes that solve schematics ...">
<polygon fill="#ffffff" stroke="#000000" points="63.5,-425.5 63.5,-592.5 182.5,-592.5 182.5,-425.5 63.5,-425.5"/>
<text text-anchor="middle" x="123" y="-580.5" font-family="Helvetica,sans-Serif" font-size="10.00" fill="#000000">SystemDescription</text>
<polyline fill="none" stroke="#000000" points="63.5,-573.5 182.5,-573.5 "/>
<text text-anchor="start" x="71.5" y="-561.5" font-family="Helvetica,sans-Serif" font-size="10.00" fill="#000000">+ m_UniqueDevice</text>
<text text-anchor="start" x="71.5" y="-550.5" font-family="Helvetica,sans-Serif" font-size="10.00" fill="#000000">+ m_UniqueNode</text>
<polyline fill="none" stroke="#000000" points="63.5,-543.5 182.5,-543.5 "/>
<text text-anchor="start" x="71.5" y="-531.5" font-family="Helvetica,sans-Serif" font-size="10.00" fill="#000000">+ __init__()</text>
<text text-anchor="start" x="71.5" y="-520.5" font-family="Helvetica,sans-Serif" font-size="10.00" fill="#000000">+ AddDevice()</text>
<text text-anchor="start" x="71.5" y="-509.5" font-family="Helvetica,sans-Serif" font-size="10.00" fill="#000000">+ AssignM()</text>
<text text-anchor="start" x="71.5" y="-498.5" font-family="Helvetica,sans-Serif" font-size="10.00" fill="#000000">+ DeviceNames()</text>
<text text-anchor="start" x="71.5" y="-487.5" font-family="Helvetica,sans-Serif" font-size="10.00" fill="#000000">+ IndexOfDevice()</text>
<text text-anchor="start" x="71.5" y="-476.5" font-family="Helvetica,sans-Serif" font-size="10.00" fill="#000000">+ CheckConnections()</text>
<text text-anchor="start" x="71.5" y="-465.5" font-family="Helvetica,sans-Serif" font-size="10.00" fill="#000000">+ ConnectDevicePort()</text>
<text text-anchor="start" x="71.5" y="-454.5" font-family="Helvetica,sans-Serif" font-size="10.00" fill="#000000">+ AddPort()</text>
<text text-anchor="start" x="71.5" y="-443.5" font-family="Helvetica,sans-Serif" font-size="10.00" fill="#000000">+ AssignSParameters()</text>
<text text-anchor="start" x="71.5" y="-432.5" font-family="Helvetica,sans-Serif" font-size="10.00" fill="#000000">+ Print()</text>
</a>
</g>
</g>
<!-- Node2&#45;&gt;Node1 -->
<g id="edge2" class="edge">
<title>Node2&#45;&gt;Node1</title>
<path fill="none" stroke="#191970" d="M123,-415.2394C123,-406.186 123,-397.1691 123,-388.5475"/>
<polygon fill="none" stroke="#191970" points="119.5001,-415.4574 123,-425.4574 126.5001,-415.4574 119.5001,-415.4574"/>
</g>
</g>
</svg>
