<?xml version="1.0" encoding="UTF-8" standalone="no"?>
<!DOCTYPE svg PUBLIC "-//W3C//DTD SVG 1.1//EN"
 "http://www.w3.org/Graphics/SVG/1.1/DTD/svg11.dtd">
<!-- Generated by graphviz version 2.40.1 (20161225.0304)
 -->
<!-- Title: SerialDataWaveform Pages: 1 -->
<svg width="115pt" height="303pt"
 viewBox="0.00 0.00 115.00 303.00" xmlns="http://www.w3.org/2000/svg" xmlns:xlink="http://www.w3.org/1999/xlink">
<g id="graph0" class="graph" transform="scale(1 1) rotate(0) translate(4 299)">
<title>SerialDataWaveform</title>
<polygon fill="#ffffff" stroke="transparent" points="-4,4 -4,-299 111,-299 111,4 -4,4"/>
<!-- Node4 -->
<g id="node1" class="node">
<title>Node4</title>
<polygon fill="#bfbfbf" stroke="#000000" points="0,-.5 0,-68.5 107,-68.5 107,-.5 0,-.5"/>
<text text-anchor="middle" x="53.5" y="-56.5" font-family="Helvetica,sans-Serif" font-size="10.00" fill="#000000">SerialDataWaveform</text>
<polyline fill="none" stroke="#000000" points="0,-49.5 107,-49.5 "/>
<text text-anchor="start" x="8" y="-37.5" font-family="Helvetica,sans-Serif" font-size="10.00" fill="#000000">+ rtvsT</text>
<polyline fill="none" stroke="#000000" points="0,-30.5 107,-30.5 "/>
<text text-anchor="start" x="8" y="-18.5" font-family="Helvetica,sans-Serif" font-size="10.00" fill="#000000">+ __init__()</text>
<text text-anchor="start" x="8" y="-7.5" font-family="Helvetica,sans-Serif" font-size="10.00" fill="#000000">+ TimeDescriptor()</text>
</g>
<!-- Node5 -->
<g id="node2" class="node">
<title>Node5</title>
<g id="a_node2"><a xlink:href="classSignalIntegrity_1_1Lib_1_1TimeDomain_1_1Waveform_1_1Waveform_1_1Waveform.xhtml" target="_top" xlink:title="base class for all waveforms ">
<polygon fill="#ffffff" stroke="#000000" points="4,-105.5 4,-294.5 103,-294.5 103,-105.5 4,-105.5"/>
<text text-anchor="middle" x="53.5" y="-282.5" font-family="Helvetica,sans-Serif" font-size="10.00" fill="#000000">Waveform</text>
<polyline fill="none" stroke="#000000" points="4,-275.5 103,-275.5 "/>
<text text-anchor="start" x="12" y="-263.5" font-family="Helvetica,sans-Serif" font-size="10.00" fill="#000000">+ td</text>
<text text-anchor="start" x="12" y="-252.5" font-family="Helvetica,sans-Serif" font-size="10.00" fill="#000000">+ adaptionStrategy</text>
<text text-anchor="start" x="12" y="-241.5" font-family="Helvetica,sans-Serif" font-size="10.00" fill="#000000">+ epsilon</text>
<polyline fill="none" stroke="#000000" points="4,-234.5 103,-234.5 "/>
<text text-anchor="start" x="12" y="-222.5" font-family="Helvetica,sans-Serif" font-size="10.00" fill="#000000">+ __init__()</text>
<text text-anchor="start" x="12" y="-211.5" font-family="Helvetica,sans-Serif" font-size="10.00" fill="#000000">+ Times()</text>
<text text-anchor="start" x="12" y="-200.5" font-family="Helvetica,sans-Serif" font-size="10.00" fill="#000000">+ TimeDescriptor()</text>
<text text-anchor="start" x="12" y="-189.5" font-family="Helvetica,sans-Serif" font-size="10.00" fill="#000000">+ Values()</text>
<text text-anchor="start" x="12" y="-178.5" font-family="Helvetica,sans-Serif" font-size="10.00" fill="#000000">+ OffsetBy()</text>
<text text-anchor="start" x="12" y="-167.5" font-family="Helvetica,sans-Serif" font-size="10.00" fill="#000000">+ DelayBy()</text>
<text text-anchor="start" x="12" y="-156.5" font-family="Helvetica,sans-Serif" font-size="10.00" fill="#000000">+ __add__()</text>
<text text-anchor="start" x="12" y="-145.5" font-family="Helvetica,sans-Serif" font-size="10.00" fill="#000000">+ __sub__()</text>
<text text-anchor="start" x="12" y="-134.5" font-family="Helvetica,sans-Serif" font-size="10.00" fill="#000000">+ __radd__()</text>
<text text-anchor="start" x="12" y="-123.5" font-family="Helvetica,sans-Serif" font-size="10.00" fill="#000000">+ __mul__()</text>
<text text-anchor="start" x="12" y="-112.5" font-family="Helvetica,sans-Serif" font-size="10.00" fill="#000000">and 11 more...</text>
</a>
</g>
</g>
<!-- Node5&#45;&gt;Node4 -->
<g id="edge1" class="edge">
<title>Node5&#45;&gt;Node4</title>
<path fill="none" stroke="#191970" d="M53.5,-94.9182C53.5,-85.5983 53.5,-76.6868 53.5,-68.707"/>
<polygon fill="none" stroke="#191970" points="50.0001,-95.1669 53.5,-105.167 57.0001,-95.167 50.0001,-95.1669"/>
</g>
</g>
</svg>
