<?xml version="1.0" encoding="UTF-8" standalone="no"?>
<!DOCTYPE svg PUBLIC "-//W3C//DTD SVG 1.1//EN"
 "http://www.w3.org/Graphics/SVG/1.1/DTD/svg11.dtd">
<!-- Generated by graphviz version 2.43.0 (0)
 -->
<!-- Title: ButterworthLowPassFilter Pages: 1 -->
<svg width="211pt" height="678pt"
 viewBox="0.00 0.00 211.00 678.00" xmlns="http://www.w3.org/2000/svg" xmlns:xlink="http://www.w3.org/1999/xlink">
<g id="graph0" class="graph" transform="scale(1 1) rotate(0) translate(4 674)">
<title>ButterworthLowPassFilter</title>
<polygon fill="white" stroke="transparent" points="-4,4 -4,-674 207,-674 207,4 -4,4"/>
<!-- Node1 -->
<g id="node1" class="node">
<title>Node1</title>
<g id="a_node1"><a xlink:title="Butterworth Low pass filter.">
<polygon fill="#bfbfbf" stroke="black" points="31.5,-0.5 31.5,-57.5 171.5,-57.5 171.5,-0.5 31.5,-0.5"/>
<text text-anchor="middle" x="101.5" y="-45.5" font-family="Helvetica,sans-Serif" font-size="10.00">ButterworthLowPassFilter</text>
<polyline fill="none" stroke="black" points="31.5,-38.5 171.5,-38.5 "/>
<text text-anchor="middle" x="101.5" y="-26.5" font-family="Helvetica,sans-Serif" font-size="10.00"> </text>
<polyline fill="none" stroke="black" points="31.5,-19.5 171.5,-19.5 "/>
<text text-anchor="start" x="39.5" y="-7.5" font-family="Helvetica,sans-Serif" font-size="10.00">+ __init__()</text>
</a>
</g>
</g>
<!-- Node2 -->
<g id="node2" class="node">
<title>Node2</title>
<g id="a_node2"><a xlink:href="classSignalIntegrity_1_1Lib_1_1SParameters_1_1Devices_1_1ClassicalFilter_1_1ClassicalFilter.xhtml" target="_top" xlink:title="Classical filter.">
<polygon fill="white" stroke="black" points="54,-94.5 54,-195.5 149,-195.5 149,-94.5 54,-94.5"/>
<text text-anchor="middle" x="101.5" y="-183.5" font-family="Helvetica,sans-Serif" font-size="10.00">ClassicalFilter</text>
<polyline fill="none" stroke="black" points="54,-176.5 149,-176.5 "/>
<text text-anchor="start" x="62" y="-164.5" font-family="Helvetica,sans-Serif" font-size="10.00">+ z</text>
<text text-anchor="start" x="62" y="-153.5" font-family="Helvetica,sans-Serif" font-size="10.00">+ p</text>
<text text-anchor="start" x="62" y="-142.5" font-family="Helvetica,sans-Serif" font-size="10.00">+ k</text>
<text text-anchor="start" x="62" y="-131.5" font-family="Helvetica,sans-Serif" font-size="10.00">+ f0</text>
<polyline fill="none" stroke="black" points="54,-124.5 149,-124.5 "/>
<text text-anchor="start" x="62" y="-112.5" font-family="Helvetica,sans-Serif" font-size="10.00">+ __init__()</text>
<text text-anchor="start" x="62" y="-101.5" font-family="Helvetica,sans-Serif" font-size="10.00">+ __getitem__()</text>
</a>
</g>
</g>
<!-- Node2&#45;&gt;Node1 -->
<g id="edge1" class="edge">
<title>Node2&#45;&gt;Node1</title>
<path fill="none" stroke="midnightblue" d="M101.5,-84.23C101.5,-74.92 101.5,-65.71 101.5,-57.59"/>
<polygon fill="none" stroke="midnightblue" points="98,-84.33 101.5,-94.33 105,-84.33 98,-84.33"/>
</g>
<!-- Node3 -->
<g id="node3" class="node">
<title>Node3</title>
<g id="a_node3"><a xlink:href="classSignalIntegrity_1_1Lib_1_1SParameters_1_1SParameters_1_1SParameters.xhtml" target="_top" xlink:title="Class containing s&#45;parameters.">
<polygon fill="white" stroke="black" points="24,-232.5 24,-465.5 179,-465.5 179,-232.5 24,-232.5"/>
<text text-anchor="middle" x="101.5" y="-453.5" font-family="Helvetica,sans-Serif" font-size="10.00">SParameters</text>
<polyline fill="none" stroke="black" points="24,-446.5 179,-446.5 "/>
<text text-anchor="start" x="32" y="-434.5" font-family="Helvetica,sans-Serif" font-size="10.00">+ m_sToken</text>
<text text-anchor="start" x="32" y="-423.5" font-family="Helvetica,sans-Serif" font-size="10.00">+ m_d</text>
<text text-anchor="start" x="32" y="-412.5" font-family="Helvetica,sans-Serif" font-size="10.00">+ m_Z0</text>
<text text-anchor="start" x="32" y="-401.5" font-family="Helvetica,sans-Serif" font-size="10.00">+ m_f</text>
<text text-anchor="start" x="32" y="-390.5" font-family="Helvetica,sans-Serif" font-size="10.00">+ m_P</text>
<text text-anchor="start" x="32" y="-379.5" font-family="Helvetica,sans-Serif" font-size="10.00">+ header</text>
<text text-anchor="start" x="32" y="-368.5" font-family="Helvetica,sans-Serif" font-size="10.00">+ maxTokensOnLine</text>
<text text-anchor="start" x="32" y="-357.5" font-family="Helvetica,sans-Serif" font-size="10.00">+ numDigits</text>
<polyline fill="none" stroke="black" points="24,-350.5 179,-350.5 "/>
<text text-anchor="start" x="32" y="-338.5" font-family="Helvetica,sans-Serif" font-size="10.00">+ __init__()</text>
<text text-anchor="start" x="32" y="-327.5" font-family="Helvetica,sans-Serif" font-size="10.00">+ __getitem__()</text>
<text text-anchor="start" x="32" y="-316.5" font-family="Helvetica,sans-Serif" font-size="10.00">+ __len__()</text>
<text text-anchor="start" x="32" y="-305.5" font-family="Helvetica,sans-Serif" font-size="10.00">+ f()</text>
<text text-anchor="start" x="32" y="-294.5" font-family="Helvetica,sans-Serif" font-size="10.00">+ Response()</text>
<text text-anchor="start" x="32" y="-283.5" font-family="Helvetica,sans-Serif" font-size="10.00">+ FrequencyResponse()</text>
<text text-anchor="start" x="32" y="-272.5" font-family="Helvetica,sans-Serif" font-size="10.00">+ Text()</text>
<text text-anchor="start" x="32" y="-261.5" font-family="Helvetica,sans-Serif" font-size="10.00">+ WriteToFile()</text>
<text text-anchor="start" x="32" y="-250.5" font-family="Helvetica,sans-Serif" font-size="10.00">+ Resample()</text>
<text text-anchor="start" x="32" y="-239.5" font-family="Helvetica,sans-Serif" font-size="10.00">+ SetReferenceImpedance()</text>
</a>
</g>
</g>
<!-- Node3&#45;&gt;Node2 -->
<g id="edge2" class="edge">
<title>Node3&#45;&gt;Node2</title>
<path fill="none" stroke="midnightblue" d="M101.5,-222.22C101.5,-213.06 101.5,-204.2 101.5,-195.95"/>
<polygon fill="none" stroke="midnightblue" points="98,-222.25 101.5,-232.25 105,-222.25 98,-222.25"/>
</g>
<!-- Node4 -->
<g id="node4" class="node">
<title>Node4</title>
<g id="a_node4"><a xlink:href="classSignalIntegrity_1_1Lib_1_1SParameters_1_1SParameterManipulation_1_1SParameterManipulation.xhtml" target="_top" xlink:title="Class for manipulations on s&#45;parameters involving passivity, causality, etc.">
<polygon fill="white" stroke="black" points="0,-502.5 0,-669.5 203,-669.5 203,-502.5 0,-502.5"/>
<text text-anchor="middle" x="101.5" y="-657.5" font-family="Helvetica,sans-Serif" font-size="10.00">SParameterManipulation</text>
<polyline fill="none" stroke="black" points="0,-650.5 203,-650.5 "/>
<text text-anchor="middle" x="101.5" y="-638.5" font-family="Helvetica,sans-Serif" font-size="10.00"> </text>
<polyline fill="none" stroke="black" points="0,-631.5 203,-631.5 "/>
<text text-anchor="start" x="8" y="-619.5" font-family="Helvetica,sans-Serif" font-size="10.00">+ EnforcePassivity()</text>
<text text-anchor="start" x="8" y="-608.5" font-family="Helvetica,sans-Serif" font-size="10.00">+ IsCausal()</text>
<text text-anchor="start" x="8" y="-597.5" font-family="Helvetica,sans-Serif" font-size="10.00">+ EnforceCausality()</text>
<text text-anchor="start" x="8" y="-586.5" font-family="Helvetica,sans-Serif" font-size="10.00">+ WaveletDenoise()</text>
<text text-anchor="start" x="8" y="-575.5" font-family="Helvetica,sans-Serif" font-size="10.00">+ PortReorder()</text>
<text text-anchor="start" x="8" y="-564.5" font-family="Helvetica,sans-Serif" font-size="10.00">+ DetermineImpulseResponse</text>
<text text-anchor="start" x="8" y="-553.5" font-family="Helvetica,sans-Serif" font-size="10.00">Length()</text>
<text text-anchor="start" x="8" y="-542.5" font-family="Helvetica,sans-Serif" font-size="10.00">+ LimitImpulseResponseLength()</text>
<text text-anchor="start" x="8" y="-531.5" font-family="Helvetica,sans-Serif" font-size="10.00">+ EnforceReciprocity()</text>
<text text-anchor="start" x="8" y="-520.5" font-family="Helvetica,sans-Serif" font-size="10.00">+ EnforceBothPassivityAndCausality()</text>
<text text-anchor="start" x="8" y="-509.5" font-family="Helvetica,sans-Serif" font-size="10.00">+ EnforceAll()</text>
</a>
</g>
</g>
<!-- Node4&#45;&gt;Node3 -->
<g id="edge3" class="edge">
<title>Node4&#45;&gt;Node3</title>
<path fill="none" stroke="midnightblue" d="M101.5,-492.32C101.5,-483.59 101.5,-474.66 101.5,-465.74"/>
<polygon fill="none" stroke="midnightblue" points="98,-492.48 101.5,-502.48 105,-492.48 98,-492.48"/>
</g>
</g>
</svg>
