<?xml version="1.0" encoding="UTF-8" standalone="no"?>
<!DOCTYPE svg PUBLIC "-//W3C//DTD SVG 1.1//EN"
 "http://www.w3.org/Graphics/SVG/1.1/DTD/svg11.dtd">
<!-- Generated by graphviz version 2.43.0 (0)
 -->
<!-- Title: SimulatorNumeric Pages: 1 -->
<svg width="330pt" height="645pt"
 viewBox="0.00 0.00 330.00 645.00" xmlns="http://www.w3.org/2000/svg" xmlns:xlink="http://www.w3.org/1999/xlink">
<g id="graph0" class="graph" transform="scale(1 1) rotate(0) translate(4 641)">
<title>SimulatorNumeric</title>
<polygon fill="white" stroke="transparent" points="-4,4 -4,-641 326,-641 326,4 -4,4"/>
<!-- Node1 -->
<g id="node1" class="node">
<title>Node1</title>
<g id="a_node1"><a xlink:title="class for performing numeric simulations">
<polygon fill="#bfbfbf" stroke="black" points="115,-0.5 115,-68.5 222,-68.5 222,-0.5 115,-0.5"/>
<text text-anchor="middle" x="168.5" y="-56.5" font-family="Helvetica,sans-Serif" font-size="10.00">SimulatorNumeric</text>
<polyline fill="none" stroke="black" points="115,-49.5 222,-49.5 "/>
<text text-anchor="middle" x="168.5" y="-37.5" font-family="Helvetica,sans-Serif" font-size="10.00"> </text>
<polyline fill="none" stroke="black" points="115,-30.5 222,-30.5 "/>
<text text-anchor="start" x="123" y="-18.5" font-family="Helvetica,sans-Serif" font-size="10.00">+ __init__()</text>
<text text-anchor="start" x="123" y="-7.5" font-family="Helvetica,sans-Serif" font-size="10.00">+ TransferMatrix()</text>
</a>
</g>
</g>
<!-- Node2 -->
<g id="node2" class="node">
<title>Node2</title>
<g id="a_node2"><a xlink:href="classSignalIntegrity_1_1Lib_1_1SystemDescriptions_1_1Simulator_1_1Simulator.xhtml" target="_top" xlink:title="Base class for dealing with housekeeping for simulations.">
<polygon fill="white" stroke="black" points="0,-105.5 0,-272.5 167,-272.5 167,-105.5 0,-105.5"/>
<text text-anchor="middle" x="83.5" y="-260.5" font-family="Helvetica,sans-Serif" font-size="10.00">Simulator</text>
<polyline fill="none" stroke="black" points="0,-253.5 167,-253.5 "/>
<text text-anchor="start" x="8" y="-241.5" font-family="Helvetica,sans-Serif" font-size="10.00">+ m_ol</text>
<polyline fill="none" stroke="black" points="0,-234.5 167,-234.5 "/>
<text text-anchor="start" x="8" y="-222.5" font-family="Helvetica,sans-Serif" font-size="10.00">+ __init__()</text>
<text text-anchor="start" x="8" y="-211.5" font-family="Helvetica,sans-Serif" font-size="10.00">+ Check()</text>
<text text-anchor="start" x="8" y="-200.5" font-family="Helvetica,sans-Serif" font-size="10.00">+ pOutputList()</text>
<text text-anchor="start" x="8" y="-189.5" font-family="Helvetica,sans-Serif" font-size="10.00">+ pOutputList()</text>
<text text-anchor="start" x="8" y="-178.5" font-family="Helvetica,sans-Serif" font-size="10.00">+ AddVoltageSource()</text>
<text text-anchor="start" x="8" y="-167.5" font-family="Helvetica,sans-Serif" font-size="10.00">+ AddCurrentSource()</text>
<text text-anchor="start" x="8" y="-156.5" font-family="Helvetica,sans-Serif" font-size="10.00">+ SourceVector()</text>
<text text-anchor="start" x="8" y="-145.5" font-family="Helvetica,sans-Serif" font-size="10.00">+ SourceToStimsPrimeMatrix()</text>
<text text-anchor="start" x="8" y="-134.5" font-family="Helvetica,sans-Serif" font-size="10.00">+ StimsPrime()</text>
<text text-anchor="start" x="8" y="-123.5" font-family="Helvetica,sans-Serif" font-size="10.00">+ SIPrime()</text>
<text text-anchor="start" x="8" y="-112.5" font-family="Helvetica,sans-Serif" font-size="10.00">+ VoltageExtractionMatrix()</text>
</a>
</g>
</g>
<!-- Node2&#45;&gt;Node1 -->
<g id="edge1" class="edge">
<title>Node2&#45;&gt;Node1</title>
<path fill="none" stroke="midnightblue" d="M134.73,-96.08C140.13,-86.39 145.34,-77.06 149.97,-68.74"/>
<polygon fill="none" stroke="midnightblue" points="131.54,-94.62 129.73,-105.06 137.66,-98.03 131.54,-94.62"/>
</g>
<!-- Node3 -->
<g id="node3" class="node">
<title>Node3</title>
<g id="a_node3"><a xlink:href="classSignalIntegrity_1_1Lib_1_1SystemDescriptions_1_1SystemSParameters_1_1SystemSParameters.xhtml" target="_top" xlink:title="base class for housekeeping involving system s&#45;parameters calculations">
<polygon fill="white" stroke="black" points="25.5,-309.5 25.5,-432.5 141.5,-432.5 141.5,-309.5 25.5,-309.5"/>
<text text-anchor="middle" x="83.5" y="-420.5" font-family="Helvetica,sans-Serif" font-size="10.00">SystemSParameters</text>
<polyline fill="none" stroke="black" points="25.5,-413.5 141.5,-413.5 "/>
<text text-anchor="middle" x="83.5" y="-401.5" font-family="Helvetica,sans-Serif" font-size="10.00"> </text>
<polyline fill="none" stroke="black" points="25.5,-394.5 141.5,-394.5 "/>
<text text-anchor="start" x="33.5" y="-382.5" font-family="Helvetica,sans-Serif" font-size="10.00">+ __init__()</text>
<text text-anchor="start" x="33.5" y="-371.5" font-family="Helvetica,sans-Serif" font-size="10.00">+ PortANames()</text>
<text text-anchor="start" x="33.5" y="-360.5" font-family="Helvetica,sans-Serif" font-size="10.00">+ PortBNames()</text>
<text text-anchor="start" x="33.5" y="-349.5" font-family="Helvetica,sans-Serif" font-size="10.00">+ OtherNames()</text>
<text text-anchor="start" x="33.5" y="-338.5" font-family="Helvetica,sans-Serif" font-size="10.00">+ NodeVector()</text>
<text text-anchor="start" x="33.5" y="-327.5" font-family="Helvetica,sans-Serif" font-size="10.00">+ StimulusVector()</text>
<text text-anchor="start" x="33.5" y="-316.5" font-family="Helvetica,sans-Serif" font-size="10.00"># WeightsMatrix()</text>
</a>
</g>
</g>
<!-- Node3&#45;&gt;Node2 -->
<g id="edge2" class="edge">
<title>Node3&#45;&gt;Node2</title>
<path fill="none" stroke="midnightblue" d="M83.5,-299.25C83.5,-290.57 83.5,-281.63 83.5,-272.79"/>
<polygon fill="none" stroke="midnightblue" points="80,-299.31 83.5,-309.31 87,-299.31 80,-299.31"/>
</g>
<!-- Node4 -->
<g id="node4" class="node">
<title>Node4</title>
<g id="a_node4"><a xlink:href="classSignalIntegrity_1_1Lib_1_1SystemDescriptions_1_1SystemDescription_1_1SystemDescription.xhtml" target="_top" xlink:title="Allows the construction of system descriptions for use with all of the classes that solve schematics ...">
<polygon fill="white" stroke="black" points="18.5,-469.5 18.5,-636.5 148.5,-636.5 148.5,-469.5 18.5,-469.5"/>
<text text-anchor="middle" x="83.5" y="-624.5" font-family="Helvetica,sans-Serif" font-size="10.00">SystemDescription</text>
<polyline fill="none" stroke="black" points="18.5,-617.5 148.5,-617.5 "/>
<text text-anchor="start" x="26.5" y="-605.5" font-family="Helvetica,sans-Serif" font-size="10.00">+ m_UniqueDevice</text>
<text text-anchor="start" x="26.5" y="-594.5" font-family="Helvetica,sans-Serif" font-size="10.00">+ m_UniqueNode</text>
<polyline fill="none" stroke="black" points="18.5,-587.5 148.5,-587.5 "/>
<text text-anchor="start" x="26.5" y="-575.5" font-family="Helvetica,sans-Serif" font-size="10.00">+ __init__()</text>
<text text-anchor="start" x="26.5" y="-564.5" font-family="Helvetica,sans-Serif" font-size="10.00">+ AddDevice()</text>
<text text-anchor="start" x="26.5" y="-553.5" font-family="Helvetica,sans-Serif" font-size="10.00">+ AssignM()</text>
<text text-anchor="start" x="26.5" y="-542.5" font-family="Helvetica,sans-Serif" font-size="10.00">+ DeviceNames()</text>
<text text-anchor="start" x="26.5" y="-531.5" font-family="Helvetica,sans-Serif" font-size="10.00">+ IndexOfDevice()</text>
<text text-anchor="start" x="26.5" y="-520.5" font-family="Helvetica,sans-Serif" font-size="10.00">+ CheckConnections()</text>
<text text-anchor="start" x="26.5" y="-509.5" font-family="Helvetica,sans-Serif" font-size="10.00">+ ConnectDevicePort()</text>
<text text-anchor="start" x="26.5" y="-498.5" font-family="Helvetica,sans-Serif" font-size="10.00">+ AddPort()</text>
<text text-anchor="start" x="26.5" y="-487.5" font-family="Helvetica,sans-Serif" font-size="10.00">+ AssignSParameters()</text>
<text text-anchor="start" x="26.5" y="-476.5" font-family="Helvetica,sans-Serif" font-size="10.00">+ Print()</text>
</a>
</g>
</g>
<!-- Node4&#45;&gt;Node3 -->
<g id="edge3" class="edge">
<title>Node4&#45;&gt;Node3</title>
<path fill="none" stroke="midnightblue" d="M83.5,-459.19C83.5,-450.17 83.5,-441.19 83.5,-432.61"/>
<polygon fill="none" stroke="midnightblue" points="80,-459.38 83.5,-469.38 87,-459.38 80,-459.38"/>
</g>
<!-- Node5 -->
<g id="node5" class="node">
<title>Node5</title>
<g id="a_node5"><a xlink:href="classSignalIntegrity_1_1Lib_1_1SystemDescriptions_1_1Numeric_1_1Numeric.xhtml" target="_top" xlink:title="handles numeric details of derived class solutions">
<polygon fill="white" stroke="black" points="185,-133 185,-245 322,-245 322,-133 185,-133"/>
<text text-anchor="middle" x="253.5" y="-233" font-family="Helvetica,sans-Serif" font-size="10.00">Numeric</text>
<polyline fill="none" stroke="black" points="185,-226 322,-226 "/>
<text text-anchor="start" x="193" y="-214" font-family="Helvetica,sans-Serif" font-size="10.00">+ alwaysUseSVD</text>
<text text-anchor="start" x="193" y="-203" font-family="Helvetica,sans-Serif" font-size="10.00">+ trySVD</text>
<text text-anchor="start" x="193" y="-192" font-family="Helvetica,sans-Serif" font-size="10.00">+ singularValueLimit</text>
<text text-anchor="start" x="193" y="-181" font-family="Helvetica,sans-Serif" font-size="10.00">+ conditionNumberLimit</text>
<polyline fill="none" stroke="black" points="185,-174 322,-174 "/>
<text text-anchor="start" x="193" y="-162" font-family="Helvetica,sans-Serif" font-size="10.00">+ InstallSafeTees()</text>
<text text-anchor="start" x="193" y="-151" font-family="Helvetica,sans-Serif" font-size="10.00">+ Dagger()</text>
<text text-anchor="start" x="193" y="-140" font-family="Helvetica,sans-Serif" font-size="10.00">+ PermutationMatrix()</text>
</a>
</g>
</g>
<!-- Node5&#45;&gt;Node1 -->
<g id="edge4" class="edge">
<title>Node5&#45;&gt;Node1</title>
<path fill="none" stroke="midnightblue" d="M217.83,-124.01C207.23,-104.99 196.05,-84.94 187.02,-68.73"/>
<polygon fill="none" stroke="midnightblue" points="214.89,-125.91 222.81,-132.94 221,-122.51 214.89,-125.91"/>
</g>
</g>
</svg>
