<?xml version="1.0" encoding="UTF-8" standalone="no"?>
<!DOCTYPE svg PUBLIC "-//W3C//DTD SVG 1.1//EN"
 "http://www.w3.org/Graphics/SVG/1.1/DTD/svg11.dtd">
<!-- Generated by graphviz version 2.43.0 (0)
 -->
<!-- Title: SystemSParametersSymbolic Pages: 1 -->
<svg width="296pt" height="750pt"
 viewBox="0.00 0.00 296.00 750.00" xmlns="http://www.w3.org/2000/svg" xmlns:xlink="http://www.w3.org/1999/xlink">
<g id="graph0" class="graph" transform="scale(1 1) rotate(0) translate(4 746)">
<title>SystemSParametersSymbolic</title>
<polygon fill="white" stroke="transparent" points="-4,4 -4,-746 292,-746 292,4 -4,4"/>
<!-- Node1 -->
<g id="node1" class="node">
<title>Node1</title>
<g id="a_node1"><a xlink:title="Class for solving symbolically the s&#45;parameters of interconnected systems.">
<polygon fill="#bfbfbf" stroke="black" points="63,-116.5 63,-184.5 224,-184.5 224,-116.5 63,-116.5"/>
<text text-anchor="middle" x="143.5" y="-172.5" font-family="Helvetica,sans-Serif" font-size="10.00">SystemSParametersSymbolic</text>
<polyline fill="none" stroke="black" points="63,-165.5 224,-165.5 "/>
<text text-anchor="middle" x="143.5" y="-153.5" font-family="Helvetica,sans-Serif" font-size="10.00"> </text>
<polyline fill="none" stroke="black" points="63,-146.5 224,-146.5 "/>
<text text-anchor="start" x="71" y="-134.5" font-family="Helvetica,sans-Serif" font-size="10.00">+ __init__()</text>
<text text-anchor="start" x="71" y="-123.5" font-family="Helvetica,sans-Serif" font-size="10.00">+ LaTeXSolution()</text>
</a>
</g>
</g>
<!-- Node6 -->
<g id="node6" class="node">
<title>Node6</title>
<g id="a_node6"><a xlink:href="classSignalIntegrity_1_1Lib_1_1SystemDescriptions_1_1SimulatorSymbolic_1_1SimulatorSymbolic.xhtml" target="_top" xlink:title="class for producing symbolic solutions to simulation problems.">
<polygon fill="white" stroke="black" points="0,-0.5 0,-79.5 135,-79.5 135,-0.5 0,-0.5"/>
<text text-anchor="middle" x="67.5" y="-67.5" font-family="Helvetica,sans-Serif" font-size="10.00">SimulatorSymbolic</text>
<polyline fill="none" stroke="black" points="0,-60.5 135,-60.5 "/>
<text text-anchor="middle" x="67.5" y="-48.5" font-family="Helvetica,sans-Serif" font-size="10.00"> </text>
<polyline fill="none" stroke="black" points="0,-41.5 135,-41.5 "/>
<text text-anchor="start" x="8" y="-29.5" font-family="Helvetica,sans-Serif" font-size="10.00">+ __init__()</text>
<text text-anchor="start" x="8" y="-18.5" font-family="Helvetica,sans-Serif" font-size="10.00">+ LaTeXTransferMatrix()</text>
<text text-anchor="start" x="8" y="-7.5" font-family="Helvetica,sans-Serif" font-size="10.00">+ LaTeXEquations()</text>
</a>
</g>
</g>
<!-- Node1&#45;&gt;Node6 -->
<g id="edge5" class="edge">
<title>Node1&#45;&gt;Node6</title>
<path fill="none" stroke="midnightblue" d="M114.42,-107.99C107.9,-98.68 101.01,-88.84 94.57,-79.65"/>
<polygon fill="none" stroke="midnightblue" points="111.68,-110.17 120.28,-116.36 117.41,-106.16 111.68,-110.17"/>
</g>
<!-- Node7 -->
<g id="node7" class="node">
<title>Node7</title>
<g id="a_node7"><a xlink:href="classSignalIntegrity_1_1Lib_1_1SystemDescriptions_1_1VirtualProbeSymbolic_1_1VirtualProbeSymbolic.xhtml" target="_top" xlink:title=" ">
<polygon fill="white" stroke="black" points="153,-0.5 153,-79.5 288,-79.5 288,-0.5 153,-0.5"/>
<text text-anchor="middle" x="220.5" y="-67.5" font-family="Helvetica,sans-Serif" font-size="10.00">VirtualProbeSymbolic</text>
<polyline fill="none" stroke="black" points="153,-60.5 288,-60.5 "/>
<text text-anchor="middle" x="220.5" y="-48.5" font-family="Helvetica,sans-Serif" font-size="10.00"> </text>
<polyline fill="none" stroke="black" points="153,-41.5 288,-41.5 "/>
<text text-anchor="start" x="161" y="-29.5" font-family="Helvetica,sans-Serif" font-size="10.00">+ __init__()</text>
<text text-anchor="start" x="161" y="-18.5" font-family="Helvetica,sans-Serif" font-size="10.00">+ LaTeXTransferMatrix()</text>
<text text-anchor="start" x="161" y="-7.5" font-family="Helvetica,sans-Serif" font-size="10.00">+ LaTeXEquations()</text>
</a>
</g>
</g>
<!-- Node1&#45;&gt;Node7 -->
<g id="edge6" class="edge">
<title>Node1&#45;&gt;Node7</title>
<path fill="none" stroke="midnightblue" d="M172.96,-107.99C179.57,-98.68 186.55,-88.84 193.07,-79.65"/>
<polygon fill="none" stroke="midnightblue" points="169.95,-106.18 167.02,-116.36 175.66,-110.23 169.95,-106.18"/>
</g>
<!-- Node2 -->
<g id="node2" class="node">
<title>Node2</title>
<g id="a_node2"><a xlink:href="classSignalIntegrity_1_1Lib_1_1SystemDescriptions_1_1SystemDescriptionSymbolic_1_1SystemDescriptionSymbolic.xhtml" target="_top" xlink:title="Solves system descriptions in the most basic manner common to all of the simulation,...">
<polygon fill="white" stroke="black" points="66.5,-221.5 66.5,-289.5 220.5,-289.5 220.5,-221.5 66.5,-221.5"/>
<text text-anchor="middle" x="143.5" y="-277.5" font-family="Helvetica,sans-Serif" font-size="10.00">SystemDescriptionSymbolic</text>
<polyline fill="none" stroke="black" points="66.5,-270.5 220.5,-270.5 "/>
<text text-anchor="middle" x="143.5" y="-258.5" font-family="Helvetica,sans-Serif" font-size="10.00"> </text>
<polyline fill="none" stroke="black" points="66.5,-251.5 220.5,-251.5 "/>
<text text-anchor="start" x="74.5" y="-239.5" font-family="Helvetica,sans-Serif" font-size="10.00">+ __init__()</text>
<text text-anchor="start" x="74.5" y="-228.5" font-family="Helvetica,sans-Serif" font-size="10.00">+ LaTeXSystemEquation()</text>
</a>
</g>
</g>
<!-- Node2&#45;&gt;Node1 -->
<g id="edge1" class="edge">
<title>Node2&#45;&gt;Node1</title>
<path fill="none" stroke="midnightblue" d="M143.5,-211.14C143.5,-202.26 143.5,-193.04 143.5,-184.59"/>
<polygon fill="none" stroke="midnightblue" points="140,-211.34 143.5,-221.34 147,-211.34 140,-211.34"/>
</g>
<!-- Node3 -->
<g id="node3" class="node">
<title>Node3</title>
<g id="a_node3"><a xlink:href="classSignalIntegrity_1_1Lib_1_1SystemDescriptions_1_1SystemSParameters_1_1SystemSParameters.xhtml" target="_top" xlink:title="base class for housekeeping involving system s&#45;parameters calculations">
<polygon fill="white" stroke="black" points="18.5,-370.5 18.5,-493.5 134.5,-493.5 134.5,-370.5 18.5,-370.5"/>
<text text-anchor="middle" x="76.5" y="-481.5" font-family="Helvetica,sans-Serif" font-size="10.00">SystemSParameters</text>
<polyline fill="none" stroke="black" points="18.5,-474.5 134.5,-474.5 "/>
<text text-anchor="middle" x="76.5" y="-462.5" font-family="Helvetica,sans-Serif" font-size="10.00"> </text>
<polyline fill="none" stroke="black" points="18.5,-455.5 134.5,-455.5 "/>
<text text-anchor="start" x="26.5" y="-443.5" font-family="Helvetica,sans-Serif" font-size="10.00">+ __init__()</text>
<text text-anchor="start" x="26.5" y="-432.5" font-family="Helvetica,sans-Serif" font-size="10.00">+ PortANames()</text>
<text text-anchor="start" x="26.5" y="-421.5" font-family="Helvetica,sans-Serif" font-size="10.00">+ PortBNames()</text>
<text text-anchor="start" x="26.5" y="-410.5" font-family="Helvetica,sans-Serif" font-size="10.00">+ OtherNames()</text>
<text text-anchor="start" x="26.5" y="-399.5" font-family="Helvetica,sans-Serif" font-size="10.00">+ NodeVector()</text>
<text text-anchor="start" x="26.5" y="-388.5" font-family="Helvetica,sans-Serif" font-size="10.00">+ StimulusVector()</text>
<text text-anchor="start" x="26.5" y="-377.5" font-family="Helvetica,sans-Serif" font-size="10.00"># WeightsMatrix()</text>
</a>
</g>
</g>
<!-- Node3&#45;&gt;Node2 -->
<g id="edge2" class="edge">
<title>Node3&#45;&gt;Node2</title>
<path fill="none" stroke="midnightblue" d="M103.44,-360.84C112.83,-336.39 122.93,-310.08 130.64,-290"/>
<polygon fill="none" stroke="midnightblue" points="100.06,-359.87 99.75,-370.46 106.6,-362.38 100.06,-359.87"/>
</g>
<!-- Node4 -->
<g id="node4" class="node">
<title>Node4</title>
<g id="a_node4"><a xlink:href="classSignalIntegrity_1_1Lib_1_1SystemDescriptions_1_1SystemDescription_1_1SystemDescription.xhtml" target="_top" xlink:title="Allows the construction of system descriptions for use with all of the classes that solve schematics ...">
<polygon fill="white" stroke="black" points="11.5,-574.5 11.5,-741.5 141.5,-741.5 141.5,-574.5 11.5,-574.5"/>
<text text-anchor="middle" x="76.5" y="-729.5" font-family="Helvetica,sans-Serif" font-size="10.00">SystemDescription</text>
<polyline fill="none" stroke="black" points="11.5,-722.5 141.5,-722.5 "/>
<text text-anchor="start" x="19.5" y="-710.5" font-family="Helvetica,sans-Serif" font-size="10.00">+ m_UniqueDevice</text>
<text text-anchor="start" x="19.5" y="-699.5" font-family="Helvetica,sans-Serif" font-size="10.00">+ m_UniqueNode</text>
<polyline fill="none" stroke="black" points="11.5,-692.5 141.5,-692.5 "/>
<text text-anchor="start" x="19.5" y="-680.5" font-family="Helvetica,sans-Serif" font-size="10.00">+ __init__()</text>
<text text-anchor="start" x="19.5" y="-669.5" font-family="Helvetica,sans-Serif" font-size="10.00">+ AddDevice()</text>
<text text-anchor="start" x="19.5" y="-658.5" font-family="Helvetica,sans-Serif" font-size="10.00">+ AssignM()</text>
<text text-anchor="start" x="19.5" y="-647.5" font-family="Helvetica,sans-Serif" font-size="10.00">+ DeviceNames()</text>
<text text-anchor="start" x="19.5" y="-636.5" font-family="Helvetica,sans-Serif" font-size="10.00">+ IndexOfDevice()</text>
<text text-anchor="start" x="19.5" y="-625.5" font-family="Helvetica,sans-Serif" font-size="10.00">+ CheckConnections()</text>
<text text-anchor="start" x="19.5" y="-614.5" font-family="Helvetica,sans-Serif" font-size="10.00">+ ConnectDevicePort()</text>
<text text-anchor="start" x="19.5" y="-603.5" font-family="Helvetica,sans-Serif" font-size="10.00">+ AddPort()</text>
<text text-anchor="start" x="19.5" y="-592.5" font-family="Helvetica,sans-Serif" font-size="10.00">+ AssignSParameters()</text>
<text text-anchor="start" x="19.5" y="-581.5" font-family="Helvetica,sans-Serif" font-size="10.00">+ Print()</text>
</a>
</g>
</g>
<!-- Node4&#45;&gt;Node3 -->
<g id="edge3" class="edge">
<title>Node4&#45;&gt;Node3</title>
<path fill="none" stroke="midnightblue" d="M76.5,-564.13C76.5,-540.36 76.5,-515.41 76.5,-493.73"/>
<polygon fill="none" stroke="midnightblue" points="73,-564.23 76.5,-574.23 80,-564.23 73,-564.23"/>
</g>
<!-- Node5 -->
<g id="node5" class="node">
<title>Node5</title>
<g id="a_node5"><a xlink:href="classSignalIntegrity_1_1Lib_1_1SystemDescriptions_1_1Symbolic_1_1Symbolic.xhtml" target="_top" xlink:title="base class for all symbolic solutions.">
<polygon fill="white" stroke="black" points="153,-326.5 153,-537.5 270,-537.5 270,-326.5 153,-326.5"/>
<text text-anchor="middle" x="211.5" y="-525.5" font-family="Helvetica,sans-Serif" font-size="10.00">Symbolic</text>
<polyline fill="none" stroke="black" points="153,-518.5 270,-518.5 "/>
<text text-anchor="start" x="161" y="-506.5" font-family="Helvetica,sans-Serif" font-size="10.00">+ m_lines</text>
<text text-anchor="start" x="161" y="-495.5" font-family="Helvetica,sans-Serif" font-size="10.00">+ m_docStart</text>
<text text-anchor="start" x="161" y="-484.5" font-family="Helvetica,sans-Serif" font-size="10.00">+ m_docEnd</text>
<text text-anchor="start" x="161" y="-473.5" font-family="Helvetica,sans-Serif" font-size="10.00">+ m_eqPrefix</text>
<text text-anchor="start" x="161" y="-462.5" font-family="Helvetica,sans-Serif" font-size="10.00">+ m_eqSuffix</text>
<text text-anchor="start" x="161" y="-451.5" font-family="Helvetica,sans-Serif" font-size="10.00">+ m_identity</text>
<text text-anchor="start" x="161" y="-440.5" font-family="Helvetica,sans-Serif" font-size="10.00">+ m_eqEnvironment</text>
<text text-anchor="start" x="161" y="-429.5" font-family="Helvetica,sans-Serif" font-size="10.00">+ m_small</text>
<polyline fill="none" stroke="black" points="153,-422.5 270,-422.5 "/>
<text text-anchor="start" x="161" y="-410.5" font-family="Helvetica,sans-Serif" font-size="10.00">+ __init__()</text>
<text text-anchor="start" x="161" y="-399.5" font-family="Helvetica,sans-Serif" font-size="10.00">+ Clear()</text>
<text text-anchor="start" x="161" y="-388.5" font-family="Helvetica,sans-Serif" font-size="10.00">+ Emit()</text>
<text text-anchor="start" x="161" y="-377.5" font-family="Helvetica,sans-Serif" font-size="10.00">+ DocStart()</text>
<text text-anchor="start" x="161" y="-366.5" font-family="Helvetica,sans-Serif" font-size="10.00">+ DocEnd()</text>
<text text-anchor="start" x="161" y="-355.5" font-family="Helvetica,sans-Serif" font-size="10.00">+ WriteToFile()</text>
<text text-anchor="start" x="161" y="-344.5" font-family="Helvetica,sans-Serif" font-size="10.00">+ Get()</text>
<text text-anchor="start" x="161" y="-333.5" font-family="Helvetica,sans-Serif" font-size="10.00">+ InstallSafeTees()</text>
</a>
</g>
</g>
<!-- Node5&#45;&gt;Node2 -->
<g id="edge4" class="edge">
<title>Node5&#45;&gt;Node2</title>
<path fill="none" stroke="midnightblue" d="M167.07,-316.99C163.27,-307.23 159.66,-297.98 156.46,-289.77"/>
<polygon fill="none" stroke="midnightblue" points="163.87,-318.42 170.77,-326.47 170.4,-315.88 163.87,-318.42"/>
</g>
</g>
</svg>
