<?xml version="1.0" encoding="UTF-8" standalone="no"?>
<!DOCTYPE svg PUBLIC "-//W3C//DTD SVG 1.1//EN"
 "http://www.w3.org/Graphics/SVG/1.1/DTD/svg11.dtd">
<!-- Generated by graphviz version 2.40.1 (20161225.0304)
 -->
<!-- Title: WaveletDaubechies14 Pages: 1 -->
<svg width="123pt" height="215pt"
 viewBox="0.00 0.00 123.00 215.00" xmlns="http://www.w3.org/2000/svg" xmlns:xlink="http://www.w3.org/1999/xlink">
<g id="graph0" class="graph" transform="scale(1 1) rotate(0) translate(4 211)">
<title>WaveletDaubechies14</title>
<polygon fill="#ffffff" stroke="transparent" points="-4,4 -4,-211 119,-211 119,4 -4,4"/>
<!-- Node2 -->
<g id="node1" class="node">
<title>Node2</title>
<polygon fill="#bfbfbf" stroke="#000000" points="0,-.5 0,-57.5 115,-57.5 115,-.5 0,-.5"/>
<text text-anchor="middle" x="57.5" y="-45.5" font-family="Helvetica,sans-Serif" font-size="10.00" fill="#000000">WaveletDaubechies14</text>
<polyline fill="none" stroke="#000000" points="0,-38.5 115,-38.5 "/>
<text text-anchor="middle" x="57.5" y="-26.5" font-family="Helvetica,sans-Serif" font-size="10.00" fill="#000000"> </text>
<polyline fill="none" stroke="#000000" points="0,-19.5 115,-19.5 "/>
<text text-anchor="start" x="8" y="-7.5" font-family="Helvetica,sans-Serif" font-size="10.00" fill="#000000">+ __init__()</text>
</g>
<!-- Node3 -->
<g id="node2" class="node">
<title>Node3</title>
<g id="a_node2"><a xlink:href="classSignalIntegrity_1_1Wavelets_1_1Wavelets_1_1Wavelet.xhtml" target="_top" xlink:title="base class that performs forward and inverse wavelet transforms ">
<polygon fill="#ffffff" stroke="#000000" points="25,-94.5 25,-206.5 90,-206.5 90,-94.5 25,-94.5"/>
<text text-anchor="middle" x="57.5" y="-194.5" font-family="Helvetica,sans-Serif" font-size="10.00" fill="#000000">Wavelet</text>
<polyline fill="none" stroke="#000000" points="25,-187.5 90,-187.5 "/>
<text text-anchor="start" x="33" y="-175.5" font-family="Helvetica,sans-Serif" font-size="10.00" fill="#000000">+ h</text>
<text text-anchor="start" x="33" y="-164.5" font-family="Helvetica,sans-Serif" font-size="10.00" fill="#000000">+ L</text>
<text text-anchor="start" x="33" y="-153.5" font-family="Helvetica,sans-Serif" font-size="10.00" fill="#000000">+ g</text>
<polyline fill="none" stroke="#000000" points="25,-146.5 90,-146.5 "/>
<text text-anchor="start" x="33" y="-134.5" font-family="Helvetica,sans-Serif" font-size="10.00" fill="#000000">+ __init__()</text>
<text text-anchor="start" x="33" y="-123.5" font-family="Helvetica,sans-Serif" font-size="10.00" fill="#000000">+ DWT()</text>
<text text-anchor="start" x="33" y="-112.5" font-family="Helvetica,sans-Serif" font-size="10.00" fill="#000000">+ IDWT()</text>
<text text-anchor="start" x="33" y="-101.5" font-family="Helvetica,sans-Serif" font-size="10.00" fill="#000000">+ intlog2()</text>
</a>
</g>
</g>
<!-- Node3&#45;&gt;Node2 -->
<g id="edge1" class="edge">
<title>Node3&#45;&gt;Node2</title>
<path fill="none" stroke="#191970" d="M57.5,-84.2502C57.5,-74.9452 57.5,-65.8136 57.5,-57.7385"/>
<polygon fill="none" stroke="#191970" points="54.0001,-84.3734 57.5,-94.3735 61.0001,-84.3735 54.0001,-84.3734"/>
</g>
</g>
</svg>
