<?xml version="1.0" encoding="UTF-8" standalone="no"?>
<!DOCTYPE svg PUBLIC "-//W3C//DTD SVG 1.1//EN"
 "http://www.w3.org/Graphics/SVG/1.1/DTD/svg11.dtd">
<!-- Generated by graphviz version 2.40.1 (20161225.0304)
 -->
<!-- Title: Wavelet Pages: 1 -->
<svg width="605pt" height="215pt"
 viewBox="0.00 0.00 604.50 215.00" xmlns="http://www.w3.org/2000/svg" xmlns:xlink="http://www.w3.org/1999/xlink">
<g id="graph0" class="graph" transform="scale(1 1) rotate(0) translate(4 211)">
<title>Wavelet</title>
<polygon fill="#ffffff" stroke="transparent" points="-4,4 -4,-211 600.5,-211 600.5,4 -4,4"/>
<!-- Node0 -->
<g id="node1" class="node">
<title>Node0</title>
<polygon fill="#bfbfbf" stroke="#000000" points="289,-94.5 289,-206.5 354,-206.5 354,-94.5 289,-94.5"/>
<text text-anchor="middle" x="321.5" y="-194.5" font-family="Helvetica,sans-Serif" font-size="10.00" fill="#000000">Wavelet</text>
<polyline fill="none" stroke="#000000" points="289,-187.5 354,-187.5 "/>
<text text-anchor="start" x="297" y="-175.5" font-family="Helvetica,sans-Serif" font-size="10.00" fill="#000000">+ h</text>
<text text-anchor="start" x="297" y="-164.5" font-family="Helvetica,sans-Serif" font-size="10.00" fill="#000000">+ L</text>
<text text-anchor="start" x="297" y="-153.5" font-family="Helvetica,sans-Serif" font-size="10.00" fill="#000000">+ g</text>
<polyline fill="none" stroke="#000000" points="289,-146.5 354,-146.5 "/>
<text text-anchor="start" x="297" y="-134.5" font-family="Helvetica,sans-Serif" font-size="10.00" fill="#000000">+ __init__()</text>
<text text-anchor="start" x="297" y="-123.5" font-family="Helvetica,sans-Serif" font-size="10.00" fill="#000000">+ DWT()</text>
<text text-anchor="start" x="297" y="-112.5" font-family="Helvetica,sans-Serif" font-size="10.00" fill="#000000">+ IDWT()</text>
<text text-anchor="start" x="297" y="-101.5" font-family="Helvetica,sans-Serif" font-size="10.00" fill="#000000">+ intlog2()</text>
</g>
<!-- Node1 -->
<g id="node2" class="node">
<title>Node1</title>
<g id="a_node2"><a xlink:href="classSignalIntegrity_1_1Lib_1_1Wavelets_1_1Wavelets_1_1WaveletDaubechies14.xhtml" target="_top" xlink:title="14 tap Daubechies wavelet transformer ">
<polygon fill="#ffffff" stroke="#000000" points="0,-.5 0,-57.5 115,-57.5 115,-.5 0,-.5"/>
<text text-anchor="middle" x="57.5" y="-45.5" font-family="Helvetica,sans-Serif" font-size="10.00" fill="#000000">WaveletDaubechies14</text>
<polyline fill="none" stroke="#000000" points="0,-38.5 115,-38.5 "/>
<text text-anchor="middle" x="57.5" y="-26.5" font-family="Helvetica,sans-Serif" font-size="10.00" fill="#000000"> </text>
<polyline fill="none" stroke="#000000" points="0,-19.5 115,-19.5 "/>
<text text-anchor="start" x="8" y="-7.5" font-family="Helvetica,sans-Serif" font-size="10.00" fill="#000000">+ __init__()</text>
</a>
</g>
</g>
<!-- Node0&#45;&gt;Node1 -->
<g id="edge1" class="edge">
<title>Node0&#45;&gt;Node1</title>
<path fill="none" stroke="#191970" d="M279.5235,-131.1812C235.1022,-110.7374 164.7016,-78.3371 115.1059,-55.5118"/>
<polygon fill="none" stroke="#191970" points="278.3162,-134.4785 288.8636,-135.4799 281.2428,-128.1196 278.3162,-134.4785"/>
</g>
<!-- Node2 -->
<g id="node3" class="node">
<title>Node2</title>
<g id="a_node3"><a xlink:href="classSignalIntegrity_1_1Lib_1_1Wavelets_1_1Wavelets_1_1WaveletDaubechies16.xhtml" target="_top" xlink:title="16 tap Daubechies wavelet transformer ">
<polygon fill="#ffffff" stroke="#000000" points="133,-.5 133,-57.5 248,-57.5 248,-.5 133,-.5"/>
<text text-anchor="middle" x="190.5" y="-45.5" font-family="Helvetica,sans-Serif" font-size="10.00" fill="#000000">WaveletDaubechies16</text>
<polyline fill="none" stroke="#000000" points="133,-38.5 248,-38.5 "/>
<text text-anchor="middle" x="190.5" y="-26.5" font-family="Helvetica,sans-Serif" font-size="10.00" fill="#000000"> </text>
<polyline fill="none" stroke="#000000" points="133,-19.5 248,-19.5 "/>
<text text-anchor="start" x="141" y="-7.5" font-family="Helvetica,sans-Serif" font-size="10.00" fill="#000000">+ __init__()</text>
</a>
</g>
</g>
<!-- Node0&#45;&gt;Node2 -->
<g id="edge2" class="edge">
<title>Node0&#45;&gt;Node2</title>
<path fill="none" stroke="#191970" d="M281.3132,-113.2275C262.0538,-95.3648 239.3437,-74.3016 221.4518,-57.7072"/>
<polygon fill="none" stroke="#191970" points="279.0691,-115.9198 288.7811,-120.1538 283.8292,-110.7874 279.0691,-115.9198"/>
</g>
<!-- Node3 -->
<g id="node4" class="node">
<title>Node3</title>
<g id="a_node4"><a xlink:href="classSignalIntegrity_1_1Lib_1_1Wavelets_1_1Wavelets_1_1WaveletDaubechies4.xhtml" target="_top" xlink:title="4 tap Daubechies wavelet transformer ">
<polygon fill="#ffffff" stroke="#000000" points="266.5,-.5 266.5,-57.5 376.5,-57.5 376.5,-.5 266.5,-.5"/>
<text text-anchor="middle" x="321.5" y="-45.5" font-family="Helvetica,sans-Serif" font-size="10.00" fill="#000000">WaveletDaubechies4</text>
<polyline fill="none" stroke="#000000" points="266.5,-38.5 376.5,-38.5 "/>
<text text-anchor="middle" x="321.5" y="-26.5" font-family="Helvetica,sans-Serif" font-size="10.00" fill="#000000"> </text>
<polyline fill="none" stroke="#000000" points="266.5,-19.5 376.5,-19.5 "/>
<text text-anchor="start" x="274.5" y="-7.5" font-family="Helvetica,sans-Serif" font-size="10.00" fill="#000000">+ __init__()</text>
</a>
</g>
</g>
<!-- Node0&#45;&gt;Node3 -->
<g id="edge3" class="edge">
<title>Node0&#45;&gt;Node3</title>
<path fill="none" stroke="#191970" d="M321.5,-84.2502C321.5,-74.9452 321.5,-65.8136 321.5,-57.7385"/>
<polygon fill="none" stroke="#191970" points="318.0001,-84.3734 321.5,-94.3735 325.0001,-84.3735 318.0001,-84.3734"/>
</g>
<!-- Node4 -->
<g id="node5" class="node">
<title>Node4</title>
<g id="a_node5"><a xlink:href="classSignalIntegrity_1_1Lib_1_1Wavelets_1_1Wavelets_1_1WaveletDaubechies8.xhtml" target="_top" xlink:title="8 tap Daubechies wavelet transformer ">
<polygon fill="#ffffff" stroke="#000000" points="394.5,-.5 394.5,-57.5 504.5,-57.5 504.5,-.5 394.5,-.5"/>
<text text-anchor="middle" x="449.5" y="-45.5" font-family="Helvetica,sans-Serif" font-size="10.00" fill="#000000">WaveletDaubechies8</text>
<polyline fill="none" stroke="#000000" points="394.5,-38.5 504.5,-38.5 "/>
<text text-anchor="middle" x="449.5" y="-26.5" font-family="Helvetica,sans-Serif" font-size="10.00" fill="#000000"> </text>
<polyline fill="none" stroke="#000000" points="394.5,-19.5 504.5,-19.5 "/>
<text text-anchor="start" x="402.5" y="-7.5" font-family="Helvetica,sans-Serif" font-size="10.00" fill="#000000">+ __init__()</text>
</a>
</g>
</g>
<!-- Node0&#45;&gt;Node4 -->
<g id="edge4" class="edge">
<title>Node0&#45;&gt;Node4</title>
<path fill="none" stroke="#191970" d="M361.8629,-112.1868C380.3949,-94.5958 402.0034,-74.0847 419.1265,-57.8311"/>
<polygon fill="none" stroke="#191970" points="358.9743,-110.103 354.131,-119.526 363.7934,-115.18 358.9743,-110.103"/>
</g>
<!-- Node5 -->
<g id="node6" class="node">
<title>Node5</title>
<g id="a_node6"><a xlink:href="classSignalIntegrity_1_1Lib_1_1Wavelets_1_1Wavelets_1_1WaveletHaar.xhtml" target="_top" xlink:title="2 tap Haar wavelet transformer ">
<polygon fill="#ffffff" stroke="#000000" points="522.5,-.5 522.5,-57.5 596.5,-57.5 596.5,-.5 522.5,-.5"/>
<text text-anchor="middle" x="559.5" y="-45.5" font-family="Helvetica,sans-Serif" font-size="10.00" fill="#000000">WaveletHaar</text>
<polyline fill="none" stroke="#000000" points="522.5,-38.5 596.5,-38.5 "/>
<text text-anchor="middle" x="559.5" y="-26.5" font-family="Helvetica,sans-Serif" font-size="10.00" fill="#000000"> </text>
<polyline fill="none" stroke="#000000" points="522.5,-19.5 596.5,-19.5 "/>
<text text-anchor="start" x="530.5" y="-7.5" font-family="Helvetica,sans-Serif" font-size="10.00" fill="#000000">+ __init__()</text>
</a>
</g>
</g>
<!-- Node0&#45;&gt;Node5 -->
<g id="edge5" class="edge">
<title>Node0&#45;&gt;Node5</title>
<path fill="none" stroke="#191970" d="M363.8916,-131.756C403.2668,-113.9539 463.2202,-85.8431 513.5,-58 516.3906,-56.3993 519.3507,-54.6942 522.3071,-52.9432"/>
<polygon fill="none" stroke="#191970" points="362.0254,-128.7577 354.3427,-136.0535 364.8982,-135.1411 362.0254,-128.7577"/>
</g>
</g>
</svg>
