<?xml version="1.0" encoding="UTF-8" standalone="no"?>
<!DOCTYPE svg PUBLIC "-//W3C//DTD SVG 1.1//EN"
 "http://www.w3.org/Graphics/SVG/1.1/DTD/svg11.dtd">
<!-- Generated by graphviz version 2.43.0 (0)
 -->
<!-- Title: ThruStandard Pages: 1 -->
<svg width="211pt" height="634pt"
 viewBox="0.00 0.00 211.00 634.00" xmlns="http://www.w3.org/2000/svg" xmlns:xlink="http://www.w3.org/1999/xlink">
<g id="graph0" class="graph" transform="scale(1 1) rotate(0) translate(4 630)">
<title>ThruStandard</title>
<polygon fill="white" stroke="transparent" points="-4,4 -4,-630 207,-630 207,4 -4,4"/>
<!-- Node1 -->
<g id="node1" class="node">
<title>Node1</title>
<g id="a_node1"><a xlink:title="Class providing the s&#45;parameters of a thru standard as commonly defined for a calibration kit.">
<polygon fill="#bfbfbf" stroke="black" points="60.5,-0.5 60.5,-57.5 142.5,-57.5 142.5,-0.5 60.5,-0.5"/>
<text text-anchor="middle" x="101.5" y="-45.5" font-family="Helvetica,sans-Serif" font-size="10.00">ThruStandard</text>
<polyline fill="none" stroke="black" points="60.5,-38.5 142.5,-38.5 "/>
<text text-anchor="middle" x="101.5" y="-26.5" font-family="Helvetica,sans-Serif" font-size="10.00"> </text>
<polyline fill="none" stroke="black" points="60.5,-19.5 142.5,-19.5 "/>
<text text-anchor="start" x="68.5" y="-7.5" font-family="Helvetica,sans-Serif" font-size="10.00">+ __init__()</text>
</a>
</g>
</g>
<!-- Node2 -->
<g id="node2" class="node">
<title>Node2</title>
<g id="a_node2"><a xlink:href="classSignalIntegrity_1_1Lib_1_1Measurement_1_1CalKit_1_1Standards_1_1Offset_1_1Offset.xhtml" target="_top" xlink:title="class providing the s&#45;parameters of an offset portion of the various calibration standards for a cali...">
<polygon fill="white" stroke="black" points="65.5,-94.5 65.5,-151.5 137.5,-151.5 137.5,-94.5 65.5,-94.5"/>
<text text-anchor="middle" x="101.5" y="-139.5" font-family="Helvetica,sans-Serif" font-size="10.00">Offset</text>
<polyline fill="none" stroke="black" points="65.5,-132.5 137.5,-132.5 "/>
<text text-anchor="start" x="73.5" y="-120.5" font-family="Helvetica,sans-Serif" font-size="10.00">+ calcZc</text>
<polyline fill="none" stroke="black" points="65.5,-113.5 137.5,-113.5 "/>
<text text-anchor="start" x="73.5" y="-101.5" font-family="Helvetica,sans-Serif" font-size="10.00">+ __init__()</text>
</a>
</g>
</g>
<!-- Node2&#45;&gt;Node1 -->
<g id="edge1" class="edge">
<title>Node2&#45;&gt;Node1</title>
<path fill="none" stroke="midnightblue" d="M101.5,-84.21C101.5,-75.29 101.5,-65.95 101.5,-57.58"/>
<polygon fill="none" stroke="midnightblue" points="98,-84.4 101.5,-94.4 105,-84.4 98,-84.4"/>
</g>
<!-- Node3 -->
<g id="node3" class="node">
<title>Node3</title>
<g id="a_node3"><a xlink:href="classSignalIntegrity_1_1Lib_1_1SParameters_1_1SParameters_1_1SParameters.xhtml" target="_top" xlink:title="Class containing s&#45;parameters.">
<polygon fill="white" stroke="black" points="24,-188.5 24,-421.5 179,-421.5 179,-188.5 24,-188.5"/>
<text text-anchor="middle" x="101.5" y="-409.5" font-family="Helvetica,sans-Serif" font-size="10.00">SParameters</text>
<polyline fill="none" stroke="black" points="24,-402.5 179,-402.5 "/>
<text text-anchor="start" x="32" y="-390.5" font-family="Helvetica,sans-Serif" font-size="10.00">+ m_sToken</text>
<text text-anchor="start" x="32" y="-379.5" font-family="Helvetica,sans-Serif" font-size="10.00">+ m_d</text>
<text text-anchor="start" x="32" y="-368.5" font-family="Helvetica,sans-Serif" font-size="10.00">+ m_Z0</text>
<text text-anchor="start" x="32" y="-357.5" font-family="Helvetica,sans-Serif" font-size="10.00">+ m_f</text>
<text text-anchor="start" x="32" y="-346.5" font-family="Helvetica,sans-Serif" font-size="10.00">+ m_P</text>
<text text-anchor="start" x="32" y="-335.5" font-family="Helvetica,sans-Serif" font-size="10.00">+ header</text>
<text text-anchor="start" x="32" y="-324.5" font-family="Helvetica,sans-Serif" font-size="10.00">+ maxTokensOnLine</text>
<text text-anchor="start" x="32" y="-313.5" font-family="Helvetica,sans-Serif" font-size="10.00">+ numDigits</text>
<polyline fill="none" stroke="black" points="24,-306.5 179,-306.5 "/>
<text text-anchor="start" x="32" y="-294.5" font-family="Helvetica,sans-Serif" font-size="10.00">+ __init__()</text>
<text text-anchor="start" x="32" y="-283.5" font-family="Helvetica,sans-Serif" font-size="10.00">+ __getitem__()</text>
<text text-anchor="start" x="32" y="-272.5" font-family="Helvetica,sans-Serif" font-size="10.00">+ __len__()</text>
<text text-anchor="start" x="32" y="-261.5" font-family="Helvetica,sans-Serif" font-size="10.00">+ f()</text>
<text text-anchor="start" x="32" y="-250.5" font-family="Helvetica,sans-Serif" font-size="10.00">+ Response()</text>
<text text-anchor="start" x="32" y="-239.5" font-family="Helvetica,sans-Serif" font-size="10.00">+ FrequencyResponse()</text>
<text text-anchor="start" x="32" y="-228.5" font-family="Helvetica,sans-Serif" font-size="10.00">+ Text()</text>
<text text-anchor="start" x="32" y="-217.5" font-family="Helvetica,sans-Serif" font-size="10.00">+ WriteToFile()</text>
<text text-anchor="start" x="32" y="-206.5" font-family="Helvetica,sans-Serif" font-size="10.00">+ Resample()</text>
<text text-anchor="start" x="32" y="-195.5" font-family="Helvetica,sans-Serif" font-size="10.00">+ SetReferenceImpedance()</text>
</a>
</g>
</g>
<!-- Node3&#45;&gt;Node2 -->
<g id="edge2" class="edge">
<title>Node3&#45;&gt;Node2</title>
<path fill="none" stroke="midnightblue" d="M101.5,-178.18C101.5,-168.51 101.5,-159.5 101.5,-151.71"/>
<polygon fill="none" stroke="midnightblue" points="98,-178.48 101.5,-188.48 105,-178.48 98,-178.48"/>
</g>
<!-- Node4 -->
<g id="node4" class="node">
<title>Node4</title>
<g id="a_node4"><a xlink:href="classSignalIntegrity_1_1Lib_1_1SParameters_1_1SParameterManipulation_1_1SParameterManipulation.xhtml" target="_top" xlink:title="Class for manipulations on s&#45;parameters involving passivity, causality, etc.">
<polygon fill="white" stroke="black" points="0,-458.5 0,-625.5 203,-625.5 203,-458.5 0,-458.5"/>
<text text-anchor="middle" x="101.5" y="-613.5" font-family="Helvetica,sans-Serif" font-size="10.00">SParameterManipulation</text>
<polyline fill="none" stroke="black" points="0,-606.5 203,-606.5 "/>
<text text-anchor="middle" x="101.5" y="-594.5" font-family="Helvetica,sans-Serif" font-size="10.00"> </text>
<polyline fill="none" stroke="black" points="0,-587.5 203,-587.5 "/>
<text text-anchor="start" x="8" y="-575.5" font-family="Helvetica,sans-Serif" font-size="10.00">+ EnforcePassivity()</text>
<text text-anchor="start" x="8" y="-564.5" font-family="Helvetica,sans-Serif" font-size="10.00">+ IsCausal()</text>
<text text-anchor="start" x="8" y="-553.5" font-family="Helvetica,sans-Serif" font-size="10.00">+ EnforceCausality()</text>
<text text-anchor="start" x="8" y="-542.5" font-family="Helvetica,sans-Serif" font-size="10.00">+ WaveletDenoise()</text>
<text text-anchor="start" x="8" y="-531.5" font-family="Helvetica,sans-Serif" font-size="10.00">+ PortReorder()</text>
<text text-anchor="start" x="8" y="-520.5" font-family="Helvetica,sans-Serif" font-size="10.00">+ DetermineImpulseResponse</text>
<text text-anchor="start" x="8" y="-509.5" font-family="Helvetica,sans-Serif" font-size="10.00">Length()</text>
<text text-anchor="start" x="8" y="-498.5" font-family="Helvetica,sans-Serif" font-size="10.00">+ LimitImpulseResponseLength()</text>
<text text-anchor="start" x="8" y="-487.5" font-family="Helvetica,sans-Serif" font-size="10.00">+ EnforceReciprocity()</text>
<text text-anchor="start" x="8" y="-476.5" font-family="Helvetica,sans-Serif" font-size="10.00">+ EnforceBothPassivityAndCausality()</text>
<text text-anchor="start" x="8" y="-465.5" font-family="Helvetica,sans-Serif" font-size="10.00">+ EnforceAll()</text>
</a>
</g>
</g>
<!-- Node4&#45;&gt;Node3 -->
<g id="edge3" class="edge">
<title>Node4&#45;&gt;Node3</title>
<path fill="none" stroke="midnightblue" d="M101.5,-448.32C101.5,-439.59 101.5,-430.66 101.5,-421.74"/>
<polygon fill="none" stroke="midnightblue" points="98,-448.48 101.5,-458.48 105,-448.48 98,-448.48"/>
</g>
</g>
</svg>
