<?xml version="1.0" encoding="UTF-8" standalone="no"?>
<!DOCTYPE svg PUBLIC "-//W3C//DTD SVG 1.1//EN"
 "http://www.w3.org/Graphics/SVG/1.1/DTD/svg11.dtd">
<!-- Generated by graphviz version 2.40.1 (20161225.0304)
 -->
<!-- Title: TerminationCPolynomial Pages: 1 -->
<svg width="282pt" height="463pt"
 viewBox="0.00 0.00 282.00 463.00" xmlns="http://www.w3.org/2000/svg" xmlns:xlink="http://www.w3.org/1999/xlink">
<g id="graph0" class="graph" transform="scale(1 1) rotate(0) translate(4 459)">
<title>TerminationCPolynomial</title>
<polygon fill="#ffffff" stroke="transparent" points="-4,4 -4,-459 278,-459 278,4 -4,4"/>
<!-- Node4 -->
<g id="node1" class="node">
<title>Node4</title>
<polygon fill="#bfbfbf" stroke="#000000" points="81.5,-.5 81.5,-79.5 204.5,-79.5 204.5,-.5 81.5,-.5"/>
<text text-anchor="middle" x="143" y="-67.5" font-family="Helvetica,sans-Serif" font-size="10.00" fill="#000000">TerminationCPolynomial</text>
<polyline fill="none" stroke="#000000" points="81.5,-60.5 204.5,-60.5 "/>
<text text-anchor="middle" x="143" y="-48.5" font-family="Helvetica,sans-Serif" font-size="10.00" fill="#000000"> </text>
<polyline fill="none" stroke="#000000" points="81.5,-41.5 204.5,-41.5 "/>
<text text-anchor="start" x="89.5" y="-29.5" font-family="Helvetica,sans-Serif" font-size="10.00" fill="#000000">+ __init__()</text>
<text text-anchor="start" x="89.5" y="-18.5" font-family="Helvetica,sans-Serif" font-size="10.00" fill="#000000">+ PolynomialC()</text>
<text text-anchor="start" x="89.5" y="-7.5" font-family="Helvetica,sans-Serif" font-size="10.00" fill="#000000">+ __getitem__()</text>
</g>
<!-- Node5 -->
<g id="node2" class="node">
<title>Node5</title>
<g id="a_node2"><a xlink:href="classSignalIntegrity_1_1Lib_1_1SParameters_1_1SParameters_1_1SParameters.xhtml" target="_top" xlink:title="Class containing s&#45;parameters. ">
<polygon fill="#ffffff" stroke="#000000" points="0,-116.5 0,-316.5 140,-316.5 140,-116.5 0,-116.5"/>
<text text-anchor="middle" x="70" y="-304.5" font-family="Helvetica,sans-Serif" font-size="10.00" fill="#000000">SParameters</text>
<polyline fill="none" stroke="#000000" points="0,-297.5 140,-297.5 "/>
<text text-anchor="start" x="8" y="-285.5" font-family="Helvetica,sans-Serif" font-size="10.00" fill="#000000">+ m_sToken</text>
<text text-anchor="start" x="8" y="-274.5" font-family="Helvetica,sans-Serif" font-size="10.00" fill="#000000">+ m_d</text>
<text text-anchor="start" x="8" y="-263.5" font-family="Helvetica,sans-Serif" font-size="10.00" fill="#000000">+ m_Z0</text>
<text text-anchor="start" x="8" y="-252.5" font-family="Helvetica,sans-Serif" font-size="10.00" fill="#000000">+ m_f</text>
<text text-anchor="start" x="8" y="-241.5" font-family="Helvetica,sans-Serif" font-size="10.00" fill="#000000">+ m_P</text>
<text text-anchor="start" x="8" y="-230.5" font-family="Helvetica,sans-Serif" font-size="10.00" fill="#000000">+ header</text>
<polyline fill="none" stroke="#000000" points="0,-223.5 140,-223.5 "/>
<text text-anchor="start" x="8" y="-211.5" font-family="Helvetica,sans-Serif" font-size="10.00" fill="#000000">+ __init__()</text>
<text text-anchor="start" x="8" y="-200.5" font-family="Helvetica,sans-Serif" font-size="10.00" fill="#000000">+ __getitem__()</text>
<text text-anchor="start" x="8" y="-189.5" font-family="Helvetica,sans-Serif" font-size="10.00" fill="#000000">+ __len__()</text>
<text text-anchor="start" x="8" y="-178.5" font-family="Helvetica,sans-Serif" font-size="10.00" fill="#000000">+ f()</text>
<text text-anchor="start" x="8" y="-167.5" font-family="Helvetica,sans-Serif" font-size="10.00" fill="#000000">+ Response()</text>
<text text-anchor="start" x="8" y="-156.5" font-family="Helvetica,sans-Serif" font-size="10.00" fill="#000000">+ FrequencyResponse()</text>
<text text-anchor="start" x="8" y="-145.5" font-family="Helvetica,sans-Serif" font-size="10.00" fill="#000000">+ WriteToFile()</text>
<text text-anchor="start" x="8" y="-134.5" font-family="Helvetica,sans-Serif" font-size="10.00" fill="#000000">+ Resample()</text>
<text text-anchor="start" x="8" y="-123.5" font-family="Helvetica,sans-Serif" font-size="10.00" fill="#000000">+ SetReferenceImpedance()</text>
</a>
</g>
</g>
<!-- Node5&#45;&gt;Node4 -->
<g id="edge1" class="edge">
<title>Node5&#45;&gt;Node4</title>
<path fill="none" stroke="#191970" d="M115.2552,-107.0817C119.2301,-97.4711 123.0578,-88.2165 126.5342,-79.8112"/>
<polygon fill="none" stroke="#191970" points="111.9935,-105.8104 111.4057,-116.3889 118.462,-108.4858 111.9935,-105.8104"/>
</g>
<!-- Node6 -->
<g id="node3" class="node">
<title>Node6</title>
<g id="a_node3"><a xlink:href="classSignalIntegrity_1_1Lib_1_1SParameters_1_1SParameterManipulation_1_1SParameterManipulation.xhtml" target="_top" xlink:title="Class for manipulations on s&#45;parameters involving passivity, causality, etc. ">
<polygon fill="#ffffff" stroke="#000000" points="8.5,-353.5 8.5,-454.5 131.5,-454.5 131.5,-353.5 8.5,-353.5"/>
<text text-anchor="middle" x="70" y="-442.5" font-family="Helvetica,sans-Serif" font-size="10.00" fill="#000000">SParameterManipulation</text>
<polyline fill="none" stroke="#000000" points="8.5,-435.5 131.5,-435.5 "/>
<text text-anchor="middle" x="70" y="-423.5" font-family="Helvetica,sans-Serif" font-size="10.00" fill="#000000"> </text>
<polyline fill="none" stroke="#000000" points="8.5,-416.5 131.5,-416.5 "/>
<text text-anchor="start" x="16.5" y="-404.5" font-family="Helvetica,sans-Serif" font-size="10.00" fill="#000000">+ EnforcePassivity()</text>
<text text-anchor="start" x="16.5" y="-393.5" font-family="Helvetica,sans-Serif" font-size="10.00" fill="#000000">+ IsCausal()</text>
<text text-anchor="start" x="16.5" y="-382.5" font-family="Helvetica,sans-Serif" font-size="10.00" fill="#000000">+ EnforceCausality()</text>
<text text-anchor="start" x="16.5" y="-371.5" font-family="Helvetica,sans-Serif" font-size="10.00" fill="#000000">+ WaveletDenoise()</text>
<text text-anchor="start" x="16.5" y="-360.5" font-family="Helvetica,sans-Serif" font-size="10.00" fill="#000000">+ PortReorder()</text>
</a>
</g>
</g>
<!-- Node6&#45;&gt;Node5 -->
<g id="edge2" class="edge">
<title>Node6&#45;&gt;Node5</title>
<path fill="none" stroke="#191970" d="M70,-343.1358C70,-334.6503 70,-325.7532 70,-316.7759"/>
<polygon fill="none" stroke="#191970" points="66.5001,-343.2598 70,-353.2598 73.5001,-343.2598 66.5001,-343.2598"/>
</g>
<!-- Node7 -->
<g id="node4" class="node">
<title>Node7</title>
<g id="a_node4"><a xlink:href="classSignalIntegrity_1_1Lib_1_1Measurement_1_1CalKit_1_1Standards_1_1TerminationPolynomial_1_1TerminationPolynomial.xhtml" target="_top" xlink:title="Base class for terminations for calibration standards. ">
<polygon fill="#ffffff" stroke="#000000" points="158,-166 158,-267 274,-267 274,-166 158,-166"/>
<text text-anchor="middle" x="216" y="-255" font-family="Helvetica,sans-Serif" font-size="10.00" fill="#000000">TerminationPolynomial</text>
<polyline fill="none" stroke="#000000" points="158,-248 274,-248 "/>
<text text-anchor="start" x="166" y="-236" font-family="Helvetica,sans-Serif" font-size="10.00" fill="#000000">+ a0</text>
<text text-anchor="start" x="166" y="-225" font-family="Helvetica,sans-Serif" font-size="10.00" fill="#000000">+ a1</text>
<text text-anchor="start" x="166" y="-214" font-family="Helvetica,sans-Serif" font-size="10.00" fill="#000000">+ a2</text>
<text text-anchor="start" x="166" y="-203" font-family="Helvetica,sans-Serif" font-size="10.00" fill="#000000">+ a3</text>
<polyline fill="none" stroke="#000000" points="158,-196 274,-196 "/>
<text text-anchor="start" x="166" y="-184" font-family="Helvetica,sans-Serif" font-size="10.00" fill="#000000">+ __init__()</text>
<text text-anchor="start" x="166" y="-173" font-family="Helvetica,sans-Serif" font-size="10.00" fill="#000000">+ Polynomial()</text>
</a>
</g>
</g>
<!-- Node7&#45;&gt;Node4 -->
<g id="edge3" class="edge">
<title>Node7&#45;&gt;Node4</title>
<path fill="none" stroke="#191970" d="M191.1429,-156.4002C180.6628,-131.0614 168.7523,-102.264 159.4,-79.6521"/>
<polygon fill="none" stroke="#191970" points="188.0248,-158.0191 195.0811,-165.9222 194.4934,-155.3437 188.0248,-158.0191"/>
</g>
</g>
</svg>
