<?xml version="1.0" encoding="UTF-8" standalone="no"?>
<!DOCTYPE svg PUBLIC "-//W3C//DTD SVG 1.1//EN"
 "http://www.w3.org/Graphics/SVG/1.1/DTD/svg11.dtd">
<!-- Generated by graphviz version 2.40.1 (20161225.0304)
 -->
<!-- Title: TerminationPolynomial Pages: 1 -->
<svg width="270pt" height="226pt"
 viewBox="0.00 0.00 270.00 226.00" xmlns="http://www.w3.org/2000/svg" xmlns:xlink="http://www.w3.org/1999/xlink">
<g id="graph0" class="graph" transform="scale(1 1) rotate(0) translate(4 222)">
<title>TerminationPolynomial</title>
<polygon fill="#ffffff" stroke="transparent" points="-4,4 -4,-222 266,-222 266,4 -4,4"/>
<!-- Node0 -->
<g id="node1" class="node">
<title>Node0</title>
<polygon fill="#bfbfbf" stroke="#000000" points="73.5,-116.5 73.5,-217.5 189.5,-217.5 189.5,-116.5 73.5,-116.5"/>
<text text-anchor="middle" x="131.5" y="-205.5" font-family="Helvetica,sans-Serif" font-size="10.00" fill="#000000">TerminationPolynomial</text>
<polyline fill="none" stroke="#000000" points="73.5,-198.5 189.5,-198.5 "/>
<text text-anchor="start" x="81.5" y="-186.5" font-family="Helvetica,sans-Serif" font-size="10.00" fill="#000000">+ a0</text>
<text text-anchor="start" x="81.5" y="-175.5" font-family="Helvetica,sans-Serif" font-size="10.00" fill="#000000">+ a1</text>
<text text-anchor="start" x="81.5" y="-164.5" font-family="Helvetica,sans-Serif" font-size="10.00" fill="#000000">+ a2</text>
<text text-anchor="start" x="81.5" y="-153.5" font-family="Helvetica,sans-Serif" font-size="10.00" fill="#000000">+ a3</text>
<polyline fill="none" stroke="#000000" points="73.5,-146.5 189.5,-146.5 "/>
<text text-anchor="start" x="81.5" y="-134.5" font-family="Helvetica,sans-Serif" font-size="10.00" fill="#000000">+ __init__()</text>
<text text-anchor="start" x="81.5" y="-123.5" font-family="Helvetica,sans-Serif" font-size="10.00" fill="#000000">+ Polynomial()</text>
</g>
<!-- Node1 -->
<g id="node2" class="node">
<title>Node1</title>
<g id="a_node2"><a xlink:href="classSignalIntegrity_1_1Lib_1_1Measurement_1_1CalKit_1_1Standards_1_1TerminationPolynomial_1_1TerminationCPolynomial.xhtml" target="_top" xlink:title="Class for capacitive terminations for open calibration standards. ">
<polygon fill="#ffffff" stroke="#000000" points="0,-.5 0,-79.5 123,-79.5 123,-.5 0,-.5"/>
<text text-anchor="middle" x="61.5" y="-67.5" font-family="Helvetica,sans-Serif" font-size="10.00" fill="#000000">TerminationCPolynomial</text>
<polyline fill="none" stroke="#000000" points="0,-60.5 123,-60.5 "/>
<text text-anchor="middle" x="61.5" y="-48.5" font-family="Helvetica,sans-Serif" font-size="10.00" fill="#000000"> </text>
<polyline fill="none" stroke="#000000" points="0,-41.5 123,-41.5 "/>
<text text-anchor="start" x="8" y="-29.5" font-family="Helvetica,sans-Serif" font-size="10.00" fill="#000000">+ __init__()</text>
<text text-anchor="start" x="8" y="-18.5" font-family="Helvetica,sans-Serif" font-size="10.00" fill="#000000">+ PolynomialC()</text>
<text text-anchor="start" x="8" y="-7.5" font-family="Helvetica,sans-Serif" font-size="10.00" fill="#000000">+ __getitem__()</text>
</a>
</g>
</g>
<!-- Node0&#45;&gt;Node1 -->
<g id="edge1" class="edge">
<title>Node0&#45;&gt;Node1</title>
<path fill="none" stroke="#191970" d="M98.7081,-107.5062C93.5353,-98.1213 88.298,-88.6192 83.4504,-79.8243"/>
<polygon fill="none" stroke="#191970" points="95.7406,-109.373 103.633,-116.4413 101.8711,-105.994 95.7406,-109.373"/>
</g>
<!-- Node2 -->
<g id="node3" class="node">
<title>Node2</title>
<g id="a_node3"><a xlink:href="classSignalIntegrity_1_1Lib_1_1Measurement_1_1CalKit_1_1Standards_1_1TerminationPolynomial_1_1TerminationLPolynomial.xhtml" target="_top" xlink:title="Class for inductive terminations for short calibration standards. ">
<polygon fill="#ffffff" stroke="#000000" points="141,-.5 141,-79.5 262,-79.5 262,-.5 141,-.5"/>
<text text-anchor="middle" x="201.5" y="-67.5" font-family="Helvetica,sans-Serif" font-size="10.00" fill="#000000">TerminationLPolynomial</text>
<polyline fill="none" stroke="#000000" points="141,-60.5 262,-60.5 "/>
<text text-anchor="middle" x="201.5" y="-48.5" font-family="Helvetica,sans-Serif" font-size="10.00" fill="#000000"> </text>
<polyline fill="none" stroke="#000000" points="141,-41.5 262,-41.5 "/>
<text text-anchor="start" x="149" y="-29.5" font-family="Helvetica,sans-Serif" font-size="10.00" fill="#000000">+ __init__()</text>
<text text-anchor="start" x="149" y="-18.5" font-family="Helvetica,sans-Serif" font-size="10.00" fill="#000000">+ PolynomialL()</text>
<text text-anchor="start" x="149" y="-7.5" font-family="Helvetica,sans-Serif" font-size="10.00" fill="#000000">+ __getitem__()</text>
</a>
</g>
</g>
<!-- Node0&#45;&gt;Node2 -->
<g id="edge2" class="edge">
<title>Node0&#45;&gt;Node2</title>
<path fill="none" stroke="#191970" d="M164.2919,-107.5062C169.4647,-98.1213 174.702,-88.6192 179.5496,-79.8243"/>
<polygon fill="none" stroke="#191970" points="161.1289,-105.994 159.367,-116.4413 167.2594,-109.373 161.1289,-105.994"/>
</g>
</g>
</svg>
