<?xml version="1.0" encoding="UTF-8" standalone="no"?>
<!DOCTYPE svg PUBLIC "-//W3C//DTD SVG 1.1//EN"
 "http://www.w3.org/Graphics/SVG/1.1/DTD/svg11.dtd">
<!-- Generated by graphviz version 2.40.1 (20161225.0304)
 -->
<!-- Title: XtalkCalibrationMeasurement Pages: 1 -->
<svg width="153pt" height="193pt"
 viewBox="0.00 0.00 153.00 193.00" xmlns="http://www.w3.org/2000/svg" xmlns:xlink="http://www.w3.org/1999/xlink">
<g id="graph0" class="graph" transform="scale(1 1) rotate(0) translate(4 189)">
<title>XtalkCalibrationMeasurement</title>
<polygon fill="#ffffff" stroke="transparent" points="-4,4 -4,-189 149,-189 149,4 -4,4"/>
<!-- Node2 -->
<g id="node1" class="node">
<title>Node2</title>
<polygon fill="#bfbfbf" stroke="#000000" points="0,-.5 0,-79.5 145,-79.5 145,-.5 0,-.5"/>
<text text-anchor="middle" x="72.5" y="-67.5" font-family="Helvetica,sans-Serif" font-size="10.00" fill="#000000">XtalkCalibrationMeasurement</text>
<polyline fill="none" stroke="#000000" points="0,-60.5 145,-60.5 "/>
<text text-anchor="start" x="8" y="-48.5" font-family="Helvetica,sans-Serif" font-size="10.00" fill="#000000">+ b2a1</text>
<text text-anchor="start" x="8" y="-37.5" font-family="Helvetica,sans-Serif" font-size="10.00" fill="#000000">+ portDriven</text>
<text text-anchor="start" x="8" y="-26.5" font-family="Helvetica,sans-Serif" font-size="10.00" fill="#000000">+ otherPort</text>
<polyline fill="none" stroke="#000000" points="0,-19.5 145,-19.5 "/>
<text text-anchor="start" x="8" y="-7.5" font-family="Helvetica,sans-Serif" font-size="10.00" fill="#000000">+ __init__()</text>
</g>
<!-- Node3 -->
<g id="node2" class="node">
<title>Node3</title>
<g id="a_node2"><a xlink:href="classSignalIntegrity_1_1Lib_1_1Measurement_1_1Calibration_1_1CalibrationMeasurements_1_1CalibrationMeasurement.xhtml" target="_top" xlink:title="Calibration Measurements. ">
<polygon fill="#ffffff" stroke="#000000" points="11.5,-116.5 11.5,-184.5 133.5,-184.5 133.5,-116.5 11.5,-116.5"/>
<text text-anchor="middle" x="72.5" y="-172.5" font-family="Helvetica,sans-Serif" font-size="10.00" fill="#000000">CalibrationMeasurement</text>
<polyline fill="none" stroke="#000000" points="11.5,-165.5 133.5,-165.5 "/>
<text text-anchor="start" x="19.5" y="-153.5" font-family="Helvetica,sans-Serif" font-size="10.00" fill="#000000">+ type</text>
<text text-anchor="start" x="19.5" y="-142.5" font-family="Helvetica,sans-Serif" font-size="10.00" fill="#000000">+ name</text>
<polyline fill="none" stroke="#000000" points="11.5,-135.5 133.5,-135.5 "/>
<text text-anchor="start" x="19.5" y="-123.5" font-family="Helvetica,sans-Serif" font-size="10.00" fill="#000000">+ __init__()</text>
</a>
</g>
</g>
<!-- Node3&#45;&gt;Node2 -->
<g id="edge1" class="edge">
<title>Node3&#45;&gt;Node2</title>
<path fill="none" stroke="#191970" d="M72.5,-106.3044C72.5,-97.4634 72.5,-88.2287 72.5,-79.5566"/>
<polygon fill="none" stroke="#191970" points="69.0001,-106.4447 72.5,-116.4447 76.0001,-106.4447 69.0001,-106.4447"/>
</g>
</g>
</svg>
