<?xml version="1.0" encoding="UTF-8" standalone="no"?>
<!DOCTYPE svg PUBLIC "-//W3C//DTD SVG 1.1//EN"
 "http://www.w3.org/Graphics/SVG/1.1/DTD/svg11.dtd">
<!-- Generated by graphviz version 2.40.1 (20161225.0304)
 -->
<!-- Title: CalibrationMeasurement Pages: 1 -->
<svg width="687pt" height="215pt"
 viewBox="0.00 0.00 686.50 215.00" xmlns="http://www.w3.org/2000/svg" xmlns:xlink="http://www.w3.org/1999/xlink">
<g id="graph0" class="graph" transform="scale(1 1) rotate(0) translate(4 211)">
<title>CalibrationMeasurement</title>
<polygon fill="#ffffff" stroke="transparent" points="-4,4 -4,-211 682.5,-211 682.5,4 -4,4"/>
<!-- Node0 -->
<g id="node1" class="node">
<title>Node0</title>
<polygon fill="#bfbfbf" stroke="#000000" points="272,-138.5 272,-206.5 394,-206.5 394,-138.5 272,-138.5"/>
<text text-anchor="middle" x="333" y="-194.5" font-family="Helvetica,sans-Serif" font-size="10.00" fill="#000000">CalibrationMeasurement</text>
<polyline fill="none" stroke="#000000" points="272,-187.5 394,-187.5 "/>
<text text-anchor="start" x="280" y="-175.5" font-family="Helvetica,sans-Serif" font-size="10.00" fill="#000000">+ type</text>
<text text-anchor="start" x="280" y="-164.5" font-family="Helvetica,sans-Serif" font-size="10.00" fill="#000000">+ name</text>
<polyline fill="none" stroke="#000000" points="272,-157.5 394,-157.5 "/>
<text text-anchor="start" x="280" y="-145.5" font-family="Helvetica,sans-Serif" font-size="10.00" fill="#000000">+ __init__()</text>
</g>
<!-- Node1 -->
<g id="node2" class="node">
<title>Node1</title>
<g id="a_node2"><a xlink:href="classSignalIntegrity_1_1Lib_1_1Measurement_1_1Calibration_1_1CalibrationMeasurements_1_1ReflectCalibrationMeasurement.xhtml" target="_top" xlink:title="A reflect measurement taken on a port with a reflect standard (like short, open, or load)...">
<polygon fill="#ffffff" stroke="#000000" points="0,-11.5 0,-90.5 154,-90.5 154,-11.5 0,-11.5"/>
<text text-anchor="middle" x="77" y="-78.5" font-family="Helvetica,sans-Serif" font-size="10.00" fill="#000000">ReflectCalibrationMeasurement</text>
<polyline fill="none" stroke="#000000" points="0,-71.5 154,-71.5 "/>
<text text-anchor="start" x="8" y="-59.5" font-family="Helvetica,sans-Serif" font-size="10.00" fill="#000000">+ gamma</text>
<text text-anchor="start" x="8" y="-48.5" font-family="Helvetica,sans-Serif" font-size="10.00" fill="#000000">+ Gamma</text>
<text text-anchor="start" x="8" y="-37.5" font-family="Helvetica,sans-Serif" font-size="10.00" fill="#000000">+ port</text>
<polyline fill="none" stroke="#000000" points="0,-30.5 154,-30.5 "/>
<text text-anchor="start" x="8" y="-18.5" font-family="Helvetica,sans-Serif" font-size="10.00" fill="#000000">+ __init__()</text>
</a>
</g>
</g>
<!-- Node0&#45;&gt;Node1 -->
<g id="edge1" class="edge">
<title>Node0&#45;&gt;Node1</title>
<path fill="none" stroke="#191970" d="M262.4543,-145.8568C231.4865,-133.4964 194.9762,-118.0101 163,-102 156.0153,-98.5028 148.8288,-94.6593 141.7273,-90.6992"/>
<polygon fill="none" stroke="#191970" points="261.2898,-149.1601 271.8759,-149.5896 263.8682,-142.6522 261.2898,-149.1601"/>
</g>
<!-- Node2 -->
<g id="node3" class="node">
<title>Node2</title>
<g id="a_node3"><a xlink:href="classSignalIntegrity_1_1Lib_1_1Measurement_1_1Calibration_1_1CalibrationMeasurements_1_1ThruCalibrationMeasurement.xhtml" target="_top" xlink:title="A thru calibration measurement taken between two ports. ">
<polygon fill="#ffffff" stroke="#000000" points="172,-.5 172,-101.5 314,-101.5 314,-.5 172,-.5"/>
<text text-anchor="middle" x="243" y="-89.5" font-family="Helvetica,sans-Serif" font-size="10.00" fill="#000000">ThruCalibrationMeasurement</text>
<polyline fill="none" stroke="#000000" points="172,-82.5 314,-82.5 "/>
<text text-anchor="start" x="180" y="-70.5" font-family="Helvetica,sans-Serif" font-size="10.00" fill="#000000">+ b1a1</text>
<text text-anchor="start" x="180" y="-59.5" font-family="Helvetica,sans-Serif" font-size="10.00" fill="#000000">+ b2a1</text>
<text text-anchor="start" x="180" y="-48.5" font-family="Helvetica,sans-Serif" font-size="10.00" fill="#000000">+ S</text>
<text text-anchor="start" x="180" y="-37.5" font-family="Helvetica,sans-Serif" font-size="10.00" fill="#000000">+ portDriven</text>
<text text-anchor="start" x="180" y="-26.5" font-family="Helvetica,sans-Serif" font-size="10.00" fill="#000000">+ otherPort</text>
<polyline fill="none" stroke="#000000" points="172,-19.5 314,-19.5 "/>
<text text-anchor="start" x="180" y="-7.5" font-family="Helvetica,sans-Serif" font-size="10.00" fill="#000000">+ __init__()</text>
</a>
</g>
</g>
<!-- Node0&#45;&gt;Node2 -->
<g id="edge2" class="edge">
<title>Node0&#45;&gt;Node2</title>
<path fill="none" stroke="#191970" d="M301.5996,-130.1094C294.8055,-120.9375 287.555,-111.1492 280.552,-101.6952"/>
<polygon fill="none" stroke="#191970" points="298.9257,-132.3799 307.6905,-138.3321 304.5506,-128.2132 298.9257,-132.3799"/>
</g>
<!-- Node3 -->
<g id="node4" class="node">
<title>Node3</title>
<g id="a_node4"><a xlink:href="classSignalIntegrity_1_1Lib_1_1Measurement_1_1Calibration_1_1CalibrationMeasurements_1_1UnknownThruCalibrationMeasurement.xhtml" target="_top" xlink:title="An unknown thru calibration measurement taken between two ports. ">
<polygon fill="#ffffff" stroke="#000000" points="332.5,-.5 332.5,-101.5 515.5,-101.5 515.5,-.5 332.5,-.5"/>
<text text-anchor="middle" x="424" y="-89.5" font-family="Helvetica,sans-Serif" font-size="10.00" fill="#000000">UnknownThruCalibrationMeasurement</text>
<polyline fill="none" stroke="#000000" points="332.5,-82.5 515.5,-82.5 "/>
<text text-anchor="start" x="340.5" y="-70.5" font-family="Helvetica,sans-Serif" font-size="10.00" fill="#000000">+ Smeasured</text>
<text text-anchor="start" x="340.5" y="-59.5" font-family="Helvetica,sans-Serif" font-size="10.00" fill="#000000">+ S</text>
<text text-anchor="start" x="340.5" y="-48.5" font-family="Helvetica,sans-Serif" font-size="10.00" fill="#000000">+ portDriven</text>
<text text-anchor="start" x="340.5" y="-37.5" font-family="Helvetica,sans-Serif" font-size="10.00" fill="#000000">+ otherPort</text>
<text text-anchor="start" x="340.5" y="-26.5" font-family="Helvetica,sans-Serif" font-size="10.00" fill="#000000">+ limit</text>
<polyline fill="none" stroke="#000000" points="332.5,-19.5 515.5,-19.5 "/>
<text text-anchor="start" x="340.5" y="-7.5" font-family="Helvetica,sans-Serif" font-size="10.00" fill="#000000">+ __init__()</text>
</a>
</g>
</g>
<!-- Node0&#45;&gt;Node3 -->
<g id="edge3" class="edge">
<title>Node0&#45;&gt;Node3</title>
<path fill="none" stroke="#191970" d="M364.7493,-130.1094C371.6189,-120.9375 378.9499,-111.1492 386.0308,-101.6952"/>
<polygon fill="none" stroke="#191970" points="361.7841,-128.23 358.5907,-138.3321 367.3869,-132.4263 361.7841,-128.23"/>
</g>
<!-- Node4 -->
<g id="node5" class="node">
<title>Node4</title>
<g id="a_node5"><a xlink:href="classSignalIntegrity_1_1Lib_1_1Measurement_1_1Calibration_1_1CalibrationMeasurements_1_1XtalkCalibrationMeasurement.xhtml" target="_top" xlink:title="A crosstalk calibration measurement typically taken between two ports that are completely unconnected...">
<polygon fill="#ffffff" stroke="#000000" points="533.5,-11.5 533.5,-90.5 678.5,-90.5 678.5,-11.5 533.5,-11.5"/>
<text text-anchor="middle" x="606" y="-78.5" font-family="Helvetica,sans-Serif" font-size="10.00" fill="#000000">XtalkCalibrationMeasurement</text>
<polyline fill="none" stroke="#000000" points="533.5,-71.5 678.5,-71.5 "/>
<text text-anchor="start" x="541.5" y="-59.5" font-family="Helvetica,sans-Serif" font-size="10.00" fill="#000000">+ b2a1</text>
<text text-anchor="start" x="541.5" y="-48.5" font-family="Helvetica,sans-Serif" font-size="10.00" fill="#000000">+ portDriven</text>
<text text-anchor="start" x="541.5" y="-37.5" font-family="Helvetica,sans-Serif" font-size="10.00" fill="#000000">+ otherPort</text>
<polyline fill="none" stroke="#000000" points="533.5,-30.5 678.5,-30.5 "/>
<text text-anchor="start" x="541.5" y="-18.5" font-family="Helvetica,sans-Serif" font-size="10.00" fill="#000000">+ __init__()</text>
</a>
</g>
</g>
<!-- Node0&#45;&gt;Node4 -->
<g id="edge4" class="edge">
<title>Node0&#45;&gt;Node4</title>
<path fill="none" stroke="#191970" d="M403.7078,-150.5106C440.6277,-138.0447 486.0939,-121.1266 525,-102 532.0092,-98.5542 539.1749,-94.6547 546.2034,-90.5841"/>
<polygon fill="none" stroke="#191970" points="402.4018,-147.2566 394.0256,-153.7442 404.6193,-153.8961 402.4018,-147.2566"/>
</g>
</g>
</svg>
