<?xml version="1.0" encoding="UTF-8" standalone="no"?>
<!DOCTYPE svg PUBLIC "-//W3C//DTD SVG 1.1//EN"
 "http://www.w3.org/Graphics/SVG/1.1/DTD/svg11.dtd">
<!-- Generated by graphviz version 2.43.0 (0)
 -->
<!-- Title: ResultsCache Pages: 1 -->
<svg width="749pt" height="777pt"
 viewBox="0.00 0.00 748.50 777.00" xmlns="http://www.w3.org/2000/svg" xmlns:xlink="http://www.w3.org/1999/xlink">
<g id="graph0" class="graph" transform="scale(1 1) rotate(0) translate(4 773)">
<title>ResultsCache</title>
<polygon fill="white" stroke="transparent" points="-4,4 -4,-773 744.5,-773 744.5,4 -4,4"/>
<!-- Node1 -->
<g id="node1" class="node">
<title>Node1</title>
<g id="a_node1"><a xlink:title="base class for results caching">
<polygon fill="#bfbfbf" stroke="black" points="259.5,-623.5 259.5,-768.5 348.5,-768.5 348.5,-623.5 259.5,-623.5"/>
<text text-anchor="middle" x="304" y="-756.5" font-family="Helvetica,sans-Serif" font-size="10.00">ResultsCache</text>
<polyline fill="none" stroke="black" points="259.5,-749.5 348.5,-749.5 "/>
<text text-anchor="start" x="267.5" y="-737.5" font-family="Helvetica,sans-Serif" font-size="10.00">+ filename</text>
<text text-anchor="start" x="267.5" y="-726.5" font-family="Helvetica,sans-Serif" font-size="10.00">+ extra</text>
<text text-anchor="start" x="267.5" y="-715.5" font-family="Helvetica,sans-Serif" font-size="10.00">+ hash</text>
<text text-anchor="start" x="267.5" y="-704.5" font-family="Helvetica,sans-Serif" font-size="10.00">+ logging</text>
<polyline fill="none" stroke="black" points="259.5,-697.5 348.5,-697.5 "/>
<text text-anchor="start" x="267.5" y="-685.5" font-family="Helvetica,sans-Serif" font-size="10.00">+ __init__()</text>
<text text-anchor="start" x="267.5" y="-674.5" font-family="Helvetica,sans-Serif" font-size="10.00">+ HashValue()</text>
<text text-anchor="start" x="267.5" y="-663.5" font-family="Helvetica,sans-Serif" font-size="10.00">+ CheckCache()</text>
<text text-anchor="start" x="267.5" y="-652.5" font-family="Helvetica,sans-Serif" font-size="10.00">+ CacheResult()</text>
<text text-anchor="start" x="267.5" y="-641.5" font-family="Helvetica,sans-Serif" font-size="10.00">+ FileTime()</text>
<text text-anchor="start" x="267.5" y="-630.5" font-family="Helvetica,sans-Serif" font-size="10.00">+ CheckTimes()</text>
</a>
</g>
</g>
<!-- Node2 -->
<g id="node2" class="node">
<title>Node2</title>
<g id="a_node2"><a xlink:href="classSignalIntegrity_1_1Lib_1_1Eye_1_1EyeDiagramBitmap_1_1EyeDiagramBitmap.xhtml" target="_top" xlink:title="Generates the eye diagram bitmap and many associated measurements from it.">
<polygon fill="white" stroke="black" points="190.5,-309.5 190.5,-586.5 301.5,-586.5 301.5,-309.5 190.5,-309.5"/>
<text text-anchor="middle" x="246" y="-574.5" font-family="Helvetica,sans-Serif" font-size="10.00">EyeDiagramBitmap</text>
<polyline fill="none" stroke="black" points="190.5,-567.5 301.5,-567.5 "/>
<text text-anchor="start" x="198.5" y="-555.5" font-family="Helvetica,sans-Serif" font-size="10.00">+ YAxisMode</text>
<text text-anchor="start" x="198.5" y="-544.5" font-family="Helvetica,sans-Serif" font-size="10.00">+ YMax</text>
<text text-anchor="start" x="198.5" y="-533.5" font-family="Helvetica,sans-Serif" font-size="10.00">+ YMin</text>
<text text-anchor="start" x="198.5" y="-522.5" font-family="Helvetica,sans-Serif" font-size="10.00">+ RowsSpecified</text>
<text text-anchor="start" x="198.5" y="-511.5" font-family="Helvetica,sans-Serif" font-size="10.00">+ Cols</text>
<text text-anchor="start" x="198.5" y="-500.5" font-family="Helvetica,sans-Serif" font-size="10.00">+ BaudRate</text>
<text text-anchor="start" x="198.5" y="-489.5" font-family="Helvetica,sans-Serif" font-size="10.00">+ prbswf</text>
<text text-anchor="start" x="198.5" y="-478.5" font-family="Helvetica,sans-Serif" font-size="10.00">+ EnhancementMode</text>
<text text-anchor="start" x="198.5" y="-467.5" font-family="Helvetica,sans-Serif" font-size="10.00">+ EnhancementSteps</text>
<text text-anchor="start" x="198.5" y="-456.5" font-family="Helvetica,sans-Serif" font-size="10.00">+ BitsPerSymbol</text>
<text text-anchor="start" x="198.5" y="-445.5" font-family="Helvetica,sans-Serif" font-size="10.00">and 12 more...</text>
<polyline fill="none" stroke="black" points="190.5,-438.5 301.5,-438.5 "/>
<text text-anchor="start" x="198.5" y="-426.5" font-family="Helvetica,sans-Serif" font-size="10.00">+ HashValue()</text>
<text text-anchor="start" x="198.5" y="-415.5" font-family="Helvetica,sans-Serif" font-size="10.00">+ __init__()</text>
<text text-anchor="start" x="198.5" y="-404.5" font-family="Helvetica,sans-Serif" font-size="10.00">+ Bitmap()</text>
<text text-anchor="start" x="198.5" y="-393.5" font-family="Helvetica,sans-Serif" font-size="10.00">+ ApplyJitterNoise()</text>
<text text-anchor="start" x="198.5" y="-382.5" font-family="Helvetica,sans-Serif" font-size="10.00">+ AutoAlign()</text>
<text text-anchor="start" x="198.5" y="-371.5" font-family="Helvetica,sans-Serif" font-size="10.00">+ Measure()</text>
<text text-anchor="start" x="198.5" y="-360.5" font-family="Helvetica,sans-Serif" font-size="10.00">+ OpticalMeasure()</text>
<text text-anchor="start" x="198.5" y="-349.5" font-family="Helvetica,sans-Serif" font-size="10.00">+ Bathtub()</text>
<text text-anchor="start" x="198.5" y="-338.5" font-family="Helvetica,sans-Serif" font-size="10.00">+ Annotations()</text>
<text text-anchor="start" x="198.5" y="-327.5" font-family="Helvetica,sans-Serif" font-size="10.00">+ CreateImage()</text>
<text text-anchor="start" x="198.5" y="-316.5" font-family="Helvetica,sans-Serif" font-size="10.00">+ Penalties()</text>
</a>
</g>
</g>
<!-- Node1&#45;&gt;Node2 -->
<g id="edge1" class="edge">
<title>Node1&#45;&gt;Node2</title>
<path fill="none" stroke="midnightblue" d="M284.72,-613.21C282.68,-604.58 280.58,-595.65 278.44,-586.61"/>
<polygon fill="none" stroke="midnightblue" points="281.37,-614.26 287.07,-623.19 288.18,-612.65 281.37,-614.26"/>
</g>
<!-- Node3 -->
<g id="node3" class="node">
<title>Node3</title>
<g id="a_node3"><a xlink:href="classSignalIntegrity_1_1Lib_1_1ResultsCache_1_1LinesCache.xhtml" target="_top" xlink:title="Caches results calculated based on netlist lines, as used in all of the parser classes.">
<polygon fill="white" stroke="black" points="319.5,-408.5 319.5,-487.5 406.5,-487.5 406.5,-408.5 319.5,-408.5"/>
<text text-anchor="middle" x="363" y="-475.5" font-family="Helvetica,sans-Serif" font-size="10.00">LinesCache</text>
<polyline fill="none" stroke="black" points="319.5,-468.5 406.5,-468.5 "/>
<text text-anchor="middle" x="363" y="-456.5" font-family="Helvetica,sans-Serif" font-size="10.00"> </text>
<polyline fill="none" stroke="black" points="319.5,-449.5 406.5,-449.5 "/>
<text text-anchor="start" x="327.5" y="-437.5" font-family="Helvetica,sans-Serif" font-size="10.00">+ __init__()</text>
<text text-anchor="start" x="327.5" y="-426.5" font-family="Helvetica,sans-Serif" font-size="10.00">+ HashValue()</text>
<text text-anchor="start" x="327.5" y="-415.5" font-family="Helvetica,sans-Serif" font-size="10.00">+ CheckTimes()</text>
</a>
</g>
</g>
<!-- Node1&#45;&gt;Node3 -->
<g id="edge2" class="edge">
<title>Node1&#45;&gt;Node3</title>
<path fill="none" stroke="midnightblue" d="M323.56,-613.44C333.72,-571.09 345.66,-521.32 353.71,-487.72"/>
<polygon fill="none" stroke="midnightblue" points="320.15,-612.64 321.22,-623.19 326.96,-614.28 320.15,-612.64"/>
</g>
<!-- Node4 -->
<g id="node4" class="node">
<title>Node4</title>
<g id="a_node4"><a xlink:href="classSignalIntegrity_1_1Lib_1_1Parsers_1_1CalibrationNumericParser_1_1CalibrationNumericParser.xhtml" target="_top" xlink:title="generates a calibration from a netlist">
<polygon fill="white" stroke="black" points="0,-199 0,-267 128,-267 128,-199 0,-199"/>
<text text-anchor="middle" x="64" y="-255" font-family="Helvetica,sans-Serif" font-size="10.00">CalibrationNumericParser</text>
<polyline fill="none" stroke="black" points="0,-248 128,-248 "/>
<text text-anchor="start" x="8" y="-236" font-family="Helvetica,sans-Serif" font-size="10.00">+ calibration</text>
<polyline fill="none" stroke="black" points="0,-229 128,-229 "/>
<text text-anchor="start" x="8" y="-217" font-family="Helvetica,sans-Serif" font-size="10.00">+ __init__()</text>
<text text-anchor="start" x="8" y="-206" font-family="Helvetica,sans-Serif" font-size="10.00">+ CalculateCalibration()</text>
</a>
</g>
</g>
<!-- Node3&#45;&gt;Node4 -->
<g id="edge3" class="edge">
<title>Node3&#45;&gt;Node4</title>
<path fill="none" stroke="midnightblue" d="M356.33,-398.54C349.64,-368.46 336.35,-331.4 310,-309 250.17,-258.13 210.83,-299.78 137,-273 132.27,-271.29 127.47,-269.31 122.71,-267.18"/>
<polygon fill="none" stroke="midnightblue" points="352.92,-399.34 358.35,-408.44 359.78,-397.94 352.92,-399.34"/>
</g>
<!-- Node5 -->
<g id="node5" class="node">
<title>Node5</title>
<g id="a_node5"><a xlink:href="classSignalIntegrity_1_1Lib_1_1Parsers_1_1DeembedderNumericParser_1_1DeembedderNumericParser.xhtml" target="_top" xlink:title="generates deembedd s&#45;parameters from a netlist">
<polygon fill="white" stroke="black" points="146.5,-199 146.5,-267 283.5,-267 283.5,-199 146.5,-199"/>
<text text-anchor="middle" x="215" y="-255" font-family="Helvetica,sans-Serif" font-size="10.00">DeembedderNumericParser</text>
<polyline fill="none" stroke="black" points="146.5,-248 283.5,-248 "/>
<text text-anchor="start" x="154.5" y="-236" font-family="Helvetica,sans-Serif" font-size="10.00">+ sf</text>
<polyline fill="none" stroke="black" points="146.5,-229 283.5,-229 "/>
<text text-anchor="start" x="154.5" y="-217" font-family="Helvetica,sans-Serif" font-size="10.00">+ __init__()</text>
<text text-anchor="start" x="154.5" y="-206" font-family="Helvetica,sans-Serif" font-size="10.00">+ Deembed()</text>
</a>
</g>
</g>
<!-- Node3&#45;&gt;Node5 -->
<g id="edge4" class="edge">
<title>Node3&#45;&gt;Node5</title>
<path fill="none" stroke="midnightblue" d="M351.24,-398.3C342.87,-370.33 329.58,-335.6 310,-309 298.41,-293.26 282.71,-279.06 267.41,-267.36"/>
<polygon fill="none" stroke="midnightblue" points="347.98,-399.62 354.11,-408.26 354.71,-397.69 347.98,-399.62"/>
</g>
<!-- Node6 -->
<g id="node6" class="node">
<title>Node6</title>
<g id="a_node6"><a xlink:href="classSignalIntegrity_1_1Lib_1_1Parsers_1_1SimulatorNumericParser_1_1SimulatorNumericParser.xhtml" target="_top" xlink:title="performs numeric simulations from netlists">
<polygon fill="white" stroke="black" points="301.5,-199 301.5,-267 424.5,-267 424.5,-199 301.5,-199"/>
<text text-anchor="middle" x="363" y="-255" font-family="Helvetica,sans-Serif" font-size="10.00">SimulatorNumericParser</text>
<polyline fill="none" stroke="black" points="301.5,-248 424.5,-248 "/>
<text text-anchor="start" x="309.5" y="-236" font-family="Helvetica,sans-Serif" font-size="10.00">+ transferMatrices</text>
<polyline fill="none" stroke="black" points="301.5,-229 424.5,-229 "/>
<text text-anchor="start" x="309.5" y="-217" font-family="Helvetica,sans-Serif" font-size="10.00">+ __init__()</text>
<text text-anchor="start" x="309.5" y="-206" font-family="Helvetica,sans-Serif" font-size="10.00">+ TransferMatrices()</text>
</a>
</g>
</g>
<!-- Node3&#45;&gt;Node6 -->
<g id="edge5" class="edge">
<title>Node3&#45;&gt;Node6</title>
<path fill="none" stroke="midnightblue" d="M363,-398.32C363,-358.13 363,-302.18 363,-267.04"/>
<polygon fill="none" stroke="midnightblue" points="359.5,-398.43 363,-408.43 366.5,-398.43 359.5,-398.43"/>
</g>
<!-- Node8 -->
<g id="node8" class="node">
<title>Node8</title>
<g id="a_node8"><a xlink:href="classSignalIntegrity_1_1Lib_1_1Parsers_1_1SystemSParametersParser_1_1SystemSParametersNumericParser.xhtml" target="_top" xlink:title="generates system s&#45;parameters from a netlist">
<polygon fill="white" stroke="black" points="443,-193.5 443,-272.5 587,-272.5 587,-193.5 443,-193.5"/>
<text text-anchor="start" x="451" y="-260.5" font-family="Helvetica,sans-Serif" font-size="10.00">SystemSParametersNumeric</text>
<text text-anchor="middle" x="515" y="-249.5" font-family="Helvetica,sans-Serif" font-size="10.00">Parser</text>
<polyline fill="none" stroke="black" points="443,-242.5 587,-242.5 "/>
<text text-anchor="start" x="451" y="-230.5" font-family="Helvetica,sans-Serif" font-size="10.00">+ sf</text>
<polyline fill="none" stroke="black" points="443,-223.5 587,-223.5 "/>
<text text-anchor="start" x="451" y="-211.5" font-family="Helvetica,sans-Serif" font-size="10.00">+ __init__()</text>
<text text-anchor="start" x="451" y="-200.5" font-family="Helvetica,sans-Serif" font-size="10.00">+ SParameters()</text>
</a>
</g>
</g>
<!-- Node3&#45;&gt;Node8 -->
<g id="edge7" class="edge">
<title>Node3&#45;&gt;Node8</title>
<path fill="none" stroke="midnightblue" d="M396.52,-400.02C423.82,-361.78 461.87,-308.45 487.42,-272.65"/>
<polygon fill="none" stroke="midnightblue" points="393.49,-398.25 390.53,-408.43 399.18,-402.32 393.49,-398.25"/>
</g>
<!-- Node10 -->
<g id="node10" class="node">
<title>Node10</title>
<g id="a_node10"><a xlink:href="classSignalIntegrity_1_1Lib_1_1Parsers_1_1VirtualProbeNumericParser_1_1VirtualProbeNumericParser.xhtml" target="_top" xlink:title="performs numeric virtual probing from netlists">
<polygon fill="white" stroke="black" points="605.5,-193.5 605.5,-272.5 740.5,-272.5 740.5,-193.5 605.5,-193.5"/>
<text text-anchor="middle" x="673" y="-260.5" font-family="Helvetica,sans-Serif" font-size="10.00">VirtualProbeNumericParser</text>
<polyline fill="none" stroke="black" points="605.5,-253.5 740.5,-253.5 "/>
<text text-anchor="start" x="613.5" y="-241.5" font-family="Helvetica,sans-Serif" font-size="10.00">+ transferMatrices</text>
<text text-anchor="start" x="613.5" y="-230.5" font-family="Helvetica,sans-Serif" font-size="10.00">+ m_tm</text>
<polyline fill="none" stroke="black" points="605.5,-223.5 740.5,-223.5 "/>
<text text-anchor="start" x="613.5" y="-211.5" font-family="Helvetica,sans-Serif" font-size="10.00">+ __init__()</text>
<text text-anchor="start" x="613.5" y="-200.5" font-family="Helvetica,sans-Serif" font-size="10.00">+ TransferMatrices()</text>
</a>
</g>
</g>
<!-- Node3&#45;&gt;Node10 -->
<g id="edge9" class="edge">
<title>Node3&#45;&gt;Node10</title>
<path fill="none" stroke="midnightblue" d="M415.1,-411.2C471,-372.79 559.46,-312.01 616.87,-272.57"/>
<polygon fill="none" stroke="midnightblue" points="413.02,-408.39 406.76,-416.93 416.98,-414.16 413.02,-408.39"/>
</g>
<!-- Node7 -->
<g id="node7" class="node">
<title>Node7</title>
<g id="a_node7"><a xlink:href="classSignalIntegrity_1_1Lib_1_1Parsers_1_1NetworkAnalyzerSimulationNumericParser_1_1NetworkAnalyzerSimulationNumericParser.xhtml" target="_top" xlink:title="performs numeric simulations from netlists">
<polygon fill="white" stroke="black" points="280.5,-0.5 280.5,-156.5 417.5,-156.5 417.5,-0.5 280.5,-0.5"/>
<text text-anchor="start" x="288.5" y="-144.5" font-family="Helvetica,sans-Serif" font-size="10.00">NetworkAnalyzerSimulation</text>
<text text-anchor="middle" x="349" y="-133.5" font-family="Helvetica,sans-Serif" font-size="10.00">NumericParser</text>
<polyline fill="none" stroke="black" points="280.5,-126.5 417.5,-126.5 "/>
<text text-anchor="start" x="288.5" y="-114.5" font-family="Helvetica,sans-Serif" font-size="10.00">+ PortConnectionList</text>
<text text-anchor="start" x="288.5" y="-103.5" font-family="Helvetica,sans-Serif" font-size="10.00">+ DutSParameters</text>
<text text-anchor="start" x="288.5" y="-92.5" font-family="Helvetica,sans-Serif" font-size="10.00">+ simulationType</text>
<text text-anchor="start" x="288.5" y="-81.5" font-family="Helvetica,sans-Serif" font-size="10.00">+ dutknown</text>
<text text-anchor="start" x="288.5" y="-70.5" font-family="Helvetica,sans-Serif" font-size="10.00">+ simulationNumPorts</text>
<text text-anchor="start" x="288.5" y="-59.5" font-family="Helvetica,sans-Serif" font-size="10.00">+ m_lines</text>
<polyline fill="none" stroke="black" points="280.5,-52.5 417.5,-52.5 "/>
<text text-anchor="start" x="288.5" y="-40.5" font-family="Helvetica,sans-Serif" font-size="10.00">+ __init__()</text>
<text text-anchor="start" x="288.5" y="-29.5" font-family="Helvetica,sans-Serif" font-size="10.00">+ HashValue()</text>
<text text-anchor="start" x="288.5" y="-18.5" font-family="Helvetica,sans-Serif" font-size="10.00">+ ArrangeSimulation()</text>
<text text-anchor="start" x="288.5" y="-7.5" font-family="Helvetica,sans-Serif" font-size="10.00">+ TransferMatrices()</text>
</a>
</g>
</g>
<!-- Node6&#45;&gt;Node7 -->
<g id="edge6" class="edge">
<title>Node6&#45;&gt;Node7</title>
<path fill="none" stroke="midnightblue" d="M359.03,-188.8C358.11,-178.73 357.1,-167.7 356.08,-156.65"/>
<polygon fill="none" stroke="midnightblue" points="355.56,-189.27 359.96,-198.91 362.53,-188.63 355.56,-189.27"/>
</g>
<!-- Node9 -->
<g id="node9" class="node">
<title>Node9</title>
<g id="a_node9"><a xlink:href="classSignalIntegrity_1_1Lib_1_1Parsers_1_1DUTSParametersNumericParser_1_1DUTSParametersNumericParser.xhtml" target="_top" xlink:title="generates s&#45;parameters of a DUT from a network analyzer model netlist">
<polygon fill="white" stroke="black" points="436,-22.5 436,-134.5 620,-134.5 620,-22.5 436,-22.5"/>
<text text-anchor="middle" x="528" y="-122.5" font-family="Helvetica,sans-Serif" font-size="10.00">DUTSParametersNumericParser</text>
<polyline fill="none" stroke="black" points="436,-115.5 620,-115.5 "/>
<text text-anchor="start" x="444" y="-103.5" font-family="Helvetica,sans-Serif" font-size="10.00">+ NetworkAnalyzerProjectFile</text>
<text text-anchor="start" x="444" y="-92.5" font-family="Helvetica,sans-Serif" font-size="10.00">+ NetworkAnalyzerPortConnectionList</text>
<text text-anchor="start" x="444" y="-81.5" font-family="Helvetica,sans-Serif" font-size="10.00">+ m_lines</text>
<polyline fill="none" stroke="black" points="436,-74.5 620,-74.5 "/>
<text text-anchor="start" x="444" y="-62.5" font-family="Helvetica,sans-Serif" font-size="10.00">+ __init__()</text>
<text text-anchor="start" x="444" y="-51.5" font-family="Helvetica,sans-Serif" font-size="10.00">+ HashValue()</text>
<text text-anchor="start" x="444" y="-40.5" font-family="Helvetica,sans-Serif" font-size="10.00">+ ConfigureForDUTCalculation()</text>
<text text-anchor="start" x="444" y="-29.5" font-family="Helvetica,sans-Serif" font-size="10.00">+ SParameters()</text>
</a>
</g>
</g>
<!-- Node8&#45;&gt;Node9 -->
<g id="edge8" class="edge">
<title>Node8&#45;&gt;Node9</title>
<path fill="none" stroke="midnightblue" d="M519.19,-182.8C520.5,-167.46 521.95,-150.43 523.29,-134.71"/>
<polygon fill="none" stroke="midnightblue" points="515.68,-182.86 518.31,-193.12 522.65,-183.46 515.68,-182.86"/>
</g>
</g>
</svg>
