<?xml version="1.0" encoding="UTF-8" standalone="no"?>
<!DOCTYPE svg PUBLIC "-//W3C//DTD SVG 1.1//EN"
 "http://www.w3.org/Graphics/SVG/1.1/DTD/svg11.dtd">
<!-- Generated by graphviz version 2.43.0 (0)
 -->
<!-- Title: MultiLevelWaveform Pages: 1 -->
<svg width="127pt" height="292pt"
 viewBox="0.00 0.00 127.00 292.00" xmlns="http://www.w3.org/2000/svg" xmlns:xlink="http://www.w3.org/1999/xlink">
<g id="graph0" class="graph" transform="scale(1 1) rotate(0) translate(4 288)">
<title>MultiLevelWaveform</title>
<polygon fill="white" stroke="transparent" points="-4,4 -4,-288 123,-288 123,4 -4,4"/>
<!-- Node1 -->
<g id="node1" class="node">
<title>Node1</title>
<g id="a_node1"><a xlink:title="a PRBS multi&#45;level waveform with a given PRBS polynomial">
<polygon fill="#bfbfbf" stroke="black" points="0,-0.5 0,-57.5 119,-57.5 119,-0.5 0,-0.5"/>
<text text-anchor="middle" x="59.5" y="-45.5" font-family="Helvetica,sans-Serif" font-size="10.00">MultiLevelWaveform</text>
<polyline fill="none" stroke="black" points="0,-38.5 119,-38.5 "/>
<text text-anchor="middle" x="59.5" y="-26.5" font-family="Helvetica,sans-Serif" font-size="10.00"> </text>
<polyline fill="none" stroke="black" points="0,-19.5 119,-19.5 "/>
<text text-anchor="start" x="8" y="-7.5" font-family="Helvetica,sans-Serif" font-size="10.00">+ __init__()</text>
</a>
</g>
</g>
<!-- Node2 -->
<g id="node2" class="node">
<title>Node2</title>
<g id="a_node2"><a xlink:href="classSignalIntegrity_1_1Lib_1_1TimeDomain_1_1Waveform_1_1Waveform_1_1Waveform.xhtml" target="_top" xlink:title="base class for all waveforms">
<polygon fill="white" stroke="black" points="3.5,-94.5 3.5,-283.5 115.5,-283.5 115.5,-94.5 3.5,-94.5"/>
<text text-anchor="middle" x="59.5" y="-271.5" font-family="Helvetica,sans-Serif" font-size="10.00">Waveform</text>
<polyline fill="none" stroke="black" points="3.5,-264.5 115.5,-264.5 "/>
<text text-anchor="start" x="11.5" y="-252.5" font-family="Helvetica,sans-Serif" font-size="10.00">+ td</text>
<text text-anchor="start" x="11.5" y="-241.5" font-family="Helvetica,sans-Serif" font-size="10.00">+ adaptionStrategy</text>
<text text-anchor="start" x="11.5" y="-230.5" font-family="Helvetica,sans-Serif" font-size="10.00">+ epsilon</text>
<polyline fill="none" stroke="black" points="3.5,-223.5 115.5,-223.5 "/>
<text text-anchor="start" x="11.5" y="-211.5" font-family="Helvetica,sans-Serif" font-size="10.00">+ __init__()</text>
<text text-anchor="start" x="11.5" y="-200.5" font-family="Helvetica,sans-Serif" font-size="10.00">+ Times()</text>
<text text-anchor="start" x="11.5" y="-189.5" font-family="Helvetica,sans-Serif" font-size="10.00">+ TimeDescriptor()</text>
<text text-anchor="start" x="11.5" y="-178.5" font-family="Helvetica,sans-Serif" font-size="10.00">+ Values()</text>
<text text-anchor="start" x="11.5" y="-167.5" font-family="Helvetica,sans-Serif" font-size="10.00">+ OffsetBy()</text>
<text text-anchor="start" x="11.5" y="-156.5" font-family="Helvetica,sans-Serif" font-size="10.00">+ DelayBy()</text>
<text text-anchor="start" x="11.5" y="-145.5" font-family="Helvetica,sans-Serif" font-size="10.00">+ __add__()</text>
<text text-anchor="start" x="11.5" y="-134.5" font-family="Helvetica,sans-Serif" font-size="10.00">+ __sub__()</text>
<text text-anchor="start" x="11.5" y="-123.5" font-family="Helvetica,sans-Serif" font-size="10.00">+ __radd__()</text>
<text text-anchor="start" x="11.5" y="-112.5" font-family="Helvetica,sans-Serif" font-size="10.00">+ __mul__()</text>
<text text-anchor="start" x="11.5" y="-101.5" font-family="Helvetica,sans-Serif" font-size="10.00">and 11 more...</text>
</a>
</g>
</g>
<!-- Node2&#45;&gt;Node1 -->
<g id="edge1" class="edge">
<title>Node2&#45;&gt;Node1</title>
<path fill="none" stroke="midnightblue" d="M59.5,-84.13C59.5,-74.56 59.5,-65.54 59.5,-57.7"/>
<polygon fill="none" stroke="midnightblue" points="56,-84.26 59.5,-94.26 63,-84.26 56,-84.26"/>
</g>
</g>
</svg>
