<?xml version="1.0" encoding="UTF-8" standalone="no"?>
<!DOCTYPE svg PUBLIC "-//W3C//DTD SVG 1.1//EN"
 "http://www.w3.org/Graphics/SVG/1.1/DTD/svg11.dtd">
<!-- Generated by graphviz version 2.43.0 (0)
 -->
<!-- Title: FFE Pages: 1 -->
<svg width="284pt" height="700pt"
 viewBox="0.00 0.00 284.00 700.00" xmlns="http://www.w3.org/2000/svg" xmlns:xlink="http://www.w3.org/1999/xlink">
<g id="graph0" class="graph" transform="scale(1 1) rotate(0) translate(4 696)">
<title>FFE</title>
<polygon fill="white" stroke="transparent" points="-4,4 -4,-696 280,-696 280,4 -4,4"/>
<!-- Node1 -->
<g id="node1" class="node">
<title>Node1</title>
<g id="a_node1"><a xlink:title="Linear feed&#45;forward equalizer.">
<polygon fill="#bfbfbf" stroke="black" points="90,-94.5 90,-184.5 175,-184.5 175,-94.5 90,-94.5"/>
<text text-anchor="middle" x="132.5" y="-172.5" font-family="Helvetica,sans-Serif" font-size="10.00">FFE</text>
<polyline fill="none" stroke="black" points="90,-165.5 175,-165.5 "/>
<text text-anchor="start" x="98" y="-153.5" font-family="Helvetica,sans-Serif" font-size="10.00">+ Td</text>
<text text-anchor="start" x="98" y="-142.5" font-family="Helvetica,sans-Serif" font-size="10.00">+ taps</text>
<text text-anchor="start" x="98" y="-131.5" font-family="Helvetica,sans-Serif" font-size="10.00">+ PC</text>
<polyline fill="none" stroke="black" points="90,-124.5 175,-124.5 "/>
<text text-anchor="start" x="98" y="-112.5" font-family="Helvetica,sans-Serif" font-size="10.00">+ __init__()</text>
<text text-anchor="start" x="98" y="-101.5" font-family="Helvetica,sans-Serif" font-size="10.00">+ __getitem__()</text>
</a>
</g>
</g>
<!-- Node4 -->
<g id="node4" class="node">
<title>Node4</title>
<g id="a_node4"><a xlink:href="classSignalIntegrity_1_1Lib_1_1SParameters_1_1Devices_1_1GaussianRisetimeFilter_1_1GaussianRisetimeFilter.xhtml" target="_top" xlink:title=" ">
<polygon fill="white" stroke="black" points="0,-0.5 0,-57.5 119,-57.5 119,-0.5 0,-0.5"/>
<text text-anchor="middle" x="59.5" y="-45.5" font-family="Helvetica,sans-Serif" font-size="10.00">GaussianRisetimeFilter</text>
<polyline fill="none" stroke="black" points="0,-38.5 119,-38.5 "/>
<text text-anchor="middle" x="59.5" y="-26.5" font-family="Helvetica,sans-Serif" font-size="10.00"> </text>
<polyline fill="none" stroke="black" points="0,-19.5 119,-19.5 "/>
<text text-anchor="start" x="8" y="-7.5" font-family="Helvetica,sans-Serif" font-size="10.00">+ __init__()</text>
</a>
</g>
</g>
<!-- Node1&#45;&gt;Node4 -->
<g id="edge3" class="edge">
<title>Node1&#45;&gt;Node4</title>
<path fill="none" stroke="midnightblue" d="M97.07,-85.83C90.49,-76.06 83.87,-66.23 78.06,-57.59"/>
<polygon fill="none" stroke="midnightblue" points="94.32,-88.03 102.81,-94.37 100.13,-84.12 94.32,-88.03"/>
</g>
<!-- Node5 -->
<g id="node5" class="node">
<title>Node5</title>
<g id="a_node5"><a xlink:href="classSignalIntegrity_1_1Lib_1_1SParameters_1_1Devices_1_1RaisedCosineRisetimeFilter_1_1RaisedCosineRisetimeFilter.xhtml" target="_top" xlink:title=" ">
<polygon fill="white" stroke="black" points="137,-0.5 137,-57.5 276,-57.5 276,-0.5 137,-0.5"/>
<text text-anchor="middle" x="206.5" y="-45.5" font-family="Helvetica,sans-Serif" font-size="10.00">RaisedCosineRisetimeFilter</text>
<polyline fill="none" stroke="black" points="137,-38.5 276,-38.5 "/>
<text text-anchor="middle" x="206.5" y="-26.5" font-family="Helvetica,sans-Serif" font-size="10.00"> </text>
<polyline fill="none" stroke="black" points="137,-19.5 276,-19.5 "/>
<text text-anchor="start" x="145" y="-7.5" font-family="Helvetica,sans-Serif" font-size="10.00">+ __init__()</text>
</a>
</g>
</g>
<!-- Node1&#45;&gt;Node5 -->
<g id="edge4" class="edge">
<title>Node1&#45;&gt;Node5</title>
<path fill="none" stroke="midnightblue" d="M168.42,-85.83C175.08,-76.06 181.79,-66.23 187.68,-57.59"/>
<polygon fill="none" stroke="midnightblue" points="165.34,-84.14 162.6,-94.37 171.12,-88.08 165.34,-84.14"/>
</g>
<!-- Node2 -->
<g id="node2" class="node">
<title>Node2</title>
<g id="a_node2"><a xlink:href="classSignalIntegrity_1_1Lib_1_1SParameters_1_1SParameters_1_1SParameters.xhtml" target="_top" xlink:title="Class containing s&#45;parameters.">
<polygon fill="white" stroke="black" points="62.5,-221.5 62.5,-454.5 202.5,-454.5 202.5,-221.5 62.5,-221.5"/>
<text text-anchor="middle" x="132.5" y="-442.5" font-family="Helvetica,sans-Serif" font-size="10.00">SParameters</text>
<polyline fill="none" stroke="black" points="62.5,-435.5 202.5,-435.5 "/>
<text text-anchor="start" x="70.5" y="-423.5" font-family="Helvetica,sans-Serif" font-size="10.00">+ header</text>
<text text-anchor="start" x="70.5" y="-412.5" font-family="Helvetica,sans-Serif" font-size="10.00">+ m_sToken</text>
<text text-anchor="start" x="70.5" y="-401.5" font-family="Helvetica,sans-Serif" font-size="10.00">+ m_d</text>
<text text-anchor="start" x="70.5" y="-390.5" font-family="Helvetica,sans-Serif" font-size="10.00">+ m_Z0</text>
<text text-anchor="start" x="70.5" y="-379.5" font-family="Helvetica,sans-Serif" font-size="10.00">+ m_f</text>
<text text-anchor="start" x="70.5" y="-368.5" font-family="Helvetica,sans-Serif" font-size="10.00">+ m_P</text>
<text text-anchor="start" x="70.5" y="-357.5" font-family="Helvetica,sans-Serif" font-size="10.00">+ maxTokensOnLine</text>
<text text-anchor="start" x="70.5" y="-346.5" font-family="Helvetica,sans-Serif" font-size="10.00">+ numDigits</text>
<polyline fill="none" stroke="black" points="62.5,-339.5 202.5,-339.5 "/>
<text text-anchor="start" x="70.5" y="-327.5" font-family="Helvetica,sans-Serif" font-size="10.00">+ __init__()</text>
<text text-anchor="start" x="70.5" y="-316.5" font-family="Helvetica,sans-Serif" font-size="10.00">+ __getitem__()</text>
<text text-anchor="start" x="70.5" y="-305.5" font-family="Helvetica,sans-Serif" font-size="10.00">+ __len__()</text>
<text text-anchor="start" x="70.5" y="-294.5" font-family="Helvetica,sans-Serif" font-size="10.00">+ f()</text>
<text text-anchor="start" x="70.5" y="-283.5" font-family="Helvetica,sans-Serif" font-size="10.00">+ Response()</text>
<text text-anchor="start" x="70.5" y="-272.5" font-family="Helvetica,sans-Serif" font-size="10.00">+ FrequencyResponse()</text>
<text text-anchor="start" x="70.5" y="-261.5" font-family="Helvetica,sans-Serif" font-size="10.00">+ Text()</text>
<text text-anchor="start" x="70.5" y="-250.5" font-family="Helvetica,sans-Serif" font-size="10.00">+ WriteToFile()</text>
<text text-anchor="start" x="70.5" y="-239.5" font-family="Helvetica,sans-Serif" font-size="10.00">+ Resample()</text>
<text text-anchor="start" x="70.5" y="-228.5" font-family="Helvetica,sans-Serif" font-size="10.00">+ SetReferenceImpedance()</text>
</a>
</g>
</g>
<!-- Node2&#45;&gt;Node1 -->
<g id="edge1" class="edge">
<title>Node2&#45;&gt;Node1</title>
<path fill="none" stroke="midnightblue" d="M132.5,-211.15C132.5,-201.94 132.5,-193.08 132.5,-184.93"/>
<polygon fill="none" stroke="midnightblue" points="129,-211.27 132.5,-221.27 136,-211.27 129,-211.27"/>
</g>
<!-- Node3 -->
<g id="node3" class="node">
<title>Node3</title>
<g id="a_node3"><a xlink:href="classSignalIntegrity_1_1Lib_1_1SParameters_1_1SParameterManipulation_1_1SParameterManipulation.xhtml" target="_top" xlink:title="Class for manipulations on s&#45;parameters involving passivity, causality, etc.">
<polygon fill="white" stroke="black" points="40,-491.5 40,-691.5 225,-691.5 225,-491.5 40,-491.5"/>
<text text-anchor="middle" x="132.5" y="-679.5" font-family="Helvetica,sans-Serif" font-size="10.00">SParameterManipulation</text>
<polyline fill="none" stroke="black" points="40,-672.5 225,-672.5 "/>
<text text-anchor="middle" x="132.5" y="-660.5" font-family="Helvetica,sans-Serif" font-size="10.00"> </text>
<polyline fill="none" stroke="black" points="40,-653.5 225,-653.5 "/>
<text text-anchor="start" x="48" y="-641.5" font-family="Helvetica,sans-Serif" font-size="10.00">+ ResampleToEvenlySpaced()</text>
<text text-anchor="start" x="48" y="-630.5" font-family="Helvetica,sans-Serif" font-size="10.00">+ ResampleToUnevenlySpaced()</text>
<text text-anchor="start" x="48" y="-619.5" font-family="Helvetica,sans-Serif" font-size="10.00">+ EnforcePassivity()</text>
<text text-anchor="start" x="48" y="-608.5" font-family="Helvetica,sans-Serif" font-size="10.00">+ IsCausal()</text>
<text text-anchor="start" x="48" y="-597.5" font-family="Helvetica,sans-Serif" font-size="10.00">+ EnforceCausality()</text>
<text text-anchor="start" x="48" y="-586.5" font-family="Helvetica,sans-Serif" font-size="10.00">+ WaveletDenoise()</text>
<text text-anchor="start" x="48" y="-575.5" font-family="Helvetica,sans-Serif" font-size="10.00">+ PortReorder()</text>
<text text-anchor="start" x="48" y="-564.5" font-family="Helvetica,sans-Serif" font-size="10.00">+ DetermineImpulseResponse</text>
<text text-anchor="start" x="48" y="-553.5" font-family="Helvetica,sans-Serif" font-size="10.00">Length()</text>
<text text-anchor="start" x="48" y="-542.5" font-family="Helvetica,sans-Serif" font-size="10.00">+ LimitImpulseResponseLength()</text>
<text text-anchor="start" x="48" y="-531.5" font-family="Helvetica,sans-Serif" font-size="10.00">+ EnforceReciprocity()</text>
<text text-anchor="start" x="48" y="-520.5" font-family="Helvetica,sans-Serif" font-size="10.00">+ EnforceBothPassivityAndCausality()</text>
<text text-anchor="start" x="48" y="-509.5" font-family="Helvetica,sans-Serif" font-size="10.00">+ EnforceAll()</text>
<text text-anchor="start" x="48" y="-498.5" font-family="Helvetica,sans-Serif" font-size="10.00">+ RemoveImpulseResponseOffset()</text>
</a>
</g>
</g>
<!-- Node3&#45;&gt;Node2 -->
<g id="edge2" class="edge">
<title>Node3&#45;&gt;Node2</title>
<path fill="none" stroke="midnightblue" d="M132.5,-481.18C132.5,-472.38 132.5,-463.46 132.5,-454.61"/>
<polygon fill="none" stroke="midnightblue" points="129,-481.46 132.5,-491.46 136,-481.46 129,-481.46"/>
</g>
</g>
</svg>
