<?xml version="1.0" encoding="UTF-8" standalone="no"?>
<!DOCTYPE svg PUBLIC "-//W3C//DTD SVG 1.1//EN"
 "http://www.w3.org/Graphics/SVG/1.1/DTD/svg11.dtd">
<!-- Generated by graphviz version 2.43.0 (0)
 -->
<!-- Title: VirtualProbeSymbolic Pages: 1 -->
<svg width="318pt" height="904pt"
 viewBox="0.00 0.00 317.50 904.00" xmlns="http://www.w3.org/2000/svg" xmlns:xlink="http://www.w3.org/1999/xlink">
<g id="graph0" class="graph" transform="scale(1 1) rotate(0) translate(4 900)">
<title>VirtualProbeSymbolic</title>
<polygon fill="white" stroke="transparent" points="-4,4 -4,-900 313.5,-900 313.5,4 -4,4"/>
<!-- Node1 -->
<g id="node1" class="node">
<title>Node1</title>
<g id="a_node1"><a xlink:title=" ">
<polygon fill="#bfbfbf" stroke="black" points="91,-0.5 91,-79.5 213,-79.5 213,-0.5 91,-0.5"/>
<text text-anchor="middle" x="152" y="-67.5" font-family="Helvetica,sans-Serif" font-size="10.00">VirtualProbeSymbolic</text>
<polyline fill="none" stroke="black" points="91,-60.5 213,-60.5 "/>
<text text-anchor="middle" x="152" y="-48.5" font-family="Helvetica,sans-Serif" font-size="10.00"> </text>
<polyline fill="none" stroke="black" points="91,-41.5 213,-41.5 "/>
<text text-anchor="start" x="99" y="-29.5" font-family="Helvetica,sans-Serif" font-size="10.00">+ __init__()</text>
<text text-anchor="start" x="99" y="-18.5" font-family="Helvetica,sans-Serif" font-size="10.00">+ LaTeXTransferMatrix()</text>
<text text-anchor="start" x="99" y="-7.5" font-family="Helvetica,sans-Serif" font-size="10.00">+ LaTeXEquations()</text>
</a>
</g>
</g>
<!-- Node2 -->
<g id="node2" class="node">
<title>Node2</title>
<g id="a_node2"><a xlink:href="classSignalIntegrity_1_1Lib_1_1SystemDescriptions_1_1SystemSParametersSymbolic_1_1SystemSParametersSymbolic.xhtml" target="_top" xlink:title="Class for solving symbolically the s&#45;parameters of interconnected systems.">
<polygon fill="white" stroke="black" points="4,-144 4,-212 152,-212 152,-144 4,-144"/>
<text text-anchor="middle" x="78" y="-200" font-family="Helvetica,sans-Serif" font-size="10.00">SystemSParametersSymbolic</text>
<polyline fill="none" stroke="black" points="4,-193 152,-193 "/>
<text text-anchor="middle" x="78" y="-181" font-family="Helvetica,sans-Serif" font-size="10.00"> </text>
<polyline fill="none" stroke="black" points="4,-174 152,-174 "/>
<text text-anchor="start" x="12" y="-162" font-family="Helvetica,sans-Serif" font-size="10.00">+ __init__()</text>
<text text-anchor="start" x="12" y="-151" font-family="Helvetica,sans-Serif" font-size="10.00">+ LaTeXSolution()</text>
</a>
</g>
</g>
<!-- Node2&#45;&gt;Node1 -->
<g id="edge1" class="edge">
<title>Node2&#45;&gt;Node1</title>
<path fill="none" stroke="midnightblue" d="M100.96,-134.81C110.53,-117.21 121.58,-96.92 130.94,-79.71"/>
<polygon fill="none" stroke="midnightblue" points="97.81,-133.27 96.1,-143.73 103.96,-136.62 97.81,-133.27"/>
</g>
<!-- Node3 -->
<g id="node3" class="node">
<title>Node3</title>
<g id="a_node3"><a xlink:href="classSignalIntegrity_1_1Lib_1_1SystemDescriptions_1_1SystemDescriptionSymbolic_1_1SystemDescriptionSymbolic.xhtml" target="_top" xlink:title="Solves system descriptions in the most basic manner common to all of the simulation,...">
<polygon fill="white" stroke="black" points="0,-326 0,-394 140,-394 140,-326 0,-326"/>
<text text-anchor="middle" x="70" y="-382" font-family="Helvetica,sans-Serif" font-size="10.00">SystemDescriptionSymbolic</text>
<polyline fill="none" stroke="black" points="0,-375 140,-375 "/>
<text text-anchor="middle" x="70" y="-363" font-family="Helvetica,sans-Serif" font-size="10.00"> </text>
<polyline fill="none" stroke="black" points="0,-356 140,-356 "/>
<text text-anchor="start" x="8" y="-344" font-family="Helvetica,sans-Serif" font-size="10.00">+ __init__()</text>
<text text-anchor="start" x="8" y="-333" font-family="Helvetica,sans-Serif" font-size="10.00">+ LaTeXSystemEquation()</text>
</a>
</g>
</g>
<!-- Node3&#45;&gt;Node2 -->
<g id="edge2" class="edge">
<title>Node3&#45;&gt;Node2</title>
<path fill="none" stroke="midnightblue" d="M71.93,-315.64C73.34,-283.81 75.23,-241.23 76.53,-212.11"/>
<polygon fill="none" stroke="midnightblue" points="68.41,-315.84 71.47,-325.99 75.41,-316.15 68.41,-315.84"/>
</g>
<!-- Node4 -->
<g id="node4" class="node">
<title>Node4</title>
<g id="a_node4"><a xlink:href="classSignalIntegrity_1_1Lib_1_1SystemDescriptions_1_1SystemSParameters_1_1SystemSParameters.xhtml" target="_top" xlink:title="base class for housekeeping involving system s&#45;parameters calculations">
<polygon fill="white" stroke="black" points="160.5,-524.5 160.5,-647.5 267.5,-647.5 267.5,-524.5 160.5,-524.5"/>
<text text-anchor="middle" x="214" y="-635.5" font-family="Helvetica,sans-Serif" font-size="10.00">SystemSParameters</text>
<polyline fill="none" stroke="black" points="160.5,-628.5 267.5,-628.5 "/>
<text text-anchor="middle" x="214" y="-616.5" font-family="Helvetica,sans-Serif" font-size="10.00"> </text>
<polyline fill="none" stroke="black" points="160.5,-609.5 267.5,-609.5 "/>
<text text-anchor="start" x="168.5" y="-597.5" font-family="Helvetica,sans-Serif" font-size="10.00">+ __init__()</text>
<text text-anchor="start" x="168.5" y="-586.5" font-family="Helvetica,sans-Serif" font-size="10.00">+ PortANames()</text>
<text text-anchor="start" x="168.5" y="-575.5" font-family="Helvetica,sans-Serif" font-size="10.00">+ PortBNames()</text>
<text text-anchor="start" x="168.5" y="-564.5" font-family="Helvetica,sans-Serif" font-size="10.00">+ OtherNames()</text>
<text text-anchor="start" x="168.5" y="-553.5" font-family="Helvetica,sans-Serif" font-size="10.00">+ NodeVector()</text>
<text text-anchor="start" x="168.5" y="-542.5" font-family="Helvetica,sans-Serif" font-size="10.00">+ StimulusVector()</text>
<text text-anchor="start" x="168.5" y="-531.5" font-family="Helvetica,sans-Serif" font-size="10.00"># WeightsMatrix()</text>
</a>
</g>
</g>
<!-- Node4&#45;&gt;Node3 -->
<g id="edge3" class="edge">
<title>Node4&#45;&gt;Node3</title>
<path fill="none" stroke="midnightblue" d="M169.57,-515.89C143.57,-475.44 111.91,-426.19 91.37,-394.25"/>
<polygon fill="none" stroke="midnightblue" points="166.68,-517.86 175.03,-524.38 172.57,-514.08 166.68,-517.86"/>
</g>
<!-- Node8 -->
<g id="node8" class="node">
<title>Node8</title>
<g id="a_node8"><a xlink:href="classSignalIntegrity_1_1Lib_1_1SystemDescriptions_1_1Simulator_1_1Simulator.xhtml" target="_top" xlink:title="Base class for dealing with housekeeping for simulations.">
<polygon fill="white" stroke="black" points="158.5,-276.5 158.5,-443.5 309.5,-443.5 309.5,-276.5 158.5,-276.5"/>
<text text-anchor="middle" x="234" y="-431.5" font-family="Helvetica,sans-Serif" font-size="10.00">Simulator</text>
<polyline fill="none" stroke="black" points="158.5,-424.5 309.5,-424.5 "/>
<text text-anchor="start" x="166.5" y="-412.5" font-family="Helvetica,sans-Serif" font-size="10.00">+ m_ol</text>
<polyline fill="none" stroke="black" points="158.5,-405.5 309.5,-405.5 "/>
<text text-anchor="start" x="166.5" y="-393.5" font-family="Helvetica,sans-Serif" font-size="10.00">+ __init__()</text>
<text text-anchor="start" x="166.5" y="-382.5" font-family="Helvetica,sans-Serif" font-size="10.00">+ Check()</text>
<text text-anchor="start" x="166.5" y="-371.5" font-family="Helvetica,sans-Serif" font-size="10.00">+ pOutputList()</text>
<text text-anchor="start" x="166.5" y="-360.5" font-family="Helvetica,sans-Serif" font-size="10.00">+ pOutputList()</text>
<text text-anchor="start" x="166.5" y="-349.5" font-family="Helvetica,sans-Serif" font-size="10.00">+ AddVoltageSource()</text>
<text text-anchor="start" x="166.5" y="-338.5" font-family="Helvetica,sans-Serif" font-size="10.00">+ AddCurrentSource()</text>
<text text-anchor="start" x="166.5" y="-327.5" font-family="Helvetica,sans-Serif" font-size="10.00">+ SourceVector()</text>
<text text-anchor="start" x="166.5" y="-316.5" font-family="Helvetica,sans-Serif" font-size="10.00">+ SourceToStimsPrimeMatrix()</text>
<text text-anchor="start" x="166.5" y="-305.5" font-family="Helvetica,sans-Serif" font-size="10.00">+ StimsPrime()</text>
<text text-anchor="start" x="166.5" y="-294.5" font-family="Helvetica,sans-Serif" font-size="10.00">+ SIPrime()</text>
<text text-anchor="start" x="166.5" y="-283.5" font-family="Helvetica,sans-Serif" font-size="10.00">+ VoltageExtractionMatrix()</text>
</a>
</g>
</g>
<!-- Node4&#45;&gt;Node8 -->
<g id="edge8" class="edge">
<title>Node4&#45;&gt;Node8</title>
<path fill="none" stroke="midnightblue" d="M220.32,-514.26C222.32,-491.79 224.56,-466.75 226.63,-443.53"/>
<polygon fill="none" stroke="midnightblue" points="216.82,-514.11 219.41,-524.38 223.79,-514.73 216.82,-514.11"/>
</g>
<!-- Node5 -->
<g id="node5" class="node">
<title>Node5</title>
<g id="a_node5"><a xlink:href="classSignalIntegrity_1_1Lib_1_1SystemDescriptions_1_1SystemDescription_1_1SystemDescription.xhtml" target="_top" xlink:title="Allows the construction of system descriptions for use with all of the classes that solve schematics ...">
<polygon fill="white" stroke="black" points="155,-728.5 155,-895.5 273,-895.5 273,-728.5 155,-728.5"/>
<text text-anchor="middle" x="214" y="-883.5" font-family="Helvetica,sans-Serif" font-size="10.00">SystemDescription</text>
<polyline fill="none" stroke="black" points="155,-876.5 273,-876.5 "/>
<text text-anchor="start" x="163" y="-864.5" font-family="Helvetica,sans-Serif" font-size="10.00">+ m_UniqueDevice</text>
<text text-anchor="start" x="163" y="-853.5" font-family="Helvetica,sans-Serif" font-size="10.00">+ m_UniqueNode</text>
<polyline fill="none" stroke="black" points="155,-846.5 273,-846.5 "/>
<text text-anchor="start" x="163" y="-834.5" font-family="Helvetica,sans-Serif" font-size="10.00">+ __init__()</text>
<text text-anchor="start" x="163" y="-823.5" font-family="Helvetica,sans-Serif" font-size="10.00">+ AddDevice()</text>
<text text-anchor="start" x="163" y="-812.5" font-family="Helvetica,sans-Serif" font-size="10.00">+ AssignM()</text>
<text text-anchor="start" x="163" y="-801.5" font-family="Helvetica,sans-Serif" font-size="10.00">+ DeviceNames()</text>
<text text-anchor="start" x="163" y="-790.5" font-family="Helvetica,sans-Serif" font-size="10.00">+ IndexOfDevice()</text>
<text text-anchor="start" x="163" y="-779.5" font-family="Helvetica,sans-Serif" font-size="10.00">+ CheckConnections()</text>
<text text-anchor="start" x="163" y="-768.5" font-family="Helvetica,sans-Serif" font-size="10.00">+ ConnectDevicePort()</text>
<text text-anchor="start" x="163" y="-757.5" font-family="Helvetica,sans-Serif" font-size="10.00">+ AddPort()</text>
<text text-anchor="start" x="163" y="-746.5" font-family="Helvetica,sans-Serif" font-size="10.00">+ AssignSParameters()</text>
<text text-anchor="start" x="163" y="-735.5" font-family="Helvetica,sans-Serif" font-size="10.00">+ Print()</text>
</a>
</g>
</g>
<!-- Node5&#45;&gt;Node4 -->
<g id="edge4" class="edge">
<title>Node5&#45;&gt;Node4</title>
<path fill="none" stroke="midnightblue" d="M214,-718.13C214,-694.36 214,-669.41 214,-647.73"/>
<polygon fill="none" stroke="midnightblue" points="210.5,-718.23 214,-728.23 217.5,-718.23 210.5,-718.23"/>
</g>
<!-- Node6 -->
<g id="node6" class="node">
<title>Node6</title>
<g id="a_node6"><a xlink:href="classSignalIntegrity_1_1Lib_1_1SystemDescriptions_1_1Symbolic_1_1Symbolic.xhtml" target="_top" xlink:title="base class for all symbolic solutions.">
<polygon fill="white" stroke="black" points="18,-480.5 18,-691.5 122,-691.5 122,-480.5 18,-480.5"/>
<text text-anchor="middle" x="70" y="-679.5" font-family="Helvetica,sans-Serif" font-size="10.00">Symbolic</text>
<polyline fill="none" stroke="black" points="18,-672.5 122,-672.5 "/>
<text text-anchor="start" x="26" y="-660.5" font-family="Helvetica,sans-Serif" font-size="10.00">+ m_lines</text>
<text text-anchor="start" x="26" y="-649.5" font-family="Helvetica,sans-Serif" font-size="10.00">+ m_docStart</text>
<text text-anchor="start" x="26" y="-638.5" font-family="Helvetica,sans-Serif" font-size="10.00">+ m_docEnd</text>
<text text-anchor="start" x="26" y="-627.5" font-family="Helvetica,sans-Serif" font-size="10.00">+ m_eqPrefix</text>
<text text-anchor="start" x="26" y="-616.5" font-family="Helvetica,sans-Serif" font-size="10.00">+ m_eqSuffix</text>
<text text-anchor="start" x="26" y="-605.5" font-family="Helvetica,sans-Serif" font-size="10.00">+ m_identity</text>
<text text-anchor="start" x="26" y="-594.5" font-family="Helvetica,sans-Serif" font-size="10.00">+ m_eqEnvironment</text>
<text text-anchor="start" x="26" y="-583.5" font-family="Helvetica,sans-Serif" font-size="10.00">+ m_small</text>
<polyline fill="none" stroke="black" points="18,-576.5 122,-576.5 "/>
<text text-anchor="start" x="26" y="-564.5" font-family="Helvetica,sans-Serif" font-size="10.00">+ __init__()</text>
<text text-anchor="start" x="26" y="-553.5" font-family="Helvetica,sans-Serif" font-size="10.00">+ Clear()</text>
<text text-anchor="start" x="26" y="-542.5" font-family="Helvetica,sans-Serif" font-size="10.00">+ Emit()</text>
<text text-anchor="start" x="26" y="-531.5" font-family="Helvetica,sans-Serif" font-size="10.00">+ DocStart()</text>
<text text-anchor="start" x="26" y="-520.5" font-family="Helvetica,sans-Serif" font-size="10.00">+ DocEnd()</text>
<text text-anchor="start" x="26" y="-509.5" font-family="Helvetica,sans-Serif" font-size="10.00">+ WriteToFile()</text>
<text text-anchor="start" x="26" y="-498.5" font-family="Helvetica,sans-Serif" font-size="10.00">+ Get()</text>
<text text-anchor="start" x="26" y="-487.5" font-family="Helvetica,sans-Serif" font-size="10.00">+ InstallSafeTees()</text>
</a>
</g>
</g>
<!-- Node6&#45;&gt;Node3 -->
<g id="edge5" class="edge">
<title>Node6&#45;&gt;Node3</title>
<path fill="none" stroke="midnightblue" d="M70,-469.96C70,-442.13 70,-414.56 70,-394.11"/>
<polygon fill="none" stroke="midnightblue" points="66.5,-470.21 70,-480.21 73.5,-470.21 66.5,-470.21"/>
</g>
<!-- Node7 -->
<g id="node7" class="node">
<title>Node7</title>
<g id="a_node7"><a xlink:href="classSignalIntegrity_1_1Lib_1_1SystemDescriptions_1_1VirtualProbe_1_1VirtualProbe.xhtml" target="_top" xlink:title="Base class for virtual probing.">
<polygon fill="white" stroke="black" points="174,-116.5 174,-239.5 286,-239.5 286,-116.5 174,-116.5"/>
<text text-anchor="middle" x="230" y="-227.5" font-family="Helvetica,sans-Serif" font-size="10.00">VirtualProbe</text>
<polyline fill="none" stroke="black" points="174,-220.5 286,-220.5 "/>
<text text-anchor="start" x="182" y="-208.5" font-family="Helvetica,sans-Serif" font-size="10.00">+ m_ml</text>
<text text-anchor="start" x="182" y="-197.5" font-family="Helvetica,sans-Serif" font-size="10.00">+ m_D</text>
<polyline fill="none" stroke="black" points="174,-190.5 286,-190.5 "/>
<text text-anchor="start" x="182" y="-178.5" font-family="Helvetica,sans-Serif" font-size="10.00">+ __init__()</text>
<text text-anchor="start" x="182" y="-167.5" font-family="Helvetica,sans-Serif" font-size="10.00">+ Check()</text>
<text text-anchor="start" x="182" y="-156.5" font-family="Helvetica,sans-Serif" font-size="10.00">+ pMeasurementList()</text>
<text text-anchor="start" x="182" y="-145.5" font-family="Helvetica,sans-Serif" font-size="10.00">+ pMeasurementList()</text>
<text text-anchor="start" x="182" y="-134.5" font-family="Helvetica,sans-Serif" font-size="10.00">+ pStimDef()</text>
<text text-anchor="start" x="182" y="-123.5" font-family="Helvetica,sans-Serif" font-size="10.00">+ pStimDef()</text>
</a>
</g>
</g>
<!-- Node7&#45;&gt;Node1 -->
<g id="edge6" class="edge">
<title>Node7&#45;&gt;Node1</title>
<path fill="none" stroke="midnightblue" d="M190.07,-107.38C184.58,-97.8 179.11,-88.27 174.1,-79.54"/>
<polygon fill="none" stroke="midnightblue" points="187.1,-109.23 195.11,-116.16 193.17,-105.74 187.1,-109.23"/>
</g>
<!-- Node8&#45;&gt;Node7 -->
<g id="edge7" class="edge">
<title>Node8&#45;&gt;Node7</title>
<path fill="none" stroke="midnightblue" d="M231.94,-266.19C231.74,-257.17 231.54,-248.19 231.35,-239.61"/>
<polygon fill="none" stroke="midnightblue" points="228.44,-266.46 232.16,-276.38 235.44,-266.3 228.44,-266.46"/>
</g>
</g>
</svg>
