<?xml version="1.0" encoding="UTF-8" standalone="no"?>
<!DOCTYPE svg PUBLIC "-//W3C//DTD SVG 1.1//EN"
 "http://www.w3.org/Graphics/SVG/1.1/DTD/svg11.dtd">
<!-- Generated by graphviz version 2.40.1 (20161225.0304)
 -->
<!-- Title: SimulatorSymbolic Pages: 1 -->
<svg width="326pt" height="849pt"
 viewBox="0.00 0.00 326.00 849.00" xmlns="http://www.w3.org/2000/svg" xmlns:xlink="http://www.w3.org/1999/xlink">
<g id="graph0" class="graph" transform="scale(1 1) rotate(0) translate(4 845)">
<title>SimulatorSymbolic</title>
<polygon fill="#ffffff" stroke="transparent" points="-4,4 -4,-845 322,-845 322,4 -4,4"/>
<!-- Node0 -->
<g id="node1" class="node">
<title>Node0</title>
<polygon fill="#bfbfbf" stroke="#000000" points="96.5,-.5 96.5,-79.5 219.5,-79.5 219.5,-.5 96.5,-.5"/>
<text text-anchor="middle" x="158" y="-67.5" font-family="Helvetica,sans-Serif" font-size="10.00" fill="#000000">SimulatorSymbolic</text>
<polyline fill="none" stroke="#000000" points="96.5,-60.5 219.5,-60.5 "/>
<text text-anchor="middle" x="158" y="-48.5" font-family="Helvetica,sans-Serif" font-size="10.00" fill="#000000"> </text>
<polyline fill="none" stroke="#000000" points="96.5,-41.5 219.5,-41.5 "/>
<text text-anchor="start" x="104.5" y="-29.5" font-family="Helvetica,sans-Serif" font-size="10.00" fill="#000000">+ __init__()</text>
<text text-anchor="start" x="104.5" y="-18.5" font-family="Helvetica,sans-Serif" font-size="10.00" fill="#000000">+ LaTeXTransferMatrix()</text>
<text text-anchor="start" x="104.5" y="-7.5" font-family="Helvetica,sans-Serif" font-size="10.00" fill="#000000">+ LaTeXEquations()</text>
</g>
<!-- Node1 -->
<g id="node2" class="node">
<title>Node1</title>
<g id="a_node2"><a xlink:href="classSignalIntegrity_1_1SystemDescriptions_1_1SystemSParametersSymbolic_1_1SystemSParametersSymbolic.xhtml" target="_top" xlink:title="Class for solving symbolically the s&#45;parameters of interconnected systems. ">
<polygon fill="#ffffff" stroke="#000000" points="0,-166 0,-234 148,-234 148,-166 0,-166"/>
<text text-anchor="middle" x="74" y="-222" font-family="Helvetica,sans-Serif" font-size="10.00" fill="#000000">SystemSParametersSymbolic</text>
<polyline fill="none" stroke="#000000" points="0,-215 148,-215 "/>
<text text-anchor="middle" x="74" y="-203" font-family="Helvetica,sans-Serif" font-size="10.00" fill="#000000"> </text>
<polyline fill="none" stroke="#000000" points="0,-196 148,-196 "/>
<text text-anchor="start" x="8" y="-184" font-family="Helvetica,sans-Serif" font-size="10.00" fill="#000000">+ __init__()</text>
<text text-anchor="start" x="8" y="-173" font-family="Helvetica,sans-Serif" font-size="10.00" fill="#000000">+ LaTeXSolution()</text>
</a>
</g>
</g>
<!-- Node1&#45;&gt;Node0 -->
<g id="edge1" class="edge">
<title>Node1&#45;&gt;Node0</title>
<path fill="none" stroke="#191970" d="M96.6969,-156.7678C109.3129,-132.7373 124.8986,-103.0502 137.1976,-79.6236"/>
<polygon fill="none" stroke="#191970" points="93.5696,-155.1951 92.0201,-165.676 99.7674,-158.4489 93.5696,-155.1951"/>
</g>
<!-- Node2 -->
<g id="node3" class="node">
<title>Node2</title>
<g id="a_node3"><a xlink:href="classSignalIntegrity_1_1SystemDescriptions_1_1SystemDescriptionSymbolic_1_1SystemDescriptionSymbolic.xhtml" target="_top" xlink:title="Solves system descriptions in the most basic manner common to all of the simulation, system s&#45;parameters, deembedding and virtual probing applications. ">
<polygon fill="#ffffff" stroke="#000000" points="15,-320.5 15,-388.5 155,-388.5 155,-320.5 15,-320.5"/>
<text text-anchor="middle" x="85" y="-376.5" font-family="Helvetica,sans-Serif" font-size="10.00" fill="#000000">SystemDescriptionSymbolic</text>
<polyline fill="none" stroke="#000000" points="15,-369.5 155,-369.5 "/>
<text text-anchor="middle" x="85" y="-357.5" font-family="Helvetica,sans-Serif" font-size="10.00" fill="#000000"> </text>
<polyline fill="none" stroke="#000000" points="15,-350.5 155,-350.5 "/>
<text text-anchor="start" x="23" y="-338.5" font-family="Helvetica,sans-Serif" font-size="10.00" fill="#000000">+ __init__()</text>
<text text-anchor="start" x="23" y="-327.5" font-family="Helvetica,sans-Serif" font-size="10.00" fill="#000000">+ LaTeXSystemEquation()</text>
</a>
</g>
</g>
<!-- Node2&#45;&gt;Node1 -->
<g id="edge2" class="edge">
<title>Node2&#45;&gt;Node1</title>
<path fill="none" stroke="#191970" d="M81.8469,-310.2136C80.1261,-286.044 78.028,-256.5754 76.4344,-234.1927"/>
<polygon fill="none" stroke="#191970" points="78.3573,-310.4853 82.5587,-320.2114 85.3396,-309.9881 78.3573,-310.4853"/>
</g>
<!-- Node3 -->
<g id="node4" class="node">
<title>Node3</title>
<g id="a_node4"><a xlink:href="classSignalIntegrity_1_1SystemDescriptions_1_1SystemSParameters_1_1SystemSParameters.xhtml" target="_top" xlink:title="base class for housekeeping involving system s&#45;parameters calculations ">
<polygon fill="#ffffff" stroke="#000000" points="177.5,-469.5 177.5,-592.5 284.5,-592.5 284.5,-469.5 177.5,-469.5"/>
<text text-anchor="middle" x="231" y="-580.5" font-family="Helvetica,sans-Serif" font-size="10.00" fill="#000000">SystemSParameters</text>
<polyline fill="none" stroke="#000000" points="177.5,-573.5 284.5,-573.5 "/>
<text text-anchor="middle" x="231" y="-561.5" font-family="Helvetica,sans-Serif" font-size="10.00" fill="#000000"> </text>
<polyline fill="none" stroke="#000000" points="177.5,-554.5 284.5,-554.5 "/>
<text text-anchor="start" x="185.5" y="-542.5" font-family="Helvetica,sans-Serif" font-size="10.00" fill="#000000">+ __init__()</text>
<text text-anchor="start" x="185.5" y="-531.5" font-family="Helvetica,sans-Serif" font-size="10.00" fill="#000000">+ PortANames()</text>
<text text-anchor="start" x="185.5" y="-520.5" font-family="Helvetica,sans-Serif" font-size="10.00" fill="#000000">+ PortBNames()</text>
<text text-anchor="start" x="185.5" y="-509.5" font-family="Helvetica,sans-Serif" font-size="10.00" fill="#000000">+ OtherNames()</text>
<text text-anchor="start" x="185.5" y="-498.5" font-family="Helvetica,sans-Serif" font-size="10.00" fill="#000000">+ NodeVector()</text>
<text text-anchor="start" x="185.5" y="-487.5" font-family="Helvetica,sans-Serif" font-size="10.00" fill="#000000">+ StimulusVector()</text>
<text text-anchor="start" x="185.5" y="-476.5" font-family="Helvetica,sans-Serif" font-size="10.00" fill="#000000"># WeightsMatrix()</text>
</a>
</g>
</g>
<!-- Node3&#45;&gt;Node2 -->
<g id="edge3" class="edge">
<title>Node3&#45;&gt;Node2</title>
<path fill="none" stroke="#191970" d="M175.7683,-461.3601C165.932,-449.177 155.7225,-436.6707 146,-425 136.0548,-413.062 124.9903,-400.1634 115.0446,-388.7035"/>
<polygon fill="none" stroke="#191970" points="173.1709,-463.7149 182.1694,-469.3074 178.6225,-459.3239 173.1709,-463.7149"/>
</g>
<!-- Node6 -->
<g id="node7" class="node">
<title>Node6</title>
<g id="a_node7"><a xlink:href="classSignalIntegrity_1_1SystemDescriptions_1_1Simulator_1_1Simulator.xhtml" target="_top" xlink:title="Base class for dealing with housekeeping for simulations. ">
<polygon fill="#ffffff" stroke="#000000" points="166,-116.5 166,-283.5 318,-283.5 318,-116.5 166,-116.5"/>
<text text-anchor="middle" x="242" y="-271.5" font-family="Helvetica,sans-Serif" font-size="10.00" fill="#000000">Simulator</text>
<polyline fill="none" stroke="#000000" points="166,-264.5 318,-264.5 "/>
<text text-anchor="start" x="174" y="-252.5" font-family="Helvetica,sans-Serif" font-size="10.00" fill="#000000">+ m_ol</text>
<polyline fill="none" stroke="#000000" points="166,-245.5 318,-245.5 "/>
<text text-anchor="start" x="174" y="-233.5" font-family="Helvetica,sans-Serif" font-size="10.00" fill="#000000">+ __init__()</text>
<text text-anchor="start" x="174" y="-222.5" font-family="Helvetica,sans-Serif" font-size="10.00" fill="#000000">+ Check()</text>
<text text-anchor="start" x="174" y="-211.5" font-family="Helvetica,sans-Serif" font-size="10.00" fill="#000000">+ pOutputList()</text>
<text text-anchor="start" x="174" y="-200.5" font-family="Helvetica,sans-Serif" font-size="10.00" fill="#000000">+ pOutputList()</text>
<text text-anchor="start" x="174" y="-189.5" font-family="Helvetica,sans-Serif" font-size="10.00" fill="#000000">+ AddVoltageSource()</text>
<text text-anchor="start" x="174" y="-178.5" font-family="Helvetica,sans-Serif" font-size="10.00" fill="#000000">+ AddCurrentSource()</text>
<text text-anchor="start" x="174" y="-167.5" font-family="Helvetica,sans-Serif" font-size="10.00" fill="#000000">+ SourceVector()</text>
<text text-anchor="start" x="174" y="-156.5" font-family="Helvetica,sans-Serif" font-size="10.00" fill="#000000">+ SourceToStimsPrimeMatrix()</text>
<text text-anchor="start" x="174" y="-145.5" font-family="Helvetica,sans-Serif" font-size="10.00" fill="#000000">+ StimsPrime()</text>
<text text-anchor="start" x="174" y="-134.5" font-family="Helvetica,sans-Serif" font-size="10.00" fill="#000000">+ SIPrime()</text>
<text text-anchor="start" x="174" y="-123.5" font-family="Helvetica,sans-Serif" font-size="10.00" fill="#000000">+ VoltageExtractionMatrix()</text>
</a>
</g>
</g>
<!-- Node3&#45;&gt;Node6 -->
<g id="edge7" class="edge">
<title>Node3&#45;&gt;Node6</title>
<path fill="none" stroke="#191970" d="M233.3907,-459.0629C235.1051,-407.4748 237.4198,-337.8237 239.2173,-283.7345"/>
<polygon fill="none" stroke="#191970" points="229.8903,-459.019 233.0561,-469.1297 236.8864,-459.2515 229.8903,-459.019"/>
</g>
<!-- Node4 -->
<g id="node5" class="node">
<title>Node4</title>
<g id="a_node5"><a xlink:href="classSignalIntegrity_1_1SystemDescriptions_1_1SystemDescription_1_1SystemDescription.xhtml" target="_top" xlink:title="Allows the construction of system descriptions for use with all of the classes that solve schematics ...">
<polygon fill="#ffffff" stroke="#000000" points="171.5,-673.5 171.5,-840.5 290.5,-840.5 290.5,-673.5 171.5,-673.5"/>
<text text-anchor="middle" x="231" y="-828.5" font-family="Helvetica,sans-Serif" font-size="10.00" fill="#000000">SystemDescription</text>
<polyline fill="none" stroke="#000000" points="171.5,-821.5 290.5,-821.5 "/>
<text text-anchor="start" x="179.5" y="-809.5" font-family="Helvetica,sans-Serif" font-size="10.00" fill="#000000">+ m_UniqueDevice</text>
<text text-anchor="start" x="179.5" y="-798.5" font-family="Helvetica,sans-Serif" font-size="10.00" fill="#000000">+ m_UniqueNode</text>
<polyline fill="none" stroke="#000000" points="171.5,-791.5 290.5,-791.5 "/>
<text text-anchor="start" x="179.5" y="-779.5" font-family="Helvetica,sans-Serif" font-size="10.00" fill="#000000">+ __init__()</text>
<text text-anchor="start" x="179.5" y="-768.5" font-family="Helvetica,sans-Serif" font-size="10.00" fill="#000000">+ AddDevice()</text>
<text text-anchor="start" x="179.5" y="-757.5" font-family="Helvetica,sans-Serif" font-size="10.00" fill="#000000">+ AssignM()</text>
<text text-anchor="start" x="179.5" y="-746.5" font-family="Helvetica,sans-Serif" font-size="10.00" fill="#000000">+ DeviceNames()</text>
<text text-anchor="start" x="179.5" y="-735.5" font-family="Helvetica,sans-Serif" font-size="10.00" fill="#000000">+ IndexOfDevice()</text>
<text text-anchor="start" x="179.5" y="-724.5" font-family="Helvetica,sans-Serif" font-size="10.00" fill="#000000">+ CheckConnections()</text>
<text text-anchor="start" x="179.5" y="-713.5" font-family="Helvetica,sans-Serif" font-size="10.00" fill="#000000">+ ConnectDevicePort()</text>
<text text-anchor="start" x="179.5" y="-702.5" font-family="Helvetica,sans-Serif" font-size="10.00" fill="#000000">+ AddPort()</text>
<text text-anchor="start" x="179.5" y="-691.5" font-family="Helvetica,sans-Serif" font-size="10.00" fill="#000000">+ AssignSParameters()</text>
<text text-anchor="start" x="179.5" y="-680.5" font-family="Helvetica,sans-Serif" font-size="10.00" fill="#000000">+ Print()</text>
</a>
</g>
</g>
<!-- Node4&#45;&gt;Node3 -->
<g id="edge4" class="edge">
<title>Node4&#45;&gt;Node3</title>
<path fill="none" stroke="#191970" d="M231,-663.3461C231,-639.4818 231,-614.4311 231,-592.6237"/>
<polygon fill="none" stroke="#191970" points="227.5001,-663.488 231,-673.488 234.5001,-663.4881 227.5001,-663.488"/>
</g>
<!-- Node5 -->
<g id="node6" class="node">
<title>Node5</title>
<g id="a_node6"><a xlink:href="classSignalIntegrity_1_1SystemDescriptions_1_1Symbolic_1_1Symbolic.xhtml" target="_top" xlink:title="base class for all symbolic solutions. ">
<polygon fill="#ffffff" stroke="#000000" points="33,-425.5 33,-636.5 137,-636.5 137,-425.5 33,-425.5"/>
<text text-anchor="middle" x="85" y="-624.5" font-family="Helvetica,sans-Serif" font-size="10.00" fill="#000000">Symbolic</text>
<polyline fill="none" stroke="#000000" points="33,-617.5 137,-617.5 "/>
<text text-anchor="start" x="41" y="-605.5" font-family="Helvetica,sans-Serif" font-size="10.00" fill="#000000">+ m_lines</text>
<text text-anchor="start" x="41" y="-594.5" font-family="Helvetica,sans-Serif" font-size="10.00" fill="#000000">+ m_docStart</text>
<text text-anchor="start" x="41" y="-583.5" font-family="Helvetica,sans-Serif" font-size="10.00" fill="#000000">+ m_docEnd</text>
<text text-anchor="start" x="41" y="-572.5" font-family="Helvetica,sans-Serif" font-size="10.00" fill="#000000">+ m_eqPrefix</text>
<text text-anchor="start" x="41" y="-561.5" font-family="Helvetica,sans-Serif" font-size="10.00" fill="#000000">+ m_eqSuffix</text>
<text text-anchor="start" x="41" y="-550.5" font-family="Helvetica,sans-Serif" font-size="10.00" fill="#000000">+ m_identity</text>
<text text-anchor="start" x="41" y="-539.5" font-family="Helvetica,sans-Serif" font-size="10.00" fill="#000000">+ m_eqEnvironment</text>
<text text-anchor="start" x="41" y="-528.5" font-family="Helvetica,sans-Serif" font-size="10.00" fill="#000000">+ m_small</text>
<polyline fill="none" stroke="#000000" points="33,-521.5 137,-521.5 "/>
<text text-anchor="start" x="41" y="-509.5" font-family="Helvetica,sans-Serif" font-size="10.00" fill="#000000">+ __init__()</text>
<text text-anchor="start" x="41" y="-498.5" font-family="Helvetica,sans-Serif" font-size="10.00" fill="#000000">+ Clear()</text>
<text text-anchor="start" x="41" y="-487.5" font-family="Helvetica,sans-Serif" font-size="10.00" fill="#000000">+ Emit()</text>
<text text-anchor="start" x="41" y="-476.5" font-family="Helvetica,sans-Serif" font-size="10.00" fill="#000000">+ DocStart()</text>
<text text-anchor="start" x="41" y="-465.5" font-family="Helvetica,sans-Serif" font-size="10.00" fill="#000000">+ DocEnd()</text>
<text text-anchor="start" x="41" y="-454.5" font-family="Helvetica,sans-Serif" font-size="10.00" fill="#000000">+ WriteToFile()</text>
<text text-anchor="start" x="41" y="-443.5" font-family="Helvetica,sans-Serif" font-size="10.00" fill="#000000">+ Get()</text>
<text text-anchor="start" x="41" y="-432.5" font-family="Helvetica,sans-Serif" font-size="10.00" fill="#000000">+ InstallSafeTees()</text>
</a>
</g>
</g>
<!-- Node5&#45;&gt;Node2 -->
<g id="edge5" class="edge">
<title>Node5&#45;&gt;Node2</title>
<path fill="none" stroke="#191970" d="M85,-415.1813C85,-405.6433 85,-396.583 85,-388.5114"/>
<polygon fill="none" stroke="#191970" points="81.5001,-415.2723 85,-425.2723 88.5001,-415.2724 81.5001,-415.2723"/>
</g>
<!-- Node6&#45;&gt;Node0 -->
<g id="edge6" class="edge">
<title>Node6&#45;&gt;Node0</title>
<path fill="none" stroke="#191970" d="M193.3625,-107.3572C188.3089,-97.7312 183.3868,-88.3559 178.899,-79.8076"/>
<polygon fill="none" stroke="#191970" points="190.2846,-109.0242 198.0319,-116.2512 196.4824,-105.7703 190.2846,-109.0242"/>
</g>
</g>
</svg>
