<?xml version="1.0" encoding="UTF-8" standalone="no"?>
<!DOCTYPE svg PUBLIC "-//W3C//DTD SVG 1.1//EN"
 "http://www.w3.org/Graphics/SVG/1.1/DTD/svg11.dtd">
<!-- Generated by graphviz version 2.43.0 (0)
 -->
<!-- Title: FirFilter Pages: 1 -->
<svg width="818pt" height="342pt"
 viewBox="0.00 0.00 817.50 342.00" xmlns="http://www.w3.org/2000/svg" xmlns:xlink="http://www.w3.org/1999/xlink">
<g id="graph0" class="graph" transform="scale(1 1) rotate(0) translate(4 338)">
<title>FirFilter</title>
<polygon fill="white" stroke="transparent" points="-4,4 -4,-338 813.5,-338 813.5,4 -4,4"/>
<!-- Node1 -->
<g id="node1" class="node">
<title>Node1</title>
<g id="a_node1"><a xlink:title="base filter class for all FIR filters">
<polygon fill="#bfbfbf" stroke="black" points="395.5,-105.5 395.5,-239.5 529.5,-239.5 529.5,-105.5 395.5,-105.5"/>
<text text-anchor="middle" x="462.5" y="-227.5" font-family="Helvetica,sans-Serif" font-size="10.00">FirFilter</text>
<polyline fill="none" stroke="black" points="395.5,-220.5 529.5,-220.5 "/>
<text text-anchor="start" x="403.5" y="-208.5" font-family="Helvetica,sans-Serif" font-size="10.00">+ m_fd</text>
<text text-anchor="start" x="403.5" y="-197.5" font-family="Helvetica,sans-Serif" font-size="10.00">+ m_ft</text>
<polyline fill="none" stroke="black" points="395.5,-190.5 529.5,-190.5 "/>
<text text-anchor="start" x="403.5" y="-178.5" font-family="Helvetica,sans-Serif" font-size="10.00">+ __init__()</text>
<text text-anchor="start" x="403.5" y="-167.5" font-family="Helvetica,sans-Serif" font-size="10.00">+ ProcessWaveform()</text>
<text text-anchor="start" x="403.5" y="-156.5" font-family="Helvetica,sans-Serif" font-size="10.00">+ FilterTaps()</text>
<text text-anchor="start" x="403.5" y="-145.5" font-family="Helvetica,sans-Serif" font-size="10.00">+ FilterDescriptor()</text>
<text text-anchor="start" x="403.5" y="-134.5" font-family="Helvetica,sans-Serif" font-size="10.00">+ FilterWaveform()</text>
<text text-anchor="start" x="403.5" y="-123.5" font-family="Helvetica,sans-Serif" font-size="10.00">+ Print()</text>
<text text-anchor="start" x="403.5" y="-112.5" font-family="Helvetica,sans-Serif" font-size="10.00">+ NormalizeUnityDCGain()</text>
</a>
</g>
</g>
<!-- Node3 -->
<g id="node3" class="node">
<title>Node3</title>
<g id="a_node3"><a xlink:href="classSignalIntegrity_1_1Lib_1_1TimeDomain_1_1Filters_1_1InterpolatorLinear_1_1FractionalDelayFilterLinear.xhtml" target="_top" xlink:title="linear fractional delay filter">
<polygon fill="white" stroke="black" points="0,-6 0,-63 133,-63 133,-6 0,-6"/>
<text text-anchor="middle" x="66.5" y="-51" font-family="Helvetica,sans-Serif" font-size="10.00">FractionalDelayFilterLinear</text>
<polyline fill="none" stroke="black" points="0,-44 133,-44 "/>
<text text-anchor="middle" x="66.5" y="-32" font-family="Helvetica,sans-Serif" font-size="10.00"> </text>
<polyline fill="none" stroke="black" points="0,-25 133,-25 "/>
<text text-anchor="start" x="8" y="-13" font-family="Helvetica,sans-Serif" font-size="10.00">+ __init__()</text>
</a>
</g>
</g>
<!-- Node1&#45;&gt;Node3 -->
<g id="edge2" class="edge">
<title>Node1&#45;&gt;Node3</title>
<path fill="none" stroke="midnightblue" d="M385.49,-149.31C320.18,-129.91 224.34,-100.05 142.5,-69 137.65,-67.16 132.66,-65.17 127.66,-63.12"/>
<polygon fill="none" stroke="midnightblue" points="384.72,-152.74 395.3,-152.22 386.7,-146.02 384.72,-152.74"/>
</g>
<!-- Node4 -->
<g id="node4" class="node">
<title>Node4</title>
<g id="a_node4"><a xlink:href="classSignalIntegrity_1_1Lib_1_1TimeDomain_1_1Filters_1_1InterpolatorLinear_1_1InterpolatorLinear.xhtml" target="_top" xlink:title="linear interpolating filter">
<polygon fill="white" stroke="black" points="151.5,-0.5 151.5,-68.5 249.5,-68.5 249.5,-0.5 151.5,-0.5"/>
<text text-anchor="middle" x="200.5" y="-56.5" font-family="Helvetica,sans-Serif" font-size="10.00">InterpolatorLinear</text>
<polyline fill="none" stroke="black" points="151.5,-49.5 249.5,-49.5 "/>
<text text-anchor="middle" x="200.5" y="-37.5" font-family="Helvetica,sans-Serif" font-size="10.00"> </text>
<polyline fill="none" stroke="black" points="151.5,-30.5 249.5,-30.5 "/>
<text text-anchor="start" x="159.5" y="-18.5" font-family="Helvetica,sans-Serif" font-size="10.00">+ __init__()</text>
<text text-anchor="start" x="159.5" y="-7.5" font-family="Helvetica,sans-Serif" font-size="10.00">+ FilterWaveform()</text>
</a>
</g>
</g>
<!-- Node1&#45;&gt;Node4 -->
<g id="edge3" class="edge">
<title>Node1&#45;&gt;Node4</title>
<path fill="none" stroke="midnightblue" d="M386.29,-134.52C347.71,-115.47 300.32,-91.56 258.5,-69 255.63,-67.45 252.7,-65.85 249.75,-64.21"/>
<polygon fill="none" stroke="midnightblue" points="384.87,-137.72 395.38,-139 387.96,-131.44 384.87,-137.72"/>
</g>
<!-- Node5 -->
<g id="node5" class="node">
<title>Node5</title>
<g id="a_node5"><a xlink:href="classSignalIntegrity_1_1Lib_1_1TimeDomain_1_1Filters_1_1InterpolatorSinX_1_1FractionalDelayFilterSinX.xhtml" target="_top" xlink:title="sinx/x fractional delay filter">
<polygon fill="white" stroke="black" points="267.5,-6 267.5,-63 395.5,-63 395.5,-6 267.5,-6"/>
<text text-anchor="middle" x="331.5" y="-51" font-family="Helvetica,sans-Serif" font-size="10.00">FractionalDelayFilterSinX</text>
<polyline fill="none" stroke="black" points="267.5,-44 395.5,-44 "/>
<text text-anchor="start" x="275.5" y="-32" font-family="Helvetica,sans-Serif" font-size="10.00">+ S</text>
<polyline fill="none" stroke="black" points="267.5,-25 395.5,-25 "/>
<text text-anchor="start" x="275.5" y="-13" font-family="Helvetica,sans-Serif" font-size="10.00">+ __init__()</text>
</a>
</g>
</g>
<!-- Node1&#45;&gt;Node5 -->
<g id="edge4" class="edge">
<title>Node1&#45;&gt;Node5</title>
<path fill="none" stroke="midnightblue" d="M391.86,-98.17C379.9,-85.75 368.17,-73.57 358.28,-63.3"/>
<polygon fill="none" stroke="midnightblue" points="389.46,-100.72 398.92,-105.49 394.5,-95.86 389.46,-100.72"/>
</g>
<!-- Node6 -->
<g id="node6" class="node">
<title>Node6</title>
<g id="a_node6"><a xlink:href="classSignalIntegrity_1_1Lib_1_1TimeDomain_1_1Filters_1_1InterpolatorSinX_1_1InterpolatorSinX.xhtml" target="_top" xlink:title="sinx/x interpolating filter">
<polygon fill="white" stroke="black" points="413.5,-0.5 413.5,-68.5 511.5,-68.5 511.5,-0.5 413.5,-0.5"/>
<text text-anchor="middle" x="462.5" y="-56.5" font-family="Helvetica,sans-Serif" font-size="10.00">InterpolatorSinX</text>
<polyline fill="none" stroke="black" points="413.5,-49.5 511.5,-49.5 "/>
<text text-anchor="start" x="421.5" y="-37.5" font-family="Helvetica,sans-Serif" font-size="10.00">+ S</text>
<polyline fill="none" stroke="black" points="413.5,-30.5 511.5,-30.5 "/>
<text text-anchor="start" x="421.5" y="-18.5" font-family="Helvetica,sans-Serif" font-size="10.00">+ __init__()</text>
<text text-anchor="start" x="421.5" y="-7.5" font-family="Helvetica,sans-Serif" font-size="10.00">+ FilterWaveform()</text>
</a>
</g>
</g>
<!-- Node1&#45;&gt;Node6 -->
<g id="edge5" class="edge">
<title>Node1&#45;&gt;Node6</title>
<path fill="none" stroke="midnightblue" d="M462.5,-95.37C462.5,-86.08 462.5,-77 462.5,-68.83"/>
<polygon fill="none" stroke="midnightblue" points="459,-95.49 462.5,-105.49 466,-95.49 459,-95.49"/>
</g>
<!-- Node7 -->
<g id="node7" class="node">
<title>Node7</title>
<g id="a_node7"><a xlink:href="classSignalIntegrity_1_1Lib_1_1TimeDomain_1_1Filters_1_1RaisedCosineFilter_1_1RaisedCosineFilter.xhtml" target="_top" xlink:title="raised cosine filter">
<polygon fill="white" stroke="black" points="529.5,-6 529.5,-63 629.5,-63 629.5,-6 529.5,-6"/>
<text text-anchor="middle" x="579.5" y="-51" font-family="Helvetica,sans-Serif" font-size="10.00">RaisedCosineFilter</text>
<polyline fill="none" stroke="black" points="529.5,-44 629.5,-44 "/>
<text text-anchor="middle" x="579.5" y="-32" font-family="Helvetica,sans-Serif" font-size="10.00"> </text>
<polyline fill="none" stroke="black" points="529.5,-25 629.5,-25 "/>
<text text-anchor="start" x="537.5" y="-13" font-family="Helvetica,sans-Serif" font-size="10.00">+ __init__()</text>
</a>
</g>
</g>
<!-- Node1&#45;&gt;Node7 -->
<g id="edge6" class="edge">
<title>Node1&#45;&gt;Node7</title>
<path fill="none" stroke="midnightblue" d="M525.89,-97.82C536.47,-85.52 546.83,-73.47 555.58,-63.3"/>
<polygon fill="none" stroke="midnightblue" points="523.15,-95.63 519.29,-105.49 528.46,-100.19 523.15,-95.63"/>
</g>
<!-- Node8 -->
<g id="node8" class="node">
<title>Node8</title>
<g id="a_node8"><a xlink:href="classSignalIntegrity_1_1Lib_1_1TimeDomain_1_1Filters_1_1Risetime_1_1Gaussian_1_1Gaussian.xhtml" target="_top" xlink:title=" ">
<polygon fill="white" stroke="black" points="648,-0.5 648,-68.5 713,-68.5 713,-0.5 648,-0.5"/>
<text text-anchor="middle" x="680.5" y="-56.5" font-family="Helvetica,sans-Serif" font-size="10.00">Gaussian</text>
<polyline fill="none" stroke="black" points="648,-49.5 713,-49.5 "/>
<text text-anchor="start" x="656" y="-37.5" font-family="Helvetica,sans-Serif" font-size="10.00">+ a2080</text>
<text text-anchor="start" x="656" y="-26.5" font-family="Helvetica,sans-Serif" font-size="10.00">+ a1090</text>
<polyline fill="none" stroke="black" points="648,-19.5 713,-19.5 "/>
<text text-anchor="start" x="656" y="-7.5" font-family="Helvetica,sans-Serif" font-size="10.00">+ __init__()</text>
</a>
</g>
</g>
<!-- Node1&#45;&gt;Node8 -->
<g id="edge7" class="edge">
<title>Node1&#45;&gt;Node8</title>
<path fill="none" stroke="midnightblue" d="M538.29,-130.57C569.91,-112.68 606.63,-90.82 638.5,-69 641.58,-66.89 644.72,-64.63 647.83,-62.3"/>
<polygon fill="none" stroke="midnightblue" points="536.51,-127.56 529.51,-135.51 539.95,-133.66 536.51,-127.56"/>
</g>
<!-- Node9 -->
<g id="node9" class="node">
<title>Node9</title>
<g id="a_node9"><a xlink:href="classSignalIntegrity_1_1Lib_1_1TimeDomain_1_1Filters_1_1Risetime_1_1RaisedCosine_1_1RaisedCosine.xhtml" target="_top" xlink:title=" ">
<polygon fill="white" stroke="black" points="731.5,-0.5 731.5,-68.5 809.5,-68.5 809.5,-0.5 731.5,-0.5"/>
<text text-anchor="middle" x="770.5" y="-56.5" font-family="Helvetica,sans-Serif" font-size="10.00">RaisedCosine</text>
<polyline fill="none" stroke="black" points="731.5,-49.5 809.5,-49.5 "/>
<text text-anchor="start" x="739.5" y="-37.5" font-family="Helvetica,sans-Serif" font-size="10.00">+ a2080</text>
<text text-anchor="start" x="739.5" y="-26.5" font-family="Helvetica,sans-Serif" font-size="10.00">+ a1090</text>
<polyline fill="none" stroke="black" points="731.5,-19.5 809.5,-19.5 "/>
<text text-anchor="start" x="739.5" y="-7.5" font-family="Helvetica,sans-Serif" font-size="10.00">+ __init__()</text>
</a>
</g>
</g>
<!-- Node1&#45;&gt;Node9 -->
<g id="edge8" class="edge">
<title>Node1&#45;&gt;Node9</title>
<path fill="none" stroke="midnightblue" d="M539.25,-146.58C592.16,-128.12 663.33,-100.74 722.5,-69 725.46,-67.41 728.45,-65.68 731.41,-63.86"/>
<polygon fill="none" stroke="midnightblue" points="537.89,-143.34 529.58,-149.92 540.18,-149.96 537.89,-143.34"/>
</g>
<!-- Node2 -->
<g id="node2" class="node">
<title>Node2</title>
<g id="a_node2"><a xlink:href="classSignalIntegrity_1_1Lib_1_1TimeDomain_1_1Filters_1_1WaveformProcessor_1_1WaveformProcessor.xhtml" target="_top" xlink:title="WaveformProcessor.py.">
<polygon fill="white" stroke="black" points="406.5,-276.5 406.5,-333.5 518.5,-333.5 518.5,-276.5 406.5,-276.5"/>
<text text-anchor="middle" x="462.5" y="-321.5" font-family="Helvetica,sans-Serif" font-size="10.00">WaveformProcessor</text>
<polyline fill="none" stroke="black" points="406.5,-314.5 518.5,-314.5 "/>
<text text-anchor="middle" x="462.5" y="-302.5" font-family="Helvetica,sans-Serif" font-size="10.00"> </text>
<polyline fill="none" stroke="black" points="406.5,-295.5 518.5,-295.5 "/>
<text text-anchor="start" x="414.5" y="-283.5" font-family="Helvetica,sans-Serif" font-size="10.00">+ ProcessWaveform()</text>
</a>
</g>
</g>
<!-- Node2&#45;&gt;Node1 -->
<g id="edge1" class="edge">
<title>Node2&#45;&gt;Node1</title>
<path fill="none" stroke="midnightblue" d="M462.5,-266.16C462.5,-257.78 462.5,-248.67 462.5,-239.53"/>
<polygon fill="none" stroke="midnightblue" points="459,-266.32 462.5,-276.32 466,-266.32 459,-266.32"/>
</g>
</g>
</svg>
