<?xml version="1.0" encoding="UTF-8" standalone="no"?>
<!DOCTYPE svg PUBLIC "-//W3C//DTD SVG 1.1//EN"
 "http://www.w3.org/Graphics/SVG/1.1/DTD/svg11.dtd">
<!-- Generated by graphviz version 2.43.0 (0)
 -->
<!-- Title: SeriesRse Pages: 1 -->
<svg width="211pt" height="551pt"
 viewBox="0.00 0.00 211.00 551.00" xmlns="http://www.w3.org/2000/svg" xmlns:xlink="http://www.w3.org/1999/xlink">
<g id="graph0" class="graph" transform="scale(1 1) rotate(0) translate(4 547)">
<title>SeriesRse</title>
<polygon fill="white" stroke="transparent" points="-4,4 -4,-547 207,-547 207,4 -4,4"/>
<!-- Node1 -->
<g id="node1" class="node">
<title>Node1</title>
<g id="a_node1"><a xlink:title="s&#45;parameters of series skin&#45;effect Resistance">
<polygon fill="#bfbfbf" stroke="black" points="54,-0.5 54,-68.5 149,-68.5 149,-0.5 54,-0.5"/>
<text text-anchor="middle" x="101.5" y="-56.5" font-family="Helvetica,sans-Serif" font-size="10.00">SeriesRse</text>
<polyline fill="none" stroke="black" points="54,-49.5 149,-49.5 "/>
<text text-anchor="start" x="62" y="-37.5" font-family="Helvetica,sans-Serif" font-size="10.00">+ m_Rse</text>
<polyline fill="none" stroke="black" points="54,-30.5 149,-30.5 "/>
<text text-anchor="start" x="62" y="-18.5" font-family="Helvetica,sans-Serif" font-size="10.00">+ __init__()</text>
<text text-anchor="start" x="62" y="-7.5" font-family="Helvetica,sans-Serif" font-size="10.00">+ __getitem__()</text>
</a>
</g>
</g>
<!-- Node2 -->
<g id="node2" class="node">
<title>Node2</title>
<g id="a_node2"><a xlink:href="classSignalIntegrity_1_1Lib_1_1SParameters_1_1SParameters_1_1SParameters.xhtml" target="_top" xlink:title="Class containing s&#45;parameters.">
<polygon fill="white" stroke="black" points="24,-105.5 24,-338.5 179,-338.5 179,-105.5 24,-105.5"/>
<text text-anchor="middle" x="101.5" y="-326.5" font-family="Helvetica,sans-Serif" font-size="10.00">SParameters</text>
<polyline fill="none" stroke="black" points="24,-319.5 179,-319.5 "/>
<text text-anchor="start" x="32" y="-307.5" font-family="Helvetica,sans-Serif" font-size="10.00">+ m_sToken</text>
<text text-anchor="start" x="32" y="-296.5" font-family="Helvetica,sans-Serif" font-size="10.00">+ m_d</text>
<text text-anchor="start" x="32" y="-285.5" font-family="Helvetica,sans-Serif" font-size="10.00">+ m_Z0</text>
<text text-anchor="start" x="32" y="-274.5" font-family="Helvetica,sans-Serif" font-size="10.00">+ m_f</text>
<text text-anchor="start" x="32" y="-263.5" font-family="Helvetica,sans-Serif" font-size="10.00">+ m_P</text>
<text text-anchor="start" x="32" y="-252.5" font-family="Helvetica,sans-Serif" font-size="10.00">+ header</text>
<text text-anchor="start" x="32" y="-241.5" font-family="Helvetica,sans-Serif" font-size="10.00">+ maxTokensOnLine</text>
<text text-anchor="start" x="32" y="-230.5" font-family="Helvetica,sans-Serif" font-size="10.00">+ numDigits</text>
<polyline fill="none" stroke="black" points="24,-223.5 179,-223.5 "/>
<text text-anchor="start" x="32" y="-211.5" font-family="Helvetica,sans-Serif" font-size="10.00">+ __init__()</text>
<text text-anchor="start" x="32" y="-200.5" font-family="Helvetica,sans-Serif" font-size="10.00">+ __getitem__()</text>
<text text-anchor="start" x="32" y="-189.5" font-family="Helvetica,sans-Serif" font-size="10.00">+ __len__()</text>
<text text-anchor="start" x="32" y="-178.5" font-family="Helvetica,sans-Serif" font-size="10.00">+ f()</text>
<text text-anchor="start" x="32" y="-167.5" font-family="Helvetica,sans-Serif" font-size="10.00">+ Response()</text>
<text text-anchor="start" x="32" y="-156.5" font-family="Helvetica,sans-Serif" font-size="10.00">+ FrequencyResponse()</text>
<text text-anchor="start" x="32" y="-145.5" font-family="Helvetica,sans-Serif" font-size="10.00">+ Text()</text>
<text text-anchor="start" x="32" y="-134.5" font-family="Helvetica,sans-Serif" font-size="10.00">+ WriteToFile()</text>
<text text-anchor="start" x="32" y="-123.5" font-family="Helvetica,sans-Serif" font-size="10.00">+ Resample()</text>
<text text-anchor="start" x="32" y="-112.5" font-family="Helvetica,sans-Serif" font-size="10.00">+ SetReferenceImpedance()</text>
</a>
</g>
</g>
<!-- Node2&#45;&gt;Node1 -->
<g id="edge1" class="edge">
<title>Node2&#45;&gt;Node1</title>
<path fill="none" stroke="midnightblue" d="M101.5,-95.29C101.5,-85.79 101.5,-76.82 101.5,-68.85"/>
<polygon fill="none" stroke="midnightblue" points="98,-95.37 101.5,-105.37 105,-95.37 98,-95.37"/>
</g>
<!-- Node3 -->
<g id="node3" class="node">
<title>Node3</title>
<g id="a_node3"><a xlink:href="classSignalIntegrity_1_1Lib_1_1SParameters_1_1SParameterManipulation_1_1SParameterManipulation.xhtml" target="_top" xlink:title="Class for manipulations on s&#45;parameters involving passivity, causality, etc.">
<polygon fill="white" stroke="black" points="0,-375.5 0,-542.5 203,-542.5 203,-375.5 0,-375.5"/>
<text text-anchor="middle" x="101.5" y="-530.5" font-family="Helvetica,sans-Serif" font-size="10.00">SParameterManipulation</text>
<polyline fill="none" stroke="black" points="0,-523.5 203,-523.5 "/>
<text text-anchor="middle" x="101.5" y="-511.5" font-family="Helvetica,sans-Serif" font-size="10.00"> </text>
<polyline fill="none" stroke="black" points="0,-504.5 203,-504.5 "/>
<text text-anchor="start" x="8" y="-492.5" font-family="Helvetica,sans-Serif" font-size="10.00">+ EnforcePassivity()</text>
<text text-anchor="start" x="8" y="-481.5" font-family="Helvetica,sans-Serif" font-size="10.00">+ IsCausal()</text>
<text text-anchor="start" x="8" y="-470.5" font-family="Helvetica,sans-Serif" font-size="10.00">+ EnforceCausality()</text>
<text text-anchor="start" x="8" y="-459.5" font-family="Helvetica,sans-Serif" font-size="10.00">+ WaveletDenoise()</text>
<text text-anchor="start" x="8" y="-448.5" font-family="Helvetica,sans-Serif" font-size="10.00">+ PortReorder()</text>
<text text-anchor="start" x="8" y="-437.5" font-family="Helvetica,sans-Serif" font-size="10.00">+ DetermineImpulseResponse</text>
<text text-anchor="start" x="8" y="-426.5" font-family="Helvetica,sans-Serif" font-size="10.00">Length()</text>
<text text-anchor="start" x="8" y="-415.5" font-family="Helvetica,sans-Serif" font-size="10.00">+ LimitImpulseResponseLength()</text>
<text text-anchor="start" x="8" y="-404.5" font-family="Helvetica,sans-Serif" font-size="10.00">+ EnforceReciprocity()</text>
<text text-anchor="start" x="8" y="-393.5" font-family="Helvetica,sans-Serif" font-size="10.00">+ EnforceBothPassivityAndCausality()</text>
<text text-anchor="start" x="8" y="-382.5" font-family="Helvetica,sans-Serif" font-size="10.00">+ EnforceAll()</text>
</a>
</g>
</g>
<!-- Node3&#45;&gt;Node2 -->
<g id="edge2" class="edge">
<title>Node3&#45;&gt;Node2</title>
<path fill="none" stroke="midnightblue" d="M101.5,-365.32C101.5,-356.59 101.5,-347.66 101.5,-338.74"/>
<polygon fill="none" stroke="midnightblue" points="98,-365.48 101.5,-375.48 105,-365.48 98,-365.48"/>
</g>
</g>
</svg>
