<?xml version="1.0" encoding="UTF-8" standalone="no"?>
<!DOCTYPE svg PUBLIC "-//W3C//DTD SVG 1.1//EN"
 "http://www.w3.org/Graphics/SVG/1.1/DTD/svg11.dtd">
<!-- Generated by graphviz version 2.43.0 (0)
 -->
<!-- Title: FilterDescriptor Pages: 1 -->
<svg width="256pt" height="303pt"
 viewBox="0.00 0.00 256.00 303.00" xmlns="http://www.w3.org/2000/svg" xmlns:xlink="http://www.w3.org/1999/xlink">
<g id="graph0" class="graph" transform="scale(1 1) rotate(0) translate(4 299)">
<title>FilterDescriptor</title>
<polygon fill="white" stroke="transparent" points="-4,4 -4,-299 252,-299 252,4 -4,4"/>
<!-- Node1 -->
<g id="node1" class="node">
<title>Node1</title>
<g id="a_node1"><a xlink:title="FilterDescriptor.py.">
<polygon fill="#bfbfbf" stroke="black" points="83.5,-127.5 83.5,-294.5 166.5,-294.5 166.5,-127.5 83.5,-127.5"/>
<text text-anchor="middle" x="125" y="-282.5" font-family="Helvetica,sans-Serif" font-size="10.00">FilterDescriptor</text>
<polyline fill="none" stroke="black" points="83.5,-275.5 166.5,-275.5 "/>
<text text-anchor="start" x="91.5" y="-263.5" font-family="Helvetica,sans-Serif" font-size="10.00">+ U</text>
<text text-anchor="start" x="91.5" y="-252.5" font-family="Helvetica,sans-Serif" font-size="10.00">+ D</text>
<text text-anchor="start" x="91.5" y="-241.5" font-family="Helvetica,sans-Serif" font-size="10.00">+ S</text>
<polyline fill="none" stroke="black" points="83.5,-234.5 166.5,-234.5 "/>
<text text-anchor="start" x="91.5" y="-222.5" font-family="Helvetica,sans-Serif" font-size="10.00">+ __init__()</text>
<text text-anchor="start" x="91.5" y="-211.5" font-family="Helvetica,sans-Serif" font-size="10.00">+ __eq__()</text>
<text text-anchor="start" x="91.5" y="-200.5" font-family="Helvetica,sans-Serif" font-size="10.00">+ __mul__()</text>
<text text-anchor="start" x="91.5" y="-189.5" font-family="Helvetica,sans-Serif" font-size="10.00">+ Before()</text>
<text text-anchor="start" x="91.5" y="-178.5" font-family="Helvetica,sans-Serif" font-size="10.00">+ After()</text>
<text text-anchor="start" x="91.5" y="-167.5" font-family="Helvetica,sans-Serif" font-size="10.00">+ TrimLeft()</text>
<text text-anchor="start" x="91.5" y="-156.5" font-family="Helvetica,sans-Serif" font-size="10.00">+ TrimRight()</text>
<text text-anchor="start" x="91.5" y="-145.5" font-family="Helvetica,sans-Serif" font-size="10.00">+ TrimTotal()</text>
<text text-anchor="start" x="91.5" y="-134.5" font-family="Helvetica,sans-Serif" font-size="10.00">+ Print()</text>
</a>
</g>
</g>
<!-- Node2 -->
<g id="node2" class="node">
<title>Node2</title>
<g id="a_node2"><a xlink:href="classSignalIntegrity_1_1Lib_1_1TimeDomain_1_1Filters_1_1WaveformDecimator_1_1WaveformDecimator.xhtml" target="_top" xlink:title="decimates waveforms">
<polygon fill="white" stroke="black" points="0,-0.5 0,-90.5 118,-90.5 118,-0.5 0,-0.5"/>
<text text-anchor="middle" x="59" y="-78.5" font-family="Helvetica,sans-Serif" font-size="10.00">WaveformDecimator</text>
<polyline fill="none" stroke="black" points="0,-71.5 118,-71.5 "/>
<text text-anchor="start" x="8" y="-59.5" font-family="Helvetica,sans-Serif" font-size="10.00">+ df</text>
<text text-anchor="start" x="8" y="-48.5" font-family="Helvetica,sans-Serif" font-size="10.00">+ dph</text>
<polyline fill="none" stroke="black" points="0,-41.5 118,-41.5 "/>
<text text-anchor="start" x="8" y="-29.5" font-family="Helvetica,sans-Serif" font-size="10.00">+ __init__()</text>
<text text-anchor="start" x="8" y="-18.5" font-family="Helvetica,sans-Serif" font-size="10.00">+ ProcessWaveform()</text>
<text text-anchor="start" x="8" y="-7.5" font-family="Helvetica,sans-Serif" font-size="10.00">+ DecimateWaveform()</text>
</a>
</g>
</g>
<!-- Node1&#45;&gt;Node2 -->
<g id="edge1" class="edge">
<title>Node1&#45;&gt;Node2</title>
<path fill="none" stroke="midnightblue" d="M87.79,-117.81C83.98,-108.38 80.24,-99.13 76.8,-90.58"/>
<polygon fill="none" stroke="midnightblue" points="84.62,-119.33 91.61,-127.29 91.12,-116.71 84.62,-119.33"/>
</g>
<!-- Node3 -->
<g id="node3" class="node">
<title>Node3</title>
<g id="a_node3"><a xlink:href="classSignalIntegrity_1_1Lib_1_1TimeDomain_1_1Filters_1_1WaveformTrimmer_1_1WaveformTrimmer.xhtml" target="_top" xlink:title="trims waveforms">
<polygon fill="white" stroke="black" points="136,-6 136,-85 248,-85 248,-6 136,-6"/>
<text text-anchor="middle" x="192" y="-73" font-family="Helvetica,sans-Serif" font-size="10.00">WaveformTrimmer</text>
<polyline fill="none" stroke="black" points="136,-66 248,-66 "/>
<text text-anchor="middle" x="192" y="-54" font-family="Helvetica,sans-Serif" font-size="10.00"> </text>
<polyline fill="none" stroke="black" points="136,-47 248,-47 "/>
<text text-anchor="start" x="144" y="-35" font-family="Helvetica,sans-Serif" font-size="10.00">+ __init__()</text>
<text text-anchor="start" x="144" y="-24" font-family="Helvetica,sans-Serif" font-size="10.00">+ ProcessWaveform()</text>
<text text-anchor="start" x="144" y="-13" font-family="Helvetica,sans-Serif" font-size="10.00">+ TrimWaveform()</text>
</a>
</g>
</g>
<!-- Node1&#45;&gt;Node3 -->
<g id="edge2" class="edge">
<title>Node1&#45;&gt;Node3</title>
<path fill="none" stroke="midnightblue" d="M162.7,-117.99C167.43,-106.45 172.05,-95.18 176.17,-85.13"/>
<polygon fill="none" stroke="midnightblue" points="159.45,-116.71 158.89,-127.29 165.92,-119.37 159.45,-116.71"/>
</g>
</g>
</svg>
