<?xml version="1.0" encoding="UTF-8" standalone="no"?>
<!DOCTYPE svg PUBLIC "-//W3C//DTD SVG 1.1//EN"
 "http://www.w3.org/Graphics/SVG/1.1/DTD/svg11.dtd">
<!-- Generated by graphviz version 2.43.0 (0)
 -->
<!-- Title: FirFilter Pages: 1 -->
<svg width="695pt" height="331pt"
 viewBox="0.00 0.00 695.00 331.00" xmlns="http://www.w3.org/2000/svg" xmlns:xlink="http://www.w3.org/1999/xlink">
<g id="graph0" class="graph" transform="scale(1 1) rotate(0) translate(4 327)">
<title>FirFilter</title>
<polygon fill="white" stroke="transparent" points="-4,4 -4,-327 691,-327 691,4 -4,4"/>
<!-- Node1 -->
<g id="node1" class="node">
<title>Node1</title>
<g id="a_node1"><a xlink:title="base filter class for all FIR filters">
<polygon fill="#bfbfbf" stroke="black" points="301.5,-105.5 301.5,-228.5 425.5,-228.5 425.5,-105.5 301.5,-105.5"/>
<text text-anchor="middle" x="363.5" y="-216.5" font-family="Helvetica,sans-Serif" font-size="10.00">FirFilter</text>
<polyline fill="none" stroke="black" points="301.5,-209.5 425.5,-209.5 "/>
<text text-anchor="start" x="309.5" y="-197.5" font-family="Helvetica,sans-Serif" font-size="10.00">+ m_fd</text>
<text text-anchor="start" x="309.5" y="-186.5" font-family="Helvetica,sans-Serif" font-size="10.00">+ m_ft</text>
<polyline fill="none" stroke="black" points="301.5,-179.5 425.5,-179.5 "/>
<text text-anchor="start" x="309.5" y="-167.5" font-family="Helvetica,sans-Serif" font-size="10.00">+ __init__()</text>
<text text-anchor="start" x="309.5" y="-156.5" font-family="Helvetica,sans-Serif" font-size="10.00">+ ProcessWaveform()</text>
<text text-anchor="start" x="309.5" y="-145.5" font-family="Helvetica,sans-Serif" font-size="10.00">+ FilterTaps()</text>
<text text-anchor="start" x="309.5" y="-134.5" font-family="Helvetica,sans-Serif" font-size="10.00">+ FilterDescriptor()</text>
<text text-anchor="start" x="309.5" y="-123.5" font-family="Helvetica,sans-Serif" font-size="10.00">+ FilterWaveform()</text>
<text text-anchor="start" x="309.5" y="-112.5" font-family="Helvetica,sans-Serif" font-size="10.00">+ Print()</text>
</a>
</g>
</g>
<!-- Node3 -->
<g id="node3" class="node">
<title>Node3</title>
<g id="a_node3"><a xlink:href="classSignalIntegrity_1_1Lib_1_1TimeDomain_1_1Filters_1_1InterpolatorLinear_1_1FractionalDelayFilterLinear.xhtml" target="_top" xlink:title="linear fractional delay filter">
<polygon fill="white" stroke="black" points="0,-6 0,-63 147,-63 147,-6 0,-6"/>
<text text-anchor="middle" x="73.5" y="-51" font-family="Helvetica,sans-Serif" font-size="10.00">FractionalDelayFilterLinear</text>
<polyline fill="none" stroke="black" points="0,-44 147,-44 "/>
<text text-anchor="middle" x="73.5" y="-32" font-family="Helvetica,sans-Serif" font-size="10.00"> </text>
<polyline fill="none" stroke="black" points="0,-25 147,-25 "/>
<text text-anchor="start" x="8" y="-13" font-family="Helvetica,sans-Serif" font-size="10.00">+ __init__()</text>
</a>
</g>
</g>
<!-- Node1&#45;&gt;Node3 -->
<g id="edge2" class="edge">
<title>Node1&#45;&gt;Node3</title>
<path fill="none" stroke="midnightblue" d="M292.14,-133.89C243.81,-112.14 180.62,-83.71 134.61,-63"/>
<polygon fill="none" stroke="midnightblue" points="290.73,-137.09 301.29,-138 293.6,-130.71 290.73,-137.09"/>
</g>
<!-- Node4 -->
<g id="node4" class="node">
<title>Node4</title>
<g id="a_node4"><a xlink:href="classSignalIntegrity_1_1Lib_1_1TimeDomain_1_1Filters_1_1InterpolatorLinear_1_1InterpolatorLinear.xhtml" target="_top" xlink:title="linear interpolating filter">
<polygon fill="white" stroke="black" points="165.5,-0.5 165.5,-68.5 275.5,-68.5 275.5,-0.5 165.5,-0.5"/>
<text text-anchor="middle" x="220.5" y="-56.5" font-family="Helvetica,sans-Serif" font-size="10.00">InterpolatorLinear</text>
<polyline fill="none" stroke="black" points="165.5,-49.5 275.5,-49.5 "/>
<text text-anchor="middle" x="220.5" y="-37.5" font-family="Helvetica,sans-Serif" font-size="10.00"> </text>
<polyline fill="none" stroke="black" points="165.5,-30.5 275.5,-30.5 "/>
<text text-anchor="start" x="173.5" y="-18.5" font-family="Helvetica,sans-Serif" font-size="10.00">+ __init__()</text>
<text text-anchor="start" x="173.5" y="-7.5" font-family="Helvetica,sans-Serif" font-size="10.00">+ FilterWaveform()</text>
</a>
</g>
</g>
<!-- Node1&#45;&gt;Node4 -->
<g id="edge3" class="edge">
<title>Node1&#45;&gt;Node4</title>
<path fill="none" stroke="midnightblue" d="M293.68,-102.28C280.88,-90.6 268.01,-78.85 256.7,-68.54"/>
<polygon fill="none" stroke="midnightblue" points="291.45,-104.98 301.19,-109.14 296.17,-99.81 291.45,-104.98"/>
</g>
<!-- Node5 -->
<g id="node5" class="node">
<title>Node5</title>
<g id="a_node5"><a xlink:href="classSignalIntegrity_1_1Lib_1_1TimeDomain_1_1Filters_1_1InterpolatorSinX_1_1FractionalDelayFilterSinX.xhtml" target="_top" xlink:title="sinx/x fractional delay filter">
<polygon fill="white" stroke="black" points="294,-6 294,-63 433,-63 433,-6 294,-6"/>
<text text-anchor="middle" x="363.5" y="-51" font-family="Helvetica,sans-Serif" font-size="10.00">FractionalDelayFilterSinX</text>
<polyline fill="none" stroke="black" points="294,-44 433,-44 "/>
<text text-anchor="start" x="302" y="-32" font-family="Helvetica,sans-Serif" font-size="10.00">+ S</text>
<polyline fill="none" stroke="black" points="294,-25 433,-25 "/>
<text text-anchor="start" x="302" y="-13" font-family="Helvetica,sans-Serif" font-size="10.00">+ __init__()</text>
</a>
</g>
</g>
<!-- Node1&#45;&gt;Node5 -->
<g id="edge4" class="edge">
<title>Node1&#45;&gt;Node5</title>
<path fill="none" stroke="midnightblue" d="M363.5,-95.28C363.5,-83.86 363.5,-72.67 363.5,-63.11"/>
<polygon fill="none" stroke="midnightblue" points="360,-95.33 363.5,-105.33 367,-95.33 360,-95.33"/>
</g>
<!-- Node6 -->
<g id="node6" class="node">
<title>Node6</title>
<g id="a_node6"><a xlink:href="classSignalIntegrity_1_1Lib_1_1TimeDomain_1_1Filters_1_1InterpolatorSinX_1_1InterpolatorSinX.xhtml" target="_top" xlink:title="sinx/x interpolating filter">
<polygon fill="white" stroke="black" points="451.5,-0.5 451.5,-68.5 561.5,-68.5 561.5,-0.5 451.5,-0.5"/>
<text text-anchor="middle" x="506.5" y="-56.5" font-family="Helvetica,sans-Serif" font-size="10.00">InterpolatorSinX</text>
<polyline fill="none" stroke="black" points="451.5,-49.5 561.5,-49.5 "/>
<text text-anchor="start" x="459.5" y="-37.5" font-family="Helvetica,sans-Serif" font-size="10.00">+ S</text>
<polyline fill="none" stroke="black" points="451.5,-30.5 561.5,-30.5 "/>
<text text-anchor="start" x="459.5" y="-18.5" font-family="Helvetica,sans-Serif" font-size="10.00">+ __init__()</text>
<text text-anchor="start" x="459.5" y="-7.5" font-family="Helvetica,sans-Serif" font-size="10.00">+ FilterWaveform()</text>
</a>
</g>
</g>
<!-- Node1&#45;&gt;Node6 -->
<g id="edge5" class="edge">
<title>Node1&#45;&gt;Node6</title>
<path fill="none" stroke="midnightblue" d="M433.32,-102.28C446.12,-90.6 458.99,-78.85 470.3,-68.54"/>
<polygon fill="none" stroke="midnightblue" points="430.83,-99.81 425.81,-109.14 435.55,-104.98 430.83,-99.81"/>
</g>
<!-- Node7 -->
<g id="node7" class="node">
<title>Node7</title>
<g id="a_node7"><a xlink:href="classSignalIntegrity_1_1Lib_1_1TimeDomain_1_1Filters_1_1RaisedCosineFilter_1_1RaisedCosineFilter.xhtml" target="_top" xlink:title="raised cosine filter">
<polygon fill="white" stroke="black" points="580,-6 580,-63 687,-63 687,-6 580,-6"/>
<text text-anchor="middle" x="633.5" y="-51" font-family="Helvetica,sans-Serif" font-size="10.00">RaisedCosineFilter</text>
<polyline fill="none" stroke="black" points="580,-44 687,-44 "/>
<text text-anchor="middle" x="633.5" y="-32" font-family="Helvetica,sans-Serif" font-size="10.00"> </text>
<polyline fill="none" stroke="black" points="580,-25 687,-25 "/>
<text text-anchor="start" x="588" y="-13" font-family="Helvetica,sans-Serif" font-size="10.00">+ __init__()</text>
</a>
</g>
</g>
<!-- Node1&#45;&gt;Node7 -->
<g id="edge6" class="edge">
<title>Node1&#45;&gt;Node7</title>
<path fill="none" stroke="midnightblue" d="M435.1,-133.53C475.16,-115.09 525.87,-91.3 570.5,-69 574.27,-67.12 578.15,-65.14 582.04,-63.14"/>
<polygon fill="none" stroke="midnightblue" points="433.57,-130.38 425.94,-137.74 436.49,-136.74 433.57,-130.38"/>
</g>
<!-- Node2 -->
<g id="node2" class="node">
<title>Node2</title>
<g id="a_node2"><a xlink:href="classSignalIntegrity_1_1Lib_1_1TimeDomain_1_1Filters_1_1WaveformProcessor_1_1WaveformProcessor.xhtml" target="_top" xlink:title="WaveformProcessor.py.">
<polygon fill="white" stroke="black" points="301.5,-265.5 301.5,-322.5 425.5,-322.5 425.5,-265.5 301.5,-265.5"/>
<text text-anchor="middle" x="363.5" y="-310.5" font-family="Helvetica,sans-Serif" font-size="10.00">WaveformProcessor</text>
<polyline fill="none" stroke="black" points="301.5,-303.5 425.5,-303.5 "/>
<text text-anchor="middle" x="363.5" y="-291.5" font-family="Helvetica,sans-Serif" font-size="10.00"> </text>
<polyline fill="none" stroke="black" points="301.5,-284.5 425.5,-284.5 "/>
<text text-anchor="start" x="309.5" y="-272.5" font-family="Helvetica,sans-Serif" font-size="10.00">+ ProcessWaveform()</text>
</a>
</g>
</g>
<!-- Node2&#45;&gt;Node1 -->
<g id="edge1" class="edge">
<title>Node2&#45;&gt;Node1</title>
<path fill="none" stroke="midnightblue" d="M363.5,-255.1C363.5,-246.74 363.5,-237.68 363.5,-228.67"/>
<polygon fill="none" stroke="midnightblue" points="360,-255.26 363.5,-265.26 367,-255.26 360,-255.26"/>
</g>
</g>
</svg>
