<?xml version="1.0" encoding="UTF-8" standalone="no"?>
<!DOCTYPE svg PUBLIC "-//W3C//DTD SVG 1.1//EN"
 "http://www.w3.org/Graphics/SVG/1.1/DTD/svg11.dtd">
<!-- Generated by graphviz version 2.43.0 (0)
 -->
<!-- Title: SystemSParameters Pages: 1 -->
<svg width="854pt" height="816pt"
 viewBox="0.00 0.00 854.00 816.00" xmlns="http://www.w3.org/2000/svg" xmlns:xlink="http://www.w3.org/1999/xlink">
<g id="graph0" class="graph" transform="scale(1 1) rotate(0) translate(4 812)">
<title>SystemSParameters</title>
<polygon fill="white" stroke="transparent" points="-4,4 -4,-812 850,-812 850,4 -4,4"/>
<!-- Node1 -->
<g id="node1" class="node">
<title>Node1</title>
<g id="a_node1"><a xlink:title="base class for housekeeping involving system s&#45;parameters calculations">
<polygon fill="#bfbfbf" stroke="black" points="472.5,-480.5 472.5,-603.5 579.5,-603.5 579.5,-480.5 472.5,-480.5"/>
<text text-anchor="middle" x="526" y="-591.5" font-family="Helvetica,sans-Serif" font-size="10.00">SystemSParameters</text>
<polyline fill="none" stroke="black" points="472.5,-584.5 579.5,-584.5 "/>
<text text-anchor="middle" x="526" y="-572.5" font-family="Helvetica,sans-Serif" font-size="10.00"> </text>
<polyline fill="none" stroke="black" points="472.5,-565.5 579.5,-565.5 "/>
<text text-anchor="start" x="480.5" y="-553.5" font-family="Helvetica,sans-Serif" font-size="10.00">+ __init__()</text>
<text text-anchor="start" x="480.5" y="-542.5" font-family="Helvetica,sans-Serif" font-size="10.00">+ PortANames()</text>
<text text-anchor="start" x="480.5" y="-531.5" font-family="Helvetica,sans-Serif" font-size="10.00">+ PortBNames()</text>
<text text-anchor="start" x="480.5" y="-520.5" font-family="Helvetica,sans-Serif" font-size="10.00">+ OtherNames()</text>
<text text-anchor="start" x="480.5" y="-509.5" font-family="Helvetica,sans-Serif" font-size="10.00">+ NodeVector()</text>
<text text-anchor="start" x="480.5" y="-498.5" font-family="Helvetica,sans-Serif" font-size="10.00">+ StimulusVector()</text>
<text text-anchor="start" x="480.5" y="-487.5" font-family="Helvetica,sans-Serif" font-size="10.00"># WeightsMatrix()</text>
</a>
</g>
</g>
<!-- Node3 -->
<g id="node3" class="node">
<title>Node3</title>
<g id="a_node3"><a xlink:href="classSignalIntegrity_1_1Lib_1_1SystemDescriptions_1_1Deembedder_1_1Deembedder.xhtml" target="_top" xlink:title="housekeeping base class for deembedders">
<polygon fill="white" stroke="black" points="137,-298.5 137,-421.5 241,-421.5 241,-298.5 137,-298.5"/>
<text text-anchor="middle" x="189" y="-409.5" font-family="Helvetica,sans-Serif" font-size="10.00">Deembedder</text>
<polyline fill="none" stroke="black" points="137,-402.5 241,-402.5 "/>
<text text-anchor="middle" x="189" y="-390.5" font-family="Helvetica,sans-Serif" font-size="10.00"> </text>
<polyline fill="none" stroke="black" points="137,-383.5 241,-383.5 "/>
<text text-anchor="start" x="145" y="-371.5" font-family="Helvetica,sans-Serif" font-size="10.00">+ __init__()</text>
<text text-anchor="start" x="145" y="-360.5" font-family="Helvetica,sans-Serif" font-size="10.00">+ AddUnknown()</text>
<text text-anchor="start" x="145" y="-349.5" font-family="Helvetica,sans-Serif" font-size="10.00">+ DutANames()</text>
<text text-anchor="start" x="145" y="-338.5" font-family="Helvetica,sans-Serif" font-size="10.00">+ DutBNames()</text>
<text text-anchor="start" x="145" y="-327.5" font-family="Helvetica,sans-Serif" font-size="10.00">+ UnknownNames()</text>
<text text-anchor="start" x="145" y="-316.5" font-family="Helvetica,sans-Serif" font-size="10.00">+ UnknownPorts()</text>
<text text-anchor="start" x="145" y="-305.5" font-family="Helvetica,sans-Serif" font-size="10.00">+ Partition()</text>
</a>
</g>
</g>
<!-- Node1&#45;&gt;Node3 -->
<g id="edge2" class="edge">
<title>Node1&#45;&gt;Node3</title>
<path fill="none" stroke="midnightblue" d="M463.04,-507.37C399.03,-473.18 301.02,-420.83 241.19,-388.88"/>
<polygon fill="none" stroke="midnightblue" points="461.76,-510.66 472.23,-512.28 465.06,-504.48 461.76,-510.66"/>
</g>
<!-- Node6 -->
<g id="node6" class="node">
<title>Node6</title>
<g id="a_node6"><a xlink:href="classSignalIntegrity_1_1Lib_1_1SystemDescriptions_1_1Simulator_1_1Simulator.xhtml" target="_top" xlink:title="Base class for dealing with housekeeping for simulations.">
<polygon fill="white" stroke="black" points="532.5,-276.5 532.5,-443.5 683.5,-443.5 683.5,-276.5 532.5,-276.5"/>
<text text-anchor="middle" x="608" y="-431.5" font-family="Helvetica,sans-Serif" font-size="10.00">Simulator</text>
<polyline fill="none" stroke="black" points="532.5,-424.5 683.5,-424.5 "/>
<text text-anchor="start" x="540.5" y="-412.5" font-family="Helvetica,sans-Serif" font-size="10.00">+ m_ol</text>
<polyline fill="none" stroke="black" points="532.5,-405.5 683.5,-405.5 "/>
<text text-anchor="start" x="540.5" y="-393.5" font-family="Helvetica,sans-Serif" font-size="10.00">+ __init__()</text>
<text text-anchor="start" x="540.5" y="-382.5" font-family="Helvetica,sans-Serif" font-size="10.00">+ Check()</text>
<text text-anchor="start" x="540.5" y="-371.5" font-family="Helvetica,sans-Serif" font-size="10.00">+ pOutputList()</text>
<text text-anchor="start" x="540.5" y="-360.5" font-family="Helvetica,sans-Serif" font-size="10.00">+ pOutputList()</text>
<text text-anchor="start" x="540.5" y="-349.5" font-family="Helvetica,sans-Serif" font-size="10.00">+ AddVoltageSource()</text>
<text text-anchor="start" x="540.5" y="-338.5" font-family="Helvetica,sans-Serif" font-size="10.00">+ AddCurrentSource()</text>
<text text-anchor="start" x="540.5" y="-327.5" font-family="Helvetica,sans-Serif" font-size="10.00">+ SourceVector()</text>
<text text-anchor="start" x="540.5" y="-316.5" font-family="Helvetica,sans-Serif" font-size="10.00">+ SourceToStimsPrimeMatrix()</text>
<text text-anchor="start" x="540.5" y="-305.5" font-family="Helvetica,sans-Serif" font-size="10.00">+ StimsPrime()</text>
<text text-anchor="start" x="540.5" y="-294.5" font-family="Helvetica,sans-Serif" font-size="10.00">+ SIPrime()</text>
<text text-anchor="start" x="540.5" y="-283.5" font-family="Helvetica,sans-Serif" font-size="10.00">+ VoltageExtractionMatrix()</text>
</a>
</g>
</g>
<!-- Node1&#45;&gt;Node6 -->
<g id="edge5" class="edge">
<title>Node1&#45;&gt;Node6</title>
<path fill="none" stroke="midnightblue" d="M557.84,-471.1C561.92,-462.15 566.13,-452.92 570.29,-443.79"/>
<polygon fill="none" stroke="midnightblue" points="554.61,-469.76 553.65,-480.31 560.98,-472.66 554.61,-469.76"/>
</g>
<!-- Node12 -->
<g id="node12" class="node">
<title>Node12</title>
<g id="a_node12"><a xlink:href="classSignalIntegrity_1_1Lib_1_1SystemDescriptions_1_1SystemDescriptionSymbolic_1_1SystemDescriptionSymbolic.xhtml" target="_top" xlink:title="Solves system descriptions in the most basic manner common to all of the simulation,...">
<polygon fill="white" stroke="black" points="374,-326 374,-394 514,-394 514,-326 374,-326"/>
<text text-anchor="middle" x="444" y="-382" font-family="Helvetica,sans-Serif" font-size="10.00">SystemDescriptionSymbolic</text>
<polyline fill="none" stroke="black" points="374,-375 514,-375 "/>
<text text-anchor="middle" x="444" y="-363" font-family="Helvetica,sans-Serif" font-size="10.00"> </text>
<polyline fill="none" stroke="black" points="374,-356 514,-356 "/>
<text text-anchor="start" x="382" y="-344" font-family="Helvetica,sans-Serif" font-size="10.00">+ __init__()</text>
<text text-anchor="start" x="382" y="-333" font-family="Helvetica,sans-Serif" font-size="10.00">+ LaTeXSystemEquation()</text>
</a>
</g>
</g>
<!-- Node1&#45;&gt;Node12 -->
<g id="edge11" class="edge">
<title>Node1&#45;&gt;Node12</title>
<path fill="none" stroke="midnightblue" d="M494.14,-471.07C482.09,-444.61 468.93,-415.72 459.11,-394.17"/>
<polygon fill="none" stroke="midnightblue" points="491.02,-472.66 498.35,-480.31 497.39,-469.76 491.02,-472.66"/>
</g>
<!-- Node14 -->
<g id="node14" class="node">
<title>Node14</title>
<g id="a_node14"><a xlink:href="classSignalIntegrity_1_1Lib_1_1SystemDescriptions_1_1SystemSParametersNumeric_1_1SystemSParametersNumeric.xhtml" target="_top" xlink:title="Class for computing s&#45;parameters of interconnected systems.">
<polygon fill="white" stroke="black" points="702,-326 702,-394 846,-394 846,-326 702,-326"/>
<text text-anchor="middle" x="774" y="-382" font-family="Helvetica,sans-Serif" font-size="10.00">SystemSParametersNumeric</text>
<polyline fill="none" stroke="black" points="702,-375 846,-375 "/>
<text text-anchor="middle" x="774" y="-363" font-family="Helvetica,sans-Serif" font-size="10.00"> </text>
<polyline fill="none" stroke="black" points="702,-356 846,-356 "/>
<text text-anchor="start" x="710" y="-344" font-family="Helvetica,sans-Serif" font-size="10.00">+ __init__()</text>
<text text-anchor="start" x="710" y="-333" font-family="Helvetica,sans-Serif" font-size="10.00">+ SParameters()</text>
</a>
</g>
</g>
<!-- Node1&#45;&gt;Node14 -->
<g id="edge15" class="edge">
<title>Node1&#45;&gt;Node14</title>
<path fill="none" stroke="midnightblue" d="M588.73,-509.43C620.9,-492.01 659.95,-468.88 692,-444 711.04,-429.22 730.1,-410.24 745.04,-394.17"/>
<polygon fill="none" stroke="midnightblue" points="587.01,-506.38 579.85,-514.19 590.32,-512.55 587.01,-506.38"/>
</g>
<!-- Node2 -->
<g id="node2" class="node">
<title>Node2</title>
<g id="a_node2"><a xlink:href="classSignalIntegrity_1_1Lib_1_1SystemDescriptions_1_1SystemDescription_1_1SystemDescription.xhtml" target="_top" xlink:title="Allows the construction of system descriptions for use with all of the classes that solve schematics ...">
<polygon fill="white" stroke="black" points="467,-640.5 467,-807.5 585,-807.5 585,-640.5 467,-640.5"/>
<text text-anchor="middle" x="526" y="-795.5" font-family="Helvetica,sans-Serif" font-size="10.00">SystemDescription</text>
<polyline fill="none" stroke="black" points="467,-788.5 585,-788.5 "/>
<text text-anchor="start" x="475" y="-776.5" font-family="Helvetica,sans-Serif" font-size="10.00">+ m_UniqueDevice</text>
<text text-anchor="start" x="475" y="-765.5" font-family="Helvetica,sans-Serif" font-size="10.00">+ m_UniqueNode</text>
<polyline fill="none" stroke="black" points="467,-758.5 585,-758.5 "/>
<text text-anchor="start" x="475" y="-746.5" font-family="Helvetica,sans-Serif" font-size="10.00">+ __init__()</text>
<text text-anchor="start" x="475" y="-735.5" font-family="Helvetica,sans-Serif" font-size="10.00">+ AddDevice()</text>
<text text-anchor="start" x="475" y="-724.5" font-family="Helvetica,sans-Serif" font-size="10.00">+ AssignM()</text>
<text text-anchor="start" x="475" y="-713.5" font-family="Helvetica,sans-Serif" font-size="10.00">+ DeviceNames()</text>
<text text-anchor="start" x="475" y="-702.5" font-family="Helvetica,sans-Serif" font-size="10.00">+ IndexOfDevice()</text>
<text text-anchor="start" x="475" y="-691.5" font-family="Helvetica,sans-Serif" font-size="10.00">+ CheckConnections()</text>
<text text-anchor="start" x="475" y="-680.5" font-family="Helvetica,sans-Serif" font-size="10.00">+ ConnectDevicePort()</text>
<text text-anchor="start" x="475" y="-669.5" font-family="Helvetica,sans-Serif" font-size="10.00">+ AddPort()</text>
<text text-anchor="start" x="475" y="-658.5" font-family="Helvetica,sans-Serif" font-size="10.00">+ AssignSParameters()</text>
<text text-anchor="start" x="475" y="-647.5" font-family="Helvetica,sans-Serif" font-size="10.00">+ Print()</text>
</a>
</g>
</g>
<!-- Node2&#45;&gt;Node1 -->
<g id="edge1" class="edge">
<title>Node2&#45;&gt;Node1</title>
<path fill="none" stroke="midnightblue" d="M526,-630.19C526,-621.17 526,-612.19 526,-603.61"/>
<polygon fill="none" stroke="midnightblue" points="522.5,-630.38 526,-640.38 529.5,-630.38 522.5,-630.38"/>
</g>
<!-- Node4 -->
<g id="node4" class="node">
<title>Node4</title>
<g id="a_node4"><a xlink:href="classSignalIntegrity_1_1Lib_1_1SystemDescriptions_1_1DeembedderNumeric_1_1DeembedderNumeric.xhtml" target="_top" xlink:title=" ">
<polygon fill="white" stroke="black" points="0,-144 0,-212 114,-212 114,-144 0,-144"/>
<text text-anchor="middle" x="57" y="-200" font-family="Helvetica,sans-Serif" font-size="10.00">DeembedderNumeric</text>
<polyline fill="none" stroke="black" points="0,-193 114,-193 "/>
<text text-anchor="middle" x="57" y="-181" font-family="Helvetica,sans-Serif" font-size="10.00"> </text>
<polyline fill="none" stroke="black" points="0,-174 114,-174 "/>
<text text-anchor="start" x="8" y="-162" font-family="Helvetica,sans-Serif" font-size="10.00">+ __init__()</text>
<text text-anchor="start" x="8" y="-151" font-family="Helvetica,sans-Serif" font-size="10.00">+ CalculateUnknown()</text>
</a>
</g>
</g>
<!-- Node3&#45;&gt;Node4 -->
<g id="edge3" class="edge">
<title>Node3&#45;&gt;Node4</title>
<path fill="none" stroke="midnightblue" d="M138.48,-290.11C118.87,-263.37 97.33,-234 81.33,-212.17"/>
<polygon fill="none" stroke="midnightblue" points="135.76,-292.32 144.49,-298.31 141.4,-288.18 135.76,-292.32"/>
</g>
<!-- Node5 -->
<g id="node5" class="node">
<title>Node5</title>
<g id="a_node5"><a xlink:href="classSignalIntegrity_1_1Lib_1_1SystemDescriptions_1_1DeembedderSymbolic_1_1DeembedderSymbolic.xhtml" target="_top" xlink:title=" ">
<polygon fill="white" stroke="black" points="132.5,-144 132.5,-212 245.5,-212 245.5,-144 132.5,-144"/>
<text text-anchor="middle" x="189" y="-200" font-family="Helvetica,sans-Serif" font-size="10.00">DeembedderSymbolic</text>
<polyline fill="none" stroke="black" points="132.5,-193 245.5,-193 "/>
<text text-anchor="start" x="140.5" y="-181" font-family="Helvetica,sans-Serif" font-size="10.00">+ m_Sk</text>
<polyline fill="none" stroke="black" points="132.5,-174 245.5,-174 "/>
<text text-anchor="start" x="140.5" y="-162" font-family="Helvetica,sans-Serif" font-size="10.00">+ __init__()</text>
<text text-anchor="start" x="140.5" y="-151" font-family="Helvetica,sans-Serif" font-size="10.00">+ SymbolicSolution()</text>
</a>
</g>
</g>
<!-- Node3&#45;&gt;Node5 -->
<g id="edge4" class="edge">
<title>Node3&#45;&gt;Node5</title>
<path fill="none" stroke="midnightblue" d="M189,-288.03C189,-261.86 189,-233.44 189,-212.17"/>
<polygon fill="none" stroke="midnightblue" points="185.5,-288.31 189,-298.31 192.5,-288.31 185.5,-288.31"/>
</g>
<!-- Node7 -->
<g id="node7" class="node">
<title>Node7</title>
<g id="a_node7"><a xlink:href="classSignalIntegrity_1_1Lib_1_1SystemDescriptions_1_1SimulatorNumeric_1_1SimulatorNumeric.xhtml" target="_top" xlink:title="class for performing numeric simulations">
<polygon fill="white" stroke="black" points="560.5,-144 560.5,-212 655.5,-212 655.5,-144 560.5,-144"/>
<text text-anchor="middle" x="608" y="-200" font-family="Helvetica,sans-Serif" font-size="10.00">SimulatorNumeric</text>
<polyline fill="none" stroke="black" points="560.5,-193 655.5,-193 "/>
<text text-anchor="middle" x="608" y="-181" font-family="Helvetica,sans-Serif" font-size="10.00"> </text>
<polyline fill="none" stroke="black" points="560.5,-174 655.5,-174 "/>
<text text-anchor="start" x="568.5" y="-162" font-family="Helvetica,sans-Serif" font-size="10.00">+ __init__()</text>
<text text-anchor="start" x="568.5" y="-151" font-family="Helvetica,sans-Serif" font-size="10.00">+ TransferMatrix()</text>
</a>
</g>
</g>
<!-- Node6&#45;&gt;Node7 -->
<g id="edge6" class="edge">
<title>Node6&#45;&gt;Node7</title>
<path fill="none" stroke="midnightblue" d="M608,-266.23C608,-246.82 608,-227.58 608,-212.13"/>
<polygon fill="none" stroke="midnightblue" points="604.5,-266.38 608,-276.38 611.5,-266.38 604.5,-266.38"/>
</g>
<!-- Node8 -->
<g id="node8" class="node">
<title>Node8</title>
<g id="a_node8"><a xlink:href="classSignalIntegrity_1_1Lib_1_1SystemDescriptions_1_1SimulatorSymbolic_1_1SimulatorSymbolic.xhtml" target="_top" xlink:title="class for producing symbolic solutions to simulation problems.">
<polygon fill="white" stroke="black" points="581,-0.5 581,-79.5 703,-79.5 703,-0.5 581,-0.5"/>
<text text-anchor="middle" x="642" y="-67.5" font-family="Helvetica,sans-Serif" font-size="10.00">SimulatorSymbolic</text>
<polyline fill="none" stroke="black" points="581,-60.5 703,-60.5 "/>
<text text-anchor="middle" x="642" y="-48.5" font-family="Helvetica,sans-Serif" font-size="10.00"> </text>
<polyline fill="none" stroke="black" points="581,-41.5 703,-41.5 "/>
<text text-anchor="start" x="589" y="-29.5" font-family="Helvetica,sans-Serif" font-size="10.00">+ __init__()</text>
<text text-anchor="start" x="589" y="-18.5" font-family="Helvetica,sans-Serif" font-size="10.00">+ LaTeXTransferMatrix()</text>
<text text-anchor="start" x="589" y="-7.5" font-family="Helvetica,sans-Serif" font-size="10.00">+ LaTeXEquations()</text>
</a>
</g>
</g>
<!-- Node6&#45;&gt;Node8 -->
<g id="edge7" class="edge">
<title>Node6&#45;&gt;Node8</title>
<path fill="none" stroke="midnightblue" d="M656.06,-266.86C659.27,-257.96 662.01,-248.92 664,-240 676.02,-186.22 671.84,-170.55 664,-116 662.28,-104.05 659.1,-91.34 655.68,-79.85"/>
<polygon fill="none" stroke="midnightblue" points="652.7,-265.86 652.42,-276.46 659.24,-268.35 652.7,-265.86"/>
</g>
<!-- Node9 -->
<g id="node9" class="node">
<title>Node9</title>
<g id="a_node9"><a xlink:href="classSignalIntegrity_1_1Lib_1_1SystemDescriptions_1_1VirtualProbe_1_1VirtualProbe.xhtml" target="_top" xlink:title="Base class for virtual probing.">
<polygon fill="white" stroke="black" points="264,-116.5 264,-239.5 376,-239.5 376,-116.5 264,-116.5"/>
<text text-anchor="middle" x="320" y="-227.5" font-family="Helvetica,sans-Serif" font-size="10.00">VirtualProbe</text>
<polyline fill="none" stroke="black" points="264,-220.5 376,-220.5 "/>
<text text-anchor="start" x="272" y="-208.5" font-family="Helvetica,sans-Serif" font-size="10.00">+ m_ml</text>
<text text-anchor="start" x="272" y="-197.5" font-family="Helvetica,sans-Serif" font-size="10.00">+ m_D</text>
<polyline fill="none" stroke="black" points="264,-190.5 376,-190.5 "/>
<text text-anchor="start" x="272" y="-178.5" font-family="Helvetica,sans-Serif" font-size="10.00">+ __init__()</text>
<text text-anchor="start" x="272" y="-167.5" font-family="Helvetica,sans-Serif" font-size="10.00">+ Check()</text>
<text text-anchor="start" x="272" y="-156.5" font-family="Helvetica,sans-Serif" font-size="10.00">+ pMeasurementList()</text>
<text text-anchor="start" x="272" y="-145.5" font-family="Helvetica,sans-Serif" font-size="10.00">+ pMeasurementList()</text>
<text text-anchor="start" x="272" y="-134.5" font-family="Helvetica,sans-Serif" font-size="10.00">+ pStimDef()</text>
<text text-anchor="start" x="272" y="-123.5" font-family="Helvetica,sans-Serif" font-size="10.00">+ pStimDef()</text>
</a>
</g>
</g>
<!-- Node6&#45;&gt;Node9 -->
<g id="edge8" class="edge">
<title>Node6&#45;&gt;Node9</title>
<path fill="none" stroke="midnightblue" d="M523.59,-276.33C523.39,-276.22 523.2,-276.11 523,-276 467.82,-244.82 440.49,-270.63 385,-240 382.02,-238.35 379.07,-236.54 376.17,-234.6"/>
<polygon fill="none" stroke="midnightblue" points="521.97,-279.45 532.32,-281.73 525.66,-273.5 521.97,-279.45"/>
</g>
<!-- Node10 -->
<g id="node10" class="node">
<title>Node10</title>
<g id="a_node10"><a xlink:href="classSignalIntegrity_1_1Lib_1_1SystemDescriptions_1_1VirtualProbeNumeric_1_1VirtualProbeNumeric.xhtml" target="_top" xlink:title="class for performing virtual probing numerically.">
<polygon fill="white" stroke="black" points="266.5,-6 266.5,-74 373.5,-74 373.5,-6 266.5,-6"/>
<text text-anchor="middle" x="320" y="-62" font-family="Helvetica,sans-Serif" font-size="10.00">VirtualProbeNumeric</text>
<polyline fill="none" stroke="black" points="266.5,-55 373.5,-55 "/>
<text text-anchor="middle" x="320" y="-43" font-family="Helvetica,sans-Serif" font-size="10.00"> </text>
<polyline fill="none" stroke="black" points="266.5,-36 373.5,-36 "/>
<text text-anchor="start" x="274.5" y="-24" font-family="Helvetica,sans-Serif" font-size="10.00">+ __init__()</text>
<text text-anchor="start" x="274.5" y="-13" font-family="Helvetica,sans-Serif" font-size="10.00">+ TransferMatrix()</text>
</a>
</g>
</g>
<!-- Node9&#45;&gt;Node10 -->
<g id="edge9" class="edge">
<title>Node9&#45;&gt;Node10</title>
<path fill="none" stroke="midnightblue" d="M320,-105.98C320,-94.89 320,-83.9 320,-74.21"/>
<polygon fill="none" stroke="midnightblue" points="316.5,-106.16 320,-116.16 323.5,-106.16 316.5,-106.16"/>
</g>
<!-- Node11 -->
<g id="node11" class="node">
<title>Node11</title>
<g id="a_node11"><a xlink:href="classSignalIntegrity_1_1Lib_1_1SystemDescriptions_1_1VirtualProbeSymbolic_1_1VirtualProbeSymbolic.xhtml" target="_top" xlink:title=" ">
<polygon fill="white" stroke="black" points="399,-0.5 399,-79.5 521,-79.5 521,-0.5 399,-0.5"/>
<text text-anchor="middle" x="460" y="-67.5" font-family="Helvetica,sans-Serif" font-size="10.00">VirtualProbeSymbolic</text>
<polyline fill="none" stroke="black" points="399,-60.5 521,-60.5 "/>
<text text-anchor="middle" x="460" y="-48.5" font-family="Helvetica,sans-Serif" font-size="10.00"> </text>
<polyline fill="none" stroke="black" points="399,-41.5 521,-41.5 "/>
<text text-anchor="start" x="407" y="-29.5" font-family="Helvetica,sans-Serif" font-size="10.00">+ __init__()</text>
<text text-anchor="start" x="407" y="-18.5" font-family="Helvetica,sans-Serif" font-size="10.00">+ LaTeXTransferMatrix()</text>
<text text-anchor="start" x="407" y="-7.5" font-family="Helvetica,sans-Serif" font-size="10.00">+ LaTeXEquations()</text>
</a>
</g>
</g>
<!-- Node9&#45;&gt;Node11 -->
<g id="edge10" class="edge">
<title>Node9&#45;&gt;Node11</title>
<path fill="none" stroke="midnightblue" d="M383.46,-115.36C395.97,-103.2 408.76,-90.78 420.21,-79.65"/>
<polygon fill="none" stroke="midnightblue" points="380.87,-112.99 376.14,-122.47 385.75,-118.01 380.87,-112.99"/>
</g>
<!-- Node13 -->
<g id="node13" class="node">
<title>Node13</title>
<g id="a_node13"><a xlink:href="classSignalIntegrity_1_1Lib_1_1SystemDescriptions_1_1SystemSParametersSymbolic_1_1SystemSParametersSymbolic.xhtml" target="_top" xlink:title="Class for solving symbolically the s&#45;parameters of interconnected systems.">
<polygon fill="white" stroke="black" points="394,-144 394,-212 542,-212 542,-144 394,-144"/>
<text text-anchor="middle" x="468" y="-200" font-family="Helvetica,sans-Serif" font-size="10.00">SystemSParametersSymbolic</text>
<polyline fill="none" stroke="black" points="394,-193 542,-193 "/>
<text text-anchor="middle" x="468" y="-181" font-family="Helvetica,sans-Serif" font-size="10.00"> </text>
<polyline fill="none" stroke="black" points="394,-174 542,-174 "/>
<text text-anchor="start" x="402" y="-162" font-family="Helvetica,sans-Serif" font-size="10.00">+ __init__()</text>
<text text-anchor="start" x="402" y="-151" font-family="Helvetica,sans-Serif" font-size="10.00">+ LaTeXSolution()</text>
</a>
</g>
</g>
<!-- Node12&#45;&gt;Node13 -->
<g id="edge12" class="edge">
<title>Node12&#45;&gt;Node13</title>
<path fill="none" stroke="midnightblue" d="M449.73,-316.05C453.98,-284.18 459.69,-241.35 463.59,-212.11"/>
<polygon fill="none" stroke="midnightblue" points="446.25,-315.61 448.4,-325.99 453.19,-316.54 446.25,-315.61"/>
</g>
<!-- Node13&#45;&gt;Node8 -->
<g id="edge13" class="edge">
<title>Node13&#45;&gt;Node8</title>
<path fill="none" stroke="midnightblue" d="M518.6,-137.45C541.86,-119.27 569.35,-97.78 592.48,-79.71"/>
<polygon fill="none" stroke="midnightblue" points="516.29,-134.81 510.57,-143.73 520.6,-140.33 516.29,-134.81"/>
</g>
<!-- Node13&#45;&gt;Node11 -->
<g id="edge14" class="edge">
<title>Node13&#45;&gt;Node11</title>
<path fill="none" stroke="midnightblue" d="M465.43,-133.35C464.42,-116.1 463.26,-96.44 462.28,-79.71"/>
<polygon fill="none" stroke="midnightblue" points="461.96,-133.95 466.04,-143.73 468.95,-133.54 461.96,-133.95"/>
</g>
</g>
</svg>
