<?xml version="1.0" encoding="UTF-8" standalone="no"?>
<!DOCTYPE svg PUBLIC "-//W3C//DTD SVG 1.1//EN"
 "http://www.w3.org/Graphics/SVG/1.1/DTD/svg11.dtd">
<!-- Generated by graphviz version 2.40.1 (20161225.0304)
 -->
<!-- Title: Numeric Pages: 1 -->
<svg width="524pt" height="226pt"
 viewBox="0.00 0.00 523.50 226.00" xmlns="http://www.w3.org/2000/svg" xmlns:xlink="http://www.w3.org/1999/xlink">
<g id="graph0" class="graph" transform="scale(1 1) rotate(0) translate(4 222)">
<title>Numeric</title>
<polygon fill="#ffffff" stroke="transparent" points="-4,4 -4,-222 519.5,-222 519.5,4 -4,4"/>
<!-- Node0 -->
<g id="node1" class="node">
<title>Node0</title>
<polygon fill="#bfbfbf" stroke="#000000" points="189,-105.5 189,-217.5 309,-217.5 309,-105.5 189,-105.5"/>
<text text-anchor="middle" x="249" y="-205.5" font-family="Helvetica,sans-Serif" font-size="10.00" fill="#000000">Numeric</text>
<polyline fill="none" stroke="#000000" points="189,-198.5 309,-198.5 "/>
<text text-anchor="start" x="197" y="-186.5" font-family="Helvetica,sans-Serif" font-size="10.00" fill="#000000">+ alwaysUseSVD</text>
<text text-anchor="start" x="197" y="-175.5" font-family="Helvetica,sans-Serif" font-size="10.00" fill="#000000">+ trySVD</text>
<text text-anchor="start" x="197" y="-164.5" font-family="Helvetica,sans-Serif" font-size="10.00" fill="#000000">+ singularValueLimit</text>
<text text-anchor="start" x="197" y="-153.5" font-family="Helvetica,sans-Serif" font-size="10.00" fill="#000000">+ conditionNumberLimit</text>
<polyline fill="none" stroke="#000000" points="189,-146.5 309,-146.5 "/>
<text text-anchor="start" x="197" y="-134.5" font-family="Helvetica,sans-Serif" font-size="10.00" fill="#000000">+ InstallSafeTees()</text>
<text text-anchor="start" x="197" y="-123.5" font-family="Helvetica,sans-Serif" font-size="10.00" fill="#000000">+ Dagger()</text>
<text text-anchor="start" x="197" y="-112.5" font-family="Helvetica,sans-Serif" font-size="10.00" fill="#000000">+ PermutationMatrix()</text>
</g>
<!-- Node1 -->
<g id="node2" class="node">
<title>Node1</title>
<g id="a_node2"><a xlink:href="classSignalIntegrity_1_1Lib_1_1SystemDescriptions_1_1DeembedderNumeric_1_1DeembedderNumeric.xhtml" target="_top" xlink:title="Performs numerical device deembedding. ">
<polygon fill="#ffffff" stroke="#000000" points="0,-.5 0,-68.5 114,-68.5 114,-.5 0,-.5"/>
<text text-anchor="middle" x="57" y="-56.5" font-family="Helvetica,sans-Serif" font-size="10.00" fill="#000000">DeembedderNumeric</text>
<polyline fill="none" stroke="#000000" points="0,-49.5 114,-49.5 "/>
<text text-anchor="middle" x="57" y="-37.5" font-family="Helvetica,sans-Serif" font-size="10.00" fill="#000000"> </text>
<polyline fill="none" stroke="#000000" points="0,-30.5 114,-30.5 "/>
<text text-anchor="start" x="8" y="-18.5" font-family="Helvetica,sans-Serif" font-size="10.00" fill="#000000">+ __init__()</text>
<text text-anchor="start" x="8" y="-7.5" font-family="Helvetica,sans-Serif" font-size="10.00" fill="#000000">+ CalculateUnknown()</text>
</a>
</g>
</g>
<!-- Node0&#45;&gt;Node1 -->
<g id="edge1" class="edge">
<title>Node0&#45;&gt;Node1</title>
<path fill="none" stroke="#191970" d="M180.2009,-115.9923C156.5979,-100.3798 130.6037,-83.1858 108.6004,-68.6315"/>
<polygon fill="none" stroke="#191970" points="178.5054,-119.0671 188.7768,-121.6649 182.3672,-113.2287 178.5054,-119.0671"/>
</g>
<!-- Node2 -->
<g id="node3" class="node">
<title>Node2</title>
<g id="a_node3"><a xlink:href="classSignalIntegrity_1_1Lib_1_1SystemDescriptions_1_1SimulatorNumeric_1_1SimulatorNumeric.xhtml" target="_top" xlink:title="class for performing numeric simulations ">
<polygon fill="#ffffff" stroke="#000000" points="132.5,-.5 132.5,-68.5 227.5,-68.5 227.5,-.5 132.5,-.5"/>
<text text-anchor="middle" x="180" y="-56.5" font-family="Helvetica,sans-Serif" font-size="10.00" fill="#000000">SimulatorNumeric</text>
<polyline fill="none" stroke="#000000" points="132.5,-49.5 227.5,-49.5 "/>
<text text-anchor="middle" x="180" y="-37.5" font-family="Helvetica,sans-Serif" font-size="10.00" fill="#000000"> </text>
<polyline fill="none" stroke="#000000" points="132.5,-30.5 227.5,-30.5 "/>
<text text-anchor="start" x="140.5" y="-18.5" font-family="Helvetica,sans-Serif" font-size="10.00" fill="#000000">+ __init__()</text>
<text text-anchor="start" x="140.5" y="-7.5" font-family="Helvetica,sans-Serif" font-size="10.00" fill="#000000">+ TransferMatrix()</text>
</a>
</g>
</g>
<!-- Node0&#45;&gt;Node2 -->
<g id="edge2" class="edge">
<title>Node0&#45;&gt;Node2</title>
<path fill="none" stroke="#191970" d="M213.7415,-96.6039C208.5143,-86.9829 203.3103,-77.4045 198.6099,-68.753"/>
<polygon fill="none" stroke="#191970" points="210.6853,-98.3103 218.5347,-105.4263 216.8361,-94.9685 210.6853,-98.3103"/>
</g>
<!-- Node3 -->
<g id="node4" class="node">
<title>Node3</title>
<g id="a_node4"><a xlink:href="classSignalIntegrity_1_1Lib_1_1SystemDescriptions_1_1SystemSParametersNumeric_1_1SystemSParametersNumeric.xhtml" target="_top" xlink:title="Class for computing s&#45;parameters of interconnected systems. ">
<polygon fill="#ffffff" stroke="#000000" points="246,-.5 246,-68.5 390,-68.5 390,-.5 246,-.5"/>
<text text-anchor="middle" x="318" y="-56.5" font-family="Helvetica,sans-Serif" font-size="10.00" fill="#000000">SystemSParametersNumeric</text>
<polyline fill="none" stroke="#000000" points="246,-49.5 390,-49.5 "/>
<text text-anchor="middle" x="318" y="-37.5" font-family="Helvetica,sans-Serif" font-size="10.00" fill="#000000"> </text>
<polyline fill="none" stroke="#000000" points="246,-30.5 390,-30.5 "/>
<text text-anchor="start" x="254" y="-18.5" font-family="Helvetica,sans-Serif" font-size="10.00" fill="#000000">+ __init__()</text>
<text text-anchor="start" x="254" y="-7.5" font-family="Helvetica,sans-Serif" font-size="10.00" fill="#000000">+ SParameters()</text>
</a>
</g>
</g>
<!-- Node0&#45;&gt;Node3 -->
<g id="edge3" class="edge">
<title>Node0&#45;&gt;Node3</title>
<path fill="none" stroke="#191970" d="M284.2585,-96.6039C289.4857,-86.9829 294.6897,-77.4045 299.3901,-68.753"/>
<polygon fill="none" stroke="#191970" points="281.1639,-94.9685 279.4653,-105.4263 287.3147,-98.3103 281.1639,-94.9685"/>
</g>
<!-- Node4 -->
<g id="node5" class="node">
<title>Node4</title>
<g id="a_node5"><a xlink:href="classSignalIntegrity_1_1Lib_1_1SystemDescriptions_1_1VirtualProbeNumeric_1_1VirtualProbeNumeric.xhtml" target="_top" xlink:title="class for performing virtual probing numerically. ">
<polygon fill="#ffffff" stroke="#000000" points="408.5,-.5 408.5,-68.5 515.5,-68.5 515.5,-.5 408.5,-.5"/>
<text text-anchor="middle" x="462" y="-56.5" font-family="Helvetica,sans-Serif" font-size="10.00" fill="#000000">VirtualProbeNumeric</text>
<polyline fill="none" stroke="#000000" points="408.5,-49.5 515.5,-49.5 "/>
<text text-anchor="middle" x="462" y="-37.5" font-family="Helvetica,sans-Serif" font-size="10.00" fill="#000000"> </text>
<polyline fill="none" stroke="#000000" points="408.5,-30.5 515.5,-30.5 "/>
<text text-anchor="start" x="416.5" y="-18.5" font-family="Helvetica,sans-Serif" font-size="10.00" fill="#000000">+ __init__()</text>
<text text-anchor="start" x="416.5" y="-7.5" font-family="Helvetica,sans-Serif" font-size="10.00" fill="#000000">+ TransferMatrix()</text>
</a>
</g>
</g>
<!-- Node0&#45;&gt;Node4 -->
<g id="edge4" class="edge">
<title>Node0&#45;&gt;Node4</title>
<path fill="none" stroke="#191970" d="M318.1339,-120.2793C347.4608,-102.7933 381.1168,-82.7262 408.4992,-66.3995"/>
<polygon fill="none" stroke="#191970" points="315.9799,-117.4887 309.1832,-125.6161 319.5648,-123.5011 315.9799,-117.4887"/>
</g>
</g>
</svg>
