<?xml version="1.0" encoding="UTF-8" standalone="no"?>
<!DOCTYPE svg PUBLIC "-//W3C//DTD SVG 1.1//EN"
 "http://www.w3.org/Graphics/SVG/1.1/DTD/svg11.dtd">
<!-- Generated by graphviz version 2.43.0 (0)
 -->
<!-- Title: ThruCalibrationMeasurement Pages: 1 -->
<svg width="167pt" height="215pt"
 viewBox="0.00 0.00 167.00 215.00" xmlns="http://www.w3.org/2000/svg" xmlns:xlink="http://www.w3.org/1999/xlink">
<g id="graph0" class="graph" transform="scale(1 1) rotate(0) translate(4 211)">
<title>ThruCalibrationMeasurement</title>
<polygon fill="white" stroke="transparent" points="-4,4 -4,-211 163,-211 163,4 -4,4"/>
<!-- Node1 -->
<g id="node1" class="node">
<title>Node1</title>
<g id="a_node1"><a xlink:title="A thru calibration measurement taken between two ports.">
<polygon fill="#bfbfbf" stroke="black" points="0,-0.5 0,-101.5 159,-101.5 159,-0.5 0,-0.5"/>
<text text-anchor="middle" x="79.5" y="-89.5" font-family="Helvetica,sans-Serif" font-size="10.00">ThruCalibrationMeasurement</text>
<polyline fill="none" stroke="black" points="0,-82.5 159,-82.5 "/>
<text text-anchor="start" x="8" y="-70.5" font-family="Helvetica,sans-Serif" font-size="10.00">+ b1a1</text>
<text text-anchor="start" x="8" y="-59.5" font-family="Helvetica,sans-Serif" font-size="10.00">+ b2a1</text>
<text text-anchor="start" x="8" y="-48.5" font-family="Helvetica,sans-Serif" font-size="10.00">+ S</text>
<text text-anchor="start" x="8" y="-37.5" font-family="Helvetica,sans-Serif" font-size="10.00">+ portDriven</text>
<text text-anchor="start" x="8" y="-26.5" font-family="Helvetica,sans-Serif" font-size="10.00">+ otherPort</text>
<polyline fill="none" stroke="black" points="0,-19.5 159,-19.5 "/>
<text text-anchor="start" x="8" y="-7.5" font-family="Helvetica,sans-Serif" font-size="10.00">+ __init__()</text>
</a>
</g>
</g>
<!-- Node2 -->
<g id="node2" class="node">
<title>Node2</title>
<g id="a_node2"><a xlink:href="classSignalIntegrity_1_1Lib_1_1Measurement_1_1Calibration_1_1CalibrationMeasurements_1_1CalibrationMeasurement.xhtml" target="_top" xlink:title="Calibration Measurements.">
<polygon fill="white" stroke="black" points="11,-138.5 11,-206.5 148,-206.5 148,-138.5 11,-138.5"/>
<text text-anchor="middle" x="79.5" y="-194.5" font-family="Helvetica,sans-Serif" font-size="10.00">CalibrationMeasurement</text>
<polyline fill="none" stroke="black" points="11,-187.5 148,-187.5 "/>
<text text-anchor="start" x="19" y="-175.5" font-family="Helvetica,sans-Serif" font-size="10.00">+ type</text>
<text text-anchor="start" x="19" y="-164.5" font-family="Helvetica,sans-Serif" font-size="10.00">+ name</text>
<polyline fill="none" stroke="black" points="11,-157.5 148,-157.5 "/>
<text text-anchor="start" x="19" y="-145.5" font-family="Helvetica,sans-Serif" font-size="10.00">+ __init__()</text>
</a>
</g>
</g>
<!-- Node2&#45;&gt;Node1 -->
<g id="edge1" class="edge">
<title>Node2&#45;&gt;Node1</title>
<path fill="none" stroke="midnightblue" d="M79.5,-128.05C79.5,-119.47 79.5,-110.41 79.5,-101.65"/>
<polygon fill="none" stroke="midnightblue" points="76,-128.21 79.5,-138.21 83,-128.21 76,-128.21"/>
</g>
</g>
</svg>
