<?xml version="1.0" encoding="UTF-8" standalone="no"?>
<!DOCTYPE svg PUBLIC "-//W3C//DTD SVG 1.1//EN"
 "http://www.w3.org/Graphics/SVG/1.1/DTD/svg11.dtd">
<!-- Generated by graphviz version 2.40.1 (20161225.0304)
 -->
<!-- Title: ThruCalibrationMeasurement Pages: 1 -->
<svg width="150pt" height="215pt"
 viewBox="0.00 0.00 150.00 215.00" xmlns="http://www.w3.org/2000/svg" xmlns:xlink="http://www.w3.org/1999/xlink">
<g id="graph0" class="graph" transform="scale(1 1) rotate(0) translate(4 211)">
<title>ThruCalibrationMeasurement</title>
<polygon fill="#ffffff" stroke="transparent" points="-4,4 -4,-211 146,-211 146,4 -4,4"/>
<!-- Node0 -->
<g id="node1" class="node">
<title>Node0</title>
<polygon fill="#bfbfbf" stroke="#000000" points="0,-.5 0,-101.5 142,-101.5 142,-.5 0,-.5"/>
<text text-anchor="middle" x="71" y="-89.5" font-family="Helvetica,sans-Serif" font-size="10.00" fill="#000000">ThruCalibrationMeasurement</text>
<polyline fill="none" stroke="#000000" points="0,-82.5 142,-82.5 "/>
<text text-anchor="start" x="8" y="-70.5" font-family="Helvetica,sans-Serif" font-size="10.00" fill="#000000">+ b1a1</text>
<text text-anchor="start" x="8" y="-59.5" font-family="Helvetica,sans-Serif" font-size="10.00" fill="#000000">+ b2a1</text>
<text text-anchor="start" x="8" y="-48.5" font-family="Helvetica,sans-Serif" font-size="10.00" fill="#000000">+ S</text>
<text text-anchor="start" x="8" y="-37.5" font-family="Helvetica,sans-Serif" font-size="10.00" fill="#000000">+ portDriven</text>
<text text-anchor="start" x="8" y="-26.5" font-family="Helvetica,sans-Serif" font-size="10.00" fill="#000000">+ otherPort</text>
<polyline fill="none" stroke="#000000" points="0,-19.5 142,-19.5 "/>
<text text-anchor="start" x="8" y="-7.5" font-family="Helvetica,sans-Serif" font-size="10.00" fill="#000000">+ __init__()</text>
</g>
<!-- Node1 -->
<g id="node2" class="node">
<title>Node1</title>
<g id="a_node2"><a xlink:href="classSignalIntegrity_1_1Lib_1_1Measurement_1_1Calibration_1_1CalibrationMeasurements_1_1CalibrationMeasurement.xhtml" target="_top" xlink:title="Calibration Measurements. ">
<polygon fill="#ffffff" stroke="#000000" points="10,-138.5 10,-206.5 132,-206.5 132,-138.5 10,-138.5"/>
<text text-anchor="middle" x="71" y="-194.5" font-family="Helvetica,sans-Serif" font-size="10.00" fill="#000000">CalibrationMeasurement</text>
<polyline fill="none" stroke="#000000" points="10,-187.5 132,-187.5 "/>
<text text-anchor="start" x="18" y="-175.5" font-family="Helvetica,sans-Serif" font-size="10.00" fill="#000000">+ type</text>
<text text-anchor="start" x="18" y="-164.5" font-family="Helvetica,sans-Serif" font-size="10.00" fill="#000000">+ name</text>
<polyline fill="none" stroke="#000000" points="10,-157.5 132,-157.5 "/>
<text text-anchor="start" x="18" y="-145.5" font-family="Helvetica,sans-Serif" font-size="10.00" fill="#000000">+ __init__()</text>
</a>
</g>
</g>
<!-- Node1&#45;&gt;Node0 -->
<g id="edge1" class="edge">
<title>Node1&#45;&gt;Node0</title>
<path fill="none" stroke="#191970" d="M71,-128.1349C71,-119.5408 71,-110.474 71,-101.6952"/>
<polygon fill="none" stroke="#191970" points="67.5001,-128.3321 71,-138.3321 74.5001,-128.3322 67.5001,-128.3321"/>
</g>
</g>
</svg>
