<?xml version="1.0" encoding="UTF-8" standalone="no"?>
<!DOCTYPE svg PUBLIC "-//W3C//DTD SVG 1.1//EN"
 "http://www.w3.org/Graphics/SVG/1.1/DTD/svg11.dtd">
<!-- Generated by graphviz version 2.43.0 (0)
 -->
<!-- Title: DeembedderNumericParser Pages: 1 -->
<svg width="398pt" height="601pt"
 viewBox="0.00 0.00 397.50 601.00" xmlns="http://www.w3.org/2000/svg" xmlns:xlink="http://www.w3.org/1999/xlink">
<g id="graph0" class="graph" transform="scale(1 1) rotate(0) translate(4 597)">
<title>DeembedderNumericParser</title>
<polygon fill="white" stroke="transparent" points="-4,4 -4,-597 393.5,-597 393.5,4 -4,4"/>
<!-- Node1 -->
<g id="node1" class="node">
<title>Node1</title>
<g id="a_node1"><a xlink:title="generates deembedd s&#45;parameters from a netlist">
<polygon fill="#bfbfbf" stroke="black" points="149.5,-0.5 149.5,-68.5 286.5,-68.5 286.5,-0.5 149.5,-0.5"/>
<text text-anchor="middle" x="218" y="-56.5" font-family="Helvetica,sans-Serif" font-size="10.00">DeembedderNumericParser</text>
<polyline fill="none" stroke="black" points="149.5,-49.5 286.5,-49.5 "/>
<text text-anchor="start" x="157.5" y="-37.5" font-family="Helvetica,sans-Serif" font-size="10.00">+ sf</text>
<polyline fill="none" stroke="black" points="149.5,-30.5 286.5,-30.5 "/>
<text text-anchor="start" x="157.5" y="-18.5" font-family="Helvetica,sans-Serif" font-size="10.00">+ __init__()</text>
<text text-anchor="start" x="157.5" y="-7.5" font-family="Helvetica,sans-Serif" font-size="10.00">+ Deembed()</text>
</a>
</g>
</g>
<!-- Node2 -->
<g id="node2" class="node">
<title>Node2</title>
<g id="a_node2"><a xlink:href="classSignalIntegrity_1_1Lib_1_1Parsers_1_1DeembedderParser_1_1DeembedderParser.xhtml" target="_top" xlink:title="base class for netlist based deembedding solutions">
<polygon fill="white" stroke="black" points="45.5,-122 45.5,-190 146.5,-190 146.5,-122 45.5,-122"/>
<text text-anchor="middle" x="96" y="-178" font-family="Helvetica,sans-Serif" font-size="10.00">DeembedderParser</text>
<polyline fill="none" stroke="black" points="45.5,-171 146.5,-171 "/>
<text text-anchor="start" x="53.5" y="-159" font-family="Helvetica,sans-Serif" font-size="10.00">+ m_sd</text>
<text text-anchor="start" x="53.5" y="-148" font-family="Helvetica,sans-Serif" font-size="10.00">+ m_ul</text>
<polyline fill="none" stroke="black" points="45.5,-141 146.5,-141 "/>
<text text-anchor="start" x="53.5" y="-129" font-family="Helvetica,sans-Serif" font-size="10.00">+ __init__()</text>
</a>
</g>
</g>
<!-- Node2&#45;&gt;Node1 -->
<g id="edge1" class="edge">
<title>Node2&#45;&gt;Node1</title>
<path fill="none" stroke="midnightblue" d="M137.31,-114.54C152.57,-99.59 169.68,-82.83 184.2,-68.61"/>
<polygon fill="none" stroke="midnightblue" points="134.68,-112.21 129.98,-121.71 139.58,-117.22 134.68,-112.21"/>
</g>
<!-- Node3 -->
<g id="node3" class="node">
<title>Node3</title>
<g id="a_node3"><a xlink:href="classSignalIntegrity_1_1Lib_1_1Parsers_1_1SystemDescriptionParser_1_1SystemDescriptionParser.xhtml" target="_top" xlink:title="Parses netlists and produces system descriptions.">
<polygon fill="white" stroke="black" points="32,-243.5 32,-465.5 160,-465.5 160,-243.5 32,-243.5"/>
<text text-anchor="middle" x="96" y="-453.5" font-family="Helvetica,sans-Serif" font-size="10.00">SystemDescriptionParser</text>
<polyline fill="none" stroke="black" points="32,-446.5 160,-446.5 "/>
<text text-anchor="start" x="40" y="-434.5" font-family="Helvetica,sans-Serif" font-size="10.00">+ m_sd</text>
<text text-anchor="start" x="40" y="-423.5" font-family="Helvetica,sans-Serif" font-size="10.00">+ m_f</text>
<text text-anchor="start" x="40" y="-412.5" font-family="Helvetica,sans-Serif" font-size="10.00">+ m_lines</text>
<text text-anchor="start" x="40" y="-401.5" font-family="Helvetica,sans-Serif" font-size="10.00">+ m_addThru</text>
<text text-anchor="start" x="40" y="-390.5" font-family="Helvetica,sans-Serif" font-size="10.00">+ known</text>
<text text-anchor="start" x="40" y="-379.5" font-family="Helvetica,sans-Serif" font-size="10.00">+ callback</text>
<text text-anchor="start" x="40" y="-368.5" font-family="Helvetica,sans-Serif" font-size="10.00">+ m_Z0</text>
<text text-anchor="start" x="40" y="-357.5" font-family="Helvetica,sans-Serif" font-size="10.00">+ delayDict</text>
<text text-anchor="start" x="40" y="-346.5" font-family="Helvetica,sans-Serif" font-size="10.00">+ m_spc</text>
<text text-anchor="start" x="40" y="-335.5" font-family="Helvetica,sans-Serif" font-size="10.00">+ m_spcl</text>
<text text-anchor="start" x="40" y="-324.5" font-family="Helvetica,sans-Serif" font-size="10.00">+ m_ul</text>
<text text-anchor="start" x="40" y="-313.5" font-family="Helvetica,sans-Serif" font-size="10.00">+ MultiPortTee</text>
<polyline fill="none" stroke="black" points="32,-306.5 160,-306.5 "/>
<text text-anchor="start" x="40" y="-294.5" font-family="Helvetica,sans-Serif" font-size="10.00">+ __init__()</text>
<text text-anchor="start" x="40" y="-283.5" font-family="Helvetica,sans-Serif" font-size="10.00">+ SystemDescription()</text>
<text text-anchor="start" x="40" y="-272.5" font-family="Helvetica,sans-Serif" font-size="10.00">+ AddKnownDevices()</text>
<text text-anchor="start" x="40" y="-261.5" font-family="Helvetica,sans-Serif" font-size="10.00">+ AddLine()</text>
<text text-anchor="start" x="40" y="-250.5" font-family="Helvetica,sans-Serif" font-size="10.00">+ AddLines()</text>
</a>
</g>
</g>
<!-- Node3&#45;&gt;Node2 -->
<g id="edge2" class="edge">
<title>Node3&#45;&gt;Node2</title>
<path fill="none" stroke="midnightblue" d="M96,-233.06C96,-217.35 96,-202.45 96,-190.06"/>
<polygon fill="none" stroke="midnightblue" points="92.5,-233.47 96,-243.47 99.5,-233.47 92.5,-233.47"/>
</g>
<!-- Node4 -->
<g id="node4" class="node">
<title>Node4</title>
<g id="a_node4"><a xlink:href="classSignalIntegrity_1_1Lib_1_1Parsers_1_1ParserFile_1_1ParserFile.xhtml" target="_top" xlink:title="file handling base class for parsers">
<polygon fill="white" stroke="black" points="0,-513.5 0,-581.5 80,-581.5 80,-513.5 0,-513.5"/>
<text text-anchor="middle" x="40" y="-569.5" font-family="Helvetica,sans-Serif" font-size="10.00">ParserFile</text>
<polyline fill="none" stroke="black" points="0,-562.5 80,-562.5 "/>
<text text-anchor="middle" x="40" y="-550.5" font-family="Helvetica,sans-Serif" font-size="10.00"> </text>
<polyline fill="none" stroke="black" points="0,-543.5 80,-543.5 "/>
<text text-anchor="start" x="8" y="-531.5" font-family="Helvetica,sans-Serif" font-size="10.00">+ File()</text>
<text text-anchor="start" x="8" y="-520.5" font-family="Helvetica,sans-Serif" font-size="10.00">+ WriteToFile()</text>
</a>
</g>
</g>
<!-- Node4&#45;&gt;Node3 -->
<g id="edge3" class="edge">
<title>Node4&#45;&gt;Node3</title>
<path fill="none" stroke="midnightblue" d="M52.59,-503.57C55.94,-492.13 59.73,-479.21 63.63,-465.91"/>
<polygon fill="none" stroke="midnightblue" points="49.21,-502.65 49.75,-513.23 55.93,-504.62 49.21,-502.65"/>
</g>
<!-- Node5 -->
<g id="node5" class="node">
<title>Node5</title>
<g id="a_node5"><a xlink:href="classSignalIntegrity_1_1Lib_1_1Parsers_1_1ParserArgs_1_1ParserArgs.xhtml" target="_top" xlink:title="argument handling base class for parsers">
<polygon fill="white" stroke="black" points="98,-502.5 98,-592.5 206,-592.5 206,-502.5 98,-502.5"/>
<text text-anchor="middle" x="152" y="-580.5" font-family="Helvetica,sans-Serif" font-size="10.00">ParserArgs</text>
<polyline fill="none" stroke="black" points="98,-573.5 206,-573.5 "/>
<text text-anchor="start" x="106" y="-561.5" font-family="Helvetica,sans-Serif" font-size="10.00">+ m_vars</text>
<text text-anchor="start" x="106" y="-550.5" font-family="Helvetica,sans-Serif" font-size="10.00">+ m_args</text>
<polyline fill="none" stroke="black" points="98,-543.5 206,-543.5 "/>
<text text-anchor="start" x="106" y="-531.5" font-family="Helvetica,sans-Serif" font-size="10.00">+ AssignArguments()</text>
<text text-anchor="start" x="106" y="-520.5" font-family="Helvetica,sans-Serif" font-size="10.00">+ ReplaceArgs()</text>
<text text-anchor="start" x="106" y="-509.5" font-family="Helvetica,sans-Serif" font-size="10.00">+ ProcessVariables()</text>
</a>
</g>
</g>
<!-- Node5&#45;&gt;Node3 -->
<g id="edge4" class="edge">
<title>Node5&#45;&gt;Node3</title>
<path fill="none" stroke="midnightblue" d="M136.17,-492.52C133.69,-484.04 131.04,-475.02 128.34,-465.81"/>
<polygon fill="none" stroke="midnightblue" points="132.84,-493.59 139.01,-502.2 139.56,-491.62 132.84,-493.59"/>
</g>
<!-- Node6 -->
<g id="node6" class="node">
<title>Node6</title>
<g id="a_node6"><a xlink:href="classSignalIntegrity_1_1Lib_1_1CallBacker_1_1CallBacker.xhtml" target="_top" xlink:title="Handles Callbacks that allow progress reporting during long calculations and capability to abort.">
<polygon fill="white" stroke="black" points="164.5,-105.5 164.5,-206.5 271.5,-206.5 271.5,-105.5 164.5,-105.5"/>
<text text-anchor="middle" x="218" y="-194.5" font-family="Helvetica,sans-Serif" font-size="10.00">CallBacker</text>
<polyline fill="none" stroke="black" points="164.5,-187.5 271.5,-187.5 "/>
<text text-anchor="start" x="172.5" y="-175.5" font-family="Helvetica,sans-Serif" font-size="10.00">+ callback</text>
<polyline fill="none" stroke="black" points="164.5,-168.5 271.5,-168.5 "/>
<text text-anchor="start" x="172.5" y="-156.5" font-family="Helvetica,sans-Serif" font-size="10.00">+ __init__()</text>
<text text-anchor="start" x="172.5" y="-145.5" font-family="Helvetica,sans-Serif" font-size="10.00">+ HasACallBack()</text>
<text text-anchor="start" x="172.5" y="-134.5" font-family="Helvetica,sans-Serif" font-size="10.00">+ CallBack()</text>
<text text-anchor="start" x="172.5" y="-123.5" font-family="Helvetica,sans-Serif" font-size="10.00">+ InstallCallback()</text>
<text text-anchor="start" x="172.5" y="-112.5" font-family="Helvetica,sans-Serif" font-size="10.00">+ RemoveCallback()</text>
</a>
</g>
</g>
<!-- Node6&#45;&gt;Node1 -->
<g id="edge5" class="edge">
<title>Node6&#45;&gt;Node1</title>
<path fill="none" stroke="midnightblue" d="M218,-95.17C218,-86.11 218,-77.05 218,-68.83"/>
<polygon fill="none" stroke="midnightblue" points="214.5,-95.36 218,-105.36 221.5,-95.36 214.5,-95.36"/>
</g>
<!-- Node7 -->
<g id="node7" class="node">
<title>Node7</title>
<g id="a_node7"><a xlink:href="classSignalIntegrity_1_1Lib_1_1ResultsCache_1_1LinesCache.xhtml" target="_top" xlink:title="Caches results calculated based on netlist lines, as used in all of the parser classes.">
<polygon fill="white" stroke="black" points="289.5,-116.5 289.5,-195.5 376.5,-195.5 376.5,-116.5 289.5,-116.5"/>
<text text-anchor="middle" x="333" y="-183.5" font-family="Helvetica,sans-Serif" font-size="10.00">LinesCache</text>
<polyline fill="none" stroke="black" points="289.5,-176.5 376.5,-176.5 "/>
<text text-anchor="middle" x="333" y="-164.5" font-family="Helvetica,sans-Serif" font-size="10.00"> </text>
<polyline fill="none" stroke="black" points="289.5,-157.5 376.5,-157.5 "/>
<text text-anchor="start" x="297.5" y="-145.5" font-family="Helvetica,sans-Serif" font-size="10.00">+ __init__()</text>
<text text-anchor="start" x="297.5" y="-134.5" font-family="Helvetica,sans-Serif" font-size="10.00">+ HashValue()</text>
<text text-anchor="start" x="297.5" y="-123.5" font-family="Helvetica,sans-Serif" font-size="10.00">+ CheckTimes()</text>
</a>
</g>
</g>
<!-- Node7&#45;&gt;Node1 -->
<g id="edge6" class="edge">
<title>Node7&#45;&gt;Node1</title>
<path fill="none" stroke="midnightblue" d="M288.65,-108.91C275.82,-95.58 262.06,-81.28 250.13,-68.89"/>
<polygon fill="none" stroke="midnightblue" points="286.21,-111.42 295.66,-116.2 291.25,-106.57 286.21,-111.42"/>
</g>
<!-- Node8 -->
<g id="node8" class="node">
<title>Node8</title>
<g id="a_node8"><a xlink:href="classSignalIntegrity_1_1Lib_1_1ResultsCache_1_1ResultsCache.xhtml" target="_top" xlink:title="base class for results caching">
<polygon fill="white" stroke="black" points="276.5,-249 276.5,-460 389.5,-460 389.5,-249 276.5,-249"/>
<text text-anchor="middle" x="333" y="-448" font-family="Helvetica,sans-Serif" font-size="10.00">ResultsCache</text>
<polyline fill="none" stroke="black" points="276.5,-441 389.5,-441 "/>
<text text-anchor="start" x="284.5" y="-429" font-family="Helvetica,sans-Serif" font-size="10.00">+ filename</text>
<text text-anchor="start" x="284.5" y="-418" font-family="Helvetica,sans-Serif" font-size="10.00">+ extra</text>
<text text-anchor="start" x="284.5" y="-407" font-family="Helvetica,sans-Serif" font-size="10.00">+ extension</text>
<text text-anchor="start" x="284.5" y="-396" font-family="Helvetica,sans-Serif" font-size="10.00">+ hash</text>
<text text-anchor="start" x="284.5" y="-385" font-family="Helvetica,sans-Serif" font-size="10.00">+ files_to_keep</text>
<text text-anchor="start" x="284.5" y="-374" font-family="Helvetica,sans-Serif" font-size="10.00">+ files_to_keep</text>
<text text-anchor="start" x="284.5" y="-363" font-family="Helvetica,sans-Serif" font-size="10.00">+ keep_extra_file_for</text>
<text text-anchor="start" x="284.5" y="-352" font-family="Helvetica,sans-Serif" font-size="10.00">_archive</text>
<text text-anchor="start" x="284.5" y="-341" font-family="Helvetica,sans-Serif" font-size="10.00">+ check_times</text>
<text text-anchor="start" x="284.5" y="-330" font-family="Helvetica,sans-Serif" font-size="10.00">+ logging</text>
<polyline fill="none" stroke="black" points="276.5,-323 389.5,-323 "/>
<text text-anchor="start" x="284.5" y="-311" font-family="Helvetica,sans-Serif" font-size="10.00">+ __init__()</text>
<text text-anchor="start" x="284.5" y="-300" font-family="Helvetica,sans-Serif" font-size="10.00">+ HashValue()</text>
<text text-anchor="start" x="284.5" y="-289" font-family="Helvetica,sans-Serif" font-size="10.00">+ CheckCache()</text>
<text text-anchor="start" x="284.5" y="-278" font-family="Helvetica,sans-Serif" font-size="10.00">+ CacheResult()</text>
<text text-anchor="start" x="284.5" y="-267" font-family="Helvetica,sans-Serif" font-size="10.00">+ CheckTimes()</text>
<text text-anchor="start" x="284.5" y="-256" font-family="Helvetica,sans-Serif" font-size="10.00">+ PreferencesCache()</text>
</a>
</g>
</g>
<!-- Node8&#45;&gt;Node7 -->
<g id="edge7" class="edge">
<title>Node8&#45;&gt;Node7</title>
<path fill="none" stroke="midnightblue" d="M333,-238.69C333,-223.22 333,-208.32 333,-195.57"/>
<polygon fill="none" stroke="midnightblue" points="329.5,-238.92 333,-248.92 336.5,-238.92 329.5,-238.92"/>
</g>
</g>
</svg>
