<?xml version="1.0" encoding="UTF-8" standalone="no"?>
<!DOCTYPE svg PUBLIC "-//W3C//DTD SVG 1.1//EN"
 "http://www.w3.org/Graphics/SVG/1.1/DTD/svg11.dtd">
<!-- Generated by graphviz version 2.40.1 (20161225.0304)
 -->
<!-- Title: DeembedderNumeric Pages: 1 -->
<svg width="257pt" height="601pt"
 viewBox="0.00 0.00 257.50 601.00" xmlns="http://www.w3.org/2000/svg" xmlns:xlink="http://www.w3.org/1999/xlink">
<g id="graph0" class="graph" transform="scale(1 1) rotate(0) translate(4 597)">
<title>DeembedderNumeric</title>
<polygon fill="#ffffff" stroke="transparent" points="-4,4 -4,-597 253.5,-597 253.5,4 -4,4"/>
<!-- Node0 -->
<g id="node1" class="node">
<title>Node0</title>
<polygon fill="#bfbfbf" stroke="#000000" points="67.5,-.5 67.5,-68.5 181.5,-68.5 181.5,-.5 67.5,-.5"/>
<text text-anchor="middle" x="124.5" y="-56.5" font-family="Helvetica,sans-Serif" font-size="10.00" fill="#000000">DeembedderNumeric</text>
<polyline fill="none" stroke="#000000" points="67.5,-49.5 181.5,-49.5 "/>
<text text-anchor="middle" x="124.5" y="-37.5" font-family="Helvetica,sans-Serif" font-size="10.00" fill="#000000"> </text>
<polyline fill="none" stroke="#000000" points="67.5,-30.5 181.5,-30.5 "/>
<text text-anchor="start" x="75.5" y="-18.5" font-family="Helvetica,sans-Serif" font-size="10.00" fill="#000000">+ __init__()</text>
<text text-anchor="start" x="75.5" y="-7.5" font-family="Helvetica,sans-Serif" font-size="10.00" fill="#000000">+ CalculateUnknown()</text>
</g>
<!-- Node1 -->
<g id="node2" class="node">
<title>Node1</title>
<g id="a_node2"><a xlink:href="classSignalIntegrity_1_1Lib_1_1SystemDescriptions_1_1Deembedder_1_1Deembedder.xhtml" target="_top" xlink:title="housekeeping base class for deembedders ">
<polygon fill="#ffffff" stroke="#000000" points="7.5,-105.5 7.5,-228.5 111.5,-228.5 111.5,-105.5 7.5,-105.5"/>
<text text-anchor="middle" x="59.5" y="-216.5" font-family="Helvetica,sans-Serif" font-size="10.00" fill="#000000">Deembedder</text>
<polyline fill="none" stroke="#000000" points="7.5,-209.5 111.5,-209.5 "/>
<text text-anchor="middle" x="59.5" y="-197.5" font-family="Helvetica,sans-Serif" font-size="10.00" fill="#000000"> </text>
<polyline fill="none" stroke="#000000" points="7.5,-190.5 111.5,-190.5 "/>
<text text-anchor="start" x="15.5" y="-178.5" font-family="Helvetica,sans-Serif" font-size="10.00" fill="#000000">+ __init__()</text>
<text text-anchor="start" x="15.5" y="-167.5" font-family="Helvetica,sans-Serif" font-size="10.00" fill="#000000">+ AddUnknown()</text>
<text text-anchor="start" x="15.5" y="-156.5" font-family="Helvetica,sans-Serif" font-size="10.00" fill="#000000">+ DutANames()</text>
<text text-anchor="start" x="15.5" y="-145.5" font-family="Helvetica,sans-Serif" font-size="10.00" fill="#000000">+ DutBNames()</text>
<text text-anchor="start" x="15.5" y="-134.5" font-family="Helvetica,sans-Serif" font-size="10.00" fill="#000000">+ UnknownNames()</text>
<text text-anchor="start" x="15.5" y="-123.5" font-family="Helvetica,sans-Serif" font-size="10.00" fill="#000000">+ UnknownPorts()</text>
<text text-anchor="start" x="15.5" y="-112.5" font-family="Helvetica,sans-Serif" font-size="10.00" fill="#000000">+ Partition()</text>
</a>
</g>
</g>
<!-- Node1&#45;&gt;Node0 -->
<g id="edge1" class="edge">
<title>Node1&#45;&gt;Node0</title>
<path fill="none" stroke="#191970" d="M94.2035,-96.2582C98.8773,-86.731 103.4899,-77.3282 107.6526,-68.8429"/>
<polygon fill="none" stroke="#191970" points="90.9786,-94.8854 89.7165,-105.4048 97.2631,-97.9684 90.9786,-94.8854"/>
</g>
<!-- Node2 -->
<g id="node3" class="node">
<title>Node2</title>
<g id="a_node3"><a xlink:href="classSignalIntegrity_1_1Lib_1_1SystemDescriptions_1_1SystemSParameters_1_1SystemSParameters.xhtml" target="_top" xlink:title="base class for housekeeping involving system s&#45;parameters calculations ">
<polygon fill="#ffffff" stroke="#000000" points="6,-265.5 6,-388.5 113,-388.5 113,-265.5 6,-265.5"/>
<text text-anchor="middle" x="59.5" y="-376.5" font-family="Helvetica,sans-Serif" font-size="10.00" fill="#000000">SystemSParameters</text>
<polyline fill="none" stroke="#000000" points="6,-369.5 113,-369.5 "/>
<text text-anchor="middle" x="59.5" y="-357.5" font-family="Helvetica,sans-Serif" font-size="10.00" fill="#000000"> </text>
<polyline fill="none" stroke="#000000" points="6,-350.5 113,-350.5 "/>
<text text-anchor="start" x="14" y="-338.5" font-family="Helvetica,sans-Serif" font-size="10.00" fill="#000000">+ __init__()</text>
<text text-anchor="start" x="14" y="-327.5" font-family="Helvetica,sans-Serif" font-size="10.00" fill="#000000">+ PortANames()</text>
<text text-anchor="start" x="14" y="-316.5" font-family="Helvetica,sans-Serif" font-size="10.00" fill="#000000">+ PortBNames()</text>
<text text-anchor="start" x="14" y="-305.5" font-family="Helvetica,sans-Serif" font-size="10.00" fill="#000000">+ OtherNames()</text>
<text text-anchor="start" x="14" y="-294.5" font-family="Helvetica,sans-Serif" font-size="10.00" fill="#000000">+ NodeVector()</text>
<text text-anchor="start" x="14" y="-283.5" font-family="Helvetica,sans-Serif" font-size="10.00" fill="#000000">+ StimulusVector()</text>
<text text-anchor="start" x="14" y="-272.5" font-family="Helvetica,sans-Serif" font-size="10.00" fill="#000000"># WeightsMatrix()</text>
</a>
</g>
</g>
<!-- Node2&#45;&gt;Node1 -->
<g id="edge2" class="edge">
<title>Node2&#45;&gt;Node1</title>
<path fill="none" stroke="#191970" d="M59.5,-254.939C59.5,-246.1775 59.5,-237.2878 59.5,-228.6957"/>
<polygon fill="none" stroke="#191970" points="56.0001,-255.1398 59.5,-265.1398 63.0001,-255.1399 56.0001,-255.1398"/>
</g>
<!-- Node3 -->
<g id="node4" class="node">
<title>Node3</title>
<g id="a_node4"><a xlink:href="classSignalIntegrity_1_1Lib_1_1SystemDescriptions_1_1SystemDescription_1_1SystemDescription.xhtml" target="_top" xlink:title="Allows the construction of system descriptions for use with all of the classes that solve schematics ...">
<polygon fill="#ffffff" stroke="#000000" points="0,-425.5 0,-592.5 119,-592.5 119,-425.5 0,-425.5"/>
<text text-anchor="middle" x="59.5" y="-580.5" font-family="Helvetica,sans-Serif" font-size="10.00" fill="#000000">SystemDescription</text>
<polyline fill="none" stroke="#000000" points="0,-573.5 119,-573.5 "/>
<text text-anchor="start" x="8" y="-561.5" font-family="Helvetica,sans-Serif" font-size="10.00" fill="#000000">+ m_UniqueDevice</text>
<text text-anchor="start" x="8" y="-550.5" font-family="Helvetica,sans-Serif" font-size="10.00" fill="#000000">+ m_UniqueNode</text>
<polyline fill="none" stroke="#000000" points="0,-543.5 119,-543.5 "/>
<text text-anchor="start" x="8" y="-531.5" font-family="Helvetica,sans-Serif" font-size="10.00" fill="#000000">+ __init__()</text>
<text text-anchor="start" x="8" y="-520.5" font-family="Helvetica,sans-Serif" font-size="10.00" fill="#000000">+ AddDevice()</text>
<text text-anchor="start" x="8" y="-509.5" font-family="Helvetica,sans-Serif" font-size="10.00" fill="#000000">+ AssignM()</text>
<text text-anchor="start" x="8" y="-498.5" font-family="Helvetica,sans-Serif" font-size="10.00" fill="#000000">+ DeviceNames()</text>
<text text-anchor="start" x="8" y="-487.5" font-family="Helvetica,sans-Serif" font-size="10.00" fill="#000000">+ IndexOfDevice()</text>
<text text-anchor="start" x="8" y="-476.5" font-family="Helvetica,sans-Serif" font-size="10.00" fill="#000000">+ CheckConnections()</text>
<text text-anchor="start" x="8" y="-465.5" font-family="Helvetica,sans-Serif" font-size="10.00" fill="#000000">+ ConnectDevicePort()</text>
<text text-anchor="start" x="8" y="-454.5" font-family="Helvetica,sans-Serif" font-size="10.00" fill="#000000">+ AddPort()</text>
<text text-anchor="start" x="8" y="-443.5" font-family="Helvetica,sans-Serif" font-size="10.00" fill="#000000">+ AssignSParameters()</text>
<text text-anchor="start" x="8" y="-432.5" font-family="Helvetica,sans-Serif" font-size="10.00" fill="#000000">+ Print()</text>
</a>
</g>
</g>
<!-- Node3&#45;&gt;Node2 -->
<g id="edge3" class="edge">
<title>Node3&#45;&gt;Node2</title>
<path fill="none" stroke="#191970" d="M59.5,-415.2394C59.5,-406.186 59.5,-397.1691 59.5,-388.5475"/>
<polygon fill="none" stroke="#191970" points="56.0001,-415.4574 59.5,-425.4574 63.0001,-415.4574 56.0001,-415.4574"/>
</g>
<!-- Node4 -->
<g id="node5" class="node">
<title>Node4</title>
<g id="a_node5"><a xlink:href="classSignalIntegrity_1_1Lib_1_1SystemDescriptions_1_1Numeric_1_1Numeric.xhtml" target="_top" xlink:title="handles numeric details of derived class solutions ">
<polygon fill="#ffffff" stroke="#000000" points="129.5,-111 129.5,-223 249.5,-223 249.5,-111 129.5,-111"/>
<text text-anchor="middle" x="189.5" y="-211" font-family="Helvetica,sans-Serif" font-size="10.00" fill="#000000">Numeric</text>
<polyline fill="none" stroke="#000000" points="129.5,-204 249.5,-204 "/>
<text text-anchor="start" x="137.5" y="-192" font-family="Helvetica,sans-Serif" font-size="10.00" fill="#000000">+ alwaysUseSVD</text>
<text text-anchor="start" x="137.5" y="-181" font-family="Helvetica,sans-Serif" font-size="10.00" fill="#000000">+ trySVD</text>
<text text-anchor="start" x="137.5" y="-170" font-family="Helvetica,sans-Serif" font-size="10.00" fill="#000000">+ singularValueLimit</text>
<text text-anchor="start" x="137.5" y="-159" font-family="Helvetica,sans-Serif" font-size="10.00" fill="#000000">+ conditionNumberLimit</text>
<polyline fill="none" stroke="#000000" points="129.5,-152 249.5,-152 "/>
<text text-anchor="start" x="137.5" y="-140" font-family="Helvetica,sans-Serif" font-size="10.00" fill="#000000">+ InstallSafeTees()</text>
<text text-anchor="start" x="137.5" y="-129" font-family="Helvetica,sans-Serif" font-size="10.00" fill="#000000">+ Dagger()</text>
<text text-anchor="start" x="137.5" y="-118" font-family="Helvetica,sans-Serif" font-size="10.00" fill="#000000">+ PermutationMatrix()</text>
</a>
</g>
</g>
<!-- Node4&#45;&gt;Node0 -->
<g id="edge4" class="edge">
<title>Node4&#45;&gt;Node0</title>
<path fill="none" stroke="#191970" d="M157.4821,-101.7327C151.91,-90.3743 146.3191,-78.9774 141.3646,-68.8779"/>
<polygon fill="none" stroke="#191970" points="154.3876,-103.3717 161.9341,-110.8081 160.6721,-100.2887 154.3876,-103.3717"/>
</g>
</g>
</svg>
