<?xml version="1.0" encoding="UTF-8" standalone="no"?>
<!DOCTYPE svg PUBLIC "-//W3C//DTD SVG 1.1//EN"
 "http://www.w3.org/Graphics/SVG/1.1/DTD/svg11.dtd">
<!-- Generated by graphviz version 2.43.0 (0)
 -->
<!-- Title: NetworkAnalyzerSimulationNumericParser Pages: 1 -->
<svg width="379pt" height="772pt"
 viewBox="0.00 0.00 378.50 772.00" xmlns="http://www.w3.org/2000/svg" xmlns:xlink="http://www.w3.org/1999/xlink">
<g id="graph0" class="graph" transform="scale(1 1) rotate(0) translate(4 768)">
<title>NetworkAnalyzerSimulationNumericParser</title>
<polygon fill="white" stroke="transparent" points="-4,4 -4,-768 374.5,-768 374.5,4 -4,4"/>
<!-- Node1 -->
<g id="node1" class="node">
<title>Node1</title>
<g id="a_node1"><a xlink:title="performs numeric simulations from netlists">
<polygon fill="#bfbfbf" stroke="black" points="142.5,-0.5 142.5,-156.5 279.5,-156.5 279.5,-0.5 142.5,-0.5"/>
<text text-anchor="start" x="150.5" y="-144.5" font-family="Helvetica,sans-Serif" font-size="10.00">NetworkAnalyzerSimulation</text>
<text text-anchor="middle" x="211" y="-133.5" font-family="Helvetica,sans-Serif" font-size="10.00">NumericParser</text>
<polyline fill="none" stroke="black" points="142.5,-126.5 279.5,-126.5 "/>
<text text-anchor="start" x="150.5" y="-114.5" font-family="Helvetica,sans-Serif" font-size="10.00">+ PortConnectionList</text>
<text text-anchor="start" x="150.5" y="-103.5" font-family="Helvetica,sans-Serif" font-size="10.00">+ DutSParameters</text>
<text text-anchor="start" x="150.5" y="-92.5" font-family="Helvetica,sans-Serif" font-size="10.00">+ simulationType</text>
<text text-anchor="start" x="150.5" y="-81.5" font-family="Helvetica,sans-Serif" font-size="10.00">+ dutknown</text>
<text text-anchor="start" x="150.5" y="-70.5" font-family="Helvetica,sans-Serif" font-size="10.00">+ simulationNumPorts</text>
<text text-anchor="start" x="150.5" y="-59.5" font-family="Helvetica,sans-Serif" font-size="10.00">+ m_lines</text>
<polyline fill="none" stroke="black" points="142.5,-52.5 279.5,-52.5 "/>
<text text-anchor="start" x="150.5" y="-40.5" font-family="Helvetica,sans-Serif" font-size="10.00">+ __init__()</text>
<text text-anchor="start" x="150.5" y="-29.5" font-family="Helvetica,sans-Serif" font-size="10.00">+ HashValue()</text>
<text text-anchor="start" x="150.5" y="-18.5" font-family="Helvetica,sans-Serif" font-size="10.00">+ ArrangeSimulation()</text>
<text text-anchor="start" x="150.5" y="-7.5" font-family="Helvetica,sans-Serif" font-size="10.00">+ TransferMatrices()</text>
</a>
</g>
</g>
<!-- Node2 -->
<g id="node2" class="node">
<title>Node2</title>
<g id="a_node2"><a xlink:href="classSignalIntegrity_1_1Lib_1_1Parsers_1_1SimulatorNumericParser_1_1SimulatorNumericParser.xhtml" target="_top" xlink:title="performs numeric simulations from netlists">
<polygon fill="white" stroke="black" points="149.5,-193.5 149.5,-261.5 272.5,-261.5 272.5,-193.5 149.5,-193.5"/>
<text text-anchor="middle" x="211" y="-249.5" font-family="Helvetica,sans-Serif" font-size="10.00">SimulatorNumericParser</text>
<polyline fill="none" stroke="black" points="149.5,-242.5 272.5,-242.5 "/>
<text text-anchor="start" x="157.5" y="-230.5" font-family="Helvetica,sans-Serif" font-size="10.00">+ transferMatrices</text>
<polyline fill="none" stroke="black" points="149.5,-223.5 272.5,-223.5 "/>
<text text-anchor="start" x="157.5" y="-211.5" font-family="Helvetica,sans-Serif" font-size="10.00">+ __init__()</text>
<text text-anchor="start" x="157.5" y="-200.5" font-family="Helvetica,sans-Serif" font-size="10.00">+ TransferMatrices()</text>
</a>
</g>
</g>
<!-- Node2&#45;&gt;Node1 -->
<g id="edge1" class="edge">
<title>Node2&#45;&gt;Node1</title>
<path fill="none" stroke="midnightblue" d="M211,-183C211,-174.7 211,-165.78 211,-156.79"/>
<polygon fill="none" stroke="midnightblue" points="207.5,-183.14 211,-193.14 214.5,-183.14 207.5,-183.14"/>
</g>
<!-- Node3 -->
<g id="node3" class="node">
<title>Node3</title>
<g id="a_node3"><a xlink:href="classSignalIntegrity_1_1Lib_1_1Parsers_1_1SimulatorParser_1_1SimulatorParser.xhtml" target="_top" xlink:title="base class for netlist based simulation solutions">
<polygon fill="white" stroke="black" points="53,-315 53,-383 139,-383 139,-315 53,-315"/>
<text text-anchor="middle" x="96" y="-371" font-family="Helvetica,sans-Serif" font-size="10.00">SimulatorParser</text>
<polyline fill="none" stroke="black" points="53,-364 139,-364 "/>
<text text-anchor="start" x="61" y="-352" font-family="Helvetica,sans-Serif" font-size="10.00">+ m_sd</text>
<text text-anchor="start" x="61" y="-341" font-family="Helvetica,sans-Serif" font-size="10.00">+ m_ul</text>
<polyline fill="none" stroke="black" points="53,-334 139,-334 "/>
<text text-anchor="start" x="61" y="-322" font-family="Helvetica,sans-Serif" font-size="10.00">+ __init__()</text>
</a>
</g>
</g>
<!-- Node3&#45;&gt;Node2 -->
<g id="edge2" class="edge">
<title>Node3&#45;&gt;Node2</title>
<path fill="none" stroke="midnightblue" d="M135.33,-307.13C149.62,-292.28 165.58,-275.7 179.14,-261.61"/>
<polygon fill="none" stroke="midnightblue" points="132.45,-305.08 128.03,-314.71 137.49,-309.93 132.45,-305.08"/>
</g>
<!-- Node4 -->
<g id="node4" class="node">
<title>Node4</title>
<g id="a_node4"><a xlink:href="classSignalIntegrity_1_1Lib_1_1Parsers_1_1SystemDescriptionParser_1_1SystemDescriptionParser.xhtml" target="_top" xlink:title="Parses netlists and produces system descriptions.">
<polygon fill="white" stroke="black" points="32,-436.5 32,-636.5 160,-636.5 160,-436.5 32,-436.5"/>
<text text-anchor="middle" x="96" y="-624.5" font-family="Helvetica,sans-Serif" font-size="10.00">SystemDescriptionParser</text>
<polyline fill="none" stroke="black" points="32,-617.5 160,-617.5 "/>
<text text-anchor="start" x="40" y="-605.5" font-family="Helvetica,sans-Serif" font-size="10.00">+ m_sd</text>
<text text-anchor="start" x="40" y="-594.5" font-family="Helvetica,sans-Serif" font-size="10.00">+ m_f</text>
<text text-anchor="start" x="40" y="-583.5" font-family="Helvetica,sans-Serif" font-size="10.00">+ m_lines</text>
<text text-anchor="start" x="40" y="-572.5" font-family="Helvetica,sans-Serif" font-size="10.00">+ m_addThru</text>
<text text-anchor="start" x="40" y="-561.5" font-family="Helvetica,sans-Serif" font-size="10.00">+ known</text>
<text text-anchor="start" x="40" y="-550.5" font-family="Helvetica,sans-Serif" font-size="10.00">+ delayDict</text>
<text text-anchor="start" x="40" y="-539.5" font-family="Helvetica,sans-Serif" font-size="10.00">+ m_spc</text>
<text text-anchor="start" x="40" y="-528.5" font-family="Helvetica,sans-Serif" font-size="10.00">+ m_spcl</text>
<text text-anchor="start" x="40" y="-517.5" font-family="Helvetica,sans-Serif" font-size="10.00">+ m_ul</text>
<text text-anchor="start" x="40" y="-506.5" font-family="Helvetica,sans-Serif" font-size="10.00">+ MultiPortTee</text>
<polyline fill="none" stroke="black" points="32,-499.5 160,-499.5 "/>
<text text-anchor="start" x="40" y="-487.5" font-family="Helvetica,sans-Serif" font-size="10.00">+ __init__()</text>
<text text-anchor="start" x="40" y="-476.5" font-family="Helvetica,sans-Serif" font-size="10.00">+ SystemDescription()</text>
<text text-anchor="start" x="40" y="-465.5" font-family="Helvetica,sans-Serif" font-size="10.00">+ AddKnownDevices()</text>
<text text-anchor="start" x="40" y="-454.5" font-family="Helvetica,sans-Serif" font-size="10.00">+ AddLine()</text>
<text text-anchor="start" x="40" y="-443.5" font-family="Helvetica,sans-Serif" font-size="10.00">+ AddLines()</text>
</a>
</g>
</g>
<!-- Node4&#45;&gt;Node3 -->
<g id="edge3" class="edge">
<title>Node4&#45;&gt;Node3</title>
<path fill="none" stroke="midnightblue" d="M96,-425.98C96,-410.49 96,-395.64 96,-383.25"/>
<polygon fill="none" stroke="midnightblue" points="92.5,-426.23 96,-436.23 99.5,-426.23 92.5,-426.23"/>
</g>
<!-- Node5 -->
<g id="node5" class="node">
<title>Node5</title>
<g id="a_node5"><a xlink:href="classSignalIntegrity_1_1Lib_1_1Parsers_1_1ParserFile_1_1ParserFile.xhtml" target="_top" xlink:title="file handling base class for parsers">
<polygon fill="white" stroke="black" points="0,-684.5 0,-752.5 80,-752.5 80,-684.5 0,-684.5"/>
<text text-anchor="middle" x="40" y="-740.5" font-family="Helvetica,sans-Serif" font-size="10.00">ParserFile</text>
<polyline fill="none" stroke="black" points="0,-733.5 80,-733.5 "/>
<text text-anchor="middle" x="40" y="-721.5" font-family="Helvetica,sans-Serif" font-size="10.00"> </text>
<polyline fill="none" stroke="black" points="0,-714.5 80,-714.5 "/>
<text text-anchor="start" x="8" y="-702.5" font-family="Helvetica,sans-Serif" font-size="10.00">+ File()</text>
<text text-anchor="start" x="8" y="-691.5" font-family="Helvetica,sans-Serif" font-size="10.00">+ WriteToFile()</text>
</a>
</g>
</g>
<!-- Node5&#45;&gt;Node4 -->
<g id="edge4" class="edge">
<title>Node5&#45;&gt;Node4</title>
<path fill="none" stroke="midnightblue" d="M53.33,-674.67C56.95,-663.03 61.02,-649.92 65.18,-636.55"/>
<polygon fill="none" stroke="midnightblue" points="49.9,-673.9 50.27,-684.49 56.58,-675.98 49.9,-673.9"/>
</g>
<!-- Node6 -->
<g id="node6" class="node">
<title>Node6</title>
<g id="a_node6"><a xlink:href="classSignalIntegrity_1_1Lib_1_1Parsers_1_1ParserArgs_1_1ParserArgs.xhtml" target="_top" xlink:title="argument handling base class for parsers">
<polygon fill="white" stroke="black" points="98,-673.5 98,-763.5 206,-763.5 206,-673.5 98,-673.5"/>
<text text-anchor="middle" x="152" y="-751.5" font-family="Helvetica,sans-Serif" font-size="10.00">ParserArgs</text>
<polyline fill="none" stroke="black" points="98,-744.5 206,-744.5 "/>
<text text-anchor="start" x="106" y="-732.5" font-family="Helvetica,sans-Serif" font-size="10.00">+ m_vars</text>
<text text-anchor="start" x="106" y="-721.5" font-family="Helvetica,sans-Serif" font-size="10.00">+ m_args</text>
<polyline fill="none" stroke="black" points="98,-714.5 206,-714.5 "/>
<text text-anchor="start" x="106" y="-702.5" font-family="Helvetica,sans-Serif" font-size="10.00">+ AssignArguments()</text>
<text text-anchor="start" x="106" y="-691.5" font-family="Helvetica,sans-Serif" font-size="10.00">+ ReplaceArgs()</text>
<text text-anchor="start" x="106" y="-680.5" font-family="Helvetica,sans-Serif" font-size="10.00">+ ProcessVariables()</text>
</a>
</g>
</g>
<!-- Node6&#45;&gt;Node4 -->
<g id="edge5" class="edge">
<title>Node6&#45;&gt;Node4</title>
<path fill="none" stroke="midnightblue" d="M135.32,-663.88C132.61,-655.17 129.73,-645.91 126.81,-636.52"/>
<polygon fill="none" stroke="midnightblue" points="131.99,-664.96 138.3,-673.47 138.67,-662.88 131.99,-664.96"/>
</g>
<!-- Node7 -->
<g id="node7" class="node">
<title>Node7</title>
<g id="a_node7"><a xlink:href="classSignalIntegrity_1_1Lib_1_1CallBacker_1_1CallBacker.xhtml" target="_top" xlink:title="Handles Callbacks that allow progress reporting during long calculations and capability to abort.">
<polygon fill="white" stroke="black" points="157.5,-298.5 157.5,-399.5 264.5,-399.5 264.5,-298.5 157.5,-298.5"/>
<text text-anchor="middle" x="211" y="-387.5" font-family="Helvetica,sans-Serif" font-size="10.00">CallBacker</text>
<polyline fill="none" stroke="black" points="157.5,-380.5 264.5,-380.5 "/>
<text text-anchor="start" x="165.5" y="-368.5" font-family="Helvetica,sans-Serif" font-size="10.00">+ callback</text>
<polyline fill="none" stroke="black" points="157.5,-361.5 264.5,-361.5 "/>
<text text-anchor="start" x="165.5" y="-349.5" font-family="Helvetica,sans-Serif" font-size="10.00">+ __init__()</text>
<text text-anchor="start" x="165.5" y="-338.5" font-family="Helvetica,sans-Serif" font-size="10.00">+ HasACallBack()</text>
<text text-anchor="start" x="165.5" y="-327.5" font-family="Helvetica,sans-Serif" font-size="10.00">+ CallBack()</text>
<text text-anchor="start" x="165.5" y="-316.5" font-family="Helvetica,sans-Serif" font-size="10.00">+ InstallCallback()</text>
<text text-anchor="start" x="165.5" y="-305.5" font-family="Helvetica,sans-Serif" font-size="10.00">+ RemoveCallback()</text>
</a>
</g>
</g>
<!-- Node7&#45;&gt;Node2 -->
<g id="edge6" class="edge">
<title>Node7&#45;&gt;Node2</title>
<path fill="none" stroke="midnightblue" d="M211,-288.17C211,-279.11 211,-270.05 211,-261.83"/>
<polygon fill="none" stroke="midnightblue" points="207.5,-288.36 211,-298.36 214.5,-288.36 207.5,-288.36"/>
</g>
<!-- Node8 -->
<g id="node8" class="node">
<title>Node8</title>
<g id="a_node8"><a xlink:href="classSignalIntegrity_1_1Lib_1_1ResultsCache_1_1LinesCache.xhtml" target="_top" xlink:title="Caches results calculated based on netlist lines, as used in all of the parser classes.">
<polygon fill="white" stroke="black" points="282.5,-309.5 282.5,-388.5 369.5,-388.5 369.5,-309.5 282.5,-309.5"/>
<text text-anchor="middle" x="326" y="-376.5" font-family="Helvetica,sans-Serif" font-size="10.00">LinesCache</text>
<polyline fill="none" stroke="black" points="282.5,-369.5 369.5,-369.5 "/>
<text text-anchor="middle" x="326" y="-357.5" font-family="Helvetica,sans-Serif" font-size="10.00"> </text>
<polyline fill="none" stroke="black" points="282.5,-350.5 369.5,-350.5 "/>
<text text-anchor="start" x="290.5" y="-338.5" font-family="Helvetica,sans-Serif" font-size="10.00">+ __init__()</text>
<text text-anchor="start" x="290.5" y="-327.5" font-family="Helvetica,sans-Serif" font-size="10.00">+ HashValue()</text>
<text text-anchor="start" x="290.5" y="-316.5" font-family="Helvetica,sans-Serif" font-size="10.00">+ CheckTimes()</text>
</a>
</g>
</g>
<!-- Node8&#45;&gt;Node2 -->
<g id="edge7" class="edge">
<title>Node8&#45;&gt;Node2</title>
<path fill="none" stroke="midnightblue" d="M281.65,-301.91C268.82,-288.58 255.06,-274.28 243.13,-261.89"/>
<polygon fill="none" stroke="midnightblue" points="279.21,-304.42 288.66,-309.2 284.25,-299.57 279.21,-304.42"/>
</g>
<!-- Node9 -->
<g id="node9" class="node">
<title>Node9</title>
<g id="a_node9"><a xlink:href="classSignalIntegrity_1_1Lib_1_1ResultsCache_1_1ResultsCache.xhtml" target="_top" xlink:title="base class for results caching">
<polygon fill="white" stroke="black" points="281.5,-464 281.5,-609 370.5,-609 370.5,-464 281.5,-464"/>
<text text-anchor="middle" x="326" y="-597" font-family="Helvetica,sans-Serif" font-size="10.00">ResultsCache</text>
<polyline fill="none" stroke="black" points="281.5,-590 370.5,-590 "/>
<text text-anchor="start" x="289.5" y="-578" font-family="Helvetica,sans-Serif" font-size="10.00">+ filename</text>
<text text-anchor="start" x="289.5" y="-567" font-family="Helvetica,sans-Serif" font-size="10.00">+ extra</text>
<text text-anchor="start" x="289.5" y="-556" font-family="Helvetica,sans-Serif" font-size="10.00">+ hash</text>
<text text-anchor="start" x="289.5" y="-545" font-family="Helvetica,sans-Serif" font-size="10.00">+ logging</text>
<polyline fill="none" stroke="black" points="281.5,-538 370.5,-538 "/>
<text text-anchor="start" x="289.5" y="-526" font-family="Helvetica,sans-Serif" font-size="10.00">+ __init__()</text>
<text text-anchor="start" x="289.5" y="-515" font-family="Helvetica,sans-Serif" font-size="10.00">+ HashValue()</text>
<text text-anchor="start" x="289.5" y="-504" font-family="Helvetica,sans-Serif" font-size="10.00">+ CheckCache()</text>
<text text-anchor="start" x="289.5" y="-493" font-family="Helvetica,sans-Serif" font-size="10.00">+ CacheResult()</text>
<text text-anchor="start" x="289.5" y="-482" font-family="Helvetica,sans-Serif" font-size="10.00">+ FileTime()</text>
<text text-anchor="start" x="289.5" y="-471" font-family="Helvetica,sans-Serif" font-size="10.00">+ CheckTimes()</text>
</a>
</g>
</g>
<!-- Node9&#45;&gt;Node8 -->
<g id="edge8" class="edge">
<title>Node9&#45;&gt;Node8</title>
<path fill="none" stroke="midnightblue" d="M326,-453.49C326,-430.9 326,-407.46 326,-388.61"/>
<polygon fill="none" stroke="midnightblue" points="322.5,-453.78 326,-463.78 329.5,-453.78 322.5,-453.78"/>
</g>
</g>
</svg>
