<?xml version="1.0" encoding="UTF-8" standalone="no"?>
<!DOCTYPE svg PUBLIC "-//W3C//DTD SVG 1.1//EN"
 "http://www.w3.org/Graphics/SVG/1.1/DTD/svg11.dtd">
<!-- Generated by graphviz version 2.40.1 (20161225.0304)
 -->
<!-- Title: SParameters Pages: 1 -->
<svg width="2780pt" height="590pt"
 viewBox="0.00 0.00 2780.50 590.00" xmlns="http://www.w3.org/2000/svg" xmlns:xlink="http://www.w3.org/1999/xlink">
<g id="graph0" class="graph" transform="scale(1 1) rotate(0) translate(4 586)">
<title>SParameters</title>
<polygon fill="#ffffff" stroke="transparent" points="-4,4 -4,-586 2776.5,-586 2776.5,4 -4,4"/>
<!-- Node0 -->
<g id="node1" class="node">
<title>Node0</title>
<polygon fill="#bfbfbf" stroke="#000000" points="1187.5,-254.5 1187.5,-443.5 1327.5,-443.5 1327.5,-254.5 1187.5,-254.5"/>
<text text-anchor="middle" x="1257.5" y="-431.5" font-family="Helvetica,sans-Serif" font-size="10.00" fill="#000000">SParameters</text>
<polyline fill="none" stroke="#000000" points="1187.5,-424.5 1327.5,-424.5 "/>
<text text-anchor="start" x="1195.5" y="-412.5" font-family="Helvetica,sans-Serif" font-size="10.00" fill="#000000">+ m_sToken</text>
<text text-anchor="start" x="1195.5" y="-401.5" font-family="Helvetica,sans-Serif" font-size="10.00" fill="#000000">+ m_d</text>
<text text-anchor="start" x="1195.5" y="-390.5" font-family="Helvetica,sans-Serif" font-size="10.00" fill="#000000">+ m_Z0</text>
<text text-anchor="start" x="1195.5" y="-379.5" font-family="Helvetica,sans-Serif" font-size="10.00" fill="#000000">+ m_f</text>
<text text-anchor="start" x="1195.5" y="-368.5" font-family="Helvetica,sans-Serif" font-size="10.00" fill="#000000">+ m_P</text>
<polyline fill="none" stroke="#000000" points="1187.5,-361.5 1327.5,-361.5 "/>
<text text-anchor="start" x="1195.5" y="-349.5" font-family="Helvetica,sans-Serif" font-size="10.00" fill="#000000">+ __init__()</text>
<text text-anchor="start" x="1195.5" y="-338.5" font-family="Helvetica,sans-Serif" font-size="10.00" fill="#000000">+ __getitem__()</text>
<text text-anchor="start" x="1195.5" y="-327.5" font-family="Helvetica,sans-Serif" font-size="10.00" fill="#000000">+ __len__()</text>
<text text-anchor="start" x="1195.5" y="-316.5" font-family="Helvetica,sans-Serif" font-size="10.00" fill="#000000">+ f()</text>
<text text-anchor="start" x="1195.5" y="-305.5" font-family="Helvetica,sans-Serif" font-size="10.00" fill="#000000">+ Response()</text>
<text text-anchor="start" x="1195.5" y="-294.5" font-family="Helvetica,sans-Serif" font-size="10.00" fill="#000000">+ FrequencyResponse()</text>
<text text-anchor="start" x="1195.5" y="-283.5" font-family="Helvetica,sans-Serif" font-size="10.00" fill="#000000">+ WriteToFile()</text>
<text text-anchor="start" x="1195.5" y="-272.5" font-family="Helvetica,sans-Serif" font-size="10.00" fill="#000000">+ Resample()</text>
<text text-anchor="start" x="1195.5" y="-261.5" font-family="Helvetica,sans-Serif" font-size="10.00" fill="#000000">+ SetReferenceImpedance()</text>
</g>
<!-- Node2 -->
<g id="node3" class="node">
<title>Node2</title>
<g id="a_node3"><a xlink:href="classSignalIntegrity_1_1Lib_1_1ImpedanceProfile_1_1PeeledLaunches_1_1PeeledLaunches.xhtml" target="_top" xlink:title="S&#45;parameters with launches peeled from them. ">
<polygon fill="#ffffff" stroke="#000000" points="0,-127.5 0,-184.5 89,-184.5 89,-127.5 0,-127.5"/>
<text text-anchor="middle" x="44.5" y="-172.5" font-family="Helvetica,sans-Serif" font-size="10.00" fill="#000000">PeeledLaunches</text>
<polyline fill="none" stroke="#000000" points="0,-165.5 89,-165.5 "/>
<text text-anchor="middle" x="44.5" y="-153.5" font-family="Helvetica,sans-Serif" font-size="10.00" fill="#000000"> </text>
<polyline fill="none" stroke="#000000" points="0,-146.5 89,-146.5 "/>
<text text-anchor="start" x="8" y="-134.5" font-family="Helvetica,sans-Serif" font-size="10.00" fill="#000000">+ __init__()</text>
</a>
</g>
</g>
<!-- Node0&#45;&gt;Node2 -->
<g id="edge2" class="edge">
<title>Node0&#45;&gt;Node2</title>
<path fill="none" stroke="#191970" d="M1176.9924,-347.4053C946.2,-341.6721 286.7787,-316.8357 98.5,-218 83.9656,-210.3703 71.5924,-197.0839 62.3717,-184.7627"/>
<polygon fill="none" stroke="#191970" points="1177.2448,-350.9124 1187.3268,-347.6563 1177.4148,-343.9144 1177.2448,-350.9124"/>
</g>
<!-- Node3 -->
<g id="node4" class="node">
<title>Node3</title>
<g id="a_node4"><a xlink:href="classSignalIntegrity_1_1Lib_1_1ImpedanceProfile_1_1PeeledPortSParameters_1_1PeeledPortSParameters.xhtml" target="_top" xlink:title="s&#45;parameters of peeled impedance profile from port calculates the impedance profile looking into a po...">
<polygon fill="#ffffff" stroke="#000000" points="107.5,-127.5 107.5,-184.5 229.5,-184.5 229.5,-127.5 107.5,-127.5"/>
<text text-anchor="middle" x="168.5" y="-172.5" font-family="Helvetica,sans-Serif" font-size="10.00" fill="#000000">PeeledPortSParameters</text>
<polyline fill="none" stroke="#000000" points="107.5,-165.5 229.5,-165.5 "/>
<text text-anchor="middle" x="168.5" y="-153.5" font-family="Helvetica,sans-Serif" font-size="10.00" fill="#000000"> </text>
<polyline fill="none" stroke="#000000" points="107.5,-146.5 229.5,-146.5 "/>
<text text-anchor="start" x="115.5" y="-134.5" font-family="Helvetica,sans-Serif" font-size="10.00" fill="#000000">+ __init__()</text>
</a>
</g>
</g>
<!-- Node0&#45;&gt;Node3 -->
<g id="edge3" class="edge">
<title>Node0&#45;&gt;Node3</title>
<path fill="none" stroke="#191970" d="M1177.4754,-344.7851C967.6735,-332.7803 406.3699,-294.2506 238.5,-218 221.5019,-210.2791 205.6498,-196.9835 193.3441,-184.6798"/>
<polygon fill="none" stroke="#191970" points="1177.3149,-348.2815 1187.4972,-345.3536 1177.7115,-341.2927 1177.3149,-348.2815"/>
</g>
<!-- Node4 -->
<g id="node5" class="node">
<title>Node4</title>
<g id="a_node5"><a xlink:href="classSignalIntegrity_1_1Lib_1_1Measurement_1_1CalKit_1_1Standards_1_1LoadStandard_1_1LoadStandard.xhtml" target="_top" xlink:title="Class providing the s&#45;parameters of a load standard as commonly defined for a calibration kit...">
<polygon fill="#ffffff" stroke="#000000" points="248,-127.5 248,-184.5 325,-184.5 325,-127.5 248,-127.5"/>
<text text-anchor="middle" x="286.5" y="-172.5" font-family="Helvetica,sans-Serif" font-size="10.00" fill="#000000">LoadStandard</text>
<polyline fill="none" stroke="#000000" points="248,-165.5 325,-165.5 "/>
<text text-anchor="middle" x="286.5" y="-153.5" font-family="Helvetica,sans-Serif" font-size="10.00" fill="#000000"> </text>
<polyline fill="none" stroke="#000000" points="248,-146.5 325,-146.5 "/>
<text text-anchor="start" x="256" y="-134.5" font-family="Helvetica,sans-Serif" font-size="10.00" fill="#000000">+ __init__()</text>
</a>
</g>
</g>
<!-- Node0&#45;&gt;Node4 -->
<g id="edge4" class="edge">
<title>Node0&#45;&gt;Node4</title>
<path fill="none" stroke="#191970" d="M1177.1871,-345.3961C979.7132,-335.3187 476.1887,-301.8906 333.5,-218 320.1096,-210.1274 309.2652,-196.8164 301.3814,-184.5417"/>
<polygon fill="none" stroke="#191970" points="1177.043,-348.8932 1187.2064,-345.9007 1177.3952,-341.9021 1177.043,-348.8932"/>
</g>
<!-- Node5 -->
<g id="node6" class="node">
<title>Node5</title>
<g id="a_node6"><a xlink:href="classSignalIntegrity_1_1Lib_1_1Measurement_1_1CalKit_1_1Standards_1_1Offset_1_1Offset.xhtml" target="_top" xlink:title="class providing the s&#45;parameters of an offset portion of the various calibration standards for a cali...">
<polygon fill="#ffffff" stroke="#000000" points="343,-127.5 343,-184.5 408,-184.5 408,-127.5 343,-127.5"/>
<text text-anchor="middle" x="375.5" y="-172.5" font-family="Helvetica,sans-Serif" font-size="10.00" fill="#000000">Offset</text>
<polyline fill="none" stroke="#000000" points="343,-165.5 408,-165.5 "/>
<text text-anchor="start" x="351" y="-153.5" font-family="Helvetica,sans-Serif" font-size="10.00" fill="#000000">+ calcZc</text>
<polyline fill="none" stroke="#000000" points="343,-146.5 408,-146.5 "/>
<text text-anchor="start" x="351" y="-134.5" font-family="Helvetica,sans-Serif" font-size="10.00" fill="#000000">+ __init__()</text>
</a>
</g>
</g>
<!-- Node0&#45;&gt;Node5 -->
<g id="edge5" class="edge">
<title>Node0&#45;&gt;Node5</title>
<path fill="none" stroke="#191970" d="M1177.0883,-344.5744C992.2205,-333.128 543.2058,-297.6977 417.5,-218 404.9825,-210.0639 395.2846,-196.901 388.3775,-184.7403"/>
<polygon fill="none" stroke="#191970" points="1177.0911,-348.081 1187.2861,-345.198 1177.5185,-341.0941 1177.0911,-348.081"/>
</g>
<!-- Node7 -->
<g id="node8" class="node">
<title>Node7</title>
<g id="a_node8"><a xlink:href="classSignalIntegrity_1_1Lib_1_1Measurement_1_1CalKit_1_1Standards_1_1OpenStandard_1_1OpenStandard.xhtml" target="_top" xlink:title="class providing the s&#45;parameters of an open standard as commonly defined for a calibration kit...">
<polygon fill="#ffffff" stroke="#000000" points="426,-127.5 426,-184.5 505,-184.5 505,-127.5 426,-127.5"/>
<text text-anchor="middle" x="465.5" y="-172.5" font-family="Helvetica,sans-Serif" font-size="10.00" fill="#000000">OpenStandard</text>
<polyline fill="none" stroke="#000000" points="426,-165.5 505,-165.5 "/>
<text text-anchor="middle" x="465.5" y="-153.5" font-family="Helvetica,sans-Serif" font-size="10.00" fill="#000000"> </text>
<polyline fill="none" stroke="#000000" points="426,-146.5 505,-146.5 "/>
<text text-anchor="start" x="434" y="-134.5" font-family="Helvetica,sans-Serif" font-size="10.00" fill="#000000">+ __init__()</text>
</a>
</g>
</g>
<!-- Node0&#45;&gt;Node7 -->
<g id="edge7" class="edge">
<title>Node0&#45;&gt;Node7</title>
<path fill="none" stroke="#191970" d="M1177.3989,-342.1002C1009.2465,-326.4677 625.8132,-284.4601 514.5,-218 501.071,-209.9822 489.8854,-196.8104 481.6081,-184.6649"/>
<polygon fill="none" stroke="#191970" points="1177.1514,-345.5921 1187.4305,-343.0252 1177.7942,-338.6217 1177.1514,-345.5921"/>
</g>
<!-- Node8 -->
<g id="node9" class="node">
<title>Node8</title>
<g id="a_node9"><a xlink:href="classSignalIntegrity_1_1Lib_1_1Measurement_1_1CalKit_1_1Standards_1_1ShortStandard_1_1ShortStandard.xhtml" target="_top" xlink:title="Class providing the s&#45;parameters of a short standard as commonly defined for a calibration kit...">
<polygon fill="#ffffff" stroke="#000000" points="523,-127.5 523,-184.5 602,-184.5 602,-127.5 523,-127.5"/>
<text text-anchor="middle" x="562.5" y="-172.5" font-family="Helvetica,sans-Serif" font-size="10.00" fill="#000000">ShortStandard</text>
<polyline fill="none" stroke="#000000" points="523,-165.5 602,-165.5 "/>
<text text-anchor="middle" x="562.5" y="-153.5" font-family="Helvetica,sans-Serif" font-size="10.00" fill="#000000"> </text>
<polyline fill="none" stroke="#000000" points="523,-146.5 602,-146.5 "/>
<text text-anchor="start" x="531" y="-134.5" font-family="Helvetica,sans-Serif" font-size="10.00" fill="#000000">+ __init__()</text>
</a>
</g>
</g>
<!-- Node0&#45;&gt;Node8 -->
<g id="edge8" class="edge">
<title>Node0&#45;&gt;Node8</title>
<path fill="none" stroke="#191970" d="M1177.3163,-339.8307C1025.9049,-321.381 704.6525,-276.49 610.5,-218 597.318,-209.811 586.3577,-196.6205 578.2544,-184.5069"/>
<polygon fill="none" stroke="#191970" points="1177.1314,-343.3338 1187.4795,-341.0604 1177.9723,-336.3845 1177.1314,-343.3338"/>
</g>
<!-- Node9 -->
<g id="node10" class="node">
<title>Node9</title>
<g id="a_node10"><a xlink:href="classSignalIntegrity_1_1Lib_1_1Measurement_1_1CalKit_1_1Standards_1_1TerminationPolynomial_1_1TerminationCPolynomial.xhtml" target="_top" xlink:title="Class for capacitive terminations for open calibration standards. ">
<polygon fill="#ffffff" stroke="#000000" points="620,-116.5 620,-195.5 743,-195.5 743,-116.5 620,-116.5"/>
<text text-anchor="middle" x="681.5" y="-183.5" font-family="Helvetica,sans-Serif" font-size="10.00" fill="#000000">TerminationCPolynomial</text>
<polyline fill="none" stroke="#000000" points="620,-176.5 743,-176.5 "/>
<text text-anchor="middle" x="681.5" y="-164.5" font-family="Helvetica,sans-Serif" font-size="10.00" fill="#000000"> </text>
<polyline fill="none" stroke="#000000" points="620,-157.5 743,-157.5 "/>
<text text-anchor="start" x="628" y="-145.5" font-family="Helvetica,sans-Serif" font-size="10.00" fill="#000000">+ __init__()</text>
<text text-anchor="start" x="628" y="-134.5" font-family="Helvetica,sans-Serif" font-size="10.00" fill="#000000">+ PolynomialC()</text>
<text text-anchor="start" x="628" y="-123.5" font-family="Helvetica,sans-Serif" font-size="10.00" fill="#000000">+ __getitem__()</text>
</a>
</g>
</g>
<!-- Node0&#45;&gt;Node9 -->
<g id="edge9" class="edge">
<title>Node0&#45;&gt;Node9</title>
<path fill="none" stroke="#191970" d="M1177.2123,-339.8093C1073.9698,-325.4555 891.4437,-291.3669 752.5,-218 741.2125,-212.0398 730.2121,-203.9559 720.3717,-195.5957"/>
<polygon fill="none" stroke="#191970" points="1176.8768,-343.2958 1187.2578,-341.1783 1177.822,-336.3599 1176.8768,-343.2958"/>
</g>
<!-- Node10 -->
<g id="node11" class="node">
<title>Node10</title>
<g id="a_node11"><a xlink:href="classSignalIntegrity_1_1Lib_1_1Measurement_1_1CalKit_1_1Standards_1_1TerminationPolynomial_1_1TerminationLPolynomial.xhtml" target="_top" xlink:title="Class for inductive terminations for short calibration standards. ">
<polygon fill="#ffffff" stroke="#000000" points="761,-116.5 761,-195.5 882,-195.5 882,-116.5 761,-116.5"/>
<text text-anchor="middle" x="821.5" y="-183.5" font-family="Helvetica,sans-Serif" font-size="10.00" fill="#000000">TerminationLPolynomial</text>
<polyline fill="none" stroke="#000000" points="761,-176.5 882,-176.5 "/>
<text text-anchor="middle" x="821.5" y="-164.5" font-family="Helvetica,sans-Serif" font-size="10.00" fill="#000000"> </text>
<polyline fill="none" stroke="#000000" points="761,-157.5 882,-157.5 "/>
<text text-anchor="start" x="769" y="-145.5" font-family="Helvetica,sans-Serif" font-size="10.00" fill="#000000">+ __init__()</text>
<text text-anchor="start" x="769" y="-134.5" font-family="Helvetica,sans-Serif" font-size="10.00" fill="#000000">+ PolynomialL()</text>
<text text-anchor="start" x="769" y="-123.5" font-family="Helvetica,sans-Serif" font-size="10.00" fill="#000000">+ __getitem__()</text>
</a>
</g>
</g>
<!-- Node0&#45;&gt;Node10 -->
<g id="edge10" class="edge">
<title>Node0&#45;&gt;Node10</title>
<path fill="none" stroke="#191970" d="M1177.2166,-330.0356C1100.1066,-309.6419 982.1311,-272.6071 890.5,-218 879.9859,-211.7342 869.6332,-203.7243 860.2728,-195.5582"/>
<polygon fill="none" stroke="#191970" points="1176.7897,-333.5414 1187.3496,-332.6819 1178.5585,-326.7686 1176.7897,-333.5414"/>
</g>
<!-- Node11 -->
<g id="node12" class="node">
<title>Node11</title>
<g id="a_node12"><a xlink:href="classSignalIntegrity_1_1Lib_1_1SParameters_1_1Devices_1_1MixedModeTline_1_1MixedModeTLine.xhtml" target="_top" xlink:title="s&#45;parameters of a mixed&#45;mode, balanced transmission line ">
<polygon fill="#ffffff" stroke="#000000" points="900,-116.5 900,-195.5 991,-195.5 991,-116.5 900,-116.5"/>
<text text-anchor="middle" x="945.5" y="-183.5" font-family="Helvetica,sans-Serif" font-size="10.00" fill="#000000">MixedModeTLine</text>
<polyline fill="none" stroke="#000000" points="900,-176.5 991,-176.5 "/>
<text text-anchor="start" x="908" y="-164.5" font-family="Helvetica,sans-Serif" font-size="10.00" fill="#000000">+ m_sspn</text>
<text text-anchor="start" x="908" y="-153.5" font-family="Helvetica,sans-Serif" font-size="10.00" fill="#000000">+ m_spdl</text>
<polyline fill="none" stroke="#000000" points="900,-146.5 991,-146.5 "/>
<text text-anchor="start" x="908" y="-134.5" font-family="Helvetica,sans-Serif" font-size="10.00" fill="#000000">+ __init__()</text>
<text text-anchor="start" x="908" y="-123.5" font-family="Helvetica,sans-Serif" font-size="10.00" fill="#000000">+ __getitem__()</text>
</a>
</g>
</g>
<!-- Node0&#45;&gt;Node11 -->
<g id="edge11" class="edge">
<title>Node0&#45;&gt;Node11</title>
<path fill="none" stroke="#191970" d="M1177.8489,-318.0701C1124.361,-295.0987 1053.9783,-260.4595 999.5,-218 991.1686,-211.5067 983.1418,-203.5868 975.9395,-195.6076"/>
<polygon fill="none" stroke="#191970" points="1176.721,-321.3936 1187.2936,-322.0807 1179.4571,-314.9504 1176.721,-321.3936"/>
</g>
<!-- Node12 -->
<g id="node13" class="node">
<title>Node12</title>
<g id="a_node13"><a xlink:href="classSignalIntegrity_1_1Lib_1_1SParameters_1_1Devices_1_1Mutual_1_1Mutual.xhtml" target="_top" xlink:title="s&#45;parameters of a mutual inductance ">
<polygon fill="#ffffff" stroke="#000000" points="1009,-122 1009,-190 1094,-190 1094,-122 1009,-122"/>
<text text-anchor="middle" x="1051.5" y="-178" font-family="Helvetica,sans-Serif" font-size="10.00" fill="#000000">Mutual</text>
<polyline fill="none" stroke="#000000" points="1009,-171 1094,-171 "/>
<text text-anchor="start" x="1017" y="-159" font-family="Helvetica,sans-Serif" font-size="10.00" fill="#000000">+ m_M</text>
<polyline fill="none" stroke="#000000" points="1009,-152 1094,-152 "/>
<text text-anchor="start" x="1017" y="-140" font-family="Helvetica,sans-Serif" font-size="10.00" fill="#000000">+ __init__()</text>
<text text-anchor="start" x="1017" y="-129" font-family="Helvetica,sans-Serif" font-size="10.00" fill="#000000">+ __getitem__()</text>
</a>
</g>
</g>
<!-- Node0&#45;&gt;Node12 -->
<g id="edge12" class="edge">
<title>Node0&#45;&gt;Node12</title>
<path fill="none" stroke="#191970" d="M1179.4331,-287.7044C1154.0296,-266.5485 1126.2728,-242.0915 1102.5,-218 1093.9831,-209.3689 1085.3648,-199.4436 1077.6978,-190.1007"/>
<polygon fill="none" stroke="#191970" points="1177.2988,-290.4812 1187.2344,-294.16 1181.7615,-285.0882 1177.2988,-290.4812"/>
</g>
<!-- Node13 -->
<g id="node14" class="node">
<title>Node13</title>
<g id="a_node14"><a xlink:href="classSignalIntegrity_1_1Lib_1_1SParameters_1_1Devices_1_1SeriesC_1_1SeriesC.xhtml" target="_top" xlink:title="s&#45;parameters of a series capacitance ">
<polygon fill="#ffffff" stroke="#000000" points="1112,-111 1112,-201 1197,-201 1197,-111 1112,-111"/>
<text text-anchor="middle" x="1154.5" y="-189" font-family="Helvetica,sans-Serif" font-size="10.00" fill="#000000">SeriesC</text>
<polyline fill="none" stroke="#000000" points="1112,-182 1197,-182 "/>
<text text-anchor="start" x="1120" y="-170" font-family="Helvetica,sans-Serif" font-size="10.00" fill="#000000">+ m_C</text>
<text text-anchor="start" x="1120" y="-159" font-family="Helvetica,sans-Serif" font-size="10.00" fill="#000000">+ m_df</text>
<text text-anchor="start" x="1120" y="-148" font-family="Helvetica,sans-Serif" font-size="10.00" fill="#000000">+ m_esr</text>
<polyline fill="none" stroke="#000000" points="1112,-141 1197,-141 "/>
<text text-anchor="start" x="1120" y="-129" font-family="Helvetica,sans-Serif" font-size="10.00" fill="#000000">+ __init__()</text>
<text text-anchor="start" x="1120" y="-118" font-family="Helvetica,sans-Serif" font-size="10.00" fill="#000000">+ __getitem__()</text>
</a>
</g>
</g>
<!-- Node0&#45;&gt;Node13 -->
<g id="edge13" class="edge">
<title>Node0&#45;&gt;Node13</title>
<path fill="none" stroke="#191970" d="M1202.1914,-245.3635C1193.9439,-229.9095 1185.8274,-214.7009 1178.6942,-201.3347"/>
<polygon fill="none" stroke="#191970" points="1199.26,-247.3045 1207.0561,-254.4789 1205.4356,-244.0087 1199.26,-247.3045"/>
</g>
<!-- Node14 -->
<g id="node15" class="node">
<title>Node14</title>
<g id="a_node15"><a xlink:href="classSignalIntegrity_1_1Lib_1_1SParameters_1_1Devices_1_1SeriesL_1_1SeriesL.xhtml" target="_top" xlink:title="s&#45;parameters of a series inductance ">
<polygon fill="#ffffff" stroke="#000000" points="1215,-122 1215,-190 1300,-190 1300,-122 1215,-122"/>
<text text-anchor="middle" x="1257.5" y="-178" font-family="Helvetica,sans-Serif" font-size="10.00" fill="#000000">SeriesL</text>
<polyline fill="none" stroke="#000000" points="1215,-171 1300,-171 "/>
<text text-anchor="start" x="1223" y="-159" font-family="Helvetica,sans-Serif" font-size="10.00" fill="#000000">+ m_L</text>
<polyline fill="none" stroke="#000000" points="1215,-152 1300,-152 "/>
<text text-anchor="start" x="1223" y="-140" font-family="Helvetica,sans-Serif" font-size="10.00" fill="#000000">+ __init__()</text>
<text text-anchor="start" x="1223" y="-129" font-family="Helvetica,sans-Serif" font-size="10.00" fill="#000000">+ __getitem__()</text>
</a>
</g>
</g>
<!-- Node0&#45;&gt;Node14 -->
<g id="edge14" class="edge">
<title>Node0&#45;&gt;Node14</title>
<path fill="none" stroke="#191970" d="M1257.5,-244.2785C1257.5,-224.8183 1257.5,-205.8073 1257.5,-190.4419"/>
<polygon fill="none" stroke="#191970" points="1254.0001,-244.4788 1257.5,-254.4789 1261.0001,-244.4789 1254.0001,-244.4788"/>
</g>
<!-- Node15 -->
<g id="node16" class="node">
<title>Node15</title>
<g id="a_node16"><a xlink:href="classSignalIntegrity_1_1Lib_1_1SParameters_1_1Devices_1_1SeriesRse_1_1SeriesRse.xhtml" target="_top" xlink:title="s&#45;parameters of series skin&#45;effect Resistance ">
<polygon fill="#ffffff" stroke="#000000" points="1318,-122 1318,-190 1403,-190 1403,-122 1318,-122"/>
<text text-anchor="middle" x="1360.5" y="-178" font-family="Helvetica,sans-Serif" font-size="10.00" fill="#000000">SeriesRse</text>
<polyline fill="none" stroke="#000000" points="1318,-171 1403,-171 "/>
<text text-anchor="start" x="1326" y="-159" font-family="Helvetica,sans-Serif" font-size="10.00" fill="#000000">+ m_Rse</text>
<polyline fill="none" stroke="#000000" points="1318,-152 1403,-152 "/>
<text text-anchor="start" x="1326" y="-140" font-family="Helvetica,sans-Serif" font-size="10.00" fill="#000000">+ __init__()</text>
<text text-anchor="start" x="1326" y="-129" font-family="Helvetica,sans-Serif" font-size="10.00" fill="#000000">+ __getitem__()</text>
</a>
</g>
</g>
<!-- Node0&#45;&gt;Node15 -->
<g id="edge15" class="edge">
<title>Node0&#45;&gt;Node15</title>
<path fill="none" stroke="#191970" d="M1312.6727,-245.6181C1323.3067,-225.6923 1333.7308,-206.1597 1342.1191,-190.4419"/>
<polygon fill="none" stroke="#191970" points="1309.5644,-244.0087 1307.9439,-254.4789 1315.74,-247.3045 1309.5644,-244.0087"/>
</g>
<!-- Node16 -->
<g id="node17" class="node">
<title>Node16</title>
<g id="a_node17"><a xlink:href="classSignalIntegrity_1_1Lib_1_1SParameters_1_1Devices_1_1TerminationC_1_1TerminationC.xhtml" target="_top" xlink:title="s&#45;parameters of a termination (one&#45;port) capacitance ">
<polygon fill="#ffffff" stroke="#000000" points="1421,-111 1421,-201 1506,-201 1506,-111 1421,-111"/>
<text text-anchor="middle" x="1463.5" y="-189" font-family="Helvetica,sans-Serif" font-size="10.00" fill="#000000">TerminationC</text>
<polyline fill="none" stroke="#000000" points="1421,-182 1506,-182 "/>
<text text-anchor="start" x="1429" y="-170" font-family="Helvetica,sans-Serif" font-size="10.00" fill="#000000">+ m_C</text>
<text text-anchor="start" x="1429" y="-159" font-family="Helvetica,sans-Serif" font-size="10.00" fill="#000000">+ m_df</text>
<text text-anchor="start" x="1429" y="-148" font-family="Helvetica,sans-Serif" font-size="10.00" fill="#000000">+ m_esr</text>
<polyline fill="none" stroke="#000000" points="1421,-141 1506,-141 "/>
<text text-anchor="start" x="1429" y="-129" font-family="Helvetica,sans-Serif" font-size="10.00" fill="#000000">+ __init__()</text>
<text text-anchor="start" x="1429" y="-118" font-family="Helvetica,sans-Serif" font-size="10.00" fill="#000000">+ __getitem__()</text>
</a>
</g>
</g>
<!-- Node0&#45;&gt;Node16 -->
<g id="edge16" class="edge">
<title>Node0&#45;&gt;Node16</title>
<path fill="none" stroke="#191970" d="M1335.2563,-287.2104C1360.3882,-266.1109 1387.8526,-241.8128 1411.5,-218 1416.7466,-212.7168 1422.0495,-206.9637 1427.1607,-201.1617"/>
<polygon fill="none" stroke="#191970" points="1332.9732,-284.557 1327.5384,-293.6517 1337.4586,-289.9312 1332.9732,-284.557"/>
</g>
<!-- Node17 -->
<g id="node18" class="node">
<title>Node17</title>
<g id="a_node18"><a xlink:href="classSignalIntegrity_1_1Lib_1_1SParameters_1_1Devices_1_1TerminationL_1_1TerminationL.xhtml" target="_top" xlink:title="s&#45;parameters of a termination (one&#45;port) inductance ">
<polygon fill="#ffffff" stroke="#000000" points="1524,-122 1524,-190 1609,-190 1609,-122 1524,-122"/>
<text text-anchor="middle" x="1566.5" y="-178" font-family="Helvetica,sans-Serif" font-size="10.00" fill="#000000">TerminationL</text>
<polyline fill="none" stroke="#000000" points="1524,-171 1609,-171 "/>
<text text-anchor="start" x="1532" y="-159" font-family="Helvetica,sans-Serif" font-size="10.00" fill="#000000">+ m_L</text>
<polyline fill="none" stroke="#000000" points="1524,-152 1609,-152 "/>
<text text-anchor="start" x="1532" y="-140" font-family="Helvetica,sans-Serif" font-size="10.00" fill="#000000">+ __init__()</text>
<text text-anchor="start" x="1532" y="-129" font-family="Helvetica,sans-Serif" font-size="10.00" fill="#000000">+ __getitem__()</text>
</a>
</g>
</g>
<!-- Node0&#45;&gt;Node17 -->
<g id="edge17" class="edge">
<title>Node0&#45;&gt;Node17</title>
<path fill="none" stroke="#191970" d="M1337.0912,-318.3374C1390.4814,-295.4837 1460.6199,-260.8753 1514.5,-218 1524.5035,-210.0397 1533.9657,-199.9045 1542.0075,-190.1464"/>
<polygon fill="none" stroke="#191970" points="1335.5088,-315.2064 1327.6627,-322.326 1338.2361,-321.6533 1335.5088,-315.2064"/>
</g>
<!-- Node18 -->
<g id="node19" class="node">
<title>Node18</title>
<g id="a_node19"><a xlink:href="classSignalIntegrity_1_1Lib_1_1SParameters_1_1Devices_1_1TLineDifferentialRLGC_1_1TLineDifferentialRLGC.xhtml" target="_top" xlink:title="s&#45;parameters of differential RLGC (telegrapher&#39;s) transmission line ">
<polygon fill="#ffffff" stroke="#000000" points="1627.5,-116.5 1627.5,-195.5 1743.5,-195.5 1743.5,-116.5 1627.5,-116.5"/>
<text text-anchor="middle" x="1685.5" y="-183.5" font-family="Helvetica,sans-Serif" font-size="10.00" fill="#000000">TLineDifferentialRLGC</text>
<polyline fill="none" stroke="#000000" points="1627.5,-176.5 1743.5,-176.5 "/>
<text text-anchor="start" x="1635.5" y="-164.5" font-family="Helvetica,sans-Serif" font-size="10.00" fill="#000000">+ sp</text>
<text text-anchor="start" x="1635.5" y="-153.5" font-family="Helvetica,sans-Serif" font-size="10.00" fill="#000000">+ rtFraction</text>
<polyline fill="none" stroke="#000000" points="1627.5,-146.5 1743.5,-146.5 "/>
<text text-anchor="start" x="1635.5" y="-134.5" font-family="Helvetica,sans-Serif" font-size="10.00" fill="#000000">+ __init__()</text>
<text text-anchor="start" x="1635.5" y="-123.5" font-family="Helvetica,sans-Serif" font-size="10.00" fill="#000000">+ __getitem__()</text>
</a>
</g>
</g>
<!-- Node0&#45;&gt;Node18 -->
<g id="edge18" class="edge">
<title>Node0&#45;&gt;Node18</title>
<path fill="none" stroke="#191970" d="M1337.6743,-329.8028C1413.6607,-309.3848 1529.1449,-272.4626 1618.5,-218 1628.7848,-211.7314 1638.868,-203.7204 1647.9629,-195.554"/>
<polygon fill="none" stroke="#191970" points="1336.4523,-326.5058 1327.6843,-332.4532 1338.2474,-333.2717 1336.4523,-326.5058"/>
</g>
<!-- Node19 -->
<g id="node20" class="node">
<title>Node19</title>
<g id="a_node20"><a xlink:href="classSignalIntegrity_1_1Lib_1_1SParameters_1_1Devices_1_1TLineDifferentialRLGCApproximate_1_1TLineDifferentialRLGCApproximate.xhtml" target="_top" xlink:title="s&#45;parameters of differential RLGC (telegrapher&#39;s) transmission line calculated by approximating distr...">
<polygon fill="#ffffff" stroke="#000000" points="1761.5,-111 1761.5,-201 1931.5,-201 1931.5,-111 1761.5,-111"/>
<text text-anchor="middle" x="1846.5" y="-189" font-family="Helvetica,sans-Serif" font-size="10.00" fill="#000000">TLineDifferentialRLGCApproximate</text>
<polyline fill="none" stroke="#000000" points="1761.5,-182 1931.5,-182 "/>
<text text-anchor="start" x="1769.5" y="-170" font-family="Helvetica,sans-Serif" font-size="10.00" fill="#000000">+ m_K</text>
<text text-anchor="start" x="1769.5" y="-159" font-family="Helvetica,sans-Serif" font-size="10.00" fill="#000000">+ m_sspn</text>
<text text-anchor="start" x="1769.5" y="-148" font-family="Helvetica,sans-Serif" font-size="10.00" fill="#000000">+ m_spdl</text>
<polyline fill="none" stroke="#000000" points="1761.5,-141 1931.5,-141 "/>
<text text-anchor="start" x="1769.5" y="-129" font-family="Helvetica,sans-Serif" font-size="10.00" fill="#000000">+ __init__()</text>
<text text-anchor="start" x="1769.5" y="-118" font-family="Helvetica,sans-Serif" font-size="10.00" fill="#000000">+ __getitem__()</text>
</a>
</g>
</g>
<!-- Node0&#45;&gt;Node19 -->
<g id="edge19" class="edge">
<title>Node0&#45;&gt;Node19</title>
<path fill="none" stroke="#191970" d="M1337.5983,-336.0738C1437.775,-318.0663 1613.0668,-280.4169 1752.5,-218 1763.1168,-213.2474 1773.8763,-207.3548 1784.1387,-201.1088"/>
<polygon fill="none" stroke="#191970" points="1336.7808,-332.6642 1327.5474,-337.8599 1338.0055,-339.5562 1336.7808,-332.6642"/>
</g>
<!-- Node20 -->
<g id="node21" class="node">
<title>Node20</title>
<g id="a_node21"><a xlink:href="classSignalIntegrity_1_1Lib_1_1SParameters_1_1Devices_1_1TLineDifferentialRLGCBalanced_1_1TLineDifferentialRLGCBalanced.xhtml" target="_top" xlink:title="s&#45;parameters of analytic balanced differential RLGC (telegrapher&#39;s) transmission line. ">
<polygon fill="#ffffff" stroke="#000000" points="1949.5,-116.5 1949.5,-195.5 2105.5,-195.5 2105.5,-116.5 1949.5,-116.5"/>
<text text-anchor="middle" x="2027.5" y="-183.5" font-family="Helvetica,sans-Serif" font-size="10.00" fill="#000000">TLineDifferentialRLGCBalanced</text>
<polyline fill="none" stroke="#000000" points="1949.5,-176.5 2105.5,-176.5 "/>
<text text-anchor="start" x="1957.5" y="-164.5" font-family="Helvetica,sans-Serif" font-size="10.00" fill="#000000">+ m_sspn</text>
<text text-anchor="start" x="1957.5" y="-153.5" font-family="Helvetica,sans-Serif" font-size="10.00" fill="#000000">+ m_spdl</text>
<polyline fill="none" stroke="#000000" points="1949.5,-146.5 2105.5,-146.5 "/>
<text text-anchor="start" x="1957.5" y="-134.5" font-family="Helvetica,sans-Serif" font-size="10.00" fill="#000000">+ __init__()</text>
<text text-anchor="start" x="1957.5" y="-123.5" font-family="Helvetica,sans-Serif" font-size="10.00" fill="#000000">+ __getitem__()</text>
</a>
</g>
</g>
<!-- Node0&#45;&gt;Node20 -->
<g id="edge20" class="edge">
<title>Node0&#45;&gt;Node20</title>
<path fill="none" stroke="#191970" d="M1338.0829,-344.6731C1469.2381,-335.228 1734.8866,-305.9834 1940.5,-218 1953.9708,-212.2358 1967.4126,-204.1249 1979.5605,-195.6646"/>
<polygon fill="none" stroke="#191970" points="1337.4584,-341.2081 1327.7271,-345.3976 1337.9471,-348.191 1337.4584,-341.2081"/>
</g>
<!-- Node21 -->
<g id="node22" class="node">
<title>Node21</title>
<g id="a_node22"><a xlink:href="classSignalIntegrity_1_1Lib_1_1SParameters_1_1Devices_1_1TLineDifferentialRLGCUncoupled_1_1TLineDifferentialRLGCUncoupled.xhtml" target="_top" xlink:title="s&#45;parameters of analytic uncoupled differential RLGC (telegrapher&#39;s) transmission line...">
<polygon fill="#ffffff" stroke="#000000" points="2123.5,-116.5 2123.5,-195.5 2285.5,-195.5 2285.5,-116.5 2123.5,-116.5"/>
<text text-anchor="middle" x="2204.5" y="-183.5" font-family="Helvetica,sans-Serif" font-size="10.00" fill="#000000">TLineDifferentialRLGCUncoupled</text>
<polyline fill="none" stroke="#000000" points="2123.5,-176.5 2285.5,-176.5 "/>
<text text-anchor="start" x="2131.5" y="-164.5" font-family="Helvetica,sans-Serif" font-size="10.00" fill="#000000">+ m_sspn</text>
<text text-anchor="start" x="2131.5" y="-153.5" font-family="Helvetica,sans-Serif" font-size="10.00" fill="#000000">+ m_spdl</text>
<polyline fill="none" stroke="#000000" points="2123.5,-146.5 2285.5,-146.5 "/>
<text text-anchor="start" x="2131.5" y="-134.5" font-family="Helvetica,sans-Serif" font-size="10.00" fill="#000000">+ __init__()</text>
<text text-anchor="start" x="2131.5" y="-123.5" font-family="Helvetica,sans-Serif" font-size="10.00" fill="#000000">+ __getitem__()</text>
</a>
</g>
</g>
<!-- Node0&#45;&gt;Node21 -->
<g id="edge21" class="edge">
<title>Node0&#45;&gt;Node21</title>
<path fill="none" stroke="#191970" d="M1337.8041,-341.3663C1522.6966,-323.0474 1973.4023,-273.9406 2114.5,-218 2128.6104,-212.4057 2142.6909,-204.2531 2155.3822,-195.6875"/>
<polygon fill="none" stroke="#191970" points="1337.2147,-337.9074 1327.6066,-342.3721 1337.9019,-344.8736 1337.2147,-337.9074"/>
</g>
<!-- Node22 -->
<g id="node23" class="node">
<title>Node22</title>
<g id="a_node23"><a xlink:href="classSignalIntegrity_1_1Lib_1_1SParameters_1_1Devices_1_1TLineLossless_1_1TLineLossless.xhtml" target="_top" xlink:title="s&#45;parameters of ideal lossless single&#45;ended transmission line ">
<polygon fill="#ffffff" stroke="#000000" points="2304,-111 2304,-201 2389,-201 2389,-111 2304,-111"/>
<text text-anchor="middle" x="2346.5" y="-189" font-family="Helvetica,sans-Serif" font-size="10.00" fill="#000000">TLineLossless</text>
<polyline fill="none" stroke="#000000" points="2304,-182 2389,-182 "/>
<text text-anchor="start" x="2312" y="-170" font-family="Helvetica,sans-Serif" font-size="10.00" fill="#000000">+ m_Zc</text>
<text text-anchor="start" x="2312" y="-159" font-family="Helvetica,sans-Serif" font-size="10.00" fill="#000000">+ m_Td</text>
<text text-anchor="start" x="2312" y="-148" font-family="Helvetica,sans-Serif" font-size="10.00" fill="#000000">+ m_P</text>
<polyline fill="none" stroke="#000000" points="2304,-141 2389,-141 "/>
<text text-anchor="start" x="2312" y="-129" font-family="Helvetica,sans-Serif" font-size="10.00" fill="#000000">+ __init__()</text>
<text text-anchor="start" x="2312" y="-118" font-family="Helvetica,sans-Serif" font-size="10.00" fill="#000000">+ __getitem__()</text>
</a>
</g>
</g>
<!-- Node0&#45;&gt;Node22 -->
<g id="edge22" class="edge">
<title>Node0&#45;&gt;Node22</title>
<path fill="none" stroke="#191970" d="M1337.7111,-346.3649C1551.3899,-338.1783 2129.3281,-308.0788 2294.5,-218 2302.3935,-213.6952 2309.5903,-207.6677 2315.9453,-201.0481"/>
<polygon fill="none" stroke="#191970" points="1337.3702,-342.8751 1327.5092,-346.7496 1337.634,-349.8702 1337.3702,-342.8751"/>
</g>
<!-- Node23 -->
<g id="node24" class="node">
<title>Node23</title>
<g id="a_node24"><a xlink:href="classSignalIntegrity_1_1Lib_1_1SParameters_1_1Devices_1_1TLineTwoPortRLGC_1_1TLineTwoPortRLGC.xhtml" target="_top" xlink:title="s&#45;parameters of single&#45;ended RLGC (telegraphers) transmission line ">
<polygon fill="#ffffff" stroke="#000000" points="2407,-122 2407,-190 2512,-190 2512,-122 2407,-122"/>
<text text-anchor="middle" x="2459.5" y="-178" font-family="Helvetica,sans-Serif" font-size="10.00" fill="#000000">TLineTwoPortRLGC</text>
<polyline fill="none" stroke="#000000" points="2407,-171 2512,-171 "/>
<text text-anchor="start" x="2415" y="-159" font-family="Helvetica,sans-Serif" font-size="10.00" fill="#000000">+ sp</text>
<polyline fill="none" stroke="#000000" points="2407,-152 2512,-152 "/>
<text text-anchor="start" x="2415" y="-140" font-family="Helvetica,sans-Serif" font-size="10.00" fill="#000000">+ __init__()</text>
<text text-anchor="start" x="2415" y="-129" font-family="Helvetica,sans-Serif" font-size="10.00" fill="#000000">+ __getitem__()</text>
</a>
</g>
</g>
<!-- Node0&#45;&gt;Node23 -->
<g id="edge23" class="edge">
<title>Node0&#45;&gt;Node23</title>
<path fill="none" stroke="#191970" d="M1338.0837,-346.6721C1565.9836,-339.0115 2210.7611,-309.5975 2398.5,-218 2411.7996,-211.5111 2423.856,-200.9045 2433.672,-190.2836"/>
<polygon fill="none" stroke="#191970" points="1337.753,-343.181 1327.8743,-347.01 1337.9846,-350.1772 1337.753,-343.181"/>
</g>
<!-- Node24 -->
<g id="node25" class="node">
<title>Node24</title>
<g id="a_node25"><a xlink:href="classSignalIntegrity_1_1Lib_1_1SParameters_1_1Devices_1_1TLineTwoPortRLGCAnalytic_1_1TLineTwoPortRLGCAnalytic.xhtml" target="_top" xlink:title="s&#45;parameters of analytic single&#45;ended telegraphers transmission line ">
<polygon fill="#ffffff" stroke="#000000" points="2530.5,-94.5 2530.5,-217.5 2670.5,-217.5 2670.5,-94.5 2530.5,-94.5"/>
<text text-anchor="middle" x="2600.5" y="-205.5" font-family="Helvetica,sans-Serif" font-size="10.00" fill="#000000">TLineTwoPortRLGCAnalytic</text>
<polyline fill="none" stroke="#000000" points="2530.5,-198.5 2670.5,-198.5 "/>
<text text-anchor="start" x="2538.5" y="-186.5" font-family="Helvetica,sans-Serif" font-size="10.00" fill="#000000">+ R</text>
<text text-anchor="start" x="2538.5" y="-175.5" font-family="Helvetica,sans-Serif" font-size="10.00" fill="#000000">+ Rse</text>
<text text-anchor="start" x="2538.5" y="-164.5" font-family="Helvetica,sans-Serif" font-size="10.00" fill="#000000">+ L</text>
<text text-anchor="start" x="2538.5" y="-153.5" font-family="Helvetica,sans-Serif" font-size="10.00" fill="#000000">+ G</text>
<text text-anchor="start" x="2538.5" y="-142.5" font-family="Helvetica,sans-Serif" font-size="10.00" fill="#000000">+ C</text>
<text text-anchor="start" x="2538.5" y="-131.5" font-family="Helvetica,sans-Serif" font-size="10.00" fill="#000000">+ df</text>
<polyline fill="none" stroke="#000000" points="2530.5,-124.5 2670.5,-124.5 "/>
<text text-anchor="start" x="2538.5" y="-112.5" font-family="Helvetica,sans-Serif" font-size="10.00" fill="#000000">+ __init__()</text>
<text text-anchor="start" x="2538.5" y="-101.5" font-family="Helvetica,sans-Serif" font-size="10.00" fill="#000000">+ __getitem__()</text>
</a>
</g>
</g>
<!-- Node0&#45;&gt;Node24 -->
<g id="edge24" class="edge">
<title>Node0&#45;&gt;Node24</title>
<path fill="none" stroke="#191970" d="M1338.0475,-346.4712C1581.2822,-337.9289 2304.8752,-305.6148 2521.5,-218 2524.4093,-216.8233 2527.3001,-215.5056 2530.1605,-214.0725"/>
<polygon fill="none" stroke="#191970" points="1337.7391,-342.9797 1327.8666,-346.8247 1337.982,-349.9755 1337.7391,-342.9797"/>
</g>
<!-- Node25 -->
<g id="node26" class="node">
<title>Node25</title>
<g id="a_node26"><a xlink:href="classSignalIntegrity_1_1Lib_1_1SParameters_1_1SParameterFile_1_1SParameterFile.xhtml" target="_top" xlink:title="class for s&#45;parameters read from a file ">
<polygon fill="#ffffff" stroke="#000000" points="2688.5,-105.5 2688.5,-206.5 2772.5,-206.5 2772.5,-105.5 2688.5,-105.5"/>
<text text-anchor="middle" x="2730.5" y="-194.5" font-family="Helvetica,sans-Serif" font-size="10.00" fill="#000000">SParameterFile</text>
<polyline fill="none" stroke="#000000" points="2688.5,-187.5 2772.5,-187.5 "/>
<text text-anchor="start" x="2696.5" y="-175.5" font-family="Helvetica,sans-Serif" font-size="10.00" fill="#000000">+ m_sToken</text>
<text text-anchor="start" x="2696.5" y="-164.5" font-family="Helvetica,sans-Serif" font-size="10.00" fill="#000000">+ m_Z0</text>
<text text-anchor="start" x="2696.5" y="-153.5" font-family="Helvetica,sans-Serif" font-size="10.00" fill="#000000">+ m_P</text>
<text text-anchor="start" x="2696.5" y="-142.5" font-family="Helvetica,sans-Serif" font-size="10.00" fill="#000000">+ m_f</text>
<text text-anchor="start" x="2696.5" y="-131.5" font-family="Helvetica,sans-Serif" font-size="10.00" fill="#000000">+ m_d</text>
<polyline fill="none" stroke="#000000" points="2688.5,-124.5 2772.5,-124.5 "/>
<text text-anchor="start" x="2696.5" y="-112.5" font-family="Helvetica,sans-Serif" font-size="10.00" fill="#000000">+ __init__()</text>
</a>
</g>
</g>
<!-- Node0&#45;&gt;Node25 -->
<g id="edge25" class="edge">
<title>Node0&#45;&gt;Node25</title>
<path fill="none" stroke="#191970" d="M1337.9131,-345.2019C1620.9663,-331.3405 2560.6122,-280.9789 2679.5,-218 2685.1655,-214.9988 2690.4416,-211.0743 2695.2854,-206.6553"/>
<polygon fill="none" stroke="#191970" points="1337.5405,-341.7158 1327.7229,-345.699 1337.8816,-348.7075 1337.5405,-341.7158"/>
</g>
<!-- Node1 -->
<g id="node2" class="node">
<title>Node1</title>
<g id="a_node2"><a xlink:href="classSignalIntegrity_1_1Lib_1_1SParameters_1_1SParameterManipulation_1_1SParameterManipulation.xhtml" target="_top" xlink:title="Class for manipulations on s&#45;parameters involving passivity, causality, etc. ">
<polygon fill="#ffffff" stroke="#000000" points="1196,-480.5 1196,-581.5 1319,-581.5 1319,-480.5 1196,-480.5"/>
<text text-anchor="middle" x="1257.5" y="-569.5" font-family="Helvetica,sans-Serif" font-size="10.00" fill="#000000">SParameterManipulation</text>
<polyline fill="none" stroke="#000000" points="1196,-562.5 1319,-562.5 "/>
<text text-anchor="middle" x="1257.5" y="-550.5" font-family="Helvetica,sans-Serif" font-size="10.00" fill="#000000"> </text>
<polyline fill="none" stroke="#000000" points="1196,-543.5 1319,-543.5 "/>
<text text-anchor="start" x="1204" y="-531.5" font-family="Helvetica,sans-Serif" font-size="10.00" fill="#000000">+ EnforcePassivity()</text>
<text text-anchor="start" x="1204" y="-520.5" font-family="Helvetica,sans-Serif" font-size="10.00" fill="#000000">+ IsCausal()</text>
<text text-anchor="start" x="1204" y="-509.5" font-family="Helvetica,sans-Serif" font-size="10.00" fill="#000000">+ EnforceCausality()</text>
<text text-anchor="start" x="1204" y="-498.5" font-family="Helvetica,sans-Serif" font-size="10.00" fill="#000000">+ WaveletDenoise()</text>
<text text-anchor="start" x="1204" y="-487.5" font-family="Helvetica,sans-Serif" font-size="10.00" fill="#000000">+ PortReorder()</text>
</a>
</g>
</g>
<!-- Node1&#45;&gt;Node0 -->
<g id="edge1" class="edge">
<title>Node1&#45;&gt;Node0</title>
<path fill="none" stroke="#191970" d="M1257.5,-470.1163C1257.5,-461.584 1257.5,-452.6535 1257.5,-443.6753"/>
<polygon fill="none" stroke="#191970" points="1254.0001,-470.3028 1257.5,-480.3029 1261.0001,-470.3029 1254.0001,-470.3028"/>
</g>
<!-- Node6 -->
<g id="node7" class="node">
<title>Node6</title>
<g id="a_node7"><a xlink:href="classSignalIntegrity_1_1Lib_1_1Measurement_1_1CalKit_1_1Standards_1_1ThruStandard_1_1ThruStandard.xhtml" target="_top" xlink:title="Class providing the s&#45;parameters of a thru standard as commonly defined for a calibration kit...">
<polygon fill="#ffffff" stroke="#000000" points="338,-.5 338,-57.5 413,-57.5 413,-.5 338,-.5"/>
<text text-anchor="middle" x="375.5" y="-45.5" font-family="Helvetica,sans-Serif" font-size="10.00" fill="#000000">ThruStandard</text>
<polyline fill="none" stroke="#000000" points="338,-38.5 413,-38.5 "/>
<text text-anchor="middle" x="375.5" y="-26.5" font-family="Helvetica,sans-Serif" font-size="10.00" fill="#000000"> </text>
<polyline fill="none" stroke="#000000" points="338,-19.5 413,-19.5 "/>
<text text-anchor="start" x="346" y="-7.5" font-family="Helvetica,sans-Serif" font-size="10.00" fill="#000000">+ __init__()</text>
</a>
</g>
</g>
<!-- Node5&#45;&gt;Node6 -->
<g id="edge6" class="edge">
<title>Node5&#45;&gt;Node6</title>
<path fill="none" stroke="#191970" d="M375.5,-117.286C375.5,-98.1438 375.5,-75.4372 375.5,-57.8456"/>
<polygon fill="none" stroke="#191970" points="372.0001,-117.4987 375.5,-127.4987 379.0001,-117.4988 372.0001,-117.4987"/>
</g>
</g>
</svg>
