<?xml version="1.0" encoding="UTF-8" standalone="no"?>
<!DOCTYPE svg PUBLIC "-//W3C//DTD SVG 1.1//EN"
 "http://www.w3.org/Graphics/SVG/1.1/DTD/svg11.dtd">
<!-- Generated by graphviz version 2.40.1 (20161225.0304)
 -->
<!-- Title: VirtualProbeNumericParser Pages: 1 -->
<svg width="353pt" height="557pt"
 viewBox="0.00 0.00 352.50 557.00" xmlns="http://www.w3.org/2000/svg" xmlns:xlink="http://www.w3.org/1999/xlink">
<g id="graph0" class="graph" transform="scale(1 1) rotate(0) translate(4 553)">
<title>VirtualProbeNumericParser</title>
<polygon fill="#ffffff" stroke="transparent" points="-4,4 -4,-553 348.5,-553 348.5,4 -4,4"/>
<!-- Node0 -->
<g id="node1" class="node">
<title>Node0</title>
<polygon fill="#bfbfbf" stroke="#000000" points="117.5,-.5 117.5,-79.5 252.5,-79.5 252.5,-.5 117.5,-.5"/>
<text text-anchor="middle" x="185" y="-67.5" font-family="Helvetica,sans-Serif" font-size="10.00" fill="#000000">VirtualProbeNumericParser</text>
<polyline fill="none" stroke="#000000" points="117.5,-60.5 252.5,-60.5 "/>
<text text-anchor="start" x="125.5" y="-48.5" font-family="Helvetica,sans-Serif" font-size="10.00" fill="#000000">+ transferMatrices</text>
<text text-anchor="start" x="125.5" y="-37.5" font-family="Helvetica,sans-Serif" font-size="10.00" fill="#000000">+ m_tm</text>
<polyline fill="none" stroke="#000000" points="117.5,-30.5 252.5,-30.5 "/>
<text text-anchor="start" x="125.5" y="-18.5" font-family="Helvetica,sans-Serif" font-size="10.00" fill="#000000">+ __init__()</text>
<text text-anchor="start" x="125.5" y="-7.5" font-family="Helvetica,sans-Serif" font-size="10.00" fill="#000000">+ TransferMatrices()</text>
</g>
<!-- Node1 -->
<g id="node2" class="node">
<title>Node1</title>
<g id="a_node2"><a xlink:href="classSignalIntegrity_1_1Lib_1_1Parsers_1_1VirtualProbeParser_1_1VirtualProbeParser.xhtml" target="_top" xlink:title="base class for netlist based virtual probing solutions ">
<polygon fill="#ffffff" stroke="#000000" points="15,-133 15,-201 113,-201 113,-133 15,-133"/>
<text text-anchor="middle" x="64" y="-189" font-family="Helvetica,sans-Serif" font-size="10.00" fill="#000000">VirtualProbeParser</text>
<polyline fill="none" stroke="#000000" points="15,-182 113,-182 "/>
<text text-anchor="start" x="23" y="-170" font-family="Helvetica,sans-Serif" font-size="10.00" fill="#000000">+ m_sd</text>
<text text-anchor="start" x="23" y="-159" font-family="Helvetica,sans-Serif" font-size="10.00" fill="#000000">+ m_ul</text>
<polyline fill="none" stroke="#000000" points="15,-152 113,-152 "/>
<text text-anchor="start" x="23" y="-140" font-family="Helvetica,sans-Serif" font-size="10.00" fill="#000000">+ __init__()</text>
</a>
</g>
</g>
<!-- Node1&#45;&gt;Node0 -->
<g id="edge1" class="edge">
<title>Node1&#45;&gt;Node0</title>
<path fill="none" stroke="#191970" d="M103.6032,-125.433C117.6643,-110.6747 133.4422,-94.1143 147.3367,-79.5309"/>
<polygon fill="none" stroke="#191970" points="100.7898,-123.312 96.4258,-132.9663 105.8578,-128.1406 100.7898,-123.312"/>
</g>
<!-- Node2 -->
<g id="node3" class="node">
<title>Node2</title>
<g id="a_node3"><a xlink:href="classSignalIntegrity_1_1Lib_1_1Parsers_1_1SystemDescriptionParser_1_1SystemDescriptionParser.xhtml" target="_top" xlink:title="Parses netlists and produces system descriptions. ">
<polygon fill="#ffffff" stroke="#000000" points="0,-254.5 0,-443.5 128,-443.5 128,-254.5 0,-254.5"/>
<text text-anchor="middle" x="64" y="-431.5" font-family="Helvetica,sans-Serif" font-size="10.00" fill="#000000">SystemDescriptionParser</text>
<polyline fill="none" stroke="#000000" points="0,-424.5 128,-424.5 "/>
<text text-anchor="start" x="8" y="-412.5" font-family="Helvetica,sans-Serif" font-size="10.00" fill="#000000">+ m_sd</text>
<text text-anchor="start" x="8" y="-401.5" font-family="Helvetica,sans-Serif" font-size="10.00" fill="#000000">+ m_f</text>
<text text-anchor="start" x="8" y="-390.5" font-family="Helvetica,sans-Serif" font-size="10.00" fill="#000000">+ m_lines</text>
<text text-anchor="start" x="8" y="-379.5" font-family="Helvetica,sans-Serif" font-size="10.00" fill="#000000">+ m_addThru</text>
<text text-anchor="start" x="8" y="-368.5" font-family="Helvetica,sans-Serif" font-size="10.00" fill="#000000">+ known</text>
<text text-anchor="start" x="8" y="-357.5" font-family="Helvetica,sans-Serif" font-size="10.00" fill="#000000">+ delayDict</text>
<text text-anchor="start" x="8" y="-346.5" font-family="Helvetica,sans-Serif" font-size="10.00" fill="#000000">+ m_spc</text>
<text text-anchor="start" x="8" y="-335.5" font-family="Helvetica,sans-Serif" font-size="10.00" fill="#000000">+ m_spcl</text>
<text text-anchor="start" x="8" y="-324.5" font-family="Helvetica,sans-Serif" font-size="10.00" fill="#000000">+ m_ul</text>
<polyline fill="none" stroke="#000000" points="0,-317.5 128,-317.5 "/>
<text text-anchor="start" x="8" y="-305.5" font-family="Helvetica,sans-Serif" font-size="10.00" fill="#000000">+ __init__()</text>
<text text-anchor="start" x="8" y="-294.5" font-family="Helvetica,sans-Serif" font-size="10.00" fill="#000000">+ SystemDescription()</text>
<text text-anchor="start" x="8" y="-283.5" font-family="Helvetica,sans-Serif" font-size="10.00" fill="#000000">+ AddKnownDevices()</text>
<text text-anchor="start" x="8" y="-272.5" font-family="Helvetica,sans-Serif" font-size="10.00" fill="#000000">+ AddLine()</text>
<text text-anchor="start" x="8" y="-261.5" font-family="Helvetica,sans-Serif" font-size="10.00" fill="#000000">+ AddLines()</text>
</a>
</g>
</g>
<!-- Node2&#45;&gt;Node1 -->
<g id="edge2" class="edge">
<title>Node2&#45;&gt;Node1</title>
<path fill="none" stroke="#191970" d="M64,-244.0656C64,-228.6301 64,-213.7424 64,-201.2361"/>
<polygon fill="none" stroke="#191970" points="60.5001,-244.2685 64,-254.2685 67.5001,-244.2685 60.5001,-244.2685"/>
</g>
<!-- Node3 -->
<g id="node4" class="node">
<title>Node3</title>
<g id="a_node4"><a xlink:href="classSignalIntegrity_1_1Lib_1_1Parsers_1_1ParserFile_1_1ParserFile.xhtml" target="_top" xlink:title="file handling base class for parsers ">
<polygon fill="#ffffff" stroke="#000000" points="23,-480.5 23,-548.5 105,-548.5 105,-480.5 23,-480.5"/>
<text text-anchor="middle" x="64" y="-536.5" font-family="Helvetica,sans-Serif" font-size="10.00" fill="#000000">ParserFile</text>
<polyline fill="none" stroke="#000000" points="23,-529.5 105,-529.5 "/>
<text text-anchor="middle" x="64" y="-517.5" font-family="Helvetica,sans-Serif" font-size="10.00" fill="#000000"> </text>
<polyline fill="none" stroke="#000000" points="23,-510.5 105,-510.5 "/>
<text text-anchor="start" x="31" y="-498.5" font-family="Helvetica,sans-Serif" font-size="10.00" fill="#000000">+ File()</text>
<text text-anchor="start" x="31" y="-487.5" font-family="Helvetica,sans-Serif" font-size="10.00" fill="#000000">+ WriteToFile()</text>
</a>
</g>
</g>
<!-- Node3&#45;&gt;Node2 -->
<g id="edge3" class="edge">
<title>Node3&#45;&gt;Node2</title>
<path fill="none" stroke="#191970" d="M64,-470.0888C64,-461.7937 64,-452.8388 64,-443.6848"/>
<polygon fill="none" stroke="#191970" points="60.5001,-470.2083 64,-480.2083 67.5001,-470.2083 60.5001,-470.2083"/>
</g>
<!-- Node4 -->
<g id="node5" class="node">
<title>Node4</title>
<g id="a_node5"><a xlink:href="classSignalIntegrity_1_1Lib_1_1CallBacker_1_1CallBacker.xhtml" target="_top" xlink:title="Handles Callbacks that allow progress reporting during long calculations and capability to abort...">
<polygon fill="#ffffff" stroke="#000000" points="131.5,-116.5 131.5,-217.5 238.5,-217.5 238.5,-116.5 131.5,-116.5"/>
<text text-anchor="middle" x="185" y="-205.5" font-family="Helvetica,sans-Serif" font-size="10.00" fill="#000000">CallBacker</text>
<polyline fill="none" stroke="#000000" points="131.5,-198.5 238.5,-198.5 "/>
<text text-anchor="start" x="139.5" y="-186.5" font-family="Helvetica,sans-Serif" font-size="10.00" fill="#000000">+ callback</text>
<polyline fill="none" stroke="#000000" points="131.5,-179.5 238.5,-179.5 "/>
<text text-anchor="start" x="139.5" y="-167.5" font-family="Helvetica,sans-Serif" font-size="10.00" fill="#000000">+ __init__()</text>
<text text-anchor="start" x="139.5" y="-156.5" font-family="Helvetica,sans-Serif" font-size="10.00" fill="#000000">+ HasACallBack()</text>
<text text-anchor="start" x="139.5" y="-145.5" font-family="Helvetica,sans-Serif" font-size="10.00" fill="#000000">+ CallBack()</text>
<text text-anchor="start" x="139.5" y="-134.5" font-family="Helvetica,sans-Serif" font-size="10.00" fill="#000000">+ InstallCallback()</text>
<text text-anchor="start" x="139.5" y="-123.5" font-family="Helvetica,sans-Serif" font-size="10.00" fill="#000000">+ RemoveCallback()</text>
</a>
</g>
</g>
<!-- Node4&#45;&gt;Node0 -->
<g id="edge4" class="edge">
<title>Node4&#45;&gt;Node0</title>
<path fill="none" stroke="#191970" d="M185,-106.3446C185,-97.3388 185,-88.2565 185,-79.8243"/>
<polygon fill="none" stroke="#191970" points="181.5001,-106.4413 185,-116.4413 188.5001,-106.4414 181.5001,-106.4413"/>
</g>
<!-- Node5 -->
<g id="node6" class="node">
<title>Node5</title>
<g id="a_node6"><a xlink:href="classSignalIntegrity_1_1Lib_1_1ResultsCache_1_1LinesCache.xhtml" target="_top" xlink:title="Caches results calculated based on netlist lines, as used in all of the parser classes. ">
<polygon fill="#ffffff" stroke="#000000" points="256.5,-127.5 256.5,-206.5 343.5,-206.5 343.5,-127.5 256.5,-127.5"/>
<text text-anchor="middle" x="300" y="-194.5" font-family="Helvetica,sans-Serif" font-size="10.00" fill="#000000">LinesCache</text>
<polyline fill="none" stroke="#000000" points="256.5,-187.5 343.5,-187.5 "/>
<text text-anchor="middle" x="300" y="-175.5" font-family="Helvetica,sans-Serif" font-size="10.00" fill="#000000"> </text>
<polyline fill="none" stroke="#000000" points="256.5,-168.5 343.5,-168.5 "/>
<text text-anchor="start" x="264.5" y="-156.5" font-family="Helvetica,sans-Serif" font-size="10.00" fill="#000000">+ __init__()</text>
<text text-anchor="start" x="264.5" y="-145.5" font-family="Helvetica,sans-Serif" font-size="10.00" fill="#000000">+ HashValue()</text>
<text text-anchor="start" x="264.5" y="-134.5" font-family="Helvetica,sans-Serif" font-size="10.00" fill="#000000">+ CheckTimes()</text>
</a>
</g>
</g>
<!-- Node5&#45;&gt;Node0 -->
<g id="edge5" class="edge">
<title>Node5&#45;&gt;Node0</title>
<path fill="none" stroke="#191970" d="M257.0491,-119.5673C245.1618,-106.4396 232.3865,-92.3312 220.9432,-79.6938"/>
<polygon fill="none" stroke="#191970" points="254.6222,-122.1015 263.9288,-127.1649 259.811,-117.403 254.6222,-122.1015"/>
</g>
<!-- Node6 -->
<g id="node7" class="node">
<title>Node6</title>
<g id="a_node7"><a xlink:href="classSignalIntegrity_1_1Lib_1_1ResultsCache_1_1ResultsCache.xhtml" target="_top" xlink:title="base class for results caching ">
<polygon fill="#ffffff" stroke="#000000" points="255.5,-287.5 255.5,-410.5 344.5,-410.5 344.5,-287.5 255.5,-287.5"/>
<text text-anchor="middle" x="300" y="-398.5" font-family="Helvetica,sans-Serif" font-size="10.00" fill="#000000">ResultsCache</text>
<polyline fill="none" stroke="#000000" points="255.5,-391.5 344.5,-391.5 "/>
<text text-anchor="start" x="263.5" y="-379.5" font-family="Helvetica,sans-Serif" font-size="10.00" fill="#000000">+ filename</text>
<text text-anchor="start" x="263.5" y="-368.5" font-family="Helvetica,sans-Serif" font-size="10.00" fill="#000000">+ extra</text>
<text text-anchor="start" x="263.5" y="-357.5" font-family="Helvetica,sans-Serif" font-size="10.00" fill="#000000">+ hash</text>
<polyline fill="none" stroke="#000000" points="255.5,-350.5 344.5,-350.5 "/>
<text text-anchor="start" x="263.5" y="-338.5" font-family="Helvetica,sans-Serif" font-size="10.00" fill="#000000">+ __init__()</text>
<text text-anchor="start" x="263.5" y="-327.5" font-family="Helvetica,sans-Serif" font-size="10.00" fill="#000000">+ CheckCache()</text>
<text text-anchor="start" x="263.5" y="-316.5" font-family="Helvetica,sans-Serif" font-size="10.00" fill="#000000">+ CacheResult()</text>
<text text-anchor="start" x="263.5" y="-305.5" font-family="Helvetica,sans-Serif" font-size="10.00" fill="#000000">+ FileTime()</text>
<text text-anchor="start" x="263.5" y="-294.5" font-family="Helvetica,sans-Serif" font-size="10.00" fill="#000000">+ CheckTimes()</text>
</a>
</g>
</g>
<!-- Node6&#45;&gt;Node5 -->
<g id="edge6" class="edge">
<title>Node6&#45;&gt;Node5</title>
<path fill="none" stroke="#191970" d="M300,-277.2107C300,-253.1583 300,-227.23 300,-206.5684"/>
<polygon fill="none" stroke="#191970" points="296.5001,-277.3831 300,-287.3831 303.5001,-277.3831 296.5001,-277.3831"/>
</g>
</g>
</svg>
