<?xml version="1.0" encoding="UTF-8" standalone="no"?>
<!DOCTYPE svg PUBLIC "-//W3C//DTD SVG 1.1//EN"
 "http://www.w3.org/Graphics/SVG/1.1/DTD/svg11.dtd">
<!-- Generated by graphviz version 2.40.1 (20161225.0304)
 -->
<!-- Title: CalibrationMeasurement Pages: 1 -->
<svg width="485pt" height="215pt"
 viewBox="0.00 0.00 485.50 215.00" xmlns="http://www.w3.org/2000/svg" xmlns:xlink="http://www.w3.org/1999/xlink">
<g id="graph0" class="graph" transform="scale(1 1) rotate(0) translate(4 211)">
<title>CalibrationMeasurement</title>
<polygon fill="#ffffff" stroke="transparent" points="-4,4 -4,-211 481.5,-211 481.5,4 -4,4"/>
<!-- Node0 -->
<g id="node1" class="node">
<title>Node0</title>
<polygon fill="#bfbfbf" stroke="#000000" points="182,-138.5 182,-206.5 304,-206.5 304,-138.5 182,-138.5"/>
<text text-anchor="middle" x="243" y="-194.5" font-family="Helvetica,sans-Serif" font-size="10.00" fill="#000000">CalibrationMeasurement</text>
<polyline fill="none" stroke="#000000" points="182,-187.5 304,-187.5 "/>
<text text-anchor="start" x="190" y="-175.5" font-family="Helvetica,sans-Serif" font-size="10.00" fill="#000000">+ type</text>
<text text-anchor="start" x="190" y="-164.5" font-family="Helvetica,sans-Serif" font-size="10.00" fill="#000000">+ name</text>
<polyline fill="none" stroke="#000000" points="182,-157.5 304,-157.5 "/>
<text text-anchor="start" x="190" y="-145.5" font-family="Helvetica,sans-Serif" font-size="10.00" fill="#000000">+ __init__()</text>
</g>
<!-- Node1 -->
<g id="node2" class="node">
<title>Node1</title>
<g id="a_node2"><a xlink:href="classSignalIntegrity_1_1Lib_1_1Measurement_1_1Calibration_1_1CalibrationMeasurements_1_1ReflectCalibrationMeasurement.xhtml" target="_top" xlink:title="A reflect measurement taken on a port with a reflect standard (like short, open, or load)...">
<polygon fill="#ffffff" stroke="#000000" points="0,-11.5 0,-90.5 154,-90.5 154,-11.5 0,-11.5"/>
<text text-anchor="middle" x="77" y="-78.5" font-family="Helvetica,sans-Serif" font-size="10.00" fill="#000000">ReflectCalibrationMeasurement</text>
<polyline fill="none" stroke="#000000" points="0,-71.5 154,-71.5 "/>
<text text-anchor="start" x="8" y="-59.5" font-family="Helvetica,sans-Serif" font-size="10.00" fill="#000000">+ gamma</text>
<text text-anchor="start" x="8" y="-48.5" font-family="Helvetica,sans-Serif" font-size="10.00" fill="#000000">+ Gamma</text>
<text text-anchor="start" x="8" y="-37.5" font-family="Helvetica,sans-Serif" font-size="10.00" fill="#000000">+ port</text>
<polyline fill="none" stroke="#000000" points="0,-30.5 154,-30.5 "/>
<text text-anchor="start" x="8" y="-18.5" font-family="Helvetica,sans-Serif" font-size="10.00" fill="#000000">+ __init__()</text>
</a>
</g>
</g>
<!-- Node0&#45;&gt;Node1 -->
<g id="edge1" class="edge">
<title>Node0&#45;&gt;Node1</title>
<path fill="none" stroke="#191970" d="M188.0812,-132.3034C169.806,-118.9273 149.4719,-104.0442 131.2478,-90.7055"/>
<polygon fill="none" stroke="#191970" points="186.1813,-135.2502 196.318,-138.3321 190.3157,-129.6015 186.1813,-135.2502"/>
</g>
<!-- Node2 -->
<g id="node3" class="node">
<title>Node2</title>
<g id="a_node3"><a xlink:href="classSignalIntegrity_1_1Lib_1_1Measurement_1_1Calibration_1_1CalibrationMeasurements_1_1ThruCalibrationMeasurement.xhtml" target="_top" xlink:title="A thru calibration measurement taken between two ports. ">
<polygon fill="#ffffff" stroke="#000000" points="172,-.5 172,-101.5 314,-101.5 314,-.5 172,-.5"/>
<text text-anchor="middle" x="243" y="-89.5" font-family="Helvetica,sans-Serif" font-size="10.00" fill="#000000">ThruCalibrationMeasurement</text>
<polyline fill="none" stroke="#000000" points="172,-82.5 314,-82.5 "/>
<text text-anchor="start" x="180" y="-70.5" font-family="Helvetica,sans-Serif" font-size="10.00" fill="#000000">+ b1a1</text>
<text text-anchor="start" x="180" y="-59.5" font-family="Helvetica,sans-Serif" font-size="10.00" fill="#000000">+ b2a1</text>
<text text-anchor="start" x="180" y="-48.5" font-family="Helvetica,sans-Serif" font-size="10.00" fill="#000000">+ S</text>
<text text-anchor="start" x="180" y="-37.5" font-family="Helvetica,sans-Serif" font-size="10.00" fill="#000000">+ portDriven</text>
<text text-anchor="start" x="180" y="-26.5" font-family="Helvetica,sans-Serif" font-size="10.00" fill="#000000">+ otherPort</text>
<polyline fill="none" stroke="#000000" points="172,-19.5 314,-19.5 "/>
<text text-anchor="start" x="180" y="-7.5" font-family="Helvetica,sans-Serif" font-size="10.00" fill="#000000">+ __init__()</text>
</a>
</g>
</g>
<!-- Node0&#45;&gt;Node2 -->
<g id="edge2" class="edge">
<title>Node0&#45;&gt;Node2</title>
<path fill="none" stroke="#191970" d="M243,-128.1349C243,-119.5408 243,-110.474 243,-101.6952"/>
<polygon fill="none" stroke="#191970" points="239.5001,-128.3321 243,-138.3321 246.5001,-128.3322 239.5001,-128.3321"/>
</g>
<!-- Node3 -->
<g id="node4" class="node">
<title>Node3</title>
<g id="a_node4"><a xlink:href="classSignalIntegrity_1_1Lib_1_1Measurement_1_1Calibration_1_1CalibrationMeasurements_1_1XtalkCalibrationMeasurement.xhtml" target="_top" xlink:title="A crosstalk calibration measurement typically taken between two ports that are completely unconnected...">
<polygon fill="#ffffff" stroke="#000000" points="332.5,-11.5 332.5,-90.5 477.5,-90.5 477.5,-11.5 332.5,-11.5"/>
<text text-anchor="middle" x="405" y="-78.5" font-family="Helvetica,sans-Serif" font-size="10.00" fill="#000000">XtalkCalibrationMeasurement</text>
<polyline fill="none" stroke="#000000" points="332.5,-71.5 477.5,-71.5 "/>
<text text-anchor="start" x="340.5" y="-59.5" font-family="Helvetica,sans-Serif" font-size="10.00" fill="#000000">+ b2a1</text>
<text text-anchor="start" x="340.5" y="-48.5" font-family="Helvetica,sans-Serif" font-size="10.00" fill="#000000">+ portDriven</text>
<text text-anchor="start" x="340.5" y="-37.5" font-family="Helvetica,sans-Serif" font-size="10.00" fill="#000000">+ otherPort</text>
<polyline fill="none" stroke="#000000" points="332.5,-30.5 477.5,-30.5 "/>
<text text-anchor="start" x="340.5" y="-18.5" font-family="Helvetica,sans-Serif" font-size="10.00" fill="#000000">+ __init__()</text>
</a>
</g>
</g>
<!-- Node0&#45;&gt;Node3 -->
<g id="edge3" class="edge">
<title>Node0&#45;&gt;Node3</title>
<path fill="none" stroke="#191970" d="M296.5955,-132.3034C314.4303,-118.9273 334.2744,-104.0442 352.0594,-90.7055"/>
<polygon fill="none" stroke="#191970" points="294.4571,-129.5321 288.5571,-138.3321 298.6572,-135.1321 294.4571,-129.5321"/>
</g>
</g>
</svg>
