<?xml version="1.0" encoding="UTF-8" standalone="no"?>
<!DOCTYPE svg PUBLIC "-//W3C//DTD SVG 1.1//EN"
 "http://www.w3.org/Graphics/SVG/1.1/DTD/svg11.dtd">
<!-- Generated by graphviz version 2.43.0 (0)
 -->
<!-- Title: CallBacker Pages: 1 -->
<svg width="1395pt" height="617pt"
 viewBox="0.00 0.00 1395.00 617.00" xmlns="http://www.w3.org/2000/svg" xmlns:xlink="http://www.w3.org/1999/xlink">
<g id="graph0" class="graph" transform="scale(1 1) rotate(0) translate(4 613)">
<title>CallBacker</title>
<polygon fill="white" stroke="transparent" points="-4,4 -4,-613 1391,-613 1391,4 -4,4"/>
<!-- Node1 -->
<g id="node1" class="node">
<title>Node1</title>
<g id="a_node1"><a xlink:title="Handles Callbacks that allow progress reporting during long calculations and capability to abort.">
<polygon fill="#bfbfbf" stroke="black" points="609,-507.5 609,-608.5 716,-608.5 716,-507.5 609,-507.5"/>
<text text-anchor="middle" x="662.5" y="-596.5" font-family="Helvetica,sans-Serif" font-size="10.00">CallBacker</text>
<polyline fill="none" stroke="black" points="609,-589.5 716,-589.5 "/>
<text text-anchor="start" x="617" y="-577.5" font-family="Helvetica,sans-Serif" font-size="10.00">+ callback</text>
<polyline fill="none" stroke="black" points="609,-570.5 716,-570.5 "/>
<text text-anchor="start" x="617" y="-558.5" font-family="Helvetica,sans-Serif" font-size="10.00">+ __init__()</text>
<text text-anchor="start" x="617" y="-547.5" font-family="Helvetica,sans-Serif" font-size="10.00">+ HasACallBack()</text>
<text text-anchor="start" x="617" y="-536.5" font-family="Helvetica,sans-Serif" font-size="10.00">+ CallBack()</text>
<text text-anchor="start" x="617" y="-525.5" font-family="Helvetica,sans-Serif" font-size="10.00">+ InstallCallback()</text>
<text text-anchor="start" x="617" y="-514.5" font-family="Helvetica,sans-Serif" font-size="10.00">+ RemoveCallback()</text>
</a>
</g>
</g>
<!-- Node2 -->
<g id="node2" class="node">
<title>Node2</title>
<g id="a_node2"><a xlink:href="classSignalIntegrity_1_1Lib_1_1Eye_1_1EyeDiagramBitmap_1_1EyeDiagramBitmap.xhtml" target="_top" xlink:title="Generates the eye diagram bitmap and many associated measurements from it.">
<polygon fill="white" stroke="black" points="0,-193.5 0,-470.5 111,-470.5 111,-193.5 0,-193.5"/>
<text text-anchor="middle" x="55.5" y="-458.5" font-family="Helvetica,sans-Serif" font-size="10.00">EyeDiagramBitmap</text>
<polyline fill="none" stroke="black" points="0,-451.5 111,-451.5 "/>
<text text-anchor="start" x="8" y="-439.5" font-family="Helvetica,sans-Serif" font-size="10.00">+ YAxisMode</text>
<text text-anchor="start" x="8" y="-428.5" font-family="Helvetica,sans-Serif" font-size="10.00">+ YMax</text>
<text text-anchor="start" x="8" y="-417.5" font-family="Helvetica,sans-Serif" font-size="10.00">+ YMin</text>
<text text-anchor="start" x="8" y="-406.5" font-family="Helvetica,sans-Serif" font-size="10.00">+ RowsSpecified</text>
<text text-anchor="start" x="8" y="-395.5" font-family="Helvetica,sans-Serif" font-size="10.00">+ Cols</text>
<text text-anchor="start" x="8" y="-384.5" font-family="Helvetica,sans-Serif" font-size="10.00">+ BaudRate</text>
<text text-anchor="start" x="8" y="-373.5" font-family="Helvetica,sans-Serif" font-size="10.00">+ prbswf</text>
<text text-anchor="start" x="8" y="-362.5" font-family="Helvetica,sans-Serif" font-size="10.00">+ EnhancementMode</text>
<text text-anchor="start" x="8" y="-351.5" font-family="Helvetica,sans-Serif" font-size="10.00">+ EnhancementSteps</text>
<text text-anchor="start" x="8" y="-340.5" font-family="Helvetica,sans-Serif" font-size="10.00">+ BitsPerSymbol</text>
<text text-anchor="start" x="8" y="-329.5" font-family="Helvetica,sans-Serif" font-size="10.00">and 14 more...</text>
<polyline fill="none" stroke="black" points="0,-322.5 111,-322.5 "/>
<text text-anchor="start" x="8" y="-310.5" font-family="Helvetica,sans-Serif" font-size="10.00">+ HashValue()</text>
<text text-anchor="start" x="8" y="-299.5" font-family="Helvetica,sans-Serif" font-size="10.00">+ __init__()</text>
<text text-anchor="start" x="8" y="-288.5" font-family="Helvetica,sans-Serif" font-size="10.00">+ Bitmap()</text>
<text text-anchor="start" x="8" y="-277.5" font-family="Helvetica,sans-Serif" font-size="10.00">+ ApplyJitterNoise()</text>
<text text-anchor="start" x="8" y="-266.5" font-family="Helvetica,sans-Serif" font-size="10.00">+ AutoAlign()</text>
<text text-anchor="start" x="8" y="-255.5" font-family="Helvetica,sans-Serif" font-size="10.00">+ Measure()</text>
<text text-anchor="start" x="8" y="-244.5" font-family="Helvetica,sans-Serif" font-size="10.00">+ OpticalMeasure()</text>
<text text-anchor="start" x="8" y="-233.5" font-family="Helvetica,sans-Serif" font-size="10.00">+ Bathtub()</text>
<text text-anchor="start" x="8" y="-222.5" font-family="Helvetica,sans-Serif" font-size="10.00">+ Annotations()</text>
<text text-anchor="start" x="8" y="-211.5" font-family="Helvetica,sans-Serif" font-size="10.00">+ CreateImage()</text>
<text text-anchor="start" x="8" y="-200.5" font-family="Helvetica,sans-Serif" font-size="10.00">+ Penalties()</text>
</a>
</g>
</g>
<!-- Node1&#45;&gt;Node2 -->
<g id="edge1" class="edge">
<title>Node1&#45;&gt;Node2</title>
<path fill="none" stroke="midnightblue" d="M598.34,-554.28C471.38,-547.73 193.95,-527.23 119.5,-471 116.55,-468.77 113.73,-466.37 111.04,-463.83"/>
<polygon fill="none" stroke="midnightblue" points="598.52,-557.8 608.68,-554.8 598.87,-550.8 598.52,-557.8"/>
</g>
<!-- Node3 -->
<g id="node3" class="node">
<title>Node3</title>
<g id="a_node3"><a xlink:href="classSignalIntegrity_1_1Lib_1_1Fit_1_1LevMar_1_1LevMar.xhtml" target="_top" xlink:title="Implements the Levenberg&#45;Marquardt algorithm for non&#45;linear fitting &#160;&#160;To use this class,...">
<polygon fill="white" stroke="black" points="129,-210 129,-454 284,-454 284,-210 129,-210"/>
<text text-anchor="middle" x="206.5" y="-442" font-family="Helvetica,sans-Serif" font-size="10.00">LevMar</text>
<polyline fill="none" stroke="black" points="129,-435 284,-435 "/>
<text text-anchor="start" x="137" y="-423" font-family="Helvetica,sans-Serif" font-size="10.00">+ m_lambda</text>
<text text-anchor="start" x="137" y="-412" font-family="Helvetica,sans-Serif" font-size="10.00">+ m_lambdamin</text>
<text text-anchor="start" x="137" y="-401" font-family="Helvetica,sans-Serif" font-size="10.00">+ m_lambdamax</text>
<text text-anchor="start" x="137" y="-390" font-family="Helvetica,sans-Serif" font-size="10.00">+ m_lambdaMultiplier</text>
<text text-anchor="start" x="137" y="-379" font-family="Helvetica,sans-Serif" font-size="10.00">+ m_epsilon</text>
<text text-anchor="start" x="137" y="-368" font-family="Helvetica,sans-Serif" font-size="10.00">+ ccm</text>
<text text-anchor="start" x="137" y="-357" font-family="Helvetica,sans-Serif" font-size="10.00">+ m_a</text>
<text text-anchor="start" x="137" y="-346" font-family="Helvetica,sans-Serif" font-size="10.00">+ m_y</text>
<text text-anchor="start" x="137" y="-335" font-family="Helvetica,sans-Serif" font-size="10.00">+ m_sumw</text>
<text text-anchor="start" x="137" y="-324" font-family="Helvetica,sans-Serif" font-size="10.00">+ m_W</text>
<text text-anchor="start" x="137" y="-313" font-family="Helvetica,sans-Serif" font-size="10.00">and 10 more...</text>
<polyline fill="none" stroke="black" points="129,-306 284,-306 "/>
<text text-anchor="start" x="137" y="-294" font-family="Helvetica,sans-Serif" font-size="10.00">+ __init__()</text>
<text text-anchor="start" x="137" y="-283" font-family="Helvetica,sans-Serif" font-size="10.00">+ fF()</text>
<text text-anchor="start" x="137" y="-272" font-family="Helvetica,sans-Serif" font-size="10.00">+ fPartialFPartiala()</text>
<text text-anchor="start" x="137" y="-261" font-family="Helvetica,sans-Serif" font-size="10.00">+ fJ()</text>
<text text-anchor="start" x="137" y="-250" font-family="Helvetica,sans-Serif" font-size="10.00">+ AdjustVariablesAfterIteration()</text>
<text text-anchor="start" x="137" y="-239" font-family="Helvetica,sans-Serif" font-size="10.00">+ Initialize()</text>
<text text-anchor="start" x="137" y="-228" font-family="Helvetica,sans-Serif" font-size="10.00">+ Iterate()</text>
<text text-anchor="start" x="137" y="-217" font-family="Helvetica,sans-Serif" font-size="10.00">+ Solve()</text>
</a>
</g>
</g>
<!-- Node1&#45;&gt;Node3 -->
<g id="edge2" class="edge">
<title>Node1&#45;&gt;Node3</title>
<path fill="none" stroke="midnightblue" d="M598.64,-556.6C519.73,-553.09 384.64,-536.91 292.5,-471 285.61,-466.07 279.16,-460.41 273.13,-454.24"/>
<polygon fill="none" stroke="midnightblue" points="598.79,-560.11 608.92,-557 599.06,-553.12 598.79,-560.11"/>
</g>
<!-- Node4 -->
<g id="node4" class="node">
<title>Node4</title>
<g id="a_node4"><a xlink:href="classSignalIntegrity_1_1Lib_1_1FrequencyDomain_1_1TransferMatrices_1_1TransferMatrices.xhtml" target="_top" xlink:title="Class that is used for processing waveforms in simulation.">
<polygon fill="white" stroke="black" points="302,-243 302,-421 429,-421 429,-243 302,-243"/>
<text text-anchor="middle" x="365.5" y="-409" font-family="Helvetica,sans-Serif" font-size="10.00">TransferMatrices</text>
<polyline fill="none" stroke="black" points="302,-402 429,-402 "/>
<text text-anchor="start" x="310" y="-390" font-family="Helvetica,sans-Serif" font-size="10.00">+ f</text>
<text text-anchor="start" x="310" y="-379" font-family="Helvetica,sans-Serif" font-size="10.00">+ Inputs</text>
<text text-anchor="start" x="310" y="-368" font-family="Helvetica,sans-Serif" font-size="10.00">+ Outputs</text>
<text text-anchor="start" x="310" y="-357" font-family="Helvetica,sans-Serif" font-size="10.00">+ fr</text>
<text text-anchor="start" x="310" y="-346" font-family="Helvetica,sans-Serif" font-size="10.00">+ ir</text>
<text text-anchor="start" x="310" y="-335" font-family="Helvetica,sans-Serif" font-size="10.00">+ td</text>
<text text-anchor="start" x="310" y="-324" font-family="Helvetica,sans-Serif" font-size="10.00">+ cacheResponses</text>
<polyline fill="none" stroke="black" points="302,-317 429,-317 "/>
<text text-anchor="start" x="310" y="-305" font-family="Helvetica,sans-Serif" font-size="10.00">+ __init__()</text>
<text text-anchor="start" x="310" y="-294" font-family="Helvetica,sans-Serif" font-size="10.00">+ SParameters()</text>
<text text-anchor="start" x="310" y="-283" font-family="Helvetica,sans-Serif" font-size="10.00">+ FrequencyResponse()</text>
<text text-anchor="start" x="310" y="-272" font-family="Helvetica,sans-Serif" font-size="10.00">+ FrequencyResponses()</text>
<text text-anchor="start" x="310" y="-261" font-family="Helvetica,sans-Serif" font-size="10.00">+ ImpulseResponses()</text>
<text text-anchor="start" x="310" y="-250" font-family="Helvetica,sans-Serif" font-size="10.00">+ Resample()</text>
</a>
</g>
</g>
<!-- Node1&#45;&gt;Node4 -->
<g id="edge3" class="edge">
<title>Node1&#45;&gt;Node4</title>
<path fill="none" stroke="midnightblue" d="M599.12,-545.35C550.41,-533.63 483.99,-511.33 438.5,-471 422.99,-457.24 410.22,-439.39 399.96,-421.11"/>
<polygon fill="none" stroke="midnightblue" points="598.39,-548.77 608.92,-547.62 599.97,-541.95 598.39,-548.77"/>
</g>
<!-- Node5 -->
<g id="node5" class="node">
<title>Node5</title>
<g id="a_node5"><a xlink:href="classSignalIntegrity_1_1Lib_1_1Parsers_1_1CalibrationNumericParser_1_1CalibrationNumericParser.xhtml" target="_top" xlink:title="generates a calibration from a netlist">
<polygon fill="white" stroke="black" points="447.5,-298 447.5,-366 575.5,-366 575.5,-298 447.5,-298"/>
<text text-anchor="middle" x="511.5" y="-354" font-family="Helvetica,sans-Serif" font-size="10.00">CalibrationNumericParser</text>
<polyline fill="none" stroke="black" points="447.5,-347 575.5,-347 "/>
<text text-anchor="start" x="455.5" y="-335" font-family="Helvetica,sans-Serif" font-size="10.00">+ calibration</text>
<polyline fill="none" stroke="black" points="447.5,-328 575.5,-328 "/>
<text text-anchor="start" x="455.5" y="-316" font-family="Helvetica,sans-Serif" font-size="10.00">+ __init__()</text>
<text text-anchor="start" x="455.5" y="-305" font-family="Helvetica,sans-Serif" font-size="10.00">+ CalculateCalibration()</text>
</a>
</g>
</g>
<!-- Node1&#45;&gt;Node5 -->
<g id="edge4" class="edge">
<title>Node1&#45;&gt;Node5</title>
<path fill="none" stroke="midnightblue" d="M606.99,-499.7C599.04,-490.42 591.28,-480.67 584.5,-471 560.84,-437.27 539.54,-394.94 526.14,-366.12"/>
<polygon fill="none" stroke="midnightblue" points="604.47,-502.14 613.68,-507.38 609.75,-497.54 604.47,-502.14"/>
</g>
<!-- Node6 -->
<g id="node6" class="node">
<title>Node6</title>
<g id="a_node6"><a xlink:href="classSignalIntegrity_1_1Lib_1_1Parsers_1_1DeembedderNumericParser_1_1DeembedderNumericParser.xhtml" target="_top" xlink:title="generates deembedd s&#45;parameters from a netlist">
<polygon fill="white" stroke="black" points="594,-298 594,-366 731,-366 731,-298 594,-298"/>
<text text-anchor="middle" x="662.5" y="-354" font-family="Helvetica,sans-Serif" font-size="10.00">DeembedderNumericParser</text>
<polyline fill="none" stroke="black" points="594,-347 731,-347 "/>
<text text-anchor="start" x="602" y="-335" font-family="Helvetica,sans-Serif" font-size="10.00">+ sf</text>
<polyline fill="none" stroke="black" points="594,-328 731,-328 "/>
<text text-anchor="start" x="602" y="-316" font-family="Helvetica,sans-Serif" font-size="10.00">+ __init__()</text>
<text text-anchor="start" x="602" y="-305" font-family="Helvetica,sans-Serif" font-size="10.00">+ Deembed()</text>
</a>
</g>
</g>
<!-- Node1&#45;&gt;Node6 -->
<g id="edge5" class="edge">
<title>Node1&#45;&gt;Node6</title>
<path fill="none" stroke="midnightblue" d="M662.5,-497.19C662.5,-455.24 662.5,-400.71 662.5,-366.27"/>
<polygon fill="none" stroke="midnightblue" points="659,-497.29 662.5,-507.29 666,-497.29 659,-497.29"/>
</g>
<!-- Node7 -->
<g id="node7" class="node">
<title>Node7</title>
<g id="a_node7"><a xlink:href="classSignalIntegrity_1_1Lib_1_1Parsers_1_1SimulatorNumericParser_1_1SimulatorNumericParser.xhtml" target="_top" xlink:title="performs numeric simulations from netlists">
<polygon fill="white" stroke="black" points="749,-292.5 749,-371.5 872,-371.5 872,-292.5 749,-292.5"/>
<text text-anchor="middle" x="810.5" y="-359.5" font-family="Helvetica,sans-Serif" font-size="10.00">SimulatorNumericParser</text>
<polyline fill="none" stroke="black" points="749,-352.5 872,-352.5 "/>
<text text-anchor="start" x="757" y="-340.5" font-family="Helvetica,sans-Serif" font-size="10.00">+ transferMatrices</text>
<text text-anchor="start" x="757" y="-329.5" font-family="Helvetica,sans-Serif" font-size="10.00">+ m_sd</text>
<polyline fill="none" stroke="black" points="749,-322.5 872,-322.5 "/>
<text text-anchor="start" x="757" y="-310.5" font-family="Helvetica,sans-Serif" font-size="10.00">+ __init__()</text>
<text text-anchor="start" x="757" y="-299.5" font-family="Helvetica,sans-Serif" font-size="10.00">+ TransferMatrices()</text>
</a>
</g>
</g>
<!-- Node1&#45;&gt;Node7 -->
<g id="edge6" class="edge">
<title>Node1&#45;&gt;Node7</title>
<path fill="none" stroke="midnightblue" d="M717.37,-499.71C725.2,-490.42 732.84,-480.67 739.5,-471 761.26,-439.37 780.8,-400.19 793.84,-371.67"/>
<polygon fill="none" stroke="midnightblue" points="714.63,-497.52 710.77,-507.39 719.94,-502.09 714.63,-497.52"/>
</g>
<!-- Node9 -->
<g id="node9" class="node">
<title>Node9</title>
<g id="a_node9"><a xlink:href="classSignalIntegrity_1_1Lib_1_1Parsers_1_1SystemSParametersParser_1_1SystemSParametersNumericParser.xhtml" target="_top" xlink:title="generates system s&#45;parameters from a netlist">
<polygon fill="white" stroke="black" points="890.5,-287 890.5,-377 1034.5,-377 1034.5,-287 890.5,-287"/>
<text text-anchor="start" x="898.5" y="-365" font-family="Helvetica,sans-Serif" font-size="10.00">SystemSParametersNumeric</text>
<text text-anchor="middle" x="962.5" y="-354" font-family="Helvetica,sans-Serif" font-size="10.00">Parser</text>
<polyline fill="none" stroke="black" points="890.5,-347 1034.5,-347 "/>
<text text-anchor="start" x="898.5" y="-335" font-family="Helvetica,sans-Serif" font-size="10.00">+ sf</text>
<text text-anchor="start" x="898.5" y="-324" font-family="Helvetica,sans-Serif" font-size="10.00">+ efl</text>
<polyline fill="none" stroke="black" points="890.5,-317 1034.5,-317 "/>
<text text-anchor="start" x="898.5" y="-305" font-family="Helvetica,sans-Serif" font-size="10.00">+ __init__()</text>
<text text-anchor="start" x="898.5" y="-294" font-family="Helvetica,sans-Serif" font-size="10.00">+ SParameters()</text>
</a>
</g>
</g>
<!-- Node1&#45;&gt;Node9 -->
<g id="edge8" class="edge">
<title>Node1&#45;&gt;Node9</title>
<path fill="none" stroke="midnightblue" d="M726.12,-543.9C773.28,-531.58 836.85,-509.15 881.5,-471 910.96,-445.82 932.37,-407.11 945.75,-377.08"/>
<polygon fill="none" stroke="midnightblue" points="725.16,-540.54 716.32,-546.38 726.87,-547.32 725.16,-540.54"/>
</g>
<!-- Node11 -->
<g id="node11" class="node">
<title>Node11</title>
<g id="a_node11"><a xlink:href="classSignalIntegrity_1_1Lib_1_1Parsers_1_1VirtualProbeNumericParser_1_1VirtualProbeNumericParser.xhtml" target="_top" xlink:title="performs numeric virtual probing from netlists">
<polygon fill="white" stroke="black" points="1053,-292.5 1053,-371.5 1188,-371.5 1188,-292.5 1053,-292.5"/>
<text text-anchor="middle" x="1120.5" y="-359.5" font-family="Helvetica,sans-Serif" font-size="10.00">VirtualProbeNumericParser</text>
<polyline fill="none" stroke="black" points="1053,-352.5 1188,-352.5 "/>
<text text-anchor="start" x="1061" y="-340.5" font-family="Helvetica,sans-Serif" font-size="10.00">+ transferMatrices</text>
<text text-anchor="start" x="1061" y="-329.5" font-family="Helvetica,sans-Serif" font-size="10.00">+ m_tm</text>
<polyline fill="none" stroke="black" points="1053,-322.5 1188,-322.5 "/>
<text text-anchor="start" x="1061" y="-310.5" font-family="Helvetica,sans-Serif" font-size="10.00">+ __init__()</text>
<text text-anchor="start" x="1061" y="-299.5" font-family="Helvetica,sans-Serif" font-size="10.00">+ TransferMatrices()</text>
</a>
</g>
</g>
<!-- Node1&#45;&gt;Node11 -->
<g id="edge10" class="edge">
<title>Node1&#45;&gt;Node11</title>
<path fill="none" stroke="midnightblue" d="M726.28,-548.99C821.23,-536.01 993.91,-508.07 1043.5,-471 1076.46,-446.36 1097.23,-403.22 1108.78,-371.71"/>
<polygon fill="none" stroke="midnightblue" points="725.66,-545.54 716.22,-550.34 726.6,-552.47 725.66,-545.54"/>
</g>
<!-- Node12 -->
<g id="node12" class="node">
<title>Node12</title>
<g id="a_node12"><a xlink:href="classSignalIntegrity_1_1Lib_1_1TimeDomain_1_1Filters_1_1TransferMatricesProcessor_1_1TransferMatricesProcessor.xhtml" target="_top" xlink:title="process transfer matrices &#160;&#160;Usually transfer matrices are produced in simulation and virtual probing ...">
<polygon fill="white" stroke="black" points="1206,-287 1206,-377 1387,-377 1387,-287 1206,-287"/>
<text text-anchor="middle" x="1296.5" y="-365" font-family="Helvetica,sans-Serif" font-size="10.00">TransferMatricesProcessor</text>
<polyline fill="none" stroke="black" points="1206,-358 1387,-358 "/>
<text text-anchor="start" x="1214" y="-346" font-family="Helvetica,sans-Serif" font-size="10.00">+ TransferMatrices</text>
<polyline fill="none" stroke="black" points="1206,-339 1387,-339 "/>
<text text-anchor="start" x="1214" y="-327" font-family="Helvetica,sans-Serif" font-size="10.00">+ __init__()</text>
<text text-anchor="start" x="1214" y="-316" font-family="Helvetica,sans-Serif" font-size="10.00">+ PrecalculateFrequencyResponses()</text>
<text text-anchor="start" x="1214" y="-305" font-family="Helvetica,sans-Serif" font-size="10.00">+ PrecalculateImpulseResponses()</text>
<text text-anchor="start" x="1214" y="-294" font-family="Helvetica,sans-Serif" font-size="10.00">+ ProcessWaveforms()</text>
</a>
</g>
</g>
<!-- Node1&#45;&gt;Node12 -->
<g id="edge11" class="edge">
<title>Node1&#45;&gt;Node12</title>
<path fill="none" stroke="midnightblue" d="M726.3,-552.87C850.53,-543.84 1119.58,-519.19 1197.5,-471 1233.23,-448.9 1259.86,-408.64 1276.45,-377.29"/>
<polygon fill="none" stroke="midnightblue" points="725.89,-549.39 716.17,-553.59 726.39,-556.37 725.89,-549.39"/>
</g>
<!-- Node8 -->
<g id="node8" class="node">
<title>Node8</title>
<g id="a_node8"><a xlink:href="classSignalIntegrity_1_1Lib_1_1Parsers_1_1NetworkAnalyzerSimulationNumericParser_1_1NetworkAnalyzerSimulationNumericParser.xhtml" target="_top" xlink:title="performs numeric simulations from netlists">
<polygon fill="white" stroke="black" points="728,-0.5 728,-156.5 865,-156.5 865,-0.5 728,-0.5"/>
<text text-anchor="start" x="736" y="-144.5" font-family="Helvetica,sans-Serif" font-size="10.00">NetworkAnalyzerSimulation</text>
<text text-anchor="middle" x="796.5" y="-133.5" font-family="Helvetica,sans-Serif" font-size="10.00">NumericParser</text>
<polyline fill="none" stroke="black" points="728,-126.5 865,-126.5 "/>
<text text-anchor="start" x="736" y="-114.5" font-family="Helvetica,sans-Serif" font-size="10.00">+ PortConnectionList</text>
<text text-anchor="start" x="736" y="-103.5" font-family="Helvetica,sans-Serif" font-size="10.00">+ DutSParameters</text>
<text text-anchor="start" x="736" y="-92.5" font-family="Helvetica,sans-Serif" font-size="10.00">+ simulationType</text>
<text text-anchor="start" x="736" y="-81.5" font-family="Helvetica,sans-Serif" font-size="10.00">+ dutknown</text>
<text text-anchor="start" x="736" y="-70.5" font-family="Helvetica,sans-Serif" font-size="10.00">+ simulationNumPorts</text>
<text text-anchor="start" x="736" y="-59.5" font-family="Helvetica,sans-Serif" font-size="10.00">+ m_lines</text>
<polyline fill="none" stroke="black" points="728,-52.5 865,-52.5 "/>
<text text-anchor="start" x="736" y="-40.5" font-family="Helvetica,sans-Serif" font-size="10.00">+ __init__()</text>
<text text-anchor="start" x="736" y="-29.5" font-family="Helvetica,sans-Serif" font-size="10.00">+ HashValue()</text>
<text text-anchor="start" x="736" y="-18.5" font-family="Helvetica,sans-Serif" font-size="10.00">+ ArrangeSimulation()</text>
<text text-anchor="start" x="736" y="-7.5" font-family="Helvetica,sans-Serif" font-size="10.00">+ TransferMatrices()</text>
</a>
</g>
</g>
<!-- Node7&#45;&gt;Node8 -->
<g id="edge7" class="edge">
<title>Node7&#45;&gt;Node8</title>
<path fill="none" stroke="midnightblue" d="M807.78,-282.11C805.79,-246.47 803.07,-197.46 800.79,-156.57"/>
<polygon fill="none" stroke="midnightblue" points="804.29,-282.46 808.34,-292.25 811.28,-282.08 804.29,-282.46"/>
</g>
<!-- Node10 -->
<g id="node10" class="node">
<title>Node10</title>
<g id="a_node10"><a xlink:href="classSignalIntegrity_1_1Lib_1_1Parsers_1_1DUTSParametersNumericParser_1_1DUTSParametersNumericParser.xhtml" target="_top" xlink:title="generates s&#45;parameters of a DUT from a network analyzer model netlist">
<polygon fill="white" stroke="black" points="883.5,-22.5 883.5,-134.5 1067.5,-134.5 1067.5,-22.5 883.5,-22.5"/>
<text text-anchor="middle" x="975.5" y="-122.5" font-family="Helvetica,sans-Serif" font-size="10.00">DUTSParametersNumericParser</text>
<polyline fill="none" stroke="black" points="883.5,-115.5 1067.5,-115.5 "/>
<text text-anchor="start" x="891.5" y="-103.5" font-family="Helvetica,sans-Serif" font-size="10.00">+ NetworkAnalyzerProjectFile</text>
<text text-anchor="start" x="891.5" y="-92.5" font-family="Helvetica,sans-Serif" font-size="10.00">+ NetworkAnalyzerPortConnectionList</text>
<text text-anchor="start" x="891.5" y="-81.5" font-family="Helvetica,sans-Serif" font-size="10.00">+ m_lines</text>
<polyline fill="none" stroke="black" points="883.5,-74.5 1067.5,-74.5 "/>
<text text-anchor="start" x="891.5" y="-62.5" font-family="Helvetica,sans-Serif" font-size="10.00">+ __init__()</text>
<text text-anchor="start" x="891.5" y="-51.5" font-family="Helvetica,sans-Serif" font-size="10.00">+ HashValue()</text>
<text text-anchor="start" x="891.5" y="-40.5" font-family="Helvetica,sans-Serif" font-size="10.00">+ ConfigureForDUTCalculation()</text>
<text text-anchor="start" x="891.5" y="-29.5" font-family="Helvetica,sans-Serif" font-size="10.00">+ SParameters()</text>
</a>
</g>
</g>
<!-- Node9&#45;&gt;Node10 -->
<g id="edge9" class="edge">
<title>Node9&#45;&gt;Node10</title>
<path fill="none" stroke="midnightblue" d="M965.3,-276.85C967.47,-234.82 970.47,-176.79 972.66,-134.54"/>
<polygon fill="none" stroke="midnightblue" points="961.8,-276.74 964.78,-286.9 968.79,-277.1 961.8,-276.74"/>
</g>
</g>
</svg>
