<?xml version="1.0" encoding="UTF-8" standalone="no"?>
<!DOCTYPE svg PUBLIC "-//W3C//DTD SVG 1.1//EN"
 "http://www.w3.org/Graphics/SVG/1.1/DTD/svg11.dtd">
<!-- Generated by graphviz version 2.43.0 (0)
 -->
<!-- Title: Numeric Pages: 1 -->
<svg width="410pt" height="237pt"
 viewBox="0.00 0.00 409.50 237.00" xmlns="http://www.w3.org/2000/svg" xmlns:xlink="http://www.w3.org/1999/xlink">
<g id="graph0" class="graph" transform="scale(1 1) rotate(0) translate(4 233)">
<title>Numeric</title>
<polygon fill="white" stroke="transparent" points="-4,4 -4,-233 405.5,-233 405.5,4 -4,4"/>
<!-- Node1 -->
<g id="node1" class="node">
<title>Node1</title>
<g id="a_node1"><a xlink:title="handles numeric details of derived class solutions">
<polygon fill="#bfbfbf" stroke="black" points="140,-105.5 140,-228.5 268,-228.5 268,-105.5 140,-105.5"/>
<text text-anchor="middle" x="204" y="-216.5" font-family="Helvetica,sans-Serif" font-size="10.00">Numeric</text>
<polyline fill="none" stroke="black" points="140,-209.5 268,-209.5 "/>
<text text-anchor="start" x="148" y="-197.5" font-family="Helvetica,sans-Serif" font-size="10.00">+ alwaysUseSVD</text>
<text text-anchor="start" x="148" y="-186.5" font-family="Helvetica,sans-Serif" font-size="10.00">+ trySVD</text>
<text text-anchor="start" x="148" y="-175.5" font-family="Helvetica,sans-Serif" font-size="10.00">+ singularValueLimit</text>
<text text-anchor="start" x="148" y="-164.5" font-family="Helvetica,sans-Serif" font-size="10.00">+ conditionNumberLimit</text>
<text text-anchor="start" x="148" y="-153.5" font-family="Helvetica,sans-Serif" font-size="10.00">+ checkConditionNumber</text>
<polyline fill="none" stroke="black" points="140,-146.5 268,-146.5 "/>
<text text-anchor="start" x="148" y="-134.5" font-family="Helvetica,sans-Serif" font-size="10.00">+ InstallSafeTees()</text>
<text text-anchor="start" x="148" y="-123.5" font-family="Helvetica,sans-Serif" font-size="10.00">+ Dagger()</text>
<text text-anchor="start" x="148" y="-112.5" font-family="Helvetica,sans-Serif" font-size="10.00">+ PermutationMatrix()</text>
</a>
</g>
</g>
<!-- Node2 -->
<g id="node2" class="node">
<title>Node2</title>
<g id="a_node2"><a xlink:href="classSignalIntegrity_1_1Lib_1_1SystemDescriptions_1_1DeembedderNumeric_1_1DeembedderNumeric.xhtml" target="_top" xlink:title=" ">
<polygon fill="white" stroke="black" points="0,-0.5 0,-68.5 114,-68.5 114,-0.5 0,-0.5"/>
<text text-anchor="middle" x="57" y="-56.5" font-family="Helvetica,sans-Serif" font-size="10.00">DeembedderNumeric</text>
<polyline fill="none" stroke="black" points="0,-49.5 114,-49.5 "/>
<text text-anchor="middle" x="57" y="-37.5" font-family="Helvetica,sans-Serif" font-size="10.00"> </text>
<polyline fill="none" stroke="black" points="0,-30.5 114,-30.5 "/>
<text text-anchor="start" x="8" y="-18.5" font-family="Helvetica,sans-Serif" font-size="10.00">+ __init__()</text>
<text text-anchor="start" x="8" y="-7.5" font-family="Helvetica,sans-Serif" font-size="10.00">+ CalculateUnknown()</text>
</a>
</g>
</g>
<!-- Node1&#45;&gt;Node2 -->
<g id="edge1" class="edge">
<title>Node1&#45;&gt;Node2</title>
<path fill="none" stroke="midnightblue" d="M132.22,-102.28C119.07,-90.6 105.83,-78.85 94.22,-68.54"/>
<polygon fill="none" stroke="midnightblue" points="130.15,-105.12 139.95,-109.14 134.8,-99.88 130.15,-105.12"/>
</g>
<!-- Node3 -->
<g id="node3" class="node">
<title>Node3</title>
<g id="a_node3"><a xlink:href="classSignalIntegrity_1_1Lib_1_1SystemDescriptions_1_1SystemSParametersNumeric_1_1SystemSParametersNumeric.xhtml" target="_top" xlink:title="Class for computing s&#45;parameters of interconnected systems.">
<polygon fill="white" stroke="black" points="132,-0.5 132,-68.5 276,-68.5 276,-0.5 132,-0.5"/>
<text text-anchor="middle" x="204" y="-56.5" font-family="Helvetica,sans-Serif" font-size="10.00">SystemSParametersNumeric</text>
<polyline fill="none" stroke="black" points="132,-49.5 276,-49.5 "/>
<text text-anchor="middle" x="204" y="-37.5" font-family="Helvetica,sans-Serif" font-size="10.00"> </text>
<polyline fill="none" stroke="black" points="132,-30.5 276,-30.5 "/>
<text text-anchor="start" x="140" y="-18.5" font-family="Helvetica,sans-Serif" font-size="10.00">+ __init__()</text>
<text text-anchor="start" x="140" y="-7.5" font-family="Helvetica,sans-Serif" font-size="10.00">+ SParameters()</text>
</a>
</g>
</g>
<!-- Node1&#45;&gt;Node3 -->
<g id="edge2" class="edge">
<title>Node1&#45;&gt;Node3</title>
<path fill="none" stroke="midnightblue" d="M204,-95.24C204,-85.97 204,-76.84 204,-68.62"/>
<polygon fill="none" stroke="midnightblue" points="200.5,-95.33 204,-105.33 207.5,-95.33 200.5,-95.33"/>
</g>
<!-- Node4 -->
<g id="node4" class="node">
<title>Node4</title>
<g id="a_node4"><a xlink:href="classSignalIntegrity_1_1Lib_1_1SystemDescriptions_1_1VirtualProbeNumeric_1_1VirtualProbeNumeric.xhtml" target="_top" xlink:title="class for performing virtual probing numerically.">
<polygon fill="white" stroke="black" points="294.5,-0.5 294.5,-68.5 401.5,-68.5 401.5,-0.5 294.5,-0.5"/>
<text text-anchor="middle" x="348" y="-56.5" font-family="Helvetica,sans-Serif" font-size="10.00">VirtualProbeNumeric</text>
<polyline fill="none" stroke="black" points="294.5,-49.5 401.5,-49.5 "/>
<text text-anchor="middle" x="348" y="-37.5" font-family="Helvetica,sans-Serif" font-size="10.00"> </text>
<polyline fill="none" stroke="black" points="294.5,-30.5 401.5,-30.5 "/>
<text text-anchor="start" x="302.5" y="-18.5" font-family="Helvetica,sans-Serif" font-size="10.00">+ __init__()</text>
<text text-anchor="start" x="302.5" y="-7.5" font-family="Helvetica,sans-Serif" font-size="10.00">+ TransferMatrix()</text>
</a>
</g>
</g>
<!-- Node1&#45;&gt;Node4 -->
<g id="edge3" class="edge">
<title>Node1&#45;&gt;Node4</title>
<path fill="none" stroke="midnightblue" d="M276.01,-100.74C288.23,-89.67 300.44,-78.6 311.25,-68.81"/>
<polygon fill="none" stroke="midnightblue" points="273.48,-98.31 268.42,-107.62 278.18,-103.5 273.48,-98.31"/>
</g>
</g>
</svg>
