<?xml version="1.0" encoding="UTF-8" standalone="no"?>
<!DOCTYPE svg PUBLIC "-//W3C//DTD SVG 1.1//EN"
 "http://www.w3.org/Graphics/SVG/1.1/DTD/svg11.dtd">
<!-- Generated by graphviz version 2.43.0 (0)
 -->
<!-- Title: WaveletHaar Pages: 1 -->
<svg width="88pt" height="215pt"
 viewBox="0.00 0.00 88.00 215.00" xmlns="http://www.w3.org/2000/svg" xmlns:xlink="http://www.w3.org/1999/xlink">
<g id="graph0" class="graph" transform="scale(1 1) rotate(0) translate(4 211)">
<title>WaveletHaar</title>
<polygon fill="white" stroke="transparent" points="-4,4 -4,-211 84,-211 84,4 -4,4"/>
<!-- Node1 -->
<g id="node1" class="node">
<title>Node1</title>
<g id="a_node1"><a xlink:title="2 tap Haar wavelet transformer">
<polygon fill="#bfbfbf" stroke="black" points="0,-0.5 0,-57.5 80,-57.5 80,-0.5 0,-0.5"/>
<text text-anchor="middle" x="40" y="-45.5" font-family="Helvetica,sans-Serif" font-size="10.00">WaveletHaar</text>
<polyline fill="none" stroke="black" points="0,-38.5 80,-38.5 "/>
<text text-anchor="middle" x="40" y="-26.5" font-family="Helvetica,sans-Serif" font-size="10.00"> </text>
<polyline fill="none" stroke="black" points="0,-19.5 80,-19.5 "/>
<text text-anchor="start" x="8" y="-7.5" font-family="Helvetica,sans-Serif" font-size="10.00">+ __init__()</text>
</a>
</g>
</g>
<!-- Node2 -->
<g id="node2" class="node">
<title>Node2</title>
<g id="a_node2"><a xlink:href="classSignalIntegrity_1_1Lib_1_1Wavelets_1_1Wavelets_1_1Wavelet.xhtml" target="_top" xlink:title="base class that performs forward and inverse wavelet transforms">
<polygon fill="white" stroke="black" points="4,-94.5 4,-206.5 76,-206.5 76,-94.5 4,-94.5"/>
<text text-anchor="middle" x="40" y="-194.5" font-family="Helvetica,sans-Serif" font-size="10.00">Wavelet</text>
<polyline fill="none" stroke="black" points="4,-187.5 76,-187.5 "/>
<text text-anchor="start" x="12" y="-175.5" font-family="Helvetica,sans-Serif" font-size="10.00">+ h</text>
<text text-anchor="start" x="12" y="-164.5" font-family="Helvetica,sans-Serif" font-size="10.00">+ L</text>
<text text-anchor="start" x="12" y="-153.5" font-family="Helvetica,sans-Serif" font-size="10.00">+ g</text>
<polyline fill="none" stroke="black" points="4,-146.5 76,-146.5 "/>
<text text-anchor="start" x="12" y="-134.5" font-family="Helvetica,sans-Serif" font-size="10.00">+ __init__()</text>
<text text-anchor="start" x="12" y="-123.5" font-family="Helvetica,sans-Serif" font-size="10.00">+ DWT()</text>
<text text-anchor="start" x="12" y="-112.5" font-family="Helvetica,sans-Serif" font-size="10.00">+ IDWT()</text>
<text text-anchor="start" x="12" y="-101.5" font-family="Helvetica,sans-Serif" font-size="10.00">+ intlog2()</text>
</a>
</g>
</g>
<!-- Node2&#45;&gt;Node1 -->
<g id="edge1" class="edge">
<title>Node2&#45;&gt;Node1</title>
<path fill="none" stroke="midnightblue" d="M40,-84.15C40,-74.82 40,-65.67 40,-57.63"/>
<polygon fill="none" stroke="midnightblue" points="36.5,-84.3 40,-94.3 43.5,-84.3 36.5,-84.3"/>
</g>
</g>
</svg>
