<?xml version="1.0" encoding="UTF-8" standalone="no"?>
<!DOCTYPE svg PUBLIC "-//W3C//DTD SVG 1.1//EN"
 "http://www.w3.org/Graphics/SVG/1.1/DTD/svg11.dtd">
<!-- Generated by graphviz version 2.43.0 (0)
 -->
<!-- Title: CalibrationMeasurement Pages: 1 -->
<svg width="762pt" height="215pt"
 viewBox="0.00 0.00 761.50 215.00" xmlns="http://www.w3.org/2000/svg" xmlns:xlink="http://www.w3.org/1999/xlink">
<g id="graph0" class="graph" transform="scale(1 1) rotate(0) translate(4 211)">
<title>CalibrationMeasurement</title>
<polygon fill="white" stroke="transparent" points="-4,4 -4,-211 757.5,-211 757.5,4 -4,4"/>
<!-- Node1 -->
<g id="node1" class="node">
<title>Node1</title>
<g id="a_node1"><a xlink:title="Calibration Measurements.">
<polygon fill="#bfbfbf" stroke="black" points="301.5,-138.5 301.5,-206.5 438.5,-206.5 438.5,-138.5 301.5,-138.5"/>
<text text-anchor="middle" x="370" y="-194.5" font-family="Helvetica,sans-Serif" font-size="10.00">CalibrationMeasurement</text>
<polyline fill="none" stroke="black" points="301.5,-187.5 438.5,-187.5 "/>
<text text-anchor="start" x="309.5" y="-175.5" font-family="Helvetica,sans-Serif" font-size="10.00">+ type</text>
<text text-anchor="start" x="309.5" y="-164.5" font-family="Helvetica,sans-Serif" font-size="10.00">+ name</text>
<polyline fill="none" stroke="black" points="301.5,-157.5 438.5,-157.5 "/>
<text text-anchor="start" x="309.5" y="-145.5" font-family="Helvetica,sans-Serif" font-size="10.00">+ __init__()</text>
</a>
</g>
</g>
<!-- Node2 -->
<g id="node2" class="node">
<title>Node2</title>
<g id="a_node2"><a xlink:href="classSignalIntegrity_1_1Lib_1_1Measurement_1_1Calibration_1_1CalibrationMeasurements_1_1ReflectCalibrationMeasurement.xhtml" target="_top" xlink:title="A reflect measurement taken on a port with a reflect standard (like short, open, or load).">
<polygon fill="white" stroke="black" points="0,-11.5 0,-90.5 172,-90.5 172,-11.5 0,-11.5"/>
<text text-anchor="middle" x="86" y="-78.5" font-family="Helvetica,sans-Serif" font-size="10.00">ReflectCalibrationMeasurement</text>
<polyline fill="none" stroke="black" points="0,-71.5 172,-71.5 "/>
<text text-anchor="start" x="8" y="-59.5" font-family="Helvetica,sans-Serif" font-size="10.00">+ gamma</text>
<text text-anchor="start" x="8" y="-48.5" font-family="Helvetica,sans-Serif" font-size="10.00">+ Gamma</text>
<text text-anchor="start" x="8" y="-37.5" font-family="Helvetica,sans-Serif" font-size="10.00">+ port</text>
<polyline fill="none" stroke="black" points="0,-30.5 172,-30.5 "/>
<text text-anchor="start" x="8" y="-18.5" font-family="Helvetica,sans-Serif" font-size="10.00">+ __init__()</text>
</a>
</g>
</g>
<!-- Node1&#45;&gt;Node2 -->
<g id="edge1" class="edge">
<title>Node1&#45;&gt;Node2</title>
<path fill="none" stroke="midnightblue" d="M291.81,-145.36C257.41,-133.19 216.77,-117.91 181,-102 173.08,-98.48 164.9,-94.59 156.83,-90.58"/>
<polygon fill="none" stroke="midnightblue" points="290.74,-148.7 301.34,-148.71 293.06,-142.09 290.74,-148.7"/>
</g>
<!-- Node3 -->
<g id="node3" class="node">
<title>Node3</title>
<g id="a_node3"><a xlink:href="classSignalIntegrity_1_1Lib_1_1Measurement_1_1Calibration_1_1CalibrationMeasurements_1_1ThruCalibrationMeasurement.xhtml" target="_top" xlink:title="A thru calibration measurement taken between two ports.">
<polygon fill="white" stroke="black" points="190.5,-0.5 190.5,-101.5 349.5,-101.5 349.5,-0.5 190.5,-0.5"/>
<text text-anchor="middle" x="270" y="-89.5" font-family="Helvetica,sans-Serif" font-size="10.00">ThruCalibrationMeasurement</text>
<polyline fill="none" stroke="black" points="190.5,-82.5 349.5,-82.5 "/>
<text text-anchor="start" x="198.5" y="-70.5" font-family="Helvetica,sans-Serif" font-size="10.00">+ b1a1</text>
<text text-anchor="start" x="198.5" y="-59.5" font-family="Helvetica,sans-Serif" font-size="10.00">+ b2a1</text>
<text text-anchor="start" x="198.5" y="-48.5" font-family="Helvetica,sans-Serif" font-size="10.00">+ S</text>
<text text-anchor="start" x="198.5" y="-37.5" font-family="Helvetica,sans-Serif" font-size="10.00">+ portDriven</text>
<text text-anchor="start" x="198.5" y="-26.5" font-family="Helvetica,sans-Serif" font-size="10.00">+ otherPort</text>
<polyline fill="none" stroke="black" points="190.5,-19.5 349.5,-19.5 "/>
<text text-anchor="start" x="198.5" y="-7.5" font-family="Helvetica,sans-Serif" font-size="10.00">+ __init__()</text>
</a>
</g>
</g>
<!-- Node1&#45;&gt;Node3 -->
<g id="edge2" class="edge">
<title>Node1&#45;&gt;Node3</title>
<path fill="none" stroke="midnightblue" d="M335.52,-130.3C327.79,-121.06 319.52,-111.18 311.54,-101.65"/>
<polygon fill="none" stroke="midnightblue" points="333.04,-132.79 342.14,-138.21 338.41,-128.3 333.04,-132.79"/>
</g>
<!-- Node4 -->
<g id="node4" class="node">
<title>Node4</title>
<g id="a_node4"><a xlink:href="classSignalIntegrity_1_1Lib_1_1Measurement_1_1Calibration_1_1CalibrationMeasurements_1_1UnknownThruCalibrationMeasurement.xhtml" target="_top" xlink:title="An unknown thru calibration measurement taken between two ports.">
<polygon fill="white" stroke="black" points="367.5,-0.5 367.5,-101.5 572.5,-101.5 572.5,-0.5 367.5,-0.5"/>
<text text-anchor="middle" x="470" y="-89.5" font-family="Helvetica,sans-Serif" font-size="10.00">UnknownThruCalibrationMeasurement</text>
<polyline fill="none" stroke="black" points="367.5,-82.5 572.5,-82.5 "/>
<text text-anchor="start" x="375.5" y="-70.5" font-family="Helvetica,sans-Serif" font-size="10.00">+ Smeasured</text>
<text text-anchor="start" x="375.5" y="-59.5" font-family="Helvetica,sans-Serif" font-size="10.00">+ S</text>
<text text-anchor="start" x="375.5" y="-48.5" font-family="Helvetica,sans-Serif" font-size="10.00">+ portDriven</text>
<text text-anchor="start" x="375.5" y="-37.5" font-family="Helvetica,sans-Serif" font-size="10.00">+ otherPort</text>
<text text-anchor="start" x="375.5" y="-26.5" font-family="Helvetica,sans-Serif" font-size="10.00">+ limit</text>
<polyline fill="none" stroke="black" points="367.5,-19.5 572.5,-19.5 "/>
<text text-anchor="start" x="375.5" y="-7.5" font-family="Helvetica,sans-Serif" font-size="10.00">+ __init__()</text>
</a>
</g>
</g>
<!-- Node1&#45;&gt;Node4 -->
<g id="edge3" class="edge">
<title>Node1&#45;&gt;Node4</title>
<path fill="none" stroke="midnightblue" d="M404.48,-130.3C412.21,-121.06 420.48,-111.18 428.46,-101.65"/>
<polygon fill="none" stroke="midnightblue" points="401.59,-128.3 397.86,-138.21 406.96,-132.79 401.59,-128.3"/>
</g>
<!-- Node5 -->
<g id="node5" class="node">
<title>Node5</title>
<g id="a_node5"><a xlink:href="classSignalIntegrity_1_1Lib_1_1Measurement_1_1Calibration_1_1CalibrationMeasurements_1_1XtalkCalibrationMeasurement.xhtml" target="_top" xlink:title="A crosstalk calibration measurement typically taken between two ports that are completely unconnected...">
<polygon fill="white" stroke="black" points="590.5,-11.5 590.5,-90.5 753.5,-90.5 753.5,-11.5 590.5,-11.5"/>
<text text-anchor="middle" x="672" y="-78.5" font-family="Helvetica,sans-Serif" font-size="10.00">XtalkCalibrationMeasurement</text>
<polyline fill="none" stroke="black" points="590.5,-71.5 753.5,-71.5 "/>
<text text-anchor="start" x="598.5" y="-59.5" font-family="Helvetica,sans-Serif" font-size="10.00">+ b2a1</text>
<text text-anchor="start" x="598.5" y="-48.5" font-family="Helvetica,sans-Serif" font-size="10.00">+ portDriven</text>
<text text-anchor="start" x="598.5" y="-37.5" font-family="Helvetica,sans-Serif" font-size="10.00">+ otherPort</text>
<polyline fill="none" stroke="black" points="590.5,-30.5 753.5,-30.5 "/>
<text text-anchor="start" x="598.5" y="-18.5" font-family="Helvetica,sans-Serif" font-size="10.00">+ __init__()</text>
</a>
</g>
</g>
<!-- Node1&#45;&gt;Node5 -->
<g id="edge4" class="edge">
<title>Node1&#45;&gt;Node5</title>
<path fill="none" stroke="midnightblue" d="M448.37,-149.7C488.95,-137.45 538.88,-120.84 582,-102 589.86,-98.56 597.94,-94.66 605.88,-90.58"/>
<polygon fill="none" stroke="midnightblue" points="447.12,-146.43 438.54,-152.65 449.12,-153.13 447.12,-146.43"/>
</g>
</g>
</svg>
