<?xml version="1.0" encoding="UTF-8" standalone="no"?>
<!DOCTYPE svg PUBLIC "-//W3C//DTD SVG 1.1//EN"
 "http://www.w3.org/Graphics/SVG/1.1/DTD/svg11.dtd">
<!-- Generated by graphviz version 2.43.0 (0)
 -->
<!-- Title: WaveformProcessor Pages: 1 -->
<svg width="1108pt" height="342pt"
 viewBox="0.00 0.00 1107.50 342.00" xmlns="http://www.w3.org/2000/svg" xmlns:xlink="http://www.w3.org/1999/xlink">
<g id="graph0" class="graph" transform="scale(1 1) rotate(0) translate(4 338)">
<title>WaveformProcessor</title>
<polygon fill="white" stroke="transparent" points="-4,4 -4,-338 1103.5,-338 1103.5,4 -4,4"/>
<!-- Node1 -->
<g id="node1" class="node">
<title>Node1</title>
<g id="a_node1"><a xlink:title="WaveformProcessor.py.">
<polygon fill="#bfbfbf" stroke="black" points="710.5,-276.5 710.5,-333.5 822.5,-333.5 822.5,-276.5 710.5,-276.5"/>
<text text-anchor="middle" x="766.5" y="-321.5" font-family="Helvetica,sans-Serif" font-size="10.00">WaveformProcessor</text>
<polyline fill="none" stroke="black" points="710.5,-314.5 822.5,-314.5 "/>
<text text-anchor="middle" x="766.5" y="-302.5" font-family="Helvetica,sans-Serif" font-size="10.00"> </text>
<polyline fill="none" stroke="black" points="710.5,-295.5 822.5,-295.5 "/>
<text text-anchor="start" x="718.5" y="-283.5" font-family="Helvetica,sans-Serif" font-size="10.00">+ ProcessWaveform()</text>
</a>
</g>
</g>
<!-- Node2 -->
<g id="node2" class="node">
<title>Node2</title>
<g id="a_node2"><a xlink:href="classSignalIntegrity_1_1Lib_1_1TimeDomain_1_1Filters_1_1FirFilter_1_1FirFilter.xhtml" target="_top" xlink:title="base filter class for all FIR filters">
<polygon fill="white" stroke="black" points="395.5,-105.5 395.5,-239.5 529.5,-239.5 529.5,-105.5 395.5,-105.5"/>
<text text-anchor="middle" x="462.5" y="-227.5" font-family="Helvetica,sans-Serif" font-size="10.00">FirFilter</text>
<polyline fill="none" stroke="black" points="395.5,-220.5 529.5,-220.5 "/>
<text text-anchor="start" x="403.5" y="-208.5" font-family="Helvetica,sans-Serif" font-size="10.00">+ m_fd</text>
<text text-anchor="start" x="403.5" y="-197.5" font-family="Helvetica,sans-Serif" font-size="10.00">+ m_ft</text>
<polyline fill="none" stroke="black" points="395.5,-190.5 529.5,-190.5 "/>
<text text-anchor="start" x="403.5" y="-178.5" font-family="Helvetica,sans-Serif" font-size="10.00">+ __init__()</text>
<text text-anchor="start" x="403.5" y="-167.5" font-family="Helvetica,sans-Serif" font-size="10.00">+ ProcessWaveform()</text>
<text text-anchor="start" x="403.5" y="-156.5" font-family="Helvetica,sans-Serif" font-size="10.00">+ FilterTaps()</text>
<text text-anchor="start" x="403.5" y="-145.5" font-family="Helvetica,sans-Serif" font-size="10.00">+ FilterDescriptor()</text>
<text text-anchor="start" x="403.5" y="-134.5" font-family="Helvetica,sans-Serif" font-size="10.00">+ FilterWaveform()</text>
<text text-anchor="start" x="403.5" y="-123.5" font-family="Helvetica,sans-Serif" font-size="10.00">+ Print()</text>
<text text-anchor="start" x="403.5" y="-112.5" font-family="Helvetica,sans-Serif" font-size="10.00">+ NormalizeUnityDCGain()</text>
</a>
</g>
</g>
<!-- Node1&#45;&gt;Node2 -->
<g id="edge1" class="edge">
<title>Node1&#45;&gt;Node2</title>
<path fill="none" stroke="midnightblue" d="M700.34,-293.5C653.17,-284.14 589.36,-267.54 538.5,-240 535.57,-238.41 532.66,-236.7 529.77,-234.88"/>
<polygon fill="none" stroke="midnightblue" points="699.97,-296.99 710.45,-295.45 701.29,-290.12 699.97,-296.99"/>
</g>
<!-- Node10 -->
<g id="node10" class="node">
<title>Node10</title>
<g id="a_node10"><a xlink:href="classSignalIntegrity_1_1Lib_1_1TimeDomain_1_1Filters_1_1InterpolatorLinear_1_1InterpolatorFractionalDelayFilterLinear.xhtml" target="_top" xlink:title="combination linear fractional delay and interpolating filter">
<polygon fill="white" stroke="black" points="547.5,-122 547.5,-223 681.5,-223 681.5,-122 547.5,-122"/>
<text text-anchor="start" x="555.5" y="-211" font-family="Helvetica,sans-Serif" font-size="10.00">InterpolatorFractionalDelay</text>
<text text-anchor="middle" x="614.5" y="-200" font-family="Helvetica,sans-Serif" font-size="10.00">FilterLinear</text>
<polyline fill="none" stroke="black" points="547.5,-193 681.5,-193 "/>
<text text-anchor="start" x="555.5" y="-181" font-family="Helvetica,sans-Serif" font-size="10.00">+ fdf</text>
<text text-anchor="start" x="555.5" y="-170" font-family="Helvetica,sans-Serif" font-size="10.00">+ usf</text>
<polyline fill="none" stroke="black" points="547.5,-163 681.5,-163 "/>
<text text-anchor="start" x="555.5" y="-151" font-family="Helvetica,sans-Serif" font-size="10.00">+ __init__()</text>
<text text-anchor="start" x="555.5" y="-140" font-family="Helvetica,sans-Serif" font-size="10.00">+ ProcessWaveform()</text>
<text text-anchor="start" x="555.5" y="-129" font-family="Helvetica,sans-Serif" font-size="10.00">+ FilterWaveform()</text>
</a>
</g>
</g>
<!-- Node1&#45;&gt;Node10 -->
<g id="edge9" class="edge">
<title>Node1&#45;&gt;Node10</title>
<path fill="none" stroke="midnightblue" d="M725.73,-269.91C714.29,-260.28 701.88,-249.77 690.5,-240 684.11,-234.52 677.45,-228.75 670.84,-223.01"/>
<polygon fill="none" stroke="midnightblue" points="723.56,-272.66 733.47,-276.41 728.06,-267.3 723.56,-272.66"/>
</g>
<!-- Node11 -->
<g id="node11" class="node">
<title>Node11</title>
<g id="a_node11"><a xlink:href="classSignalIntegrity_1_1Lib_1_1TimeDomain_1_1Filters_1_1InterpolatorSinX_1_1InterpolatorFractionalDelayFilterSinX.xhtml" target="_top" xlink:title="combination sinx/x fractional delay and interpolating filter">
<polygon fill="white" stroke="black" points="699.5,-122 699.5,-223 833.5,-223 833.5,-122 699.5,-122"/>
<text text-anchor="start" x="707.5" y="-211" font-family="Helvetica,sans-Serif" font-size="10.00">InterpolatorFractionalDelay</text>
<text text-anchor="middle" x="766.5" y="-200" font-family="Helvetica,sans-Serif" font-size="10.00">FilterSinX</text>
<polyline fill="none" stroke="black" points="699.5,-193 833.5,-193 "/>
<text text-anchor="start" x="707.5" y="-181" font-family="Helvetica,sans-Serif" font-size="10.00">+ fdf</text>
<text text-anchor="start" x="707.5" y="-170" font-family="Helvetica,sans-Serif" font-size="10.00">+ usf</text>
<polyline fill="none" stroke="black" points="699.5,-163 833.5,-163 "/>
<text text-anchor="start" x="707.5" y="-151" font-family="Helvetica,sans-Serif" font-size="10.00">+ __init__()</text>
<text text-anchor="start" x="707.5" y="-140" font-family="Helvetica,sans-Serif" font-size="10.00">+ ProcessWaveform()</text>
<text text-anchor="start" x="707.5" y="-129" font-family="Helvetica,sans-Serif" font-size="10.00">+ FilterWaveform()</text>
</a>
</g>
</g>
<!-- Node1&#45;&gt;Node11 -->
<g id="edge10" class="edge">
<title>Node1&#45;&gt;Node11</title>
<path fill="none" stroke="midnightblue" d="M766.5,-266.01C766.5,-252.57 766.5,-237.26 766.5,-223.01"/>
<polygon fill="none" stroke="midnightblue" points="763,-266.32 766.5,-276.32 770,-266.32 763,-266.32"/>
</g>
<!-- Node12 -->
<g id="node12" class="node">
<title>Node12</title>
<g id="a_node12"><a xlink:href="classSignalIntegrity_1_1Lib_1_1TimeDomain_1_1Filters_1_1WaveformDecimator_1_1WaveformDecimator.xhtml" target="_top" xlink:title="decimates waveforms">
<polygon fill="white" stroke="black" points="851.5,-127.5 851.5,-217.5 969.5,-217.5 969.5,-127.5 851.5,-127.5"/>
<text text-anchor="middle" x="910.5" y="-205.5" font-family="Helvetica,sans-Serif" font-size="10.00">WaveformDecimator</text>
<polyline fill="none" stroke="black" points="851.5,-198.5 969.5,-198.5 "/>
<text text-anchor="start" x="859.5" y="-186.5" font-family="Helvetica,sans-Serif" font-size="10.00">+ df</text>
<text text-anchor="start" x="859.5" y="-175.5" font-family="Helvetica,sans-Serif" font-size="10.00">+ dph</text>
<polyline fill="none" stroke="black" points="851.5,-168.5 969.5,-168.5 "/>
<text text-anchor="start" x="859.5" y="-156.5" font-family="Helvetica,sans-Serif" font-size="10.00">+ __init__()</text>
<text text-anchor="start" x="859.5" y="-145.5" font-family="Helvetica,sans-Serif" font-size="10.00">+ ProcessWaveform()</text>
<text text-anchor="start" x="859.5" y="-134.5" font-family="Helvetica,sans-Serif" font-size="10.00">+ DecimateWaveform()</text>
</a>
</g>
</g>
<!-- Node1&#45;&gt;Node12 -->
<g id="edge11" class="edge">
<title>Node1&#45;&gt;Node12</title>
<path fill="none" stroke="midnightblue" d="M807.95,-270.05C819.3,-260.5 831.5,-249.99 842.5,-240 850.32,-232.9 858.49,-225.19 866.33,-217.62"/>
<polygon fill="none" stroke="midnightblue" points="805.68,-267.39 800.26,-276.49 810.17,-272.75 805.68,-267.39"/>
</g>
<!-- Node13 -->
<g id="node13" class="node">
<title>Node13</title>
<g id="a_node13"><a xlink:href="classSignalIntegrity_1_1Lib_1_1TimeDomain_1_1Filters_1_1WaveformTrimmer_1_1WaveformTrimmer.xhtml" target="_top" xlink:title="trims waveforms">
<polygon fill="white" stroke="black" points="987.5,-133 987.5,-212 1099.5,-212 1099.5,-133 987.5,-133"/>
<text text-anchor="middle" x="1043.5" y="-200" font-family="Helvetica,sans-Serif" font-size="10.00">WaveformTrimmer</text>
<polyline fill="none" stroke="black" points="987.5,-193 1099.5,-193 "/>
<text text-anchor="middle" x="1043.5" y="-181" font-family="Helvetica,sans-Serif" font-size="10.00"> </text>
<polyline fill="none" stroke="black" points="987.5,-174 1099.5,-174 "/>
<text text-anchor="start" x="995.5" y="-162" font-family="Helvetica,sans-Serif" font-size="10.00">+ __init__()</text>
<text text-anchor="start" x="995.5" y="-151" font-family="Helvetica,sans-Serif" font-size="10.00">+ ProcessWaveform()</text>
<text text-anchor="start" x="995.5" y="-140" font-family="Helvetica,sans-Serif" font-size="10.00">+ TrimWaveform()</text>
</a>
</g>
</g>
<!-- Node1&#45;&gt;Node13 -->
<g id="edge12" class="edge">
<title>Node1&#45;&gt;Node13</title>
<path fill="none" stroke="midnightblue" d="M832.74,-292.94C876.43,-283.57 933.66,-267.18 978.5,-240 990.65,-232.63 1002.13,-222.48 1011.96,-212.31"/>
<polygon fill="none" stroke="midnightblue" points="831.87,-289.55 822.79,-295.01 833.29,-296.4 831.87,-289.55"/>
</g>
<!-- Node3 -->
<g id="node3" class="node">
<title>Node3</title>
<g id="a_node3"><a xlink:href="classSignalIntegrity_1_1Lib_1_1TimeDomain_1_1Filters_1_1InterpolatorLinear_1_1FractionalDelayFilterLinear.xhtml" target="_top" xlink:title="linear fractional delay filter">
<polygon fill="white" stroke="black" points="0,-6 0,-63 133,-63 133,-6 0,-6"/>
<text text-anchor="middle" x="66.5" y="-51" font-family="Helvetica,sans-Serif" font-size="10.00">FractionalDelayFilterLinear</text>
<polyline fill="none" stroke="black" points="0,-44 133,-44 "/>
<text text-anchor="middle" x="66.5" y="-32" font-family="Helvetica,sans-Serif" font-size="10.00"> </text>
<polyline fill="none" stroke="black" points="0,-25 133,-25 "/>
<text text-anchor="start" x="8" y="-13" font-family="Helvetica,sans-Serif" font-size="10.00">+ __init__()</text>
</a>
</g>
</g>
<!-- Node2&#45;&gt;Node3 -->
<g id="edge2" class="edge">
<title>Node2&#45;&gt;Node3</title>
<path fill="none" stroke="midnightblue" d="M385.49,-149.31C320.18,-129.91 224.34,-100.05 142.5,-69 137.65,-67.16 132.66,-65.17 127.66,-63.12"/>
<polygon fill="none" stroke="midnightblue" points="384.72,-152.74 395.3,-152.22 386.7,-146.02 384.72,-152.74"/>
</g>
<!-- Node4 -->
<g id="node4" class="node">
<title>Node4</title>
<g id="a_node4"><a xlink:href="classSignalIntegrity_1_1Lib_1_1TimeDomain_1_1Filters_1_1InterpolatorLinear_1_1InterpolatorLinear.xhtml" target="_top" xlink:title="linear interpolating filter">
<polygon fill="white" stroke="black" points="151.5,-0.5 151.5,-68.5 249.5,-68.5 249.5,-0.5 151.5,-0.5"/>
<text text-anchor="middle" x="200.5" y="-56.5" font-family="Helvetica,sans-Serif" font-size="10.00">InterpolatorLinear</text>
<polyline fill="none" stroke="black" points="151.5,-49.5 249.5,-49.5 "/>
<text text-anchor="middle" x="200.5" y="-37.5" font-family="Helvetica,sans-Serif" font-size="10.00"> </text>
<polyline fill="none" stroke="black" points="151.5,-30.5 249.5,-30.5 "/>
<text text-anchor="start" x="159.5" y="-18.5" font-family="Helvetica,sans-Serif" font-size="10.00">+ __init__()</text>
<text text-anchor="start" x="159.5" y="-7.5" font-family="Helvetica,sans-Serif" font-size="10.00">+ FilterWaveform()</text>
</a>
</g>
</g>
<!-- Node2&#45;&gt;Node4 -->
<g id="edge3" class="edge">
<title>Node2&#45;&gt;Node4</title>
<path fill="none" stroke="midnightblue" d="M386.29,-134.52C347.71,-115.47 300.32,-91.56 258.5,-69 255.63,-67.45 252.7,-65.85 249.75,-64.21"/>
<polygon fill="none" stroke="midnightblue" points="384.87,-137.72 395.38,-139 387.96,-131.44 384.87,-137.72"/>
</g>
<!-- Node5 -->
<g id="node5" class="node">
<title>Node5</title>
<g id="a_node5"><a xlink:href="classSignalIntegrity_1_1Lib_1_1TimeDomain_1_1Filters_1_1InterpolatorSinX_1_1FractionalDelayFilterSinX.xhtml" target="_top" xlink:title="sinx/x fractional delay filter">
<polygon fill="white" stroke="black" points="267.5,-6 267.5,-63 395.5,-63 395.5,-6 267.5,-6"/>
<text text-anchor="middle" x="331.5" y="-51" font-family="Helvetica,sans-Serif" font-size="10.00">FractionalDelayFilterSinX</text>
<polyline fill="none" stroke="black" points="267.5,-44 395.5,-44 "/>
<text text-anchor="start" x="275.5" y="-32" font-family="Helvetica,sans-Serif" font-size="10.00">+ S</text>
<polyline fill="none" stroke="black" points="267.5,-25 395.5,-25 "/>
<text text-anchor="start" x="275.5" y="-13" font-family="Helvetica,sans-Serif" font-size="10.00">+ __init__()</text>
</a>
</g>
</g>
<!-- Node2&#45;&gt;Node5 -->
<g id="edge4" class="edge">
<title>Node2&#45;&gt;Node5</title>
<path fill="none" stroke="midnightblue" d="M391.86,-98.17C379.9,-85.75 368.17,-73.57 358.28,-63.3"/>
<polygon fill="none" stroke="midnightblue" points="389.46,-100.72 398.92,-105.49 394.5,-95.86 389.46,-100.72"/>
</g>
<!-- Node6 -->
<g id="node6" class="node">
<title>Node6</title>
<g id="a_node6"><a xlink:href="classSignalIntegrity_1_1Lib_1_1TimeDomain_1_1Filters_1_1InterpolatorSinX_1_1InterpolatorSinX.xhtml" target="_top" xlink:title="sinx/x interpolating filter">
<polygon fill="white" stroke="black" points="413.5,-0.5 413.5,-68.5 511.5,-68.5 511.5,-0.5 413.5,-0.5"/>
<text text-anchor="middle" x="462.5" y="-56.5" font-family="Helvetica,sans-Serif" font-size="10.00">InterpolatorSinX</text>
<polyline fill="none" stroke="black" points="413.5,-49.5 511.5,-49.5 "/>
<text text-anchor="start" x="421.5" y="-37.5" font-family="Helvetica,sans-Serif" font-size="10.00">+ S</text>
<polyline fill="none" stroke="black" points="413.5,-30.5 511.5,-30.5 "/>
<text text-anchor="start" x="421.5" y="-18.5" font-family="Helvetica,sans-Serif" font-size="10.00">+ __init__()</text>
<text text-anchor="start" x="421.5" y="-7.5" font-family="Helvetica,sans-Serif" font-size="10.00">+ FilterWaveform()</text>
</a>
</g>
</g>
<!-- Node2&#45;&gt;Node6 -->
<g id="edge5" class="edge">
<title>Node2&#45;&gt;Node6</title>
<path fill="none" stroke="midnightblue" d="M462.5,-95.37C462.5,-86.08 462.5,-77 462.5,-68.83"/>
<polygon fill="none" stroke="midnightblue" points="459,-95.49 462.5,-105.49 466,-95.49 459,-95.49"/>
</g>
<!-- Node7 -->
<g id="node7" class="node">
<title>Node7</title>
<g id="a_node7"><a xlink:href="classSignalIntegrity_1_1Lib_1_1TimeDomain_1_1Filters_1_1RaisedCosineFilter_1_1RaisedCosineFilter.xhtml" target="_top" xlink:title="raised cosine filter">
<polygon fill="white" stroke="black" points="529.5,-6 529.5,-63 629.5,-63 629.5,-6 529.5,-6"/>
<text text-anchor="middle" x="579.5" y="-51" font-family="Helvetica,sans-Serif" font-size="10.00">RaisedCosineFilter</text>
<polyline fill="none" stroke="black" points="529.5,-44 629.5,-44 "/>
<text text-anchor="middle" x="579.5" y="-32" font-family="Helvetica,sans-Serif" font-size="10.00"> </text>
<polyline fill="none" stroke="black" points="529.5,-25 629.5,-25 "/>
<text text-anchor="start" x="537.5" y="-13" font-family="Helvetica,sans-Serif" font-size="10.00">+ __init__()</text>
</a>
</g>
</g>
<!-- Node2&#45;&gt;Node7 -->
<g id="edge6" class="edge">
<title>Node2&#45;&gt;Node7</title>
<path fill="none" stroke="midnightblue" d="M525.89,-97.82C536.47,-85.52 546.83,-73.47 555.58,-63.3"/>
<polygon fill="none" stroke="midnightblue" points="523.15,-95.63 519.29,-105.49 528.46,-100.19 523.15,-95.63"/>
</g>
<!-- Node8 -->
<g id="node8" class="node">
<title>Node8</title>
<g id="a_node8"><a xlink:href="classSignalIntegrity_1_1Lib_1_1TimeDomain_1_1Filters_1_1Risetime_1_1Gaussian_1_1Gaussian.xhtml" target="_top" xlink:title=" ">
<polygon fill="white" stroke="black" points="648,-0.5 648,-68.5 713,-68.5 713,-0.5 648,-0.5"/>
<text text-anchor="middle" x="680.5" y="-56.5" font-family="Helvetica,sans-Serif" font-size="10.00">Gaussian</text>
<polyline fill="none" stroke="black" points="648,-49.5 713,-49.5 "/>
<text text-anchor="start" x="656" y="-37.5" font-family="Helvetica,sans-Serif" font-size="10.00">+ a2080</text>
<text text-anchor="start" x="656" y="-26.5" font-family="Helvetica,sans-Serif" font-size="10.00">+ a1090</text>
<polyline fill="none" stroke="black" points="648,-19.5 713,-19.5 "/>
<text text-anchor="start" x="656" y="-7.5" font-family="Helvetica,sans-Serif" font-size="10.00">+ __init__()</text>
</a>
</g>
</g>
<!-- Node2&#45;&gt;Node8 -->
<g id="edge7" class="edge">
<title>Node2&#45;&gt;Node8</title>
<path fill="none" stroke="midnightblue" d="M538.23,-105.16C538.32,-105.11 538.41,-105.05 538.5,-105 579.2,-81.03 597.26,-92.04 638.5,-69 641.59,-67.27 644.7,-65.32 647.73,-63.24"/>
<polygon fill="none" stroke="midnightblue" points="536.52,-102.1 529.93,-110.39 540.25,-108.02 536.52,-102.1"/>
</g>
<!-- Node9 -->
<g id="node9" class="node">
<title>Node9</title>
<g id="a_node9"><a xlink:href="classSignalIntegrity_1_1Lib_1_1TimeDomain_1_1Filters_1_1Risetime_1_1RaisedCosine_1_1RaisedCosine.xhtml" target="_top" xlink:title=" ">
<polygon fill="white" stroke="black" points="731.5,-0.5 731.5,-68.5 809.5,-68.5 809.5,-0.5 731.5,-0.5"/>
<text text-anchor="middle" x="770.5" y="-56.5" font-family="Helvetica,sans-Serif" font-size="10.00">RaisedCosine</text>
<polyline fill="none" stroke="black" points="731.5,-49.5 809.5,-49.5 "/>
<text text-anchor="start" x="739.5" y="-37.5" font-family="Helvetica,sans-Serif" font-size="10.00">+ a2080</text>
<text text-anchor="start" x="739.5" y="-26.5" font-family="Helvetica,sans-Serif" font-size="10.00">+ a1090</text>
<polyline fill="none" stroke="black" points="731.5,-19.5 809.5,-19.5 "/>
<text text-anchor="start" x="739.5" y="-7.5" font-family="Helvetica,sans-Serif" font-size="10.00">+ __init__()</text>
</a>
</g>
</g>
<!-- Node2&#45;&gt;Node9 -->
<g id="edge8" class="edge">
<title>Node2&#45;&gt;Node9</title>
<path fill="none" stroke="midnightblue" d="M538.22,-105.14C538.31,-105.09 538.41,-105.05 538.5,-105 613.31,-68.3 645.79,-101.55 722.5,-69 725.49,-67.73 728.49,-66.25 731.44,-64.64"/>
<polygon fill="none" stroke="midnightblue" points="536.73,-101.96 529.62,-109.82 540.07,-108.11 536.73,-101.96"/>
</g>
</g>
</svg>
