<?xml version="1.0" encoding="UTF-8" standalone="no"?>
<!DOCTYPE svg PUBLIC "-//W3C//DTD SVG 1.1//EN"
 "http://www.w3.org/Graphics/SVG/1.1/DTD/svg11.dtd">
<!-- Generated by graphviz version 2.43.0 (0)
 -->
<!-- Title: FrequencyContent Pages: 1 -->
<svg width="167pt" height="336pt"
 viewBox="0.00 0.00 167.00 336.00" xmlns="http://www.w3.org/2000/svg" xmlns:xlink="http://www.w3.org/1999/xlink">
<g id="graph0" class="graph" transform="scale(1 1) rotate(0) translate(4 332)">
<title>FrequencyContent</title>
<polygon fill="white" stroke="transparent" points="-4,4 -4,-332 163,-332 163,4 -4,4"/>
<!-- Node1 -->
<g id="node1" class="node">
<title>Node1</title>
<g id="a_node1"><a xlink:title="Handles frequency content of waveforms.">
<polygon fill="#bfbfbf" stroke="black" points="0,-0.5 0,-145.5 159,-145.5 159,-0.5 0,-0.5"/>
<text text-anchor="middle" x="79.5" y="-133.5" font-family="Helvetica,sans-Serif" font-size="10.00">FrequencyContent</text>
<polyline fill="none" stroke="black" points="0,-126.5 159,-126.5 "/>
<text text-anchor="start" x="8" y="-114.5" font-family="Helvetica,sans-Serif" font-size="10.00">+ td</text>
<text text-anchor="start" x="8" y="-103.5" font-family="Helvetica,sans-Serif" font-size="10.00">+ R</text>
<text text-anchor="start" x="8" y="-92.5" font-family="Helvetica,sans-Serif" font-size="10.00">+ P</text>
<text text-anchor="start" x="8" y="-81.5" font-family="Helvetica,sans-Serif" font-size="10.00">+ LogRP10</text>
<text text-anchor="start" x="8" y="-70.5" font-family="Helvetica,sans-Serif" font-size="10.00">+ dB3</text>
<text text-anchor="start" x="8" y="-59.5" font-family="Helvetica,sans-Serif" font-size="10.00">+ dB6</text>
<polyline fill="none" stroke="black" points="0,-52.5 159,-52.5 "/>
<text text-anchor="start" x="8" y="-40.5" font-family="Helvetica,sans-Serif" font-size="10.00">+ __init__()</text>
<text text-anchor="start" x="8" y="-29.5" font-family="Helvetica,sans-Serif" font-size="10.00">+ Values()</text>
<text text-anchor="start" x="8" y="-18.5" font-family="Helvetica,sans-Serif" font-size="10.00">+ Waveform()</text>
<text text-anchor="start" x="8" y="-7.5" font-family="Helvetica,sans-Serif" font-size="10.00">+ WaveformFromDefinition()</text>
</a>
</g>
</g>
<!-- Node2 -->
<g id="node2" class="node">
<title>Node2</title>
<g id="a_node2"><a xlink:href="classSignalIntegrity_1_1Lib_1_1FrequencyDomain_1_1FrequencyDomain_1_1FrequencyDomain.xhtml" target="_top" xlink:title="base class for frequency domain elements.">
<polygon fill="white" stroke="black" points="15.5,-182.5 15.5,-327.5 143.5,-327.5 143.5,-182.5 15.5,-182.5"/>
<text text-anchor="middle" x="79.5" y="-315.5" font-family="Helvetica,sans-Serif" font-size="10.00">FrequencyDomain</text>
<polyline fill="none" stroke="black" points="15.5,-308.5 143.5,-308.5 "/>
<text text-anchor="start" x="23.5" y="-296.5" font-family="Helvetica,sans-Serif" font-size="10.00">+ m_f</text>
<polyline fill="none" stroke="black" points="15.5,-289.5 143.5,-289.5 "/>
<text text-anchor="start" x="23.5" y="-277.5" font-family="Helvetica,sans-Serif" font-size="10.00">+ __init__()</text>
<text text-anchor="start" x="23.5" y="-266.5" font-family="Helvetica,sans-Serif" font-size="10.00">+ FrequencyList()</text>
<text text-anchor="start" x="23.5" y="-255.5" font-family="Helvetica,sans-Serif" font-size="10.00">+ Frequencies()</text>
<text text-anchor="start" x="23.5" y="-244.5" font-family="Helvetica,sans-Serif" font-size="10.00">+ Values()</text>
<text text-anchor="start" x="23.5" y="-233.5" font-family="Helvetica,sans-Serif" font-size="10.00">+ ReadFromFile()</text>
<text text-anchor="start" x="23.5" y="-222.5" font-family="Helvetica,sans-Serif" font-size="10.00">+ WriteToFile()</text>
<text text-anchor="start" x="23.5" y="-211.5" font-family="Helvetica,sans-Serif" font-size="10.00">+ __eq__()</text>
<text text-anchor="start" x="23.5" y="-200.5" font-family="Helvetica,sans-Serif" font-size="10.00">+ __ne__()</text>
<text text-anchor="start" x="23.5" y="-189.5" font-family="Helvetica,sans-Serif" font-size="10.00">+ LimitEndFrequency()</text>
</a>
</g>
</g>
<!-- Node2&#45;&gt;Node1 -->
<g id="edge1" class="edge">
<title>Node2&#45;&gt;Node1</title>
<path fill="none" stroke="midnightblue" d="M79.5,-172.08C79.5,-163.28 79.5,-154.37 79.5,-145.71"/>
<polygon fill="none" stroke="midnightblue" points="76,-172.34 79.5,-182.34 83,-172.34 76,-172.34"/>
</g>
</g>
</svg>
