<?xml version="1.0" encoding="UTF-8" standalone="no"?>
<!DOCTYPE svg PUBLIC "-//W3C//DTD SVG 1.1//EN"
 "http://www.w3.org/Graphics/SVG/1.1/DTD/svg11.dtd">
<!-- Generated by graphviz version 2.40.1 (20161225.0304)
 -->
<!-- Title: SystemSParameters Pages: 1 -->
<svg width="854pt" height="816pt"
 viewBox="0.00 0.00 854.00 816.00" xmlns="http://www.w3.org/2000/svg" xmlns:xlink="http://www.w3.org/1999/xlink">
<g id="graph0" class="graph" transform="scale(1 1) rotate(0) translate(4 812)">
<title>SystemSParameters</title>
<polygon fill="#ffffff" stroke="transparent" points="-4,4 -4,-812 850,-812 850,4 -4,4"/>
<!-- Node0 -->
<g id="node1" class="node">
<title>Node0</title>
<polygon fill="#bfbfbf" stroke="#000000" points="472.5,-480.5 472.5,-603.5 579.5,-603.5 579.5,-480.5 472.5,-480.5"/>
<text text-anchor="middle" x="526" y="-591.5" font-family="Helvetica,sans-Serif" font-size="10.00" fill="#000000">SystemSParameters</text>
<polyline fill="none" stroke="#000000" points="472.5,-584.5 579.5,-584.5 "/>
<text text-anchor="middle" x="526" y="-572.5" font-family="Helvetica,sans-Serif" font-size="10.00" fill="#000000"> </text>
<polyline fill="none" stroke="#000000" points="472.5,-565.5 579.5,-565.5 "/>
<text text-anchor="start" x="480.5" y="-553.5" font-family="Helvetica,sans-Serif" font-size="10.00" fill="#000000">+ __init__()</text>
<text text-anchor="start" x="480.5" y="-542.5" font-family="Helvetica,sans-Serif" font-size="10.00" fill="#000000">+ PortANames()</text>
<text text-anchor="start" x="480.5" y="-531.5" font-family="Helvetica,sans-Serif" font-size="10.00" fill="#000000">+ PortBNames()</text>
<text text-anchor="start" x="480.5" y="-520.5" font-family="Helvetica,sans-Serif" font-size="10.00" fill="#000000">+ OtherNames()</text>
<text text-anchor="start" x="480.5" y="-509.5" font-family="Helvetica,sans-Serif" font-size="10.00" fill="#000000">+ NodeVector()</text>
<text text-anchor="start" x="480.5" y="-498.5" font-family="Helvetica,sans-Serif" font-size="10.00" fill="#000000">+ StimulusVector()</text>
<text text-anchor="start" x="480.5" y="-487.5" font-family="Helvetica,sans-Serif" font-size="10.00" fill="#000000"># WeightsMatrix()</text>
</g>
<!-- Node2 -->
<g id="node3" class="node">
<title>Node2</title>
<g id="a_node3"><a xlink:href="classSignalIntegrity_1_1Lib_1_1SystemDescriptions_1_1Deembedder_1_1Deembedder.xhtml" target="_top" xlink:title="housekeeping base class for deembedders ">
<polygon fill="#ffffff" stroke="#000000" points="137,-298.5 137,-421.5 241,-421.5 241,-298.5 137,-298.5"/>
<text text-anchor="middle" x="189" y="-409.5" font-family="Helvetica,sans-Serif" font-size="10.00" fill="#000000">Deembedder</text>
<polyline fill="none" stroke="#000000" points="137,-402.5 241,-402.5 "/>
<text text-anchor="middle" x="189" y="-390.5" font-family="Helvetica,sans-Serif" font-size="10.00" fill="#000000"> </text>
<polyline fill="none" stroke="#000000" points="137,-383.5 241,-383.5 "/>
<text text-anchor="start" x="145" y="-371.5" font-family="Helvetica,sans-Serif" font-size="10.00" fill="#000000">+ __init__()</text>
<text text-anchor="start" x="145" y="-360.5" font-family="Helvetica,sans-Serif" font-size="10.00" fill="#000000">+ AddUnknown()</text>
<text text-anchor="start" x="145" y="-349.5" font-family="Helvetica,sans-Serif" font-size="10.00" fill="#000000">+ DutANames()</text>
<text text-anchor="start" x="145" y="-338.5" font-family="Helvetica,sans-Serif" font-size="10.00" fill="#000000">+ DutBNames()</text>
<text text-anchor="start" x="145" y="-327.5" font-family="Helvetica,sans-Serif" font-size="10.00" fill="#000000">+ UnknownNames()</text>
<text text-anchor="start" x="145" y="-316.5" font-family="Helvetica,sans-Serif" font-size="10.00" fill="#000000">+ UnknownPorts()</text>
<text text-anchor="start" x="145" y="-305.5" font-family="Helvetica,sans-Serif" font-size="10.00" fill="#000000">+ Partition()</text>
</a>
</g>
</g>
<!-- Node0&#45;&gt;Node2 -->
<g id="edge2" class="edge">
<title>Node0&#45;&gt;Node2</title>
<path fill="none" stroke="#191970" d="M463.0406,-507.9982C399.0349,-473.4313 301.0185,-420.4966 241.1946,-388.1882"/>
<polygon fill="none" stroke="#191970" points="461.7667,-511.288 472.2287,-512.9603 465.093,-505.1288 461.7667,-511.288"/>
</g>
<!-- Node5 -->
<g id="node6" class="node">
<title>Node5</title>
<g id="a_node6"><a xlink:href="classSignalIntegrity_1_1Lib_1_1SystemDescriptions_1_1Simulator_1_1Simulator.xhtml" target="_top" xlink:title="Base class for dealing with housekeeping for simulations. ">
<polygon fill="#ffffff" stroke="#000000" points="532,-276.5 532,-443.5 684,-443.5 684,-276.5 532,-276.5"/>
<text text-anchor="middle" x="608" y="-431.5" font-family="Helvetica,sans-Serif" font-size="10.00" fill="#000000">Simulator</text>
<polyline fill="none" stroke="#000000" points="532,-424.5 684,-424.5 "/>
<text text-anchor="start" x="540" y="-412.5" font-family="Helvetica,sans-Serif" font-size="10.00" fill="#000000">+ m_ol</text>
<polyline fill="none" stroke="#000000" points="532,-405.5 684,-405.5 "/>
<text text-anchor="start" x="540" y="-393.5" font-family="Helvetica,sans-Serif" font-size="10.00" fill="#000000">+ __init__()</text>
<text text-anchor="start" x="540" y="-382.5" font-family="Helvetica,sans-Serif" font-size="10.00" fill="#000000">+ Check()</text>
<text text-anchor="start" x="540" y="-371.5" font-family="Helvetica,sans-Serif" font-size="10.00" fill="#000000">+ pOutputList()</text>
<text text-anchor="start" x="540" y="-360.5" font-family="Helvetica,sans-Serif" font-size="10.00" fill="#000000">+ pOutputList()</text>
<text text-anchor="start" x="540" y="-349.5" font-family="Helvetica,sans-Serif" font-size="10.00" fill="#000000">+ AddVoltageSource()</text>
<text text-anchor="start" x="540" y="-338.5" font-family="Helvetica,sans-Serif" font-size="10.00" fill="#000000">+ AddCurrentSource()</text>
<text text-anchor="start" x="540" y="-327.5" font-family="Helvetica,sans-Serif" font-size="10.00" fill="#000000">+ SourceVector()</text>
<text text-anchor="start" x="540" y="-316.5" font-family="Helvetica,sans-Serif" font-size="10.00" fill="#000000">+ SourceToStimsPrimeMatrix()</text>
<text text-anchor="start" x="540" y="-305.5" font-family="Helvetica,sans-Serif" font-size="10.00" fill="#000000">+ StimsPrime()</text>
<text text-anchor="start" x="540" y="-294.5" font-family="Helvetica,sans-Serif" font-size="10.00" fill="#000000">+ SIPrime()</text>
<text text-anchor="start" x="540" y="-283.5" font-family="Helvetica,sans-Serif" font-size="10.00" fill="#000000">+ VoltageExtractionMatrix()</text>
</a>
</g>
</g>
<!-- Node0&#45;&gt;Node5 -->
<g id="edge5" class="edge">
<title>Node0&#45;&gt;Node5</title>
<path fill="none" stroke="#191970" d="M557.9539,-471.078C562.0274,-462.0368 566.2263,-452.7173 570.3786,-443.5011"/>
<polygon fill="none" stroke="#191970" points="554.6783,-469.828 553.7615,-480.3831 561.0604,-472.7035 554.6783,-469.828"/>
</g>
<!-- Node11 -->
<g id="node12" class="node">
<title>Node11</title>
<g id="a_node12"><a xlink:href="classSignalIntegrity_1_1Lib_1_1SystemDescriptions_1_1SystemDescriptionSymbolic_1_1SystemDescriptionSymbolic.xhtml" target="_top" xlink:title="Solves system descriptions in the most basic manner common to all of the simulation, system s&#45;parameters, deembedding and virtual probing applications. ">
<polygon fill="#ffffff" stroke="#000000" points="374,-326 374,-394 514,-394 514,-326 374,-326"/>
<text text-anchor="middle" x="444" y="-382" font-family="Helvetica,sans-Serif" font-size="10.00" fill="#000000">SystemDescriptionSymbolic</text>
<polyline fill="none" stroke="#000000" points="374,-375 514,-375 "/>
<text text-anchor="middle" x="444" y="-363" font-family="Helvetica,sans-Serif" font-size="10.00" fill="#000000"> </text>
<polyline fill="none" stroke="#000000" points="374,-356 514,-356 "/>
<text text-anchor="start" x="382" y="-344" font-family="Helvetica,sans-Serif" font-size="10.00" fill="#000000">+ __init__()</text>
<text text-anchor="start" x="382" y="-333" font-family="Helvetica,sans-Serif" font-size="10.00" fill="#000000">+ LaTeXSystemEquation()</text>
</a>
</g>
</g>
<!-- Node0&#45;&gt;Node11 -->
<g id="edge11" class="edge">
<title>Node0&#45;&gt;Node11</title>
<path fill="none" stroke="#191970" d="M494.078,-471.1487C482.1687,-444.7158 469.1835,-415.895 459.4206,-394.2261"/>
<polygon fill="none" stroke="#191970" points="490.9396,-472.7035 498.2385,-480.3831 497.3217,-469.828 490.9396,-472.7035"/>
</g>
<!-- Node13 -->
<g id="node14" class="node">
<title>Node13</title>
<g id="a_node14"><a xlink:href="classSignalIntegrity_1_1Lib_1_1SystemDescriptions_1_1SystemSParametersNumeric_1_1SystemSParametersNumeric.xhtml" target="_top" xlink:title="Class for computing s&#45;parameters of interconnected systems. ">
<polygon fill="#ffffff" stroke="#000000" points="702,-326 702,-394 846,-394 846,-326 702,-326"/>
<text text-anchor="middle" x="774" y="-382" font-family="Helvetica,sans-Serif" font-size="10.00" fill="#000000">SystemSParametersNumeric</text>
<polyline fill="none" stroke="#000000" points="702,-375 846,-375 "/>
<text text-anchor="middle" x="774" y="-363" font-family="Helvetica,sans-Serif" font-size="10.00" fill="#000000"> </text>
<polyline fill="none" stroke="#000000" points="702,-356 846,-356 "/>
<text text-anchor="start" x="710" y="-344" font-family="Helvetica,sans-Serif" font-size="10.00" fill="#000000">+ __init__()</text>
<text text-anchor="start" x="710" y="-333" font-family="Helvetica,sans-Serif" font-size="10.00" fill="#000000">+ SParameters()</text>
</a>
</g>
</g>
<!-- Node0&#45;&gt;Node13 -->
<g id="edge15" class="edge">
<title>Node0&#45;&gt;Node13</title>
<path fill="none" stroke="#191970" d="M588.4976,-510.6242C621.0295,-493.0081 660.6528,-469.4763 693,-444 711.7803,-429.2088 730.4571,-410.2063 745.1356,-394.0174"/>
<polygon fill="none" stroke="#191970" points="586.6839,-507.6251 579.5219,-515.4326 589.9895,-513.7955 586.6839,-507.6251"/>
</g>
<!-- Node1 -->
<g id="node2" class="node">
<title>Node1</title>
<g id="a_node2"><a xlink:href="classSignalIntegrity_1_1Lib_1_1SystemDescriptions_1_1SystemDescription_1_1SystemDescription.xhtml" target="_top" xlink:title="Allows the construction of system descriptions for use with all of the classes that solve schematics ...">
<polygon fill="#ffffff" stroke="#000000" points="466.5,-640.5 466.5,-807.5 585.5,-807.5 585.5,-640.5 466.5,-640.5"/>
<text text-anchor="middle" x="526" y="-795.5" font-family="Helvetica,sans-Serif" font-size="10.00" fill="#000000">SystemDescription</text>
<polyline fill="none" stroke="#000000" points="466.5,-788.5 585.5,-788.5 "/>
<text text-anchor="start" x="474.5" y="-776.5" font-family="Helvetica,sans-Serif" font-size="10.00" fill="#000000">+ m_UniqueDevice</text>
<text text-anchor="start" x="474.5" y="-765.5" font-family="Helvetica,sans-Serif" font-size="10.00" fill="#000000">+ m_UniqueNode</text>
<polyline fill="none" stroke="#000000" points="466.5,-758.5 585.5,-758.5 "/>
<text text-anchor="start" x="474.5" y="-746.5" font-family="Helvetica,sans-Serif" font-size="10.00" fill="#000000">+ __init__()</text>
<text text-anchor="start" x="474.5" y="-735.5" font-family="Helvetica,sans-Serif" font-size="10.00" fill="#000000">+ AddDevice()</text>
<text text-anchor="start" x="474.5" y="-724.5" font-family="Helvetica,sans-Serif" font-size="10.00" fill="#000000">+ AssignM()</text>
<text text-anchor="start" x="474.5" y="-713.5" font-family="Helvetica,sans-Serif" font-size="10.00" fill="#000000">+ DeviceNames()</text>
<text text-anchor="start" x="474.5" y="-702.5" font-family="Helvetica,sans-Serif" font-size="10.00" fill="#000000">+ IndexOfDevice()</text>
<text text-anchor="start" x="474.5" y="-691.5" font-family="Helvetica,sans-Serif" font-size="10.00" fill="#000000">+ CheckConnections()</text>
<text text-anchor="start" x="474.5" y="-680.5" font-family="Helvetica,sans-Serif" font-size="10.00" fill="#000000">+ ConnectDevicePort()</text>
<text text-anchor="start" x="474.5" y="-669.5" font-family="Helvetica,sans-Serif" font-size="10.00" fill="#000000">+ AddPort()</text>
<text text-anchor="start" x="474.5" y="-658.5" font-family="Helvetica,sans-Serif" font-size="10.00" fill="#000000">+ AssignSParameters()</text>
<text text-anchor="start" x="474.5" y="-647.5" font-family="Helvetica,sans-Serif" font-size="10.00" fill="#000000">+ Print()</text>
</a>
</g>
</g>
<!-- Node1&#45;&gt;Node0 -->
<g id="edge1" class="edge">
<title>Node1&#45;&gt;Node0</title>
<path fill="none" stroke="#191970" d="M526,-630.2394C526,-621.186 526,-612.1691 526,-603.5475"/>
<polygon fill="none" stroke="#191970" points="522.5001,-630.4574 526,-640.4574 529.5001,-630.4574 522.5001,-630.4574"/>
</g>
<!-- Node3 -->
<g id="node4" class="node">
<title>Node3</title>
<g id="a_node4"><a xlink:href="classSignalIntegrity_1_1Lib_1_1SystemDescriptions_1_1DeembedderNumeric_1_1DeembedderNumeric.xhtml" target="_top" xlink:title="Performs numerical device deembedding. ">
<polygon fill="#ffffff" stroke="#000000" points="0,-144 0,-212 114,-212 114,-144 0,-144"/>
<text text-anchor="middle" x="57" y="-200" font-family="Helvetica,sans-Serif" font-size="10.00" fill="#000000">DeembedderNumeric</text>
<polyline fill="none" stroke="#000000" points="0,-193 114,-193 "/>
<text text-anchor="middle" x="57" y="-181" font-family="Helvetica,sans-Serif" font-size="10.00" fill="#000000"> </text>
<polyline fill="none" stroke="#000000" points="0,-174 114,-174 "/>
<text text-anchor="start" x="8" y="-162" font-family="Helvetica,sans-Serif" font-size="10.00" fill="#000000">+ __init__()</text>
<text text-anchor="start" x="8" y="-151" font-family="Helvetica,sans-Serif" font-size="10.00" fill="#000000">+ CalculateUnknown()</text>
</a>
</g>
</g>
<!-- Node2&#45;&gt;Node3 -->
<g id="edge3" class="edge">
<title>Node2&#45;&gt;Node3</title>
<path fill="none" stroke="#191970" d="M138.3659,-290.1863C118.9908,-263.4722 97.7451,-234.1789 81.8233,-212.2261"/>
<polygon fill="none" stroke="#191970" points="135.6064,-292.3429 144.3108,-298.3831 141.2729,-288.2331 135.6064,-292.3429"/>
</g>
<!-- Node4 -->
<g id="node5" class="node">
<title>Node4</title>
<g id="a_node5"><a xlink:href="classSignalIntegrity_1_1Lib_1_1SystemDescriptions_1_1DeembedderSymbolic_1_1DeembedderSymbolic.xhtml" target="_top" xlink:title="Produces symbolic solutions to deembedding problems. ">
<polygon fill="#ffffff" stroke="#000000" points="132.5,-144 132.5,-212 245.5,-212 245.5,-144 132.5,-144"/>
<text text-anchor="middle" x="189" y="-200" font-family="Helvetica,sans-Serif" font-size="10.00" fill="#000000">DeembedderSymbolic</text>
<polyline fill="none" stroke="#000000" points="132.5,-193 245.5,-193 "/>
<text text-anchor="start" x="140.5" y="-181" font-family="Helvetica,sans-Serif" font-size="10.00" fill="#000000">+ m_Sk</text>
<polyline fill="none" stroke="#000000" points="132.5,-174 245.5,-174 "/>
<text text-anchor="start" x="140.5" y="-162" font-family="Helvetica,sans-Serif" font-size="10.00" fill="#000000">+ __init__()</text>
<text text-anchor="start" x="140.5" y="-151" font-family="Helvetica,sans-Serif" font-size="10.00" fill="#000000">+ SymbolicSolution()</text>
</a>
</g>
</g>
<!-- Node2&#45;&gt;Node4 -->
<g id="edge4" class="edge">
<title>Node2&#45;&gt;Node4</title>
<path fill="none" stroke="#191970" d="M189,-288.1087C189,-261.9619 189,-233.6111 189,-212.2261"/>
<polygon fill="none" stroke="#191970" points="185.5001,-288.3831 189,-298.3831 192.5001,-288.3831 185.5001,-288.3831"/>
</g>
<!-- Node6 -->
<g id="node7" class="node">
<title>Node6</title>
<g id="a_node7"><a xlink:href="classSignalIntegrity_1_1Lib_1_1SystemDescriptions_1_1SimulatorNumeric_1_1SimulatorNumeric.xhtml" target="_top" xlink:title="class for performing numeric simulations ">
<polygon fill="#ffffff" stroke="#000000" points="560.5,-144 560.5,-212 655.5,-212 655.5,-144 560.5,-144"/>
<text text-anchor="middle" x="608" y="-200" font-family="Helvetica,sans-Serif" font-size="10.00" fill="#000000">SimulatorNumeric</text>
<polyline fill="none" stroke="#000000" points="560.5,-193 655.5,-193 "/>
<text text-anchor="middle" x="608" y="-181" font-family="Helvetica,sans-Serif" font-size="10.00" fill="#000000"> </text>
<polyline fill="none" stroke="#000000" points="560.5,-174 655.5,-174 "/>
<text text-anchor="start" x="568.5" y="-162" font-family="Helvetica,sans-Serif" font-size="10.00" fill="#000000">+ __init__()</text>
<text text-anchor="start" x="568.5" y="-151" font-family="Helvetica,sans-Serif" font-size="10.00" fill="#000000">+ TransferMatrix()</text>
</a>
</g>
</g>
<!-- Node5&#45;&gt;Node6 -->
<g id="edge6" class="edge">
<title>Node5&#45;&gt;Node6</title>
<path fill="none" stroke="#191970" d="M608,-266.3646C608,-247.0567 608,-227.9071 608,-212.3966"/>
<polygon fill="none" stroke="#191970" points="604.5001,-266.4574 608,-276.4574 611.5001,-266.4574 604.5001,-266.4574"/>
</g>
<!-- Node7 -->
<g id="node8" class="node">
<title>Node7</title>
<g id="a_node8"><a xlink:href="classSignalIntegrity_1_1Lib_1_1SystemDescriptions_1_1SimulatorSymbolic_1_1SimulatorSymbolic.xhtml" target="_top" xlink:title="class for producing symbolic solutions to simulation problems. ">
<polygon fill="#ffffff" stroke="#000000" points="580.5,-.5 580.5,-79.5 703.5,-79.5 703.5,-.5 580.5,-.5"/>
<text text-anchor="middle" x="642" y="-67.5" font-family="Helvetica,sans-Serif" font-size="10.00" fill="#000000">SimulatorSymbolic</text>
<polyline fill="none" stroke="#000000" points="580.5,-60.5 703.5,-60.5 "/>
<text text-anchor="middle" x="642" y="-48.5" font-family="Helvetica,sans-Serif" font-size="10.00" fill="#000000"> </text>
<polyline fill="none" stroke="#000000" points="580.5,-41.5 703.5,-41.5 "/>
<text text-anchor="start" x="588.5" y="-29.5" font-family="Helvetica,sans-Serif" font-size="10.00" fill="#000000">+ __init__()</text>
<text text-anchor="start" x="588.5" y="-18.5" font-family="Helvetica,sans-Serif" font-size="10.00" fill="#000000">+ LaTeXTransferMatrix()</text>
<text text-anchor="start" x="588.5" y="-7.5" font-family="Helvetica,sans-Serif" font-size="10.00" fill="#000000">+ LaTeXEquations()</text>
</a>
</g>
</g>
<!-- Node5&#45;&gt;Node7 -->
<g id="edge7" class="edge">
<title>Node5&#45;&gt;Node7</title>
<path fill="none" stroke="#191970" d="M656.1543,-266.8166C659.3188,-257.9233 662.0254,-248.9007 664,-240 675.9362,-186.197 671.7387,-170.5651 664,-116 662.3026,-104.032 659.1726,-91.3115 655.7954,-79.7701"/>
<polygon fill="none" stroke="#191970" points="652.793,-265.8119 652.5537,-276.404 659.3461,-268.2729 652.793,-265.8119"/>
</g>
<!-- Node8 -->
<g id="node9" class="node">
<title>Node8</title>
<g id="a_node9"><a xlink:href="classSignalIntegrity_1_1Lib_1_1SystemDescriptions_1_1VirtualProbe_1_1VirtualProbe.xhtml" target="_top" xlink:title="Base class for virtual probing. ">
<polygon fill="#ffffff" stroke="#000000" points="264,-116.5 264,-239.5 376,-239.5 376,-116.5 264,-116.5"/>
<text text-anchor="middle" x="320" y="-227.5" font-family="Helvetica,sans-Serif" font-size="10.00" fill="#000000">VirtualProbe</text>
<polyline fill="none" stroke="#000000" points="264,-220.5 376,-220.5 "/>
<text text-anchor="start" x="272" y="-208.5" font-family="Helvetica,sans-Serif" font-size="10.00" fill="#000000">+ m_ml</text>
<text text-anchor="start" x="272" y="-197.5" font-family="Helvetica,sans-Serif" font-size="10.00" fill="#000000">+ m_D</text>
<polyline fill="none" stroke="#000000" points="264,-190.5 376,-190.5 "/>
<text text-anchor="start" x="272" y="-178.5" font-family="Helvetica,sans-Serif" font-size="10.00" fill="#000000">+ __init__()</text>
<text text-anchor="start" x="272" y="-167.5" font-family="Helvetica,sans-Serif" font-size="10.00" fill="#000000">+ Check()</text>
<text text-anchor="start" x="272" y="-156.5" font-family="Helvetica,sans-Serif" font-size="10.00" fill="#000000">+ pMeasurementList()</text>
<text text-anchor="start" x="272" y="-145.5" font-family="Helvetica,sans-Serif" font-size="10.00" fill="#000000">+ pMeasurementList()</text>
<text text-anchor="start" x="272" y="-134.5" font-family="Helvetica,sans-Serif" font-size="10.00" fill="#000000">+ pStimDef()</text>
<text text-anchor="start" x="272" y="-123.5" font-family="Helvetica,sans-Serif" font-size="10.00" fill="#000000">+ pStimDef()</text>
</a>
</g>
</g>
<!-- Node5&#45;&gt;Node8 -->
<g id="edge8" class="edge">
<title>Node5&#45;&gt;Node8</title>
<path fill="none" stroke="#191970" d="M523.2788,-276.1591C523.1859,-276.1059 523.093,-276.0529 523,-276 467.9086,-244.6517 440.3667,-270.8595 385,-240 382.0031,-238.3297 379.0413,-236.4885 376.1307,-234.5183"/>
<polygon fill="none" stroke="#191970" points="521.4807,-279.1623 531.8262,-281.4473 525.1637,-273.2095 521.4807,-279.1623"/>
</g>
<!-- Node9 -->
<g id="node10" class="node">
<title>Node9</title>
<g id="a_node10"><a xlink:href="classSignalIntegrity_1_1Lib_1_1SystemDescriptions_1_1VirtualProbeNumeric_1_1VirtualProbeNumeric.xhtml" target="_top" xlink:title="class for performing virtual probing numerically. ">
<polygon fill="#ffffff" stroke="#000000" points="266.5,-6 266.5,-74 373.5,-74 373.5,-6 266.5,-6"/>
<text text-anchor="middle" x="320" y="-62" font-family="Helvetica,sans-Serif" font-size="10.00" fill="#000000">VirtualProbeNumeric</text>
<polyline fill="none" stroke="#000000" points="266.5,-55 373.5,-55 "/>
<text text-anchor="middle" x="320" y="-43" font-family="Helvetica,sans-Serif" font-size="10.00" fill="#000000"> </text>
<polyline fill="none" stroke="#000000" points="266.5,-36 373.5,-36 "/>
<text text-anchor="start" x="274.5" y="-24" font-family="Helvetica,sans-Serif" font-size="10.00" fill="#000000">+ __init__()</text>
<text text-anchor="start" x="274.5" y="-13" font-family="Helvetica,sans-Serif" font-size="10.00" fill="#000000">+ TransferMatrix()</text>
</a>
</g>
</g>
<!-- Node8&#45;&gt;Node9 -->
<g id="edge9" class="edge">
<title>Node8&#45;&gt;Node9</title>
<path fill="none" stroke="#191970" d="M320,-106.0348C320,-94.89 320,-83.8486 320,-74.0764"/>
<polygon fill="none" stroke="#191970" points="316.5001,-106.2653 320,-116.2654 323.5001,-106.2654 316.5001,-106.2653"/>
</g>
<!-- Node10 -->
<g id="node11" class="node">
<title>Node10</title>
<g id="a_node11"><a xlink:href="classSignalIntegrity_1_1Lib_1_1SystemDescriptions_1_1VirtualProbeSymbolic_1_1VirtualProbeSymbolic.xhtml" target="_top" xlink:title="Class that provides symbolic solutions to virtual probe problems. ">
<polygon fill="#ffffff" stroke="#000000" points="398.5,-.5 398.5,-79.5 521.5,-79.5 521.5,-.5 398.5,-.5"/>
<text text-anchor="middle" x="460" y="-67.5" font-family="Helvetica,sans-Serif" font-size="10.00" fill="#000000">VirtualProbeSymbolic</text>
<polyline fill="none" stroke="#000000" points="398.5,-60.5 521.5,-60.5 "/>
<text text-anchor="middle" x="460" y="-48.5" font-family="Helvetica,sans-Serif" font-size="10.00" fill="#000000"> </text>
<polyline fill="none" stroke="#000000" points="398.5,-41.5 521.5,-41.5 "/>
<text text-anchor="start" x="406.5" y="-29.5" font-family="Helvetica,sans-Serif" font-size="10.00" fill="#000000">+ __init__()</text>
<text text-anchor="start" x="406.5" y="-18.5" font-family="Helvetica,sans-Serif" font-size="10.00" fill="#000000">+ LaTeXTransferMatrix()</text>
<text text-anchor="start" x="406.5" y="-7.5" font-family="Helvetica,sans-Serif" font-size="10.00" fill="#000000">+ LaTeXEquations()</text>
</a>
</g>
</g>
<!-- Node8&#45;&gt;Node10 -->
<g id="edge10" class="edge">
<title>Node8&#45;&gt;Node10</title>
<path fill="none" stroke="#191970" d="M383.3814,-115.524C395.7608,-103.3215 408.4187,-90.8445 419.7879,-79.6377"/>
<polygon fill="none" stroke="#191970" points="380.8014,-113.1526 376.1367,-122.6653 385.7155,-118.1379 380.8014,-113.1526"/>
</g>
<!-- Node12 -->
<g id="node13" class="node">
<title>Node12</title>
<g id="a_node13"><a xlink:href="classSignalIntegrity_1_1Lib_1_1SystemDescriptions_1_1SystemSParametersSymbolic_1_1SystemSParametersSymbolic.xhtml" target="_top" xlink:title="Class for solving symbolically the s&#45;parameters of interconnected systems. ">
<polygon fill="#ffffff" stroke="#000000" points="394,-144 394,-212 542,-212 542,-144 394,-144"/>
<text text-anchor="middle" x="468" y="-200" font-family="Helvetica,sans-Serif" font-size="10.00" fill="#000000">SystemSParametersSymbolic</text>
<polyline fill="none" stroke="#000000" points="394,-193 542,-193 "/>
<text text-anchor="middle" x="468" y="-181" font-family="Helvetica,sans-Serif" font-size="10.00" fill="#000000"> </text>
<polyline fill="none" stroke="#000000" points="394,-174 542,-174 "/>
<text text-anchor="start" x="402" y="-162" font-family="Helvetica,sans-Serif" font-size="10.00" fill="#000000">+ __init__()</text>
<text text-anchor="start" x="402" y="-151" font-family="Helvetica,sans-Serif" font-size="10.00" fill="#000000">+ LaTeXSolution()</text>
</a>
</g>
</g>
<!-- Node11&#45;&gt;Node12 -->
<g id="edge12" class="edge">
<title>Node11&#45;&gt;Node12</title>
<path fill="none" stroke="#191970" d="M449.8282,-315.8032C454.038,-283.8786 459.6403,-241.3946 463.506,-212.0793"/>
<polygon fill="none" stroke="#191970" points="446.3517,-315.3954 448.5142,-325.7672 453.2916,-316.3106 446.3517,-315.3954"/>
</g>
<!-- Node12&#45;&gt;Node7 -->
<g id="edge13" class="edge">
<title>Node12&#45;&gt;Node7</title>
<path fill="none" stroke="#191970" d="M518.9789,-137.5685C542.0261,-119.2897 569.1691,-97.7624 592.0876,-79.5857"/>
<polygon fill="none" stroke="#191970" points="516.6714,-134.9314 511.0112,-143.8876 521.0211,-140.4159 516.6714,-134.9314"/>
</g>
<!-- Node12&#45;&gt;Node10 -->
<g id="edge14" class="edge">
<title>Node12&#45;&gt;Node10</title>
<path fill="none" stroke="#191970" d="M465.4172,-133.4467C464.4123,-116.112 463.2703,-96.4131 462.2948,-79.5857"/>
<polygon fill="none" stroke="#191970" points="461.9495,-134.107 466.0225,-143.8876 468.9378,-133.7018 461.9495,-134.107"/>
</g>
</g>
</svg>
