<?xml version="1.0" encoding="UTF-8" standalone="no"?>
<!DOCTYPE svg PUBLIC "-//W3C//DTD SVG 1.1//EN"
 "http://www.w3.org/Graphics/SVG/1.1/DTD/svg11.dtd">
<!-- Generated by graphviz version 2.40.1 (20161225.0304)
 -->
<!-- Title: TerminationLPolynomial Pages: 1 -->
<svg width="282pt" height="452pt"
 viewBox="0.00 0.00 282.00 452.00" xmlns="http://www.w3.org/2000/svg" xmlns:xlink="http://www.w3.org/1999/xlink">
<g id="graph0" class="graph" transform="scale(1 1) rotate(0) translate(4 448)">
<title>TerminationLPolynomial</title>
<polygon fill="#ffffff" stroke="transparent" points="-4,4 -4,-448 278,-448 278,4 -4,4"/>
<!-- Node0 -->
<g id="node1" class="node">
<title>Node0</title>
<polygon fill="#bfbfbf" stroke="#000000" points="82.5,-.5 82.5,-79.5 203.5,-79.5 203.5,-.5 82.5,-.5"/>
<text text-anchor="middle" x="143" y="-67.5" font-family="Helvetica,sans-Serif" font-size="10.00" fill="#000000">TerminationLPolynomial</text>
<polyline fill="none" stroke="#000000" points="82.5,-60.5 203.5,-60.5 "/>
<text text-anchor="middle" x="143" y="-48.5" font-family="Helvetica,sans-Serif" font-size="10.00" fill="#000000"> </text>
<polyline fill="none" stroke="#000000" points="82.5,-41.5 203.5,-41.5 "/>
<text text-anchor="start" x="90.5" y="-29.5" font-family="Helvetica,sans-Serif" font-size="10.00" fill="#000000">+ __init__()</text>
<text text-anchor="start" x="90.5" y="-18.5" font-family="Helvetica,sans-Serif" font-size="10.00" fill="#000000">+ PolynomialL()</text>
<text text-anchor="start" x="90.5" y="-7.5" font-family="Helvetica,sans-Serif" font-size="10.00" fill="#000000">+ __getitem__()</text>
</g>
<!-- Node1 -->
<g id="node2" class="node">
<title>Node1</title>
<g id="a_node2"><a xlink:href="classSignalIntegrity_1_1Lib_1_1SParameters_1_1SParameters_1_1SParameters.xhtml" target="_top" xlink:title="Class containing s&#45;parameters. ">
<polygon fill="#ffffff" stroke="#000000" points="0,-116.5 0,-305.5 140,-305.5 140,-116.5 0,-116.5"/>
<text text-anchor="middle" x="70" y="-293.5" font-family="Helvetica,sans-Serif" font-size="10.00" fill="#000000">SParameters</text>
<polyline fill="none" stroke="#000000" points="0,-286.5 140,-286.5 "/>
<text text-anchor="start" x="8" y="-274.5" font-family="Helvetica,sans-Serif" font-size="10.00" fill="#000000">+ m_sToken</text>
<text text-anchor="start" x="8" y="-263.5" font-family="Helvetica,sans-Serif" font-size="10.00" fill="#000000">+ m_d</text>
<text text-anchor="start" x="8" y="-252.5" font-family="Helvetica,sans-Serif" font-size="10.00" fill="#000000">+ m_Z0</text>
<text text-anchor="start" x="8" y="-241.5" font-family="Helvetica,sans-Serif" font-size="10.00" fill="#000000">+ m_f</text>
<text text-anchor="start" x="8" y="-230.5" font-family="Helvetica,sans-Serif" font-size="10.00" fill="#000000">+ m_P</text>
<polyline fill="none" stroke="#000000" points="0,-223.5 140,-223.5 "/>
<text text-anchor="start" x="8" y="-211.5" font-family="Helvetica,sans-Serif" font-size="10.00" fill="#000000">+ __init__()</text>
<text text-anchor="start" x="8" y="-200.5" font-family="Helvetica,sans-Serif" font-size="10.00" fill="#000000">+ __getitem__()</text>
<text text-anchor="start" x="8" y="-189.5" font-family="Helvetica,sans-Serif" font-size="10.00" fill="#000000">+ __len__()</text>
<text text-anchor="start" x="8" y="-178.5" font-family="Helvetica,sans-Serif" font-size="10.00" fill="#000000">+ f()</text>
<text text-anchor="start" x="8" y="-167.5" font-family="Helvetica,sans-Serif" font-size="10.00" fill="#000000">+ Response()</text>
<text text-anchor="start" x="8" y="-156.5" font-family="Helvetica,sans-Serif" font-size="10.00" fill="#000000">+ FrequencyResponse()</text>
<text text-anchor="start" x="8" y="-145.5" font-family="Helvetica,sans-Serif" font-size="10.00" fill="#000000">+ WriteToFile()</text>
<text text-anchor="start" x="8" y="-134.5" font-family="Helvetica,sans-Serif" font-size="10.00" fill="#000000">+ Resample()</text>
<text text-anchor="start" x="8" y="-123.5" font-family="Helvetica,sans-Serif" font-size="10.00" fill="#000000">+ SetReferenceImpedance()</text>
</a>
</g>
</g>
<!-- Node1&#45;&gt;Node0 -->
<g id="edge1" class="edge">
<title>Node1&#45;&gt;Node0</title>
<path fill="none" stroke="#191970" d="M114.3398,-107.1355C118.471,-97.4583 122.4616,-88.1105 126.0861,-79.6203"/>
<polygon fill="none" stroke="#191970" points="111.0506,-105.9261 110.3433,-116.4973 117.4885,-108.6745 111.0506,-105.9261"/>
</g>
<!-- Node2 -->
<g id="node3" class="node">
<title>Node2</title>
<g id="a_node3"><a xlink:href="classSignalIntegrity_1_1Lib_1_1SParameters_1_1SParameterManipulation_1_1SParameterManipulation.xhtml" target="_top" xlink:title="Class for manipulations on s&#45;parameters involving passivity, causality, etc. ">
<polygon fill="#ffffff" stroke="#000000" points="8.5,-342.5 8.5,-443.5 131.5,-443.5 131.5,-342.5 8.5,-342.5"/>
<text text-anchor="middle" x="70" y="-431.5" font-family="Helvetica,sans-Serif" font-size="10.00" fill="#000000">SParameterManipulation</text>
<polyline fill="none" stroke="#000000" points="8.5,-424.5 131.5,-424.5 "/>
<text text-anchor="middle" x="70" y="-412.5" font-family="Helvetica,sans-Serif" font-size="10.00" fill="#000000"> </text>
<polyline fill="none" stroke="#000000" points="8.5,-405.5 131.5,-405.5 "/>
<text text-anchor="start" x="16.5" y="-393.5" font-family="Helvetica,sans-Serif" font-size="10.00" fill="#000000">+ EnforcePassivity()</text>
<text text-anchor="start" x="16.5" y="-382.5" font-family="Helvetica,sans-Serif" font-size="10.00" fill="#000000">+ IsCausal()</text>
<text text-anchor="start" x="16.5" y="-371.5" font-family="Helvetica,sans-Serif" font-size="10.00" fill="#000000">+ EnforceCausality()</text>
<text text-anchor="start" x="16.5" y="-360.5" font-family="Helvetica,sans-Serif" font-size="10.00" fill="#000000">+ WaveletDenoise()</text>
<text text-anchor="start" x="16.5" y="-349.5" font-family="Helvetica,sans-Serif" font-size="10.00" fill="#000000">+ PortReorder()</text>
</a>
</g>
</g>
<!-- Node2&#45;&gt;Node1 -->
<g id="edge2" class="edge">
<title>Node2&#45;&gt;Node1</title>
<path fill="none" stroke="#191970" d="M70,-332.1163C70,-323.584 70,-314.6535 70,-305.6753"/>
<polygon fill="none" stroke="#191970" points="66.5001,-332.3028 70,-342.3029 73.5001,-332.3029 66.5001,-332.3028"/>
</g>
<!-- Node3 -->
<g id="node4" class="node">
<title>Node3</title>
<g id="a_node4"><a xlink:href="classSignalIntegrity_1_1Lib_1_1Measurement_1_1CalKit_1_1Standards_1_1TerminationPolynomial_1_1TerminationPolynomial.xhtml" target="_top" xlink:title="Base class for terminations for calibration standards. ">
<polygon fill="#ffffff" stroke="#000000" points="158,-160.5 158,-261.5 274,-261.5 274,-160.5 158,-160.5"/>
<text text-anchor="middle" x="216" y="-249.5" font-family="Helvetica,sans-Serif" font-size="10.00" fill="#000000">TerminationPolynomial</text>
<polyline fill="none" stroke="#000000" points="158,-242.5 274,-242.5 "/>
<text text-anchor="start" x="166" y="-230.5" font-family="Helvetica,sans-Serif" font-size="10.00" fill="#000000">+ a0</text>
<text text-anchor="start" x="166" y="-219.5" font-family="Helvetica,sans-Serif" font-size="10.00" fill="#000000">+ a1</text>
<text text-anchor="start" x="166" y="-208.5" font-family="Helvetica,sans-Serif" font-size="10.00" fill="#000000">+ a2</text>
<text text-anchor="start" x="166" y="-197.5" font-family="Helvetica,sans-Serif" font-size="10.00" fill="#000000">+ a3</text>
<polyline fill="none" stroke="#000000" points="158,-190.5 274,-190.5 "/>
<text text-anchor="start" x="166" y="-178.5" font-family="Helvetica,sans-Serif" font-size="10.00" fill="#000000">+ __init__()</text>
<text text-anchor="start" x="166" y="-167.5" font-family="Helvetica,sans-Serif" font-size="10.00" fill="#000000">+ Polynomial()</text>
</a>
</g>
</g>
<!-- Node3&#45;&gt;Node0 -->
<g id="edge3" class="edge">
<title>Node3&#45;&gt;Node0</title>
<path fill="none" stroke="#191970" d="M190.3432,-150.8997C180.2365,-127.2253 168.91,-100.6933 159.8702,-79.5178"/>
<polygon fill="none" stroke="#191970" points="187.15,-152.3345 194.2952,-160.1573 193.5879,-149.5861 187.15,-152.3345"/>
</g>
</g>
</svg>
