<?xml version="1.0" encoding="UTF-8" standalone="no"?>
<!DOCTYPE svg PUBLIC "-//W3C//DTD SVG 1.1//EN"
 "http://www.w3.org/Graphics/SVG/1.1/DTD/svg11.dtd">
<!-- Generated by graphviz version 2.43.0 (0)
 -->
<!-- Title: FrequencyList Pages: 1 -->
<svg width="474pt" height="303pt"
 viewBox="0.00 0.00 473.50 303.00" xmlns="http://www.w3.org/2000/svg" xmlns:xlink="http://www.w3.org/1999/xlink">
<g id="graph0" class="graph" transform="scale(1 1) rotate(0) translate(4 299)">
<title>FrequencyList</title>
<polygon fill="white" stroke="transparent" points="-4,4 -4,-299 469.5,-299 469.5,4 -4,4"/>
<!-- Node1 -->
<g id="node1" class="node">
<title>Node1</title>
<g id="a_node1"><a xlink:title="Frequency lists.">
<polygon fill="#bfbfbf" stroke="black" points="154,-94.5 154,-294.5 277,-294.5 277,-94.5 154,-94.5"/>
<text text-anchor="middle" x="215.5" y="-282.5" font-family="Helvetica,sans-Serif" font-size="10.00">FrequencyList</text>
<polyline fill="none" stroke="black" points="154,-275.5 277,-275.5 "/>
<text text-anchor="start" x="162" y="-263.5" font-family="Helvetica,sans-Serif" font-size="10.00">+ N</text>
<text text-anchor="start" x="162" y="-252.5" font-family="Helvetica,sans-Serif" font-size="10.00">+ Fe</text>
<text text-anchor="start" x="162" y="-241.5" font-family="Helvetica,sans-Serif" font-size="10.00">+ m_EvenlySpaced</text>
<polyline fill="none" stroke="black" points="154,-234.5 277,-234.5 "/>
<text text-anchor="start" x="162" y="-222.5" font-family="Helvetica,sans-Serif" font-size="10.00">+ __init__()</text>
<text text-anchor="start" x="162" y="-211.5" font-family="Helvetica,sans-Serif" font-size="10.00">+ SetEvenlySpaced()</text>
<text text-anchor="start" x="162" y="-200.5" font-family="Helvetica,sans-Serif" font-size="10.00">+ SetList()</text>
<text text-anchor="start" x="162" y="-189.5" font-family="Helvetica,sans-Serif" font-size="10.00">+ EvenlySpaced()</text>
<text text-anchor="start" x="162" y="-178.5" font-family="Helvetica,sans-Serif" font-size="10.00">+ Frequencies()</text>
<text text-anchor="start" x="162" y="-167.5" font-family="Helvetica,sans-Serif" font-size="10.00">+ CheckEvenlySpaced()</text>
<text text-anchor="start" x="162" y="-156.5" font-family="Helvetica,sans-Serif" font-size="10.00">+ __div__()</text>
<text text-anchor="start" x="162" y="-145.5" font-family="Helvetica,sans-Serif" font-size="10.00">+ __truediv__()</text>
<text text-anchor="start" x="162" y="-134.5" font-family="Helvetica,sans-Serif" font-size="10.00">+ __mul__()</text>
<text text-anchor="start" x="162" y="-123.5" font-family="Helvetica,sans-Serif" font-size="10.00">+ TimeDescriptor()</text>
<text text-anchor="start" x="162" y="-112.5" font-family="Helvetica,sans-Serif" font-size="10.00">+ __eq__()</text>
<text text-anchor="start" x="162" y="-101.5" font-family="Helvetica,sans-Serif" font-size="10.00">+ __ne__()</text>
</a>
</g>
</g>
<!-- Node2 -->
<g id="node2" class="node">
<title>Node2</title>
<g id="a_node2"><a xlink:href="classSignalIntegrity_1_1Lib_1_1FrequencyDomain_1_1FrequencyList_1_1EvenlySpacedFrequencyList.xhtml" target="_top" xlink:title="A evenly spaced list of frequencies.">
<polygon fill="white" stroke="black" points="0,-0.5 0,-57.5 141,-57.5 141,-0.5 0,-0.5"/>
<text text-anchor="middle" x="70.5" y="-45.5" font-family="Helvetica,sans-Serif" font-size="10.00">EvenlySpacedFrequencyList</text>
<polyline fill="none" stroke="black" points="0,-38.5 141,-38.5 "/>
<text text-anchor="middle" x="70.5" y="-26.5" font-family="Helvetica,sans-Serif" font-size="10.00"> </text>
<polyline fill="none" stroke="black" points="0,-19.5 141,-19.5 "/>
<text text-anchor="start" x="8" y="-7.5" font-family="Helvetica,sans-Serif" font-size="10.00">+ __init__()</text>
</a>
</g>
</g>
<!-- Node1&#45;&gt;Node2 -->
<g id="edge1" class="edge">
<title>Node1&#45;&gt;Node2</title>
<path fill="none" stroke="midnightblue" d="M146.78,-116.02C128.26,-95.13 109.4,-73.86 95.07,-57.7"/>
<polygon fill="none" stroke="midnightblue" points="144.33,-118.53 153.59,-123.69 149.57,-113.88 144.33,-118.53"/>
</g>
<!-- Node3 -->
<g id="node3" class="node">
<title>Node3</title>
<g id="a_node3"><a xlink:href="classSignalIntegrity_1_1Lib_1_1FrequencyDomain_1_1FrequencyList_1_1GenericFrequencyList.xhtml" target="_top" xlink:title="A generic list of frequencies assumed to be not evenly spaced.">
<polygon fill="white" stroke="black" points="159.5,-0.5 159.5,-57.5 271.5,-57.5 271.5,-0.5 159.5,-0.5"/>
<text text-anchor="middle" x="215.5" y="-45.5" font-family="Helvetica,sans-Serif" font-size="10.00">GenericFrequencyList</text>
<polyline fill="none" stroke="black" points="159.5,-38.5 271.5,-38.5 "/>
<text text-anchor="middle" x="215.5" y="-26.5" font-family="Helvetica,sans-Serif" font-size="10.00"> </text>
<polyline fill="none" stroke="black" points="159.5,-19.5 271.5,-19.5 "/>
<text text-anchor="start" x="167.5" y="-7.5" font-family="Helvetica,sans-Serif" font-size="10.00">+ __init__()</text>
</a>
</g>
</g>
<!-- Node1&#45;&gt;Node3 -->
<g id="edge2" class="edge">
<title>Node1&#45;&gt;Node3</title>
<path fill="none" stroke="midnightblue" d="M215.5,-83.96C215.5,-74.37 215.5,-65.35 215.5,-57.53"/>
<polygon fill="none" stroke="midnightblue" points="212,-84.15 215.5,-94.15 219,-84.15 212,-84.15"/>
</g>
<!-- Node4 -->
<g id="node4" class="node">
<title>Node4</title>
<g id="a_node4"><a xlink:href="classSignalIntegrity_1_1Lib_1_1FrequencyDomain_1_1FrequencyList_1_1LogarithmicallySpacedFrequencyList.xhtml" target="_top" xlink:title="a logarithmically spaced frequency list">
<polygon fill="white" stroke="black" points="289.5,-0.5 289.5,-57.5 465.5,-57.5 465.5,-0.5 289.5,-0.5"/>
<text text-anchor="middle" x="377.5" y="-45.5" font-family="Helvetica,sans-Serif" font-size="10.00">LogarithmicallySpacedFrequencyList</text>
<polyline fill="none" stroke="black" points="289.5,-38.5 465.5,-38.5 "/>
<text text-anchor="middle" x="377.5" y="-26.5" font-family="Helvetica,sans-Serif" font-size="10.00"> </text>
<polyline fill="none" stroke="black" points="289.5,-19.5 465.5,-19.5 "/>
<text text-anchor="start" x="297.5" y="-7.5" font-family="Helvetica,sans-Serif" font-size="10.00">+ __init__()</text>
</a>
</g>
</g>
<!-- Node1&#45;&gt;Node4 -->
<g id="edge3" class="edge">
<title>Node1&#45;&gt;Node4</title>
<path fill="none" stroke="midnightblue" d="M284.36,-124C307.58,-100.57 332.16,-75.76 350.23,-57.52"/>
<polygon fill="none" stroke="midnightblue" points="281.76,-121.65 277.21,-131.22 286.73,-126.58 281.76,-121.65"/>
</g>
</g>
</svg>
