<?xml version="1.0" encoding="UTF-8" standalone="no"?>
<!DOCTYPE svg PUBLIC "-//W3C//DTD SVG 1.1//EN"
 "http://www.w3.org/Graphics/SVG/1.1/DTD/svg11.dtd">
<!-- Generated by graphviz version 2.43.0 (0)
 -->
<!-- Title: CalibrationParser Pages: 1 -->
<svg width="214pt" height="601pt"
 viewBox="0.00 0.00 214.00 601.00" xmlns="http://www.w3.org/2000/svg" xmlns:xlink="http://www.w3.org/1999/xlink">
<g id="graph0" class="graph" transform="scale(1 1) rotate(0) translate(4 597)">
<title>CalibrationParser</title>
<polygon fill="white" stroke="transparent" points="-4,4 -4,-597 210,-597 210,4 -4,4"/>
<!-- Node1 -->
<g id="node1" class="node">
<title>Node1</title>
<g id="a_node1"><a xlink:title="base class for netlist based error terms solutions">
<polygon fill="#bfbfbf" stroke="black" points="23.5,-105.5 23.5,-206.5 168.5,-206.5 168.5,-105.5 23.5,-105.5"/>
<text text-anchor="middle" x="96" y="-194.5" font-family="Helvetica,sans-Serif" font-size="10.00">CalibrationParser</text>
<polyline fill="none" stroke="black" points="23.5,-187.5 168.5,-187.5 "/>
<text text-anchor="start" x="31.5" y="-175.5" font-family="Helvetica,sans-Serif" font-size="10.00">+ ports</text>
<text text-anchor="start" x="31.5" y="-164.5" font-family="Helvetica,sans-Serif" font-size="10.00">+ calibrationMeasurementList</text>
<text text-anchor="start" x="31.5" y="-153.5" font-family="Helvetica,sans-Serif" font-size="10.00">+ m_spc</text>
<text text-anchor="start" x="31.5" y="-142.5" font-family="Helvetica,sans-Serif" font-size="10.00">+ m_ul</text>
<text text-anchor="start" x="31.5" y="-131.5" font-family="Helvetica,sans-Serif" font-size="10.00">+ calibration</text>
<polyline fill="none" stroke="black" points="23.5,-124.5 168.5,-124.5 "/>
<text text-anchor="start" x="31.5" y="-112.5" font-family="Helvetica,sans-Serif" font-size="10.00">+ __init__()</text>
</a>
</g>
</g>
<!-- Node5 -->
<g id="node5" class="node">
<title>Node5</title>
<g id="a_node5"><a xlink:href="classSignalIntegrity_1_1Lib_1_1Parsers_1_1CalibrationNumericParser_1_1CalibrationNumericParser.xhtml" target="_top" xlink:title="generates a calibration from a netlist">
<polygon fill="white" stroke="black" points="32,-0.5 32,-68.5 160,-68.5 160,-0.5 32,-0.5"/>
<text text-anchor="middle" x="96" y="-56.5" font-family="Helvetica,sans-Serif" font-size="10.00">CalibrationNumericParser</text>
<polyline fill="none" stroke="black" points="32,-49.5 160,-49.5 "/>
<text text-anchor="start" x="40" y="-37.5" font-family="Helvetica,sans-Serif" font-size="10.00">+ calibration</text>
<polyline fill="none" stroke="black" points="32,-30.5 160,-30.5 "/>
<text text-anchor="start" x="40" y="-18.5" font-family="Helvetica,sans-Serif" font-size="10.00">+ __init__()</text>
<text text-anchor="start" x="40" y="-7.5" font-family="Helvetica,sans-Serif" font-size="10.00">+ CalculateCalibration()</text>
</a>
</g>
</g>
<!-- Node1&#45;&gt;Node5 -->
<g id="edge4" class="edge">
<title>Node1&#45;&gt;Node5</title>
<path fill="none" stroke="midnightblue" d="M96,-95.17C96,-86.11 96,-77.05 96,-68.83"/>
<polygon fill="none" stroke="midnightblue" points="92.5,-95.36 96,-105.36 99.5,-95.36 92.5,-95.36"/>
</g>
<!-- Node2 -->
<g id="node2" class="node">
<title>Node2</title>
<g id="a_node2"><a xlink:href="classSignalIntegrity_1_1Lib_1_1Parsers_1_1SystemDescriptionParser_1_1SystemDescriptionParser.xhtml" target="_top" xlink:title="Parses netlists and produces system descriptions.">
<polygon fill="white" stroke="black" points="32,-243.5 32,-465.5 160,-465.5 160,-243.5 32,-243.5"/>
<text text-anchor="middle" x="96" y="-453.5" font-family="Helvetica,sans-Serif" font-size="10.00">SystemDescriptionParser</text>
<polyline fill="none" stroke="black" points="32,-446.5 160,-446.5 "/>
<text text-anchor="start" x="40" y="-434.5" font-family="Helvetica,sans-Serif" font-size="10.00">+ m_sd</text>
<text text-anchor="start" x="40" y="-423.5" font-family="Helvetica,sans-Serif" font-size="10.00">+ m_f</text>
<text text-anchor="start" x="40" y="-412.5" font-family="Helvetica,sans-Serif" font-size="10.00">+ m_lines</text>
<text text-anchor="start" x="40" y="-401.5" font-family="Helvetica,sans-Serif" font-size="10.00">+ m_addThru</text>
<text text-anchor="start" x="40" y="-390.5" font-family="Helvetica,sans-Serif" font-size="10.00">+ known</text>
<text text-anchor="start" x="40" y="-379.5" font-family="Helvetica,sans-Serif" font-size="10.00">+ callback</text>
<text text-anchor="start" x="40" y="-368.5" font-family="Helvetica,sans-Serif" font-size="10.00">+ m_Z0</text>
<text text-anchor="start" x="40" y="-357.5" font-family="Helvetica,sans-Serif" font-size="10.00">+ delayDict</text>
<text text-anchor="start" x="40" y="-346.5" font-family="Helvetica,sans-Serif" font-size="10.00">+ m_spc</text>
<text text-anchor="start" x="40" y="-335.5" font-family="Helvetica,sans-Serif" font-size="10.00">+ m_spcl</text>
<text text-anchor="start" x="40" y="-324.5" font-family="Helvetica,sans-Serif" font-size="10.00">+ m_ul</text>
<text text-anchor="start" x="40" y="-313.5" font-family="Helvetica,sans-Serif" font-size="10.00">+ MultiPortTee</text>
<polyline fill="none" stroke="black" points="32,-306.5 160,-306.5 "/>
<text text-anchor="start" x="40" y="-294.5" font-family="Helvetica,sans-Serif" font-size="10.00">+ __init__()</text>
<text text-anchor="start" x="40" y="-283.5" font-family="Helvetica,sans-Serif" font-size="10.00">+ SystemDescription()</text>
<text text-anchor="start" x="40" y="-272.5" font-family="Helvetica,sans-Serif" font-size="10.00">+ AddKnownDevices()</text>
<text text-anchor="start" x="40" y="-261.5" font-family="Helvetica,sans-Serif" font-size="10.00">+ AddLine()</text>
<text text-anchor="start" x="40" y="-250.5" font-family="Helvetica,sans-Serif" font-size="10.00">+ AddLines()</text>
</a>
</g>
</g>
<!-- Node2&#45;&gt;Node1 -->
<g id="edge1" class="edge">
<title>Node2&#45;&gt;Node1</title>
<path fill="none" stroke="midnightblue" d="M96,-233.34C96,-224.09 96,-215.11 96,-206.76"/>
<polygon fill="none" stroke="midnightblue" points="92.5,-233.47 96,-243.47 99.5,-233.47 92.5,-233.47"/>
</g>
<!-- Node3 -->
<g id="node3" class="node">
<title>Node3</title>
<g id="a_node3"><a xlink:href="classSignalIntegrity_1_1Lib_1_1Parsers_1_1ParserFile_1_1ParserFile.xhtml" target="_top" xlink:title="file handling base class for parsers">
<polygon fill="white" stroke="black" points="0,-513.5 0,-581.5 80,-581.5 80,-513.5 0,-513.5"/>
<text text-anchor="middle" x="40" y="-569.5" font-family="Helvetica,sans-Serif" font-size="10.00">ParserFile</text>
<polyline fill="none" stroke="black" points="0,-562.5 80,-562.5 "/>
<text text-anchor="middle" x="40" y="-550.5" font-family="Helvetica,sans-Serif" font-size="10.00"> </text>
<polyline fill="none" stroke="black" points="0,-543.5 80,-543.5 "/>
<text text-anchor="start" x="8" y="-531.5" font-family="Helvetica,sans-Serif" font-size="10.00">+ File()</text>
<text text-anchor="start" x="8" y="-520.5" font-family="Helvetica,sans-Serif" font-size="10.00">+ WriteToFile()</text>
</a>
</g>
</g>
<!-- Node3&#45;&gt;Node2 -->
<g id="edge2" class="edge">
<title>Node3&#45;&gt;Node2</title>
<path fill="none" stroke="midnightblue" d="M52.59,-503.57C55.94,-492.13 59.73,-479.21 63.63,-465.91"/>
<polygon fill="none" stroke="midnightblue" points="49.21,-502.65 49.75,-513.23 55.93,-504.62 49.21,-502.65"/>
</g>
<!-- Node4 -->
<g id="node4" class="node">
<title>Node4</title>
<g id="a_node4"><a xlink:href="classSignalIntegrity_1_1Lib_1_1Parsers_1_1ParserArgs_1_1ParserArgs.xhtml" target="_top" xlink:title="argument handling base class for parsers">
<polygon fill="white" stroke="black" points="98,-502.5 98,-592.5 206,-592.5 206,-502.5 98,-502.5"/>
<text text-anchor="middle" x="152" y="-580.5" font-family="Helvetica,sans-Serif" font-size="10.00">ParserArgs</text>
<polyline fill="none" stroke="black" points="98,-573.5 206,-573.5 "/>
<text text-anchor="start" x="106" y="-561.5" font-family="Helvetica,sans-Serif" font-size="10.00">+ m_vars</text>
<text text-anchor="start" x="106" y="-550.5" font-family="Helvetica,sans-Serif" font-size="10.00">+ m_args</text>
<polyline fill="none" stroke="black" points="98,-543.5 206,-543.5 "/>
<text text-anchor="start" x="106" y="-531.5" font-family="Helvetica,sans-Serif" font-size="10.00">+ AssignArguments()</text>
<text text-anchor="start" x="106" y="-520.5" font-family="Helvetica,sans-Serif" font-size="10.00">+ ReplaceArgs()</text>
<text text-anchor="start" x="106" y="-509.5" font-family="Helvetica,sans-Serif" font-size="10.00">+ ProcessVariables()</text>
</a>
</g>
</g>
<!-- Node4&#45;&gt;Node2 -->
<g id="edge3" class="edge">
<title>Node4&#45;&gt;Node2</title>
<path fill="none" stroke="midnightblue" d="M136.17,-492.52C133.69,-484.04 131.04,-475.02 128.34,-465.81"/>
<polygon fill="none" stroke="midnightblue" points="132.84,-493.59 139.01,-502.2 139.56,-491.62 132.84,-493.59"/>
</g>
</g>
</svg>
