<?xml version="1.0" encoding="UTF-8" standalone="no"?>
<!DOCTYPE svg PUBLIC "-//W3C//DTD SVG 1.1//EN"
 "http://www.w3.org/Graphics/SVG/1.1/DTD/svg11.dtd">
<!-- Generated by graphviz version 2.43.0 (0)
 -->
<!-- Title: Waveform Pages: 1 -->
<svg width="1026pt" height="441pt"
 viewBox="0.00 0.00 1026.00 441.00" xmlns="http://www.w3.org/2000/svg" xmlns:xlink="http://www.w3.org/1999/xlink">
<g id="graph0" class="graph" transform="scale(1 1) rotate(0) translate(4 437)">
<title>Waveform</title>
<polygon fill="white" stroke="transparent" points="-4,4 -4,-437 1022,-437 1022,4 -4,4"/>
<!-- Node1 -->
<g id="node1" class="node">
<title>Node1</title>
<g id="a_node1"><a xlink:title="base class for all waveforms">
<polygon fill="#bfbfbf" stroke="black" points="521.5,-243.5 521.5,-432.5 633.5,-432.5 633.5,-243.5 521.5,-243.5"/>
<text text-anchor="middle" x="577.5" y="-420.5" font-family="Helvetica,sans-Serif" font-size="10.00">Waveform</text>
<polyline fill="none" stroke="black" points="521.5,-413.5 633.5,-413.5 "/>
<text text-anchor="start" x="529.5" y="-401.5" font-family="Helvetica,sans-Serif" font-size="10.00">+ td</text>
<text text-anchor="start" x="529.5" y="-390.5" font-family="Helvetica,sans-Serif" font-size="10.00">+ adaptionStrategy</text>
<text text-anchor="start" x="529.5" y="-379.5" font-family="Helvetica,sans-Serif" font-size="10.00">+ epsilon</text>
<polyline fill="none" stroke="black" points="521.5,-372.5 633.5,-372.5 "/>
<text text-anchor="start" x="529.5" y="-360.5" font-family="Helvetica,sans-Serif" font-size="10.00">+ __init__()</text>
<text text-anchor="start" x="529.5" y="-349.5" font-family="Helvetica,sans-Serif" font-size="10.00">+ Times()</text>
<text text-anchor="start" x="529.5" y="-338.5" font-family="Helvetica,sans-Serif" font-size="10.00">+ TimeDescriptor()</text>
<text text-anchor="start" x="529.5" y="-327.5" font-family="Helvetica,sans-Serif" font-size="10.00">+ Values()</text>
<text text-anchor="start" x="529.5" y="-316.5" font-family="Helvetica,sans-Serif" font-size="10.00">+ OffsetBy()</text>
<text text-anchor="start" x="529.5" y="-305.5" font-family="Helvetica,sans-Serif" font-size="10.00">+ DelayBy()</text>
<text text-anchor="start" x="529.5" y="-294.5" font-family="Helvetica,sans-Serif" font-size="10.00">+ __add__()</text>
<text text-anchor="start" x="529.5" y="-283.5" font-family="Helvetica,sans-Serif" font-size="10.00">+ __sub__()</text>
<text text-anchor="start" x="529.5" y="-272.5" font-family="Helvetica,sans-Serif" font-size="10.00">+ __radd__()</text>
<text text-anchor="start" x="529.5" y="-261.5" font-family="Helvetica,sans-Serif" font-size="10.00">+ __mul__()</text>
<text text-anchor="start" x="529.5" y="-250.5" font-family="Helvetica,sans-Serif" font-size="10.00">and 11 more...</text>
</a>
</g>
</g>
<!-- Node2 -->
<g id="node2" class="node">
<title>Node2</title>
<g id="a_node2"><a xlink:href="classSignalIntegrity_1_1Lib_1_1ImpedanceProfile_1_1ImpedanceProfileWaveform_1_1ImpedanceProfileWaveform.xhtml" target="_top" xlink:title="Computes the impedance profile waveform from a set of s&#45;parameters using the port specified.">
<polygon fill="white" stroke="black" points="0,-116.5 0,-184.5 153,-184.5 153,-116.5 0,-116.5"/>
<text text-anchor="middle" x="76.5" y="-172.5" font-family="Helvetica,sans-Serif" font-size="10.00">ImpedanceProfileWaveform</text>
<polyline fill="none" stroke="black" points="0,-165.5 153,-165.5 "/>
<text text-anchor="start" x="8" y="-153.5" font-family="Helvetica,sans-Serif" font-size="10.00">+ rhoLimit</text>
<text text-anchor="start" x="8" y="-142.5" font-family="Helvetica,sans-Serif" font-size="10.00">+ ZLimit</text>
<polyline fill="none" stroke="black" points="0,-135.5 153,-135.5 "/>
<text text-anchor="start" x="8" y="-123.5" font-family="Helvetica,sans-Serif" font-size="10.00">+ __init__()</text>
</a>
</g>
</g>
<!-- Node1&#45;&gt;Node2 -->
<g id="edge1" class="edge">
<title>Node1&#45;&gt;Node2</title>
<path fill="none" stroke="midnightblue" d="M511.26,-322.3C427.38,-302.34 279.55,-262.67 161.5,-207 148.27,-200.76 134.68,-192.73 122.36,-184.73"/>
<polygon fill="none" stroke="midnightblue" points="510.63,-325.74 521.17,-324.63 512.24,-318.93 510.63,-325.74"/>
</g>
<!-- Node3 -->
<g id="node3" class="node">
<title>Node3</title>
<g id="a_node3"><a xlink:href="classSignalIntegrity_1_1Lib_1_1Prbs_1_1MultiLevelWaveform_1_1MultiLevelWaveform.xhtml" target="_top" xlink:title="a PRBS multi&#45;level waveform with a given PRBS polynomial">
<polygon fill="white" stroke="black" points="171,-122 171,-179 290,-179 290,-122 171,-122"/>
<text text-anchor="middle" x="230.5" y="-167" font-family="Helvetica,sans-Serif" font-size="10.00">MultiLevelWaveform</text>
<polyline fill="none" stroke="black" points="171,-160 290,-160 "/>
<text text-anchor="middle" x="230.5" y="-148" font-family="Helvetica,sans-Serif" font-size="10.00"> </text>
<polyline fill="none" stroke="black" points="171,-141 290,-141 "/>
<text text-anchor="start" x="179" y="-129" font-family="Helvetica,sans-Serif" font-size="10.00">+ __init__()</text>
</a>
</g>
</g>
<!-- Node1&#45;&gt;Node3 -->
<g id="edge2" class="edge">
<title>Node1&#45;&gt;Node3</title>
<path fill="none" stroke="midnightblue" d="M512.01,-311.63C454.18,-288.01 368.56,-250.05 299.5,-207 286.45,-198.87 273.07,-188.62 261.61,-179.15"/>
<polygon fill="none" stroke="midnightblue" points="510.82,-314.92 521.41,-315.43 513.45,-308.43 510.82,-314.92"/>
</g>
<!-- Node4 -->
<g id="node4" class="node">
<title>Node4</title>
<g id="a_node4"><a xlink:href="classSignalIntegrity_1_1Lib_1_1Prbs_1_1SerialDataWaveform_1_1SerialDataWaveform.xhtml" target="_top" xlink:title="a serial data NRZ waveform">
<polygon fill="white" stroke="black" points="308,-116.5 308,-184.5 427,-184.5 427,-116.5 308,-116.5"/>
<text text-anchor="middle" x="367.5" y="-172.5" font-family="Helvetica,sans-Serif" font-size="10.00">SerialDataWaveform</text>
<polyline fill="none" stroke="black" points="308,-165.5 427,-165.5 "/>
<text text-anchor="start" x="316" y="-153.5" font-family="Helvetica,sans-Serif" font-size="10.00">+ rtvsT</text>
<polyline fill="none" stroke="black" points="308,-146.5 427,-146.5 "/>
<text text-anchor="start" x="316" y="-134.5" font-family="Helvetica,sans-Serif" font-size="10.00">+ __init__()</text>
<text text-anchor="start" x="316" y="-123.5" font-family="Helvetica,sans-Serif" font-size="10.00">+ TimeDescriptor()</text>
</a>
</g>
</g>
<!-- Node1&#45;&gt;Node4 -->
<g id="edge3" class="edge">
<title>Node1&#45;&gt;Node4</title>
<path fill="none" stroke="midnightblue" d="M513.59,-280.55C478.12,-249.22 435.23,-211.33 405.13,-184.74"/>
<polygon fill="none" stroke="midnightblue" points="511.69,-283.54 521.5,-287.53 516.32,-278.29 511.69,-283.54"/>
</g>
<!-- Node7 -->
<g id="node7" class="node">
<title>Node7</title>
<g id="a_node7"><a xlink:href="classSignalIntegrity_1_1Lib_1_1TimeDomain_1_1Waveform_1_1ImpulseResponse_1_1ImpulseResponse.xhtml" target="_top" xlink:title="impulse response of a filter as a waveform">
<polygon fill="white" stroke="black" points="445,-94.5 445,-206.5 578,-206.5 578,-94.5 445,-94.5"/>
<text text-anchor="middle" x="511.5" y="-194.5" font-family="Helvetica,sans-Serif" font-size="10.00">ImpulseResponse</text>
<polyline fill="none" stroke="black" points="445,-187.5 578,-187.5 "/>
<text text-anchor="middle" x="511.5" y="-175.5" font-family="Helvetica,sans-Serif" font-size="10.00"> </text>
<polyline fill="none" stroke="black" points="445,-168.5 578,-168.5 "/>
<text text-anchor="start" x="453" y="-156.5" font-family="Helvetica,sans-Serif" font-size="10.00">+ __init__()</text>
<text text-anchor="start" x="453" y="-145.5" font-family="Helvetica,sans-Serif" font-size="10.00">+ DelayBy()</text>
<text text-anchor="start" x="453" y="-134.5" font-family="Helvetica,sans-Serif" font-size="10.00">+ FrequencyResponse()</text>
<text text-anchor="start" x="453" y="-123.5" font-family="Helvetica,sans-Serif" font-size="10.00">+ Resample()</text>
<text text-anchor="start" x="453" y="-112.5" font-family="Helvetica,sans-Serif" font-size="10.00">+ TrimToThreshold()</text>
<text text-anchor="start" x="453" y="-101.5" font-family="Helvetica,sans-Serif" font-size="10.00">+ FirFilter()</text>
</a>
</g>
</g>
<!-- Node1&#45;&gt;Node7 -->
<g id="edge6" class="edge">
<title>Node1&#45;&gt;Node7</title>
<path fill="none" stroke="midnightblue" d="M540.85,-234C537.51,-224.6 534.21,-215.33 531.11,-206.61"/>
<polygon fill="none" stroke="midnightblue" points="537.56,-235.19 544.21,-243.43 544.16,-232.84 537.56,-235.19"/>
</g>
<!-- Node8 -->
<g id="node8" class="node">
<title>Node8</title>
<g id="a_node8"><a xlink:href="classSignalIntegrity_1_1Lib_1_1TimeDomain_1_1Waveform_1_1NoiseWaveform_1_1NoiseWaveform.xhtml" target="_top" xlink:title="noise waveform">
<polygon fill="white" stroke="black" points="596,-122 596,-179 691,-179 691,-122 596,-122"/>
<text text-anchor="middle" x="643.5" y="-167" font-family="Helvetica,sans-Serif" font-size="10.00">NoiseWaveform</text>
<polyline fill="none" stroke="black" points="596,-160 691,-160 "/>
<text text-anchor="middle" x="643.5" y="-148" font-family="Helvetica,sans-Serif" font-size="10.00"> </text>
<polyline fill="none" stroke="black" points="596,-141 691,-141 "/>
<text text-anchor="start" x="604" y="-129" font-family="Helvetica,sans-Serif" font-size="10.00">+ __init__()</text>
</a>
</g>
</g>
<!-- Node1&#45;&gt;Node8 -->
<g id="edge7" class="edge">
<title>Node1&#45;&gt;Node8</title>
<path fill="none" stroke="midnightblue" d="M614.2,-233.85C621.35,-213.75 628.27,-194.32 633.58,-179.38"/>
<polygon fill="none" stroke="midnightblue" points="610.84,-232.84 610.79,-243.43 617.44,-235.19 610.84,-232.84"/>
</g>
<!-- Node9 -->
<g id="node9" class="node">
<title>Node9</title>
<g id="a_node9"><a xlink:href="classSignalIntegrity_1_1Lib_1_1TimeDomain_1_1Waveform_1_1PulseWaveform_1_1PulseWaveform.xhtml" target="_top" xlink:title="pulse waveform">
<polygon fill="white" stroke="black" points="709.5,-122 709.5,-179 803.5,-179 803.5,-122 709.5,-122"/>
<text text-anchor="middle" x="756.5" y="-167" font-family="Helvetica,sans-Serif" font-size="10.00">PulseWaveform</text>
<polyline fill="none" stroke="black" points="709.5,-160 803.5,-160 "/>
<text text-anchor="middle" x="756.5" y="-148" font-family="Helvetica,sans-Serif" font-size="10.00"> </text>
<polyline fill="none" stroke="black" points="709.5,-141 803.5,-141 "/>
<text text-anchor="start" x="717.5" y="-129" font-family="Helvetica,sans-Serif" font-size="10.00">+ __init__()</text>
</a>
</g>
</g>
<!-- Node1&#45;&gt;Node9 -->
<g id="edge8" class="edge">
<title>Node1&#45;&gt;Node9</title>
<path fill="none" stroke="midnightblue" d="M640.87,-271.33C671.29,-239.8 706.13,-203.69 729.55,-179.43"/>
<polygon fill="none" stroke="midnightblue" points="638.07,-269.19 633.65,-278.82 643.11,-274.05 638.07,-269.19"/>
</g>
<!-- Node10 -->
<g id="node10" class="node">
<title>Node10</title>
<g id="a_node10"><a xlink:href="classSignalIntegrity_1_1Lib_1_1TimeDomain_1_1Waveform_1_1SineWaveform_1_1SineWaveform.xhtml" target="_top" xlink:title="sinewave waveform">
<polygon fill="white" stroke="black" points="822,-122 822,-179 911,-179 911,-122 822,-122"/>
<text text-anchor="middle" x="866.5" y="-167" font-family="Helvetica,sans-Serif" font-size="10.00">SineWaveform</text>
<polyline fill="none" stroke="black" points="822,-160 911,-160 "/>
<text text-anchor="middle" x="866.5" y="-148" font-family="Helvetica,sans-Serif" font-size="10.00"> </text>
<polyline fill="none" stroke="black" points="822,-141 911,-141 "/>
<text text-anchor="start" x="830" y="-129" font-family="Helvetica,sans-Serif" font-size="10.00">+ __init__()</text>
</a>
</g>
</g>
<!-- Node1&#45;&gt;Node10 -->
<g id="edge9" class="edge">
<title>Node1&#45;&gt;Node10</title>
<path fill="none" stroke="midnightblue" d="M643.19,-307.16C692.14,-283.42 759.41,-247.54 812.5,-207 823.18,-198.84 833.76,-188.59 842.68,-179.12"/>
<polygon fill="none" stroke="midnightblue" points="641.46,-304.11 633.97,-311.6 644.5,-310.42 641.46,-304.11"/>
</g>
<!-- Node11 -->
<g id="node11" class="node">
<title>Node11</title>
<g id="a_node11"><a xlink:href="classSignalIntegrity_1_1Lib_1_1TimeDomain_1_1Waveform_1_1StepWaveform_1_1StepWaveform.xhtml" target="_top" xlink:title="step waveform">
<polygon fill="white" stroke="black" points="929,-122 929,-179 1018,-179 1018,-122 929,-122"/>
<text text-anchor="middle" x="973.5" y="-167" font-family="Helvetica,sans-Serif" font-size="10.00">StepWaveform</text>
<polyline fill="none" stroke="black" points="929,-160 1018,-160 "/>
<text text-anchor="start" x="937" y="-148" font-family="Helvetica,sans-Serif" font-size="10.00">+ rtvsT</text>
<polyline fill="none" stroke="black" points="929,-141 1018,-141 "/>
<text text-anchor="start" x="937" y="-129" font-family="Helvetica,sans-Serif" font-size="10.00">+ __init__()</text>
</a>
</g>
</g>
<!-- Node1&#45;&gt;Node11 -->
<g id="edge10" class="edge">
<title>Node1&#45;&gt;Node11</title>
<path fill="none" stroke="midnightblue" d="M643.52,-321.4C715.76,-302.27 832.92,-265.05 920.5,-207 931.94,-199.42 942.75,-188.95 951.59,-179.15"/>
<polygon fill="none" stroke="midnightblue" points="642.43,-318.07 633.64,-323.98 644.2,-324.84 642.43,-318.07"/>
</g>
<!-- Node5 -->
<g id="node5" class="node">
<title>Node5</title>
<g id="a_node5"><a xlink:href="classSignalIntegrity_1_1Lib_1_1Prbs_1_1ClockWaveform_1_1ClockWaveform.xhtml" target="_top" xlink:title="a clock waveform">
<polygon fill="white" stroke="black" points="251,-0.5 251,-57.5 346,-57.5 346,-0.5 251,-0.5"/>
<text text-anchor="middle" x="298.5" y="-45.5" font-family="Helvetica,sans-Serif" font-size="10.00">ClockWaveform</text>
<polyline fill="none" stroke="black" points="251,-38.5 346,-38.5 "/>
<text text-anchor="middle" x="298.5" y="-26.5" font-family="Helvetica,sans-Serif" font-size="10.00"> </text>
<polyline fill="none" stroke="black" points="251,-19.5 346,-19.5 "/>
<text text-anchor="start" x="259" y="-7.5" font-family="Helvetica,sans-Serif" font-size="10.00">+ __init__()</text>
</a>
</g>
</g>
<!-- Node4&#45;&gt;Node5 -->
<g id="edge4" class="edge">
<title>Node4&#45;&gt;Node5</title>
<path fill="none" stroke="midnightblue" d="M343.15,-107.33C333.68,-90.92 323.08,-72.57 314.59,-57.86"/>
<polygon fill="none" stroke="midnightblue" points="340.25,-109.3 348.28,-116.21 346.31,-105.8 340.25,-109.3"/>
</g>
<!-- Node6 -->
<g id="node6" class="node">
<title>Node6</title>
<g id="a_node6"><a xlink:href="classSignalIntegrity_1_1Lib_1_1Prbs_1_1PseudoRandomWaveform_1_1PseudoRandomWaveform.xhtml" target="_top" xlink:title="a PRBS waveform with a given PRBS polynomial">
<polygon fill="white" stroke="black" points="364,-0.5 364,-57.5 507,-57.5 507,-0.5 364,-0.5"/>
<text text-anchor="middle" x="435.5" y="-45.5" font-family="Helvetica,sans-Serif" font-size="10.00">PseudoRandomWaveform</text>
<polyline fill="none" stroke="black" points="364,-38.5 507,-38.5 "/>
<text text-anchor="middle" x="435.5" y="-26.5" font-family="Helvetica,sans-Serif" font-size="10.00"> </text>
<polyline fill="none" stroke="black" points="364,-19.5 507,-19.5 "/>
<text text-anchor="start" x="372" y="-7.5" font-family="Helvetica,sans-Serif" font-size="10.00">+ __init__()</text>
</a>
</g>
</g>
<!-- Node4&#45;&gt;Node6 -->
<g id="edge5" class="edge">
<title>Node4&#45;&gt;Node6</title>
<path fill="none" stroke="midnightblue" d="M391.5,-107.33C400.83,-90.92 411.28,-72.57 419.65,-57.86"/>
<polygon fill="none" stroke="midnightblue" points="388.35,-105.79 386.44,-116.21 394.43,-109.25 388.35,-105.79"/>
</g>
</g>
</svg>
