<?xml version="1.0" encoding="UTF-8" standalone="no"?>
<!DOCTYPE svg PUBLIC "-//W3C//DTD SVG 1.1//EN"
 "http://www.w3.org/Graphics/SVG/1.1/DTD/svg11.dtd">
<!-- Generated by graphviz version 2.40.1 (20161225.0304)
 -->
<!-- Title: LoadStandard Pages: 1 -->
<svg width="148pt" height="430pt"
 viewBox="0.00 0.00 148.00 430.00" xmlns="http://www.w3.org/2000/svg" xmlns:xlink="http://www.w3.org/1999/xlink">
<g id="graph0" class="graph" transform="scale(1 1) rotate(0) translate(4 426)">
<title>LoadStandard</title>
<polygon fill="#ffffff" stroke="transparent" points="-4,4 -4,-426 144,-426 144,4 -4,4"/>
<!-- Node0 -->
<g id="node1" class="node">
<title>Node0</title>
<polygon fill="#bfbfbf" stroke="#000000" points="31.5,-.5 31.5,-57.5 108.5,-57.5 108.5,-.5 31.5,-.5"/>
<text text-anchor="middle" x="70" y="-45.5" font-family="Helvetica,sans-Serif" font-size="10.00" fill="#000000">LoadStandard</text>
<polyline fill="none" stroke="#000000" points="31.5,-38.5 108.5,-38.5 "/>
<text text-anchor="middle" x="70" y="-26.5" font-family="Helvetica,sans-Serif" font-size="10.00" fill="#000000"> </text>
<polyline fill="none" stroke="#000000" points="31.5,-19.5 108.5,-19.5 "/>
<text text-anchor="start" x="39.5" y="-7.5" font-family="Helvetica,sans-Serif" font-size="10.00" fill="#000000">+ __init__()</text>
</g>
<!-- Node1 -->
<g id="node2" class="node">
<title>Node1</title>
<g id="a_node2"><a xlink:href="classSignalIntegrity_1_1Lib_1_1SParameters_1_1SParameters_1_1SParameters.xhtml" target="_top" xlink:title="Class containing s&#45;parameters. ">
<polygon fill="#ffffff" stroke="#000000" points="0,-94.5 0,-283.5 140,-283.5 140,-94.5 0,-94.5"/>
<text text-anchor="middle" x="70" y="-271.5" font-family="Helvetica,sans-Serif" font-size="10.00" fill="#000000">SParameters</text>
<polyline fill="none" stroke="#000000" points="0,-264.5 140,-264.5 "/>
<text text-anchor="start" x="8" y="-252.5" font-family="Helvetica,sans-Serif" font-size="10.00" fill="#000000">+ m_sToken</text>
<text text-anchor="start" x="8" y="-241.5" font-family="Helvetica,sans-Serif" font-size="10.00" fill="#000000">+ m_d</text>
<text text-anchor="start" x="8" y="-230.5" font-family="Helvetica,sans-Serif" font-size="10.00" fill="#000000">+ m_Z0</text>
<text text-anchor="start" x="8" y="-219.5" font-family="Helvetica,sans-Serif" font-size="10.00" fill="#000000">+ m_f</text>
<text text-anchor="start" x="8" y="-208.5" font-family="Helvetica,sans-Serif" font-size="10.00" fill="#000000">+ m_P</text>
<polyline fill="none" stroke="#000000" points="0,-201.5 140,-201.5 "/>
<text text-anchor="start" x="8" y="-189.5" font-family="Helvetica,sans-Serif" font-size="10.00" fill="#000000">+ __init__()</text>
<text text-anchor="start" x="8" y="-178.5" font-family="Helvetica,sans-Serif" font-size="10.00" fill="#000000">+ __getitem__()</text>
<text text-anchor="start" x="8" y="-167.5" font-family="Helvetica,sans-Serif" font-size="10.00" fill="#000000">+ __len__()</text>
<text text-anchor="start" x="8" y="-156.5" font-family="Helvetica,sans-Serif" font-size="10.00" fill="#000000">+ f()</text>
<text text-anchor="start" x="8" y="-145.5" font-family="Helvetica,sans-Serif" font-size="10.00" fill="#000000">+ Response()</text>
<text text-anchor="start" x="8" y="-134.5" font-family="Helvetica,sans-Serif" font-size="10.00" fill="#000000">+ FrequencyResponse()</text>
<text text-anchor="start" x="8" y="-123.5" font-family="Helvetica,sans-Serif" font-size="10.00" fill="#000000">+ WriteToFile()</text>
<text text-anchor="start" x="8" y="-112.5" font-family="Helvetica,sans-Serif" font-size="10.00" fill="#000000">+ Resample()</text>
<text text-anchor="start" x="8" y="-101.5" font-family="Helvetica,sans-Serif" font-size="10.00" fill="#000000">+ SetReferenceImpedance()</text>
</a>
</g>
</g>
<!-- Node1&#45;&gt;Node0 -->
<g id="edge1" class="edge">
<title>Node1&#45;&gt;Node0</title>
<path fill="none" stroke="#191970" d="M70,-84.0148C70,-74.5149 70,-65.5375 70,-57.6971"/>
<polygon fill="none" stroke="#191970" points="66.5001,-84.0781 70,-94.0781 73.5001,-84.0782 66.5001,-84.0781"/>
</g>
<!-- Node2 -->
<g id="node3" class="node">
<title>Node2</title>
<g id="a_node3"><a xlink:href="classSignalIntegrity_1_1Lib_1_1SParameters_1_1SParameterManipulation_1_1SParameterManipulation.xhtml" target="_top" xlink:title="Class for manipulations on s&#45;parameters involving passivity, causality, etc. ">
<polygon fill="#ffffff" stroke="#000000" points="8.5,-320.5 8.5,-421.5 131.5,-421.5 131.5,-320.5 8.5,-320.5"/>
<text text-anchor="middle" x="70" y="-409.5" font-family="Helvetica,sans-Serif" font-size="10.00" fill="#000000">SParameterManipulation</text>
<polyline fill="none" stroke="#000000" points="8.5,-402.5 131.5,-402.5 "/>
<text text-anchor="middle" x="70" y="-390.5" font-family="Helvetica,sans-Serif" font-size="10.00" fill="#000000"> </text>
<polyline fill="none" stroke="#000000" points="8.5,-383.5 131.5,-383.5 "/>
<text text-anchor="start" x="16.5" y="-371.5" font-family="Helvetica,sans-Serif" font-size="10.00" fill="#000000">+ EnforcePassivity()</text>
<text text-anchor="start" x="16.5" y="-360.5" font-family="Helvetica,sans-Serif" font-size="10.00" fill="#000000">+ IsCausal()</text>
<text text-anchor="start" x="16.5" y="-349.5" font-family="Helvetica,sans-Serif" font-size="10.00" fill="#000000">+ EnforceCausality()</text>
<text text-anchor="start" x="16.5" y="-338.5" font-family="Helvetica,sans-Serif" font-size="10.00" fill="#000000">+ WaveletDenoise()</text>
<text text-anchor="start" x="16.5" y="-327.5" font-family="Helvetica,sans-Serif" font-size="10.00" fill="#000000">+ PortReorder()</text>
</a>
</g>
</g>
<!-- Node2&#45;&gt;Node1 -->
<g id="edge2" class="edge">
<title>Node2&#45;&gt;Node1</title>
<path fill="none" stroke="#191970" d="M70,-310.1163C70,-301.584 70,-292.6535 70,-283.6753"/>
<polygon fill="none" stroke="#191970" points="66.5001,-310.3028 70,-320.3029 73.5001,-310.3029 66.5001,-310.3028"/>
</g>
</g>
</svg>
