<?xml version="1.0" encoding="UTF-8" standalone="no"?>
<!DOCTYPE svg PUBLIC "-//W3C//DTD SVG 1.1//EN"
 "http://www.w3.org/Graphics/SVG/1.1/DTD/svg11.dtd">
<!-- Generated by graphviz version 2.43.0 (0)
 -->
<!-- Title: SimulatorNumericParser Pages: 1 -->
<svg width="379pt" height="612pt"
 viewBox="0.00 0.00 378.50 612.00" xmlns="http://www.w3.org/2000/svg" xmlns:xlink="http://www.w3.org/1999/xlink">
<g id="graph0" class="graph" transform="scale(1 1) rotate(0) translate(4 608)">
<title>SimulatorNumericParser</title>
<polygon fill="white" stroke="transparent" points="-4,4 -4,-608 374.5,-608 374.5,4 -4,4"/>
<!-- Node1 -->
<g id="node1" class="node">
<title>Node1</title>
<g id="a_node1"><a xlink:title="performs numeric simulations from netlists">
<polygon fill="#bfbfbf" stroke="black" points="149.5,-0.5 149.5,-79.5 272.5,-79.5 272.5,-0.5 149.5,-0.5"/>
<text text-anchor="middle" x="211" y="-67.5" font-family="Helvetica,sans-Serif" font-size="10.00">SimulatorNumericParser</text>
<polyline fill="none" stroke="black" points="149.5,-60.5 272.5,-60.5 "/>
<text text-anchor="start" x="157.5" y="-48.5" font-family="Helvetica,sans-Serif" font-size="10.00">+ transferMatrices</text>
<text text-anchor="start" x="157.5" y="-37.5" font-family="Helvetica,sans-Serif" font-size="10.00">+ m_sd</text>
<polyline fill="none" stroke="black" points="149.5,-30.5 272.5,-30.5 "/>
<text text-anchor="start" x="157.5" y="-18.5" font-family="Helvetica,sans-Serif" font-size="10.00">+ __init__()</text>
<text text-anchor="start" x="157.5" y="-7.5" font-family="Helvetica,sans-Serif" font-size="10.00">+ TransferMatrices()</text>
</a>
</g>
</g>
<!-- Node2 -->
<g id="node2" class="node">
<title>Node2</title>
<g id="a_node2"><a xlink:href="classSignalIntegrity_1_1Lib_1_1Parsers_1_1SimulatorParser_1_1SimulatorParser.xhtml" target="_top" xlink:title="base class for netlist based simulation solutions">
<polygon fill="white" stroke="black" points="53,-133 53,-201 139,-201 139,-133 53,-133"/>
<text text-anchor="middle" x="96" y="-189" font-family="Helvetica,sans-Serif" font-size="10.00">SimulatorParser</text>
<polyline fill="none" stroke="black" points="53,-182 139,-182 "/>
<text text-anchor="start" x="61" y="-170" font-family="Helvetica,sans-Serif" font-size="10.00">+ m_sd</text>
<text text-anchor="start" x="61" y="-159" font-family="Helvetica,sans-Serif" font-size="10.00">+ m_ul</text>
<polyline fill="none" stroke="black" points="53,-152 139,-152 "/>
<text text-anchor="start" x="61" y="-140" font-family="Helvetica,sans-Serif" font-size="10.00">+ __init__()</text>
</a>
</g>
</g>
<!-- Node2&#45;&gt;Node1 -->
<g id="edge1" class="edge">
<title>Node2&#45;&gt;Node1</title>
<path fill="none" stroke="midnightblue" d="M133.4,-125.34C146.91,-110.67 162.1,-94.15 175.44,-79.65"/>
<polygon fill="none" stroke="midnightblue" points="130.71,-123.1 126.52,-132.83 135.86,-127.84 130.71,-123.1"/>
</g>
<!-- Node3 -->
<g id="node3" class="node">
<title>Node3</title>
<g id="a_node3"><a xlink:href="classSignalIntegrity_1_1Lib_1_1Parsers_1_1SystemDescriptionParser_1_1SystemDescriptionParser.xhtml" target="_top" xlink:title="Parses netlists and produces system descriptions.">
<polygon fill="white" stroke="black" points="32,-254.5 32,-476.5 160,-476.5 160,-254.5 32,-254.5"/>
<text text-anchor="middle" x="96" y="-464.5" font-family="Helvetica,sans-Serif" font-size="10.00">SystemDescriptionParser</text>
<polyline fill="none" stroke="black" points="32,-457.5 160,-457.5 "/>
<text text-anchor="start" x="40" y="-445.5" font-family="Helvetica,sans-Serif" font-size="10.00">+ m_sd</text>
<text text-anchor="start" x="40" y="-434.5" font-family="Helvetica,sans-Serif" font-size="10.00">+ m_f</text>
<text text-anchor="start" x="40" y="-423.5" font-family="Helvetica,sans-Serif" font-size="10.00">+ m_lines</text>
<text text-anchor="start" x="40" y="-412.5" font-family="Helvetica,sans-Serif" font-size="10.00">+ m_addThru</text>
<text text-anchor="start" x="40" y="-401.5" font-family="Helvetica,sans-Serif" font-size="10.00">+ known</text>
<text text-anchor="start" x="40" y="-390.5" font-family="Helvetica,sans-Serif" font-size="10.00">+ callback</text>
<text text-anchor="start" x="40" y="-379.5" font-family="Helvetica,sans-Serif" font-size="10.00">+ m_Z0</text>
<text text-anchor="start" x="40" y="-368.5" font-family="Helvetica,sans-Serif" font-size="10.00">+ delayDict</text>
<text text-anchor="start" x="40" y="-357.5" font-family="Helvetica,sans-Serif" font-size="10.00">+ m_spc</text>
<text text-anchor="start" x="40" y="-346.5" font-family="Helvetica,sans-Serif" font-size="10.00">+ m_spcl</text>
<text text-anchor="start" x="40" y="-335.5" font-family="Helvetica,sans-Serif" font-size="10.00">+ m_ul</text>
<text text-anchor="start" x="40" y="-324.5" font-family="Helvetica,sans-Serif" font-size="10.00">+ MultiPortTee</text>
<polyline fill="none" stroke="black" points="32,-317.5 160,-317.5 "/>
<text text-anchor="start" x="40" y="-305.5" font-family="Helvetica,sans-Serif" font-size="10.00">+ __init__()</text>
<text text-anchor="start" x="40" y="-294.5" font-family="Helvetica,sans-Serif" font-size="10.00">+ SystemDescription()</text>
<text text-anchor="start" x="40" y="-283.5" font-family="Helvetica,sans-Serif" font-size="10.00">+ AddKnownDevices()</text>
<text text-anchor="start" x="40" y="-272.5" font-family="Helvetica,sans-Serif" font-size="10.00">+ AddLine()</text>
<text text-anchor="start" x="40" y="-261.5" font-family="Helvetica,sans-Serif" font-size="10.00">+ AddLines()</text>
</a>
</g>
</g>
<!-- Node3&#45;&gt;Node2 -->
<g id="edge2" class="edge">
<title>Node3&#45;&gt;Node2</title>
<path fill="none" stroke="midnightblue" d="M96,-244.06C96,-228.35 96,-213.45 96,-201.06"/>
<polygon fill="none" stroke="midnightblue" points="92.5,-244.47 96,-254.47 99.5,-244.47 92.5,-244.47"/>
</g>
<!-- Node4 -->
<g id="node4" class="node">
<title>Node4</title>
<g id="a_node4"><a xlink:href="classSignalIntegrity_1_1Lib_1_1Parsers_1_1ParserFile_1_1ParserFile.xhtml" target="_top" xlink:title="file handling base class for parsers">
<polygon fill="white" stroke="black" points="0,-524.5 0,-592.5 80,-592.5 80,-524.5 0,-524.5"/>
<text text-anchor="middle" x="40" y="-580.5" font-family="Helvetica,sans-Serif" font-size="10.00">ParserFile</text>
<polyline fill="none" stroke="black" points="0,-573.5 80,-573.5 "/>
<text text-anchor="middle" x="40" y="-561.5" font-family="Helvetica,sans-Serif" font-size="10.00"> </text>
<polyline fill="none" stroke="black" points="0,-554.5 80,-554.5 "/>
<text text-anchor="start" x="8" y="-542.5" font-family="Helvetica,sans-Serif" font-size="10.00">+ File()</text>
<text text-anchor="start" x="8" y="-531.5" font-family="Helvetica,sans-Serif" font-size="10.00">+ WriteToFile()</text>
</a>
</g>
</g>
<!-- Node4&#45;&gt;Node3 -->
<g id="edge3" class="edge">
<title>Node4&#45;&gt;Node3</title>
<path fill="none" stroke="midnightblue" d="M52.59,-514.57C55.94,-503.13 59.73,-490.21 63.63,-476.91"/>
<polygon fill="none" stroke="midnightblue" points="49.21,-513.65 49.75,-524.23 55.93,-515.62 49.21,-513.65"/>
</g>
<!-- Node5 -->
<g id="node5" class="node">
<title>Node5</title>
<g id="a_node5"><a xlink:href="classSignalIntegrity_1_1Lib_1_1Parsers_1_1ParserArgs_1_1ParserArgs.xhtml" target="_top" xlink:title="argument handling base class for parsers">
<polygon fill="white" stroke="black" points="98,-513.5 98,-603.5 206,-603.5 206,-513.5 98,-513.5"/>
<text text-anchor="middle" x="152" y="-591.5" font-family="Helvetica,sans-Serif" font-size="10.00">ParserArgs</text>
<polyline fill="none" stroke="black" points="98,-584.5 206,-584.5 "/>
<text text-anchor="start" x="106" y="-572.5" font-family="Helvetica,sans-Serif" font-size="10.00">+ m_vars</text>
<text text-anchor="start" x="106" y="-561.5" font-family="Helvetica,sans-Serif" font-size="10.00">+ m_args</text>
<polyline fill="none" stroke="black" points="98,-554.5 206,-554.5 "/>
<text text-anchor="start" x="106" y="-542.5" font-family="Helvetica,sans-Serif" font-size="10.00">+ AssignArguments()</text>
<text text-anchor="start" x="106" y="-531.5" font-family="Helvetica,sans-Serif" font-size="10.00">+ ReplaceArgs()</text>
<text text-anchor="start" x="106" y="-520.5" font-family="Helvetica,sans-Serif" font-size="10.00">+ ProcessVariables()</text>
</a>
</g>
</g>
<!-- Node5&#45;&gt;Node3 -->
<g id="edge4" class="edge">
<title>Node5&#45;&gt;Node3</title>
<path fill="none" stroke="midnightblue" d="M136.17,-503.52C133.69,-495.04 131.04,-486.02 128.34,-476.81"/>
<polygon fill="none" stroke="midnightblue" points="132.84,-504.59 139.01,-513.2 139.56,-502.62 132.84,-504.59"/>
</g>
<!-- Node6 -->
<g id="node6" class="node">
<title>Node6</title>
<g id="a_node6"><a xlink:href="classSignalIntegrity_1_1Lib_1_1CallBacker_1_1CallBacker.xhtml" target="_top" xlink:title="Handles Callbacks that allow progress reporting during long calculations and capability to abort.">
<polygon fill="white" stroke="black" points="157.5,-116.5 157.5,-217.5 264.5,-217.5 264.5,-116.5 157.5,-116.5"/>
<text text-anchor="middle" x="211" y="-205.5" font-family="Helvetica,sans-Serif" font-size="10.00">CallBacker</text>
<polyline fill="none" stroke="black" points="157.5,-198.5 264.5,-198.5 "/>
<text text-anchor="start" x="165.5" y="-186.5" font-family="Helvetica,sans-Serif" font-size="10.00">+ callback</text>
<polyline fill="none" stroke="black" points="157.5,-179.5 264.5,-179.5 "/>
<text text-anchor="start" x="165.5" y="-167.5" font-family="Helvetica,sans-Serif" font-size="10.00">+ __init__()</text>
<text text-anchor="start" x="165.5" y="-156.5" font-family="Helvetica,sans-Serif" font-size="10.00">+ HasACallBack()</text>
<text text-anchor="start" x="165.5" y="-145.5" font-family="Helvetica,sans-Serif" font-size="10.00">+ CallBack()</text>
<text text-anchor="start" x="165.5" y="-134.5" font-family="Helvetica,sans-Serif" font-size="10.00">+ InstallCallback()</text>
<text text-anchor="start" x="165.5" y="-123.5" font-family="Helvetica,sans-Serif" font-size="10.00">+ RemoveCallback()</text>
</a>
</g>
</g>
<!-- Node6&#45;&gt;Node1 -->
<g id="edge5" class="edge">
<title>Node6&#45;&gt;Node1</title>
<path fill="none" stroke="midnightblue" d="M211,-106.19C211,-97.22 211,-88.18 211,-79.81"/>
<polygon fill="none" stroke="midnightblue" points="207.5,-106.24 211,-116.24 214.5,-106.24 207.5,-106.24"/>
</g>
<!-- Node7 -->
<g id="node7" class="node">
<title>Node7</title>
<g id="a_node7"><a xlink:href="classSignalIntegrity_1_1Lib_1_1ResultsCache_1_1LinesCache.xhtml" target="_top" xlink:title="Caches results calculated based on netlist lines, as used in all of the parser classes.">
<polygon fill="white" stroke="black" points="282.5,-127.5 282.5,-206.5 369.5,-206.5 369.5,-127.5 282.5,-127.5"/>
<text text-anchor="middle" x="326" y="-194.5" font-family="Helvetica,sans-Serif" font-size="10.00">LinesCache</text>
<polyline fill="none" stroke="black" points="282.5,-187.5 369.5,-187.5 "/>
<text text-anchor="middle" x="326" y="-175.5" font-family="Helvetica,sans-Serif" font-size="10.00"> </text>
<polyline fill="none" stroke="black" points="282.5,-168.5 369.5,-168.5 "/>
<text text-anchor="start" x="290.5" y="-156.5" font-family="Helvetica,sans-Serif" font-size="10.00">+ __init__()</text>
<text text-anchor="start" x="290.5" y="-145.5" font-family="Helvetica,sans-Serif" font-size="10.00">+ HashValue()</text>
<text text-anchor="start" x="290.5" y="-134.5" font-family="Helvetica,sans-Serif" font-size="10.00">+ CheckTimes()</text>
</a>
</g>
</g>
<!-- Node7&#45;&gt;Node1 -->
<g id="edge6" class="edge">
<title>Node7&#45;&gt;Node1</title>
<path fill="none" stroke="midnightblue" d="M283.52,-119.83C271.36,-106.61 258.23,-92.33 246.52,-79.61"/>
<polygon fill="none" stroke="midnightblue" points="281.21,-122.49 290.56,-127.48 286.36,-117.75 281.21,-122.49"/>
</g>
<!-- Node8 -->
<g id="node8" class="node">
<title>Node8</title>
<g id="a_node8"><a xlink:href="classSignalIntegrity_1_1Lib_1_1ResultsCache_1_1ResultsCache.xhtml" target="_top" xlink:title="base class for results caching">
<polygon fill="white" stroke="black" points="281.5,-298.5 281.5,-432.5 370.5,-432.5 370.5,-298.5 281.5,-298.5"/>
<text text-anchor="middle" x="326" y="-420.5" font-family="Helvetica,sans-Serif" font-size="10.00">ResultsCache</text>
<polyline fill="none" stroke="black" points="281.5,-413.5 370.5,-413.5 "/>
<text text-anchor="start" x="289.5" y="-401.5" font-family="Helvetica,sans-Serif" font-size="10.00">+ filename</text>
<text text-anchor="start" x="289.5" y="-390.5" font-family="Helvetica,sans-Serif" font-size="10.00">+ extra</text>
<text text-anchor="start" x="289.5" y="-379.5" font-family="Helvetica,sans-Serif" font-size="10.00">+ hash</text>
<text text-anchor="start" x="289.5" y="-368.5" font-family="Helvetica,sans-Serif" font-size="10.00">+ logging</text>
<polyline fill="none" stroke="black" points="281.5,-361.5 370.5,-361.5 "/>
<text text-anchor="start" x="289.5" y="-349.5" font-family="Helvetica,sans-Serif" font-size="10.00">+ __init__()</text>
<text text-anchor="start" x="289.5" y="-338.5" font-family="Helvetica,sans-Serif" font-size="10.00">+ HashValue()</text>
<text text-anchor="start" x="289.5" y="-327.5" font-family="Helvetica,sans-Serif" font-size="10.00">+ CheckCache()</text>
<text text-anchor="start" x="289.5" y="-316.5" font-family="Helvetica,sans-Serif" font-size="10.00">+ CacheResult()</text>
<text text-anchor="start" x="289.5" y="-305.5" font-family="Helvetica,sans-Serif" font-size="10.00">+ CheckTimes()</text>
</a>
</g>
</g>
<!-- Node8&#45;&gt;Node7 -->
<g id="edge7" class="edge">
<title>Node8&#45;&gt;Node7</title>
<path fill="none" stroke="midnightblue" d="M326,-288.12C326,-260.28 326,-229.97 326,-206.76"/>
<polygon fill="none" stroke="midnightblue" points="322.5,-288.25 326,-298.25 329.5,-288.25 322.5,-288.25"/>
</g>
</g>
</svg>
