<?xml version="1.0" encoding="UTF-8" standalone="no"?>
<!DOCTYPE svg PUBLIC "-//W3C//DTD SVG 1.1//EN"
 "http://www.w3.org/Graphics/SVG/1.1/DTD/svg11.dtd">
<!-- Generated by graphviz version 2.43.0 (0)
 -->
<!-- Title: SystemSParametersNumericParser Pages: 1 -->
<svg width="412pt" height="606pt"
 viewBox="0.00 0.00 411.50 606.00" xmlns="http://www.w3.org/2000/svg" xmlns:xlink="http://www.w3.org/1999/xlink">
<g id="graph0" class="graph" transform="scale(1 1) rotate(0) translate(4 602)">
<title>SystemSParametersNumericParser</title>
<polygon fill="white" stroke="transparent" points="-4,4 -4,-602 407.5,-602 407.5,4 -4,4"/>
<!-- Node1 -->
<g id="node1" class="node">
<title>Node1</title>
<g id="a_node1"><a xlink:title="generates system s&#45;parameters from a netlist">
<polygon fill="#bfbfbf" stroke="black" points="160,-0.5 160,-90.5 304,-90.5 304,-0.5 160,-0.5"/>
<text text-anchor="start" x="168" y="-78.5" font-family="Helvetica,sans-Serif" font-size="10.00">SystemSParametersNumeric</text>
<text text-anchor="middle" x="232" y="-67.5" font-family="Helvetica,sans-Serif" font-size="10.00">Parser</text>
<polyline fill="none" stroke="black" points="160,-60.5 304,-60.5 "/>
<text text-anchor="start" x="168" y="-48.5" font-family="Helvetica,sans-Serif" font-size="10.00">+ sf</text>
<text text-anchor="start" x="168" y="-37.5" font-family="Helvetica,sans-Serif" font-size="10.00">+ efl</text>
<polyline fill="none" stroke="black" points="160,-30.5 304,-30.5 "/>
<text text-anchor="start" x="168" y="-18.5" font-family="Helvetica,sans-Serif" font-size="10.00">+ __init__()</text>
<text text-anchor="start" x="168" y="-7.5" font-family="Helvetica,sans-Serif" font-size="10.00">+ SParameters()</text>
</a>
</g>
</g>
<!-- Node2 -->
<g id="node2" class="node">
<title>Node2</title>
<g id="a_node2"><a xlink:href="classSignalIntegrity_1_1Lib_1_1Parsers_1_1SystemDescriptionParser_1_1SystemDescriptionParser.xhtml" target="_top" xlink:title="Parses netlists and produces system descriptions.">
<polygon fill="white" stroke="black" points="32,-127.5 32,-349.5 160,-349.5 160,-127.5 32,-127.5"/>
<text text-anchor="middle" x="96" y="-337.5" font-family="Helvetica,sans-Serif" font-size="10.00">SystemDescriptionParser</text>
<polyline fill="none" stroke="black" points="32,-330.5 160,-330.5 "/>
<text text-anchor="start" x="40" y="-318.5" font-family="Helvetica,sans-Serif" font-size="10.00">+ m_sd</text>
<text text-anchor="start" x="40" y="-307.5" font-family="Helvetica,sans-Serif" font-size="10.00">+ m_f</text>
<text text-anchor="start" x="40" y="-296.5" font-family="Helvetica,sans-Serif" font-size="10.00">+ m_lines</text>
<text text-anchor="start" x="40" y="-285.5" font-family="Helvetica,sans-Serif" font-size="10.00">+ m_addThru</text>
<text text-anchor="start" x="40" y="-274.5" font-family="Helvetica,sans-Serif" font-size="10.00">+ known</text>
<text text-anchor="start" x="40" y="-263.5" font-family="Helvetica,sans-Serif" font-size="10.00">+ callback</text>
<text text-anchor="start" x="40" y="-252.5" font-family="Helvetica,sans-Serif" font-size="10.00">+ m_Z0</text>
<text text-anchor="start" x="40" y="-241.5" font-family="Helvetica,sans-Serif" font-size="10.00">+ delayDict</text>
<text text-anchor="start" x="40" y="-230.5" font-family="Helvetica,sans-Serif" font-size="10.00">+ m_spc</text>
<text text-anchor="start" x="40" y="-219.5" font-family="Helvetica,sans-Serif" font-size="10.00">+ m_spcl</text>
<text text-anchor="start" x="40" y="-208.5" font-family="Helvetica,sans-Serif" font-size="10.00">+ m_ul</text>
<text text-anchor="start" x="40" y="-197.5" font-family="Helvetica,sans-Serif" font-size="10.00">+ MultiPortTee</text>
<polyline fill="none" stroke="black" points="32,-190.5 160,-190.5 "/>
<text text-anchor="start" x="40" y="-178.5" font-family="Helvetica,sans-Serif" font-size="10.00">+ __init__()</text>
<text text-anchor="start" x="40" y="-167.5" font-family="Helvetica,sans-Serif" font-size="10.00">+ SystemDescription()</text>
<text text-anchor="start" x="40" y="-156.5" font-family="Helvetica,sans-Serif" font-size="10.00">+ AddKnownDevices()</text>
<text text-anchor="start" x="40" y="-145.5" font-family="Helvetica,sans-Serif" font-size="10.00">+ AddLine()</text>
<text text-anchor="start" x="40" y="-134.5" font-family="Helvetica,sans-Serif" font-size="10.00">+ AddLines()</text>
</a>
</g>
</g>
<!-- Node2&#45;&gt;Node1 -->
<g id="edge1" class="edge">
<title>Node2&#45;&gt;Node1</title>
<path fill="none" stroke="midnightblue" d="M166.04,-132.54C167.37,-130.68 168.69,-128.83 170,-127 178.55,-115.11 188.07,-102.47 197.03,-90.81"/>
<polygon fill="none" stroke="midnightblue" points="163.11,-130.63 160.2,-140.82 168.83,-134.66 163.11,-130.63"/>
</g>
<!-- Node3 -->
<g id="node3" class="node">
<title>Node3</title>
<g id="a_node3"><a xlink:href="classSignalIntegrity_1_1Lib_1_1Parsers_1_1ParserFile_1_1ParserFile.xhtml" target="_top" xlink:title="file handling base class for parsers">
<polygon fill="white" stroke="black" points="0,-458 0,-526 80,-526 80,-458 0,-458"/>
<text text-anchor="middle" x="40" y="-514" font-family="Helvetica,sans-Serif" font-size="10.00">ParserFile</text>
<polyline fill="none" stroke="black" points="0,-507 80,-507 "/>
<text text-anchor="middle" x="40" y="-495" font-family="Helvetica,sans-Serif" font-size="10.00"> </text>
<polyline fill="none" stroke="black" points="0,-488 80,-488 "/>
<text text-anchor="start" x="8" y="-476" font-family="Helvetica,sans-Serif" font-size="10.00">+ File()</text>
<text text-anchor="start" x="8" y="-465" font-family="Helvetica,sans-Serif" font-size="10.00">+ WriteToFile()</text>
</a>
</g>
</g>
<!-- Node3&#45;&gt;Node2 -->
<g id="edge2" class="edge">
<title>Node3&#45;&gt;Node2</title>
<path fill="none" stroke="midnightblue" d="M49.59,-447.94C55.63,-420.8 63.73,-384.44 71.47,-349.69"/>
<polygon fill="none" stroke="midnightblue" points="46.14,-447.34 47.38,-457.86 52.97,-448.86 46.14,-447.34"/>
</g>
<!-- Node4 -->
<g id="node4" class="node">
<title>Node4</title>
<g id="a_node4"><a xlink:href="classSignalIntegrity_1_1Lib_1_1Parsers_1_1ParserArgs_1_1ParserArgs.xhtml" target="_top" xlink:title="argument handling base class for parsers">
<polygon fill="white" stroke="black" points="98,-447 98,-537 206,-537 206,-447 98,-447"/>
<text text-anchor="middle" x="152" y="-525" font-family="Helvetica,sans-Serif" font-size="10.00">ParserArgs</text>
<polyline fill="none" stroke="black" points="98,-518 206,-518 "/>
<text text-anchor="start" x="106" y="-506" font-family="Helvetica,sans-Serif" font-size="10.00">+ m_vars</text>
<text text-anchor="start" x="106" y="-495" font-family="Helvetica,sans-Serif" font-size="10.00">+ m_args</text>
<polyline fill="none" stroke="black" points="98,-488 206,-488 "/>
<text text-anchor="start" x="106" y="-476" font-family="Helvetica,sans-Serif" font-size="10.00">+ AssignArguments()</text>
<text text-anchor="start" x="106" y="-465" font-family="Helvetica,sans-Serif" font-size="10.00">+ ReplaceArgs()</text>
<text text-anchor="start" x="106" y="-454" font-family="Helvetica,sans-Serif" font-size="10.00">+ ProcessVariables()</text>
</a>
</g>
</g>
<!-- Node4&#45;&gt;Node2 -->
<g id="edge3" class="edge">
<title>Node4&#45;&gt;Node2</title>
<path fill="none" stroke="midnightblue" d="M139.99,-437.05C134.29,-411.46 127.26,-379.9 120.51,-349.58"/>
<polygon fill="none" stroke="midnightblue" points="136.59,-437.9 142.18,-446.9 143.42,-436.38 136.59,-437.9"/>
</g>
<!-- Node5 -->
<g id="node5" class="node">
<title>Node5</title>
<g id="a_node5"><a xlink:href="classSignalIntegrity_1_1Lib_1_1CallBacker_1_1CallBacker.xhtml" target="_top" xlink:title="Handles Callbacks that allow progress reporting during long calculations and capability to abort.">
<polygon fill="white" stroke="black" points="178.5,-188 178.5,-289 285.5,-289 285.5,-188 178.5,-188"/>
<text text-anchor="middle" x="232" y="-277" font-family="Helvetica,sans-Serif" font-size="10.00">CallBacker</text>
<polyline fill="none" stroke="black" points="178.5,-270 285.5,-270 "/>
<text text-anchor="start" x="186.5" y="-258" font-family="Helvetica,sans-Serif" font-size="10.00">+ callback</text>
<polyline fill="none" stroke="black" points="178.5,-251 285.5,-251 "/>
<text text-anchor="start" x="186.5" y="-239" font-family="Helvetica,sans-Serif" font-size="10.00">+ __init__()</text>
<text text-anchor="start" x="186.5" y="-228" font-family="Helvetica,sans-Serif" font-size="10.00">+ HasACallBack()</text>
<text text-anchor="start" x="186.5" y="-217" font-family="Helvetica,sans-Serif" font-size="10.00">+ CallBack()</text>
<text text-anchor="start" x="186.5" y="-206" font-family="Helvetica,sans-Serif" font-size="10.00">+ InstallCallback()</text>
<text text-anchor="start" x="186.5" y="-195" font-family="Helvetica,sans-Serif" font-size="10.00">+ RemoveCallback()</text>
</a>
</g>
</g>
<!-- Node5&#45;&gt;Node1 -->
<g id="edge4" class="edge">
<title>Node5&#45;&gt;Node1</title>
<path fill="none" stroke="midnightblue" d="M232,-177.69C232,-149.54 232,-116.57 232,-90.72"/>
<polygon fill="none" stroke="midnightblue" points="228.5,-177.82 232,-187.82 235.5,-177.82 228.5,-177.82"/>
</g>
<!-- Node6 -->
<g id="node6" class="node">
<title>Node6</title>
<g id="a_node6"><a xlink:href="classSignalIntegrity_1_1Lib_1_1ResultsCache_1_1LinesCache.xhtml" target="_top" xlink:title="Caches results calculated based on netlist lines, as used in all of the parser classes.">
<polygon fill="white" stroke="black" points="303.5,-199 303.5,-278 390.5,-278 390.5,-199 303.5,-199"/>
<text text-anchor="middle" x="347" y="-266" font-family="Helvetica,sans-Serif" font-size="10.00">LinesCache</text>
<polyline fill="none" stroke="black" points="303.5,-259 390.5,-259 "/>
<text text-anchor="middle" x="347" y="-247" font-family="Helvetica,sans-Serif" font-size="10.00"> </text>
<polyline fill="none" stroke="black" points="303.5,-240 390.5,-240 "/>
<text text-anchor="start" x="311.5" y="-228" font-family="Helvetica,sans-Serif" font-size="10.00">+ __init__()</text>
<text text-anchor="start" x="311.5" y="-217" font-family="Helvetica,sans-Serif" font-size="10.00">+ HashValue()</text>
<text text-anchor="start" x="311.5" y="-206" font-family="Helvetica,sans-Serif" font-size="10.00">+ CheckTimes()</text>
</a>
</g>
</g>
<!-- Node6&#45;&gt;Node1 -->
<g id="edge5" class="edge">
<title>Node6&#45;&gt;Node1</title>
<path fill="none" stroke="midnightblue" d="M327.29,-189.62C318.39,-169.72 307.14,-146.72 295,-127 287.46,-114.76 278.39,-102.21 269.5,-90.76"/>
<polygon fill="none" stroke="midnightblue" points="324.11,-191.07 331.34,-198.81 330.51,-188.25 324.11,-191.07"/>
</g>
<!-- Node7 -->
<g id="node7" class="node">
<title>Node7</title>
<g id="a_node7"><a xlink:href="classSignalIntegrity_1_1Lib_1_1ResultsCache_1_1ResultsCache.xhtml" target="_top" xlink:title="base class for results caching">
<polygon fill="white" stroke="black" points="290.5,-386.5 290.5,-597.5 403.5,-597.5 403.5,-386.5 290.5,-386.5"/>
<text text-anchor="middle" x="347" y="-585.5" font-family="Helvetica,sans-Serif" font-size="10.00">ResultsCache</text>
<polyline fill="none" stroke="black" points="290.5,-578.5 403.5,-578.5 "/>
<text text-anchor="start" x="298.5" y="-566.5" font-family="Helvetica,sans-Serif" font-size="10.00">+ filename</text>
<text text-anchor="start" x="298.5" y="-555.5" font-family="Helvetica,sans-Serif" font-size="10.00">+ extra</text>
<text text-anchor="start" x="298.5" y="-544.5" font-family="Helvetica,sans-Serif" font-size="10.00">+ extension</text>
<text text-anchor="start" x="298.5" y="-533.5" font-family="Helvetica,sans-Serif" font-size="10.00">+ hash</text>
<text text-anchor="start" x="298.5" y="-522.5" font-family="Helvetica,sans-Serif" font-size="10.00">+ files_to_keep</text>
<text text-anchor="start" x="298.5" y="-511.5" font-family="Helvetica,sans-Serif" font-size="10.00">+ files_to_keep</text>
<text text-anchor="start" x="298.5" y="-500.5" font-family="Helvetica,sans-Serif" font-size="10.00">+ keep_extra_file_for</text>
<text text-anchor="start" x="298.5" y="-489.5" font-family="Helvetica,sans-Serif" font-size="10.00">_archive</text>
<text text-anchor="start" x="298.5" y="-478.5" font-family="Helvetica,sans-Serif" font-size="10.00">+ check_times</text>
<text text-anchor="start" x="298.5" y="-467.5" font-family="Helvetica,sans-Serif" font-size="10.00">+ logging</text>
<polyline fill="none" stroke="black" points="290.5,-460.5 403.5,-460.5 "/>
<text text-anchor="start" x="298.5" y="-448.5" font-family="Helvetica,sans-Serif" font-size="10.00">+ __init__()</text>
<text text-anchor="start" x="298.5" y="-437.5" font-family="Helvetica,sans-Serif" font-size="10.00">+ HashValue()</text>
<text text-anchor="start" x="298.5" y="-426.5" font-family="Helvetica,sans-Serif" font-size="10.00">+ CheckCache()</text>
<text text-anchor="start" x="298.5" y="-415.5" font-family="Helvetica,sans-Serif" font-size="10.00">+ CacheResult()</text>
<text text-anchor="start" x="298.5" y="-404.5" font-family="Helvetica,sans-Serif" font-size="10.00">+ CheckTimes()</text>
<text text-anchor="start" x="298.5" y="-393.5" font-family="Helvetica,sans-Serif" font-size="10.00">+ PreferencesCache()</text>
</a>
</g>
</g>
<!-- Node7&#45;&gt;Node6 -->
<g id="edge6" class="edge">
<title>Node7&#45;&gt;Node6</title>
<path fill="none" stroke="midnightblue" d="M347,-375.79C347,-340.63 347,-304.35 347,-278.08"/>
<polygon fill="none" stroke="midnightblue" points="343.5,-376.16 347,-386.16 350.5,-376.16 343.5,-376.16"/>
</g>
</g>
</svg>
