<?xml version="1.0" encoding="UTF-8" standalone="no"?>
<!DOCTYPE svg PUBLIC "-//W3C//DTD SVG 1.1//EN"
 "http://www.w3.org/Graphics/SVG/1.1/DTD/svg11.dtd">
<!-- Generated by graphviz version 2.40.1 (20161225.0304)
 -->
<!-- Title: ParserFile Pages: 1 -->
<svg width="555pt" height="535pt"
 viewBox="0.00 0.00 555.00 535.00" xmlns="http://www.w3.org/2000/svg" xmlns:xlink="http://www.w3.org/1999/xlink">
<g id="graph0" class="graph" transform="scale(1 1) rotate(0) translate(4 531)">
<title>ParserFile</title>
<polygon fill="#ffffff" stroke="transparent" points="-4,4 -4,-531 551,-531 551,4 -4,4"/>
<!-- Node0 -->
<g id="node1" class="node">
<title>Node0</title>
<polygon fill="#bfbfbf" stroke="#000000" points="232.5,-458.5 232.5,-526.5 314.5,-526.5 314.5,-458.5 232.5,-458.5"/>
<text text-anchor="middle" x="273.5" y="-514.5" font-family="Helvetica,sans-Serif" font-size="10.00" fill="#000000">ParserFile</text>
<polyline fill="none" stroke="#000000" points="232.5,-507.5 314.5,-507.5 "/>
<text text-anchor="middle" x="273.5" y="-495.5" font-family="Helvetica,sans-Serif" font-size="10.00" fill="#000000"> </text>
<polyline fill="none" stroke="#000000" points="232.5,-488.5 314.5,-488.5 "/>
<text text-anchor="start" x="240.5" y="-476.5" font-family="Helvetica,sans-Serif" font-size="10.00" fill="#000000">+ File()</text>
<text text-anchor="start" x="240.5" y="-465.5" font-family="Helvetica,sans-Serif" font-size="10.00" fill="#000000">+ WriteToFile()</text>
</g>
<!-- Node1 -->
<g id="node2" class="node">
<title>Node1</title>
<g id="a_node2"><a xlink:href="classSignalIntegrity_1_1Lib_1_1Parsers_1_1SystemDescriptionParser_1_1SystemDescriptionParser.xhtml" target="_top" xlink:title="Parses netlists and produces system descriptions. ">
<polygon fill="#ffffff" stroke="#000000" points="209.5,-232.5 209.5,-421.5 337.5,-421.5 337.5,-232.5 209.5,-232.5"/>
<text text-anchor="middle" x="273.5" y="-409.5" font-family="Helvetica,sans-Serif" font-size="10.00" fill="#000000">SystemDescriptionParser</text>
<polyline fill="none" stroke="#000000" points="209.5,-402.5 337.5,-402.5 "/>
<text text-anchor="start" x="217.5" y="-390.5" font-family="Helvetica,sans-Serif" font-size="10.00" fill="#000000">+ m_sd</text>
<text text-anchor="start" x="217.5" y="-379.5" font-family="Helvetica,sans-Serif" font-size="10.00" fill="#000000">+ m_f</text>
<text text-anchor="start" x="217.5" y="-368.5" font-family="Helvetica,sans-Serif" font-size="10.00" fill="#000000">+ m_lines</text>
<text text-anchor="start" x="217.5" y="-357.5" font-family="Helvetica,sans-Serif" font-size="10.00" fill="#000000">+ m_addThru</text>
<text text-anchor="start" x="217.5" y="-346.5" font-family="Helvetica,sans-Serif" font-size="10.00" fill="#000000">+ known</text>
<text text-anchor="start" x="217.5" y="-335.5" font-family="Helvetica,sans-Serif" font-size="10.00" fill="#000000">+ delayDict</text>
<text text-anchor="start" x="217.5" y="-324.5" font-family="Helvetica,sans-Serif" font-size="10.00" fill="#000000">+ m_spc</text>
<text text-anchor="start" x="217.5" y="-313.5" font-family="Helvetica,sans-Serif" font-size="10.00" fill="#000000">+ m_spcl</text>
<text text-anchor="start" x="217.5" y="-302.5" font-family="Helvetica,sans-Serif" font-size="10.00" fill="#000000">+ m_ul</text>
<polyline fill="none" stroke="#000000" points="209.5,-295.5 337.5,-295.5 "/>
<text text-anchor="start" x="217.5" y="-283.5" font-family="Helvetica,sans-Serif" font-size="10.00" fill="#000000">+ __init__()</text>
<text text-anchor="start" x="217.5" y="-272.5" font-family="Helvetica,sans-Serif" font-size="10.00" fill="#000000">+ SystemDescription()</text>
<text text-anchor="start" x="217.5" y="-261.5" font-family="Helvetica,sans-Serif" font-size="10.00" fill="#000000">+ AddKnownDevices()</text>
<text text-anchor="start" x="217.5" y="-250.5" font-family="Helvetica,sans-Serif" font-size="10.00" fill="#000000">+ AddLine()</text>
<text text-anchor="start" x="217.5" y="-239.5" font-family="Helvetica,sans-Serif" font-size="10.00" fill="#000000">+ AddLines()</text>
</a>
</g>
</g>
<!-- Node0&#45;&gt;Node1 -->
<g id="edge1" class="edge">
<title>Node0&#45;&gt;Node1</title>
<path fill="none" stroke="#191970" d="M273.5,-448.0888C273.5,-439.7937 273.5,-430.8388 273.5,-421.6848"/>
<polygon fill="none" stroke="#191970" points="270.0001,-448.2083 273.5,-458.2083 277.0001,-448.2083 270.0001,-448.2083"/>
</g>
<!-- Node2 -->
<g id="node3" class="node">
<title>Node2</title>
<g id="a_node3"><a xlink:href="classSignalIntegrity_1_1Lib_1_1Parsers_1_1DeembedderParser_1_1DeembedderParser.xhtml" target="_top" xlink:title="base class for netlist based deembedding solutions ">
<polygon fill="#ffffff" stroke="#000000" points="36,-122 36,-190 137,-190 137,-122 36,-122"/>
<text text-anchor="middle" x="86.5" y="-178" font-family="Helvetica,sans-Serif" font-size="10.00" fill="#000000">DeembedderParser</text>
<polyline fill="none" stroke="#000000" points="36,-171 137,-171 "/>
<text text-anchor="start" x="44" y="-159" font-family="Helvetica,sans-Serif" font-size="10.00" fill="#000000">+ m_sd</text>
<text text-anchor="start" x="44" y="-148" font-family="Helvetica,sans-Serif" font-size="10.00" fill="#000000">+ m_ul</text>
<polyline fill="none" stroke="#000000" points="36,-141 137,-141 "/>
<text text-anchor="start" x="44" y="-129" font-family="Helvetica,sans-Serif" font-size="10.00" fill="#000000">+ __init__()</text>
</a>
</g>
</g>
<!-- Node1&#45;&gt;Node2 -->
<g id="edge2" class="edge">
<title>Node1&#45;&gt;Node2</title>
<path fill="none" stroke="#191970" d="M201.9647,-261.5854C175.3143,-237.2152 146.1403,-210.5374 123.7851,-190.0949"/>
<polygon fill="none" stroke="#191970" points="199.6652,-264.2253 209.4068,-268.3907 204.389,-259.0595 199.6652,-264.2253"/>
</g>
<!-- Node4 -->
<g id="node5" class="node">
<title>Node4</title>
<g id="a_node5"><a xlink:href="classSignalIntegrity_1_1Lib_1_1Parsers_1_1SimulatorParser_1_1SimulatorParser.xhtml" target="_top" xlink:title="base class for netlist based simulation solutions ">
<polygon fill="#ffffff" stroke="#000000" points="164.5,-122 164.5,-190 250.5,-190 250.5,-122 164.5,-122"/>
<text text-anchor="middle" x="207.5" y="-178" font-family="Helvetica,sans-Serif" font-size="10.00" fill="#000000">SimulatorParser</text>
<polyline fill="none" stroke="#000000" points="164.5,-171 250.5,-171 "/>
<text text-anchor="start" x="172.5" y="-159" font-family="Helvetica,sans-Serif" font-size="10.00" fill="#000000">+ m_sd</text>
<text text-anchor="start" x="172.5" y="-148" font-family="Helvetica,sans-Serif" font-size="10.00" fill="#000000">+ m_ul</text>
<polyline fill="none" stroke="#000000" points="164.5,-141 250.5,-141 "/>
<text text-anchor="start" x="172.5" y="-129" font-family="Helvetica,sans-Serif" font-size="10.00" fill="#000000">+ __init__()</text>
</a>
</g>
</g>
<!-- Node1&#45;&gt;Node4 -->
<g id="edge4" class="edge">
<title>Node1&#45;&gt;Node4</title>
<path fill="none" stroke="#191970" d="M233.3542,-222.9858C228.8185,-211.2343 224.472,-199.973 220.6801,-190.1486"/>
<polygon fill="none" stroke="#191970" points="230.1592,-224.4283 237.0253,-232.4973 236.6897,-221.9078 230.1592,-224.4283"/>
</g>
<!-- Node6 -->
<g id="node7" class="node">
<title>Node6</title>
<g id="a_node7"><a xlink:href="classSignalIntegrity_1_1Lib_1_1Parsers_1_1SystemSParametersParser_1_1SystemSParametersNumericParser.xhtml" target="_top" xlink:title="generates system s&#45;parameters from a netlist ">
<polygon fill="#ffffff" stroke="#000000" points="268.5,-116.5 268.5,-195.5 412.5,-195.5 412.5,-116.5 268.5,-116.5"/>
<text text-anchor="start" x="276.5" y="-183.5" font-family="Helvetica,sans-Serif" font-size="10.00" fill="#000000">SystemSParametersNumeric</text>
<text text-anchor="middle" x="340.5" y="-172.5" font-family="Helvetica,sans-Serif" font-size="10.00" fill="#000000">Parser</text>
<polyline fill="none" stroke="#000000" points="268.5,-165.5 412.5,-165.5 "/>
<text text-anchor="start" x="276.5" y="-153.5" font-family="Helvetica,sans-Serif" font-size="10.00" fill="#000000">+ sf</text>
<polyline fill="none" stroke="#000000" points="268.5,-146.5 412.5,-146.5 "/>
<text text-anchor="start" x="276.5" y="-134.5" font-family="Helvetica,sans-Serif" font-size="10.00" fill="#000000">+ __init__()</text>
<text text-anchor="start" x="276.5" y="-123.5" font-family="Helvetica,sans-Serif" font-size="10.00" fill="#000000">+ SParameters()</text>
</a>
</g>
</g>
<!-- Node1&#45;&gt;Node6 -->
<g id="edge6" class="edge">
<title>Node1&#45;&gt;Node6</title>
<path fill="none" stroke="#191970" d="M314.1955,-223.1355C317.9871,-213.4583 321.6497,-204.1105 324.9763,-195.6203"/>
<polygon fill="none" stroke="#191970" points="310.9168,-221.9096 310.5274,-232.4973 317.4343,-224.4633 310.9168,-221.9096"/>
</g>
<!-- Node7 -->
<g id="node8" class="node">
<title>Node7</title>
<g id="a_node8"><a xlink:href="classSignalIntegrity_1_1Lib_1_1Parsers_1_1VirtualProbeParser_1_1VirtualProbeParser.xhtml" target="_top" xlink:title="base class for netlist based virtual probing solutions ">
<polygon fill="#ffffff" stroke="#000000" points="430.5,-122 430.5,-190 528.5,-190 528.5,-122 430.5,-122"/>
<text text-anchor="middle" x="479.5" y="-178" font-family="Helvetica,sans-Serif" font-size="10.00" fill="#000000">VirtualProbeParser</text>
<polyline fill="none" stroke="#000000" points="430.5,-171 528.5,-171 "/>
<text text-anchor="start" x="438.5" y="-159" font-family="Helvetica,sans-Serif" font-size="10.00" fill="#000000">+ m_sd</text>
<text text-anchor="start" x="438.5" y="-148" font-family="Helvetica,sans-Serif" font-size="10.00" fill="#000000">+ m_ul</text>
<polyline fill="none" stroke="#000000" points="430.5,-141 528.5,-141 "/>
<text text-anchor="start" x="438.5" y="-129" font-family="Helvetica,sans-Serif" font-size="10.00" fill="#000000">+ __init__()</text>
</a>
</g>
</g>
<!-- Node1&#45;&gt;Node7 -->
<g id="edge7" class="edge">
<title>Node1&#45;&gt;Node7</title>
<path fill="none" stroke="#191970" d="M345.38,-267.3326C376.5631,-241.4476 411.9463,-212.0762 438.5374,-190.0029"/>
<polygon fill="none" stroke="#191970" points="343.0094,-264.7516 337.5505,-273.8319 347.4805,-270.1378 343.0094,-264.7516"/>
</g>
<!-- Node3 -->
<g id="node4" class="node">
<title>Node3</title>
<g id="a_node4"><a xlink:href="classSignalIntegrity_1_1Lib_1_1Parsers_1_1DeembedderNumericParser_1_1DeembedderNumericParser.xhtml" target="_top" xlink:title="generates deembedd s&#45;parameters from a netlist ">
<polygon fill="#ffffff" stroke="#000000" points="0,-6 0,-74 137,-74 137,-6 0,-6"/>
<text text-anchor="middle" x="68.5" y="-62" font-family="Helvetica,sans-Serif" font-size="10.00" fill="#000000">DeembedderNumericParser</text>
<polyline fill="none" stroke="#000000" points="0,-55 137,-55 "/>
<text text-anchor="start" x="8" y="-43" font-family="Helvetica,sans-Serif" font-size="10.00" fill="#000000">+ sf</text>
<polyline fill="none" stroke="#000000" points="0,-36 137,-36 "/>
<text text-anchor="start" x="8" y="-24" font-family="Helvetica,sans-Serif" font-size="10.00" fill="#000000">+ __init__()</text>
<text text-anchor="start" x="8" y="-13" font-family="Helvetica,sans-Serif" font-size="10.00" fill="#000000">+ Deembed()</text>
</a>
</g>
</g>
<!-- Node2&#45;&gt;Node3 -->
<g id="edge3" class="edge">
<title>Node2&#45;&gt;Node3</title>
<path fill="none" stroke="#191970" d="M79.6235,-111.6851C77.7025,-99.3048 75.6445,-86.0422 73.8275,-74.333"/>
<polygon fill="none" stroke="#191970" points="76.2047,-112.4785 81.1968,-121.8236 83.1219,-111.4051 76.2047,-112.4785"/>
</g>
<!-- Node5 -->
<g id="node6" class="node">
<title>Node5</title>
<g id="a_node6"><a xlink:href="classSignalIntegrity_1_1Lib_1_1Parsers_1_1SimulatorNumericParser_1_1SimulatorNumericParser.xhtml" target="_top" xlink:title="performs numeric simulations from netlists ">
<polygon fill="#ffffff" stroke="#000000" points="155,-6 155,-74 278,-74 278,-6 155,-6"/>
<text text-anchor="middle" x="216.5" y="-62" font-family="Helvetica,sans-Serif" font-size="10.00" fill="#000000">SimulatorNumericParser</text>
<polyline fill="none" stroke="#000000" points="155,-55 278,-55 "/>
<text text-anchor="start" x="163" y="-43" font-family="Helvetica,sans-Serif" font-size="10.00" fill="#000000">+ transferMatrices</text>
<polyline fill="none" stroke="#000000" points="155,-36 278,-36 "/>
<text text-anchor="start" x="163" y="-24" font-family="Helvetica,sans-Serif" font-size="10.00" fill="#000000">+ __init__()</text>
<text text-anchor="start" x="163" y="-13" font-family="Helvetica,sans-Serif" font-size="10.00" fill="#000000">+ TransferMatrices()</text>
</a>
</g>
</g>
<!-- Node4&#45;&gt;Node5 -->
<g id="edge5" class="edge">
<title>Node4&#45;&gt;Node5</title>
<path fill="none" stroke="#191970" d="M210.9382,-111.6851C211.8988,-99.3048 212.9278,-86.0422 213.8362,-74.333"/>
<polygon fill="none" stroke="#191970" points="207.4357,-111.5828 210.1516,-121.8236 214.4148,-112.1243 207.4357,-111.5828"/>
</g>
<!-- Node8 -->
<g id="node9" class="node">
<title>Node8</title>
<g id="a_node9"><a xlink:href="classSignalIntegrity_1_1Lib_1_1Parsers_1_1VirtualProbeNumericParser_1_1VirtualProbeNumericParser.xhtml" target="_top" xlink:title="performs numeric virtual probing from netlists ">
<polygon fill="#ffffff" stroke="#000000" points="412,-.5 412,-79.5 547,-79.5 547,-.5 412,-.5"/>
<text text-anchor="middle" x="479.5" y="-67.5" font-family="Helvetica,sans-Serif" font-size="10.00" fill="#000000">VirtualProbeNumericParser</text>
<polyline fill="none" stroke="#000000" points="412,-60.5 547,-60.5 "/>
<text text-anchor="start" x="420" y="-48.5" font-family="Helvetica,sans-Serif" font-size="10.00" fill="#000000">+ transferMatrices</text>
<text text-anchor="start" x="420" y="-37.5" font-family="Helvetica,sans-Serif" font-size="10.00" fill="#000000">+ m_tm</text>
<polyline fill="none" stroke="#000000" points="412,-30.5 547,-30.5 "/>
<text text-anchor="start" x="420" y="-18.5" font-family="Helvetica,sans-Serif" font-size="10.00" fill="#000000">+ __init__()</text>
<text text-anchor="start" x="420" y="-7.5" font-family="Helvetica,sans-Serif" font-size="10.00" fill="#000000">+ TransferMatrices()</text>
</a>
</g>
</g>
<!-- Node7&#45;&gt;Node8 -->
<g id="edge8" class="edge">
<title>Node7&#45;&gt;Node8</title>
<path fill="none" stroke="#191970" d="M479.5,-111.5789C479.5,-101.0691 479.5,-89.929 479.5,-79.6468"/>
<polygon fill="none" stroke="#191970" points="476.0001,-111.8235 479.5,-121.8236 483.0001,-111.8236 476.0001,-111.8235"/>
</g>
</g>
</svg>
