<?xml version="1.0" encoding="UTF-8" standalone="no"?>
<!DOCTYPE svg PUBLIC "-//W3C//DTD SVG 1.1//EN"
 "http://www.w3.org/Graphics/SVG/1.1/DTD/svg11.dtd">
<!-- Generated by graphviz version 2.43.0 (0)
 -->
<!-- Title: FirFilter Pages: 1 -->
<svg width="638pt" height="331pt"
 viewBox="0.00 0.00 637.50 331.00" xmlns="http://www.w3.org/2000/svg" xmlns:xlink="http://www.w3.org/1999/xlink">
<g id="graph0" class="graph" transform="scale(1 1) rotate(0) translate(4 327)">
<title>FirFilter</title>
<polygon fill="white" stroke="transparent" points="-4,4 -4,-327 633.5,-327 633.5,4 -4,4"/>
<!-- Node1 -->
<g id="node1" class="node">
<title>Node1</title>
<g id="a_node1"><a xlink:title="base filter class for all FIR filters">
<polygon fill="#bfbfbf" stroke="black" points="275.5,-105.5 275.5,-228.5 387.5,-228.5 387.5,-105.5 275.5,-105.5"/>
<text text-anchor="middle" x="331.5" y="-216.5" font-family="Helvetica,sans-Serif" font-size="10.00">FirFilter</text>
<polyline fill="none" stroke="black" points="275.5,-209.5 387.5,-209.5 "/>
<text text-anchor="start" x="283.5" y="-197.5" font-family="Helvetica,sans-Serif" font-size="10.00">+ m_fd</text>
<text text-anchor="start" x="283.5" y="-186.5" font-family="Helvetica,sans-Serif" font-size="10.00">+ m_ft</text>
<polyline fill="none" stroke="black" points="275.5,-179.5 387.5,-179.5 "/>
<text text-anchor="start" x="283.5" y="-167.5" font-family="Helvetica,sans-Serif" font-size="10.00">+ __init__()</text>
<text text-anchor="start" x="283.5" y="-156.5" font-family="Helvetica,sans-Serif" font-size="10.00">+ ProcessWaveform()</text>
<text text-anchor="start" x="283.5" y="-145.5" font-family="Helvetica,sans-Serif" font-size="10.00">+ FilterTaps()</text>
<text text-anchor="start" x="283.5" y="-134.5" font-family="Helvetica,sans-Serif" font-size="10.00">+ FilterDescriptor()</text>
<text text-anchor="start" x="283.5" y="-123.5" font-family="Helvetica,sans-Serif" font-size="10.00">+ FilterWaveform()</text>
<text text-anchor="start" x="283.5" y="-112.5" font-family="Helvetica,sans-Serif" font-size="10.00">+ Print()</text>
</a>
</g>
</g>
<!-- Node3 -->
<g id="node3" class="node">
<title>Node3</title>
<g id="a_node3"><a xlink:href="classSignalIntegrity_1_1Lib_1_1TimeDomain_1_1Filters_1_1InterpolatorLinear_1_1FractionalDelayFilterLinear.xhtml" target="_top" xlink:title="linear fractional delay filter">
<polygon fill="white" stroke="black" points="0,-6 0,-63 133,-63 133,-6 0,-6"/>
<text text-anchor="middle" x="66.5" y="-51" font-family="Helvetica,sans-Serif" font-size="10.00">FractionalDelayFilterLinear</text>
<polyline fill="none" stroke="black" points="0,-44 133,-44 "/>
<text text-anchor="middle" x="66.5" y="-32" font-family="Helvetica,sans-Serif" font-size="10.00"> </text>
<polyline fill="none" stroke="black" points="0,-25 133,-25 "/>
<text text-anchor="start" x="8" y="-13" font-family="Helvetica,sans-Serif" font-size="10.00">+ __init__()</text>
</a>
</g>
</g>
<!-- Node1&#45;&gt;Node3 -->
<g id="edge2" class="edge">
<title>Node1&#45;&gt;Node3</title>
<path fill="none" stroke="midnightblue" d="M266.12,-133.8C222.07,-112.11 164.58,-83.8 122.62,-63.14"/>
<polygon fill="none" stroke="midnightblue" points="264.78,-137.05 275.3,-138.32 267.88,-130.77 264.78,-137.05"/>
</g>
<!-- Node4 -->
<g id="node4" class="node">
<title>Node4</title>
<g id="a_node4"><a xlink:href="classSignalIntegrity_1_1Lib_1_1TimeDomain_1_1Filters_1_1InterpolatorLinear_1_1InterpolatorLinear.xhtml" target="_top" xlink:title="linear interpolating filter">
<polygon fill="white" stroke="black" points="151.5,-0.5 151.5,-68.5 249.5,-68.5 249.5,-0.5 151.5,-0.5"/>
<text text-anchor="middle" x="200.5" y="-56.5" font-family="Helvetica,sans-Serif" font-size="10.00">InterpolatorLinear</text>
<polyline fill="none" stroke="black" points="151.5,-49.5 249.5,-49.5 "/>
<text text-anchor="middle" x="200.5" y="-37.5" font-family="Helvetica,sans-Serif" font-size="10.00"> </text>
<polyline fill="none" stroke="black" points="151.5,-30.5 249.5,-30.5 "/>
<text text-anchor="start" x="159.5" y="-18.5" font-family="Helvetica,sans-Serif" font-size="10.00">+ __init__()</text>
<text text-anchor="start" x="159.5" y="-7.5" font-family="Helvetica,sans-Serif" font-size="10.00">+ FilterWaveform()</text>
</a>
</g>
</g>
<!-- Node1&#45;&gt;Node4 -->
<g id="edge3" class="edge">
<title>Node1&#45;&gt;Node4</title>
<path fill="none" stroke="midnightblue" d="M267.85,-102.59C256.04,-90.82 244.14,-78.97 233.7,-68.58"/>
<polygon fill="none" stroke="midnightblue" points="265.63,-105.32 275.18,-109.9 270.57,-100.36 265.63,-105.32"/>
</g>
<!-- Node5 -->
<g id="node5" class="node">
<title>Node5</title>
<g id="a_node5"><a xlink:href="classSignalIntegrity_1_1Lib_1_1TimeDomain_1_1Filters_1_1InterpolatorSinX_1_1FractionalDelayFilterSinX.xhtml" target="_top" xlink:title="sinx/x fractional delay filter">
<polygon fill="white" stroke="black" points="267.5,-6 267.5,-63 395.5,-63 395.5,-6 267.5,-6"/>
<text text-anchor="middle" x="331.5" y="-51" font-family="Helvetica,sans-Serif" font-size="10.00">FractionalDelayFilterSinX</text>
<polyline fill="none" stroke="black" points="267.5,-44 395.5,-44 "/>
<text text-anchor="start" x="275.5" y="-32" font-family="Helvetica,sans-Serif" font-size="10.00">+ S</text>
<polyline fill="none" stroke="black" points="267.5,-25 395.5,-25 "/>
<text text-anchor="start" x="275.5" y="-13" font-family="Helvetica,sans-Serif" font-size="10.00">+ __init__()</text>
</a>
</g>
</g>
<!-- Node1&#45;&gt;Node5 -->
<g id="edge4" class="edge">
<title>Node1&#45;&gt;Node5</title>
<path fill="none" stroke="midnightblue" d="M331.5,-95.28C331.5,-83.86 331.5,-72.67 331.5,-63.11"/>
<polygon fill="none" stroke="midnightblue" points="328,-95.33 331.5,-105.33 335,-95.33 328,-95.33"/>
</g>
<!-- Node6 -->
<g id="node6" class="node">
<title>Node6</title>
<g id="a_node6"><a xlink:href="classSignalIntegrity_1_1Lib_1_1TimeDomain_1_1Filters_1_1InterpolatorSinX_1_1InterpolatorSinX.xhtml" target="_top" xlink:title="sinx/x interpolating filter">
<polygon fill="white" stroke="black" points="413.5,-0.5 413.5,-68.5 511.5,-68.5 511.5,-0.5 413.5,-0.5"/>
<text text-anchor="middle" x="462.5" y="-56.5" font-family="Helvetica,sans-Serif" font-size="10.00">InterpolatorSinX</text>
<polyline fill="none" stroke="black" points="413.5,-49.5 511.5,-49.5 "/>
<text text-anchor="start" x="421.5" y="-37.5" font-family="Helvetica,sans-Serif" font-size="10.00">+ S</text>
<polyline fill="none" stroke="black" points="413.5,-30.5 511.5,-30.5 "/>
<text text-anchor="start" x="421.5" y="-18.5" font-family="Helvetica,sans-Serif" font-size="10.00">+ __init__()</text>
<text text-anchor="start" x="421.5" y="-7.5" font-family="Helvetica,sans-Serif" font-size="10.00">+ FilterWaveform()</text>
</a>
</g>
</g>
<!-- Node1&#45;&gt;Node6 -->
<g id="edge5" class="edge">
<title>Node1&#45;&gt;Node6</title>
<path fill="none" stroke="midnightblue" d="M395.15,-102.59C406.96,-90.82 418.86,-78.97 429.3,-68.58"/>
<polygon fill="none" stroke="midnightblue" points="392.43,-100.36 387.82,-109.9 397.37,-105.32 392.43,-100.36"/>
</g>
<!-- Node7 -->
<g id="node7" class="node">
<title>Node7</title>
<g id="a_node7"><a xlink:href="classSignalIntegrity_1_1Lib_1_1TimeDomain_1_1Filters_1_1RaisedCosineFilter_1_1RaisedCosineFilter.xhtml" target="_top" xlink:title="raised cosine filter">
<polygon fill="white" stroke="black" points="529.5,-6 529.5,-63 629.5,-63 629.5,-6 529.5,-6"/>
<text text-anchor="middle" x="579.5" y="-51" font-family="Helvetica,sans-Serif" font-size="10.00">RaisedCosineFilter</text>
<polyline fill="none" stroke="black" points="529.5,-44 629.5,-44 "/>
<text text-anchor="middle" x="579.5" y="-32" font-family="Helvetica,sans-Serif" font-size="10.00"> </text>
<polyline fill="none" stroke="black" points="529.5,-25 629.5,-25 "/>
<text text-anchor="start" x="537.5" y="-13" font-family="Helvetica,sans-Serif" font-size="10.00">+ __init__()</text>
</a>
</g>
</g>
<!-- Node1&#45;&gt;Node7 -->
<g id="edge6" class="edge">
<title>Node1&#45;&gt;Node7</title>
<path fill="none" stroke="midnightblue" d="M396.73,-133.38C433.31,-114.87 479.67,-91.06 520.5,-69 524.02,-67.1 527.65,-65.11 531.3,-63.09"/>
<polygon fill="none" stroke="midnightblue" points="394.99,-130.33 387.65,-137.97 398.15,-136.58 394.99,-130.33"/>
</g>
<!-- Node2 -->
<g id="node2" class="node">
<title>Node2</title>
<g id="a_node2"><a xlink:href="classSignalIntegrity_1_1Lib_1_1TimeDomain_1_1Filters_1_1WaveformProcessor_1_1WaveformProcessor.xhtml" target="_top" xlink:title="WaveformProcessor.py.">
<polygon fill="white" stroke="black" points="275.5,-265.5 275.5,-322.5 387.5,-322.5 387.5,-265.5 275.5,-265.5"/>
<text text-anchor="middle" x="331.5" y="-310.5" font-family="Helvetica,sans-Serif" font-size="10.00">WaveformProcessor</text>
<polyline fill="none" stroke="black" points="275.5,-303.5 387.5,-303.5 "/>
<text text-anchor="middle" x="331.5" y="-291.5" font-family="Helvetica,sans-Serif" font-size="10.00"> </text>
<polyline fill="none" stroke="black" points="275.5,-284.5 387.5,-284.5 "/>
<text text-anchor="start" x="283.5" y="-272.5" font-family="Helvetica,sans-Serif" font-size="10.00">+ ProcessWaveform()</text>
</a>
</g>
</g>
<!-- Node2&#45;&gt;Node1 -->
<g id="edge1" class="edge">
<title>Node2&#45;&gt;Node1</title>
<path fill="none" stroke="midnightblue" d="M331.5,-255.1C331.5,-246.74 331.5,-237.68 331.5,-228.67"/>
<polygon fill="none" stroke="midnightblue" points="328,-255.26 331.5,-265.26 335,-255.26 328,-255.26"/>
</g>
</g>
</svg>
