<?xml version="1.0" encoding="UTF-8" standalone="no"?>
<!DOCTYPE svg PUBLIC "-//W3C//DTD SVG 1.1//EN"
 "http://www.w3.org/Graphics/SVG/1.1/DTD/svg11.dtd">
<!-- Generated by graphviz version 2.43.0 (0)
 -->
<!-- Title: Waveform Pages: 1 -->
<svg width="889pt" height="441pt"
 viewBox="0.00 0.00 889.00 441.00" xmlns="http://www.w3.org/2000/svg" xmlns:xlink="http://www.w3.org/1999/xlink">
<g id="graph0" class="graph" transform="scale(1 1) rotate(0) translate(4 437)">
<title>Waveform</title>
<polygon fill="white" stroke="transparent" points="-4,4 -4,-437 885,-437 885,4 -4,4"/>
<!-- Node1 -->
<g id="node1" class="node">
<title>Node1</title>
<g id="a_node1"><a xlink:title="base class for all waveforms">
<polygon fill="#bfbfbf" stroke="black" points="450.5,-243.5 450.5,-432.5 562.5,-432.5 562.5,-243.5 450.5,-243.5"/>
<text text-anchor="middle" x="506.5" y="-420.5" font-family="Helvetica,sans-Serif" font-size="10.00">Waveform</text>
<polyline fill="none" stroke="black" points="450.5,-413.5 562.5,-413.5 "/>
<text text-anchor="start" x="458.5" y="-401.5" font-family="Helvetica,sans-Serif" font-size="10.00">+ td</text>
<text text-anchor="start" x="458.5" y="-390.5" font-family="Helvetica,sans-Serif" font-size="10.00">+ adaptionStrategy</text>
<text text-anchor="start" x="458.5" y="-379.5" font-family="Helvetica,sans-Serif" font-size="10.00">+ epsilon</text>
<polyline fill="none" stroke="black" points="450.5,-372.5 562.5,-372.5 "/>
<text text-anchor="start" x="458.5" y="-360.5" font-family="Helvetica,sans-Serif" font-size="10.00">+ __init__()</text>
<text text-anchor="start" x="458.5" y="-349.5" font-family="Helvetica,sans-Serif" font-size="10.00">+ Times()</text>
<text text-anchor="start" x="458.5" y="-338.5" font-family="Helvetica,sans-Serif" font-size="10.00">+ TimeDescriptor()</text>
<text text-anchor="start" x="458.5" y="-327.5" font-family="Helvetica,sans-Serif" font-size="10.00">+ Values()</text>
<text text-anchor="start" x="458.5" y="-316.5" font-family="Helvetica,sans-Serif" font-size="10.00">+ OffsetBy()</text>
<text text-anchor="start" x="458.5" y="-305.5" font-family="Helvetica,sans-Serif" font-size="10.00">+ DelayBy()</text>
<text text-anchor="start" x="458.5" y="-294.5" font-family="Helvetica,sans-Serif" font-size="10.00">+ __add__()</text>
<text text-anchor="start" x="458.5" y="-283.5" font-family="Helvetica,sans-Serif" font-size="10.00">+ __sub__()</text>
<text text-anchor="start" x="458.5" y="-272.5" font-family="Helvetica,sans-Serif" font-size="10.00">+ __radd__()</text>
<text text-anchor="start" x="458.5" y="-261.5" font-family="Helvetica,sans-Serif" font-size="10.00">+ __mul__()</text>
<text text-anchor="start" x="458.5" y="-250.5" font-family="Helvetica,sans-Serif" font-size="10.00">and 11 more...</text>
</a>
</g>
</g>
<!-- Node2 -->
<g id="node2" class="node">
<title>Node2</title>
<g id="a_node2"><a xlink:href="classSignalIntegrity_1_1Lib_1_1ImpedanceProfile_1_1ImpedanceProfileWaveform_1_1ImpedanceProfileWaveform.xhtml" target="_top" xlink:title="Computes the impedance profile waveform from a set of s&#45;parameters using the port specified.">
<polygon fill="white" stroke="black" points="0,-116.5 0,-184.5 153,-184.5 153,-116.5 0,-116.5"/>
<text text-anchor="middle" x="76.5" y="-172.5" font-family="Helvetica,sans-Serif" font-size="10.00">ImpedanceProfileWaveform</text>
<polyline fill="none" stroke="black" points="0,-165.5 153,-165.5 "/>
<text text-anchor="start" x="8" y="-153.5" font-family="Helvetica,sans-Serif" font-size="10.00">+ rhoLimit</text>
<text text-anchor="start" x="8" y="-142.5" font-family="Helvetica,sans-Serif" font-size="10.00">+ ZLimit</text>
<polyline fill="none" stroke="black" points="0,-135.5 153,-135.5 "/>
<text text-anchor="start" x="8" y="-123.5" font-family="Helvetica,sans-Serif" font-size="10.00">+ __init__()</text>
</a>
</g>
</g>
<!-- Node1&#45;&gt;Node2 -->
<g id="edge1" class="edge">
<title>Node1&#45;&gt;Node2</title>
<path fill="none" stroke="midnightblue" d="M440.8,-316.79C370.25,-294.03 255.73,-254.03 162.5,-207 149.65,-200.52 136.32,-192.58 124.1,-184.76"/>
<polygon fill="none" stroke="midnightblue" points="439.86,-320.16 450.45,-319.88 442,-313.5 439.86,-320.16"/>
</g>
<!-- Node3 -->
<g id="node3" class="node">
<title>Node3</title>
<g id="a_node3"><a xlink:href="classSignalIntegrity_1_1Lib_1_1Prbs_1_1SerialDataWaveform_1_1SerialDataWaveform.xhtml" target="_top" xlink:title="a serial data NRZ waveform">
<polygon fill="white" stroke="black" points="171,-116.5 171,-184.5 290,-184.5 290,-116.5 171,-116.5"/>
<text text-anchor="middle" x="230.5" y="-172.5" font-family="Helvetica,sans-Serif" font-size="10.00">SerialDataWaveform</text>
<polyline fill="none" stroke="black" points="171,-165.5 290,-165.5 "/>
<text text-anchor="start" x="179" y="-153.5" font-family="Helvetica,sans-Serif" font-size="10.00">+ rtvsT</text>
<polyline fill="none" stroke="black" points="171,-146.5 290,-146.5 "/>
<text text-anchor="start" x="179" y="-134.5" font-family="Helvetica,sans-Serif" font-size="10.00">+ __init__()</text>
<text text-anchor="start" x="179" y="-123.5" font-family="Helvetica,sans-Serif" font-size="10.00">+ TimeDescriptor()</text>
</a>
</g>
</g>
<!-- Node1&#45;&gt;Node3 -->
<g id="edge2" class="edge">
<title>Node1&#45;&gt;Node3</title>
<path fill="none" stroke="midnightblue" d="M441.8,-299.03C400.33,-274.05 345.8,-239.99 299.5,-207 289.73,-200.04 279.51,-192.17 270.02,-184.59"/>
<polygon fill="none" stroke="midnightblue" points="440.07,-302.08 450.44,-304.22 443.67,-296.07 440.07,-302.08"/>
</g>
<!-- Node6 -->
<g id="node6" class="node">
<title>Node6</title>
<g id="a_node6"><a xlink:href="classSignalIntegrity_1_1Lib_1_1TimeDomain_1_1Waveform_1_1ImpulseResponse_1_1ImpulseResponse.xhtml" target="_top" xlink:title="impulse response of a filter as a waveform">
<polygon fill="white" stroke="black" points="308,-94.5 308,-206.5 441,-206.5 441,-94.5 308,-94.5"/>
<text text-anchor="middle" x="374.5" y="-194.5" font-family="Helvetica,sans-Serif" font-size="10.00">ImpulseResponse</text>
<polyline fill="none" stroke="black" points="308,-187.5 441,-187.5 "/>
<text text-anchor="middle" x="374.5" y="-175.5" font-family="Helvetica,sans-Serif" font-size="10.00"> </text>
<polyline fill="none" stroke="black" points="308,-168.5 441,-168.5 "/>
<text text-anchor="start" x="316" y="-156.5" font-family="Helvetica,sans-Serif" font-size="10.00">+ __init__()</text>
<text text-anchor="start" x="316" y="-145.5" font-family="Helvetica,sans-Serif" font-size="10.00">+ DelayBy()</text>
<text text-anchor="start" x="316" y="-134.5" font-family="Helvetica,sans-Serif" font-size="10.00">+ FrequencyResponse()</text>
<text text-anchor="start" x="316" y="-123.5" font-family="Helvetica,sans-Serif" font-size="10.00">+ Resample()</text>
<text text-anchor="start" x="316" y="-112.5" font-family="Helvetica,sans-Serif" font-size="10.00">+ TrimToThreshold()</text>
<text text-anchor="start" x="316" y="-101.5" font-family="Helvetica,sans-Serif" font-size="10.00">+ FirFilter()</text>
</a>
</g>
</g>
<!-- Node1&#45;&gt;Node6 -->
<g id="edge5" class="edge">
<title>Node1&#45;&gt;Node6</title>
<path fill="none" stroke="midnightblue" d="M444.51,-249.89C434,-235.12 423.36,-220.16 413.65,-206.52"/>
<polygon fill="none" stroke="midnightblue" points="441.68,-251.94 450.33,-258.06 447.38,-247.89 441.68,-251.94"/>
</g>
<!-- Node7 -->
<g id="node7" class="node">
<title>Node7</title>
<g id="a_node7"><a xlink:href="classSignalIntegrity_1_1Lib_1_1TimeDomain_1_1Waveform_1_1NoiseWaveform_1_1NoiseWaveform.xhtml" target="_top" xlink:title="noise waveform">
<polygon fill="white" stroke="black" points="459,-122 459,-179 554,-179 554,-122 459,-122"/>
<text text-anchor="middle" x="506.5" y="-167" font-family="Helvetica,sans-Serif" font-size="10.00">NoiseWaveform</text>
<polyline fill="none" stroke="black" points="459,-160 554,-160 "/>
<text text-anchor="middle" x="506.5" y="-148" font-family="Helvetica,sans-Serif" font-size="10.00"> </text>
<polyline fill="none" stroke="black" points="459,-141 554,-141 "/>
<text text-anchor="start" x="467" y="-129" font-family="Helvetica,sans-Serif" font-size="10.00">+ __init__()</text>
</a>
</g>
</g>
<!-- Node1&#45;&gt;Node7 -->
<g id="edge6" class="edge">
<title>Node1&#45;&gt;Node7</title>
<path fill="none" stroke="midnightblue" d="M506.5,-233.31C506.5,-213.4 506.5,-194.18 506.5,-179.38"/>
<polygon fill="none" stroke="midnightblue" points="503,-233.43 506.5,-243.43 510,-233.43 503,-233.43"/>
</g>
<!-- Node8 -->
<g id="node8" class="node">
<title>Node8</title>
<g id="a_node8"><a xlink:href="classSignalIntegrity_1_1Lib_1_1TimeDomain_1_1Waveform_1_1PulseWaveform_1_1PulseWaveform.xhtml" target="_top" xlink:title="pulse waveform">
<polygon fill="white" stroke="black" points="572.5,-122 572.5,-179 666.5,-179 666.5,-122 572.5,-122"/>
<text text-anchor="middle" x="619.5" y="-167" font-family="Helvetica,sans-Serif" font-size="10.00">PulseWaveform</text>
<polyline fill="none" stroke="black" points="572.5,-160 666.5,-160 "/>
<text text-anchor="middle" x="619.5" y="-148" font-family="Helvetica,sans-Serif" font-size="10.00"> </text>
<polyline fill="none" stroke="black" points="572.5,-141 666.5,-141 "/>
<text text-anchor="start" x="580.5" y="-129" font-family="Helvetica,sans-Serif" font-size="10.00">+ __init__()</text>
</a>
</g>
</g>
<!-- Node1&#45;&gt;Node8 -->
<g id="edge7" class="edge">
<title>Node1&#45;&gt;Node8</title>
<path fill="none" stroke="midnightblue" d="M567.82,-236.34C580.66,-215.26 593.16,-194.74 602.65,-179.16"/>
<polygon fill="none" stroke="midnightblue" points="564.72,-234.7 562.5,-245.07 570.69,-238.35 564.72,-234.7"/>
</g>
<!-- Node9 -->
<g id="node9" class="node">
<title>Node9</title>
<g id="a_node9"><a xlink:href="classSignalIntegrity_1_1Lib_1_1TimeDomain_1_1Waveform_1_1SineWaveform_1_1SineWaveform.xhtml" target="_top" xlink:title="sinewave waveform">
<polygon fill="white" stroke="black" points="685,-122 685,-179 774,-179 774,-122 685,-122"/>
<text text-anchor="middle" x="729.5" y="-167" font-family="Helvetica,sans-Serif" font-size="10.00">SineWaveform</text>
<polyline fill="none" stroke="black" points="685,-160 774,-160 "/>
<text text-anchor="middle" x="729.5" y="-148" font-family="Helvetica,sans-Serif" font-size="10.00"> </text>
<polyline fill="none" stroke="black" points="685,-141 774,-141 "/>
<text text-anchor="start" x="693" y="-129" font-family="Helvetica,sans-Serif" font-size="10.00">+ __init__()</text>
</a>
</g>
</g>
<!-- Node1&#45;&gt;Node9 -->
<g id="edge8" class="edge">
<title>Node1&#45;&gt;Node9</title>
<path fill="none" stroke="midnightblue" d="M570.57,-291.1C602.92,-267.1 642.24,-236.61 675.5,-207 685.24,-198.33 695.35,-188.26 704.15,-179.1"/>
<polygon fill="none" stroke="midnightblue" points="568.47,-288.3 562.51,-297.06 572.63,-293.93 568.47,-288.3"/>
</g>
<!-- Node10 -->
<g id="node10" class="node">
<title>Node10</title>
<g id="a_node10"><a xlink:href="classSignalIntegrity_1_1Lib_1_1TimeDomain_1_1Waveform_1_1StepWaveform_1_1StepWaveform.xhtml" target="_top" xlink:title="step waveform">
<polygon fill="white" stroke="black" points="792,-122 792,-179 881,-179 881,-122 792,-122"/>
<text text-anchor="middle" x="836.5" y="-167" font-family="Helvetica,sans-Serif" font-size="10.00">StepWaveform</text>
<polyline fill="none" stroke="black" points="792,-160 881,-160 "/>
<text text-anchor="start" x="800" y="-148" font-family="Helvetica,sans-Serif" font-size="10.00">+ rtvsT</text>
<polyline fill="none" stroke="black" points="792,-141 881,-141 "/>
<text text-anchor="start" x="800" y="-129" font-family="Helvetica,sans-Serif" font-size="10.00">+ __init__()</text>
</a>
</g>
</g>
<!-- Node1&#45;&gt;Node10 -->
<g id="edge9" class="edge">
<title>Node1&#45;&gt;Node10</title>
<path fill="none" stroke="midnightblue" d="M572.1,-314.15C630.68,-291.97 717.22,-254.68 783.5,-207 794.42,-199.14 804.98,-188.85 813.75,-179.26"/>
<polygon fill="none" stroke="midnightblue" points="570.72,-310.93 562.59,-317.72 573.18,-317.49 570.72,-310.93"/>
</g>
<!-- Node4 -->
<g id="node4" class="node">
<title>Node4</title>
<g id="a_node4"><a xlink:href="classSignalIntegrity_1_1Lib_1_1Prbs_1_1ClockWaveform_1_1ClockWaveform.xhtml" target="_top" xlink:title="a clock waveform">
<polygon fill="white" stroke="black" points="114,-0.5 114,-57.5 209,-57.5 209,-0.5 114,-0.5"/>
<text text-anchor="middle" x="161.5" y="-45.5" font-family="Helvetica,sans-Serif" font-size="10.00">ClockWaveform</text>
<polyline fill="none" stroke="black" points="114,-38.5 209,-38.5 "/>
<text text-anchor="middle" x="161.5" y="-26.5" font-family="Helvetica,sans-Serif" font-size="10.00"> </text>
<polyline fill="none" stroke="black" points="114,-19.5 209,-19.5 "/>
<text text-anchor="start" x="122" y="-7.5" font-family="Helvetica,sans-Serif" font-size="10.00">+ __init__()</text>
</a>
</g>
</g>
<!-- Node3&#45;&gt;Node4 -->
<g id="edge3" class="edge">
<title>Node3&#45;&gt;Node4</title>
<path fill="none" stroke="midnightblue" d="M206.15,-107.33C196.68,-90.92 186.08,-72.57 177.59,-57.86"/>
<polygon fill="none" stroke="midnightblue" points="203.25,-109.3 211.28,-116.21 209.31,-105.8 203.25,-109.3"/>
</g>
<!-- Node5 -->
<g id="node5" class="node">
<title>Node5</title>
<g id="a_node5"><a xlink:href="classSignalIntegrity_1_1Lib_1_1Prbs_1_1PseudoRandomWaveform_1_1PseudoRandomWaveform.xhtml" target="_top" xlink:title="a PRBS waveform with a given PRBS polynomial">
<polygon fill="white" stroke="black" points="227,-0.5 227,-57.5 370,-57.5 370,-0.5 227,-0.5"/>
<text text-anchor="middle" x="298.5" y="-45.5" font-family="Helvetica,sans-Serif" font-size="10.00">PseudoRandomWaveform</text>
<polyline fill="none" stroke="black" points="227,-38.5 370,-38.5 "/>
<text text-anchor="middle" x="298.5" y="-26.5" font-family="Helvetica,sans-Serif" font-size="10.00"> </text>
<polyline fill="none" stroke="black" points="227,-19.5 370,-19.5 "/>
<text text-anchor="start" x="235" y="-7.5" font-family="Helvetica,sans-Serif" font-size="10.00">+ __init__()</text>
</a>
</g>
</g>
<!-- Node3&#45;&gt;Node5 -->
<g id="edge4" class="edge">
<title>Node3&#45;&gt;Node5</title>
<path fill="none" stroke="midnightblue" d="M254.5,-107.33C263.83,-90.92 274.28,-72.57 282.65,-57.86"/>
<polygon fill="none" stroke="midnightblue" points="251.35,-105.79 249.44,-116.21 257.43,-109.25 251.35,-105.79"/>
</g>
</g>
</svg>
