<?xml version="1.0" encoding="UTF-8" standalone="no"?>
<!DOCTYPE svg PUBLIC "-//W3C//DTD SVG 1.1//EN"
 "http://www.w3.org/Graphics/SVG/1.1/DTD/svg11.dtd">
<!-- Generated by graphviz version 2.43.0 (0)
 -->
<!-- Title: TerminationPolynomial Pages: 1 -->
<svg width="296pt" height="226pt"
 viewBox="0.00 0.00 296.00 226.00" xmlns="http://www.w3.org/2000/svg" xmlns:xlink="http://www.w3.org/1999/xlink">
<g id="graph0" class="graph" transform="scale(1 1) rotate(0) translate(4 222)">
<title>TerminationPolynomial</title>
<polygon fill="white" stroke="transparent" points="-4,4 -4,-222 292,-222 292,4 -4,4"/>
<!-- Node1 -->
<g id="node1" class="node">
<title>Node1</title>
<g id="a_node1"><a xlink:title="Base class for terminations for calibration standards.">
<polygon fill="#bfbfbf" stroke="black" points="79.5,-116.5 79.5,-217.5 208.5,-217.5 208.5,-116.5 79.5,-116.5"/>
<text text-anchor="middle" x="144" y="-205.5" font-family="Helvetica,sans-Serif" font-size="10.00">TerminationPolynomial</text>
<polyline fill="none" stroke="black" points="79.5,-198.5 208.5,-198.5 "/>
<text text-anchor="start" x="87.5" y="-186.5" font-family="Helvetica,sans-Serif" font-size="10.00">+ a0</text>
<text text-anchor="start" x="87.5" y="-175.5" font-family="Helvetica,sans-Serif" font-size="10.00">+ a1</text>
<text text-anchor="start" x="87.5" y="-164.5" font-family="Helvetica,sans-Serif" font-size="10.00">+ a2</text>
<text text-anchor="start" x="87.5" y="-153.5" font-family="Helvetica,sans-Serif" font-size="10.00">+ a3</text>
<polyline fill="none" stroke="black" points="79.5,-146.5 208.5,-146.5 "/>
<text text-anchor="start" x="87.5" y="-134.5" font-family="Helvetica,sans-Serif" font-size="10.00">+ __init__()</text>
<text text-anchor="start" x="87.5" y="-123.5" font-family="Helvetica,sans-Serif" font-size="10.00">+ Polynomial()</text>
</a>
</g>
</g>
<!-- Node2 -->
<g id="node2" class="node">
<title>Node2</title>
<g id="a_node2"><a xlink:href="classSignalIntegrity_1_1Lib_1_1Measurement_1_1CalKit_1_1Standards_1_1TerminationPolynomial_1_1TerminationCPolynomial.xhtml" target="_top" xlink:title="Class for capacitive terminations for open calibration standards.">
<polygon fill="white" stroke="black" points="0,-0.5 0,-79.5 136,-79.5 136,-0.5 0,-0.5"/>
<text text-anchor="middle" x="68" y="-67.5" font-family="Helvetica,sans-Serif" font-size="10.00">TerminationCPolynomial</text>
<polyline fill="none" stroke="black" points="0,-60.5 136,-60.5 "/>
<text text-anchor="middle" x="68" y="-48.5" font-family="Helvetica,sans-Serif" font-size="10.00"> </text>
<polyline fill="none" stroke="black" points="0,-41.5 136,-41.5 "/>
<text text-anchor="start" x="8" y="-29.5" font-family="Helvetica,sans-Serif" font-size="10.00">+ __init__()</text>
<text text-anchor="start" x="8" y="-18.5" font-family="Helvetica,sans-Serif" font-size="10.00">+ PolynomialC()</text>
<text text-anchor="start" x="8" y="-7.5" font-family="Helvetica,sans-Serif" font-size="10.00">+ __getitem__()</text>
</a>
</g>
</g>
<!-- Node1&#45;&gt;Node2 -->
<g id="edge1" class="edge">
<title>Node1&#45;&gt;Node2</title>
<path fill="none" stroke="midnightblue" d="M108.51,-107.63C102.77,-98.19 96.96,-88.63 91.6,-79.81"/>
<polygon fill="none" stroke="midnightblue" points="105.56,-109.51 113.74,-116.24 111.54,-105.87 105.56,-109.51"/>
</g>
<!-- Node3 -->
<g id="node3" class="node">
<title>Node3</title>
<g id="a_node3"><a xlink:href="classSignalIntegrity_1_1Lib_1_1Measurement_1_1CalKit_1_1Standards_1_1TerminationPolynomial_1_1TerminationLPolynomial.xhtml" target="_top" xlink:title="Class for inductive terminations for short calibration standards.">
<polygon fill="white" stroke="black" points="154,-0.5 154,-79.5 288,-79.5 288,-0.5 154,-0.5"/>
<text text-anchor="middle" x="221" y="-67.5" font-family="Helvetica,sans-Serif" font-size="10.00">TerminationLPolynomial</text>
<polyline fill="none" stroke="black" points="154,-60.5 288,-60.5 "/>
<text text-anchor="middle" x="221" y="-48.5" font-family="Helvetica,sans-Serif" font-size="10.00"> </text>
<polyline fill="none" stroke="black" points="154,-41.5 288,-41.5 "/>
<text text-anchor="start" x="162" y="-29.5" font-family="Helvetica,sans-Serif" font-size="10.00">+ __init__()</text>
<text text-anchor="start" x="162" y="-18.5" font-family="Helvetica,sans-Serif" font-size="10.00">+ PolynomialL()</text>
<text text-anchor="start" x="162" y="-7.5" font-family="Helvetica,sans-Serif" font-size="10.00">+ __getitem__()</text>
</a>
</g>
</g>
<!-- Node1&#45;&gt;Node3 -->
<g id="edge2" class="edge">
<title>Node1&#45;&gt;Node3</title>
<path fill="none" stroke="midnightblue" d="M179.96,-107.63C185.77,-98.19 191.66,-88.63 197.09,-79.81"/>
<polygon fill="none" stroke="midnightblue" points="176.92,-105.89 174.65,-116.24 182.88,-109.56 176.92,-105.89"/>
</g>
</g>
</svg>
