<?xml version="1.0" encoding="UTF-8" standalone="no"?>
<!DOCTYPE svg PUBLIC "-//W3C//DTD SVG 1.1//EN"
 "http://www.w3.org/Graphics/SVG/1.1/DTD/svg11.dtd">
<!-- Generated by graphviz version 2.43.0 (0)
 -->
<!-- Title: CallBacker Pages: 1 -->
<svg width="1204pt" height="617pt"
 viewBox="0.00 0.00 1203.50 617.00" xmlns="http://www.w3.org/2000/svg" xmlns:xlink="http://www.w3.org/1999/xlink">
<g id="graph0" class="graph" transform="scale(1 1) rotate(0) translate(4 613)">
<title>CallBacker</title>
<polygon fill="white" stroke="transparent" points="-4,4 -4,-613 1199.5,-613 1199.5,4 -4,4"/>
<!-- Node1 -->
<g id="node1" class="node">
<title>Node1</title>
<g id="a_node1"><a xlink:title="Handles Callbacks that allow progress reporting during long calculations and capability to abort.">
<polygon fill="#bfbfbf" stroke="black" points="538,-507.5 538,-608.5 645,-608.5 645,-507.5 538,-507.5"/>
<text text-anchor="middle" x="591.5" y="-596.5" font-family="Helvetica,sans-Serif" font-size="10.00">CallBacker</text>
<polyline fill="none" stroke="black" points="538,-589.5 645,-589.5 "/>
<text text-anchor="start" x="546" y="-577.5" font-family="Helvetica,sans-Serif" font-size="10.00">+ callback</text>
<polyline fill="none" stroke="black" points="538,-570.5 645,-570.5 "/>
<text text-anchor="start" x="546" y="-558.5" font-family="Helvetica,sans-Serif" font-size="10.00">+ __init__()</text>
<text text-anchor="start" x="546" y="-547.5" font-family="Helvetica,sans-Serif" font-size="10.00">+ HasACallBack()</text>
<text text-anchor="start" x="546" y="-536.5" font-family="Helvetica,sans-Serif" font-size="10.00">+ CallBack()</text>
<text text-anchor="start" x="546" y="-525.5" font-family="Helvetica,sans-Serif" font-size="10.00">+ InstallCallback()</text>
<text text-anchor="start" x="546" y="-514.5" font-family="Helvetica,sans-Serif" font-size="10.00">+ RemoveCallback()</text>
</a>
</g>
</g>
<!-- Node2 -->
<g id="node2" class="node">
<title>Node2</title>
<g id="a_node2"><a xlink:href="classSignalIntegrity_1_1Lib_1_1Eye_1_1EyeDiagramBitmap_1_1EyeDiagramBitmap.xhtml" target="_top" xlink:title="Generates the eye diagram bitmap and many associated measurements from it.">
<polygon fill="white" stroke="black" points="0,-193.5 0,-470.5 111,-470.5 111,-193.5 0,-193.5"/>
<text text-anchor="middle" x="55.5" y="-458.5" font-family="Helvetica,sans-Serif" font-size="10.00">EyeDiagramBitmap</text>
<polyline fill="none" stroke="black" points="0,-451.5 111,-451.5 "/>
<text text-anchor="start" x="8" y="-439.5" font-family="Helvetica,sans-Serif" font-size="10.00">+ YAxisMode</text>
<text text-anchor="start" x="8" y="-428.5" font-family="Helvetica,sans-Serif" font-size="10.00">+ YMax</text>
<text text-anchor="start" x="8" y="-417.5" font-family="Helvetica,sans-Serif" font-size="10.00">+ YMin</text>
<text text-anchor="start" x="8" y="-406.5" font-family="Helvetica,sans-Serif" font-size="10.00">+ RowsSpecified</text>
<text text-anchor="start" x="8" y="-395.5" font-family="Helvetica,sans-Serif" font-size="10.00">+ Cols</text>
<text text-anchor="start" x="8" y="-384.5" font-family="Helvetica,sans-Serif" font-size="10.00">+ BaudRate</text>
<text text-anchor="start" x="8" y="-373.5" font-family="Helvetica,sans-Serif" font-size="10.00">+ prbswf</text>
<text text-anchor="start" x="8" y="-362.5" font-family="Helvetica,sans-Serif" font-size="10.00">+ EnhancementMode</text>
<text text-anchor="start" x="8" y="-351.5" font-family="Helvetica,sans-Serif" font-size="10.00">+ EnhancementSteps</text>
<text text-anchor="start" x="8" y="-340.5" font-family="Helvetica,sans-Serif" font-size="10.00">+ BitsPerSymbol</text>
<text text-anchor="start" x="8" y="-329.5" font-family="Helvetica,sans-Serif" font-size="10.00">and 12 more...</text>
<polyline fill="none" stroke="black" points="0,-322.5 111,-322.5 "/>
<text text-anchor="start" x="8" y="-310.5" font-family="Helvetica,sans-Serif" font-size="10.00">+ HashValue()</text>
<text text-anchor="start" x="8" y="-299.5" font-family="Helvetica,sans-Serif" font-size="10.00">+ __init__()</text>
<text text-anchor="start" x="8" y="-288.5" font-family="Helvetica,sans-Serif" font-size="10.00">+ Bitmap()</text>
<text text-anchor="start" x="8" y="-277.5" font-family="Helvetica,sans-Serif" font-size="10.00">+ ApplyJitterNoise()</text>
<text text-anchor="start" x="8" y="-266.5" font-family="Helvetica,sans-Serif" font-size="10.00">+ AutoAlign()</text>
<text text-anchor="start" x="8" y="-255.5" font-family="Helvetica,sans-Serif" font-size="10.00">+ Measure()</text>
<text text-anchor="start" x="8" y="-244.5" font-family="Helvetica,sans-Serif" font-size="10.00">+ OpticalMeasure()</text>
<text text-anchor="start" x="8" y="-233.5" font-family="Helvetica,sans-Serif" font-size="10.00">+ Bathtub()</text>
<text text-anchor="start" x="8" y="-222.5" font-family="Helvetica,sans-Serif" font-size="10.00">+ Annotations()</text>
<text text-anchor="start" x="8" y="-211.5" font-family="Helvetica,sans-Serif" font-size="10.00">+ CreateImage()</text>
<text text-anchor="start" x="8" y="-200.5" font-family="Helvetica,sans-Serif" font-size="10.00">+ Penalties()</text>
</a>
</g>
</g>
<!-- Node1&#45;&gt;Node2 -->
<g id="edge1" class="edge">
<title>Node1&#45;&gt;Node2</title>
<path fill="none" stroke="midnightblue" d="M527.47,-552.57C413.69,-543.54 182.35,-519.62 119.5,-471 116.58,-468.74 113.78,-466.31 111.11,-463.74"/>
<polygon fill="none" stroke="midnightblue" points="527.53,-556.08 537.77,-553.37 528.07,-549.1 527.53,-556.08"/>
</g>
<!-- Node3 -->
<g id="node3" class="node">
<title>Node3</title>
<g id="a_node3"><a xlink:href="classSignalIntegrity_1_1Lib_1_1Fit_1_1LevMar_1_1LevMar.xhtml" target="_top" xlink:title="Implements the Levenberg&#45;Marquardt algorithm for non&#45;linear fitting &#160;&#160;To use this class,...">
<polygon fill="white" stroke="black" points="129,-210 129,-454 284,-454 284,-210 129,-210"/>
<text text-anchor="middle" x="206.5" y="-442" font-family="Helvetica,sans-Serif" font-size="10.00">LevMar</text>
<polyline fill="none" stroke="black" points="129,-435 284,-435 "/>
<text text-anchor="start" x="137" y="-423" font-family="Helvetica,sans-Serif" font-size="10.00">+ m_lambda</text>
<text text-anchor="start" x="137" y="-412" font-family="Helvetica,sans-Serif" font-size="10.00">+ m_lambdamin</text>
<text text-anchor="start" x="137" y="-401" font-family="Helvetica,sans-Serif" font-size="10.00">+ m_lambdamax</text>
<text text-anchor="start" x="137" y="-390" font-family="Helvetica,sans-Serif" font-size="10.00">+ m_lambdaMultiplier</text>
<text text-anchor="start" x="137" y="-379" font-family="Helvetica,sans-Serif" font-size="10.00">+ m_epsilon</text>
<text text-anchor="start" x="137" y="-368" font-family="Helvetica,sans-Serif" font-size="10.00">+ ccm</text>
<text text-anchor="start" x="137" y="-357" font-family="Helvetica,sans-Serif" font-size="10.00">+ m_a</text>
<text text-anchor="start" x="137" y="-346" font-family="Helvetica,sans-Serif" font-size="10.00">+ m_y</text>
<text text-anchor="start" x="137" y="-335" font-family="Helvetica,sans-Serif" font-size="10.00">+ m_sumw</text>
<text text-anchor="start" x="137" y="-324" font-family="Helvetica,sans-Serif" font-size="10.00">+ m_W</text>
<text text-anchor="start" x="137" y="-313" font-family="Helvetica,sans-Serif" font-size="10.00">and 10 more...</text>
<polyline fill="none" stroke="black" points="129,-306 284,-306 "/>
<text text-anchor="start" x="137" y="-294" font-family="Helvetica,sans-Serif" font-size="10.00">+ __init__()</text>
<text text-anchor="start" x="137" y="-283" font-family="Helvetica,sans-Serif" font-size="10.00">+ fF()</text>
<text text-anchor="start" x="137" y="-272" font-family="Helvetica,sans-Serif" font-size="10.00">+ fPartialFPartiala()</text>
<text text-anchor="start" x="137" y="-261" font-family="Helvetica,sans-Serif" font-size="10.00">+ fJ()</text>
<text text-anchor="start" x="137" y="-250" font-family="Helvetica,sans-Serif" font-size="10.00">+ AdjustVariablesAfterIteration()</text>
<text text-anchor="start" x="137" y="-239" font-family="Helvetica,sans-Serif" font-size="10.00">+ Initialize()</text>
<text text-anchor="start" x="137" y="-228" font-family="Helvetica,sans-Serif" font-size="10.00">+ Iterate()</text>
<text text-anchor="start" x="137" y="-217" font-family="Helvetica,sans-Serif" font-size="10.00">+ Solve()</text>
</a>
</g>
</g>
<!-- Node1&#45;&gt;Node3 -->
<g id="edge2" class="edge">
<title>Node1&#45;&gt;Node3</title>
<path fill="none" stroke="midnightblue" d="M527.92,-551.84C463.25,-543.77 362.95,-523.21 293.5,-471 286.82,-465.98 280.53,-460.28 274.62,-454.13"/>
<polygon fill="none" stroke="midnightblue" points="527.63,-555.33 537.98,-553.03 528.46,-548.38 527.63,-555.33"/>
</g>
<!-- Node4 -->
<g id="node4" class="node">
<title>Node4</title>
<g id="a_node4"><a xlink:href="classSignalIntegrity_1_1Lib_1_1Parsers_1_1CalibrationNumericParser_1_1CalibrationNumericParser.xhtml" target="_top" xlink:title="generates a calibration from a netlist">
<polygon fill="white" stroke="black" points="302.5,-298 302.5,-366 430.5,-366 430.5,-298 302.5,-298"/>
<text text-anchor="middle" x="366.5" y="-354" font-family="Helvetica,sans-Serif" font-size="10.00">CalibrationNumericParser</text>
<polyline fill="none" stroke="black" points="302.5,-347 430.5,-347 "/>
<text text-anchor="start" x="310.5" y="-335" font-family="Helvetica,sans-Serif" font-size="10.00">+ calibration</text>
<polyline fill="none" stroke="black" points="302.5,-328 430.5,-328 "/>
<text text-anchor="start" x="310.5" y="-316" font-family="Helvetica,sans-Serif" font-size="10.00">+ __init__()</text>
<text text-anchor="start" x="310.5" y="-305" font-family="Helvetica,sans-Serif" font-size="10.00">+ CalculateCalibration()</text>
</a>
</g>
</g>
<!-- Node1&#45;&gt;Node4 -->
<g id="edge3" class="edge">
<title>Node1&#45;&gt;Node4</title>
<path fill="none" stroke="midnightblue" d="M528.89,-531.6C499.1,-517.18 464.59,-496.81 439.5,-471 410.12,-440.78 389.5,-396.36 377.84,-366.13"/>
<polygon fill="none" stroke="midnightblue" points="527.44,-534.78 537.97,-535.88 530.42,-528.45 527.44,-534.78"/>
</g>
<!-- Node5 -->
<g id="node5" class="node">
<title>Node5</title>
<g id="a_node5"><a xlink:href="classSignalIntegrity_1_1Lib_1_1Parsers_1_1DeembedderNumericParser_1_1DeembedderNumericParser.xhtml" target="_top" xlink:title="generates deembedd s&#45;parameters from a netlist">
<polygon fill="white" stroke="black" points="449,-298 449,-366 586,-366 586,-298 449,-298"/>
<text text-anchor="middle" x="517.5" y="-354" font-family="Helvetica,sans-Serif" font-size="10.00">DeembedderNumericParser</text>
<polyline fill="none" stroke="black" points="449,-347 586,-347 "/>
<text text-anchor="start" x="457" y="-335" font-family="Helvetica,sans-Serif" font-size="10.00">+ sf</text>
<polyline fill="none" stroke="black" points="449,-328 586,-328 "/>
<text text-anchor="start" x="457" y="-316" font-family="Helvetica,sans-Serif" font-size="10.00">+ __init__()</text>
<text text-anchor="start" x="457" y="-305" font-family="Helvetica,sans-Serif" font-size="10.00">+ Deembed()</text>
</a>
</g>
</g>
<!-- Node1&#45;&gt;Node5 -->
<g id="edge4" class="edge">
<title>Node1&#45;&gt;Node5</title>
<path fill="none" stroke="midnightblue" d="M571.92,-497.72C558.03,-455.7 539.92,-400.86 528.49,-366.27"/>
<polygon fill="none" stroke="midnightblue" points="568.62,-498.89 575.08,-507.29 575.26,-496.69 568.62,-498.89"/>
</g>
<!-- Node6 -->
<g id="node6" class="node">
<title>Node6</title>
<g id="a_node6"><a xlink:href="classSignalIntegrity_1_1Lib_1_1Parsers_1_1SimulatorNumericParser_1_1SimulatorNumericParser.xhtml" target="_top" xlink:title="performs numeric simulations from netlists">
<polygon fill="white" stroke="black" points="604,-298 604,-366 727,-366 727,-298 604,-298"/>
<text text-anchor="middle" x="665.5" y="-354" font-family="Helvetica,sans-Serif" font-size="10.00">SimulatorNumericParser</text>
<polyline fill="none" stroke="black" points="604,-347 727,-347 "/>
<text text-anchor="start" x="612" y="-335" font-family="Helvetica,sans-Serif" font-size="10.00">+ transferMatrices</text>
<polyline fill="none" stroke="black" points="604,-328 727,-328 "/>
<text text-anchor="start" x="612" y="-316" font-family="Helvetica,sans-Serif" font-size="10.00">+ __init__()</text>
<text text-anchor="start" x="612" y="-305" font-family="Helvetica,sans-Serif" font-size="10.00">+ TransferMatrices()</text>
</a>
</g>
</g>
<!-- Node1&#45;&gt;Node6 -->
<g id="edge5" class="edge">
<title>Node1&#45;&gt;Node6</title>
<path fill="none" stroke="midnightblue" d="M611.08,-497.72C624.97,-455.7 643.08,-400.86 654.51,-366.27"/>
<polygon fill="none" stroke="midnightblue" points="607.74,-496.69 607.92,-507.29 614.38,-498.89 607.74,-496.69"/>
</g>
<!-- Node8 -->
<g id="node8" class="node">
<title>Node8</title>
<g id="a_node8"><a xlink:href="classSignalIntegrity_1_1Lib_1_1Parsers_1_1SystemSParametersParser_1_1SystemSParametersNumericParser.xhtml" target="_top" xlink:title="generates system s&#45;parameters from a netlist">
<polygon fill="white" stroke="black" points="745.5,-292.5 745.5,-371.5 889.5,-371.5 889.5,-292.5 745.5,-292.5"/>
<text text-anchor="start" x="753.5" y="-359.5" font-family="Helvetica,sans-Serif" font-size="10.00">SystemSParametersNumeric</text>
<text text-anchor="middle" x="817.5" y="-348.5" font-family="Helvetica,sans-Serif" font-size="10.00">Parser</text>
<polyline fill="none" stroke="black" points="745.5,-341.5 889.5,-341.5 "/>
<text text-anchor="start" x="753.5" y="-329.5" font-family="Helvetica,sans-Serif" font-size="10.00">+ sf</text>
<polyline fill="none" stroke="black" points="745.5,-322.5 889.5,-322.5 "/>
<text text-anchor="start" x="753.5" y="-310.5" font-family="Helvetica,sans-Serif" font-size="10.00">+ __init__()</text>
<text text-anchor="start" x="753.5" y="-299.5" font-family="Helvetica,sans-Serif" font-size="10.00">+ SParameters()</text>
</a>
</g>
</g>
<!-- Node1&#45;&gt;Node8 -->
<g id="edge7" class="edge">
<title>Node1&#45;&gt;Node8</title>
<path fill="none" stroke="midnightblue" d="M654.37,-528.67C681.82,-514.17 713.03,-494.57 736.5,-471 765.11,-442.25 787.44,-401.41 801.34,-371.62"/>
<polygon fill="none" stroke="midnightblue" points="652.5,-525.69 645.22,-533.39 655.71,-531.91 652.5,-525.69"/>
</g>
<!-- Node10 -->
<g id="node10" class="node">
<title>Node10</title>
<g id="a_node10"><a xlink:href="classSignalIntegrity_1_1Lib_1_1Parsers_1_1VirtualProbeNumericParser_1_1VirtualProbeNumericParser.xhtml" target="_top" xlink:title="performs numeric virtual probing from netlists">
<polygon fill="white" stroke="black" points="908,-292.5 908,-371.5 1043,-371.5 1043,-292.5 908,-292.5"/>
<text text-anchor="middle" x="975.5" y="-359.5" font-family="Helvetica,sans-Serif" font-size="10.00">VirtualProbeNumericParser</text>
<polyline fill="none" stroke="black" points="908,-352.5 1043,-352.5 "/>
<text text-anchor="start" x="916" y="-340.5" font-family="Helvetica,sans-Serif" font-size="10.00">+ transferMatrices</text>
<text text-anchor="start" x="916" y="-329.5" font-family="Helvetica,sans-Serif" font-size="10.00">+ m_tm</text>
<polyline fill="none" stroke="black" points="908,-322.5 1043,-322.5 "/>
<text text-anchor="start" x="916" y="-310.5" font-family="Helvetica,sans-Serif" font-size="10.00">+ __init__()</text>
<text text-anchor="start" x="916" y="-299.5" font-family="Helvetica,sans-Serif" font-size="10.00">+ TransferMatrices()</text>
</a>
</g>
</g>
<!-- Node1&#45;&gt;Node10 -->
<g id="edge9" class="edge">
<title>Node1&#45;&gt;Node10</title>
<path fill="none" stroke="midnightblue" d="M655.11,-553.35C722.09,-546.53 827.48,-526.97 898.5,-471 930.71,-445.61 951.56,-402.81 963.33,-371.6"/>
<polygon fill="none" stroke="midnightblue" points="654.73,-549.87 645.11,-554.31 655.39,-556.84 654.73,-549.87"/>
</g>
<!-- Node11 -->
<g id="node11" class="node">
<title>Node11</title>
<g id="a_node11"><a xlink:href="classSignalIntegrity_1_1Lib_1_1TimeDomain_1_1Filters_1_1TransferMatricesProcessor_1_1TransferMatricesProcessor.xhtml" target="_top" xlink:title="process transfer matrices &#160;&#160;Usually transfer matrices are produced in simulation and virtual probing ...">
<polygon fill="white" stroke="black" points="1061.5,-298 1061.5,-366 1195.5,-366 1195.5,-298 1061.5,-298"/>
<text text-anchor="middle" x="1128.5" y="-354" font-family="Helvetica,sans-Serif" font-size="10.00">TransferMatricesProcessor</text>
<polyline fill="none" stroke="black" points="1061.5,-347 1195.5,-347 "/>
<text text-anchor="start" x="1069.5" y="-335" font-family="Helvetica,sans-Serif" font-size="10.00">+ TransferMatrices</text>
<polyline fill="none" stroke="black" points="1061.5,-328 1195.5,-328 "/>
<text text-anchor="start" x="1069.5" y="-316" font-family="Helvetica,sans-Serif" font-size="10.00">+ __init__()</text>
<text text-anchor="start" x="1069.5" y="-305" font-family="Helvetica,sans-Serif" font-size="10.00">+ ProcessWaveforms()</text>
</a>
</g>
</g>
<!-- Node1&#45;&gt;Node11 -->
<g id="edge10" class="edge">
<title>Node1&#45;&gt;Node11</title>
<path fill="none" stroke="midnightblue" d="M655.43,-551.81C766.66,-541.69 989.88,-516.27 1052.5,-471 1087.86,-445.44 1108.66,-398.16 1119.32,-366.15"/>
<polygon fill="none" stroke="midnightblue" points="655,-548.33 645.35,-552.71 655.63,-555.3 655,-548.33"/>
</g>
<!-- Node7 -->
<g id="node7" class="node">
<title>Node7</title>
<g id="a_node7"><a xlink:href="classSignalIntegrity_1_1Lib_1_1Parsers_1_1NetworkAnalyzerSimulationNumericParser_1_1NetworkAnalyzerSimulationNumericParser.xhtml" target="_top" xlink:title="performs numeric simulations from netlists">
<polygon fill="white" stroke="black" points="583,-0.5 583,-156.5 720,-156.5 720,-0.5 583,-0.5"/>
<text text-anchor="start" x="591" y="-144.5" font-family="Helvetica,sans-Serif" font-size="10.00">NetworkAnalyzerSimulation</text>
<text text-anchor="middle" x="651.5" y="-133.5" font-family="Helvetica,sans-Serif" font-size="10.00">NumericParser</text>
<polyline fill="none" stroke="black" points="583,-126.5 720,-126.5 "/>
<text text-anchor="start" x="591" y="-114.5" font-family="Helvetica,sans-Serif" font-size="10.00">+ PortConnectionList</text>
<text text-anchor="start" x="591" y="-103.5" font-family="Helvetica,sans-Serif" font-size="10.00">+ DutSParameters</text>
<text text-anchor="start" x="591" y="-92.5" font-family="Helvetica,sans-Serif" font-size="10.00">+ simulationType</text>
<text text-anchor="start" x="591" y="-81.5" font-family="Helvetica,sans-Serif" font-size="10.00">+ dutknown</text>
<text text-anchor="start" x="591" y="-70.5" font-family="Helvetica,sans-Serif" font-size="10.00">+ simulationNumPorts</text>
<text text-anchor="start" x="591" y="-59.5" font-family="Helvetica,sans-Serif" font-size="10.00">+ m_lines</text>
<polyline fill="none" stroke="black" points="583,-52.5 720,-52.5 "/>
<text text-anchor="start" x="591" y="-40.5" font-family="Helvetica,sans-Serif" font-size="10.00">+ __init__()</text>
<text text-anchor="start" x="591" y="-29.5" font-family="Helvetica,sans-Serif" font-size="10.00">+ HashValue()</text>
<text text-anchor="start" x="591" y="-18.5" font-family="Helvetica,sans-Serif" font-size="10.00">+ ArrangeSimulation()</text>
<text text-anchor="start" x="591" y="-7.5" font-family="Helvetica,sans-Serif" font-size="10.00">+ TransferMatrices()</text>
</a>
</g>
</g>
<!-- Node6&#45;&gt;Node7 -->
<g id="edge6" class="edge">
<title>Node6&#45;&gt;Node7</title>
<path fill="none" stroke="midnightblue" d="M663.09,-287.71C661.09,-251.75 658.19,-199.71 655.79,-156.65"/>
<polygon fill="none" stroke="midnightblue" points="659.6,-288.07 663.66,-297.86 666.59,-287.68 659.6,-288.07"/>
</g>
<!-- Node9 -->
<g id="node9" class="node">
<title>Node9</title>
<g id="a_node9"><a xlink:href="classSignalIntegrity_1_1Lib_1_1Parsers_1_1DUTSParametersNumericParser_1_1DUTSParametersNumericParser.xhtml" target="_top" xlink:title="generates s&#45;parameters of a DUT from a network analyzer model netlist">
<polygon fill="white" stroke="black" points="738.5,-22.5 738.5,-134.5 922.5,-134.5 922.5,-22.5 738.5,-22.5"/>
<text text-anchor="middle" x="830.5" y="-122.5" font-family="Helvetica,sans-Serif" font-size="10.00">DUTSParametersNumericParser</text>
<polyline fill="none" stroke="black" points="738.5,-115.5 922.5,-115.5 "/>
<text text-anchor="start" x="746.5" y="-103.5" font-family="Helvetica,sans-Serif" font-size="10.00">+ NetworkAnalyzerProjectFile</text>
<text text-anchor="start" x="746.5" y="-92.5" font-family="Helvetica,sans-Serif" font-size="10.00">+ NetworkAnalyzerPortConnectionList</text>
<text text-anchor="start" x="746.5" y="-81.5" font-family="Helvetica,sans-Serif" font-size="10.00">+ m_lines</text>
<polyline fill="none" stroke="black" points="738.5,-74.5 922.5,-74.5 "/>
<text text-anchor="start" x="746.5" y="-62.5" font-family="Helvetica,sans-Serif" font-size="10.00">+ __init__()</text>
<text text-anchor="start" x="746.5" y="-51.5" font-family="Helvetica,sans-Serif" font-size="10.00">+ HashValue()</text>
<text text-anchor="start" x="746.5" y="-40.5" font-family="Helvetica,sans-Serif" font-size="10.00">+ ConfigureForDUTCalculation()</text>
<text text-anchor="start" x="746.5" y="-29.5" font-family="Helvetica,sans-Serif" font-size="10.00">+ SParameters()</text>
</a>
</g>
</g>
<!-- Node8&#45;&gt;Node9 -->
<g id="edge8" class="edge">
<title>Node8&#45;&gt;Node9</title>
<path fill="none" stroke="midnightblue" d="M820.02,-282.19C822.21,-239.88 825.37,-178.7 827.65,-134.63"/>
<polygon fill="none" stroke="midnightblue" points="816.52,-282.09 819.5,-292.25 823.51,-282.45 816.52,-282.09"/>
</g>
</g>
</svg>
