<?xml version="1.0" encoding="UTF-8" standalone="no"?>
<!DOCTYPE svg PUBLIC "-//W3C//DTD SVG 1.1//EN"
 "http://www.w3.org/Graphics/SVG/1.1/DTD/svg11.dtd">
<!-- Generated by graphviz version 2.43.0 (0)
 -->
<!-- Title: EyeDiagramBitmap Pages: 1 -->
<svg width="240pt" height="446pt"
 viewBox="0.00 0.00 240.00 446.00" xmlns="http://www.w3.org/2000/svg" xmlns:xlink="http://www.w3.org/1999/xlink">
<g id="graph0" class="graph" transform="scale(1 1) rotate(0) translate(4 442)">
<title>EyeDiagramBitmap</title>
<polygon fill="white" stroke="transparent" points="-4,4 -4,-442 236,-442 236,4 -4,4"/>
<!-- Node1 -->
<g id="node1" class="node">
<title>Node1</title>
<g id="a_node1"><a xlink:title="Generates the eye diagram bitmap and many associated measurements from it.">
<polygon fill="#bfbfbf" stroke="black" points="60,-0.5 60,-266.5 182,-266.5 182,-0.5 60,-0.5"/>
<text text-anchor="middle" x="121" y="-254.5" font-family="Helvetica,sans-Serif" font-size="10.00">EyeDiagramBitmap</text>
<polyline fill="none" stroke="black" points="60,-247.5 182,-247.5 "/>
<text text-anchor="start" x="68" y="-235.5" font-family="Helvetica,sans-Serif" font-size="10.00">+ YAxisMode</text>
<text text-anchor="start" x="68" y="-224.5" font-family="Helvetica,sans-Serif" font-size="10.00">+ YMax</text>
<text text-anchor="start" x="68" y="-213.5" font-family="Helvetica,sans-Serif" font-size="10.00">+ YMin</text>
<text text-anchor="start" x="68" y="-202.5" font-family="Helvetica,sans-Serif" font-size="10.00">+ RowsSpecified</text>
<text text-anchor="start" x="68" y="-191.5" font-family="Helvetica,sans-Serif" font-size="10.00">+ Cols</text>
<text text-anchor="start" x="68" y="-180.5" font-family="Helvetica,sans-Serif" font-size="10.00">+ BaudRate</text>
<text text-anchor="start" x="68" y="-169.5" font-family="Helvetica,sans-Serif" font-size="10.00">+ prbswf</text>
<text text-anchor="start" x="68" y="-158.5" font-family="Helvetica,sans-Serif" font-size="10.00">+ EnhancementMode</text>
<text text-anchor="start" x="68" y="-147.5" font-family="Helvetica,sans-Serif" font-size="10.00">+ EnhancementSteps</text>
<text text-anchor="start" x="68" y="-136.5" font-family="Helvetica,sans-Serif" font-size="10.00">+ BitsPerSymbol</text>
<text text-anchor="start" x="68" y="-125.5" font-family="Helvetica,sans-Serif" font-size="10.00">and 10 more...</text>
<polyline fill="none" stroke="black" points="60,-118.5 182,-118.5 "/>
<text text-anchor="start" x="68" y="-106.5" font-family="Helvetica,sans-Serif" font-size="10.00">+ HashValue()</text>
<text text-anchor="start" x="68" y="-95.5" font-family="Helvetica,sans-Serif" font-size="10.00">+ __init__()</text>
<text text-anchor="start" x="68" y="-84.5" font-family="Helvetica,sans-Serif" font-size="10.00">+ Bitmap()</text>
<text text-anchor="start" x="68" y="-73.5" font-family="Helvetica,sans-Serif" font-size="10.00">+ ApplyJitterNoise()</text>
<text text-anchor="start" x="68" y="-62.5" font-family="Helvetica,sans-Serif" font-size="10.00">+ AutoAlign()</text>
<text text-anchor="start" x="68" y="-51.5" font-family="Helvetica,sans-Serif" font-size="10.00">+ Measure()</text>
<text text-anchor="start" x="68" y="-40.5" font-family="Helvetica,sans-Serif" font-size="10.00">+ Bathtub()</text>
<text text-anchor="start" x="68" y="-29.5" font-family="Helvetica,sans-Serif" font-size="10.00">+ Annotations()</text>
<text text-anchor="start" x="68" y="-18.5" font-family="Helvetica,sans-Serif" font-size="10.00">+ CreateImage()</text>
<text text-anchor="start" x="68" y="-7.5" font-family="Helvetica,sans-Serif" font-size="10.00">+ Penalties()</text>
</a>
</g>
</g>
<!-- Node2 -->
<g id="node2" class="node">
<title>Node2</title>
<g id="a_node2"><a xlink:href="classSignalIntegrity_1_1Lib_1_1CallBacker_1_1CallBacker.xhtml" target="_top" xlink:title="Handles Callbacks that allow progress reporting during long calculations and capability to abort.">
<polygon fill="white" stroke="black" points="0,-320 0,-421 118,-421 118,-320 0,-320"/>
<text text-anchor="middle" x="59" y="-409" font-family="Helvetica,sans-Serif" font-size="10.00">CallBacker</text>
<polyline fill="none" stroke="black" points="0,-402 118,-402 "/>
<text text-anchor="start" x="8" y="-390" font-family="Helvetica,sans-Serif" font-size="10.00">+ callback</text>
<polyline fill="none" stroke="black" points="0,-383 118,-383 "/>
<text text-anchor="start" x="8" y="-371" font-family="Helvetica,sans-Serif" font-size="10.00">+ __init__()</text>
<text text-anchor="start" x="8" y="-360" font-family="Helvetica,sans-Serif" font-size="10.00">+ HasACallBack()</text>
<text text-anchor="start" x="8" y="-349" font-family="Helvetica,sans-Serif" font-size="10.00">+ CallBack()</text>
<text text-anchor="start" x="8" y="-338" font-family="Helvetica,sans-Serif" font-size="10.00">+ InstallCallback()</text>
<text text-anchor="start" x="8" y="-327" font-family="Helvetica,sans-Serif" font-size="10.00">+ RemoveCallback()</text>
</a>
</g>
</g>
<!-- Node2&#45;&gt;Node1 -->
<g id="edge1" class="edge">
<title>Node2&#45;&gt;Node1</title>
<path fill="none" stroke="midnightblue" d="M74.71,-309.97C78.24,-296.56 82.14,-281.8 86.12,-266.71"/>
<polygon fill="none" stroke="midnightblue" points="71.24,-309.39 72.07,-319.95 78.01,-311.17 71.24,-309.39"/>
</g>
<!-- Node3 -->
<g id="node3" class="node">
<title>Node3</title>
<g id="a_node3"><a xlink:href="classSignalIntegrity_1_1Lib_1_1ResultsCache_1_1ResultsCache.xhtml" target="_top" xlink:title="base class for results caching">
<polygon fill="white" stroke="black" points="136,-303.5 136,-437.5 232,-437.5 232,-303.5 136,-303.5"/>
<text text-anchor="middle" x="184" y="-425.5" font-family="Helvetica,sans-Serif" font-size="10.00">ResultsCache</text>
<polyline fill="none" stroke="black" points="136,-418.5 232,-418.5 "/>
<text text-anchor="start" x="144" y="-406.5" font-family="Helvetica,sans-Serif" font-size="10.00">+ filename</text>
<text text-anchor="start" x="144" y="-395.5" font-family="Helvetica,sans-Serif" font-size="10.00">+ extra</text>
<text text-anchor="start" x="144" y="-384.5" font-family="Helvetica,sans-Serif" font-size="10.00">+ hash</text>
<polyline fill="none" stroke="black" points="136,-377.5 232,-377.5 "/>
<text text-anchor="start" x="144" y="-365.5" font-family="Helvetica,sans-Serif" font-size="10.00">+ __init__()</text>
<text text-anchor="start" x="144" y="-354.5" font-family="Helvetica,sans-Serif" font-size="10.00">+ HashValue()</text>
<text text-anchor="start" x="144" y="-343.5" font-family="Helvetica,sans-Serif" font-size="10.00">+ CheckCache()</text>
<text text-anchor="start" x="144" y="-332.5" font-family="Helvetica,sans-Serif" font-size="10.00">+ CacheResult()</text>
<text text-anchor="start" x="144" y="-321.5" font-family="Helvetica,sans-Serif" font-size="10.00">+ FileTime()</text>
<text text-anchor="start" x="144" y="-310.5" font-family="Helvetica,sans-Serif" font-size="10.00">+ CheckTimes()</text>
</a>
</g>
</g>
<!-- Node3&#45;&gt;Node1 -->
<g id="edge2" class="edge">
<title>Node3&#45;&gt;Node1</title>
<path fill="none" stroke="midnightblue" d="M163.62,-293.5C161.32,-284.9 158.93,-275.97 156.5,-266.92"/>
<polygon fill="none" stroke="midnightblue" points="160.31,-294.66 166.28,-303.41 167.07,-292.85 160.31,-294.66"/>
</g>
</g>
</svg>
