<?xml version="1.0" encoding="UTF-8" standalone="no"?>
<!DOCTYPE svg PUBLIC "-//W3C//DTD SVG 1.1//EN"
 "http://www.w3.org/Graphics/SVG/1.1/DTD/svg11.dtd">
<!-- Generated by graphviz version 2.43.0 (0)
 -->
<!-- Title: DeembedderSymbolic Pages: 1 -->
<svg width="267pt" height="689pt"
 viewBox="0.00 0.00 266.50 689.00" xmlns="http://www.w3.org/2000/svg" xmlns:xlink="http://www.w3.org/1999/xlink">
<g id="graph0" class="graph" transform="scale(1 1) rotate(0) translate(4 685)">
<title>DeembedderSymbolic</title>
<polygon fill="white" stroke="transparent" points="-4,4 -4,-685 262.5,-685 262.5,4 -4,4"/>
<!-- Node1 -->
<g id="node1" class="node">
<title>Node1</title>
<g id="a_node1"><a xlink:title=" ">
<polygon fill="#bfbfbf" stroke="black" points="69.5,-0.5 69.5,-68.5 194.5,-68.5 194.5,-0.5 69.5,-0.5"/>
<text text-anchor="middle" x="132" y="-56.5" font-family="Helvetica,sans-Serif" font-size="10.00">DeembedderSymbolic</text>
<polyline fill="none" stroke="black" points="69.5,-49.5 194.5,-49.5 "/>
<text text-anchor="start" x="77.5" y="-37.5" font-family="Helvetica,sans-Serif" font-size="10.00">+ m_Sk</text>
<polyline fill="none" stroke="black" points="69.5,-30.5 194.5,-30.5 "/>
<text text-anchor="start" x="77.5" y="-18.5" font-family="Helvetica,sans-Serif" font-size="10.00">+ __init__()</text>
<text text-anchor="start" x="77.5" y="-7.5" font-family="Helvetica,sans-Serif" font-size="10.00">+ SymbolicSolution()</text>
</a>
</g>
</g>
<!-- Node2 -->
<g id="node2" class="node">
<title>Node2</title>
<g id="a_node2"><a xlink:href="classSignalIntegrity_1_1Lib_1_1SystemDescriptions_1_1Deembedder_1_1Deembedder.xhtml" target="_top" xlink:title="housekeeping base class for deembedders">
<polygon fill="white" stroke="black" points="7,-149.5 7,-272.5 123,-272.5 123,-149.5 7,-149.5"/>
<text text-anchor="middle" x="65" y="-260.5" font-family="Helvetica,sans-Serif" font-size="10.00">Deembedder</text>
<polyline fill="none" stroke="black" points="7,-253.5 123,-253.5 "/>
<text text-anchor="middle" x="65" y="-241.5" font-family="Helvetica,sans-Serif" font-size="10.00"> </text>
<polyline fill="none" stroke="black" points="7,-234.5 123,-234.5 "/>
<text text-anchor="start" x="15" y="-222.5" font-family="Helvetica,sans-Serif" font-size="10.00">+ __init__()</text>
<text text-anchor="start" x="15" y="-211.5" font-family="Helvetica,sans-Serif" font-size="10.00">+ AddUnknown()</text>
<text text-anchor="start" x="15" y="-200.5" font-family="Helvetica,sans-Serif" font-size="10.00">+ DutANames()</text>
<text text-anchor="start" x="15" y="-189.5" font-family="Helvetica,sans-Serif" font-size="10.00">+ DutBNames()</text>
<text text-anchor="start" x="15" y="-178.5" font-family="Helvetica,sans-Serif" font-size="10.00">+ UnknownNames()</text>
<text text-anchor="start" x="15" y="-167.5" font-family="Helvetica,sans-Serif" font-size="10.00">+ UnknownPorts()</text>
<text text-anchor="start" x="15" y="-156.5" font-family="Helvetica,sans-Serif" font-size="10.00">+ Partition()</text>
</a>
</g>
</g>
<!-- Node2&#45;&gt;Node1 -->
<g id="edge1" class="edge">
<title>Node2&#45;&gt;Node1</title>
<path fill="none" stroke="midnightblue" d="M91.94,-139.84C101.33,-115.39 111.43,-89.08 119.14,-69"/>
<polygon fill="none" stroke="midnightblue" points="88.56,-138.87 88.25,-149.46 95.1,-141.38 88.56,-138.87"/>
</g>
<!-- Node3 -->
<g id="node3" class="node">
<title>Node3</title>
<g id="a_node3"><a xlink:href="classSignalIntegrity_1_1Lib_1_1SystemDescriptions_1_1SystemSParameters_1_1SystemSParameters.xhtml" target="_top" xlink:title="base class for housekeeping involving system s&#45;parameters calculations">
<polygon fill="white" stroke="black" points="7,-353.5 7,-476.5 123,-476.5 123,-353.5 7,-353.5"/>
<text text-anchor="middle" x="65" y="-464.5" font-family="Helvetica,sans-Serif" font-size="10.00">SystemSParameters</text>
<polyline fill="none" stroke="black" points="7,-457.5 123,-457.5 "/>
<text text-anchor="middle" x="65" y="-445.5" font-family="Helvetica,sans-Serif" font-size="10.00"> </text>
<polyline fill="none" stroke="black" points="7,-438.5 123,-438.5 "/>
<text text-anchor="start" x="15" y="-426.5" font-family="Helvetica,sans-Serif" font-size="10.00">+ __init__()</text>
<text text-anchor="start" x="15" y="-415.5" font-family="Helvetica,sans-Serif" font-size="10.00">+ PortANames()</text>
<text text-anchor="start" x="15" y="-404.5" font-family="Helvetica,sans-Serif" font-size="10.00">+ PortBNames()</text>
<text text-anchor="start" x="15" y="-393.5" font-family="Helvetica,sans-Serif" font-size="10.00">+ OtherNames()</text>
<text text-anchor="start" x="15" y="-382.5" font-family="Helvetica,sans-Serif" font-size="10.00">+ NodeVector()</text>
<text text-anchor="start" x="15" y="-371.5" font-family="Helvetica,sans-Serif" font-size="10.00">+ StimulusVector()</text>
<text text-anchor="start" x="15" y="-360.5" font-family="Helvetica,sans-Serif" font-size="10.00"># WeightsMatrix()</text>
</a>
</g>
</g>
<!-- Node3&#45;&gt;Node2 -->
<g id="edge2" class="edge">
<title>Node3&#45;&gt;Node2</title>
<path fill="none" stroke="midnightblue" d="M65,-343.32C65,-320.24 65,-294.83 65,-272.56"/>
<polygon fill="none" stroke="midnightblue" points="61.5,-343.39 65,-353.39 68.5,-343.39 61.5,-343.39"/>
</g>
<!-- Node4 -->
<g id="node4" class="node">
<title>Node4</title>
<g id="a_node4"><a xlink:href="classSignalIntegrity_1_1Lib_1_1SystemDescriptions_1_1SystemDescription_1_1SystemDescription.xhtml" target="_top" xlink:title="Allows the construction of system descriptions for use with all of the classes that solve schematics ...">
<polygon fill="white" stroke="black" points="0,-513.5 0,-680.5 130,-680.5 130,-513.5 0,-513.5"/>
<text text-anchor="middle" x="65" y="-668.5" font-family="Helvetica,sans-Serif" font-size="10.00">SystemDescription</text>
<polyline fill="none" stroke="black" points="0,-661.5 130,-661.5 "/>
<text text-anchor="start" x="8" y="-649.5" font-family="Helvetica,sans-Serif" font-size="10.00">+ m_UniqueDevice</text>
<text text-anchor="start" x="8" y="-638.5" font-family="Helvetica,sans-Serif" font-size="10.00">+ m_UniqueNode</text>
<polyline fill="none" stroke="black" points="0,-631.5 130,-631.5 "/>
<text text-anchor="start" x="8" y="-619.5" font-family="Helvetica,sans-Serif" font-size="10.00">+ __init__()</text>
<text text-anchor="start" x="8" y="-608.5" font-family="Helvetica,sans-Serif" font-size="10.00">+ AddDevice()</text>
<text text-anchor="start" x="8" y="-597.5" font-family="Helvetica,sans-Serif" font-size="10.00">+ AssignM()</text>
<text text-anchor="start" x="8" y="-586.5" font-family="Helvetica,sans-Serif" font-size="10.00">+ DeviceNames()</text>
<text text-anchor="start" x="8" y="-575.5" font-family="Helvetica,sans-Serif" font-size="10.00">+ IndexOfDevice()</text>
<text text-anchor="start" x="8" y="-564.5" font-family="Helvetica,sans-Serif" font-size="10.00">+ CheckConnections()</text>
<text text-anchor="start" x="8" y="-553.5" font-family="Helvetica,sans-Serif" font-size="10.00">+ ConnectDevicePort()</text>
<text text-anchor="start" x="8" y="-542.5" font-family="Helvetica,sans-Serif" font-size="10.00">+ AddPort()</text>
<text text-anchor="start" x="8" y="-531.5" font-family="Helvetica,sans-Serif" font-size="10.00">+ AssignSParameters()</text>
<text text-anchor="start" x="8" y="-520.5" font-family="Helvetica,sans-Serif" font-size="10.00">+ Print()</text>
</a>
</g>
</g>
<!-- Node4&#45;&gt;Node3 -->
<g id="edge3" class="edge">
<title>Node4&#45;&gt;Node3</title>
<path fill="none" stroke="midnightblue" d="M65,-503.19C65,-494.17 65,-485.19 65,-476.61"/>
<polygon fill="none" stroke="midnightblue" points="61.5,-503.38 65,-513.38 68.5,-503.38 61.5,-503.38"/>
</g>
<!-- Node5 -->
<g id="node5" class="node">
<title>Node5</title>
<g id="a_node5"><a xlink:href="classSignalIntegrity_1_1Lib_1_1SystemDescriptions_1_1Symbolic_1_1Symbolic.xhtml" target="_top" xlink:title="base class for all symbolic solutions.">
<polygon fill="white" stroke="black" points="141.5,-105.5 141.5,-316.5 258.5,-316.5 258.5,-105.5 141.5,-105.5"/>
<text text-anchor="middle" x="200" y="-304.5" font-family="Helvetica,sans-Serif" font-size="10.00">Symbolic</text>
<polyline fill="none" stroke="black" points="141.5,-297.5 258.5,-297.5 "/>
<text text-anchor="start" x="149.5" y="-285.5" font-family="Helvetica,sans-Serif" font-size="10.00">+ m_lines</text>
<text text-anchor="start" x="149.5" y="-274.5" font-family="Helvetica,sans-Serif" font-size="10.00">+ m_docStart</text>
<text text-anchor="start" x="149.5" y="-263.5" font-family="Helvetica,sans-Serif" font-size="10.00">+ m_docEnd</text>
<text text-anchor="start" x="149.5" y="-252.5" font-family="Helvetica,sans-Serif" font-size="10.00">+ m_eqPrefix</text>
<text text-anchor="start" x="149.5" y="-241.5" font-family="Helvetica,sans-Serif" font-size="10.00">+ m_eqSuffix</text>
<text text-anchor="start" x="149.5" y="-230.5" font-family="Helvetica,sans-Serif" font-size="10.00">+ m_identity</text>
<text text-anchor="start" x="149.5" y="-219.5" font-family="Helvetica,sans-Serif" font-size="10.00">+ m_eqEnvironment</text>
<text text-anchor="start" x="149.5" y="-208.5" font-family="Helvetica,sans-Serif" font-size="10.00">+ m_small</text>
<polyline fill="none" stroke="black" points="141.5,-201.5 258.5,-201.5 "/>
<text text-anchor="start" x="149.5" y="-189.5" font-family="Helvetica,sans-Serif" font-size="10.00">+ __init__()</text>
<text text-anchor="start" x="149.5" y="-178.5" font-family="Helvetica,sans-Serif" font-size="10.00">+ Clear()</text>
<text text-anchor="start" x="149.5" y="-167.5" font-family="Helvetica,sans-Serif" font-size="10.00">+ Emit()</text>
<text text-anchor="start" x="149.5" y="-156.5" font-family="Helvetica,sans-Serif" font-size="10.00">+ DocStart()</text>
<text text-anchor="start" x="149.5" y="-145.5" font-family="Helvetica,sans-Serif" font-size="10.00">+ DocEnd()</text>
<text text-anchor="start" x="149.5" y="-134.5" font-family="Helvetica,sans-Serif" font-size="10.00">+ WriteToFile()</text>
<text text-anchor="start" x="149.5" y="-123.5" font-family="Helvetica,sans-Serif" font-size="10.00">+ Get()</text>
<text text-anchor="start" x="149.5" y="-112.5" font-family="Helvetica,sans-Serif" font-size="10.00">+ InstallSafeTees()</text>
</a>
</g>
</g>
<!-- Node5&#45;&gt;Node1 -->
<g id="edge4" class="edge">
<title>Node5&#45;&gt;Node1</title>
<path fill="none" stroke="midnightblue" d="M155.57,-95.99C151.77,-86.23 148.16,-76.98 144.96,-68.77"/>
<polygon fill="none" stroke="midnightblue" points="152.37,-97.42 159.27,-105.47 158.9,-94.88 152.37,-97.42"/>
</g>
</g>
</svg>
