<?xml version="1.0" encoding="UTF-8" standalone="no"?>
<!DOCTYPE svg PUBLIC "-//W3C//DTD SVG 1.1//EN"
 "http://www.w3.org/Graphics/SVG/1.1/DTD/svg11.dtd">
<!-- Generated by graphviz version 2.40.1 (20161225.0304)
 -->
<!-- Title: WaveformProcessor Pages: 1 -->
<svg width="969pt" height="331pt"
 viewBox="0.00 0.00 969.00 331.00" xmlns="http://www.w3.org/2000/svg" xmlns:xlink="http://www.w3.org/1999/xlink">
<g id="graph0" class="graph" transform="scale(1 1) rotate(0) translate(4 327)">
<title>WaveformProcessor</title>
<polygon fill="#ffffff" stroke="transparent" points="-4,4 -4,-327 965,-327 965,4 -4,4"/>
<!-- Node0 -->
<g id="node1" class="node">
<title>Node0</title>
<polygon fill="#bfbfbf" stroke="#000000" points="569,-265.5 569,-322.5 682,-322.5 682,-265.5 569,-265.5"/>
<text text-anchor="middle" x="625.5" y="-310.5" font-family="Helvetica,sans-Serif" font-size="10.00" fill="#000000">WaveformProcessor</text>
<polyline fill="none" stroke="#000000" points="569,-303.5 682,-303.5 "/>
<text text-anchor="middle" x="625.5" y="-291.5" font-family="Helvetica,sans-Serif" font-size="10.00" fill="#000000"> </text>
<polyline fill="none" stroke="#000000" points="569,-284.5 682,-284.5 "/>
<text text-anchor="start" x="577" y="-272.5" font-family="Helvetica,sans-Serif" font-size="10.00" fill="#000000">+ ProcessWaveform()</text>
</g>
<!-- Node1 -->
<g id="node2" class="node">
<title>Node1</title>
<g id="a_node2"><a xlink:href="classSignalIntegrity_1_1Lib_1_1TimeDomain_1_1Filters_1_1FirFilter_1_1FirFilter.xhtml" target="_top" xlink:title="base filter class for all FIR filters ">
<polygon fill="#ffffff" stroke="#000000" points="275,-105.5 275,-228.5 388,-228.5 388,-105.5 275,-105.5"/>
<text text-anchor="middle" x="331.5" y="-216.5" font-family="Helvetica,sans-Serif" font-size="10.00" fill="#000000">FirFilter</text>
<polyline fill="none" stroke="#000000" points="275,-209.5 388,-209.5 "/>
<text text-anchor="start" x="283" y="-197.5" font-family="Helvetica,sans-Serif" font-size="10.00" fill="#000000">+ m_fd</text>
<text text-anchor="start" x="283" y="-186.5" font-family="Helvetica,sans-Serif" font-size="10.00" fill="#000000">+ m_ft</text>
<polyline fill="none" stroke="#000000" points="275,-179.5 388,-179.5 "/>
<text text-anchor="start" x="283" y="-167.5" font-family="Helvetica,sans-Serif" font-size="10.00" fill="#000000">+ __init__()</text>
<text text-anchor="start" x="283" y="-156.5" font-family="Helvetica,sans-Serif" font-size="10.00" fill="#000000">+ ProcessWaveform()</text>
<text text-anchor="start" x="283" y="-145.5" font-family="Helvetica,sans-Serif" font-size="10.00" fill="#000000">+ FilterTaps()</text>
<text text-anchor="start" x="283" y="-134.5" font-family="Helvetica,sans-Serif" font-size="10.00" fill="#000000">+ FilterDescriptor()</text>
<text text-anchor="start" x="283" y="-123.5" font-family="Helvetica,sans-Serif" font-size="10.00" fill="#000000">+ FilterWaveform()</text>
<text text-anchor="start" x="283" y="-112.5" font-family="Helvetica,sans-Serif" font-size="10.00" fill="#000000">+ Print()</text>
</a>
</g>
</g>
<!-- Node0&#45;&gt;Node1 -->
<g id="edge1" class="edge">
<title>Node0&#45;&gt;Node1</title>
<path fill="none" stroke="#191970" d="M558.8703,-283.6696C511.572,-274.3248 447.8048,-257.532 397.5,-229 394.3548,-227.2161 391.242,-225.2523 388.1812,-223.1553"/>
<polygon fill="none" stroke="#191970" points="558.2227,-287.1091 568.7025,-285.5522 559.5391,-280.234 558.2227,-287.1091"/>
</g>
<!-- Node7 -->
<g id="node8" class="node">
<title>Node7</title>
<g id="a_node8"><a xlink:href="classSignalIntegrity_1_1Lib_1_1TimeDomain_1_1Filters_1_1InterpolatorLinear_1_1InterpolatorFractionalDelayFilterLinear.xhtml" target="_top" xlink:title="combination linear fractional delay and interpolating filter ">
<polygon fill="#ffffff" stroke="#000000" points="406.5,-116.5 406.5,-217.5 540.5,-217.5 540.5,-116.5 406.5,-116.5"/>
<text text-anchor="start" x="414.5" y="-205.5" font-family="Helvetica,sans-Serif" font-size="10.00" fill="#000000">InterpolatorFractionalDelay</text>
<text text-anchor="middle" x="473.5" y="-194.5" font-family="Helvetica,sans-Serif" font-size="10.00" fill="#000000">FilterLinear</text>
<polyline fill="none" stroke="#000000" points="406.5,-187.5 540.5,-187.5 "/>
<text text-anchor="start" x="414.5" y="-175.5" font-family="Helvetica,sans-Serif" font-size="10.00" fill="#000000">+ fdf</text>
<text text-anchor="start" x="414.5" y="-164.5" font-family="Helvetica,sans-Serif" font-size="10.00" fill="#000000">+ usf</text>
<polyline fill="none" stroke="#000000" points="406.5,-157.5 540.5,-157.5 "/>
<text text-anchor="start" x="414.5" y="-145.5" font-family="Helvetica,sans-Serif" font-size="10.00" fill="#000000">+ __init__()</text>
<text text-anchor="start" x="414.5" y="-134.5" font-family="Helvetica,sans-Serif" font-size="10.00" fill="#000000">+ ProcessWaveform()</text>
<text text-anchor="start" x="414.5" y="-123.5" font-family="Helvetica,sans-Serif" font-size="10.00" fill="#000000">+ FilterWaveform()</text>
</a>
</g>
</g>
<!-- Node0&#45;&gt;Node7 -->
<g id="edge7" class="edge">
<title>Node0&#45;&gt;Node7</title>
<path fill="none" stroke="#191970" d="M583.6179,-259.0064C568.3191,-246.2239 550.6928,-231.4966 534.0906,-217.625"/>
<polygon fill="none" stroke="#191970" points="581.4701,-261.7728 591.3882,-265.4987 585.9584,-256.401 581.4701,-261.7728"/>
</g>
<!-- Node8 -->
<g id="node9" class="node">
<title>Node8</title>
<g id="a_node9"><a xlink:href="classSignalIntegrity_1_1Lib_1_1TimeDomain_1_1Filters_1_1InterpolatorSinX_1_1InterpolatorFractionalDelayFilterSinX.xhtml" target="_top" xlink:title="combination sinx/x fractional delay and interpolating filter ">
<polygon fill="#ffffff" stroke="#000000" points="558.5,-116.5 558.5,-217.5 692.5,-217.5 692.5,-116.5 558.5,-116.5"/>
<text text-anchor="start" x="566.5" y="-205.5" font-family="Helvetica,sans-Serif" font-size="10.00" fill="#000000">InterpolatorFractionalDelay</text>
<text text-anchor="middle" x="625.5" y="-194.5" font-family="Helvetica,sans-Serif" font-size="10.00" fill="#000000">FilterSinX</text>
<polyline fill="none" stroke="#000000" points="558.5,-187.5 692.5,-187.5 "/>
<text text-anchor="start" x="566.5" y="-175.5" font-family="Helvetica,sans-Serif" font-size="10.00" fill="#000000">+ fdf</text>
<text text-anchor="start" x="566.5" y="-164.5" font-family="Helvetica,sans-Serif" font-size="10.00" fill="#000000">+ usf</text>
<polyline fill="none" stroke="#000000" points="558.5,-157.5 692.5,-157.5 "/>
<text text-anchor="start" x="566.5" y="-145.5" font-family="Helvetica,sans-Serif" font-size="10.00" fill="#000000">+ __init__()</text>
<text text-anchor="start" x="566.5" y="-134.5" font-family="Helvetica,sans-Serif" font-size="10.00" fill="#000000">+ ProcessWaveform()</text>
<text text-anchor="start" x="566.5" y="-123.5" font-family="Helvetica,sans-Serif" font-size="10.00" fill="#000000">+ FilterWaveform()</text>
</a>
</g>
</g>
<!-- Node0&#45;&gt;Node8 -->
<g id="edge8" class="edge">
<title>Node0&#45;&gt;Node8</title>
<path fill="none" stroke="#191970" d="M625.5,-255.4413C625.5,-243.5288 625.5,-230.224 625.5,-217.625"/>
<polygon fill="none" stroke="#191970" points="622.0001,-255.4987 625.5,-265.4987 629.0001,-255.4988 622.0001,-255.4987"/>
</g>
<!-- Node9 -->
<g id="node10" class="node">
<title>Node9</title>
<g id="a_node10"><a xlink:href="classSignalIntegrity_1_1Lib_1_1TimeDomain_1_1Filters_1_1WaveformDecimator_1_1WaveformDecimator.xhtml" target="_top" xlink:title="decimates waveforms ">
<polygon fill="#ffffff" stroke="#000000" points="711,-122 711,-212 830,-212 830,-122 711,-122"/>
<text text-anchor="middle" x="770.5" y="-200" font-family="Helvetica,sans-Serif" font-size="10.00" fill="#000000">WaveformDecimator</text>
<polyline fill="none" stroke="#000000" points="711,-193 830,-193 "/>
<text text-anchor="start" x="719" y="-181" font-family="Helvetica,sans-Serif" font-size="10.00" fill="#000000">+ df</text>
<text text-anchor="start" x="719" y="-170" font-family="Helvetica,sans-Serif" font-size="10.00" fill="#000000">+ dph</text>
<polyline fill="none" stroke="#000000" points="711,-163 830,-163 "/>
<text text-anchor="start" x="719" y="-151" font-family="Helvetica,sans-Serif" font-size="10.00" fill="#000000">+ __init__()</text>
<text text-anchor="start" x="719" y="-140" font-family="Helvetica,sans-Serif" font-size="10.00" fill="#000000">+ ProcessWaveform()</text>
<text text-anchor="start" x="719" y="-129" font-family="Helvetica,sans-Serif" font-size="10.00" fill="#000000">+ DecimateWaveform()</text>
</a>
</g>
</g>
<!-- Node0&#45;&gt;Node9 -->
<g id="edge9" class="edge">
<title>Node0&#45;&gt;Node9</title>
<path fill="none" stroke="#191970" d="M666.9504,-258.867C678.2074,-249.2393 690.3621,-238.7643 701.5,-229 707.6761,-223.5856 714.1299,-217.8678 720.5056,-212.1824"/>
<polygon fill="none" stroke="#191970" points="664.657,-256.223 659.3241,-265.3778 669.2021,-261.5468 664.657,-256.223"/>
</g>
<!-- Node10 -->
<g id="node11" class="node">
<title>Node10</title>
<g id="a_node11"><a xlink:href="classSignalIntegrity_1_1Lib_1_1TimeDomain_1_1Filters_1_1WaveformTrimmer_1_1WaveformTrimmer.xhtml" target="_top" xlink:title="trims waveforms ">
<polygon fill="#ffffff" stroke="#000000" points="848,-127.5 848,-206.5 961,-206.5 961,-127.5 848,-127.5"/>
<text text-anchor="middle" x="904.5" y="-194.5" font-family="Helvetica,sans-Serif" font-size="10.00" fill="#000000">WaveformTrimmer</text>
<polyline fill="none" stroke="#000000" points="848,-187.5 961,-187.5 "/>
<text text-anchor="middle" x="904.5" y="-175.5" font-family="Helvetica,sans-Serif" font-size="10.00" fill="#000000"> </text>
<polyline fill="none" stroke="#000000" points="848,-168.5 961,-168.5 "/>
<text text-anchor="start" x="856" y="-156.5" font-family="Helvetica,sans-Serif" font-size="10.00" fill="#000000">+ __init__()</text>
<text text-anchor="start" x="856" y="-145.5" font-family="Helvetica,sans-Serif" font-size="10.00" fill="#000000">+ ProcessWaveform()</text>
<text text-anchor="start" x="856" y="-134.5" font-family="Helvetica,sans-Serif" font-size="10.00" fill="#000000">+ TrimWaveform()</text>
</a>
</g>
</g>
<!-- Node0&#45;&gt;Node10 -->
<g id="edge10" class="edge">
<title>Node0&#45;&gt;Node10</title>
<path fill="none" stroke="#191970" d="M692.0538,-282.1713C736.028,-272.3931 793.7667,-255.6935 839.5,-229 849.8709,-222.9467 859.8835,-214.9258 868.8152,-206.6685"/>
<polygon fill="none" stroke="#191970" points="691.0773,-278.8014 682.0404,-284.3318 692.5537,-285.6439 691.0773,-278.8014"/>
</g>
<!-- Node2 -->
<g id="node3" class="node">
<title>Node2</title>
<g id="a_node3"><a xlink:href="classSignalIntegrity_1_1Lib_1_1TimeDomain_1_1Filters_1_1InterpolatorLinear_1_1FractionalDelayFilterLinear.xhtml" target="_top" xlink:title="linear fractional delay filter ">
<polygon fill="#ffffff" stroke="#000000" points="0,-6 0,-63 133,-63 133,-6 0,-6"/>
<text text-anchor="middle" x="66.5" y="-51" font-family="Helvetica,sans-Serif" font-size="10.00" fill="#000000">FractionalDelayFilterLinear</text>
<polyline fill="none" stroke="#000000" points="0,-44 133,-44 "/>
<text text-anchor="middle" x="66.5" y="-32" font-family="Helvetica,sans-Serif" font-size="10.00" fill="#000000"> </text>
<polyline fill="none" stroke="#000000" points="0,-25 133,-25 "/>
<text text-anchor="start" x="8" y="-13" font-family="Helvetica,sans-Serif" font-size="10.00" fill="#000000">+ __init__()</text>
</a>
</g>
</g>
<!-- Node1&#45;&gt;Node2 -->
<g id="edge2" class="edge">
<title>Node1&#45;&gt;Node2</title>
<path fill="none" stroke="#191970" d="M265.8843,-134.1921C222.3006,-112.4003 165.6299,-84.065 123.8512,-63.1756"/>
<polygon fill="none" stroke="#191970" points="264.4663,-137.3963 274.9759,-138.7379 267.5969,-131.1353 264.4663,-137.3963"/>
</g>
<!-- Node3 -->
<g id="node4" class="node">
<title>Node3</title>
<g id="a_node4"><a xlink:href="classSignalIntegrity_1_1Lib_1_1TimeDomain_1_1Filters_1_1InterpolatorLinear_1_1InterpolatorLinear.xhtml" target="_top" xlink:title="linear interpolating filter ">
<polygon fill="#ffffff" stroke="#000000" points="151.5,-.5 151.5,-68.5 249.5,-68.5 249.5,-.5 151.5,-.5"/>
<text text-anchor="middle" x="200.5" y="-56.5" font-family="Helvetica,sans-Serif" font-size="10.00" fill="#000000">InterpolatorLinear</text>
<polyline fill="none" stroke="#000000" points="151.5,-49.5 249.5,-49.5 "/>
<text text-anchor="middle" x="200.5" y="-37.5" font-family="Helvetica,sans-Serif" font-size="10.00" fill="#000000"> </text>
<polyline fill="none" stroke="#000000" points="151.5,-30.5 249.5,-30.5 "/>
<text text-anchor="start" x="159.5" y="-18.5" font-family="Helvetica,sans-Serif" font-size="10.00" fill="#000000">+ __init__()</text>
<text text-anchor="start" x="159.5" y="-7.5" font-family="Helvetica,sans-Serif" font-size="10.00" fill="#000000">+ FilterWaveform()</text>
</a>
</g>
</g>
<!-- Node1&#45;&gt;Node3 -->
<g id="edge3" class="edge">
<title>Node1&#45;&gt;Node3</title>
<path fill="none" stroke="#191970" d="M267.638,-102.4067C256.0952,-90.7318 244.4845,-78.9882 234.2411,-68.6274"/>
<polygon fill="none" stroke="#191970" points="265.2837,-105.0037 274.8034,-109.6542 270.2616,-100.0822 265.2837,-105.0037"/>
</g>
<!-- Node4 -->
<g id="node5" class="node">
<title>Node4</title>
<g id="a_node5"><a xlink:href="classSignalIntegrity_1_1Lib_1_1TimeDomain_1_1Filters_1_1InterpolatorSinX_1_1FractionalDelayFilterSinX.xhtml" target="_top" xlink:title="sinx/x fractional delay filter ">
<polygon fill="#ffffff" stroke="#000000" points="267.5,-6 267.5,-63 395.5,-63 395.5,-6 267.5,-6"/>
<text text-anchor="middle" x="331.5" y="-51" font-family="Helvetica,sans-Serif" font-size="10.00" fill="#000000">FractionalDelayFilterSinX</text>
<polyline fill="none" stroke="#000000" points="267.5,-44 395.5,-44 "/>
<text text-anchor="start" x="275.5" y="-32" font-family="Helvetica,sans-Serif" font-size="10.00" fill="#000000">+ S</text>
<polyline fill="none" stroke="#000000" points="267.5,-25 395.5,-25 "/>
<text text-anchor="start" x="275.5" y="-13" font-family="Helvetica,sans-Serif" font-size="10.00" fill="#000000">+ __init__()</text>
</a>
</g>
</g>
<!-- Node1&#45;&gt;Node4 -->
<g id="edge4" class="edge">
<title>Node1&#45;&gt;Node4</title>
<path fill="none" stroke="#191970" d="M331.5,-95.3778C331.5,-83.9913 331.5,-72.8179 331.5,-63.2148"/>
<polygon fill="none" stroke="#191970" points="328.0001,-95.4048 331.5,-105.4048 335.0001,-95.4048 328.0001,-95.4048"/>
</g>
<!-- Node5 -->
<g id="node6" class="node">
<title>Node5</title>
<g id="a_node6"><a xlink:href="classSignalIntegrity_1_1Lib_1_1TimeDomain_1_1Filters_1_1InterpolatorSinX_1_1InterpolatorSinX.xhtml" target="_top" xlink:title="sinx/x interpolating filter ">
<polygon fill="#ffffff" stroke="#000000" points="413.5,-.5 413.5,-68.5 511.5,-68.5 511.5,-.5 413.5,-.5"/>
<text text-anchor="middle" x="462.5" y="-56.5" font-family="Helvetica,sans-Serif" font-size="10.00" fill="#000000">InterpolatorSinX</text>
<polyline fill="none" stroke="#000000" points="413.5,-49.5 511.5,-49.5 "/>
<text text-anchor="start" x="421.5" y="-37.5" font-family="Helvetica,sans-Serif" font-size="10.00" fill="#000000">+ S</text>
<polyline fill="none" stroke="#000000" points="413.5,-30.5 511.5,-30.5 "/>
<text text-anchor="start" x="421.5" y="-18.5" font-family="Helvetica,sans-Serif" font-size="10.00" fill="#000000">+ __init__()</text>
<text text-anchor="start" x="421.5" y="-7.5" font-family="Helvetica,sans-Serif" font-size="10.00" fill="#000000">+ FilterWaveform()</text>
</a>
</g>
</g>
<!-- Node1&#45;&gt;Node5 -->
<g id="edge5" class="edge">
<title>Node1&#45;&gt;Node5</title>
<path fill="none" stroke="#191970" d="M395.362,-102.4067C406.9048,-90.7318 418.5155,-78.9882 428.7589,-68.6274"/>
<polygon fill="none" stroke="#191970" points="392.7384,-100.0822 388.1966,-109.6542 397.7163,-105.0037 392.7384,-100.0822"/>
</g>
<!-- Node6 -->
<g id="node7" class="node">
<title>Node6</title>
<g id="a_node7"><a xlink:href="classSignalIntegrity_1_1Lib_1_1TimeDomain_1_1Filters_1_1RaisedCosineFilter_1_1RaisedCosineFilter.xhtml" target="_top" xlink:title="raised cosine filter ">
<polygon fill="#ffffff" stroke="#000000" points="529.5,-6 529.5,-63 629.5,-63 629.5,-6 529.5,-6"/>
<text text-anchor="middle" x="579.5" y="-51" font-family="Helvetica,sans-Serif" font-size="10.00" fill="#000000">RaisedCosineFilter</text>
<polyline fill="none" stroke="#000000" points="529.5,-44 629.5,-44 "/>
<text text-anchor="middle" x="579.5" y="-32" font-family="Helvetica,sans-Serif" font-size="10.00" fill="#000000"> </text>
<polyline fill="none" stroke="#000000" points="529.5,-25 629.5,-25 "/>
<text text-anchor="start" x="537.5" y="-13" font-family="Helvetica,sans-Serif" font-size="10.00" fill="#000000">+ __init__()</text>
</a>
</g>
</g>
<!-- Node1&#45;&gt;Node6 -->
<g id="edge6" class="edge">
<title>Node1&#45;&gt;Node6</title>
<path fill="none" stroke="#191970" d="M396.9118,-105.3386C397.1078,-105.2251 397.3038,-105.1122 397.5,-105 446.9467,-76.7252 468.1913,-91.5443 520.5,-69 524.6408,-67.2154 528.8522,-65.2004 533.0222,-63.0628"/>
<polygon fill="none" stroke="#191970" points="394.7628,-102.5571 388.1968,-110.8721 398.515,-108.4666 394.7628,-102.5571"/>
</g>
</g>
</svg>
