<?xml version="1.0" encoding="UTF-8" standalone="no"?>
<!DOCTYPE svg PUBLIC "-//W3C//DTD SVG 1.1//EN"
 "http://www.w3.org/Graphics/SVG/1.1/DTD/svg11.dtd">
<!-- Generated by graphviz version 2.40.1 (20161225.0304)
 -->
<!-- Title: PseudoRandomWaveform Pages: 1 -->
<svg width="139pt" height="397pt"
 viewBox="0.00 0.00 139.00 397.00" xmlns="http://www.w3.org/2000/svg" xmlns:xlink="http://www.w3.org/1999/xlink">
<g id="graph0" class="graph" transform="scale(1 1) rotate(0) translate(4 393)">
<title>PseudoRandomWaveform</title>
<polygon fill="#ffffff" stroke="transparent" points="-4,4 -4,-393 135,-393 135,4 -4,4"/>
<!-- Node0 -->
<g id="node1" class="node">
<title>Node0</title>
<polygon fill="#bfbfbf" stroke="#000000" points="0,-.5 0,-57.5 131,-57.5 131,-.5 0,-.5"/>
<text text-anchor="middle" x="65.5" y="-45.5" font-family="Helvetica,sans-Serif" font-size="10.00" fill="#000000">PseudoRandomWaveform</text>
<polyline fill="none" stroke="#000000" points="0,-38.5 131,-38.5 "/>
<text text-anchor="middle" x="65.5" y="-26.5" font-family="Helvetica,sans-Serif" font-size="10.00" fill="#000000"> </text>
<polyline fill="none" stroke="#000000" points="0,-19.5 131,-19.5 "/>
<text text-anchor="start" x="8" y="-7.5" font-family="Helvetica,sans-Serif" font-size="10.00" fill="#000000">+ __init__()</text>
</g>
<!-- Node1 -->
<g id="node2" class="node">
<title>Node1</title>
<g id="a_node2"><a xlink:href="classSignalIntegrity_1_1Lib_1_1Prbs_1_1SerialDataWaveform_1_1SerialDataWaveform.xhtml" target="_top" xlink:title="a serial data NRZ waveform ">
<polygon fill="#ffffff" stroke="#000000" points="12,-94.5 12,-162.5 119,-162.5 119,-94.5 12,-94.5"/>
<text text-anchor="middle" x="65.5" y="-150.5" font-family="Helvetica,sans-Serif" font-size="10.00" fill="#000000">SerialDataWaveform</text>
<polyline fill="none" stroke="#000000" points="12,-143.5 119,-143.5 "/>
<text text-anchor="start" x="20" y="-131.5" font-family="Helvetica,sans-Serif" font-size="10.00" fill="#000000">+ rtvsT</text>
<polyline fill="none" stroke="#000000" points="12,-124.5 119,-124.5 "/>
<text text-anchor="start" x="20" y="-112.5" font-family="Helvetica,sans-Serif" font-size="10.00" fill="#000000">+ __init__()</text>
<text text-anchor="start" x="20" y="-101.5" font-family="Helvetica,sans-Serif" font-size="10.00" fill="#000000">+ TimeDescriptor()</text>
</a>
</g>
</g>
<!-- Node1&#45;&gt;Node0 -->
<g id="edge1" class="edge">
<title>Node1&#45;&gt;Node0</title>
<path fill="none" stroke="#191970" d="M65.5,-84.2499C65.5,-75.2373 65.5,-65.981 65.5,-57.6836"/>
<polygon fill="none" stroke="#191970" points="62.0001,-84.2577 65.5,-94.2577 69.0001,-84.2578 62.0001,-84.2577"/>
</g>
<!-- Node2 -->
<g id="node3" class="node">
<title>Node2</title>
<g id="a_node3"><a xlink:href="classSignalIntegrity_1_1Lib_1_1TimeDomain_1_1Waveform_1_1Waveform_1_1Waveform.xhtml" target="_top" xlink:title="base class for all waveforms ">
<polygon fill="#ffffff" stroke="#000000" points="16,-199.5 16,-388.5 115,-388.5 115,-199.5 16,-199.5"/>
<text text-anchor="middle" x="65.5" y="-376.5" font-family="Helvetica,sans-Serif" font-size="10.00" fill="#000000">Waveform</text>
<polyline fill="none" stroke="#000000" points="16,-369.5 115,-369.5 "/>
<text text-anchor="start" x="24" y="-357.5" font-family="Helvetica,sans-Serif" font-size="10.00" fill="#000000">+ td</text>
<text text-anchor="start" x="24" y="-346.5" font-family="Helvetica,sans-Serif" font-size="10.00" fill="#000000">+ adaptionStrategy</text>
<text text-anchor="start" x="24" y="-335.5" font-family="Helvetica,sans-Serif" font-size="10.00" fill="#000000">+ epsilon</text>
<polyline fill="none" stroke="#000000" points="16,-328.5 115,-328.5 "/>
<text text-anchor="start" x="24" y="-316.5" font-family="Helvetica,sans-Serif" font-size="10.00" fill="#000000">+ __init__()</text>
<text text-anchor="start" x="24" y="-305.5" font-family="Helvetica,sans-Serif" font-size="10.00" fill="#000000">+ Times()</text>
<text text-anchor="start" x="24" y="-294.5" font-family="Helvetica,sans-Serif" font-size="10.00" fill="#000000">+ TimeDescriptor()</text>
<text text-anchor="start" x="24" y="-283.5" font-family="Helvetica,sans-Serif" font-size="10.00" fill="#000000">+ Values()</text>
<text text-anchor="start" x="24" y="-272.5" font-family="Helvetica,sans-Serif" font-size="10.00" fill="#000000">+ OffsetBy()</text>
<text text-anchor="start" x="24" y="-261.5" font-family="Helvetica,sans-Serif" font-size="10.00" fill="#000000">+ DelayBy()</text>
<text text-anchor="start" x="24" y="-250.5" font-family="Helvetica,sans-Serif" font-size="10.00" fill="#000000">+ __add__()</text>
<text text-anchor="start" x="24" y="-239.5" font-family="Helvetica,sans-Serif" font-size="10.00" fill="#000000">+ __sub__()</text>
<text text-anchor="start" x="24" y="-228.5" font-family="Helvetica,sans-Serif" font-size="10.00" fill="#000000">+ __radd__()</text>
<text text-anchor="start" x="24" y="-217.5" font-family="Helvetica,sans-Serif" font-size="10.00" fill="#000000">+ __mul__()</text>
<text text-anchor="start" x="24" y="-206.5" font-family="Helvetica,sans-Serif" font-size="10.00" fill="#000000">and 11 more...</text>
</a>
</g>
</g>
<!-- Node2&#45;&gt;Node1 -->
<g id="edge2" class="edge">
<title>Node2&#45;&gt;Node1</title>
<path fill="none" stroke="#191970" d="M65.5,-188.9182C65.5,-179.5983 65.5,-170.6868 65.5,-162.707"/>
<polygon fill="none" stroke="#191970" points="62.0001,-189.1669 65.5,-199.167 69.0001,-189.167 62.0001,-189.1669"/>
</g>
</g>
</svg>
