<?xml version="1.0" encoding="UTF-8" standalone="no"?>
<!DOCTYPE svg PUBLIC "-//W3C//DTD SVG 1.1//EN"
 "http://www.w3.org/Graphics/SVG/1.1/DTD/svg11.dtd">
<!-- Generated by graphviz version 2.40.1 (20161225.0304)
 -->
<!-- Title: ThruStandard Pages: 1 -->
<svg width="148pt" height="524pt"
 viewBox="0.00 0.00 148.00 524.00" xmlns="http://www.w3.org/2000/svg" xmlns:xlink="http://www.w3.org/1999/xlink">
<g id="graph0" class="graph" transform="scale(1 1) rotate(0) translate(4 520)">
<title>ThruStandard</title>
<polygon fill="#ffffff" stroke="transparent" points="-4,4 -4,-520 144,-520 144,4 -4,4"/>
<!-- Node0 -->
<g id="node1" class="node">
<title>Node0</title>
<polygon fill="#bfbfbf" stroke="#000000" points="32.5,-.5 32.5,-57.5 107.5,-57.5 107.5,-.5 32.5,-.5"/>
<text text-anchor="middle" x="70" y="-45.5" font-family="Helvetica,sans-Serif" font-size="10.00" fill="#000000">ThruStandard</text>
<polyline fill="none" stroke="#000000" points="32.5,-38.5 107.5,-38.5 "/>
<text text-anchor="middle" x="70" y="-26.5" font-family="Helvetica,sans-Serif" font-size="10.00" fill="#000000"> </text>
<polyline fill="none" stroke="#000000" points="32.5,-19.5 107.5,-19.5 "/>
<text text-anchor="start" x="40.5" y="-7.5" font-family="Helvetica,sans-Serif" font-size="10.00" fill="#000000">+ __init__()</text>
</g>
<!-- Node1 -->
<g id="node2" class="node">
<title>Node1</title>
<g id="a_node2"><a xlink:href="classSignalIntegrity_1_1Lib_1_1Measurement_1_1CalKit_1_1Standards_1_1Offset_1_1Offset.xhtml" target="_top" xlink:title="class providing the s&#45;parameters of an offset portion of the various calibration standards for a cali...">
<polygon fill="#ffffff" stroke="#000000" points="37.5,-94.5 37.5,-151.5 102.5,-151.5 102.5,-94.5 37.5,-94.5"/>
<text text-anchor="middle" x="70" y="-139.5" font-family="Helvetica,sans-Serif" font-size="10.00" fill="#000000">Offset</text>
<polyline fill="none" stroke="#000000" points="37.5,-132.5 102.5,-132.5 "/>
<text text-anchor="start" x="45.5" y="-120.5" font-family="Helvetica,sans-Serif" font-size="10.00" fill="#000000">+ calcZc</text>
<polyline fill="none" stroke="#000000" points="37.5,-113.5 102.5,-113.5 "/>
<text text-anchor="start" x="45.5" y="-101.5" font-family="Helvetica,sans-Serif" font-size="10.00" fill="#000000">+ __init__()</text>
</a>
</g>
</g>
<!-- Node1&#45;&gt;Node0 -->
<g id="edge1" class="edge">
<title>Node1&#45;&gt;Node0</title>
<path fill="none" stroke="#191970" d="M70,-84.1035C70,-75.2052 70,-65.9073 70,-57.538"/>
<polygon fill="none" stroke="#191970" points="66.5001,-84.2861 70,-94.2861 73.5001,-84.2862 66.5001,-84.2861"/>
</g>
<!-- Node2 -->
<g id="node3" class="node">
<title>Node2</title>
<g id="a_node3"><a xlink:href="classSignalIntegrity_1_1Lib_1_1SParameters_1_1SParameters_1_1SParameters.xhtml" target="_top" xlink:title="Class containing s&#45;parameters. ">
<polygon fill="#ffffff" stroke="#000000" points="0,-188.5 0,-377.5 140,-377.5 140,-188.5 0,-188.5"/>
<text text-anchor="middle" x="70" y="-365.5" font-family="Helvetica,sans-Serif" font-size="10.00" fill="#000000">SParameters</text>
<polyline fill="none" stroke="#000000" points="0,-358.5 140,-358.5 "/>
<text text-anchor="start" x="8" y="-346.5" font-family="Helvetica,sans-Serif" font-size="10.00" fill="#000000">+ m_sToken</text>
<text text-anchor="start" x="8" y="-335.5" font-family="Helvetica,sans-Serif" font-size="10.00" fill="#000000">+ m_d</text>
<text text-anchor="start" x="8" y="-324.5" font-family="Helvetica,sans-Serif" font-size="10.00" fill="#000000">+ m_Z0</text>
<text text-anchor="start" x="8" y="-313.5" font-family="Helvetica,sans-Serif" font-size="10.00" fill="#000000">+ m_f</text>
<text text-anchor="start" x="8" y="-302.5" font-family="Helvetica,sans-Serif" font-size="10.00" fill="#000000">+ m_P</text>
<polyline fill="none" stroke="#000000" points="0,-295.5 140,-295.5 "/>
<text text-anchor="start" x="8" y="-283.5" font-family="Helvetica,sans-Serif" font-size="10.00" fill="#000000">+ __init__()</text>
<text text-anchor="start" x="8" y="-272.5" font-family="Helvetica,sans-Serif" font-size="10.00" fill="#000000">+ __getitem__()</text>
<text text-anchor="start" x="8" y="-261.5" font-family="Helvetica,sans-Serif" font-size="10.00" fill="#000000">+ __len__()</text>
<text text-anchor="start" x="8" y="-250.5" font-family="Helvetica,sans-Serif" font-size="10.00" fill="#000000">+ f()</text>
<text text-anchor="start" x="8" y="-239.5" font-family="Helvetica,sans-Serif" font-size="10.00" fill="#000000">+ Response()</text>
<text text-anchor="start" x="8" y="-228.5" font-family="Helvetica,sans-Serif" font-size="10.00" fill="#000000">+ FrequencyResponse()</text>
<text text-anchor="start" x="8" y="-217.5" font-family="Helvetica,sans-Serif" font-size="10.00" fill="#000000">+ WriteToFile()</text>
<text text-anchor="start" x="8" y="-206.5" font-family="Helvetica,sans-Serif" font-size="10.00" fill="#000000">+ Resample()</text>
<text text-anchor="start" x="8" y="-195.5" font-family="Helvetica,sans-Serif" font-size="10.00" fill="#000000">+ SetReferenceImpedance()</text>
</a>
</g>
</g>
<!-- Node2&#45;&gt;Node1 -->
<g id="edge2" class="edge">
<title>Node2&#45;&gt;Node1</title>
<path fill="none" stroke="#191970" d="M70,-178.0148C70,-168.5149 70,-159.5375 70,-151.6971"/>
<polygon fill="none" stroke="#191970" points="66.5001,-178.0781 70,-188.0781 73.5001,-178.0782 66.5001,-178.0781"/>
</g>
<!-- Node3 -->
<g id="node4" class="node">
<title>Node3</title>
<g id="a_node4"><a xlink:href="classSignalIntegrity_1_1Lib_1_1SParameters_1_1SParameterManipulation_1_1SParameterManipulation.xhtml" target="_top" xlink:title="Class for manipulations on s&#45;parameters involving passivity, causality, etc. ">
<polygon fill="#ffffff" stroke="#000000" points="8.5,-414.5 8.5,-515.5 131.5,-515.5 131.5,-414.5 8.5,-414.5"/>
<text text-anchor="middle" x="70" y="-503.5" font-family="Helvetica,sans-Serif" font-size="10.00" fill="#000000">SParameterManipulation</text>
<polyline fill="none" stroke="#000000" points="8.5,-496.5 131.5,-496.5 "/>
<text text-anchor="middle" x="70" y="-484.5" font-family="Helvetica,sans-Serif" font-size="10.00" fill="#000000"> </text>
<polyline fill="none" stroke="#000000" points="8.5,-477.5 131.5,-477.5 "/>
<text text-anchor="start" x="16.5" y="-465.5" font-family="Helvetica,sans-Serif" font-size="10.00" fill="#000000">+ EnforcePassivity()</text>
<text text-anchor="start" x="16.5" y="-454.5" font-family="Helvetica,sans-Serif" font-size="10.00" fill="#000000">+ IsCausal()</text>
<text text-anchor="start" x="16.5" y="-443.5" font-family="Helvetica,sans-Serif" font-size="10.00" fill="#000000">+ EnforceCausality()</text>
<text text-anchor="start" x="16.5" y="-432.5" font-family="Helvetica,sans-Serif" font-size="10.00" fill="#000000">+ WaveletDenoise()</text>
<text text-anchor="start" x="16.5" y="-421.5" font-family="Helvetica,sans-Serif" font-size="10.00" fill="#000000">+ PortReorder()</text>
</a>
</g>
</g>
<!-- Node3&#45;&gt;Node2 -->
<g id="edge3" class="edge">
<title>Node3&#45;&gt;Node2</title>
<path fill="none" stroke="#191970" d="M70,-404.1163C70,-395.584 70,-386.6535 70,-377.6753"/>
<polygon fill="none" stroke="#191970" points="66.5001,-404.3028 70,-414.3029 73.5001,-404.3029 66.5001,-404.3028"/>
</g>
</g>
</svg>
