<?xml version="1.0" encoding="UTF-8" standalone="no"?>
<!DOCTYPE svg PUBLIC "-//W3C//DTD SVG 1.1//EN"
 "http://www.w3.org/Graphics/SVG/1.1/DTD/svg11.dtd">
<!-- Generated by graphviz version 2.43.0 (0)
 -->
<!-- Title: FirFilter Pages: 1 -->
<svg width="142pt" height="237pt"
 viewBox="0.00 0.00 142.00 237.00" xmlns="http://www.w3.org/2000/svg" xmlns:xlink="http://www.w3.org/1999/xlink">
<g id="graph0" class="graph" transform="scale(1 1) rotate(0) translate(4 233)">
<title>FirFilter</title>
<polygon fill="white" stroke="transparent" points="-4,4 -4,-233 138,-233 138,4 -4,4"/>
<!-- Node1 -->
<g id="node1" class="node">
<title>Node1</title>
<g id="a_node1"><a xlink:title="base filter class for all FIR filters">
<polygon fill="#bfbfbf" stroke="black" points="0,-0.5 0,-134.5 134,-134.5 134,-0.5 0,-0.5"/>
<text text-anchor="middle" x="67" y="-122.5" font-family="Helvetica,sans-Serif" font-size="10.00">FirFilter</text>
<polyline fill="none" stroke="black" points="0,-115.5 134,-115.5 "/>
<text text-anchor="start" x="8" y="-103.5" font-family="Helvetica,sans-Serif" font-size="10.00">+ m_fd</text>
<text text-anchor="start" x="8" y="-92.5" font-family="Helvetica,sans-Serif" font-size="10.00">+ m_ft</text>
<polyline fill="none" stroke="black" points="0,-85.5 134,-85.5 "/>
<text text-anchor="start" x="8" y="-73.5" font-family="Helvetica,sans-Serif" font-size="10.00">+ __init__()</text>
<text text-anchor="start" x="8" y="-62.5" font-family="Helvetica,sans-Serif" font-size="10.00">+ ProcessWaveform()</text>
<text text-anchor="start" x="8" y="-51.5" font-family="Helvetica,sans-Serif" font-size="10.00">+ FilterTaps()</text>
<text text-anchor="start" x="8" y="-40.5" font-family="Helvetica,sans-Serif" font-size="10.00">+ FilterDescriptor()</text>
<text text-anchor="start" x="8" y="-29.5" font-family="Helvetica,sans-Serif" font-size="10.00">+ FilterWaveform()</text>
<text text-anchor="start" x="8" y="-18.5" font-family="Helvetica,sans-Serif" font-size="10.00">+ Print()</text>
<text text-anchor="start" x="8" y="-7.5" font-family="Helvetica,sans-Serif" font-size="10.00">+ NormalizeUnityDCGain()</text>
</a>
</g>
</g>
<!-- Node2 -->
<g id="node2" class="node">
<title>Node2</title>
<g id="a_node2"><a xlink:href="classSignalIntegrity_1_1Lib_1_1TimeDomain_1_1Filters_1_1WaveformProcessor_1_1WaveformProcessor.xhtml" target="_top" xlink:title="WaveformProcessor.py.">
<polygon fill="white" stroke="black" points="11,-171.5 11,-228.5 123,-228.5 123,-171.5 11,-171.5"/>
<text text-anchor="middle" x="67" y="-216.5" font-family="Helvetica,sans-Serif" font-size="10.00">WaveformProcessor</text>
<polyline fill="none" stroke="black" points="11,-209.5 123,-209.5 "/>
<text text-anchor="middle" x="67" y="-197.5" font-family="Helvetica,sans-Serif" font-size="10.00"> </text>
<polyline fill="none" stroke="black" points="11,-190.5 123,-190.5 "/>
<text text-anchor="start" x="19" y="-178.5" font-family="Helvetica,sans-Serif" font-size="10.00">+ ProcessWaveform()</text>
</a>
</g>
</g>
<!-- Node2&#45;&gt;Node1 -->
<g id="edge1" class="edge">
<title>Node2&#45;&gt;Node1</title>
<path fill="none" stroke="midnightblue" d="M67,-161.16C67,-152.78 67,-143.67 67,-134.53"/>
<polygon fill="none" stroke="midnightblue" points="63.5,-161.32 67,-171.32 70.5,-161.32 63.5,-161.32"/>
</g>
</g>
</svg>
