<?xml version="1.0" encoding="UTF-8" standalone="no"?>
<!DOCTYPE svg PUBLIC "-//W3C//DTD SVG 1.1//EN"
 "http://www.w3.org/Graphics/SVG/1.1/DTD/svg11.dtd">
<!-- Generated by graphviz version 2.43.0 (0)
 -->
<!-- Title: Wavelet Pages: 1 -->
<svg width="600pt" height="215pt"
 viewBox="0.00 0.00 599.50 215.00" xmlns="http://www.w3.org/2000/svg" xmlns:xlink="http://www.w3.org/1999/xlink">
<g id="graph0" class="graph" transform="scale(1 1) rotate(0) translate(4 211)">
<title>Wavelet</title>
<polygon fill="white" stroke="transparent" points="-4,4 -4,-211 595.5,-211 595.5,4 -4,4"/>
<!-- Node1 -->
<g id="node1" class="node">
<title>Node1</title>
<g id="a_node1"><a xlink:title="base class that performs forward and inverse wavelet transforms">
<polygon fill="#bfbfbf" stroke="black" points="286.5,-94.5 286.5,-206.5 351.5,-206.5 351.5,-94.5 286.5,-94.5"/>
<text text-anchor="middle" x="319" y="-194.5" font-family="Helvetica,sans-Serif" font-size="10.00">Wavelet</text>
<polyline fill="none" stroke="black" points="286.5,-187.5 351.5,-187.5 "/>
<text text-anchor="start" x="294.5" y="-175.5" font-family="Helvetica,sans-Serif" font-size="10.00">+ h</text>
<text text-anchor="start" x="294.5" y="-164.5" font-family="Helvetica,sans-Serif" font-size="10.00">+ L</text>
<text text-anchor="start" x="294.5" y="-153.5" font-family="Helvetica,sans-Serif" font-size="10.00">+ g</text>
<polyline fill="none" stroke="black" points="286.5,-146.5 351.5,-146.5 "/>
<text text-anchor="start" x="294.5" y="-134.5" font-family="Helvetica,sans-Serif" font-size="10.00">+ __init__()</text>
<text text-anchor="start" x="294.5" y="-123.5" font-family="Helvetica,sans-Serif" font-size="10.00">+ DWT()</text>
<text text-anchor="start" x="294.5" y="-112.5" font-family="Helvetica,sans-Serif" font-size="10.00">+ IDWT()</text>
<text text-anchor="start" x="294.5" y="-101.5" font-family="Helvetica,sans-Serif" font-size="10.00">+ intlog2()</text>
</a>
</g>
</g>
<!-- Node2 -->
<g id="node2" class="node">
<title>Node2</title>
<g id="a_node2"><a xlink:href="classSignalIntegrity_1_1Lib_1_1Wavelets_1_1Wavelets_1_1WaveletDaubechies14.xhtml" target="_top" xlink:title="14 tap Daubechies wavelet transformer">
<polygon fill="white" stroke="black" points="0,-0.5 0,-57.5 114,-57.5 114,-0.5 0,-0.5"/>
<text text-anchor="middle" x="57" y="-45.5" font-family="Helvetica,sans-Serif" font-size="10.00">WaveletDaubechies14</text>
<polyline fill="none" stroke="black" points="0,-38.5 114,-38.5 "/>
<text text-anchor="middle" x="57" y="-26.5" font-family="Helvetica,sans-Serif" font-size="10.00"> </text>
<polyline fill="none" stroke="black" points="0,-19.5 114,-19.5 "/>
<text text-anchor="start" x="8" y="-7.5" font-family="Helvetica,sans-Serif" font-size="10.00">+ __init__()</text>
</a>
</g>
</g>
<!-- Node1&#45;&gt;Node2 -->
<g id="edge1" class="edge">
<title>Node1&#45;&gt;Node2</title>
<path fill="none" stroke="midnightblue" d="M277.06,-130.37C232.93,-110.24 163.17,-78.42 114.04,-56.02"/>
<polygon fill="none" stroke="midnightblue" points="275.8,-133.64 286.35,-134.61 278.7,-127.27 275.8,-133.64"/>
</g>
<!-- Node3 -->
<g id="node3" class="node">
<title>Node3</title>
<g id="a_node3"><a xlink:href="classSignalIntegrity_1_1Lib_1_1Wavelets_1_1Wavelets_1_1WaveletDaubechies16.xhtml" target="_top" xlink:title="16 tap Daubechies wavelet transformer">
<polygon fill="white" stroke="black" points="132,-0.5 132,-57.5 246,-57.5 246,-0.5 132,-0.5"/>
<text text-anchor="middle" x="189" y="-45.5" font-family="Helvetica,sans-Serif" font-size="10.00">WaveletDaubechies16</text>
<polyline fill="none" stroke="black" points="132,-38.5 246,-38.5 "/>
<text text-anchor="middle" x="189" y="-26.5" font-family="Helvetica,sans-Serif" font-size="10.00"> </text>
<polyline fill="none" stroke="black" points="132,-19.5 246,-19.5 "/>
<text text-anchor="start" x="140" y="-7.5" font-family="Helvetica,sans-Serif" font-size="10.00">+ __init__()</text>
</a>
</g>
</g>
<!-- Node1&#45;&gt;Node3 -->
<g id="edge2" class="edge">
<title>Node1&#45;&gt;Node3</title>
<path fill="none" stroke="midnightblue" d="M278.73,-112.48C259.49,-94.79 236.85,-73.98 219.12,-57.69"/>
<polygon fill="none" stroke="midnightblue" points="276.46,-115.15 286.2,-119.35 281.2,-110 276.46,-115.15"/>
</g>
<!-- Node4 -->
<g id="node4" class="node">
<title>Node4</title>
<g id="a_node4"><a xlink:href="classSignalIntegrity_1_1Lib_1_1Wavelets_1_1Wavelets_1_1WaveletDaubechies4.xhtml" target="_top" xlink:title="4 tap Daubechies wavelet transformer">
<polygon fill="white" stroke="black" points="264.5,-0.5 264.5,-57.5 373.5,-57.5 373.5,-0.5 264.5,-0.5"/>
<text text-anchor="middle" x="319" y="-45.5" font-family="Helvetica,sans-Serif" font-size="10.00">WaveletDaubechies4</text>
<polyline fill="none" stroke="black" points="264.5,-38.5 373.5,-38.5 "/>
<text text-anchor="middle" x="319" y="-26.5" font-family="Helvetica,sans-Serif" font-size="10.00"> </text>
<polyline fill="none" stroke="black" points="264.5,-19.5 373.5,-19.5 "/>
<text text-anchor="start" x="272.5" y="-7.5" font-family="Helvetica,sans-Serif" font-size="10.00">+ __init__()</text>
</a>
</g>
</g>
<!-- Node1&#45;&gt;Node4 -->
<g id="edge3" class="edge">
<title>Node1&#45;&gt;Node4</title>
<path fill="none" stroke="midnightblue" d="M319,-84.15C319,-74.82 319,-65.67 319,-57.63"/>
<polygon fill="none" stroke="midnightblue" points="315.5,-84.3 319,-94.3 322.5,-84.3 315.5,-84.3"/>
</g>
<!-- Node5 -->
<g id="node5" class="node">
<title>Node5</title>
<g id="a_node5"><a xlink:href="classSignalIntegrity_1_1Lib_1_1Wavelets_1_1Wavelets_1_1WaveletDaubechies8.xhtml" target="_top" xlink:title="8 tap Daubechies wavelet transformer">
<polygon fill="white" stroke="black" points="391.5,-0.5 391.5,-57.5 500.5,-57.5 500.5,-0.5 391.5,-0.5"/>
<text text-anchor="middle" x="446" y="-45.5" font-family="Helvetica,sans-Serif" font-size="10.00">WaveletDaubechies8</text>
<polyline fill="none" stroke="black" points="391.5,-38.5 500.5,-38.5 "/>
<text text-anchor="middle" x="446" y="-26.5" font-family="Helvetica,sans-Serif" font-size="10.00"> </text>
<polyline fill="none" stroke="black" points="391.5,-19.5 500.5,-19.5 "/>
<text text-anchor="start" x="399.5" y="-7.5" font-family="Helvetica,sans-Serif" font-size="10.00">+ __init__()</text>
</a>
</g>
</g>
<!-- Node1&#45;&gt;Node5 -->
<g id="edge4" class="edge">
<title>Node1&#45;&gt;Node5</title>
<path fill="none" stroke="midnightblue" d="M359.43,-111.46C377.94,-94.04 399.48,-73.77 416.44,-57.81"/>
<polygon fill="none" stroke="midnightblue" points="356.59,-109.32 351.71,-118.73 361.39,-114.42 356.59,-109.32"/>
</g>
<!-- Node6 -->
<g id="node6" class="node">
<title>Node6</title>
<g id="a_node6"><a xlink:href="classSignalIntegrity_1_1Lib_1_1Wavelets_1_1Wavelets_1_1WaveletHaar.xhtml" target="_top" xlink:title="2 tap Haar wavelet transformer">
<polygon fill="white" stroke="black" points="518.5,-0.5 518.5,-57.5 591.5,-57.5 591.5,-0.5 518.5,-0.5"/>
<text text-anchor="middle" x="555" y="-45.5" font-family="Helvetica,sans-Serif" font-size="10.00">WaveletHaar</text>
<polyline fill="none" stroke="black" points="518.5,-38.5 591.5,-38.5 "/>
<text text-anchor="middle" x="555" y="-26.5" font-family="Helvetica,sans-Serif" font-size="10.00"> </text>
<polyline fill="none" stroke="black" points="518.5,-19.5 591.5,-19.5 "/>
<text text-anchor="start" x="526.5" y="-7.5" font-family="Helvetica,sans-Serif" font-size="10.00">+ __init__()</text>
</a>
</g>
</g>
<!-- Node1&#45;&gt;Node6 -->
<g id="edge5" class="edge">
<title>Node1&#45;&gt;Node6</title>
<path fill="none" stroke="midnightblue" d="M361.14,-130.92C400.29,-113.29 459.92,-85.47 510,-58 512.74,-56.5 515.55,-54.9 518.36,-53.26"/>
<polygon fill="none" stroke="midnightblue" points="359.34,-127.9 351.65,-135.18 362.21,-134.28 359.34,-127.9"/>
</g>
</g>
</svg>
