<?xml version="1.0" encoding="UTF-8" standalone="no"?>
<!DOCTYPE svg PUBLIC "-//W3C//DTD SVG 1.1//EN"
 "http://www.w3.org/Graphics/SVG/1.1/DTD/svg11.dtd">
<!-- Generated by graphviz version 2.43.0 (0)
 -->
<!-- Title: DUTSParametersNumericParser Pages: 1 -->
<svg width="398pt" height="634pt"
 viewBox="0.00 0.00 398.00 634.00" xmlns="http://www.w3.org/2000/svg" xmlns:xlink="http://www.w3.org/1999/xlink">
<g id="graph0" class="graph" transform="scale(1 1) rotate(0) translate(4 630)">
<title>DUTSParametersNumericParser</title>
<polygon fill="white" stroke="transparent" points="-4,4 -4,-630 394,-630 394,4 -4,4"/>
<!-- Node1 -->
<g id="node1" class="node">
<title>Node1</title>
<g id="a_node1"><a xlink:title="generates s&#45;parameters of a DUT from a network analyzer model netlist">
<polygon fill="#bfbfbf" stroke="black" points="115.5,-0.5 115.5,-112.5 318.5,-112.5 318.5,-0.5 115.5,-0.5"/>
<text text-anchor="middle" x="217" y="-100.5" font-family="Helvetica,sans-Serif" font-size="10.00">DUTSParametersNumericParser</text>
<polyline fill="none" stroke="black" points="115.5,-93.5 318.5,-93.5 "/>
<text text-anchor="start" x="123.5" y="-81.5" font-family="Helvetica,sans-Serif" font-size="10.00">+ NetworkAnalyzerProjectFile</text>
<text text-anchor="start" x="123.5" y="-70.5" font-family="Helvetica,sans-Serif" font-size="10.00">+ NetworkAnalyzerPortConnectionList</text>
<text text-anchor="start" x="123.5" y="-59.5" font-family="Helvetica,sans-Serif" font-size="10.00">+ m_lines</text>
<polyline fill="none" stroke="black" points="115.5,-52.5 318.5,-52.5 "/>
<text text-anchor="start" x="123.5" y="-40.5" font-family="Helvetica,sans-Serif" font-size="10.00">+ __init__()</text>
<text text-anchor="start" x="123.5" y="-29.5" font-family="Helvetica,sans-Serif" font-size="10.00">+ HashValue()</text>
<text text-anchor="start" x="123.5" y="-18.5" font-family="Helvetica,sans-Serif" font-size="10.00">+ ConfigureForDUTCalculation()</text>
<text text-anchor="start" x="123.5" y="-7.5" font-family="Helvetica,sans-Serif" font-size="10.00">+ SParameters()</text>
</a>
</g>
</g>
<!-- Node2 -->
<g id="node2" class="node">
<title>Node2</title>
<g id="a_node2"><a xlink:href="classSignalIntegrity_1_1Lib_1_1Parsers_1_1SystemSParametersParser_1_1SystemSParametersNumericParser.xhtml" target="_top" xlink:title="generates system s&#45;parameters from a netlist">
<polygon fill="white" stroke="black" points="138.5,-149.5 138.5,-228.5 295.5,-228.5 295.5,-149.5 138.5,-149.5"/>
<text text-anchor="start" x="146.5" y="-216.5" font-family="Helvetica,sans-Serif" font-size="10.00">SystemSParametersNumeric</text>
<text text-anchor="middle" x="217" y="-205.5" font-family="Helvetica,sans-Serif" font-size="10.00">Parser</text>
<polyline fill="none" stroke="black" points="138.5,-198.5 295.5,-198.5 "/>
<text text-anchor="start" x="146.5" y="-186.5" font-family="Helvetica,sans-Serif" font-size="10.00">+ sf</text>
<polyline fill="none" stroke="black" points="138.5,-179.5 295.5,-179.5 "/>
<text text-anchor="start" x="146.5" y="-167.5" font-family="Helvetica,sans-Serif" font-size="10.00">+ __init__()</text>
<text text-anchor="start" x="146.5" y="-156.5" font-family="Helvetica,sans-Serif" font-size="10.00">+ SParameters()</text>
</a>
</g>
</g>
<!-- Node2&#45;&gt;Node1 -->
<g id="edge1" class="edge">
<title>Node2&#45;&gt;Node1</title>
<path fill="none" stroke="midnightblue" d="M217,-139.01C217,-130.46 217,-121.52 217,-112.81"/>
<polygon fill="none" stroke="midnightblue" points="213.5,-139.2 217,-149.2 220.5,-139.2 213.5,-139.2"/>
</g>
<!-- Node3 -->
<g id="node3" class="node">
<title>Node3</title>
<g id="a_node3"><a xlink:href="classSignalIntegrity_1_1Lib_1_1Parsers_1_1SystemDescriptionParser_1_1SystemDescriptionParser.xhtml" target="_top" xlink:title="Parses netlists and produces system descriptions.">
<polygon fill="white" stroke="black" points="0,-265.5 0,-454.5 140,-454.5 140,-265.5 0,-265.5"/>
<text text-anchor="middle" x="70" y="-442.5" font-family="Helvetica,sans-Serif" font-size="10.00">SystemDescriptionParser</text>
<polyline fill="none" stroke="black" points="0,-435.5 140,-435.5 "/>
<text text-anchor="start" x="8" y="-423.5" font-family="Helvetica,sans-Serif" font-size="10.00">+ m_sd</text>
<text text-anchor="start" x="8" y="-412.5" font-family="Helvetica,sans-Serif" font-size="10.00">+ m_f</text>
<text text-anchor="start" x="8" y="-401.5" font-family="Helvetica,sans-Serif" font-size="10.00">+ m_lines</text>
<text text-anchor="start" x="8" y="-390.5" font-family="Helvetica,sans-Serif" font-size="10.00">+ m_addThru</text>
<text text-anchor="start" x="8" y="-379.5" font-family="Helvetica,sans-Serif" font-size="10.00">+ known</text>
<text text-anchor="start" x="8" y="-368.5" font-family="Helvetica,sans-Serif" font-size="10.00">+ delayDict</text>
<text text-anchor="start" x="8" y="-357.5" font-family="Helvetica,sans-Serif" font-size="10.00">+ m_spc</text>
<text text-anchor="start" x="8" y="-346.5" font-family="Helvetica,sans-Serif" font-size="10.00">+ m_spcl</text>
<text text-anchor="start" x="8" y="-335.5" font-family="Helvetica,sans-Serif" font-size="10.00">+ m_ul</text>
<polyline fill="none" stroke="black" points="0,-328.5 140,-328.5 "/>
<text text-anchor="start" x="8" y="-316.5" font-family="Helvetica,sans-Serif" font-size="10.00">+ __init__()</text>
<text text-anchor="start" x="8" y="-305.5" font-family="Helvetica,sans-Serif" font-size="10.00">+ SystemDescription()</text>
<text text-anchor="start" x="8" y="-294.5" font-family="Helvetica,sans-Serif" font-size="10.00">+ AddKnownDevices()</text>
<text text-anchor="start" x="8" y="-283.5" font-family="Helvetica,sans-Serif" font-size="10.00">+ AddLine()</text>
<text text-anchor="start" x="8" y="-272.5" font-family="Helvetica,sans-Serif" font-size="10.00">+ AddLines()</text>
</a>
</g>
</g>
<!-- Node3&#45;&gt;Node2 -->
<g id="edge2" class="edge">
<title>Node3&#45;&gt;Node2</title>
<path fill="none" stroke="midnightblue" d="M146.78,-267.54C147.52,-266.69 148.26,-265.84 149,-265 159.4,-253.08 170.9,-240.28 181.43,-228.68"/>
<polygon fill="none" stroke="midnightblue" points="143.95,-265.47 140.05,-275.32 149.24,-270.05 143.95,-265.47"/>
</g>
<!-- Node4 -->
<g id="node4" class="node">
<title>Node4</title>
<g id="a_node4"><a xlink:href="classSignalIntegrity_1_1Lib_1_1Parsers_1_1ParserFile_1_1ParserFile.xhtml" target="_top" xlink:title="file handling base class for parsers">
<polygon fill="white" stroke="black" points="25.5,-524.5 25.5,-592.5 114.5,-592.5 114.5,-524.5 25.5,-524.5"/>
<text text-anchor="middle" x="70" y="-580.5" font-family="Helvetica,sans-Serif" font-size="10.00">ParserFile</text>
<polyline fill="none" stroke="black" points="25.5,-573.5 114.5,-573.5 "/>
<text text-anchor="middle" x="70" y="-561.5" font-family="Helvetica,sans-Serif" font-size="10.00"> </text>
<polyline fill="none" stroke="black" points="25.5,-554.5 114.5,-554.5 "/>
<text text-anchor="start" x="33.5" y="-542.5" font-family="Helvetica,sans-Serif" font-size="10.00">+ File()</text>
<text text-anchor="start" x="33.5" y="-531.5" font-family="Helvetica,sans-Serif" font-size="10.00">+ WriteToFile()</text>
</a>
</g>
</g>
<!-- Node4&#45;&gt;Node3 -->
<g id="edge3" class="edge">
<title>Node4&#45;&gt;Node3</title>
<path fill="none" stroke="midnightblue" d="M70,-513.73C70,-496.21 70,-475.31 70,-454.68"/>
<polygon fill="none" stroke="midnightblue" points="66.5,-514.17 70,-524.17 73.5,-514.17 66.5,-514.17"/>
</g>
<!-- Node5 -->
<g id="node5" class="node">
<title>Node5</title>
<g id="a_node5"><a xlink:href="classSignalIntegrity_1_1Lib_1_1CallBacker_1_1CallBacker.xhtml" target="_top" xlink:title="Handles Callbacks that allow progress reporting during long calculations and capability to abort.">
<polygon fill="white" stroke="black" points="158,-309.5 158,-410.5 276,-410.5 276,-309.5 158,-309.5"/>
<text text-anchor="middle" x="217" y="-398.5" font-family="Helvetica,sans-Serif" font-size="10.00">CallBacker</text>
<polyline fill="none" stroke="black" points="158,-391.5 276,-391.5 "/>
<text text-anchor="start" x="166" y="-379.5" font-family="Helvetica,sans-Serif" font-size="10.00">+ callback</text>
<polyline fill="none" stroke="black" points="158,-372.5 276,-372.5 "/>
<text text-anchor="start" x="166" y="-360.5" font-family="Helvetica,sans-Serif" font-size="10.00">+ __init__()</text>
<text text-anchor="start" x="166" y="-349.5" font-family="Helvetica,sans-Serif" font-size="10.00">+ HasACallBack()</text>
<text text-anchor="start" x="166" y="-338.5" font-family="Helvetica,sans-Serif" font-size="10.00">+ CallBack()</text>
<text text-anchor="start" x="166" y="-327.5" font-family="Helvetica,sans-Serif" font-size="10.00">+ InstallCallback()</text>
<text text-anchor="start" x="166" y="-316.5" font-family="Helvetica,sans-Serif" font-size="10.00">+ RemoveCallback()</text>
</a>
</g>
</g>
<!-- Node5&#45;&gt;Node2 -->
<g id="edge4" class="edge">
<title>Node5&#45;&gt;Node2</title>
<path fill="none" stroke="midnightblue" d="M217,-299.04C217,-275.66 217,-249.53 217,-228.72"/>
<polygon fill="none" stroke="midnightblue" points="213.5,-299.21 217,-309.21 220.5,-299.21 213.5,-299.21"/>
</g>
<!-- Node6 -->
<g id="node6" class="node">
<title>Node6</title>
<g id="a_node6"><a xlink:href="classSignalIntegrity_1_1Lib_1_1ResultsCache_1_1LinesCache.xhtml" target="_top" xlink:title=" ">
<polygon fill="white" stroke="black" points="294.5,-320.5 294.5,-399.5 389.5,-399.5 389.5,-320.5 294.5,-320.5"/>
<text text-anchor="middle" x="342" y="-387.5" font-family="Helvetica,sans-Serif" font-size="10.00">LinesCache</text>
<polyline fill="none" stroke="black" points="294.5,-380.5 389.5,-380.5 "/>
<text text-anchor="middle" x="342" y="-368.5" font-family="Helvetica,sans-Serif" font-size="10.00"> </text>
<polyline fill="none" stroke="black" points="294.5,-361.5 389.5,-361.5 "/>
<text text-anchor="start" x="302.5" y="-349.5" font-family="Helvetica,sans-Serif" font-size="10.00">+ __init__()</text>
<text text-anchor="start" x="302.5" y="-338.5" font-family="Helvetica,sans-Serif" font-size="10.00">+ HashValue()</text>
<text text-anchor="start" x="302.5" y="-327.5" font-family="Helvetica,sans-Serif" font-size="10.00">+ CheckTimes()</text>
</a>
</g>
</g>
<!-- Node6&#45;&gt;Node2 -->
<g id="edge5" class="edge">
<title>Node6&#45;&gt;Node2</title>
<path fill="none" stroke="midnightblue" d="M315.67,-311.62C306.55,-296.33 295.87,-279.58 285,-265 275.86,-252.74 265.08,-240.15 254.83,-228.88"/>
<polygon fill="none" stroke="midnightblue" points="312.76,-313.57 320.85,-320.42 318.79,-310.02 312.76,-313.57"/>
</g>
<!-- Node7 -->
<g id="node7" class="node">
<title>Node7</title>
<g id="a_node7"><a xlink:href="classSignalIntegrity_1_1Lib_1_1ResultsCache_1_1ResultsCache.xhtml" target="_top" xlink:title=" ">
<polygon fill="white" stroke="black" points="294,-491.5 294,-625.5 390,-625.5 390,-491.5 294,-491.5"/>
<text text-anchor="middle" x="342" y="-613.5" font-family="Helvetica,sans-Serif" font-size="10.00">ResultsCache</text>
<polyline fill="none" stroke="black" points="294,-606.5 390,-606.5 "/>
<text text-anchor="start" x="302" y="-594.5" font-family="Helvetica,sans-Serif" font-size="10.00">+ filename</text>
<text text-anchor="start" x="302" y="-583.5" font-family="Helvetica,sans-Serif" font-size="10.00">+ extra</text>
<text text-anchor="start" x="302" y="-572.5" font-family="Helvetica,sans-Serif" font-size="10.00">+ hash</text>
<polyline fill="none" stroke="black" points="294,-565.5 390,-565.5 "/>
<text text-anchor="start" x="302" y="-553.5" font-family="Helvetica,sans-Serif" font-size="10.00">+ __init__()</text>
<text text-anchor="start" x="302" y="-542.5" font-family="Helvetica,sans-Serif" font-size="10.00">+ HashValue()</text>
<text text-anchor="start" x="302" y="-531.5" font-family="Helvetica,sans-Serif" font-size="10.00">+ CheckCache()</text>
<text text-anchor="start" x="302" y="-520.5" font-family="Helvetica,sans-Serif" font-size="10.00">+ CacheResult()</text>
<text text-anchor="start" x="302" y="-509.5" font-family="Helvetica,sans-Serif" font-size="10.00">+ FileTime()</text>
<text text-anchor="start" x="302" y="-498.5" font-family="Helvetica,sans-Serif" font-size="10.00">+ CheckTimes()</text>
</a>
</g>
</g>
<!-- Node7&#45;&gt;Node6 -->
<g id="edge6" class="edge">
<title>Node7&#45;&gt;Node6</title>
<path fill="none" stroke="midnightblue" d="M342,-481.12C342,-453.28 342,-422.97 342,-399.76"/>
<polygon fill="none" stroke="midnightblue" points="338.5,-481.25 342,-491.25 345.5,-481.25 338.5,-481.25"/>
</g>
</g>
</svg>
