<?xml version="1.0" encoding="UTF-8" standalone="no"?>
<!DOCTYPE svg PUBLIC "-//W3C//DTD SVG 1.1//EN"
 "http://www.w3.org/Graphics/SVG/1.1/DTD/svg11.dtd">
<!-- Generated by graphviz version 2.40.1 (20161225.0304)
 -->
<!-- Title: SParameterManipulation Pages: 1 -->
<svg width="2959pt" height="645pt"
 viewBox="0.00 0.00 2958.50 645.00" xmlns="http://www.w3.org/2000/svg" xmlns:xlink="http://www.w3.org/1999/xlink">
<g id="graph0" class="graph" transform="scale(1 1) rotate(0) translate(4 641)">
<title>SParameterManipulation</title>
<polygon fill="#ffffff" stroke="transparent" points="-4,4 -4,-641 2954.5,-641 2954.5,4 -4,4"/>
<!-- Node0 -->
<g id="node1" class="node">
<title>Node0</title>
<polygon fill="#bfbfbf" stroke="#000000" points="1228,-491.5 1228,-636.5 1389,-636.5 1389,-491.5 1228,-491.5"/>
<text text-anchor="middle" x="1308.5" y="-624.5" font-family="Helvetica,sans-Serif" font-size="10.00" fill="#000000">SParameterManipulation</text>
<polyline fill="none" stroke="#000000" points="1228,-617.5 1389,-617.5 "/>
<text text-anchor="middle" x="1308.5" y="-605.5" font-family="Helvetica,sans-Serif" font-size="10.00" fill="#000000"> </text>
<polyline fill="none" stroke="#000000" points="1228,-598.5 1389,-598.5 "/>
<text text-anchor="start" x="1236" y="-586.5" font-family="Helvetica,sans-Serif" font-size="10.00" fill="#000000">+ EnforcePassivity()</text>
<text text-anchor="start" x="1236" y="-575.5" font-family="Helvetica,sans-Serif" font-size="10.00" fill="#000000">+ IsCausal()</text>
<text text-anchor="start" x="1236" y="-564.5" font-family="Helvetica,sans-Serif" font-size="10.00" fill="#000000">+ EnforceCausality()</text>
<text text-anchor="start" x="1236" y="-553.5" font-family="Helvetica,sans-Serif" font-size="10.00" fill="#000000">+ WaveletDenoise()</text>
<text text-anchor="start" x="1236" y="-542.5" font-family="Helvetica,sans-Serif" font-size="10.00" fill="#000000">+ PortReorder()</text>
<text text-anchor="start" x="1236" y="-531.5" font-family="Helvetica,sans-Serif" font-size="10.00" fill="#000000">+ DetermineImpulseResponse</text>
<text text-anchor="start" x="1236" y="-520.5" font-family="Helvetica,sans-Serif" font-size="10.00" fill="#000000">Length()</text>
<text text-anchor="start" x="1236" y="-509.5" font-family="Helvetica,sans-Serif" font-size="10.00" fill="#000000">+ LimitImpulseResponseLength()</text>
<text text-anchor="start" x="1236" y="-498.5" font-family="Helvetica,sans-Serif" font-size="10.00" fill="#000000">+ EnforceReciprocity()</text>
</g>
<!-- Node1 -->
<g id="node2" class="node">
<title>Node1</title>
<g id="a_node2"><a xlink:href="classSignalIntegrity_1_1Lib_1_1SParameters_1_1SParameters_1_1SParameters.xhtml" target="_top" xlink:title="Class containing s&#45;parameters. ">
<polygon fill="#ffffff" stroke="#000000" points="1238.5,-254.5 1238.5,-454.5 1378.5,-454.5 1378.5,-254.5 1238.5,-254.5"/>
<text text-anchor="middle" x="1308.5" y="-442.5" font-family="Helvetica,sans-Serif" font-size="10.00" fill="#000000">SParameters</text>
<polyline fill="none" stroke="#000000" points="1238.5,-435.5 1378.5,-435.5 "/>
<text text-anchor="start" x="1246.5" y="-423.5" font-family="Helvetica,sans-Serif" font-size="10.00" fill="#000000">+ m_sToken</text>
<text text-anchor="start" x="1246.5" y="-412.5" font-family="Helvetica,sans-Serif" font-size="10.00" fill="#000000">+ m_d</text>
<text text-anchor="start" x="1246.5" y="-401.5" font-family="Helvetica,sans-Serif" font-size="10.00" fill="#000000">+ m_Z0</text>
<text text-anchor="start" x="1246.5" y="-390.5" font-family="Helvetica,sans-Serif" font-size="10.00" fill="#000000">+ m_f</text>
<text text-anchor="start" x="1246.5" y="-379.5" font-family="Helvetica,sans-Serif" font-size="10.00" fill="#000000">+ m_P</text>
<text text-anchor="start" x="1246.5" y="-368.5" font-family="Helvetica,sans-Serif" font-size="10.00" fill="#000000">+ header</text>
<polyline fill="none" stroke="#000000" points="1238.5,-361.5 1378.5,-361.5 "/>
<text text-anchor="start" x="1246.5" y="-349.5" font-family="Helvetica,sans-Serif" font-size="10.00" fill="#000000">+ __init__()</text>
<text text-anchor="start" x="1246.5" y="-338.5" font-family="Helvetica,sans-Serif" font-size="10.00" fill="#000000">+ __getitem__()</text>
<text text-anchor="start" x="1246.5" y="-327.5" font-family="Helvetica,sans-Serif" font-size="10.00" fill="#000000">+ __len__()</text>
<text text-anchor="start" x="1246.5" y="-316.5" font-family="Helvetica,sans-Serif" font-size="10.00" fill="#000000">+ f()</text>
<text text-anchor="start" x="1246.5" y="-305.5" font-family="Helvetica,sans-Serif" font-size="10.00" fill="#000000">+ Response()</text>
<text text-anchor="start" x="1246.5" y="-294.5" font-family="Helvetica,sans-Serif" font-size="10.00" fill="#000000">+ FrequencyResponse()</text>
<text text-anchor="start" x="1246.5" y="-283.5" font-family="Helvetica,sans-Serif" font-size="10.00" fill="#000000">+ WriteToFile()</text>
<text text-anchor="start" x="1246.5" y="-272.5" font-family="Helvetica,sans-Serif" font-size="10.00" fill="#000000">+ Resample()</text>
<text text-anchor="start" x="1246.5" y="-261.5" font-family="Helvetica,sans-Serif" font-size="10.00" fill="#000000">+ SetReferenceImpedance()</text>
</a>
</g>
</g>
<!-- Node0&#45;&gt;Node1 -->
<g id="edge1" class="edge">
<title>Node0&#45;&gt;Node1</title>
<path fill="none" stroke="#191970" d="M1308.5,-481.2158C1308.5,-472.5169 1308.5,-463.6064 1308.5,-454.7391"/>
<polygon fill="none" stroke="#191970" points="1305.0001,-481.315 1308.5,-491.315 1312.0001,-481.3151 1305.0001,-481.315"/>
</g>
<!-- Node2 -->
<g id="node3" class="node">
<title>Node2</title>
<g id="a_node3"><a xlink:href="classSignalIntegrity_1_1Lib_1_1ImpedanceProfile_1_1PeeledLaunches_1_1PeeledLaunches.xhtml" target="_top" xlink:title="S&#45;parameters with launches peeled from them. ">
<polygon fill="#ffffff" stroke="#000000" points="0,-127.5 0,-184.5 89,-184.5 89,-127.5 0,-127.5"/>
<text text-anchor="middle" x="44.5" y="-172.5" font-family="Helvetica,sans-Serif" font-size="10.00" fill="#000000">PeeledLaunches</text>
<polyline fill="none" stroke="#000000" points="0,-165.5 89,-165.5 "/>
<text text-anchor="middle" x="44.5" y="-153.5" font-family="Helvetica,sans-Serif" font-size="10.00" fill="#000000"> </text>
<polyline fill="none" stroke="#000000" points="0,-146.5 89,-146.5 "/>
<text text-anchor="start" x="8" y="-134.5" font-family="Helvetica,sans-Serif" font-size="10.00" fill="#000000">+ __init__()</text>
</a>
</g>
</g>
<!-- Node1&#45;&gt;Node2 -->
<g id="edge2" class="edge">
<title>Node1&#45;&gt;Node2</title>
<path fill="none" stroke="#191970" d="M1228.1639,-352.946C990.6596,-347.1928 296.0896,-321.6962 98.5,-218 83.9648,-210.3718 71.5915,-197.0856 62.3709,-184.7642"/>
<polygon fill="none" stroke="#191970" points="1228.3699,-356.4518 1238.4501,-353.1897 1228.5358,-349.4538 1228.3699,-356.4518"/>
</g>
<!-- Node3 -->
<g id="node4" class="node">
<title>Node3</title>
<g id="a_node4"><a xlink:href="classSignalIntegrity_1_1Lib_1_1ImpedanceProfile_1_1PeeledPortSParameters_1_1PeeledPortSParameters.xhtml" target="_top" xlink:title="s&#45;parameters of peeled impedance profile from port calculates the impedance profile looking into a po...">
<polygon fill="#ffffff" stroke="#000000" points="107.5,-127.5 107.5,-184.5 229.5,-184.5 229.5,-127.5 107.5,-127.5"/>
<text text-anchor="middle" x="168.5" y="-172.5" font-family="Helvetica,sans-Serif" font-size="10.00" fill="#000000">PeeledPortSParameters</text>
<polyline fill="none" stroke="#000000" points="107.5,-165.5 229.5,-165.5 "/>
<text text-anchor="middle" x="168.5" y="-153.5" font-family="Helvetica,sans-Serif" font-size="10.00" fill="#000000"> </text>
<polyline fill="none" stroke="#000000" points="107.5,-146.5 229.5,-146.5 "/>
<text text-anchor="start" x="115.5" y="-134.5" font-family="Helvetica,sans-Serif" font-size="10.00" fill="#000000">+ __init__()</text>
</a>
</g>
</g>
<!-- Node1&#45;&gt;Node3 -->
<g id="edge3" class="edge">
<title>Node1&#45;&gt;Node3</title>
<path fill="none" stroke="#191970" d="M1228.4066,-350.3075C1011.4707,-338.006 416.9342,-297.7522 239.5,-218 222.3349,-210.2847 206.2639,-196.9897 193.768,-184.6849"/>
<polygon fill="none" stroke="#191970" points="1228.2676,-353.8051 1238.4483,-350.8722 1228.6607,-346.8161 1228.2676,-353.8051"/>
</g>
<!-- Node4 -->
<g id="node5" class="node">
<title>Node4</title>
<g id="a_node5"><a xlink:href="classSignalIntegrity_1_1Lib_1_1Measurement_1_1CalKit_1_1Standards_1_1LoadStandard_1_1LoadStandard.xhtml" target="_top" xlink:title="Class providing the s&#45;parameters of a load standard as commonly defined for a calibration kit...">
<polygon fill="#ffffff" stroke="#000000" points="248,-127.5 248,-184.5 325,-184.5 325,-127.5 248,-127.5"/>
<text text-anchor="middle" x="286.5" y="-172.5" font-family="Helvetica,sans-Serif" font-size="10.00" fill="#000000">LoadStandard</text>
<polyline fill="none" stroke="#000000" points="248,-165.5 325,-165.5 "/>
<text text-anchor="middle" x="286.5" y="-153.5" font-family="Helvetica,sans-Serif" font-size="10.00" fill="#000000"> </text>
<polyline fill="none" stroke="#000000" points="248,-146.5 325,-146.5 "/>
<text text-anchor="start" x="256" y="-134.5" font-family="Helvetica,sans-Serif" font-size="10.00" fill="#000000">+ __init__()</text>
</a>
</g>
</g>
<!-- Node1&#45;&gt;Node4 -->
<g id="edge4" class="edge">
<title>Node1&#45;&gt;Node4</title>
<path fill="none" stroke="#191970" d="M1228.291,-350.9782C1023.4442,-340.7813 486.467,-306.1469 334.5,-218 320.9585,-210.1454 309.8969,-196.8362 301.8198,-184.5581"/>
<polygon fill="none" stroke="#191970" points="1228.2184,-354.4788 1238.3782,-351.4739 1228.562,-347.4872 1228.2184,-354.4788"/>
</g>
<!-- Node5 -->
<g id="node6" class="node">
<title>Node5</title>
<g id="a_node6"><a xlink:href="classSignalIntegrity_1_1Lib_1_1Measurement_1_1CalKit_1_1Standards_1_1Offset_1_1Offset.xhtml" target="_top" xlink:title="class providing the s&#45;parameters of an offset portion of the various calibration standards for a cali...">
<polygon fill="#ffffff" stroke="#000000" points="343,-127.5 343,-184.5 408,-184.5 408,-127.5 343,-127.5"/>
<text text-anchor="middle" x="375.5" y="-172.5" font-family="Helvetica,sans-Serif" font-size="10.00" fill="#000000">Offset</text>
<polyline fill="none" stroke="#000000" points="343,-165.5 408,-165.5 "/>
<text text-anchor="start" x="351" y="-153.5" font-family="Helvetica,sans-Serif" font-size="10.00" fill="#000000">+ calcZc</text>
<polyline fill="none" stroke="#000000" points="343,-146.5 408,-146.5 "/>
<text text-anchor="start" x="351" y="-134.5" font-family="Helvetica,sans-Serif" font-size="10.00" fill="#000000">+ __init__()</text>
</a>
</g>
</g>
<!-- Node1&#45;&gt;Node5 -->
<g id="edge5" class="edge">
<title>Node1&#45;&gt;Node5</title>
<path fill="none" stroke="#191970" d="M1228.3882,-350.3643C1035.6532,-339.1449 552.0846,-303.0734 417.5,-218 404.9718,-210.0807 395.2728,-196.9197 388.3676,-184.7559"/>
<polygon fill="none" stroke="#191970" points="1228.2664,-353.863 1238.4508,-350.9428 1228.6682,-346.8745 1228.2664,-353.863"/>
</g>
<!-- Node7 -->
<g id="node8" class="node">
<title>Node7</title>
<g id="a_node8"><a xlink:href="classSignalIntegrity_1_1Lib_1_1Measurement_1_1CalKit_1_1Standards_1_1OpenStandard_1_1OpenStandard.xhtml" target="_top" xlink:title="class providing the s&#45;parameters of an open standard as commonly defined for a calibration kit...">
<polygon fill="#ffffff" stroke="#000000" points="426,-127.5 426,-184.5 505,-184.5 505,-127.5 426,-127.5"/>
<text text-anchor="middle" x="465.5" y="-172.5" font-family="Helvetica,sans-Serif" font-size="10.00" fill="#000000">OpenStandard</text>
<polyline fill="none" stroke="#000000" points="426,-165.5 505,-165.5 "/>
<text text-anchor="middle" x="465.5" y="-153.5" font-family="Helvetica,sans-Serif" font-size="10.00" fill="#000000"> </text>
<polyline fill="none" stroke="#000000" points="426,-146.5 505,-146.5 "/>
<text text-anchor="start" x="434" y="-134.5" font-family="Helvetica,sans-Serif" font-size="10.00" fill="#000000">+ __init__()</text>
</a>
</g>
</g>
<!-- Node1&#45;&gt;Node7 -->
<g id="edge7" class="edge">
<title>Node1&#45;&gt;Node7</title>
<path fill="none" stroke="#191970" d="M1228.3822,-348.0171C1051.6958,-332.5672 634.7411,-289.4429 514.5,-218 501.0539,-210.0108 489.8664,-196.8422 481.5923,-184.6914"/>
<polygon fill="none" stroke="#191970" points="1228.1315,-351.5084 1238.3965,-348.8855 1228.7364,-344.5345 1228.1315,-351.5084"/>
</g>
<!-- Node8 -->
<g id="node9" class="node">
<title>Node8</title>
<g id="a_node9"><a xlink:href="classSignalIntegrity_1_1Lib_1_1Measurement_1_1CalKit_1_1Standards_1_1ShortStandard_1_1ShortStandard.xhtml" target="_top" xlink:title="Class providing the s&#45;parameters of a short standard as commonly defined for a calibration kit...">
<polygon fill="#ffffff" stroke="#000000" points="523,-127.5 523,-184.5 602,-184.5 602,-127.5 523,-127.5"/>
<text text-anchor="middle" x="562.5" y="-172.5" font-family="Helvetica,sans-Serif" font-size="10.00" fill="#000000">ShortStandard</text>
<polyline fill="none" stroke="#000000" points="523,-165.5 602,-165.5 "/>
<text text-anchor="middle" x="562.5" y="-153.5" font-family="Helvetica,sans-Serif" font-size="10.00" fill="#000000"> </text>
<polyline fill="none" stroke="#000000" points="523,-146.5 602,-146.5 "/>
<text text-anchor="start" x="531" y="-134.5" font-family="Helvetica,sans-Serif" font-size="10.00" fill="#000000">+ __init__()</text>
</a>
</g>
</g>
<!-- Node1&#45;&gt;Node8 -->
<g id="edge8" class="edge">
<title>Node1&#45;&gt;Node8</title>
<path fill="none" stroke="#191970" d="M1228.1577,-345.8405C1067.797,-327.4259 714.5725,-280.8669 611.5,-218 598.1473,-209.8558 586.97,-196.6702 578.6785,-184.5483"/>
<polygon fill="none" stroke="#191970" points="1228.1046,-349.357 1238.4368,-347.0126 1228.8977,-342.4021 1228.1046,-349.357"/>
</g>
<!-- Node9 -->
<g id="node10" class="node">
<title>Node9</title>
<g id="a_node10"><a xlink:href="classSignalIntegrity_1_1Lib_1_1Measurement_1_1CalKit_1_1Standards_1_1TerminationPolynomial_1_1TerminationCPolynomial.xhtml" target="_top" xlink:title="Class for capacitive terminations for open calibration standards. ">
<polygon fill="#ffffff" stroke="#000000" points="620,-116.5 620,-195.5 743,-195.5 743,-116.5 620,-116.5"/>
<text text-anchor="middle" x="681.5" y="-183.5" font-family="Helvetica,sans-Serif" font-size="10.00" fill="#000000">TerminationCPolynomial</text>
<polyline fill="none" stroke="#000000" points="620,-176.5 743,-176.5 "/>
<text text-anchor="middle" x="681.5" y="-164.5" font-family="Helvetica,sans-Serif" font-size="10.00" fill="#000000"> </text>
<polyline fill="none" stroke="#000000" points="620,-157.5 743,-157.5 "/>
<text text-anchor="start" x="628" y="-145.5" font-family="Helvetica,sans-Serif" font-size="10.00" fill="#000000">+ __init__()</text>
<text text-anchor="start" x="628" y="-134.5" font-family="Helvetica,sans-Serif" font-size="10.00" fill="#000000">+ PolynomialC()</text>
<text text-anchor="start" x="628" y="-123.5" font-family="Helvetica,sans-Serif" font-size="10.00" fill="#000000">+ __getitem__()</text>
</a>
</g>
</g>
<!-- Node1&#45;&gt;Node9 -->
<g id="edge9" class="edge">
<title>Node1&#45;&gt;Node9</title>
<path fill="none" stroke="#191970" d="M1228.2651,-346.862C1116.2736,-333.595 909.2243,-299.4504 752.5,-218 741.1738,-212.1137 730.1583,-204.0587 720.3156,-195.7029"/>
<polygon fill="none" stroke="#191970" points="1228.135,-350.3702 1238.4713,-348.0442 1228.9405,-343.4167 1228.135,-350.3702"/>
</g>
<!-- Node10 -->
<g id="node11" class="node">
<title>Node10</title>
<g id="a_node11"><a xlink:href="classSignalIntegrity_1_1Lib_1_1Measurement_1_1CalKit_1_1Standards_1_1TerminationPolynomial_1_1TerminationLPolynomial.xhtml" target="_top" xlink:title="Class for inductive terminations for short calibration standards. ">
<polygon fill="#ffffff" stroke="#000000" points="761,-116.5 761,-195.5 882,-195.5 882,-116.5 761,-116.5"/>
<text text-anchor="middle" x="821.5" y="-183.5" font-family="Helvetica,sans-Serif" font-size="10.00" fill="#000000">TerminationLPolynomial</text>
<polyline fill="none" stroke="#000000" points="761,-176.5 882,-176.5 "/>
<text text-anchor="middle" x="821.5" y="-164.5" font-family="Helvetica,sans-Serif" font-size="10.00" fill="#000000"> </text>
<polyline fill="none" stroke="#000000" points="761,-157.5 882,-157.5 "/>
<text text-anchor="start" x="769" y="-145.5" font-family="Helvetica,sans-Serif" font-size="10.00" fill="#000000">+ __init__()</text>
<text text-anchor="start" x="769" y="-134.5" font-family="Helvetica,sans-Serif" font-size="10.00" fill="#000000">+ PolynomialL()</text>
<text text-anchor="start" x="769" y="-123.5" font-family="Helvetica,sans-Serif" font-size="10.00" fill="#000000">+ __getitem__()</text>
</a>
</g>
</g>
<!-- Node1&#45;&gt;Node10 -->
<g id="edge10" class="edge">
<title>Node1&#45;&gt;Node10</title>
<path fill="none" stroke="#191970" d="M1228.6726,-338.5946C1141.6561,-318.99 1000.3099,-280.3879 891.5,-218 880.7965,-211.863 870.2788,-203.9055 860.7799,-195.7493"/>
<polygon fill="none" stroke="#191970" points="1227.9649,-342.0227 1238.4862,-340.7769 1229.4844,-335.1896 1227.9649,-342.0227"/>
</g>
<!-- Node11 -->
<g id="node12" class="node">
<title>Node11</title>
<g id="a_node12"><a xlink:href="classSignalIntegrity_1_1Lib_1_1SParameters_1_1Devices_1_1MixedModeTline_1_1MixedModeTLine.xhtml" target="_top" xlink:title="s&#45;parameters of a mixed&#45;mode, balanced transmission line ">
<polygon fill="#ffffff" stroke="#000000" points="900,-116.5 900,-195.5 991,-195.5 991,-116.5 900,-116.5"/>
<text text-anchor="middle" x="945.5" y="-183.5" font-family="Helvetica,sans-Serif" font-size="10.00" fill="#000000">MixedModeTLine</text>
<polyline fill="none" stroke="#000000" points="900,-176.5 991,-176.5 "/>
<text text-anchor="start" x="908" y="-164.5" font-family="Helvetica,sans-Serif" font-size="10.00" fill="#000000">+ m_sspn</text>
<text text-anchor="start" x="908" y="-153.5" font-family="Helvetica,sans-Serif" font-size="10.00" fill="#000000">+ m_spdl</text>
<polyline fill="none" stroke="#000000" points="900,-146.5 991,-146.5 "/>
<text text-anchor="start" x="908" y="-134.5" font-family="Helvetica,sans-Serif" font-size="10.00" fill="#000000">+ __init__()</text>
<text text-anchor="start" x="908" y="-123.5" font-family="Helvetica,sans-Serif" font-size="10.00" fill="#000000">+ __getitem__()</text>
</a>
</g>
</g>
<!-- Node1&#45;&gt;Node11 -->
<g id="edge11" class="edge">
<title>Node1&#45;&gt;Node11</title>
<path fill="none" stroke="#191970" d="M1228.4333,-329.6733C1163.1805,-307.0357 1070.6786,-269.2933 1000.5,-218 991.7875,-211.6321 983.4593,-203.6738 976.038,-195.6037"/>
<polygon fill="none" stroke="#191970" points="1227.6657,-333.11 1238.2603,-333.0399 1229.9345,-326.4878 1227.6657,-333.11"/>
</g>
<!-- Node12 -->
<g id="node13" class="node">
<title>Node12</title>
<g id="a_node13"><a xlink:href="classSignalIntegrity_1_1Lib_1_1SParameters_1_1Devices_1_1Mutual_1_1Mutual.xhtml" target="_top" xlink:title="s&#45;parameters of a mutual inductance ">
<polygon fill="#ffffff" stroke="#000000" points="1009,-122 1009,-190 1094,-190 1094,-122 1009,-122"/>
<text text-anchor="middle" x="1051.5" y="-178" font-family="Helvetica,sans-Serif" font-size="10.00" fill="#000000">Mutual</text>
<polyline fill="none" stroke="#000000" points="1009,-171 1094,-171 "/>
<text text-anchor="start" x="1017" y="-159" font-family="Helvetica,sans-Serif" font-size="10.00" fill="#000000">+ m_M</text>
<polyline fill="none" stroke="#000000" points="1009,-152 1094,-152 "/>
<text text-anchor="start" x="1017" y="-140" font-family="Helvetica,sans-Serif" font-size="10.00" fill="#000000">+ __init__()</text>
<text text-anchor="start" x="1017" y="-129" font-family="Helvetica,sans-Serif" font-size="10.00" fill="#000000">+ __getitem__()</text>
</a>
</g>
</g>
<!-- Node1&#45;&gt;Node12 -->
<g id="edge12" class="edge">
<title>Node1&#45;&gt;Node12</title>
<path fill="none" stroke="#191970" d="M1229.1613,-309.0773C1189.4743,-284.5662 1141.8547,-252.3358 1103.5,-218 1094.1843,-209.6604 1085.061,-199.6258 1077.1222,-190.0828"/>
<polygon fill="none" stroke="#191970" points="1227.6665,-312.266 1238.0224,-314.5037 1231.3223,-306.2964 1227.6665,-312.266"/>
</g>
<!-- Node13 -->
<g id="node14" class="node">
<title>Node13</title>
<g id="a_node14"><a xlink:href="classSignalIntegrity_1_1Lib_1_1SParameters_1_1Devices_1_1SeriesC_1_1SeriesC.xhtml" target="_top" xlink:title="s&#45;parameters of a series capacitance ">
<polygon fill="#ffffff" stroke="#000000" points="1112,-111 1112,-201 1197,-201 1197,-111 1112,-111"/>
<text text-anchor="middle" x="1154.5" y="-189" font-family="Helvetica,sans-Serif" font-size="10.00" fill="#000000">SeriesC</text>
<polyline fill="none" stroke="#000000" points="1112,-182 1197,-182 "/>
<text text-anchor="start" x="1120" y="-170" font-family="Helvetica,sans-Serif" font-size="10.00" fill="#000000">+ m_C</text>
<text text-anchor="start" x="1120" y="-159" font-family="Helvetica,sans-Serif" font-size="10.00" fill="#000000">+ m_df</text>
<text text-anchor="start" x="1120" y="-148" font-family="Helvetica,sans-Serif" font-size="10.00" fill="#000000">+ m_esr</text>
<polyline fill="none" stroke="#000000" points="1112,-141 1197,-141 "/>
<text text-anchor="start" x="1120" y="-129" font-family="Helvetica,sans-Serif" font-size="10.00" fill="#000000">+ __init__()</text>
<text text-anchor="start" x="1120" y="-118" font-family="Helvetica,sans-Serif" font-size="10.00" fill="#000000">+ __getitem__()</text>
</a>
</g>
</g>
<!-- Node1&#45;&gt;Node13 -->
<g id="edge13" class="edge">
<title>Node1&#45;&gt;Node13</title>
<path fill="none" stroke="#191970" d="M1232.2934,-256.2726C1217.2946,-236.9397 1202.2556,-217.5551 1189.4533,-201.0534"/>
<polygon fill="none" stroke="#191970" points="1229.5895,-258.4973 1238.4846,-264.2529 1235.1202,-254.2064 1229.5895,-258.4973"/>
</g>
<!-- Node14 -->
<g id="node15" class="node">
<title>Node14</title>
<g id="a_node15"><a xlink:href="classSignalIntegrity_1_1Lib_1_1SParameters_1_1Devices_1_1SeriesL_1_1SeriesL.xhtml" target="_top" xlink:title="s&#45;parameters of a series inductance ">
<polygon fill="#ffffff" stroke="#000000" points="1215,-122 1215,-190 1300,-190 1300,-122 1215,-122"/>
<text text-anchor="middle" x="1257.5" y="-178" font-family="Helvetica,sans-Serif" font-size="10.00" fill="#000000">SeriesL</text>
<polyline fill="none" stroke="#000000" points="1215,-171 1300,-171 "/>
<text text-anchor="start" x="1223" y="-159" font-family="Helvetica,sans-Serif" font-size="10.00" fill="#000000">+ m_L</text>
<polyline fill="none" stroke="#000000" points="1215,-152 1300,-152 "/>
<text text-anchor="start" x="1223" y="-140" font-family="Helvetica,sans-Serif" font-size="10.00" fill="#000000">+ __init__()</text>
<text text-anchor="start" x="1223" y="-129" font-family="Helvetica,sans-Serif" font-size="10.00" fill="#000000">+ __getitem__()</text>
</a>
</g>
</g>
<!-- Node1&#45;&gt;Node14 -->
<g id="edge14" class="edge">
<title>Node1&#45;&gt;Node14</title>
<path fill="none" stroke="#191970" d="M1280.2739,-244.6397C1275.1939,-224.8676 1270.2599,-205.6637 1266.2908,-190.2151"/>
<polygon fill="none" stroke="#191970" points="1276.8975,-245.5632 1282.7759,-254.3777 1283.6773,-243.8213 1276.8975,-245.5632"/>
</g>
<!-- Node15 -->
<g id="node16" class="node">
<title>Node15</title>
<g id="a_node16"><a xlink:href="classSignalIntegrity_1_1Lib_1_1SParameters_1_1Devices_1_1SeriesRse_1_1SeriesRse.xhtml" target="_top" xlink:title="s&#45;parameters of series skin&#45;effect Resistance ">
<polygon fill="#ffffff" stroke="#000000" points="1318,-122 1318,-190 1403,-190 1403,-122 1318,-122"/>
<text text-anchor="middle" x="1360.5" y="-178" font-family="Helvetica,sans-Serif" font-size="10.00" fill="#000000">SeriesRse</text>
<polyline fill="none" stroke="#000000" points="1318,-171 1403,-171 "/>
<text text-anchor="start" x="1326" y="-159" font-family="Helvetica,sans-Serif" font-size="10.00" fill="#000000">+ m_Rse</text>
<polyline fill="none" stroke="#000000" points="1318,-152 1403,-152 "/>
<text text-anchor="start" x="1326" y="-140" font-family="Helvetica,sans-Serif" font-size="10.00" fill="#000000">+ __init__()</text>
<text text-anchor="start" x="1326" y="-129" font-family="Helvetica,sans-Serif" font-size="10.00" fill="#000000">+ __getitem__()</text>
</a>
</g>
</g>
<!-- Node1&#45;&gt;Node15 -->
<g id="edge15" class="edge">
<title>Node1&#45;&gt;Node15</title>
<path fill="none" stroke="#191970" d="M1337.2795,-244.6397C1342.4591,-224.8676 1347.4899,-205.6637 1351.5368,-190.2151"/>
<polygon fill="none" stroke="#191970" points="1333.877,-243.8171 1334.7285,-254.3777 1340.6485,-245.5911 1333.877,-243.8171"/>
</g>
<!-- Node16 -->
<g id="node17" class="node">
<title>Node16</title>
<g id="a_node17"><a xlink:href="classSignalIntegrity_1_1Lib_1_1SParameters_1_1Devices_1_1TerminationC_1_1TerminationC.xhtml" target="_top" xlink:title="s&#45;parameters of a termination (one&#45;port) capacitance ">
<polygon fill="#ffffff" stroke="#000000" points="1421,-111 1421,-201 1506,-201 1506,-111 1421,-111"/>
<text text-anchor="middle" x="1463.5" y="-189" font-family="Helvetica,sans-Serif" font-size="10.00" fill="#000000">TerminationC</text>
<polyline fill="none" stroke="#000000" points="1421,-182 1506,-182 "/>
<text text-anchor="start" x="1429" y="-170" font-family="Helvetica,sans-Serif" font-size="10.00" fill="#000000">+ m_C</text>
<text text-anchor="start" x="1429" y="-159" font-family="Helvetica,sans-Serif" font-size="10.00" fill="#000000">+ m_df</text>
<text text-anchor="start" x="1429" y="-148" font-family="Helvetica,sans-Serif" font-size="10.00" fill="#000000">+ m_esr</text>
<polyline fill="none" stroke="#000000" points="1421,-141 1506,-141 "/>
<text text-anchor="start" x="1429" y="-129" font-family="Helvetica,sans-Serif" font-size="10.00" fill="#000000">+ __init__()</text>
<text text-anchor="start" x="1429" y="-118" font-family="Helvetica,sans-Serif" font-size="10.00" fill="#000000">+ __getitem__()</text>
</a>
</g>
</g>
<!-- Node1&#45;&gt;Node16 -->
<g id="edge16" class="edge">
<title>Node1&#45;&gt;Node16</title>
<path fill="none" stroke="#191970" d="M1384.7997,-256.7872C1400.0214,-237.2936 1415.3048,-217.7209 1428.3005,-201.0781"/>
<polygon fill="none" stroke="#191970" points="1381.9136,-254.7963 1378.5177,-264.8322 1387.4309,-259.1045 1381.9136,-254.7963"/>
</g>
<!-- Node17 -->
<g id="node18" class="node">
<title>Node17</title>
<g id="a_node18"><a xlink:href="classSignalIntegrity_1_1Lib_1_1SParameters_1_1Devices_1_1TerminationL_1_1TerminationL.xhtml" target="_top" xlink:title="s&#45;parameters of a termination (one&#45;port) inductance ">
<polygon fill="#ffffff" stroke="#000000" points="1524,-122 1524,-190 1609,-190 1609,-122 1524,-122"/>
<text text-anchor="middle" x="1566.5" y="-178" font-family="Helvetica,sans-Serif" font-size="10.00" fill="#000000">TerminationL</text>
<polyline fill="none" stroke="#000000" points="1524,-171 1609,-171 "/>
<text text-anchor="start" x="1532" y="-159" font-family="Helvetica,sans-Serif" font-size="10.00" fill="#000000">+ m_L</text>
<polyline fill="none" stroke="#000000" points="1524,-152 1609,-152 "/>
<text text-anchor="start" x="1532" y="-140" font-family="Helvetica,sans-Serif" font-size="10.00" fill="#000000">+ __init__()</text>
<text text-anchor="start" x="1532" y="-129" font-family="Helvetica,sans-Serif" font-size="10.00" fill="#000000">+ __getitem__()</text>
</a>
</g>
</g>
<!-- Node1&#45;&gt;Node17 -->
<g id="edge17" class="edge">
<title>Node1&#45;&gt;Node17</title>
<path fill="none" stroke="#191970" d="M1387.6012,-310.0744C1427.9544,-285.5505 1476.5944,-253.0072 1515.5,-218 1524.7211,-209.7029 1533.6948,-199.6812 1541.4785,-190.1369"/>
<polygon fill="none" stroke="#191970" points="1385.6189,-307.1825 1378.8594,-315.341 1389.2312,-313.1785 1385.6189,-307.1825"/>
</g>
<!-- Node18 -->
<g id="node19" class="node">
<title>Node18</title>
<g id="a_node19"><a xlink:href="classSignalIntegrity_1_1Lib_1_1SParameters_1_1Devices_1_1TLineDifferentialRLGC_1_1TLineDifferentialRLGC.xhtml" target="_top" xlink:title="s&#45;parameters of differential RLGC (telegrapher&#39;s) transmission line ">
<polygon fill="#ffffff" stroke="#000000" points="1627.5,-116.5 1627.5,-195.5 1743.5,-195.5 1743.5,-116.5 1627.5,-116.5"/>
<text text-anchor="middle" x="1685.5" y="-183.5" font-family="Helvetica,sans-Serif" font-size="10.00" fill="#000000">TLineDifferentialRLGC</text>
<polyline fill="none" stroke="#000000" points="1627.5,-176.5 1743.5,-176.5 "/>
<text text-anchor="start" x="1635.5" y="-164.5" font-family="Helvetica,sans-Serif" font-size="10.00" fill="#000000">+ sp</text>
<text text-anchor="start" x="1635.5" y="-153.5" font-family="Helvetica,sans-Serif" font-size="10.00" fill="#000000">+ rtFraction</text>
<polyline fill="none" stroke="#000000" points="1627.5,-146.5 1743.5,-146.5 "/>
<text text-anchor="start" x="1635.5" y="-134.5" font-family="Helvetica,sans-Serif" font-size="10.00" fill="#000000">+ __init__()</text>
<text text-anchor="start" x="1635.5" y="-123.5" font-family="Helvetica,sans-Serif" font-size="10.00" fill="#000000">+ __getitem__()</text>
</a>
</g>
</g>
<!-- Node1&#45;&gt;Node18 -->
<g id="edge18" class="edge">
<title>Node1&#45;&gt;Node18</title>
<path fill="none" stroke="#191970" d="M1388.4249,-327.68C1453.3127,-303.9845 1545.6634,-265.795 1618.5,-218 1628.3051,-211.5659 1638.04,-203.671 1646.9259,-195.6974"/>
<polygon fill="none" stroke="#191970" points="1386.8685,-324.521 1378.6554,-331.2139 1389.2497,-331.1036 1386.8685,-324.521"/>
</g>
<!-- Node19 -->
<g id="node20" class="node">
<title>Node19</title>
<g id="a_node20"><a xlink:href="classSignalIntegrity_1_1Lib_1_1SParameters_1_1Devices_1_1TLineDifferentialRLGCApproximate_1_1TLineDifferentialRLGCApproximate.xhtml" target="_top" xlink:title="s&#45;parameters of differential RLGC (telegrapher&#39;s) transmission line calculated by approximating distr...">
<polygon fill="#ffffff" stroke="#000000" points="1761.5,-105.5 1761.5,-206.5 1931.5,-206.5 1931.5,-105.5 1761.5,-105.5"/>
<text text-anchor="middle" x="1846.5" y="-194.5" font-family="Helvetica,sans-Serif" font-size="10.00" fill="#000000">TLineDifferentialRLGCApproximate</text>
<polyline fill="none" stroke="#000000" points="1761.5,-187.5 1931.5,-187.5 "/>
<text text-anchor="start" x="1769.5" y="-175.5" font-family="Helvetica,sans-Serif" font-size="10.00" fill="#000000">+ m_K</text>
<text text-anchor="start" x="1769.5" y="-164.5" font-family="Helvetica,sans-Serif" font-size="10.00" fill="#000000">+ m_sspn</text>
<text text-anchor="start" x="1769.5" y="-153.5" font-family="Helvetica,sans-Serif" font-size="10.00" fill="#000000">+ m_spdl</text>
<text text-anchor="start" x="1769.5" y="-142.5" font-family="Helvetica,sans-Serif" font-size="10.00" fill="#000000">+ rtFraction</text>
<polyline fill="none" stroke="#000000" points="1761.5,-135.5 1931.5,-135.5 "/>
<text text-anchor="start" x="1769.5" y="-123.5" font-family="Helvetica,sans-Serif" font-size="10.00" fill="#000000">+ __init__()</text>
<text text-anchor="start" x="1769.5" y="-112.5" font-family="Helvetica,sans-Serif" font-size="10.00" fill="#000000">+ __getitem__()</text>
</a>
</g>
</g>
<!-- Node1&#45;&gt;Node19 -->
<g id="edge19" class="edge">
<title>Node1&#45;&gt;Node19</title>
<path fill="none" stroke="#191970" d="M1388.8158,-337.1179C1479.7535,-315.7909 1631.0496,-275.2758 1752.5,-218 1759.7496,-214.5811 1767.0881,-210.667 1774.3012,-206.5041"/>
<polygon fill="none" stroke="#191970" points="1387.7956,-333.7616 1378.848,-339.4353 1389.3808,-340.5798 1387.7956,-333.7616"/>
</g>
<!-- Node20 -->
<g id="node21" class="node">
<title>Node20</title>
<g id="a_node21"><a xlink:href="classSignalIntegrity_1_1Lib_1_1SParameters_1_1Devices_1_1TLineDifferentialRLGCBalanced_1_1TLineDifferentialRLGCBalanced.xhtml" target="_top" xlink:title="s&#45;parameters of analytic balanced differential RLGC (telegrapher&#39;s) transmission line. ">
<polygon fill="#ffffff" stroke="#000000" points="1949.5,-116.5 1949.5,-195.5 2105.5,-195.5 2105.5,-116.5 1949.5,-116.5"/>
<text text-anchor="middle" x="2027.5" y="-183.5" font-family="Helvetica,sans-Serif" font-size="10.00" fill="#000000">TLineDifferentialRLGCBalanced</text>
<polyline fill="none" stroke="#000000" points="1949.5,-176.5 2105.5,-176.5 "/>
<text text-anchor="start" x="1957.5" y="-164.5" font-family="Helvetica,sans-Serif" font-size="10.00" fill="#000000">+ m_sspn</text>
<text text-anchor="start" x="1957.5" y="-153.5" font-family="Helvetica,sans-Serif" font-size="10.00" fill="#000000">+ m_spdl</text>
<polyline fill="none" stroke="#000000" points="1949.5,-146.5 2105.5,-146.5 "/>
<text text-anchor="start" x="1957.5" y="-134.5" font-family="Helvetica,sans-Serif" font-size="10.00" fill="#000000">+ __init__()</text>
<text text-anchor="start" x="1957.5" y="-123.5" font-family="Helvetica,sans-Serif" font-size="10.00" fill="#000000">+ __getitem__()</text>
</a>
</g>
</g>
<!-- Node1&#45;&gt;Node20 -->
<g id="edge20" class="edge">
<title>Node1&#45;&gt;Node20</title>
<path fill="none" stroke="#191970" d="M1388.7913,-347.648C1512.0403,-334.8536 1753.2369,-300.7157 1940.5,-218 1953.7333,-212.1547 1966.9792,-204.1157 1979.0014,-195.7623"/>
<polygon fill="none" stroke="#191970" points="1388.2745,-344.1825 1378.6803,-348.6771 1388.9833,-351.1465 1388.2745,-344.1825"/>
</g>
<!-- Node21 -->
<g id="node22" class="node">
<title>Node21</title>
<g id="a_node22"><a xlink:href="classSignalIntegrity_1_1Lib_1_1SParameters_1_1Devices_1_1TLineDifferentialRLGCUncoupled_1_1TLineDifferentialRLGCUncoupled.xhtml" target="_top" xlink:title="s&#45;parameters of analytic uncoupled differential RLGC (telegrapher&#39;s) transmission line...">
<polygon fill="#ffffff" stroke="#000000" points="2123.5,-116.5 2123.5,-195.5 2285.5,-195.5 2285.5,-116.5 2123.5,-116.5"/>
<text text-anchor="middle" x="2204.5" y="-183.5" font-family="Helvetica,sans-Serif" font-size="10.00" fill="#000000">TLineDifferentialRLGCUncoupled</text>
<polyline fill="none" stroke="#000000" points="2123.5,-176.5 2285.5,-176.5 "/>
<text text-anchor="start" x="2131.5" y="-164.5" font-family="Helvetica,sans-Serif" font-size="10.00" fill="#000000">+ m_sspn</text>
<text text-anchor="start" x="2131.5" y="-153.5" font-family="Helvetica,sans-Serif" font-size="10.00" fill="#000000">+ m_spdl</text>
<polyline fill="none" stroke="#000000" points="2123.5,-146.5 2285.5,-146.5 "/>
<text text-anchor="start" x="2131.5" y="-134.5" font-family="Helvetica,sans-Serif" font-size="10.00" fill="#000000">+ __init__()</text>
<text text-anchor="start" x="2131.5" y="-123.5" font-family="Helvetica,sans-Serif" font-size="10.00" fill="#000000">+ __getitem__()</text>
</a>
</g>
</g>
<!-- Node1&#45;&gt;Node21 -->
<g id="edge21" class="edge">
<title>Node1&#45;&gt;Node21</title>
<path fill="none" stroke="#191970" d="M1388.7975,-345.3828C1565.5653,-324.5912 1983.0779,-271.3311 2114.5,-218 2128.565,-212.2924 2142.6285,-204.0974 2155.3178,-195.5269"/>
<polygon fill="none" stroke="#191970" points="1388.3037,-341.9166 1378.779,-346.5567 1389.1184,-348.8691 1388.3037,-341.9166"/>
</g>
<!-- Node22 -->
<g id="node23" class="node">
<title>Node22</title>
<g id="a_node23"><a xlink:href="classSignalIntegrity_1_1Lib_1_1SParameters_1_1Devices_1_1TLineLossless_1_1TLineLossless.xhtml" target="_top" xlink:title="s&#45;parameters of ideal lossless single&#45;ended transmission line ">
<polygon fill="#ffffff" stroke="#000000" points="2304,-111 2304,-201 2389,-201 2389,-111 2304,-111"/>
<text text-anchor="middle" x="2346.5" y="-189" font-family="Helvetica,sans-Serif" font-size="10.00" fill="#000000">TLineLossless</text>
<polyline fill="none" stroke="#000000" points="2304,-182 2389,-182 "/>
<text text-anchor="start" x="2312" y="-170" font-family="Helvetica,sans-Serif" font-size="10.00" fill="#000000">+ m_Zc</text>
<text text-anchor="start" x="2312" y="-159" font-family="Helvetica,sans-Serif" font-size="10.00" fill="#000000">+ m_Td</text>
<text text-anchor="start" x="2312" y="-148" font-family="Helvetica,sans-Serif" font-size="10.00" fill="#000000">+ m_P</text>
<polyline fill="none" stroke="#000000" points="2304,-141 2389,-141 "/>
<text text-anchor="start" x="2312" y="-129" font-family="Helvetica,sans-Serif" font-size="10.00" fill="#000000">+ __init__()</text>
<text text-anchor="start" x="2312" y="-118" font-family="Helvetica,sans-Serif" font-size="10.00" fill="#000000">+ __getitem__()</text>
</a>
</g>
</g>
<!-- Node1&#45;&gt;Node22 -->
<g id="edge22" class="edge">
<title>Node1&#45;&gt;Node22</title>
<path fill="none" stroke="#191970" d="M1388.7549,-350.7756C1595.0839,-340.0476 2138.7242,-304.1613 2294.5,-218 2302.2448,-213.7162 2309.327,-207.786 2315.6036,-201.2792"/>
<polygon fill="none" stroke="#191970" points="1388.4044,-347.2889 1378.5972,-351.2975 1388.7637,-354.2797 1388.4044,-347.2889"/>
</g>
<!-- Node23 -->
<g id="node24" class="node">
<title>Node23</title>
<g id="a_node24"><a xlink:href="classSignalIntegrity_1_1Lib_1_1SParameters_1_1Devices_1_1TLineTwoPortRLGC_1_1TLineTwoPortRLGC.xhtml" target="_top" xlink:title="s&#45;parameters of single&#45;ended RLGC (telegraphers) transmission line ">
<polygon fill="#ffffff" stroke="#000000" points="2407,-122 2407,-190 2512,-190 2512,-122 2407,-122"/>
<text text-anchor="middle" x="2459.5" y="-178" font-family="Helvetica,sans-Serif" font-size="10.00" fill="#000000">TLineTwoPortRLGC</text>
<polyline fill="none" stroke="#000000" points="2407,-171 2512,-171 "/>
<text text-anchor="start" x="2415" y="-159" font-family="Helvetica,sans-Serif" font-size="10.00" fill="#000000">+ sp</text>
<polyline fill="none" stroke="#000000" points="2407,-152 2512,-152 "/>
<text text-anchor="start" x="2415" y="-140" font-family="Helvetica,sans-Serif" font-size="10.00" fill="#000000">+ __init__()</text>
<text text-anchor="start" x="2415" y="-129" font-family="Helvetica,sans-Serif" font-size="10.00" fill="#000000">+ __getitem__()</text>
</a>
</g>
</g>
<!-- Node1&#45;&gt;Node23 -->
<g id="edge23" class="edge">
<title>Node1&#45;&gt;Node23</title>
<path fill="none" stroke="#191970" d="M1388.93,-351.2363C1609.6671,-341.2176 2220.314,-306.0723 2398.5,-218 2411.7661,-211.4429 2423.8147,-200.8203 2433.6337,-190.2057"/>
<polygon fill="none" stroke="#191970" points="1388.5498,-347.7497 1378.7167,-351.6945 1388.8636,-354.7427 1388.5498,-347.7497"/>
</g>
<!-- Node24 -->
<g id="node25" class="node">
<title>Node24</title>
<g id="a_node25"><a xlink:href="classSignalIntegrity_1_1Lib_1_1SParameters_1_1Devices_1_1TLineTwoPortRLGCAnalytic_1_1TLineTwoPortRLGCAnalytic.xhtml" target="_top" xlink:title="s&#45;parameters of analytic single&#45;ended telegraphers transmission line ">
<polygon fill="#ffffff" stroke="#000000" points="2530.5,-94.5 2530.5,-217.5 2670.5,-217.5 2670.5,-94.5 2530.5,-94.5"/>
<text text-anchor="middle" x="2600.5" y="-205.5" font-family="Helvetica,sans-Serif" font-size="10.00" fill="#000000">TLineTwoPortRLGCAnalytic</text>
<polyline fill="none" stroke="#000000" points="2530.5,-198.5 2670.5,-198.5 "/>
<text text-anchor="start" x="2538.5" y="-186.5" font-family="Helvetica,sans-Serif" font-size="10.00" fill="#000000">+ R</text>
<text text-anchor="start" x="2538.5" y="-175.5" font-family="Helvetica,sans-Serif" font-size="10.00" fill="#000000">+ Rse</text>
<text text-anchor="start" x="2538.5" y="-164.5" font-family="Helvetica,sans-Serif" font-size="10.00" fill="#000000">+ L</text>
<text text-anchor="start" x="2538.5" y="-153.5" font-family="Helvetica,sans-Serif" font-size="10.00" fill="#000000">+ G</text>
<text text-anchor="start" x="2538.5" y="-142.5" font-family="Helvetica,sans-Serif" font-size="10.00" fill="#000000">+ C</text>
<text text-anchor="start" x="2538.5" y="-131.5" font-family="Helvetica,sans-Serif" font-size="10.00" fill="#000000">+ df</text>
<polyline fill="none" stroke="#000000" points="2530.5,-124.5 2670.5,-124.5 "/>
<text text-anchor="start" x="2538.5" y="-112.5" font-family="Helvetica,sans-Serif" font-size="10.00" fill="#000000">+ __init__()</text>
<text text-anchor="start" x="2538.5" y="-101.5" font-family="Helvetica,sans-Serif" font-size="10.00" fill="#000000">+ __getitem__()</text>
</a>
</g>
</g>
<!-- Node1&#45;&gt;Node24 -->
<g id="edge24" class="edge">
<title>Node1&#45;&gt;Node24</title>
<path fill="none" stroke="#191970" d="M1389.0394,-351.1642C1625.6097,-340.4722 2314.7382,-302.6848 2521.5,-218 2524.4041,-216.8105 2527.2904,-215.4818 2530.147,-214.0393"/>
<polygon fill="none" stroke="#191970" points="1388.6252,-347.6792 1378.7918,-351.6232 1388.9385,-354.6722 1388.6252,-347.6792"/>
</g>
<!-- Node25 -->
<g id="node26" class="node">
<title>Node25</title>
<g id="a_node26"><a xlink:href="classSignalIntegrity_1_1Lib_1_1SParameters_1_1Devices_1_1TLineTwoPortRLGCApproximate_1_1TLineTwoPortRLGCApproximate.xhtml" target="_top" xlink:title="s&#45;parameters of two port RLGC (telegrapher&#39;s) transmission line calculated by approximating distribut...">
<polygon fill="#ffffff" stroke="#000000" points="2688.5,-105.5 2688.5,-206.5 2848.5,-206.5 2848.5,-105.5 2688.5,-105.5"/>
<text text-anchor="middle" x="2768.5" y="-194.5" font-family="Helvetica,sans-Serif" font-size="10.00" fill="#000000">TLineTwoPortRLGCApproximate</text>
<polyline fill="none" stroke="#000000" points="2688.5,-187.5 2848.5,-187.5 "/>
<text text-anchor="start" x="2696.5" y="-175.5" font-family="Helvetica,sans-Serif" font-size="10.00" fill="#000000">+ m_K</text>
<text text-anchor="start" x="2696.5" y="-164.5" font-family="Helvetica,sans-Serif" font-size="10.00" fill="#000000">+ m_sspn</text>
<text text-anchor="start" x="2696.5" y="-153.5" font-family="Helvetica,sans-Serif" font-size="10.00" fill="#000000">+ m_spdl</text>
<text text-anchor="start" x="2696.5" y="-142.5" font-family="Helvetica,sans-Serif" font-size="10.00" fill="#000000">+ rtFraction</text>
<polyline fill="none" stroke="#000000" points="2688.5,-135.5 2848.5,-135.5 "/>
<text text-anchor="start" x="2696.5" y="-123.5" font-family="Helvetica,sans-Serif" font-size="10.00" fill="#000000">+ __init__()</text>
<text text-anchor="start" x="2696.5" y="-112.5" font-family="Helvetica,sans-Serif" font-size="10.00" fill="#000000">+ __getitem__()</text>
</a>
</g>
</g>
<!-- Node1&#45;&gt;Node25 -->
<g id="edge25" class="edge">
<title>Node1&#45;&gt;Node25</title>
<path fill="none" stroke="#191970" d="M1388.9196,-351.8003C1645.1845,-342.3724 2439.7927,-306.5467 2679.5,-218 2687.7139,-214.9658 2695.8803,-210.9883 2703.7454,-206.5103"/>
<polygon fill="none" stroke="#191970" points="1388.4421,-348.3152 1378.5762,-352.1772 1388.6971,-355.3106 1388.4421,-348.3152"/>
</g>
<!-- Node26 -->
<g id="node27" class="node">
<title>Node26</title>
<g id="a_node27"><a xlink:href="classSignalIntegrity_1_1Lib_1_1SParameters_1_1SParameterFile_1_1SParameterFile.xhtml" target="_top" xlink:title="class for s&#45;parameters read from a file ">
<polygon fill="#ffffff" stroke="#000000" points="2866.5,-105.5 2866.5,-206.5 2950.5,-206.5 2950.5,-105.5 2866.5,-105.5"/>
<text text-anchor="middle" x="2908.5" y="-194.5" font-family="Helvetica,sans-Serif" font-size="10.00" fill="#000000">SParameterFile</text>
<polyline fill="none" stroke="#000000" points="2866.5,-187.5 2950.5,-187.5 "/>
<text text-anchor="start" x="2874.5" y="-175.5" font-family="Helvetica,sans-Serif" font-size="10.00" fill="#000000">+ m_sToken</text>
<text text-anchor="start" x="2874.5" y="-164.5" font-family="Helvetica,sans-Serif" font-size="10.00" fill="#000000">+ m_Z0</text>
<text text-anchor="start" x="2874.5" y="-153.5" font-family="Helvetica,sans-Serif" font-size="10.00" fill="#000000">+ m_P</text>
<text text-anchor="start" x="2874.5" y="-142.5" font-family="Helvetica,sans-Serif" font-size="10.00" fill="#000000">+ m_f</text>
<text text-anchor="start" x="2874.5" y="-131.5" font-family="Helvetica,sans-Serif" font-size="10.00" fill="#000000">+ m_d</text>
<polyline fill="none" stroke="#000000" points="2866.5,-124.5 2950.5,-124.5 "/>
<text text-anchor="start" x="2874.5" y="-112.5" font-family="Helvetica,sans-Serif" font-size="10.00" fill="#000000">+ __init__()</text>
</a>
</g>
</g>
<!-- Node1&#45;&gt;Node26 -->
<g id="edge26" class="edge">
<title>Node1&#45;&gt;Node26</title>
<path fill="none" stroke="#191970" d="M1388.9228,-351.0498C1688.1883,-337.7176 2726.8818,-286.8612 2857.5,-218 2863.1714,-215.0101 2868.4514,-211.0928 2873.2974,-206.678"/>
<polygon fill="none" stroke="#191970" points="1388.4267,-347.5683 1378.5917,-351.5082 1388.737,-354.5614 1388.4267,-347.5683"/>
</g>
<!-- Node6 -->
<g id="node7" class="node">
<title>Node6</title>
<g id="a_node7"><a xlink:href="classSignalIntegrity_1_1Lib_1_1Measurement_1_1CalKit_1_1Standards_1_1ThruStandard_1_1ThruStandard.xhtml" target="_top" xlink:title="Class providing the s&#45;parameters of a thru standard as commonly defined for a calibration kit...">
<polygon fill="#ffffff" stroke="#000000" points="338,-.5 338,-57.5 413,-57.5 413,-.5 338,-.5"/>
<text text-anchor="middle" x="375.5" y="-45.5" font-family="Helvetica,sans-Serif" font-size="10.00" fill="#000000">ThruStandard</text>
<polyline fill="none" stroke="#000000" points="338,-38.5 413,-38.5 "/>
<text text-anchor="middle" x="375.5" y="-26.5" font-family="Helvetica,sans-Serif" font-size="10.00" fill="#000000"> </text>
<polyline fill="none" stroke="#000000" points="338,-19.5 413,-19.5 "/>
<text text-anchor="start" x="346" y="-7.5" font-family="Helvetica,sans-Serif" font-size="10.00" fill="#000000">+ __init__()</text>
</a>
</g>
</g>
<!-- Node5&#45;&gt;Node6 -->
<g id="edge6" class="edge">
<title>Node5&#45;&gt;Node6</title>
<path fill="none" stroke="#191970" d="M375.5,-117.286C375.5,-98.1438 375.5,-75.4372 375.5,-57.8456"/>
<polygon fill="none" stroke="#191970" points="372.0001,-117.4987 375.5,-127.4987 379.0001,-117.4988 372.0001,-117.4987"/>
</g>
</g>
</svg>
