<?xml version="1.0" encoding="UTF-8" standalone="no"?>
<!DOCTYPE svg PUBLIC "-//W3C//DTD SVG 1.1//EN"
 "http://www.w3.org/Graphics/SVG/1.1/DTD/svg11.dtd">
<!-- Generated by graphviz version 2.40.1 (20161225.0304)
 -->
<!-- Title: SystemSParametersSymbolic Pages: 1 -->
<svg width="272pt" height="750pt"
 viewBox="0.00 0.00 272.00 750.00" xmlns="http://www.w3.org/2000/svg" xmlns:xlink="http://www.w3.org/1999/xlink">
<g id="graph0" class="graph" transform="scale(1 1) rotate(0) translate(4 746)">
<title>SystemSParametersSymbolic</title>
<polygon fill="#ffffff" stroke="transparent" points="-4,4 -4,-746 268,-746 268,4 -4,4"/>
<!-- Node0 -->
<g id="node1" class="node">
<title>Node0</title>
<polygon fill="#bfbfbf" stroke="#000000" points="57.5,-116.5 57.5,-184.5 205.5,-184.5 205.5,-116.5 57.5,-116.5"/>
<text text-anchor="middle" x="131.5" y="-172.5" font-family="Helvetica,sans-Serif" font-size="10.00" fill="#000000">SystemSParametersSymbolic</text>
<polyline fill="none" stroke="#000000" points="57.5,-165.5 205.5,-165.5 "/>
<text text-anchor="middle" x="131.5" y="-153.5" font-family="Helvetica,sans-Serif" font-size="10.00" fill="#000000"> </text>
<polyline fill="none" stroke="#000000" points="57.5,-146.5 205.5,-146.5 "/>
<text text-anchor="start" x="65.5" y="-134.5" font-family="Helvetica,sans-Serif" font-size="10.00" fill="#000000">+ __init__()</text>
<text text-anchor="start" x="65.5" y="-123.5" font-family="Helvetica,sans-Serif" font-size="10.00" fill="#000000">+ LaTeXSolution()</text>
</g>
<!-- Node5 -->
<g id="node6" class="node">
<title>Node5</title>
<g id="a_node6"><a xlink:href="classSignalIntegrity_1_1Lib_1_1SystemDescriptions_1_1SimulatorSymbolic_1_1SimulatorSymbolic.xhtml" target="_top" xlink:title="class for producing symbolic solutions to simulation problems. ">
<polygon fill="#ffffff" stroke="#000000" points="0,-.5 0,-79.5 123,-79.5 123,-.5 0,-.5"/>
<text text-anchor="middle" x="61.5" y="-67.5" font-family="Helvetica,sans-Serif" font-size="10.00" fill="#000000">SimulatorSymbolic</text>
<polyline fill="none" stroke="#000000" points="0,-60.5 123,-60.5 "/>
<text text-anchor="middle" x="61.5" y="-48.5" font-family="Helvetica,sans-Serif" font-size="10.00" fill="#000000"> </text>
<polyline fill="none" stroke="#000000" points="0,-41.5 123,-41.5 "/>
<text text-anchor="start" x="8" y="-29.5" font-family="Helvetica,sans-Serif" font-size="10.00" fill="#000000">+ __init__()</text>
<text text-anchor="start" x="8" y="-18.5" font-family="Helvetica,sans-Serif" font-size="10.00" fill="#000000">+ LaTeXTransferMatrix()</text>
<text text-anchor="start" x="8" y="-7.5" font-family="Helvetica,sans-Serif" font-size="10.00" fill="#000000">+ LaTeXEquations()</text>
</a>
</g>
</g>
<!-- Node0&#45;&gt;Node5 -->
<g id="edge5" class="edge">
<title>Node0&#45;&gt;Node5</title>
<path fill="none" stroke="#191970" d="M104.4136,-107.7422C98.5391,-98.4689 92.3507,-88.7001 86.5585,-79.5566"/>
<polygon fill="none" stroke="#191970" points="101.6184,-109.8701 109.9265,-116.4447 107.5317,-106.1241 101.6184,-109.8701"/>
</g>
<!-- Node6 -->
<g id="node7" class="node">
<title>Node6</title>
<g id="a_node7"><a xlink:href="classSignalIntegrity_1_1Lib_1_1SystemDescriptions_1_1VirtualProbeSymbolic_1_1VirtualProbeSymbolic.xhtml" target="_top" xlink:title="Class that provides symbolic solutions to virtual probe problems. ">
<polygon fill="#ffffff" stroke="#000000" points="141,-.5 141,-79.5 264,-79.5 264,-.5 141,-.5"/>
<text text-anchor="middle" x="202.5" y="-67.5" font-family="Helvetica,sans-Serif" font-size="10.00" fill="#000000">VirtualProbeSymbolic</text>
<polyline fill="none" stroke="#000000" points="141,-60.5 264,-60.5 "/>
<text text-anchor="middle" x="202.5" y="-48.5" font-family="Helvetica,sans-Serif" font-size="10.00" fill="#000000"> </text>
<polyline fill="none" stroke="#000000" points="141,-41.5 264,-41.5 "/>
<text text-anchor="start" x="149" y="-29.5" font-family="Helvetica,sans-Serif" font-size="10.00" fill="#000000">+ __init__()</text>
<text text-anchor="start" x="149" y="-18.5" font-family="Helvetica,sans-Serif" font-size="10.00" fill="#000000">+ LaTeXTransferMatrix()</text>
<text text-anchor="start" x="149" y="-7.5" font-family="Helvetica,sans-Serif" font-size="10.00" fill="#000000">+ LaTeXEquations()</text>
</a>
</g>
</g>
<!-- Node0&#45;&gt;Node6 -->
<g id="edge6" class="edge">
<title>Node0&#45;&gt;Node6</title>
<path fill="none" stroke="#191970" d="M158.7892,-108.0288C164.8023,-98.6703 171.148,-88.7943 177.0836,-79.5566"/>
<polygon fill="none" stroke="#191970" points="155.8428,-106.1397 153.3817,-116.4447 161.7319,-109.9237 155.8428,-106.1397"/>
</g>
<!-- Node1 -->
<g id="node2" class="node">
<title>Node1</title>
<g id="a_node2"><a xlink:href="classSignalIntegrity_1_1Lib_1_1SystemDescriptions_1_1SystemDescriptionSymbolic_1_1SystemDescriptionSymbolic.xhtml" target="_top" xlink:title="Solves system descriptions in the most basic manner common to all of the simulation, system s&#45;parameters, deembedding and virtual probing applications. ">
<polygon fill="#ffffff" stroke="#000000" points="61.5,-221.5 61.5,-289.5 201.5,-289.5 201.5,-221.5 61.5,-221.5"/>
<text text-anchor="middle" x="131.5" y="-277.5" font-family="Helvetica,sans-Serif" font-size="10.00" fill="#000000">SystemDescriptionSymbolic</text>
<polyline fill="none" stroke="#000000" points="61.5,-270.5 201.5,-270.5 "/>
<text text-anchor="middle" x="131.5" y="-258.5" font-family="Helvetica,sans-Serif" font-size="10.00" fill="#000000"> </text>
<polyline fill="none" stroke="#000000" points="61.5,-251.5 201.5,-251.5 "/>
<text text-anchor="start" x="69.5" y="-239.5" font-family="Helvetica,sans-Serif" font-size="10.00" fill="#000000">+ __init__()</text>
<text text-anchor="start" x="69.5" y="-228.5" font-family="Helvetica,sans-Serif" font-size="10.00" fill="#000000">+ LaTeXSystemEquation()</text>
</a>
</g>
</g>
<!-- Node1&#45;&gt;Node0 -->
<g id="edge1" class="edge">
<title>Node1&#45;&gt;Node0</title>
<path fill="none" stroke="#191970" d="M131.5,-211.2353C131.5,-202.3902 131.5,-193.2253 131.5,-184.7788"/>
<polygon fill="none" stroke="#191970" points="128.0001,-211.4095 131.5,-221.4095 135.0001,-211.4095 128.0001,-211.4095"/>
</g>
<!-- Node2 -->
<g id="node3" class="node">
<title>Node2</title>
<g id="a_node3"><a xlink:href="classSignalIntegrity_1_1Lib_1_1SystemDescriptions_1_1SystemSParameters_1_1SystemSParameters.xhtml" target="_top" xlink:title="base class for housekeeping involving system s&#45;parameters calculations ">
<polygon fill="#ffffff" stroke="#000000" points="16,-370.5 16,-493.5 123,-493.5 123,-370.5 16,-370.5"/>
<text text-anchor="middle" x="69.5" y="-481.5" font-family="Helvetica,sans-Serif" font-size="10.00" fill="#000000">SystemSParameters</text>
<polyline fill="none" stroke="#000000" points="16,-474.5 123,-474.5 "/>
<text text-anchor="middle" x="69.5" y="-462.5" font-family="Helvetica,sans-Serif" font-size="10.00" fill="#000000"> </text>
<polyline fill="none" stroke="#000000" points="16,-455.5 123,-455.5 "/>
<text text-anchor="start" x="24" y="-443.5" font-family="Helvetica,sans-Serif" font-size="10.00" fill="#000000">+ __init__()</text>
<text text-anchor="start" x="24" y="-432.5" font-family="Helvetica,sans-Serif" font-size="10.00" fill="#000000">+ PortANames()</text>
<text text-anchor="start" x="24" y="-421.5" font-family="Helvetica,sans-Serif" font-size="10.00" fill="#000000">+ PortBNames()</text>
<text text-anchor="start" x="24" y="-410.5" font-family="Helvetica,sans-Serif" font-size="10.00" fill="#000000">+ OtherNames()</text>
<text text-anchor="start" x="24" y="-399.5" font-family="Helvetica,sans-Serif" font-size="10.00" fill="#000000">+ NodeVector()</text>
<text text-anchor="start" x="24" y="-388.5" font-family="Helvetica,sans-Serif" font-size="10.00" fill="#000000">+ StimulusVector()</text>
<text text-anchor="start" x="24" y="-377.5" font-family="Helvetica,sans-Serif" font-size="10.00" fill="#000000"># WeightsMatrix()</text>
</a>
</g>
</g>
<!-- Node2&#45;&gt;Node1 -->
<g id="edge2" class="edge">
<title>Node2&#45;&gt;Node1</title>
<path fill="none" stroke="#191970" d="M94.5703,-360.6306C103.1725,-336.142 112.4075,-309.852 119.4907,-289.6879"/>
<polygon fill="none" stroke="#191970" points="91.1967,-359.674 91.1846,-370.2689 97.8011,-361.994 91.1967,-359.674"/>
</g>
<!-- Node3 -->
<g id="node4" class="node">
<title>Node3</title>
<g id="a_node4"><a xlink:href="classSignalIntegrity_1_1Lib_1_1SystemDescriptions_1_1SystemDescription_1_1SystemDescription.xhtml" target="_top" xlink:title="Allows the construction of system descriptions for use with all of the classes that solve schematics ...">
<polygon fill="#ffffff" stroke="#000000" points="10,-574.5 10,-741.5 129,-741.5 129,-574.5 10,-574.5"/>
<text text-anchor="middle" x="69.5" y="-729.5" font-family="Helvetica,sans-Serif" font-size="10.00" fill="#000000">SystemDescription</text>
<polyline fill="none" stroke="#000000" points="10,-722.5 129,-722.5 "/>
<text text-anchor="start" x="18" y="-710.5" font-family="Helvetica,sans-Serif" font-size="10.00" fill="#000000">+ m_UniqueDevice</text>
<text text-anchor="start" x="18" y="-699.5" font-family="Helvetica,sans-Serif" font-size="10.00" fill="#000000">+ m_UniqueNode</text>
<polyline fill="none" stroke="#000000" points="10,-692.5 129,-692.5 "/>
<text text-anchor="start" x="18" y="-680.5" font-family="Helvetica,sans-Serif" font-size="10.00" fill="#000000">+ __init__()</text>
<text text-anchor="start" x="18" y="-669.5" font-family="Helvetica,sans-Serif" font-size="10.00" fill="#000000">+ AddDevice()</text>
<text text-anchor="start" x="18" y="-658.5" font-family="Helvetica,sans-Serif" font-size="10.00" fill="#000000">+ AssignM()</text>
<text text-anchor="start" x="18" y="-647.5" font-family="Helvetica,sans-Serif" font-size="10.00" fill="#000000">+ DeviceNames()</text>
<text text-anchor="start" x="18" y="-636.5" font-family="Helvetica,sans-Serif" font-size="10.00" fill="#000000">+ IndexOfDevice()</text>
<text text-anchor="start" x="18" y="-625.5" font-family="Helvetica,sans-Serif" font-size="10.00" fill="#000000">+ CheckConnections()</text>
<text text-anchor="start" x="18" y="-614.5" font-family="Helvetica,sans-Serif" font-size="10.00" fill="#000000">+ ConnectDevicePort()</text>
<text text-anchor="start" x="18" y="-603.5" font-family="Helvetica,sans-Serif" font-size="10.00" fill="#000000">+ AddPort()</text>
<text text-anchor="start" x="18" y="-592.5" font-family="Helvetica,sans-Serif" font-size="10.00" fill="#000000">+ AssignSParameters()</text>
<text text-anchor="start" x="18" y="-581.5" font-family="Helvetica,sans-Serif" font-size="10.00" fill="#000000">+ Print()</text>
</a>
</g>
</g>
<!-- Node3&#45;&gt;Node2 -->
<g id="edge3" class="edge">
<title>Node3&#45;&gt;Node2</title>
<path fill="none" stroke="#191970" d="M69.5,-564.3461C69.5,-540.4818 69.5,-515.4311 69.5,-493.6237"/>
<polygon fill="none" stroke="#191970" points="66.0001,-564.488 69.5,-574.488 73.0001,-564.4881 66.0001,-564.488"/>
</g>
<!-- Node4 -->
<g id="node5" class="node">
<title>Node4</title>
<g id="a_node5"><a xlink:href="classSignalIntegrity_1_1Lib_1_1SystemDescriptions_1_1Symbolic_1_1Symbolic.xhtml" target="_top" xlink:title="base class for all symbolic solutions. ">
<polygon fill="#ffffff" stroke="#000000" points="141.5,-326.5 141.5,-537.5 245.5,-537.5 245.5,-326.5 141.5,-326.5"/>
<text text-anchor="middle" x="193.5" y="-525.5" font-family="Helvetica,sans-Serif" font-size="10.00" fill="#000000">Symbolic</text>
<polyline fill="none" stroke="#000000" points="141.5,-518.5 245.5,-518.5 "/>
<text text-anchor="start" x="149.5" y="-506.5" font-family="Helvetica,sans-Serif" font-size="10.00" fill="#000000">+ m_lines</text>
<text text-anchor="start" x="149.5" y="-495.5" font-family="Helvetica,sans-Serif" font-size="10.00" fill="#000000">+ m_docStart</text>
<text text-anchor="start" x="149.5" y="-484.5" font-family="Helvetica,sans-Serif" font-size="10.00" fill="#000000">+ m_docEnd</text>
<text text-anchor="start" x="149.5" y="-473.5" font-family="Helvetica,sans-Serif" font-size="10.00" fill="#000000">+ m_eqPrefix</text>
<text text-anchor="start" x="149.5" y="-462.5" font-family="Helvetica,sans-Serif" font-size="10.00" fill="#000000">+ m_eqSuffix</text>
<text text-anchor="start" x="149.5" y="-451.5" font-family="Helvetica,sans-Serif" font-size="10.00" fill="#000000">+ m_identity</text>
<text text-anchor="start" x="149.5" y="-440.5" font-family="Helvetica,sans-Serif" font-size="10.00" fill="#000000">+ m_eqEnvironment</text>
<text text-anchor="start" x="149.5" y="-429.5" font-family="Helvetica,sans-Serif" font-size="10.00" fill="#000000">+ m_small</text>
<polyline fill="none" stroke="#000000" points="141.5,-422.5 245.5,-422.5 "/>
<text text-anchor="start" x="149.5" y="-410.5" font-family="Helvetica,sans-Serif" font-size="10.00" fill="#000000">+ __init__()</text>
<text text-anchor="start" x="149.5" y="-399.5" font-family="Helvetica,sans-Serif" font-size="10.00" fill="#000000">+ Clear()</text>
<text text-anchor="start" x="149.5" y="-388.5" font-family="Helvetica,sans-Serif" font-size="10.00" fill="#000000">+ Emit()</text>
<text text-anchor="start" x="149.5" y="-377.5" font-family="Helvetica,sans-Serif" font-size="10.00" fill="#000000">+ DocStart()</text>
<text text-anchor="start" x="149.5" y="-366.5" font-family="Helvetica,sans-Serif" font-size="10.00" fill="#000000">+ DocEnd()</text>
<text text-anchor="start" x="149.5" y="-355.5" font-family="Helvetica,sans-Serif" font-size="10.00" fill="#000000">+ WriteToFile()</text>
<text text-anchor="start" x="149.5" y="-344.5" font-family="Helvetica,sans-Serif" font-size="10.00" fill="#000000">+ Get()</text>
<text text-anchor="start" x="149.5" y="-333.5" font-family="Helvetica,sans-Serif" font-size="10.00" fill="#000000">+ InstallSafeTees()</text>
</a>
</g>
</g>
<!-- Node4&#45;&gt;Node1 -->
<g id="edge4" class="edge">
<title>Node4&#45;&gt;Node1</title>
<path fill="none" stroke="#191970" d="M153.0276,-316.7843C149.5995,-307.0252 146.3424,-297.7529 143.4473,-289.5114"/>
<polygon fill="none" stroke="#191970" points="149.7441,-317.9975 156.3605,-326.2723 156.3484,-315.6775 149.7441,-317.9975"/>
</g>
</g>
</svg>
