<?xml version="1.0" encoding="UTF-8" standalone="no"?>
<!DOCTYPE svg PUBLIC "-//W3C//DTD SVG 1.1//EN"
 "http://www.w3.org/Graphics/SVG/1.1/DTD/svg11.dtd">
<!-- Generated by graphviz version 2.43.0 (0)
 -->
<!-- Title: CallBacker Pages: 1 -->
<svg width="1315pt" height="606pt"
 viewBox="0.00 0.00 1315.00 606.00" xmlns="http://www.w3.org/2000/svg" xmlns:xlink="http://www.w3.org/1999/xlink">
<g id="graph0" class="graph" transform="scale(1 1) rotate(0) translate(4 602)">
<title>CallBacker</title>
<polygon fill="white" stroke="transparent" points="-4,4 -4,-602 1311,-602 1311,4 -4,4"/>
<!-- Node1 -->
<g id="node1" class="node">
<title>Node1</title>
<g id="a_node1"><a xlink:title="Handles Callbacks that allow progress reporting during long calculations and capability to abort.">
<polygon fill="#bfbfbf" stroke="black" points="592,-496.5 592,-597.5 710,-597.5 710,-496.5 592,-496.5"/>
<text text-anchor="middle" x="651" y="-585.5" font-family="Helvetica,sans-Serif" font-size="10.00">CallBacker</text>
<polyline fill="none" stroke="black" points="592,-578.5 710,-578.5 "/>
<text text-anchor="start" x="600" y="-566.5" font-family="Helvetica,sans-Serif" font-size="10.00">+ callback</text>
<polyline fill="none" stroke="black" points="592,-559.5 710,-559.5 "/>
<text text-anchor="start" x="600" y="-547.5" font-family="Helvetica,sans-Serif" font-size="10.00">+ __init__()</text>
<text text-anchor="start" x="600" y="-536.5" font-family="Helvetica,sans-Serif" font-size="10.00">+ HasACallBack()</text>
<text text-anchor="start" x="600" y="-525.5" font-family="Helvetica,sans-Serif" font-size="10.00">+ CallBack()</text>
<text text-anchor="start" x="600" y="-514.5" font-family="Helvetica,sans-Serif" font-size="10.00">+ InstallCallback()</text>
<text text-anchor="start" x="600" y="-503.5" font-family="Helvetica,sans-Serif" font-size="10.00">+ RemoveCallback()</text>
</a>
</g>
</g>
<!-- Node2 -->
<g id="node2" class="node">
<title>Node2</title>
<g id="a_node2"><a xlink:href="classSignalIntegrity_1_1Lib_1_1Eye_1_1EyeDiagramBitmap_1_1EyeDiagramBitmap.xhtml" target="_top" xlink:title="Generates the eye diagram bitmap and many associated measurements from it.">
<polygon fill="white" stroke="black" points="0,-193.5 0,-459.5 122,-459.5 122,-193.5 0,-193.5"/>
<text text-anchor="middle" x="61" y="-447.5" font-family="Helvetica,sans-Serif" font-size="10.00">EyeDiagramBitmap</text>
<polyline fill="none" stroke="black" points="0,-440.5 122,-440.5 "/>
<text text-anchor="start" x="8" y="-428.5" font-family="Helvetica,sans-Serif" font-size="10.00">+ YAxisMode</text>
<text text-anchor="start" x="8" y="-417.5" font-family="Helvetica,sans-Serif" font-size="10.00">+ YMax</text>
<text text-anchor="start" x="8" y="-406.5" font-family="Helvetica,sans-Serif" font-size="10.00">+ YMin</text>
<text text-anchor="start" x="8" y="-395.5" font-family="Helvetica,sans-Serif" font-size="10.00">+ RowsSpecified</text>
<text text-anchor="start" x="8" y="-384.5" font-family="Helvetica,sans-Serif" font-size="10.00">+ Cols</text>
<text text-anchor="start" x="8" y="-373.5" font-family="Helvetica,sans-Serif" font-size="10.00">+ BaudRate</text>
<text text-anchor="start" x="8" y="-362.5" font-family="Helvetica,sans-Serif" font-size="10.00">+ prbswf</text>
<text text-anchor="start" x="8" y="-351.5" font-family="Helvetica,sans-Serif" font-size="10.00">+ EnhancementMode</text>
<text text-anchor="start" x="8" y="-340.5" font-family="Helvetica,sans-Serif" font-size="10.00">+ EnhancementSteps</text>
<text text-anchor="start" x="8" y="-329.5" font-family="Helvetica,sans-Serif" font-size="10.00">+ BitsPerSymbol</text>
<text text-anchor="start" x="8" y="-318.5" font-family="Helvetica,sans-Serif" font-size="10.00">and 10 more...</text>
<polyline fill="none" stroke="black" points="0,-311.5 122,-311.5 "/>
<text text-anchor="start" x="8" y="-299.5" font-family="Helvetica,sans-Serif" font-size="10.00">+ HashValue()</text>
<text text-anchor="start" x="8" y="-288.5" font-family="Helvetica,sans-Serif" font-size="10.00">+ __init__()</text>
<text text-anchor="start" x="8" y="-277.5" font-family="Helvetica,sans-Serif" font-size="10.00">+ Bitmap()</text>
<text text-anchor="start" x="8" y="-266.5" font-family="Helvetica,sans-Serif" font-size="10.00">+ ApplyJitterNoise()</text>
<text text-anchor="start" x="8" y="-255.5" font-family="Helvetica,sans-Serif" font-size="10.00">+ AutoAlign()</text>
<text text-anchor="start" x="8" y="-244.5" font-family="Helvetica,sans-Serif" font-size="10.00">+ Measure()</text>
<text text-anchor="start" x="8" y="-233.5" font-family="Helvetica,sans-Serif" font-size="10.00">+ Bathtub()</text>
<text text-anchor="start" x="8" y="-222.5" font-family="Helvetica,sans-Serif" font-size="10.00">+ Annotations()</text>
<text text-anchor="start" x="8" y="-211.5" font-family="Helvetica,sans-Serif" font-size="10.00">+ CreateImage()</text>
<text text-anchor="start" x="8" y="-200.5" font-family="Helvetica,sans-Serif" font-size="10.00">+ Penalties()</text>
</a>
</g>
</g>
<!-- Node1&#45;&gt;Node2 -->
<g id="edge1" class="edge">
<title>Node1&#45;&gt;Node2</title>
<path fill="none" stroke="midnightblue" d="M581.41,-542.08C456.8,-533.84 201.95,-511.12 131,-460 127.94,-457.79 125,-455.41 122.18,-452.89"/>
<polygon fill="none" stroke="midnightblue" points="581.4,-545.59 591.61,-542.74 581.85,-538.6 581.4,-545.59"/>
</g>
<!-- Node3 -->
<g id="node3" class="node">
<title>Node3</title>
<g id="a_node3"><a xlink:href="classSignalIntegrity_1_1Lib_1_1Fit_1_1LevMar_1_1LevMar.xhtml" target="_top" xlink:title="Implements the Levenberg&#45;Marquardt algorithm for non&#45;linear fitting &#160;&#160;To use this class,...">
<polygon fill="white" stroke="black" points="140,-204.5 140,-448.5 316,-448.5 316,-204.5 140,-204.5"/>
<text text-anchor="middle" x="228" y="-436.5" font-family="Helvetica,sans-Serif" font-size="10.00">LevMar</text>
<polyline fill="none" stroke="black" points="140,-429.5 316,-429.5 "/>
<text text-anchor="start" x="148" y="-417.5" font-family="Helvetica,sans-Serif" font-size="10.00">+ m_lambda</text>
<text text-anchor="start" x="148" y="-406.5" font-family="Helvetica,sans-Serif" font-size="10.00">+ m_lambdamin</text>
<text text-anchor="start" x="148" y="-395.5" font-family="Helvetica,sans-Serif" font-size="10.00">+ m_lambdamax</text>
<text text-anchor="start" x="148" y="-384.5" font-family="Helvetica,sans-Serif" font-size="10.00">+ m_lambdaMultiplier</text>
<text text-anchor="start" x="148" y="-373.5" font-family="Helvetica,sans-Serif" font-size="10.00">+ m_epsilon</text>
<text text-anchor="start" x="148" y="-362.5" font-family="Helvetica,sans-Serif" font-size="10.00">+ ccm</text>
<text text-anchor="start" x="148" y="-351.5" font-family="Helvetica,sans-Serif" font-size="10.00">+ m_a</text>
<text text-anchor="start" x="148" y="-340.5" font-family="Helvetica,sans-Serif" font-size="10.00">+ m_y</text>
<text text-anchor="start" x="148" y="-329.5" font-family="Helvetica,sans-Serif" font-size="10.00">+ m_sumw</text>
<text text-anchor="start" x="148" y="-318.5" font-family="Helvetica,sans-Serif" font-size="10.00">+ m_W</text>
<text text-anchor="start" x="148" y="-307.5" font-family="Helvetica,sans-Serif" font-size="10.00">and 10 more...</text>
<polyline fill="none" stroke="black" points="140,-300.5 316,-300.5 "/>
<text text-anchor="start" x="148" y="-288.5" font-family="Helvetica,sans-Serif" font-size="10.00">+ __init__()</text>
<text text-anchor="start" x="148" y="-277.5" font-family="Helvetica,sans-Serif" font-size="10.00">+ fF()</text>
<text text-anchor="start" x="148" y="-266.5" font-family="Helvetica,sans-Serif" font-size="10.00">+ fPartialFPartiala()</text>
<text text-anchor="start" x="148" y="-255.5" font-family="Helvetica,sans-Serif" font-size="10.00">+ fJ()</text>
<text text-anchor="start" x="148" y="-244.5" font-family="Helvetica,sans-Serif" font-size="10.00">+ AdjustVariablesAfterIteration()</text>
<text text-anchor="start" x="148" y="-233.5" font-family="Helvetica,sans-Serif" font-size="10.00">+ Initialize()</text>
<text text-anchor="start" x="148" y="-222.5" font-family="Helvetica,sans-Serif" font-size="10.00">+ Iterate()</text>
<text text-anchor="start" x="148" y="-211.5" font-family="Helvetica,sans-Serif" font-size="10.00">+ Solve()</text>
</a>
</g>
</g>
<!-- Node1&#45;&gt;Node3 -->
<g id="edge2" class="edge">
<title>Node1&#45;&gt;Node3</title>
<path fill="none" stroke="midnightblue" d="M581.91,-541.2C511.84,-533.43 402.9,-513.11 325,-460 319.94,-456.55 315.04,-452.74 310.31,-448.66"/>
<polygon fill="none" stroke="midnightblue" points="581.65,-544.7 591.96,-542.26 582.38,-537.73 581.65,-544.7"/>
</g>
<!-- Node4 -->
<g id="node4" class="node">
<title>Node4</title>
<g id="a_node4"><a xlink:href="classSignalIntegrity_1_1Lib_1_1Parsers_1_1CalibrationNumericParser_1_1CalibrationNumericParser.xhtml" target="_top" xlink:title="generates a calibration from a netlist">
<polygon fill="white" stroke="black" points="334,-292.5 334,-360.5 476,-360.5 476,-292.5 334,-292.5"/>
<text text-anchor="middle" x="405" y="-348.5" font-family="Helvetica,sans-Serif" font-size="10.00">CalibrationNumericParser</text>
<polyline fill="none" stroke="black" points="334,-341.5 476,-341.5 "/>
<text text-anchor="start" x="342" y="-329.5" font-family="Helvetica,sans-Serif" font-size="10.00">+ calibration</text>
<polyline fill="none" stroke="black" points="334,-322.5 476,-322.5 "/>
<text text-anchor="start" x="342" y="-310.5" font-family="Helvetica,sans-Serif" font-size="10.00">+ __init__()</text>
<text text-anchor="start" x="342" y="-299.5" font-family="Helvetica,sans-Serif" font-size="10.00">+ CalculateCalibration()</text>
</a>
</g>
</g>
<!-- Node1&#45;&gt;Node4 -->
<g id="edge3" class="edge">
<title>Node1&#45;&gt;Node4</title>
<path fill="none" stroke="midnightblue" d="M582.55,-520.75C550.32,-506.46 512.92,-486.16 485,-460 454.9,-431.8 432.13,-389.78 418.73,-360.65"/>
<polygon fill="none" stroke="midnightblue" points="581.36,-524.05 591.93,-524.81 584.14,-517.62 581.36,-524.05"/>
</g>
<!-- Node5 -->
<g id="node5" class="node">
<title>Node5</title>
<g id="a_node5"><a xlink:href="classSignalIntegrity_1_1Lib_1_1Parsers_1_1DeembedderNumericParser_1_1DeembedderNumericParser.xhtml" target="_top" xlink:title="generates deembedd s&#45;parameters from a netlist">
<polygon fill="white" stroke="black" points="494,-292.5 494,-360.5 646,-360.5 646,-292.5 494,-292.5"/>
<text text-anchor="middle" x="570" y="-348.5" font-family="Helvetica,sans-Serif" font-size="10.00">DeembedderNumericParser</text>
<polyline fill="none" stroke="black" points="494,-341.5 646,-341.5 "/>
<text text-anchor="start" x="502" y="-329.5" font-family="Helvetica,sans-Serif" font-size="10.00">+ sf</text>
<polyline fill="none" stroke="black" points="494,-322.5 646,-322.5 "/>
<text text-anchor="start" x="502" y="-310.5" font-family="Helvetica,sans-Serif" font-size="10.00">+ __init__()</text>
<text text-anchor="start" x="502" y="-299.5" font-family="Helvetica,sans-Serif" font-size="10.00">+ Deembed()</text>
</a>
</g>
</g>
<!-- Node1&#45;&gt;Node5 -->
<g id="edge4" class="edge">
<title>Node1&#45;&gt;Node5</title>
<path fill="none" stroke="midnightblue" d="M629.09,-486.91C614.06,-446.36 594.66,-394.03 582.27,-360.61"/>
<polygon fill="none" stroke="midnightblue" points="625.86,-488.26 632.62,-496.42 632.43,-485.83 625.86,-488.26"/>
</g>
<!-- Node6 -->
<g id="node6" class="node">
<title>Node6</title>
<g id="a_node6"><a xlink:href="classSignalIntegrity_1_1Lib_1_1Parsers_1_1SimulatorNumericParser_1_1SimulatorNumericParser.xhtml" target="_top" xlink:title="performs numeric simulations from netlists">
<polygon fill="white" stroke="black" points="664,-292.5 664,-360.5 800,-360.5 800,-292.5 664,-292.5"/>
<text text-anchor="middle" x="732" y="-348.5" font-family="Helvetica,sans-Serif" font-size="10.00">SimulatorNumericParser</text>
<polyline fill="none" stroke="black" points="664,-341.5 800,-341.5 "/>
<text text-anchor="start" x="672" y="-329.5" font-family="Helvetica,sans-Serif" font-size="10.00">+ transferMatrices</text>
<polyline fill="none" stroke="black" points="664,-322.5 800,-322.5 "/>
<text text-anchor="start" x="672" y="-310.5" font-family="Helvetica,sans-Serif" font-size="10.00">+ __init__()</text>
<text text-anchor="start" x="672" y="-299.5" font-family="Helvetica,sans-Serif" font-size="10.00">+ TransferMatrices()</text>
</a>
</g>
</g>
<!-- Node1&#45;&gt;Node6 -->
<g id="edge5" class="edge">
<title>Node1&#45;&gt;Node6</title>
<path fill="none" stroke="midnightblue" d="M672.91,-486.91C687.94,-446.36 707.34,-394.03 719.73,-360.61"/>
<polygon fill="none" stroke="midnightblue" points="669.57,-485.83 669.38,-496.42 676.14,-488.26 669.57,-485.83"/>
</g>
<!-- Node8 -->
<g id="node8" class="node">
<title>Node8</title>
<g id="a_node8"><a xlink:href="classSignalIntegrity_1_1Lib_1_1Parsers_1_1SystemSParametersParser_1_1SystemSParametersNumericParser.xhtml" target="_top" xlink:title="generates system s&#45;parameters from a netlist">
<polygon fill="white" stroke="black" points="818.5,-287 818.5,-366 975.5,-366 975.5,-287 818.5,-287"/>
<text text-anchor="start" x="826.5" y="-354" font-family="Helvetica,sans-Serif" font-size="10.00">SystemSParametersNumeric</text>
<text text-anchor="middle" x="897" y="-343" font-family="Helvetica,sans-Serif" font-size="10.00">Parser</text>
<polyline fill="none" stroke="black" points="818.5,-336 975.5,-336 "/>
<text text-anchor="start" x="826.5" y="-324" font-family="Helvetica,sans-Serif" font-size="10.00">+ sf</text>
<polyline fill="none" stroke="black" points="818.5,-317 975.5,-317 "/>
<text text-anchor="start" x="826.5" y="-305" font-family="Helvetica,sans-Serif" font-size="10.00">+ __init__()</text>
<text text-anchor="start" x="826.5" y="-294" font-family="Helvetica,sans-Serif" font-size="10.00">+ SParameters()</text>
</a>
</g>
</g>
<!-- Node1&#45;&gt;Node8 -->
<g id="edge7" class="edge">
<title>Node1&#45;&gt;Node8</title>
<path fill="none" stroke="midnightblue" d="M719.24,-517.9C748.97,-503.48 782.91,-483.89 809,-460 838.22,-433.24 862.34,-394.84 877.88,-366.27"/>
<polygon fill="none" stroke="midnightblue" points="717.7,-514.75 710.16,-522.2 720.7,-521.08 717.7,-514.75"/>
</g>
<!-- Node10 -->
<g id="node10" class="node">
<title>Node10</title>
<g id="a_node10"><a xlink:href="classSignalIntegrity_1_1Lib_1_1Parsers_1_1VirtualProbeNumericParser_1_1VirtualProbeNumericParser.xhtml" target="_top" xlink:title="performs numeric virtual probing from netlists">
<polygon fill="white" stroke="black" points="993.5,-287 993.5,-366 1142.5,-366 1142.5,-287 993.5,-287"/>
<text text-anchor="middle" x="1068" y="-354" font-family="Helvetica,sans-Serif" font-size="10.00">VirtualProbeNumericParser</text>
<polyline fill="none" stroke="black" points="993.5,-347 1142.5,-347 "/>
<text text-anchor="start" x="1001.5" y="-335" font-family="Helvetica,sans-Serif" font-size="10.00">+ transferMatrices</text>
<text text-anchor="start" x="1001.5" y="-324" font-family="Helvetica,sans-Serif" font-size="10.00">+ m_tm</text>
<polyline fill="none" stroke="black" points="993.5,-317 1142.5,-317 "/>
<text text-anchor="start" x="1001.5" y="-305" font-family="Helvetica,sans-Serif" font-size="10.00">+ __init__()</text>
<text text-anchor="start" x="1001.5" y="-294" font-family="Helvetica,sans-Serif" font-size="10.00">+ TransferMatrices()</text>
</a>
</g>
</g>
<!-- Node1&#45;&gt;Node10 -->
<g id="edge9" class="edge">
<title>Node1&#45;&gt;Node10</title>
<path fill="none" stroke="midnightblue" d="M720.68,-542.96C793.05,-536.62 906.47,-517.45 985,-460 1017.2,-436.44 1039.79,-396.25 1053.19,-366.29"/>
<polygon fill="none" stroke="midnightblue" points="719.99,-539.5 710.31,-543.8 720.56,-546.48 719.99,-539.5"/>
</g>
<!-- Node11 -->
<g id="node11" class="node">
<title>Node11</title>
<g id="a_node11"><a xlink:href="classSignalIntegrity_1_1Lib_1_1TimeDomain_1_1Filters_1_1TransferMatricesProcessor_1_1TransferMatricesProcessor.xhtml" target="_top" xlink:title="process transfer matrices &#160;&#160;Usually transfer matrices are produced in simulation and virtual probing ...">
<polygon fill="white" stroke="black" points="1161,-292.5 1161,-360.5 1307,-360.5 1307,-292.5 1161,-292.5"/>
<text text-anchor="middle" x="1234" y="-348.5" font-family="Helvetica,sans-Serif" font-size="10.00">TransferMatricesProcessor</text>
<polyline fill="none" stroke="black" points="1161,-341.5 1307,-341.5 "/>
<text text-anchor="start" x="1169" y="-329.5" font-family="Helvetica,sans-Serif" font-size="10.00">+ TransferMatrices</text>
<polyline fill="none" stroke="black" points="1161,-322.5 1307,-322.5 "/>
<text text-anchor="start" x="1169" y="-310.5" font-family="Helvetica,sans-Serif" font-size="10.00">+ __init__()</text>
<text text-anchor="start" x="1169" y="-299.5" font-family="Helvetica,sans-Serif" font-size="10.00">+ ProcessWaveforms()</text>
</a>
</g>
</g>
<!-- Node1&#45;&gt;Node11 -->
<g id="edge10" class="edge">
<title>Node1&#45;&gt;Node11</title>
<path fill="none" stroke="midnightblue" d="M720.4,-541.1C840.9,-531.47 1082.59,-506.81 1152,-460 1187.33,-436.18 1210.22,-391.52 1222.61,-360.67"/>
<polygon fill="none" stroke="midnightblue" points="719.88,-537.63 710.18,-541.91 720.43,-544.61 719.88,-537.63"/>
</g>
<!-- Node7 -->
<g id="node7" class="node">
<title>Node7</title>
<g id="a_node7"><a xlink:href="classSignalIntegrity_1_1Lib_1_1Parsers_1_1NetworkAnalyzerSimulationNumericParser_1_1NetworkAnalyzerSimulationNumericParser.xhtml" target="_top" xlink:title="performs numeric simulations from netlists">
<polygon fill="white" stroke="black" points="639.5,-0.5 639.5,-156.5 792.5,-156.5 792.5,-0.5 639.5,-0.5"/>
<text text-anchor="start" x="647.5" y="-144.5" font-family="Helvetica,sans-Serif" font-size="10.00">NetworkAnalyzerSimulation</text>
<text text-anchor="middle" x="716" y="-133.5" font-family="Helvetica,sans-Serif" font-size="10.00">NumericParser</text>
<polyline fill="none" stroke="black" points="639.5,-126.5 792.5,-126.5 "/>
<text text-anchor="start" x="647.5" y="-114.5" font-family="Helvetica,sans-Serif" font-size="10.00">+ PortConnectionList</text>
<text text-anchor="start" x="647.5" y="-103.5" font-family="Helvetica,sans-Serif" font-size="10.00">+ DutSParameters</text>
<text text-anchor="start" x="647.5" y="-92.5" font-family="Helvetica,sans-Serif" font-size="10.00">+ simulationType</text>
<text text-anchor="start" x="647.5" y="-81.5" font-family="Helvetica,sans-Serif" font-size="10.00">+ dutknown</text>
<text text-anchor="start" x="647.5" y="-70.5" font-family="Helvetica,sans-Serif" font-size="10.00">+ simulationNumPorts</text>
<text text-anchor="start" x="647.5" y="-59.5" font-family="Helvetica,sans-Serif" font-size="10.00">+ m_lines</text>
<polyline fill="none" stroke="black" points="639.5,-52.5 792.5,-52.5 "/>
<text text-anchor="start" x="647.5" y="-40.5" font-family="Helvetica,sans-Serif" font-size="10.00">+ __init__()</text>
<text text-anchor="start" x="647.5" y="-29.5" font-family="Helvetica,sans-Serif" font-size="10.00">+ HashValue()</text>
<text text-anchor="start" x="647.5" y="-18.5" font-family="Helvetica,sans-Serif" font-size="10.00">+ ArrangeSimulation()</text>
<text text-anchor="start" x="647.5" y="-7.5" font-family="Helvetica,sans-Serif" font-size="10.00">+ TransferMatrices()</text>
</a>
</g>
</g>
<!-- Node6&#45;&gt;Node7 -->
<g id="edge6" class="edge">
<title>Node6&#45;&gt;Node7</title>
<path fill="none" stroke="midnightblue" d="M729.17,-282.06C726.92,-247.38 723.7,-197.92 721.01,-156.56"/>
<polygon fill="none" stroke="midnightblue" points="725.7,-282.57 729.84,-292.32 732.69,-282.12 725.7,-282.57"/>
</g>
<!-- Node9 -->
<g id="node9" class="node">
<title>Node9</title>
<g id="a_node9"><a xlink:href="classSignalIntegrity_1_1Lib_1_1Parsers_1_1DUTSParametersNumericParser_1_1DUTSParametersNumericParser.xhtml" target="_top" xlink:title="generates s&#45;parameters of a DUT from a network analyzer model netlist">
<polygon fill="white" stroke="black" points="810.5,-22.5 810.5,-134.5 1013.5,-134.5 1013.5,-22.5 810.5,-22.5"/>
<text text-anchor="middle" x="912" y="-122.5" font-family="Helvetica,sans-Serif" font-size="10.00">DUTSParametersNumericParser</text>
<polyline fill="none" stroke="black" points="810.5,-115.5 1013.5,-115.5 "/>
<text text-anchor="start" x="818.5" y="-103.5" font-family="Helvetica,sans-Serif" font-size="10.00">+ NetworkAnalyzerProjectFile</text>
<text text-anchor="start" x="818.5" y="-92.5" font-family="Helvetica,sans-Serif" font-size="10.00">+ NetworkAnalyzerPortConnectionList</text>
<text text-anchor="start" x="818.5" y="-81.5" font-family="Helvetica,sans-Serif" font-size="10.00">+ m_lines</text>
<polyline fill="none" stroke="black" points="810.5,-74.5 1013.5,-74.5 "/>
<text text-anchor="start" x="818.5" y="-62.5" font-family="Helvetica,sans-Serif" font-size="10.00">+ __init__()</text>
<text text-anchor="start" x="818.5" y="-51.5" font-family="Helvetica,sans-Serif" font-size="10.00">+ HashValue()</text>
<text text-anchor="start" x="818.5" y="-40.5" font-family="Helvetica,sans-Serif" font-size="10.00">+ ConfigureForDUTCalculation()</text>
<text text-anchor="start" x="818.5" y="-29.5" font-family="Helvetica,sans-Serif" font-size="10.00">+ SParameters()</text>
</a>
</g>
</g>
<!-- Node8&#45;&gt;Node9 -->
<g id="edge8" class="edge">
<title>Node8&#45;&gt;Node9</title>
<path fill="none" stroke="midnightblue" d="M899.97,-276.8C902.46,-235.92 906.02,-177.54 908.62,-134.89"/>
<polygon fill="none" stroke="midnightblue" points="896.48,-276.6 899.36,-286.79 903.46,-277.02 896.48,-276.6"/>
</g>
</g>
</svg>
