<?xml version="1.0" encoding="UTF-8" standalone="no"?>
<!DOCTYPE svg PUBLIC "-//W3C//DTD SVG 1.1//EN"
 "http://www.w3.org/Graphics/SVG/1.1/DTD/svg11.dtd">
<!-- Generated by graphviz version 2.40.1 (20161225.0304)
 -->
<!-- Title: FrequencyDomain Pages: 1 -->
<svg width="276pt" height="336pt"
 viewBox="0.00 0.00 276.00 336.00" xmlns="http://www.w3.org/2000/svg" xmlns:xlink="http://www.w3.org/1999/xlink">
<g id="graph0" class="graph" transform="scale(1 1) rotate(0) translate(4 332)">
<title>FrequencyDomain</title>
<polygon fill="#ffffff" stroke="transparent" points="-4,4 -4,-332 272,-332 272,4 -4,4"/>
<!-- Node0 -->
<g id="node1" class="node">
<title>Node0</title>
<polygon fill="#bfbfbf" stroke="#000000" points="83,-182.5 83,-327.5 199,-327.5 199,-182.5 83,-182.5"/>
<text text-anchor="middle" x="141" y="-315.5" font-family="Helvetica,sans-Serif" font-size="10.00" fill="#000000">FrequencyDomain</text>
<polyline fill="none" stroke="#000000" points="83,-308.5 199,-308.5 "/>
<text text-anchor="start" x="91" y="-296.5" font-family="Helvetica,sans-Serif" font-size="10.00" fill="#000000">+ m_f</text>
<polyline fill="none" stroke="#000000" points="83,-289.5 199,-289.5 "/>
<text text-anchor="start" x="91" y="-277.5" font-family="Helvetica,sans-Serif" font-size="10.00" fill="#000000">+ __init__()</text>
<text text-anchor="start" x="91" y="-266.5" font-family="Helvetica,sans-Serif" font-size="10.00" fill="#000000">+ FrequencyList()</text>
<text text-anchor="start" x="91" y="-255.5" font-family="Helvetica,sans-Serif" font-size="10.00" fill="#000000">+ Frequencies()</text>
<text text-anchor="start" x="91" y="-244.5" font-family="Helvetica,sans-Serif" font-size="10.00" fill="#000000">+ Values()</text>
<text text-anchor="start" x="91" y="-233.5" font-family="Helvetica,sans-Serif" font-size="10.00" fill="#000000">+ ReadFromFile()</text>
<text text-anchor="start" x="91" y="-222.5" font-family="Helvetica,sans-Serif" font-size="10.00" fill="#000000">+ WriteToFile()</text>
<text text-anchor="start" x="91" y="-211.5" font-family="Helvetica,sans-Serif" font-size="10.00" fill="#000000">+ __eq__()</text>
<text text-anchor="start" x="91" y="-200.5" font-family="Helvetica,sans-Serif" font-size="10.00" fill="#000000">+ __ne__()</text>
<text text-anchor="start" x="91" y="-189.5" font-family="Helvetica,sans-Serif" font-size="10.00" fill="#000000">+ LimitEndFrequency()</text>
</g>
<!-- Node1 -->
<g id="node2" class="node">
<title>Node1</title>
<g id="a_node2"><a xlink:href="classSignalIntegrity_1_1Lib_1_1FrequencyDomain_1_1FrequencyContent_1_1FrequencyContent.xhtml" target="_top" xlink:title="Handles frequency content of waveforms. ">
<polygon fill="#ffffff" stroke="#000000" points="0,-.5 0,-145.5 140,-145.5 140,-.5 0,-.5"/>
<text text-anchor="middle" x="70" y="-133.5" font-family="Helvetica,sans-Serif" font-size="10.00" fill="#000000">FrequencyContent</text>
<polyline fill="none" stroke="#000000" points="0,-126.5 140,-126.5 "/>
<text text-anchor="start" x="8" y="-114.5" font-family="Helvetica,sans-Serif" font-size="10.00" fill="#000000">+ td</text>
<text text-anchor="start" x="8" y="-103.5" font-family="Helvetica,sans-Serif" font-size="10.00" fill="#000000">+ R</text>
<text text-anchor="start" x="8" y="-92.5" font-family="Helvetica,sans-Serif" font-size="10.00" fill="#000000">+ P</text>
<text text-anchor="start" x="8" y="-81.5" font-family="Helvetica,sans-Serif" font-size="10.00" fill="#000000">+ LogRP10</text>
<text text-anchor="start" x="8" y="-70.5" font-family="Helvetica,sans-Serif" font-size="10.00" fill="#000000">+ dB3</text>
<text text-anchor="start" x="8" y="-59.5" font-family="Helvetica,sans-Serif" font-size="10.00" fill="#000000">+ dB6</text>
<polyline fill="none" stroke="#000000" points="0,-52.5 140,-52.5 "/>
<text text-anchor="start" x="8" y="-40.5" font-family="Helvetica,sans-Serif" font-size="10.00" fill="#000000">+ __init__()</text>
<text text-anchor="start" x="8" y="-29.5" font-family="Helvetica,sans-Serif" font-size="10.00" fill="#000000">+ Values()</text>
<text text-anchor="start" x="8" y="-18.5" font-family="Helvetica,sans-Serif" font-size="10.00" fill="#000000">+ Waveform()</text>
<text text-anchor="start" x="8" y="-7.5" font-family="Helvetica,sans-Serif" font-size="10.00" fill="#000000">+ WaveformFromDefinition()</text>
</a>
</g>
</g>
<!-- Node0&#45;&gt;Node1 -->
<g id="edge1" class="edge">
<title>Node0&#45;&gt;Node1</title>
<path fill="none" stroke="#191970" d="M108.9593,-172.8675C105.4122,-163.775 101.8187,-154.5634 98.3221,-145.6003"/>
<polygon fill="none" stroke="#191970" points="105.7377,-174.24 112.6328,-182.2841 112.2591,-171.6959 105.7377,-174.24"/>
</g>
<!-- Node2 -->
<g id="node3" class="node">
<title>Node2</title>
<g id="a_node3"><a xlink:href="classSignalIntegrity_1_1Lib_1_1FrequencyDomain_1_1FrequencyResponse_1_1FrequencyResponse.xhtml" target="_top" xlink:title="FrequencyResponse. ">
<polygon fill="#ffffff" stroke="#000000" points="158,-22.5 158,-123.5 268,-123.5 268,-22.5 158,-22.5"/>
<text text-anchor="middle" x="213" y="-111.5" font-family="Helvetica,sans-Serif" font-size="10.00" fill="#000000">FrequencyResponse</text>
<polyline fill="none" stroke="#000000" points="158,-104.5 268,-104.5 "/>
<text text-anchor="middle" x="213" y="-92.5" font-family="Helvetica,sans-Serif" font-size="10.00" fill="#000000"> </text>
<polyline fill="none" stroke="#000000" points="158,-85.5 268,-85.5 "/>
<text text-anchor="start" x="166" y="-73.5" font-family="Helvetica,sans-Serif" font-size="10.00" fill="#000000">+ __init__()</text>
<text text-anchor="start" x="166" y="-62.5" font-family="Helvetica,sans-Serif" font-size="10.00" fill="#000000">+ Response()</text>
<text text-anchor="start" x="166" y="-51.5" font-family="Helvetica,sans-Serif" font-size="10.00" fill="#000000">+ ImpulseResponse()</text>
<text text-anchor="start" x="166" y="-40.5" font-family="Helvetica,sans-Serif" font-size="10.00" fill="#000000">+ Resample()</text>
<text text-anchor="start" x="166" y="-29.5" font-family="Helvetica,sans-Serif" font-size="10.00" fill="#000000">+ ResampleCZT()</text>
</a>
</g>
</g>
<!-- Node0&#45;&gt;Node2 -->
<g id="edge2" class="edge">
<title>Node0&#45;&gt;Node2</title>
<path fill="none" stroke="#191970" d="M173.6149,-172.5567C180.192,-155.9313 186.9211,-138.9216 192.9137,-123.7737"/>
<polygon fill="none" stroke="#191970" points="170.1908,-171.6978 169.7667,-182.2841 176.7,-174.2729 170.1908,-171.6978"/>
</g>
</g>
</svg>
