<?xml version="1.0" encoding="UTF-8" standalone="no"?>
<!DOCTYPE svg PUBLIC "-//W3C//DTD SVG 1.1//EN"
 "http://www.w3.org/Graphics/SVG/1.1/DTD/svg11.dtd">
<!-- Generated by graphviz version 2.43.0 (0)
 -->
<!-- Title: DeembedderSymbolic Pages: 1 -->
<svg width="241pt" height="689pt"
 viewBox="0.00 0.00 241.00 689.00" xmlns="http://www.w3.org/2000/svg" xmlns:xlink="http://www.w3.org/1999/xlink">
<g id="graph0" class="graph" transform="scale(1 1) rotate(0) translate(4 685)">
<title>DeembedderSymbolic</title>
<polygon fill="white" stroke="transparent" points="-4,4 -4,-685 237,-685 237,4 -4,4"/>
<!-- Node1 -->
<g id="node1" class="node">
<title>Node1</title>
<g id="a_node1"><a xlink:title=" ">
<polygon fill="#bfbfbf" stroke="black" points="63.5,-0.5 63.5,-68.5 176.5,-68.5 176.5,-0.5 63.5,-0.5"/>
<text text-anchor="middle" x="120" y="-56.5" font-family="Helvetica,sans-Serif" font-size="10.00">DeembedderSymbolic</text>
<polyline fill="none" stroke="black" points="63.5,-49.5 176.5,-49.5 "/>
<text text-anchor="start" x="71.5" y="-37.5" font-family="Helvetica,sans-Serif" font-size="10.00">+ m_Sk</text>
<polyline fill="none" stroke="black" points="63.5,-30.5 176.5,-30.5 "/>
<text text-anchor="start" x="71.5" y="-18.5" font-family="Helvetica,sans-Serif" font-size="10.00">+ __init__()</text>
<text text-anchor="start" x="71.5" y="-7.5" font-family="Helvetica,sans-Serif" font-size="10.00">+ SymbolicSolution()</text>
</a>
</g>
</g>
<!-- Node2 -->
<g id="node2" class="node">
<title>Node2</title>
<g id="a_node2"><a xlink:href="classSignalIntegrity_1_1Lib_1_1SystemDescriptions_1_1Deembedder_1_1Deembedder.xhtml" target="_top" xlink:title="housekeeping base class for deembedders">
<polygon fill="white" stroke="black" points="7,-149.5 7,-272.5 111,-272.5 111,-149.5 7,-149.5"/>
<text text-anchor="middle" x="59" y="-260.5" font-family="Helvetica,sans-Serif" font-size="10.00">Deembedder</text>
<polyline fill="none" stroke="black" points="7,-253.5 111,-253.5 "/>
<text text-anchor="middle" x="59" y="-241.5" font-family="Helvetica,sans-Serif" font-size="10.00"> </text>
<polyline fill="none" stroke="black" points="7,-234.5 111,-234.5 "/>
<text text-anchor="start" x="15" y="-222.5" font-family="Helvetica,sans-Serif" font-size="10.00">+ __init__()</text>
<text text-anchor="start" x="15" y="-211.5" font-family="Helvetica,sans-Serif" font-size="10.00">+ AddUnknown()</text>
<text text-anchor="start" x="15" y="-200.5" font-family="Helvetica,sans-Serif" font-size="10.00">+ DutANames()</text>
<text text-anchor="start" x="15" y="-189.5" font-family="Helvetica,sans-Serif" font-size="10.00">+ DutBNames()</text>
<text text-anchor="start" x="15" y="-178.5" font-family="Helvetica,sans-Serif" font-size="10.00">+ UnknownNames()</text>
<text text-anchor="start" x="15" y="-167.5" font-family="Helvetica,sans-Serif" font-size="10.00">+ UnknownPorts()</text>
<text text-anchor="start" x="15" y="-156.5" font-family="Helvetica,sans-Serif" font-size="10.00">+ Partition()</text>
</a>
</g>
</g>
<!-- Node2&#45;&gt;Node1 -->
<g id="edge1" class="edge">
<title>Node2&#45;&gt;Node1</title>
<path fill="none" stroke="midnightblue" d="M83.53,-139.84C92.07,-115.39 101.27,-89.08 108.29,-69"/>
<polygon fill="none" stroke="midnightblue" points="80.16,-138.86 80.16,-149.46 86.77,-141.17 80.16,-138.86"/>
</g>
<!-- Node3 -->
<g id="node3" class="node">
<title>Node3</title>
<g id="a_node3"><a xlink:href="classSignalIntegrity_1_1Lib_1_1SystemDescriptions_1_1SystemSParameters_1_1SystemSParameters.xhtml" target="_top" xlink:title="base class for housekeeping involving system s&#45;parameters calculations">
<polygon fill="white" stroke="black" points="5.5,-353.5 5.5,-476.5 112.5,-476.5 112.5,-353.5 5.5,-353.5"/>
<text text-anchor="middle" x="59" y="-464.5" font-family="Helvetica,sans-Serif" font-size="10.00">SystemSParameters</text>
<polyline fill="none" stroke="black" points="5.5,-457.5 112.5,-457.5 "/>
<text text-anchor="middle" x="59" y="-445.5" font-family="Helvetica,sans-Serif" font-size="10.00"> </text>
<polyline fill="none" stroke="black" points="5.5,-438.5 112.5,-438.5 "/>
<text text-anchor="start" x="13.5" y="-426.5" font-family="Helvetica,sans-Serif" font-size="10.00">+ __init__()</text>
<text text-anchor="start" x="13.5" y="-415.5" font-family="Helvetica,sans-Serif" font-size="10.00">+ PortANames()</text>
<text text-anchor="start" x="13.5" y="-404.5" font-family="Helvetica,sans-Serif" font-size="10.00">+ PortBNames()</text>
<text text-anchor="start" x="13.5" y="-393.5" font-family="Helvetica,sans-Serif" font-size="10.00">+ OtherNames()</text>
<text text-anchor="start" x="13.5" y="-382.5" font-family="Helvetica,sans-Serif" font-size="10.00">+ NodeVector()</text>
<text text-anchor="start" x="13.5" y="-371.5" font-family="Helvetica,sans-Serif" font-size="10.00">+ StimulusVector()</text>
<text text-anchor="start" x="13.5" y="-360.5" font-family="Helvetica,sans-Serif" font-size="10.00"># WeightsMatrix()</text>
</a>
</g>
</g>
<!-- Node3&#45;&gt;Node2 -->
<g id="edge2" class="edge">
<title>Node3&#45;&gt;Node2</title>
<path fill="none" stroke="midnightblue" d="M59,-343.32C59,-320.24 59,-294.83 59,-272.56"/>
<polygon fill="none" stroke="midnightblue" points="55.5,-343.39 59,-353.39 62.5,-343.39 55.5,-343.39"/>
</g>
<!-- Node4 -->
<g id="node4" class="node">
<title>Node4</title>
<g id="a_node4"><a xlink:href="classSignalIntegrity_1_1Lib_1_1SystemDescriptions_1_1SystemDescription_1_1SystemDescription.xhtml" target="_top" xlink:title="Allows the construction of system descriptions for use with all of the classes that solve schematics ...">
<polygon fill="white" stroke="black" points="0,-513.5 0,-680.5 118,-680.5 118,-513.5 0,-513.5"/>
<text text-anchor="middle" x="59" y="-668.5" font-family="Helvetica,sans-Serif" font-size="10.00">SystemDescription</text>
<polyline fill="none" stroke="black" points="0,-661.5 118,-661.5 "/>
<text text-anchor="start" x="8" y="-649.5" font-family="Helvetica,sans-Serif" font-size="10.00">+ m_UniqueDevice</text>
<text text-anchor="start" x="8" y="-638.5" font-family="Helvetica,sans-Serif" font-size="10.00">+ m_UniqueNode</text>
<polyline fill="none" stroke="black" points="0,-631.5 118,-631.5 "/>
<text text-anchor="start" x="8" y="-619.5" font-family="Helvetica,sans-Serif" font-size="10.00">+ __init__()</text>
<text text-anchor="start" x="8" y="-608.5" font-family="Helvetica,sans-Serif" font-size="10.00">+ AddDevice()</text>
<text text-anchor="start" x="8" y="-597.5" font-family="Helvetica,sans-Serif" font-size="10.00">+ AssignM()</text>
<text text-anchor="start" x="8" y="-586.5" font-family="Helvetica,sans-Serif" font-size="10.00">+ DeviceNames()</text>
<text text-anchor="start" x="8" y="-575.5" font-family="Helvetica,sans-Serif" font-size="10.00">+ IndexOfDevice()</text>
<text text-anchor="start" x="8" y="-564.5" font-family="Helvetica,sans-Serif" font-size="10.00">+ CheckConnections()</text>
<text text-anchor="start" x="8" y="-553.5" font-family="Helvetica,sans-Serif" font-size="10.00">+ ConnectDevicePort()</text>
<text text-anchor="start" x="8" y="-542.5" font-family="Helvetica,sans-Serif" font-size="10.00">+ AddPort()</text>
<text text-anchor="start" x="8" y="-531.5" font-family="Helvetica,sans-Serif" font-size="10.00">+ AssignSParameters()</text>
<text text-anchor="start" x="8" y="-520.5" font-family="Helvetica,sans-Serif" font-size="10.00">+ Print()</text>
</a>
</g>
</g>
<!-- Node4&#45;&gt;Node3 -->
<g id="edge3" class="edge">
<title>Node4&#45;&gt;Node3</title>
<path fill="none" stroke="midnightblue" d="M59,-503.19C59,-494.17 59,-485.19 59,-476.61"/>
<polygon fill="none" stroke="midnightblue" points="55.5,-503.38 59,-513.38 62.5,-503.38 55.5,-503.38"/>
</g>
<!-- Node5 -->
<g id="node5" class="node">
<title>Node5</title>
<g id="a_node5"><a xlink:href="classSignalIntegrity_1_1Lib_1_1SystemDescriptions_1_1Symbolic_1_1Symbolic.xhtml" target="_top" xlink:title="base class for all symbolic solutions.">
<polygon fill="white" stroke="black" points="129,-105.5 129,-316.5 233,-316.5 233,-105.5 129,-105.5"/>
<text text-anchor="middle" x="181" y="-304.5" font-family="Helvetica,sans-Serif" font-size="10.00">Symbolic</text>
<polyline fill="none" stroke="black" points="129,-297.5 233,-297.5 "/>
<text text-anchor="start" x="137" y="-285.5" font-family="Helvetica,sans-Serif" font-size="10.00">+ m_lines</text>
<text text-anchor="start" x="137" y="-274.5" font-family="Helvetica,sans-Serif" font-size="10.00">+ m_docStart</text>
<text text-anchor="start" x="137" y="-263.5" font-family="Helvetica,sans-Serif" font-size="10.00">+ m_docEnd</text>
<text text-anchor="start" x="137" y="-252.5" font-family="Helvetica,sans-Serif" font-size="10.00">+ m_eqPrefix</text>
<text text-anchor="start" x="137" y="-241.5" font-family="Helvetica,sans-Serif" font-size="10.00">+ m_eqSuffix</text>
<text text-anchor="start" x="137" y="-230.5" font-family="Helvetica,sans-Serif" font-size="10.00">+ m_identity</text>
<text text-anchor="start" x="137" y="-219.5" font-family="Helvetica,sans-Serif" font-size="10.00">+ m_eqEnvironment</text>
<text text-anchor="start" x="137" y="-208.5" font-family="Helvetica,sans-Serif" font-size="10.00">+ m_small</text>
<polyline fill="none" stroke="black" points="129,-201.5 233,-201.5 "/>
<text text-anchor="start" x="137" y="-189.5" font-family="Helvetica,sans-Serif" font-size="10.00">+ __init__()</text>
<text text-anchor="start" x="137" y="-178.5" font-family="Helvetica,sans-Serif" font-size="10.00">+ Clear()</text>
<text text-anchor="start" x="137" y="-167.5" font-family="Helvetica,sans-Serif" font-size="10.00">+ Emit()</text>
<text text-anchor="start" x="137" y="-156.5" font-family="Helvetica,sans-Serif" font-size="10.00">+ DocStart()</text>
<text text-anchor="start" x="137" y="-145.5" font-family="Helvetica,sans-Serif" font-size="10.00">+ DocEnd()</text>
<text text-anchor="start" x="137" y="-134.5" font-family="Helvetica,sans-Serif" font-size="10.00">+ WriteToFile()</text>
<text text-anchor="start" x="137" y="-123.5" font-family="Helvetica,sans-Serif" font-size="10.00">+ Get()</text>
<text text-anchor="start" x="137" y="-112.5" font-family="Helvetica,sans-Serif" font-size="10.00">+ InstallSafeTees()</text>
</a>
</g>
</g>
<!-- Node5&#45;&gt;Node1 -->
<g id="edge4" class="edge">
<title>Node5&#45;&gt;Node1</title>
<path fill="none" stroke="midnightblue" d="M141.14,-95.99C137.74,-86.23 134.5,-76.98 131.63,-68.77"/>
<polygon fill="none" stroke="midnightblue" points="137.86,-97.19 144.46,-105.47 144.46,-94.88 137.86,-97.19"/>
</g>
</g>
</svg>
