<?xml version="1.0" encoding="UTF-8" standalone="no"?>
<!DOCTYPE svg PUBLIC "-//W3C//DTD SVG 1.1//EN"
 "http://www.w3.org/Graphics/SVG/1.1/DTD/svg11.dtd">
<!-- Generated by graphviz version 2.43.0 (0)
 -->
<!-- Title: CallBacker Pages: 1 -->
<svg width="1175pt" height="650pt"
 viewBox="0.00 0.00 1175.00 650.00" xmlns="http://www.w3.org/2000/svg" xmlns:xlink="http://www.w3.org/1999/xlink">
<g id="graph0" class="graph" transform="scale(1 1) rotate(0) translate(4 646)">
<title>CallBacker</title>
<polygon fill="white" stroke="transparent" points="-4,4 -4,-646 1171,-646 1171,4 -4,4"/>
<!-- Node1 -->
<g id="node1" class="node">
<title>Node1</title>
<g id="a_node1"><a xlink:title="Handles Callbacks that allow progress reporting during long calculations and capability to abort.">
<polygon fill="#bfbfbf" stroke="black" points="533,-540.5 533,-641.5 651,-641.5 651,-540.5 533,-540.5"/>
<text text-anchor="middle" x="592" y="-629.5" font-family="Helvetica,sans-Serif" font-size="10.00">CallBacker</text>
<polyline fill="none" stroke="black" points="533,-622.5 651,-622.5 "/>
<text text-anchor="start" x="541" y="-610.5" font-family="Helvetica,sans-Serif" font-size="10.00">+ callback</text>
<polyline fill="none" stroke="black" points="533,-603.5 651,-603.5 "/>
<text text-anchor="start" x="541" y="-591.5" font-family="Helvetica,sans-Serif" font-size="10.00">+ __init__()</text>
<text text-anchor="start" x="541" y="-580.5" font-family="Helvetica,sans-Serif" font-size="10.00">+ HasACallBack()</text>
<text text-anchor="start" x="541" y="-569.5" font-family="Helvetica,sans-Serif" font-size="10.00">+ CallBack()</text>
<text text-anchor="start" x="541" y="-558.5" font-family="Helvetica,sans-Serif" font-size="10.00">+ InstallCallback()</text>
<text text-anchor="start" x="541" y="-547.5" font-family="Helvetica,sans-Serif" font-size="10.00">+ RemoveCallback()</text>
</a>
</g>
</g>
<!-- Node2 -->
<g id="node2" class="node">
<title>Node2</title>
<g id="a_node2"><a xlink:href="classSignalIntegrity_1_1Lib_1_1Fit_1_1LevMar_1_1LevMar.xhtml" target="_top" xlink:title="Implements the Levenberg&#45;Marquardt algorithm for non&#45;linear fitting &#160;&#160;To use this class,...">
<polygon fill="white" stroke="black" points="0,-259.5 0,-503.5 176,-503.5 176,-259.5 0,-259.5"/>
<text text-anchor="middle" x="88" y="-491.5" font-family="Helvetica,sans-Serif" font-size="10.00">LevMar</text>
<polyline fill="none" stroke="black" points="0,-484.5 176,-484.5 "/>
<text text-anchor="start" x="8" y="-472.5" font-family="Helvetica,sans-Serif" font-size="10.00">+ m_lambda</text>
<text text-anchor="start" x="8" y="-461.5" font-family="Helvetica,sans-Serif" font-size="10.00">+ m_lambdamin</text>
<text text-anchor="start" x="8" y="-450.5" font-family="Helvetica,sans-Serif" font-size="10.00">+ m_lambdamax</text>
<text text-anchor="start" x="8" y="-439.5" font-family="Helvetica,sans-Serif" font-size="10.00">+ m_lambdaMultiplier</text>
<text text-anchor="start" x="8" y="-428.5" font-family="Helvetica,sans-Serif" font-size="10.00">+ m_epsilon</text>
<text text-anchor="start" x="8" y="-417.5" font-family="Helvetica,sans-Serif" font-size="10.00">+ ccm</text>
<text text-anchor="start" x="8" y="-406.5" font-family="Helvetica,sans-Serif" font-size="10.00">+ m_a</text>
<text text-anchor="start" x="8" y="-395.5" font-family="Helvetica,sans-Serif" font-size="10.00">+ m_y</text>
<text text-anchor="start" x="8" y="-384.5" font-family="Helvetica,sans-Serif" font-size="10.00">+ m_sumw</text>
<text text-anchor="start" x="8" y="-373.5" font-family="Helvetica,sans-Serif" font-size="10.00">+ m_W</text>
<text text-anchor="start" x="8" y="-362.5" font-family="Helvetica,sans-Serif" font-size="10.00">and 10 more...</text>
<polyline fill="none" stroke="black" points="0,-355.5 176,-355.5 "/>
<text text-anchor="start" x="8" y="-343.5" font-family="Helvetica,sans-Serif" font-size="10.00">+ __init__()</text>
<text text-anchor="start" x="8" y="-332.5" font-family="Helvetica,sans-Serif" font-size="10.00">+ fF()</text>
<text text-anchor="start" x="8" y="-321.5" font-family="Helvetica,sans-Serif" font-size="10.00">+ fPartialFPartiala()</text>
<text text-anchor="start" x="8" y="-310.5" font-family="Helvetica,sans-Serif" font-size="10.00">+ fJ()</text>
<text text-anchor="start" x="8" y="-299.5" font-family="Helvetica,sans-Serif" font-size="10.00">+ AdjustVariablesAfterIteration()</text>
<text text-anchor="start" x="8" y="-288.5" font-family="Helvetica,sans-Serif" font-size="10.00">+ Initialize()</text>
<text text-anchor="start" x="8" y="-277.5" font-family="Helvetica,sans-Serif" font-size="10.00">+ Iterate()</text>
<text text-anchor="start" x="8" y="-266.5" font-family="Helvetica,sans-Serif" font-size="10.00">+ Solve()</text>
</a>
</g>
</g>
<!-- Node1&#45;&gt;Node2 -->
<g id="edge1" class="edge">
<title>Node1&#45;&gt;Node2</title>
<path fill="none" stroke="midnightblue" d="M522.74,-589.33C437.3,-585.52 290.44,-569.03 185,-504 182.01,-502.16 179.08,-500.19 176.2,-498.11"/>
<polygon fill="none" stroke="midnightblue" points="522.72,-592.83 532.85,-589.73 523,-585.84 522.72,-592.83"/>
</g>
<!-- Node4 -->
<g id="node4" class="node">
<title>Node4</title>
<g id="a_node4"><a xlink:href="classSignalIntegrity_1_1Lib_1_1Parsers_1_1CalibrationNumericParser_1_1CalibrationNumericParser.xhtml" target="_top" xlink:title="generates a calibration from a netlist">
<polygon fill="white" stroke="black" points="194,-347.5 194,-415.5 336,-415.5 336,-347.5 194,-347.5"/>
<text text-anchor="middle" x="265" y="-403.5" font-family="Helvetica,sans-Serif" font-size="10.00">CalibrationNumericParser</text>
<polyline fill="none" stroke="black" points="194,-396.5 336,-396.5 "/>
<text text-anchor="start" x="202" y="-384.5" font-family="Helvetica,sans-Serif" font-size="10.00">+ calibration</text>
<polyline fill="none" stroke="black" points="194,-377.5 336,-377.5 "/>
<text text-anchor="start" x="202" y="-365.5" font-family="Helvetica,sans-Serif" font-size="10.00">+ __init__()</text>
<text text-anchor="start" x="202" y="-354.5" font-family="Helvetica,sans-Serif" font-size="10.00">+ CalculateCalibration()</text>
</a>
</g>
</g>
<!-- Node1&#45;&gt;Node4 -->
<g id="edge3" class="edge">
<title>Node1&#45;&gt;Node4</title>
<path fill="none" stroke="midnightblue" d="M522.93,-578.48C469.9,-566.86 397.16,-544.63 345,-504 315.11,-480.72 292.78,-443.01 279.42,-415.77"/>
<polygon fill="none" stroke="midnightblue" points="522.42,-581.95 532.92,-580.6 523.87,-575.1 522.42,-581.95"/>
</g>
<!-- Node5 -->
<g id="node5" class="node">
<title>Node5</title>
<g id="a_node5"><a xlink:href="classSignalIntegrity_1_1Lib_1_1Parsers_1_1DeembedderNumericParser_1_1DeembedderNumericParser.xhtml" target="_top" xlink:title="generates deembedd s&#45;parameters from a netlist">
<polygon fill="white" stroke="black" points="354,-347.5 354,-415.5 506,-415.5 506,-347.5 354,-347.5"/>
<text text-anchor="middle" x="430" y="-403.5" font-family="Helvetica,sans-Serif" font-size="10.00">DeembedderNumericParser</text>
<polyline fill="none" stroke="black" points="354,-396.5 506,-396.5 "/>
<text text-anchor="start" x="362" y="-384.5" font-family="Helvetica,sans-Serif" font-size="10.00">+ sf</text>
<polyline fill="none" stroke="black" points="354,-377.5 506,-377.5 "/>
<text text-anchor="start" x="362" y="-365.5" font-family="Helvetica,sans-Serif" font-size="10.00">+ __init__()</text>
<text text-anchor="start" x="362" y="-354.5" font-family="Helvetica,sans-Serif" font-size="10.00">+ Deembed()</text>
</a>
</g>
</g>
<!-- Node1&#45;&gt;Node5 -->
<g id="edge4" class="edge">
<title>Node1&#45;&gt;Node5</title>
<path fill="none" stroke="midnightblue" d="M539.15,-532.88C530.88,-523.4 522.56,-513.54 515,-504 492.13,-475.15 468.29,-440.62 451.7,-415.76"/>
<polygon fill="none" stroke="midnightblue" points="536.53,-535.2 545.77,-540.4 541.79,-530.58 536.53,-535.2"/>
</g>
<!-- Node6 -->
<g id="node6" class="node">
<title>Node6</title>
<g id="a_node6"><a xlink:href="classSignalIntegrity_1_1Lib_1_1Parsers_1_1SimulatorNumericParser_1_1SimulatorNumericParser.xhtml" target="_top" xlink:title="performs numeric simulations from netlists">
<polygon fill="white" stroke="black" points="524,-347.5 524,-415.5 660,-415.5 660,-347.5 524,-347.5"/>
<text text-anchor="middle" x="592" y="-403.5" font-family="Helvetica,sans-Serif" font-size="10.00">SimulatorNumericParser</text>
<polyline fill="none" stroke="black" points="524,-396.5 660,-396.5 "/>
<text text-anchor="start" x="532" y="-384.5" font-family="Helvetica,sans-Serif" font-size="10.00">+ transferMatrices</text>
<polyline fill="none" stroke="black" points="524,-377.5 660,-377.5 "/>
<text text-anchor="start" x="532" y="-365.5" font-family="Helvetica,sans-Serif" font-size="10.00">+ __init__()</text>
<text text-anchor="start" x="532" y="-354.5" font-family="Helvetica,sans-Serif" font-size="10.00">+ TransferMatrices()</text>
</a>
</g>
</g>
<!-- Node1&#45;&gt;Node6 -->
<g id="edge5" class="edge">
<title>Node1&#45;&gt;Node6</title>
<path fill="none" stroke="midnightblue" d="M592,-530.06C592,-492.81 592,-446.34 592,-415.61"/>
<polygon fill="none" stroke="midnightblue" points="588.5,-530.3 592,-540.3 595.5,-530.3 588.5,-530.3"/>
</g>
<!-- Node8 -->
<g id="node8" class="node">
<title>Node8</title>
<g id="a_node8"><a xlink:href="classSignalIntegrity_1_1Lib_1_1Parsers_1_1SystemSParametersParser_1_1SystemSParametersNumericParser.xhtml" target="_top" xlink:title="generates system s&#45;parameters from a netlist">
<polygon fill="white" stroke="black" points="678.5,-342 678.5,-421 835.5,-421 835.5,-342 678.5,-342"/>
<text text-anchor="start" x="686.5" y="-409" font-family="Helvetica,sans-Serif" font-size="10.00">SystemSParametersNumeric</text>
<text text-anchor="middle" x="757" y="-398" font-family="Helvetica,sans-Serif" font-size="10.00">Parser</text>
<polyline fill="none" stroke="black" points="678.5,-391 835.5,-391 "/>
<text text-anchor="start" x="686.5" y="-379" font-family="Helvetica,sans-Serif" font-size="10.00">+ sf</text>
<polyline fill="none" stroke="black" points="678.5,-372 835.5,-372 "/>
<text text-anchor="start" x="686.5" y="-360" font-family="Helvetica,sans-Serif" font-size="10.00">+ __init__()</text>
<text text-anchor="start" x="686.5" y="-349" font-family="Helvetica,sans-Serif" font-size="10.00">+ SParameters()</text>
</a>
</g>
</g>
<!-- Node1&#45;&gt;Node8 -->
<g id="edge7" class="edge">
<title>Node1&#45;&gt;Node8</title>
<path fill="none" stroke="midnightblue" d="M644.71,-532.77C653.01,-523.3 661.36,-513.48 669,-504 690.74,-477.03 713.65,-445.29 730.63,-421.02"/>
<polygon fill="none" stroke="midnightblue" points="642.08,-530.47 638.09,-540.28 647.33,-535.1 642.08,-530.47"/>
</g>
<!-- Node10 -->
<g id="node10" class="node">
<title>Node10</title>
<g id="a_node10"><a xlink:href="classSignalIntegrity_1_1Lib_1_1Parsers_1_1VirtualProbeNumericParser_1_1VirtualProbeNumericParser.xhtml" target="_top" xlink:title="performs numeric virtual probing from netlists">
<polygon fill="white" stroke="black" points="853.5,-342 853.5,-421 1002.5,-421 1002.5,-342 853.5,-342"/>
<text text-anchor="middle" x="928" y="-409" font-family="Helvetica,sans-Serif" font-size="10.00">VirtualProbeNumericParser</text>
<polyline fill="none" stroke="black" points="853.5,-402 1002.5,-402 "/>
<text text-anchor="start" x="861.5" y="-390" font-family="Helvetica,sans-Serif" font-size="10.00">+ transferMatrices</text>
<text text-anchor="start" x="861.5" y="-379" font-family="Helvetica,sans-Serif" font-size="10.00">+ m_tm</text>
<polyline fill="none" stroke="black" points="853.5,-372 1002.5,-372 "/>
<text text-anchor="start" x="861.5" y="-360" font-family="Helvetica,sans-Serif" font-size="10.00">+ __init__()</text>
<text text-anchor="start" x="861.5" y="-349" font-family="Helvetica,sans-Serif" font-size="10.00">+ TransferMatrices()</text>
</a>
</g>
</g>
<!-- Node1&#45;&gt;Node10 -->
<g id="edge9" class="edge">
<title>Node1&#45;&gt;Node10</title>
<path fill="none" stroke="midnightblue" d="M660.9,-578.96C715.24,-567.51 790.66,-545.27 845,-504 873.58,-482.29 895.79,-447.81 910.01,-421.12"/>
<polygon fill="none" stroke="midnightblue" points="660.11,-575.55 651.01,-580.97 661.51,-582.41 660.11,-575.55"/>
</g>
<!-- Node11 -->
<g id="node11" class="node">
<title>Node11</title>
<g id="a_node11"><a xlink:href="classSignalIntegrity_1_1Lib_1_1TimeDomain_1_1Filters_1_1TransferMatricesProcessor_1_1TransferMatricesProcessor.xhtml" target="_top" xlink:title="process transfer matrices &#160;&#160;Usually transfer matrices are produced in simulation and virtual probing ...">
<polygon fill="white" stroke="black" points="1021,-347.5 1021,-415.5 1167,-415.5 1167,-347.5 1021,-347.5"/>
<text text-anchor="middle" x="1094" y="-403.5" font-family="Helvetica,sans-Serif" font-size="10.00">TransferMatricesProcessor</text>
<polyline fill="none" stroke="black" points="1021,-396.5 1167,-396.5 "/>
<text text-anchor="start" x="1029" y="-384.5" font-family="Helvetica,sans-Serif" font-size="10.00">+ TransferMatrices</text>
<polyline fill="none" stroke="black" points="1021,-377.5 1167,-377.5 "/>
<text text-anchor="start" x="1029" y="-365.5" font-family="Helvetica,sans-Serif" font-size="10.00">+ __init__()</text>
<text text-anchor="start" x="1029" y="-354.5" font-family="Helvetica,sans-Serif" font-size="10.00">+ ProcessWaveforms()</text>
</a>
</g>
</g>
<!-- Node1&#45;&gt;Node11 -->
<g id="edge10" class="edge">
<title>Node1&#45;&gt;Node11</title>
<path fill="none" stroke="midnightblue" d="M661.32,-582.23C765.28,-569.51 955.42,-541.85 1012,-504 1044.15,-482.49 1067.03,-443.69 1080.31,-415.72"/>
<polygon fill="none" stroke="midnightblue" points="660.74,-578.77 651.23,-583.45 661.58,-585.72 660.74,-578.77"/>
</g>
<!-- Node3 -->
<g id="node3" class="node">
<title>Node3</title>
<g id="a_node3"><a xlink:href="classSignalIntegrity_1_1Lib_1_1Fit_1_1RLGC_1_1RLGCFitter.xhtml" target="_top" xlink:title="fits a two&#45;port RLGC transmission line to s&#45;parameters">
<polygon fill="white" stroke="black" points="0,-0.5 0,-222.5 176,-222.5 176,-0.5 0,-0.5"/>
<text text-anchor="middle" x="88" y="-210.5" font-family="Helvetica,sans-Serif" font-size="10.00">RLGCFitter</text>
<polyline fill="none" stroke="black" points="0,-203.5 176,-203.5 "/>
<text text-anchor="start" x="8" y="-191.5" font-family="Helvetica,sans-Serif" font-size="10.00">+ m_sp</text>
<text text-anchor="start" x="8" y="-180.5" font-family="Helvetica,sans-Serif" font-size="10.00">+ f</text>
<text text-anchor="start" x="8" y="-169.5" font-family="Helvetica,sans-Serif" font-size="10.00">+ Z0</text>
<text text-anchor="start" x="8" y="-158.5" font-family="Helvetica,sans-Serif" font-size="10.00">+ ones</text>
<text text-anchor="start" x="8" y="-147.5" font-family="Helvetica,sans-Serif" font-size="10.00">+ dZdR</text>
<text text-anchor="start" x="8" y="-136.5" font-family="Helvetica,sans-Serif" font-size="10.00">+ dZdRse</text>
<text text-anchor="start" x="8" y="-125.5" font-family="Helvetica,sans-Serif" font-size="10.00">+ p2f</text>
<text text-anchor="start" x="8" y="-114.5" font-family="Helvetica,sans-Serif" font-size="10.00">+ dZdL</text>
<text text-anchor="start" x="8" y="-103.5" font-family="Helvetica,sans-Serif" font-size="10.00">+ zeros</text>
<text text-anchor="start" x="8" y="-92.5" font-family="Helvetica,sans-Serif" font-size="10.00">+ dZdG</text>
<text text-anchor="start" x="8" y="-81.5" font-family="Helvetica,sans-Serif" font-size="10.00">and 18 more...</text>
<polyline fill="none" stroke="black" points="0,-74.5 176,-74.5 "/>
<text text-anchor="start" x="8" y="-62.5" font-family="Helvetica,sans-Serif" font-size="10.00">+ __init__()</text>
<text text-anchor="start" x="8" y="-51.5" font-family="Helvetica,sans-Serif" font-size="10.00">+ fF()</text>
<text text-anchor="start" x="8" y="-40.5" font-family="Helvetica,sans-Serif" font-size="10.00">+ fJ()</text>
<text text-anchor="start" x="8" y="-29.5" font-family="Helvetica,sans-Serif" font-size="10.00">+ VectorizeSp()</text>
<text text-anchor="start" x="8" y="-18.5" font-family="Helvetica,sans-Serif" font-size="10.00">+ AdjustVariablesAfterIteration()</text>
<text text-anchor="start" x="8" y="-7.5" font-family="Helvetica,sans-Serif" font-size="10.00">+ Results()</text>
</a>
</g>
</g>
<!-- Node2&#45;&gt;Node3 -->
<g id="edge2" class="edge">
<title>Node2&#45;&gt;Node3</title>
<path fill="none" stroke="midnightblue" d="M88,-249.4C88,-240.5 88,-231.57 88,-222.79"/>
<polygon fill="none" stroke="midnightblue" points="84.5,-249.44 88,-259.44 91.5,-249.44 84.5,-249.44"/>
</g>
<!-- Node7 -->
<g id="node7" class="node">
<title>Node7</title>
<g id="a_node7"><a xlink:href="classSignalIntegrity_1_1Lib_1_1Parsers_1_1NetworkAnalyzerSimulationNumericParser_1_1NetworkAnalyzerSimulationNumericParser.xhtml" target="_top" xlink:title="performs numeric simulations from netlists">
<polygon fill="white" stroke="black" points="499.5,-33.5 499.5,-189.5 652.5,-189.5 652.5,-33.5 499.5,-33.5"/>
<text text-anchor="start" x="507.5" y="-177.5" font-family="Helvetica,sans-Serif" font-size="10.00">NetworkAnalyzerSimulation</text>
<text text-anchor="middle" x="576" y="-166.5" font-family="Helvetica,sans-Serif" font-size="10.00">NumericParser</text>
<polyline fill="none" stroke="black" points="499.5,-159.5 652.5,-159.5 "/>
<text text-anchor="start" x="507.5" y="-147.5" font-family="Helvetica,sans-Serif" font-size="10.00">+ PortConnectionList</text>
<text text-anchor="start" x="507.5" y="-136.5" font-family="Helvetica,sans-Serif" font-size="10.00">+ DutSParameters</text>
<text text-anchor="start" x="507.5" y="-125.5" font-family="Helvetica,sans-Serif" font-size="10.00">+ simulationType</text>
<text text-anchor="start" x="507.5" y="-114.5" font-family="Helvetica,sans-Serif" font-size="10.00">+ dutknown</text>
<text text-anchor="start" x="507.5" y="-103.5" font-family="Helvetica,sans-Serif" font-size="10.00">+ simulationNumPorts</text>
<text text-anchor="start" x="507.5" y="-92.5" font-family="Helvetica,sans-Serif" font-size="10.00">+ m_lines</text>
<polyline fill="none" stroke="black" points="499.5,-85.5 652.5,-85.5 "/>
<text text-anchor="start" x="507.5" y="-73.5" font-family="Helvetica,sans-Serif" font-size="10.00">+ __init__()</text>
<text text-anchor="start" x="507.5" y="-62.5" font-family="Helvetica,sans-Serif" font-size="10.00">+ HashValue()</text>
<text text-anchor="start" x="507.5" y="-51.5" font-family="Helvetica,sans-Serif" font-size="10.00">+ ArrangeSimulation()</text>
<text text-anchor="start" x="507.5" y="-40.5" font-family="Helvetica,sans-Serif" font-size="10.00">+ TransferMatrices()</text>
</a>
</g>
</g>
<!-- Node6&#45;&gt;Node7 -->
<g id="edge6" class="edge">
<title>Node6&#45;&gt;Node7</title>
<path fill="none" stroke="midnightblue" d="M589.42,-337.21C587.04,-297.43 583.47,-237.54 580.6,-189.6"/>
<polygon fill="none" stroke="midnightblue" points="585.93,-337.6 590.02,-347.37 592.92,-337.18 585.93,-337.6"/>
</g>
<!-- Node9 -->
<g id="node9" class="node">
<title>Node9</title>
<g id="a_node9"><a xlink:href="classSignalIntegrity_1_1Lib_1_1Parsers_1_1DUTSParametersNumericParser_1_1DUTSParametersNumericParser.xhtml" target="_top" xlink:title="generates s&#45;parameters of a DUT from a network analyzer model netlist">
<polygon fill="white" stroke="black" points="670.5,-55.5 670.5,-167.5 873.5,-167.5 873.5,-55.5 670.5,-55.5"/>
<text text-anchor="middle" x="772" y="-155.5" font-family="Helvetica,sans-Serif" font-size="10.00">DUTSParametersNumericParser</text>
<polyline fill="none" stroke="black" points="670.5,-148.5 873.5,-148.5 "/>
<text text-anchor="start" x="678.5" y="-136.5" font-family="Helvetica,sans-Serif" font-size="10.00">+ NetworkAnalyzerProjectFile</text>
<text text-anchor="start" x="678.5" y="-125.5" font-family="Helvetica,sans-Serif" font-size="10.00">+ NetworkAnalyzerPortConnectionList</text>
<text text-anchor="start" x="678.5" y="-114.5" font-family="Helvetica,sans-Serif" font-size="10.00">+ m_lines</text>
<polyline fill="none" stroke="black" points="670.5,-107.5 873.5,-107.5 "/>
<text text-anchor="start" x="678.5" y="-95.5" font-family="Helvetica,sans-Serif" font-size="10.00">+ __init__()</text>
<text text-anchor="start" x="678.5" y="-84.5" font-family="Helvetica,sans-Serif" font-size="10.00">+ HashValue()</text>
<text text-anchor="start" x="678.5" y="-73.5" font-family="Helvetica,sans-Serif" font-size="10.00">+ ConfigureForDUTCalculation()</text>
<text text-anchor="start" x="678.5" y="-62.5" font-family="Helvetica,sans-Serif" font-size="10.00">+ SParameters()</text>
</a>
</g>
</g>
<!-- Node8&#45;&gt;Node9 -->
<g id="edge8" class="edge">
<title>Node8&#45;&gt;Node9</title>
<path fill="none" stroke="midnightblue" d="M759.73,-331.75C762.31,-285.55 766.19,-216.23 768.9,-167.94"/>
<polygon fill="none" stroke="midnightblue" points="756.23,-331.64 759.17,-341.82 763.22,-332.03 756.23,-331.64"/>
</g>
</g>
</svg>
