<?xml version="1.0" encoding="UTF-8" standalone="no"?>
<!DOCTYPE svg PUBLIC "-//W3C//DTD SVG 1.1//EN"
 "http://www.w3.org/Graphics/SVG/1.1/DTD/svg11.dtd">
<!-- Generated by graphviz version 2.43.0 (0)
 -->
<!-- Title: ClockWaveform Pages: 1 -->
<svg width="157pt" height="408pt"
 viewBox="0.00 0.00 157.00 408.00" xmlns="http://www.w3.org/2000/svg" xmlns:xlink="http://www.w3.org/1999/xlink">
<g id="graph0" class="graph" transform="scale(1 1) rotate(0) translate(4 404)">
<title>ClockWaveform</title>
<polygon fill="white" stroke="transparent" points="-4,4 -4,-404 153,-404 153,4 -4,4"/>
<!-- Node1 -->
<g id="node1" class="node">
<title>Node1</title>
<g id="a_node1"><a xlink:title="a clock waveform">
<polygon fill="#bfbfbf" stroke="black" points="27,-0.5 27,-57.5 122,-57.5 122,-0.5 27,-0.5"/>
<text text-anchor="middle" x="74.5" y="-45.5" font-family="Helvetica,sans-Serif" font-size="10.00">ClockWaveform</text>
<polyline fill="none" stroke="black" points="27,-38.5 122,-38.5 "/>
<text text-anchor="middle" x="74.5" y="-26.5" font-family="Helvetica,sans-Serif" font-size="10.00"> </text>
<polyline fill="none" stroke="black" points="27,-19.5 122,-19.5 "/>
<text text-anchor="start" x="35" y="-7.5" font-family="Helvetica,sans-Serif" font-size="10.00">+ __init__()</text>
</a>
</g>
</g>
<!-- Node2 -->
<g id="node2" class="node">
<title>Node2</title>
<g id="a_node2"><a xlink:href="classSignalIntegrity_1_1Lib_1_1Prbs_1_1SerialDataWaveform_1_1SerialDataWaveform.xhtml" target="_top" xlink:title="a serial data NRZ waveform">
<polygon fill="white" stroke="black" points="15,-94.5 15,-162.5 134,-162.5 134,-94.5 15,-94.5"/>
<text text-anchor="middle" x="74.5" y="-150.5" font-family="Helvetica,sans-Serif" font-size="10.00">SerialDataWaveform</text>
<polyline fill="none" stroke="black" points="15,-143.5 134,-143.5 "/>
<text text-anchor="start" x="23" y="-131.5" font-family="Helvetica,sans-Serif" font-size="10.00">+ rtvsT</text>
<polyline fill="none" stroke="black" points="15,-124.5 134,-124.5 "/>
<text text-anchor="start" x="23" y="-112.5" font-family="Helvetica,sans-Serif" font-size="10.00">+ __init__()</text>
<text text-anchor="start" x="23" y="-101.5" font-family="Helvetica,sans-Serif" font-size="10.00">+ TimeDescriptor()</text>
</a>
</g>
</g>
<!-- Node2&#45;&gt;Node1 -->
<g id="edge1" class="edge">
<title>Node2&#45;&gt;Node1</title>
<path fill="none" stroke="midnightblue" d="M74.5,-84.45C74.5,-75.4 74.5,-66.09 74.5,-57.78"/>
<polygon fill="none" stroke="midnightblue" points="71,-84.49 74.5,-94.49 78,-84.49 71,-84.49"/>
</g>
<!-- Node3 -->
<g id="node3" class="node">
<title>Node3</title>
<g id="a_node3"><a xlink:href="classSignalIntegrity_1_1Lib_1_1TimeDomain_1_1Waveform_1_1Waveform_1_1Waveform.xhtml" target="_top" xlink:title="base class for all waveforms">
<polygon fill="white" stroke="black" points="0,-199.5 0,-399.5 149,-399.5 149,-199.5 0,-199.5"/>
<text text-anchor="middle" x="74.5" y="-387.5" font-family="Helvetica,sans-Serif" font-size="10.00">Waveform</text>
<polyline fill="none" stroke="black" points="0,-380.5 149,-380.5 "/>
<text text-anchor="start" x="8" y="-368.5" font-family="Helvetica,sans-Serif" font-size="10.00">+ td</text>
<text text-anchor="start" x="8" y="-357.5" font-family="Helvetica,sans-Serif" font-size="10.00">+ adaptionStrategy</text>
<text text-anchor="start" x="8" y="-346.5" font-family="Helvetica,sans-Serif" font-size="10.00">+ epsilon</text>
<text text-anchor="start" x="8" y="-335.5" font-family="Helvetica,sans-Serif" font-size="10.00">+ maximumWaveformSize</text>
<polyline fill="none" stroke="black" points="0,-328.5 149,-328.5 "/>
<text text-anchor="start" x="8" y="-316.5" font-family="Helvetica,sans-Serif" font-size="10.00">+ __init__()</text>
<text text-anchor="start" x="8" y="-305.5" font-family="Helvetica,sans-Serif" font-size="10.00">+ Times()</text>
<text text-anchor="start" x="8" y="-294.5" font-family="Helvetica,sans-Serif" font-size="10.00">+ TimeDescriptor()</text>
<text text-anchor="start" x="8" y="-283.5" font-family="Helvetica,sans-Serif" font-size="10.00">+ Values()</text>
<text text-anchor="start" x="8" y="-272.5" font-family="Helvetica,sans-Serif" font-size="10.00">+ OffsetBy()</text>
<text text-anchor="start" x="8" y="-261.5" font-family="Helvetica,sans-Serif" font-size="10.00">+ DelayBy()</text>
<text text-anchor="start" x="8" y="-250.5" font-family="Helvetica,sans-Serif" font-size="10.00">+ __add__()</text>
<text text-anchor="start" x="8" y="-239.5" font-family="Helvetica,sans-Serif" font-size="10.00">+ __sub__()</text>
<text text-anchor="start" x="8" y="-228.5" font-family="Helvetica,sans-Serif" font-size="10.00">+ __radd__()</text>
<text text-anchor="start" x="8" y="-217.5" font-family="Helvetica,sans-Serif" font-size="10.00">+ __mul__()</text>
<text text-anchor="start" x="8" y="-206.5" font-family="Helvetica,sans-Serif" font-size="10.00">and 13 more...</text>
</a>
</g>
</g>
<!-- Node3&#45;&gt;Node2 -->
<g id="edge2" class="edge">
<title>Node3&#45;&gt;Node2</title>
<path fill="none" stroke="midnightblue" d="M74.5,-188.92C74.5,-179.58 74.5,-170.68 74.5,-162.75"/>
<polygon fill="none" stroke="midnightblue" points="71,-189.21 74.5,-199.21 78,-189.21 71,-189.21"/>
</g>
</g>
</svg>
