<?xml version="1.0" encoding="UTF-8" standalone="no"?>
<!DOCTYPE svg PUBLIC "-//W3C//DTD SVG 1.1//EN"
 "http://www.w3.org/Graphics/SVG/1.1/DTD/svg11.dtd">
<!-- Generated by graphviz version 2.40.1 (20161225.0304)
 -->
<!-- Title: TLineDifferentialRLGCApproximate Pages: 1 -->
<svg width="178pt" height="463pt"
 viewBox="0.00 0.00 178.00 463.00" xmlns="http://www.w3.org/2000/svg" xmlns:xlink="http://www.w3.org/1999/xlink">
<g id="graph0" class="graph" transform="scale(1 1) rotate(0) translate(4 459)">
<title>TLineDifferentialRLGCApproximate</title>
<polygon fill="#ffffff" stroke="transparent" points="-4,4 -4,-459 174,-459 174,4 -4,4"/>
<!-- Node3 -->
<g id="node1" class="node">
<title>Node3</title>
<polygon fill="#bfbfbf" stroke="#000000" points="0,-.5 0,-90.5 170,-90.5 170,-.5 0,-.5"/>
<text text-anchor="middle" x="85" y="-78.5" font-family="Helvetica,sans-Serif" font-size="10.00" fill="#000000">TLineDifferentialRLGCApproximate</text>
<polyline fill="none" stroke="#000000" points="0,-71.5 170,-71.5 "/>
<text text-anchor="start" x="8" y="-59.5" font-family="Helvetica,sans-Serif" font-size="10.00" fill="#000000">+ m_K</text>
<text text-anchor="start" x="8" y="-48.5" font-family="Helvetica,sans-Serif" font-size="10.00" fill="#000000">+ m_sspn</text>
<text text-anchor="start" x="8" y="-37.5" font-family="Helvetica,sans-Serif" font-size="10.00" fill="#000000">+ m_spdl</text>
<polyline fill="none" stroke="#000000" points="0,-30.5 170,-30.5 "/>
<text text-anchor="start" x="8" y="-18.5" font-family="Helvetica,sans-Serif" font-size="10.00" fill="#000000">+ __init__()</text>
<text text-anchor="start" x="8" y="-7.5" font-family="Helvetica,sans-Serif" font-size="10.00" fill="#000000">+ __getitem__()</text>
</g>
<!-- Node4 -->
<g id="node2" class="node">
<title>Node4</title>
<g id="a_node2"><a xlink:href="classSignalIntegrity_1_1SParameters_1_1SParameters_1_1SParameters.xhtml" target="_top" xlink:title="Class containing s&#45;parameters. ">
<polygon fill="#ffffff" stroke="#000000" points="15,-127.5 15,-316.5 155,-316.5 155,-127.5 15,-127.5"/>
<text text-anchor="middle" x="85" y="-304.5" font-family="Helvetica,sans-Serif" font-size="10.00" fill="#000000">SParameters</text>
<polyline fill="none" stroke="#000000" points="15,-297.5 155,-297.5 "/>
<text text-anchor="start" x="23" y="-285.5" font-family="Helvetica,sans-Serif" font-size="10.00" fill="#000000">+ m_sToken</text>
<text text-anchor="start" x="23" y="-274.5" font-family="Helvetica,sans-Serif" font-size="10.00" fill="#000000">+ m_d</text>
<text text-anchor="start" x="23" y="-263.5" font-family="Helvetica,sans-Serif" font-size="10.00" fill="#000000">+ m_Z0</text>
<text text-anchor="start" x="23" y="-252.5" font-family="Helvetica,sans-Serif" font-size="10.00" fill="#000000">+ m_f</text>
<text text-anchor="start" x="23" y="-241.5" font-family="Helvetica,sans-Serif" font-size="10.00" fill="#000000">+ m_P</text>
<polyline fill="none" stroke="#000000" points="15,-234.5 155,-234.5 "/>
<text text-anchor="start" x="23" y="-222.5" font-family="Helvetica,sans-Serif" font-size="10.00" fill="#000000">+ __init__()</text>
<text text-anchor="start" x="23" y="-211.5" font-family="Helvetica,sans-Serif" font-size="10.00" fill="#000000">+ __getitem__()</text>
<text text-anchor="start" x="23" y="-200.5" font-family="Helvetica,sans-Serif" font-size="10.00" fill="#000000">+ __len__()</text>
<text text-anchor="start" x="23" y="-189.5" font-family="Helvetica,sans-Serif" font-size="10.00" fill="#000000">+ f()</text>
<text text-anchor="start" x="23" y="-178.5" font-family="Helvetica,sans-Serif" font-size="10.00" fill="#000000">+ Response()</text>
<text text-anchor="start" x="23" y="-167.5" font-family="Helvetica,sans-Serif" font-size="10.00" fill="#000000">+ FrequencyResponse()</text>
<text text-anchor="start" x="23" y="-156.5" font-family="Helvetica,sans-Serif" font-size="10.00" fill="#000000">+ WriteToFile()</text>
<text text-anchor="start" x="23" y="-145.5" font-family="Helvetica,sans-Serif" font-size="10.00" fill="#000000">+ Resample()</text>
<text text-anchor="start" x="23" y="-134.5" font-family="Helvetica,sans-Serif" font-size="10.00" fill="#000000">+ SetReferenceImpedance()</text>
</a>
</g>
</g>
<!-- Node4&#45;&gt;Node3 -->
<g id="edge1" class="edge">
<title>Node4&#45;&gt;Node3</title>
<path fill="none" stroke="#191970" d="M85,-117.1839C85,-107.9415 85,-98.9505 85,-90.6363"/>
<polygon fill="none" stroke="#191970" points="81.5001,-117.2915 85,-127.2915 88.5001,-117.2915 81.5001,-117.2915"/>
</g>
<!-- Node5 -->
<g id="node3" class="node">
<title>Node5</title>
<g id="a_node3"><a xlink:href="classSignalIntegrity_1_1SParameters_1_1SParameterManipulation_1_1SParameterManipulation.xhtml" target="_top" xlink:title="Class for manipulations on s&#45;parameters involving passivity, causality, etc. ">
<polygon fill="#ffffff" stroke="#000000" points="23.5,-353.5 23.5,-454.5 146.5,-454.5 146.5,-353.5 23.5,-353.5"/>
<text text-anchor="middle" x="85" y="-442.5" font-family="Helvetica,sans-Serif" font-size="10.00" fill="#000000">SParameterManipulation</text>
<polyline fill="none" stroke="#000000" points="23.5,-435.5 146.5,-435.5 "/>
<text text-anchor="middle" x="85" y="-423.5" font-family="Helvetica,sans-Serif" font-size="10.00" fill="#000000"> </text>
<polyline fill="none" stroke="#000000" points="23.5,-416.5 146.5,-416.5 "/>
<text text-anchor="start" x="31.5" y="-404.5" font-family="Helvetica,sans-Serif" font-size="10.00" fill="#000000">+ EnforcePassivity()</text>
<text text-anchor="start" x="31.5" y="-393.5" font-family="Helvetica,sans-Serif" font-size="10.00" fill="#000000">+ IsCausal()</text>
<text text-anchor="start" x="31.5" y="-382.5" font-family="Helvetica,sans-Serif" font-size="10.00" fill="#000000">+ EnforceCausality()</text>
<text text-anchor="start" x="31.5" y="-371.5" font-family="Helvetica,sans-Serif" font-size="10.00" fill="#000000">+ WaveletDenoise()</text>
<text text-anchor="start" x="31.5" y="-360.5" font-family="Helvetica,sans-Serif" font-size="10.00" fill="#000000">+ PortReorder()</text>
</a>
</g>
</g>
<!-- Node5&#45;&gt;Node4 -->
<g id="edge2" class="edge">
<title>Node5&#45;&gt;Node4</title>
<path fill="none" stroke="#191970" d="M85,-343.1163C85,-334.584 85,-325.6535 85,-316.6753"/>
<polygon fill="none" stroke="#191970" points="81.5001,-343.3028 85,-353.3029 88.5001,-343.3029 81.5001,-343.3028"/>
</g>
</g>
</svg>
