<?xml version="1.0" encoding="UTF-8" standalone="no"?>
<!DOCTYPE svg PUBLIC "-//W3C//DTD SVG 1.1//EN"
 "http://www.w3.org/Graphics/SVG/1.1/DTD/svg11.dtd">
<!-- Generated by graphviz version 2.43.0 (0)
 -->
<!-- Title: WaveletDaubechies8 Pages: 1 -->
<svg width="117pt" height="215pt"
 viewBox="0.00 0.00 117.00 215.00" xmlns="http://www.w3.org/2000/svg" xmlns:xlink="http://www.w3.org/1999/xlink">
<g id="graph0" class="graph" transform="scale(1 1) rotate(0) translate(4 211)">
<title>WaveletDaubechies8</title>
<polygon fill="white" stroke="transparent" points="-4,4 -4,-211 113,-211 113,4 -4,4"/>
<!-- Node1 -->
<g id="node1" class="node">
<title>Node1</title>
<g id="a_node1"><a xlink:title="8 tap Daubechies wavelet transformer">
<polygon fill="#bfbfbf" stroke="black" points="0,-0.5 0,-57.5 109,-57.5 109,-0.5 0,-0.5"/>
<text text-anchor="middle" x="54.5" y="-45.5" font-family="Helvetica,sans-Serif" font-size="10.00">WaveletDaubechies8</text>
<polyline fill="none" stroke="black" points="0,-38.5 109,-38.5 "/>
<text text-anchor="middle" x="54.5" y="-26.5" font-family="Helvetica,sans-Serif" font-size="10.00"> </text>
<polyline fill="none" stroke="black" points="0,-19.5 109,-19.5 "/>
<text text-anchor="start" x="8" y="-7.5" font-family="Helvetica,sans-Serif" font-size="10.00">+ __init__()</text>
</a>
</g>
</g>
<!-- Node2 -->
<g id="node2" class="node">
<title>Node2</title>
<g id="a_node2"><a xlink:href="classSignalIntegrity_1_1Lib_1_1Wavelets_1_1Wavelets_1_1Wavelet.xhtml" target="_top" xlink:title="base class that performs forward and inverse wavelet transforms">
<polygon fill="white" stroke="black" points="22,-94.5 22,-206.5 87,-206.5 87,-94.5 22,-94.5"/>
<text text-anchor="middle" x="54.5" y="-194.5" font-family="Helvetica,sans-Serif" font-size="10.00">Wavelet</text>
<polyline fill="none" stroke="black" points="22,-187.5 87,-187.5 "/>
<text text-anchor="start" x="30" y="-175.5" font-family="Helvetica,sans-Serif" font-size="10.00">+ h</text>
<text text-anchor="start" x="30" y="-164.5" font-family="Helvetica,sans-Serif" font-size="10.00">+ L</text>
<text text-anchor="start" x="30" y="-153.5" font-family="Helvetica,sans-Serif" font-size="10.00">+ g</text>
<polyline fill="none" stroke="black" points="22,-146.5 87,-146.5 "/>
<text text-anchor="start" x="30" y="-134.5" font-family="Helvetica,sans-Serif" font-size="10.00">+ __init__()</text>
<text text-anchor="start" x="30" y="-123.5" font-family="Helvetica,sans-Serif" font-size="10.00">+ DWT()</text>
<text text-anchor="start" x="30" y="-112.5" font-family="Helvetica,sans-Serif" font-size="10.00">+ IDWT()</text>
<text text-anchor="start" x="30" y="-101.5" font-family="Helvetica,sans-Serif" font-size="10.00">+ intlog2()</text>
</a>
</g>
</g>
<!-- Node2&#45;&gt;Node1 -->
<g id="edge1" class="edge">
<title>Node2&#45;&gt;Node1</title>
<path fill="none" stroke="midnightblue" d="M54.5,-84.15C54.5,-74.82 54.5,-65.67 54.5,-57.63"/>
<polygon fill="none" stroke="midnightblue" points="51,-84.3 54.5,-94.3 58,-84.3 51,-84.3"/>
</g>
</g>
</svg>
