<?xml version="1.0" encoding="UTF-8" standalone="no"?>
<!DOCTYPE svg PUBLIC "-//W3C//DTD SVG 1.1//EN"
 "http://www.w3.org/Graphics/SVG/1.1/DTD/svg11.dtd">
<!-- Generated by graphviz version 2.43.0 (0)
 -->
<!-- Title: TerminationPolynomial Pages: 1 -->
<svg width="268pt" height="226pt"
 viewBox="0.00 0.00 268.00 226.00" xmlns="http://www.w3.org/2000/svg" xmlns:xlink="http://www.w3.org/1999/xlink">
<g id="graph0" class="graph" transform="scale(1 1) rotate(0) translate(4 222)">
<title>TerminationPolynomial</title>
<polygon fill="white" stroke="transparent" points="-4,4 -4,-222 264,-222 264,4 -4,4"/>
<!-- Node1 -->
<g id="node1" class="node">
<title>Node1</title>
<g id="a_node1"><a xlink:title="Base class for terminations for calibration standards.">
<polygon fill="#bfbfbf" stroke="black" points="72.5,-116.5 72.5,-217.5 187.5,-217.5 187.5,-116.5 72.5,-116.5"/>
<text text-anchor="middle" x="130" y="-205.5" font-family="Helvetica,sans-Serif" font-size="10.00">TerminationPolynomial</text>
<polyline fill="none" stroke="black" points="72.5,-198.5 187.5,-198.5 "/>
<text text-anchor="start" x="80.5" y="-186.5" font-family="Helvetica,sans-Serif" font-size="10.00">+ a0</text>
<text text-anchor="start" x="80.5" y="-175.5" font-family="Helvetica,sans-Serif" font-size="10.00">+ a1</text>
<text text-anchor="start" x="80.5" y="-164.5" font-family="Helvetica,sans-Serif" font-size="10.00">+ a2</text>
<text text-anchor="start" x="80.5" y="-153.5" font-family="Helvetica,sans-Serif" font-size="10.00">+ a3</text>
<polyline fill="none" stroke="black" points="72.5,-146.5 187.5,-146.5 "/>
<text text-anchor="start" x="80.5" y="-134.5" font-family="Helvetica,sans-Serif" font-size="10.00">+ __init__()</text>
<text text-anchor="start" x="80.5" y="-123.5" font-family="Helvetica,sans-Serif" font-size="10.00">+ Polynomial()</text>
</a>
</g>
</g>
<!-- Node2 -->
<g id="node2" class="node">
<title>Node2</title>
<g id="a_node2"><a xlink:href="classSignalIntegrity_1_1Lib_1_1Measurement_1_1CalKit_1_1Standards_1_1TerminationPolynomial_1_1TerminationCPolynomial.xhtml" target="_top" xlink:title="Class for capacitive terminations for open calibration standards.">
<polygon fill="white" stroke="black" points="0,-0.5 0,-79.5 122,-79.5 122,-0.5 0,-0.5"/>
<text text-anchor="middle" x="61" y="-67.5" font-family="Helvetica,sans-Serif" font-size="10.00">TerminationCPolynomial</text>
<polyline fill="none" stroke="black" points="0,-60.5 122,-60.5 "/>
<text text-anchor="middle" x="61" y="-48.5" font-family="Helvetica,sans-Serif" font-size="10.00"> </text>
<polyline fill="none" stroke="black" points="0,-41.5 122,-41.5 "/>
<text text-anchor="start" x="8" y="-29.5" font-family="Helvetica,sans-Serif" font-size="10.00">+ __init__()</text>
<text text-anchor="start" x="8" y="-18.5" font-family="Helvetica,sans-Serif" font-size="10.00">+ PolynomialC()</text>
<text text-anchor="start" x="8" y="-7.5" font-family="Helvetica,sans-Serif" font-size="10.00">+ __getitem__()</text>
</a>
</g>
</g>
<!-- Node1&#45;&gt;Node2 -->
<g id="edge1" class="edge">
<title>Node1&#45;&gt;Node2</title>
<path fill="none" stroke="midnightblue" d="M97.62,-107.34C92.46,-98 87.24,-88.54 82.42,-79.81"/>
<polygon fill="none" stroke="midnightblue" points="94.63,-109.17 102.53,-116.24 100.76,-105.79 94.63,-109.17"/>
</g>
<!-- Node3 -->
<g id="node3" class="node">
<title>Node3</title>
<g id="a_node3"><a xlink:href="classSignalIntegrity_1_1Lib_1_1Measurement_1_1CalKit_1_1Standards_1_1TerminationPolynomial_1_1TerminationLPolynomial.xhtml" target="_top" xlink:title="Class for inductive terminations for short calibration standards.">
<polygon fill="white" stroke="black" points="140,-0.5 140,-79.5 260,-79.5 260,-0.5 140,-0.5"/>
<text text-anchor="middle" x="200" y="-67.5" font-family="Helvetica,sans-Serif" font-size="10.00">TerminationLPolynomial</text>
<polyline fill="none" stroke="black" points="140,-60.5 260,-60.5 "/>
<text text-anchor="middle" x="200" y="-48.5" font-family="Helvetica,sans-Serif" font-size="10.00"> </text>
<polyline fill="none" stroke="black" points="140,-41.5 260,-41.5 "/>
<text text-anchor="start" x="148" y="-29.5" font-family="Helvetica,sans-Serif" font-size="10.00">+ __init__()</text>
<text text-anchor="start" x="148" y="-18.5" font-family="Helvetica,sans-Serif" font-size="10.00">+ PolynomialL()</text>
<text text-anchor="start" x="148" y="-7.5" font-family="Helvetica,sans-Serif" font-size="10.00">+ __getitem__()</text>
</a>
</g>
</g>
<!-- Node1&#45;&gt;Node3 -->
<g id="edge2" class="edge">
<title>Node1&#45;&gt;Node3</title>
<path fill="none" stroke="midnightblue" d="M162.85,-107.34C168.08,-98 173.38,-88.54 178.27,-79.81"/>
<polygon fill="none" stroke="midnightblue" points="159.7,-105.8 157.87,-116.24 165.81,-109.22 159.7,-105.8"/>
</g>
</g>
</svg>
