<?xml version="1.0" encoding="UTF-8" standalone="no"?>
<!DOCTYPE svg PUBLIC "-//W3C//DTD SVG 1.1//EN"
 "http://www.w3.org/Graphics/SVG/1.1/DTD/svg11.dtd">
<!-- Generated by graphviz version 2.40.1 (20161225.0304)
 -->
<!-- Title: SystemSParametersNumeric Pages: 1 -->
<svg width="260pt" height="441pt"
 viewBox="0.00 0.00 259.50 441.00" xmlns="http://www.w3.org/2000/svg" xmlns:xlink="http://www.w3.org/1999/xlink">
<g id="graph0" class="graph" transform="scale(1 1) rotate(0) translate(4 437)">
<title>SystemSParametersNumeric</title>
<polygon fill="#ffffff" stroke="transparent" points="-4,4 -4,-437 255.5,-437 255.5,4 -4,4"/>
<!-- Node0 -->
<g id="node1" class="node">
<title>Node0</title>
<polygon fill="#bfbfbf" stroke="#000000" points="53.5,-.5 53.5,-68.5 197.5,-68.5 197.5,-.5 53.5,-.5"/>
<text text-anchor="middle" x="125.5" y="-56.5" font-family="Helvetica,sans-Serif" font-size="10.00" fill="#000000">SystemSParametersNumeric</text>
<polyline fill="none" stroke="#000000" points="53.5,-49.5 197.5,-49.5 "/>
<text text-anchor="middle" x="125.5" y="-37.5" font-family="Helvetica,sans-Serif" font-size="10.00" fill="#000000"> </text>
<polyline fill="none" stroke="#000000" points="53.5,-30.5 197.5,-30.5 "/>
<text text-anchor="start" x="61.5" y="-18.5" font-family="Helvetica,sans-Serif" font-size="10.00" fill="#000000">+ __init__()</text>
<text text-anchor="start" x="61.5" y="-7.5" font-family="Helvetica,sans-Serif" font-size="10.00" fill="#000000">+ SParameters()</text>
</g>
<!-- Node1 -->
<g id="node2" class="node">
<title>Node1</title>
<g id="a_node2"><a xlink:href="classSignalIntegrity_1_1Lib_1_1SystemDescriptions_1_1SystemSParameters_1_1SystemSParameters.xhtml" target="_top" xlink:title="base class for housekeeping involving system s&#45;parameters calculations ">
<polygon fill="#ffffff" stroke="#000000" points="6,-105.5 6,-228.5 113,-228.5 113,-105.5 6,-105.5"/>
<text text-anchor="middle" x="59.5" y="-216.5" font-family="Helvetica,sans-Serif" font-size="10.00" fill="#000000">SystemSParameters</text>
<polyline fill="none" stroke="#000000" points="6,-209.5 113,-209.5 "/>
<text text-anchor="middle" x="59.5" y="-197.5" font-family="Helvetica,sans-Serif" font-size="10.00" fill="#000000"> </text>
<polyline fill="none" stroke="#000000" points="6,-190.5 113,-190.5 "/>
<text text-anchor="start" x="14" y="-178.5" font-family="Helvetica,sans-Serif" font-size="10.00" fill="#000000">+ __init__()</text>
<text text-anchor="start" x="14" y="-167.5" font-family="Helvetica,sans-Serif" font-size="10.00" fill="#000000">+ PortANames()</text>
<text text-anchor="start" x="14" y="-156.5" font-family="Helvetica,sans-Serif" font-size="10.00" fill="#000000">+ PortBNames()</text>
<text text-anchor="start" x="14" y="-145.5" font-family="Helvetica,sans-Serif" font-size="10.00" fill="#000000">+ OtherNames()</text>
<text text-anchor="start" x="14" y="-134.5" font-family="Helvetica,sans-Serif" font-size="10.00" fill="#000000">+ NodeVector()</text>
<text text-anchor="start" x="14" y="-123.5" font-family="Helvetica,sans-Serif" font-size="10.00" fill="#000000">+ StimulusVector()</text>
<text text-anchor="start" x="14" y="-112.5" font-family="Helvetica,sans-Serif" font-size="10.00" fill="#000000"># WeightsMatrix()</text>
</a>
</g>
</g>
<!-- Node1&#45;&gt;Node0 -->
<g id="edge1" class="edge">
<title>Node1&#45;&gt;Node0</title>
<path fill="none" stroke="#191970" d="M94.7374,-96.2582C99.4831,-86.731 104.1667,-77.3282 108.3934,-68.8429"/>
<polygon fill="none" stroke="#191970" points="91.5072,-94.8932 90.1814,-105.4048 97.7729,-98.0143 91.5072,-94.8932"/>
</g>
<!-- Node2 -->
<g id="node3" class="node">
<title>Node2</title>
<g id="a_node3"><a xlink:href="classSignalIntegrity_1_1Lib_1_1SystemDescriptions_1_1SystemDescription_1_1SystemDescription.xhtml" target="_top" xlink:title="Allows the construction of system descriptions for use with all of the classes that solve schematics ...">
<polygon fill="#ffffff" stroke="#000000" points="0,-265.5 0,-432.5 119,-432.5 119,-265.5 0,-265.5"/>
<text text-anchor="middle" x="59.5" y="-420.5" font-family="Helvetica,sans-Serif" font-size="10.00" fill="#000000">SystemDescription</text>
<polyline fill="none" stroke="#000000" points="0,-413.5 119,-413.5 "/>
<text text-anchor="start" x="8" y="-401.5" font-family="Helvetica,sans-Serif" font-size="10.00" fill="#000000">+ m_UniqueDevice</text>
<text text-anchor="start" x="8" y="-390.5" font-family="Helvetica,sans-Serif" font-size="10.00" fill="#000000">+ m_UniqueNode</text>
<polyline fill="none" stroke="#000000" points="0,-383.5 119,-383.5 "/>
<text text-anchor="start" x="8" y="-371.5" font-family="Helvetica,sans-Serif" font-size="10.00" fill="#000000">+ __init__()</text>
<text text-anchor="start" x="8" y="-360.5" font-family="Helvetica,sans-Serif" font-size="10.00" fill="#000000">+ AddDevice()</text>
<text text-anchor="start" x="8" y="-349.5" font-family="Helvetica,sans-Serif" font-size="10.00" fill="#000000">+ AssignM()</text>
<text text-anchor="start" x="8" y="-338.5" font-family="Helvetica,sans-Serif" font-size="10.00" fill="#000000">+ DeviceNames()</text>
<text text-anchor="start" x="8" y="-327.5" font-family="Helvetica,sans-Serif" font-size="10.00" fill="#000000">+ IndexOfDevice()</text>
<text text-anchor="start" x="8" y="-316.5" font-family="Helvetica,sans-Serif" font-size="10.00" fill="#000000">+ CheckConnections()</text>
<text text-anchor="start" x="8" y="-305.5" font-family="Helvetica,sans-Serif" font-size="10.00" fill="#000000">+ ConnectDevicePort()</text>
<text text-anchor="start" x="8" y="-294.5" font-family="Helvetica,sans-Serif" font-size="10.00" fill="#000000">+ AddPort()</text>
<text text-anchor="start" x="8" y="-283.5" font-family="Helvetica,sans-Serif" font-size="10.00" fill="#000000">+ AssignSParameters()</text>
<text text-anchor="start" x="8" y="-272.5" font-family="Helvetica,sans-Serif" font-size="10.00" fill="#000000">+ Print()</text>
</a>
</g>
</g>
<!-- Node2&#45;&gt;Node1 -->
<g id="edge2" class="edge">
<title>Node2&#45;&gt;Node1</title>
<path fill="none" stroke="#191970" d="M59.5,-255.2394C59.5,-246.186 59.5,-237.1691 59.5,-228.5475"/>
<polygon fill="none" stroke="#191970" points="56.0001,-255.4574 59.5,-265.4574 63.0001,-255.4574 56.0001,-255.4574"/>
</g>
<!-- Node3 -->
<g id="node4" class="node">
<title>Node3</title>
<g id="a_node4"><a xlink:href="classSignalIntegrity_1_1Lib_1_1SystemDescriptions_1_1Numeric_1_1Numeric.xhtml" target="_top" xlink:title="handles numeric details of derived class solutions ">
<polygon fill="#ffffff" stroke="#000000" points="131.5,-111 131.5,-223 251.5,-223 251.5,-111 131.5,-111"/>
<text text-anchor="middle" x="191.5" y="-211" font-family="Helvetica,sans-Serif" font-size="10.00" fill="#000000">Numeric</text>
<polyline fill="none" stroke="#000000" points="131.5,-204 251.5,-204 "/>
<text text-anchor="start" x="139.5" y="-192" font-family="Helvetica,sans-Serif" font-size="10.00" fill="#000000">+ alwaysUseSVD</text>
<text text-anchor="start" x="139.5" y="-181" font-family="Helvetica,sans-Serif" font-size="10.00" fill="#000000">+ trySVD</text>
<text text-anchor="start" x="139.5" y="-170" font-family="Helvetica,sans-Serif" font-size="10.00" fill="#000000">+ singularValueLimit</text>
<text text-anchor="start" x="139.5" y="-159" font-family="Helvetica,sans-Serif" font-size="10.00" fill="#000000">+ conditionNumberLimit</text>
<polyline fill="none" stroke="#000000" points="131.5,-152 251.5,-152 "/>
<text text-anchor="start" x="139.5" y="-140" font-family="Helvetica,sans-Serif" font-size="10.00" fill="#000000">+ InstallSafeTees()</text>
<text text-anchor="start" x="139.5" y="-129" font-family="Helvetica,sans-Serif" font-size="10.00" fill="#000000">+ Dagger()</text>
<text text-anchor="start" x="139.5" y="-118" font-family="Helvetica,sans-Serif" font-size="10.00" fill="#000000">+ PermutationMatrix()</text>
</a>
</g>
</g>
<!-- Node3&#45;&gt;Node0 -->
<g id="edge3" class="edge">
<title>Node3&#45;&gt;Node0</title>
<path fill="none" stroke="#191970" d="M158.9895,-101.7327C153.3317,-90.3743 147.6548,-78.9774 142.6241,-68.8779"/>
<polygon fill="none" stroke="#191970" points="155.9185,-103.4176 163.5101,-110.8081 162.1842,-100.2965 155.9185,-103.4176"/>
</g>
</g>
</svg>
