<?xml version="1.0" encoding="UTF-8" standalone="no"?>
<!DOCTYPE svg PUBLIC "-//W3C//DTD SVG 1.1//EN"
 "http://www.w3.org/Graphics/SVG/1.1/DTD/svg11.dtd">
<!-- Generated by graphviz version 2.40.1 (20161225.0304)
 -->
<!-- Title: ClockWaveform Pages: 1 -->
<svg width="115pt" height="386pt"
 viewBox="0.00 0.00 115.00 386.00" xmlns="http://www.w3.org/2000/svg" xmlns:xlink="http://www.w3.org/1999/xlink">
<g id="graph0" class="graph" transform="scale(1 1) rotate(0) translate(4 382)">
<title>ClockWaveform</title>
<polygon fill="#ffffff" stroke="transparent" points="-4,4 -4,-382 111,-382 111,4 -4,4"/>
<!-- Node0 -->
<g id="node1" class="node">
<title>Node0</title>
<polygon fill="#bfbfbf" stroke="#000000" points="10,-.5 10,-57.5 97,-57.5 97,-.5 10,-.5"/>
<text text-anchor="middle" x="53.5" y="-45.5" font-family="Helvetica,sans-Serif" font-size="10.00" fill="#000000">ClockWaveform</text>
<polyline fill="none" stroke="#000000" points="10,-38.5 97,-38.5 "/>
<text text-anchor="middle" x="53.5" y="-26.5" font-family="Helvetica,sans-Serif" font-size="10.00" fill="#000000"> </text>
<polyline fill="none" stroke="#000000" points="10,-19.5 97,-19.5 "/>
<text text-anchor="start" x="18" y="-7.5" font-family="Helvetica,sans-Serif" font-size="10.00" fill="#000000">+ __init__()</text>
</g>
<!-- Node1 -->
<g id="node2" class="node">
<title>Node1</title>
<g id="a_node2"><a xlink:href="classSignalIntegrity_1_1Lib_1_1Prbs_1_1SerialDataWaveform_1_1SerialDataWaveform.xhtml" target="_top" xlink:title="a serial data NRZ waveform ">
<polygon fill="#ffffff" stroke="#000000" points="0,-94.5 0,-162.5 107,-162.5 107,-94.5 0,-94.5"/>
<text text-anchor="middle" x="53.5" y="-150.5" font-family="Helvetica,sans-Serif" font-size="10.00" fill="#000000">SerialDataWaveform</text>
<polyline fill="none" stroke="#000000" points="0,-143.5 107,-143.5 "/>
<text text-anchor="start" x="8" y="-131.5" font-family="Helvetica,sans-Serif" font-size="10.00" fill="#000000">+ rtvsT</text>
<polyline fill="none" stroke="#000000" points="0,-124.5 107,-124.5 "/>
<text text-anchor="start" x="8" y="-112.5" font-family="Helvetica,sans-Serif" font-size="10.00" fill="#000000">+ __init__()</text>
<text text-anchor="start" x="8" y="-101.5" font-family="Helvetica,sans-Serif" font-size="10.00" fill="#000000">+ TimeDescriptor()</text>
</a>
</g>
</g>
<!-- Node1&#45;&gt;Node0 -->
<g id="edge1" class="edge">
<title>Node1&#45;&gt;Node0</title>
<path fill="none" stroke="#191970" d="M53.5,-84.2499C53.5,-75.2373 53.5,-65.981 53.5,-57.6836"/>
<polygon fill="none" stroke="#191970" points="50.0001,-84.2577 53.5,-94.2577 57.0001,-84.2578 50.0001,-84.2577"/>
</g>
<!-- Node2 -->
<g id="node3" class="node">
<title>Node2</title>
<g id="a_node3"><a xlink:href="classSignalIntegrity_1_1Lib_1_1TimeDomain_1_1Waveform_1_1Waveform_1_1Waveform.xhtml" target="_top" xlink:title="base class for all waveforms ">
<polygon fill="#ffffff" stroke="#000000" points="4,-199.5 4,-377.5 103,-377.5 103,-199.5 4,-199.5"/>
<text text-anchor="middle" x="53.5" y="-365.5" font-family="Helvetica,sans-Serif" font-size="10.00" fill="#000000">Waveform</text>
<polyline fill="none" stroke="#000000" points="4,-358.5 103,-358.5 "/>
<text text-anchor="start" x="12" y="-346.5" font-family="Helvetica,sans-Serif" font-size="10.00" fill="#000000">+ td</text>
<text text-anchor="start" x="12" y="-335.5" font-family="Helvetica,sans-Serif" font-size="10.00" fill="#000000">+ adaptionStrategy</text>
<polyline fill="none" stroke="#000000" points="4,-328.5 103,-328.5 "/>
<text text-anchor="start" x="12" y="-316.5" font-family="Helvetica,sans-Serif" font-size="10.00" fill="#000000">+ __init__()</text>
<text text-anchor="start" x="12" y="-305.5" font-family="Helvetica,sans-Serif" font-size="10.00" fill="#000000">+ Times()</text>
<text text-anchor="start" x="12" y="-294.5" font-family="Helvetica,sans-Serif" font-size="10.00" fill="#000000">+ TimeDescriptor()</text>
<text text-anchor="start" x="12" y="-283.5" font-family="Helvetica,sans-Serif" font-size="10.00" fill="#000000">+ Values()</text>
<text text-anchor="start" x="12" y="-272.5" font-family="Helvetica,sans-Serif" font-size="10.00" fill="#000000">+ OffsetBy()</text>
<text text-anchor="start" x="12" y="-261.5" font-family="Helvetica,sans-Serif" font-size="10.00" fill="#000000">+ DelayBy()</text>
<text text-anchor="start" x="12" y="-250.5" font-family="Helvetica,sans-Serif" font-size="10.00" fill="#000000">+ __add__()</text>
<text text-anchor="start" x="12" y="-239.5" font-family="Helvetica,sans-Serif" font-size="10.00" fill="#000000">+ __sub__()</text>
<text text-anchor="start" x="12" y="-228.5" font-family="Helvetica,sans-Serif" font-size="10.00" fill="#000000">+ __radd__()</text>
<text text-anchor="start" x="12" y="-217.5" font-family="Helvetica,sans-Serif" font-size="10.00" fill="#000000">+ __mul__()</text>
<text text-anchor="start" x="12" y="-206.5" font-family="Helvetica,sans-Serif" font-size="10.00" fill="#000000">and 11 more...</text>
</a>
</g>
</g>
<!-- Node2&#45;&gt;Node1 -->
<g id="edge2" class="edge">
<title>Node2&#45;&gt;Node1</title>
<path fill="none" stroke="#191970" d="M53.5,-188.9715C53.5,-179.7079 53.5,-170.8164 53.5,-162.8363"/>
<polygon fill="none" stroke="#191970" points="50.0001,-189.144 53.5,-199.1441 57.0001,-189.1441 50.0001,-189.144"/>
</g>
</g>
</svg>
