<?xml version="1.0" encoding="UTF-8" standalone="no"?>
<!DOCTYPE svg PUBLIC "-//W3C//DTD SVG 1.1//EN"
 "http://www.w3.org/Graphics/SVG/1.1/DTD/svg11.dtd">
<!-- Generated by graphviz version 2.43.0 (0)
 -->
<!-- Title: WaveformProcessor Pages: 1 -->
<svg width="1064pt" height="331pt"
 viewBox="0.00 0.00 1063.50 331.00" xmlns="http://www.w3.org/2000/svg" xmlns:xlink="http://www.w3.org/1999/xlink">
<g id="graph0" class="graph" transform="scale(1 1) rotate(0) translate(4 327)">
<title>WaveformProcessor</title>
<polygon fill="white" stroke="transparent" points="-4,4 -4,-327 1059.5,-327 1059.5,4 -4,4"/>
<!-- Node1 -->
<g id="node1" class="node">
<title>Node1</title>
<g id="a_node1"><a xlink:title="WaveformProcessor.py.">
<polygon fill="#bfbfbf" stroke="black" points="624.5,-265.5 624.5,-322.5 748.5,-322.5 748.5,-265.5 624.5,-265.5"/>
<text text-anchor="middle" x="686.5" y="-310.5" font-family="Helvetica,sans-Serif" font-size="10.00">WaveformProcessor</text>
<polyline fill="none" stroke="black" points="624.5,-303.5 748.5,-303.5 "/>
<text text-anchor="middle" x="686.5" y="-291.5" font-family="Helvetica,sans-Serif" font-size="10.00"> </text>
<polyline fill="none" stroke="black" points="624.5,-284.5 748.5,-284.5 "/>
<text text-anchor="start" x="632.5" y="-272.5" font-family="Helvetica,sans-Serif" font-size="10.00">+ ProcessWaveform()</text>
</a>
</g>
</g>
<!-- Node2 -->
<g id="node2" class="node">
<title>Node2</title>
<g id="a_node2"><a xlink:href="classSignalIntegrity_1_1Lib_1_1TimeDomain_1_1Filters_1_1FirFilter_1_1FirFilter.xhtml" target="_top" xlink:title="base filter class for all FIR filters">
<polygon fill="white" stroke="black" points="301.5,-105.5 301.5,-228.5 425.5,-228.5 425.5,-105.5 301.5,-105.5"/>
<text text-anchor="middle" x="363.5" y="-216.5" font-family="Helvetica,sans-Serif" font-size="10.00">FirFilter</text>
<polyline fill="none" stroke="black" points="301.5,-209.5 425.5,-209.5 "/>
<text text-anchor="start" x="309.5" y="-197.5" font-family="Helvetica,sans-Serif" font-size="10.00">+ m_fd</text>
<text text-anchor="start" x="309.5" y="-186.5" font-family="Helvetica,sans-Serif" font-size="10.00">+ m_ft</text>
<polyline fill="none" stroke="black" points="301.5,-179.5 425.5,-179.5 "/>
<text text-anchor="start" x="309.5" y="-167.5" font-family="Helvetica,sans-Serif" font-size="10.00">+ __init__()</text>
<text text-anchor="start" x="309.5" y="-156.5" font-family="Helvetica,sans-Serif" font-size="10.00">+ ProcessWaveform()</text>
<text text-anchor="start" x="309.5" y="-145.5" font-family="Helvetica,sans-Serif" font-size="10.00">+ FilterTaps()</text>
<text text-anchor="start" x="309.5" y="-134.5" font-family="Helvetica,sans-Serif" font-size="10.00">+ FilterDescriptor()</text>
<text text-anchor="start" x="309.5" y="-123.5" font-family="Helvetica,sans-Serif" font-size="10.00">+ FilterWaveform()</text>
<text text-anchor="start" x="309.5" y="-112.5" font-family="Helvetica,sans-Serif" font-size="10.00">+ Print()</text>
</a>
</g>
</g>
<!-- Node1&#45;&gt;Node2 -->
<g id="edge1" class="edge">
<title>Node1&#45;&gt;Node2</title>
<path fill="none" stroke="midnightblue" d="M614.18,-283.69C562.02,-274.86 491.11,-258.42 434.5,-229 431.62,-227.5 428.75,-225.86 425.91,-224.12"/>
<polygon fill="none" stroke="midnightblue" points="613.92,-287.19 624.36,-285.35 615.05,-280.28 613.92,-287.19"/>
</g>
<!-- Node8 -->
<g id="node8" class="node">
<title>Node8</title>
<g id="a_node8"><a xlink:href="classSignalIntegrity_1_1Lib_1_1TimeDomain_1_1Filters_1_1InterpolatorLinear_1_1InterpolatorFractionalDelayFilterLinear.xhtml" target="_top" xlink:title="combination linear fractional delay and interpolating filter">
<polygon fill="white" stroke="black" points="443.5,-116.5 443.5,-217.5 593.5,-217.5 593.5,-116.5 443.5,-116.5"/>
<text text-anchor="start" x="451.5" y="-205.5" font-family="Helvetica,sans-Serif" font-size="10.00">InterpolatorFractionalDelay</text>
<text text-anchor="middle" x="518.5" y="-194.5" font-family="Helvetica,sans-Serif" font-size="10.00">FilterLinear</text>
<polyline fill="none" stroke="black" points="443.5,-187.5 593.5,-187.5 "/>
<text text-anchor="start" x="451.5" y="-175.5" font-family="Helvetica,sans-Serif" font-size="10.00">+ fdf</text>
<text text-anchor="start" x="451.5" y="-164.5" font-family="Helvetica,sans-Serif" font-size="10.00">+ usf</text>
<polyline fill="none" stroke="black" points="443.5,-157.5 593.5,-157.5 "/>
<text text-anchor="start" x="451.5" y="-145.5" font-family="Helvetica,sans-Serif" font-size="10.00">+ __init__()</text>
<text text-anchor="start" x="451.5" y="-134.5" font-family="Helvetica,sans-Serif" font-size="10.00">+ ProcessWaveform()</text>
<text text-anchor="start" x="451.5" y="-123.5" font-family="Helvetica,sans-Serif" font-size="10.00">+ FilterWaveform()</text>
</a>
</g>
</g>
<!-- Node1&#45;&gt;Node8 -->
<g id="edge7" class="edge">
<title>Node1&#45;&gt;Node8</title>
<path fill="none" stroke="midnightblue" d="M641.01,-259.15C623.8,-246.35 603.84,-231.5 585.1,-217.55"/>
<polygon fill="none" stroke="midnightblue" points="639.1,-262.1 649.22,-265.26 643.28,-256.48 639.1,-262.1"/>
</g>
<!-- Node9 -->
<g id="node9" class="node">
<title>Node9</title>
<g id="a_node9"><a xlink:href="classSignalIntegrity_1_1Lib_1_1TimeDomain_1_1Filters_1_1InterpolatorSinX_1_1InterpolatorFractionalDelayFilterSinX.xhtml" target="_top" xlink:title="combination sinx/x fractional delay and interpolating filter">
<polygon fill="white" stroke="black" points="611.5,-116.5 611.5,-217.5 761.5,-217.5 761.5,-116.5 611.5,-116.5"/>
<text text-anchor="start" x="619.5" y="-205.5" font-family="Helvetica,sans-Serif" font-size="10.00">InterpolatorFractionalDelay</text>
<text text-anchor="middle" x="686.5" y="-194.5" font-family="Helvetica,sans-Serif" font-size="10.00">FilterSinX</text>
<polyline fill="none" stroke="black" points="611.5,-187.5 761.5,-187.5 "/>
<text text-anchor="start" x="619.5" y="-175.5" font-family="Helvetica,sans-Serif" font-size="10.00">+ fdf</text>
<text text-anchor="start" x="619.5" y="-164.5" font-family="Helvetica,sans-Serif" font-size="10.00">+ usf</text>
<polyline fill="none" stroke="black" points="611.5,-157.5 761.5,-157.5 "/>
<text text-anchor="start" x="619.5" y="-145.5" font-family="Helvetica,sans-Serif" font-size="10.00">+ __init__()</text>
<text text-anchor="start" x="619.5" y="-134.5" font-family="Helvetica,sans-Serif" font-size="10.00">+ ProcessWaveform()</text>
<text text-anchor="start" x="619.5" y="-123.5" font-family="Helvetica,sans-Serif" font-size="10.00">+ FilterWaveform()</text>
</a>
</g>
</g>
<!-- Node1&#45;&gt;Node9 -->
<g id="edge8" class="edge">
<title>Node1&#45;&gt;Node9</title>
<path fill="none" stroke="midnightblue" d="M686.5,-254.95C686.5,-243.24 686.5,-230.17 686.5,-217.8"/>
<polygon fill="none" stroke="midnightblue" points="683,-255.26 686.5,-265.26 690,-255.26 683,-255.26"/>
</g>
<!-- Node10 -->
<g id="node10" class="node">
<title>Node10</title>
<g id="a_node10"><a xlink:href="classSignalIntegrity_1_1Lib_1_1TimeDomain_1_1Filters_1_1WaveformDecimator_1_1WaveformDecimator.xhtml" target="_top" xlink:title="decimates waveforms">
<polygon fill="white" stroke="black" points="779.5,-122 779.5,-212 913.5,-212 913.5,-122 779.5,-122"/>
<text text-anchor="middle" x="846.5" y="-200" font-family="Helvetica,sans-Serif" font-size="10.00">WaveformDecimator</text>
<polyline fill="none" stroke="black" points="779.5,-193 913.5,-193 "/>
<text text-anchor="start" x="787.5" y="-181" font-family="Helvetica,sans-Serif" font-size="10.00">+ df</text>
<text text-anchor="start" x="787.5" y="-170" font-family="Helvetica,sans-Serif" font-size="10.00">+ dph</text>
<polyline fill="none" stroke="black" points="779.5,-163 913.5,-163 "/>
<text text-anchor="start" x="787.5" y="-151" font-family="Helvetica,sans-Serif" font-size="10.00">+ __init__()</text>
<text text-anchor="start" x="787.5" y="-140" font-family="Helvetica,sans-Serif" font-size="10.00">+ ProcessWaveform()</text>
<text text-anchor="start" x="787.5" y="-129" font-family="Helvetica,sans-Serif" font-size="10.00">+ DecimateWaveform()</text>
</a>
</g>
</g>
<!-- Node1&#45;&gt;Node10 -->
<g id="edge9" class="edge">
<title>Node1&#45;&gt;Node10</title>
<path fill="none" stroke="midnightblue" d="M731.23,-259.25C743.97,-249.55 757.82,-238.91 770.5,-229 777.43,-223.58 784.68,-217.85 791.84,-212.15"/>
<polygon fill="none" stroke="midnightblue" points="728.88,-256.64 723.04,-265.48 733.12,-262.21 728.88,-256.64"/>
</g>
<!-- Node11 -->
<g id="node11" class="node">
<title>Node11</title>
<g id="a_node11"><a xlink:href="classSignalIntegrity_1_1Lib_1_1TimeDomain_1_1Filters_1_1WaveformTrimmer_1_1WaveformTrimmer.xhtml" target="_top" xlink:title="trims waveforms">
<polygon fill="white" stroke="black" points="931.5,-127.5 931.5,-206.5 1055.5,-206.5 1055.5,-127.5 931.5,-127.5"/>
<text text-anchor="middle" x="993.5" y="-194.5" font-family="Helvetica,sans-Serif" font-size="10.00">WaveformTrimmer</text>
<polyline fill="none" stroke="black" points="931.5,-187.5 1055.5,-187.5 "/>
<text text-anchor="middle" x="993.5" y="-175.5" font-family="Helvetica,sans-Serif" font-size="10.00"> </text>
<polyline fill="none" stroke="black" points="931.5,-168.5 1055.5,-168.5 "/>
<text text-anchor="start" x="939.5" y="-156.5" font-family="Helvetica,sans-Serif" font-size="10.00">+ __init__()</text>
<text text-anchor="start" x="939.5" y="-145.5" font-family="Helvetica,sans-Serif" font-size="10.00">+ ProcessWaveform()</text>
<text text-anchor="start" x="939.5" y="-134.5" font-family="Helvetica,sans-Serif" font-size="10.00">+ TrimWaveform()</text>
</a>
</g>
</g>
<!-- Node1&#45;&gt;Node11 -->
<g id="edge10" class="edge">
<title>Node1&#45;&gt;Node11</title>
<path fill="none" stroke="midnightblue" d="M758.76,-282.02C807.13,-272.65 871.11,-256.23 922.5,-229 933.84,-222.99 944.95,-214.88 954.88,-206.54"/>
<polygon fill="none" stroke="midnightblue" points="757.86,-278.63 748.68,-283.92 759.16,-285.51 757.86,-278.63"/>
</g>
<!-- Node3 -->
<g id="node3" class="node">
<title>Node3</title>
<g id="a_node3"><a xlink:href="classSignalIntegrity_1_1Lib_1_1TimeDomain_1_1Filters_1_1InterpolatorLinear_1_1FractionalDelayFilterLinear.xhtml" target="_top" xlink:title="linear fractional delay filter">
<polygon fill="white" stroke="black" points="0,-6 0,-63 147,-63 147,-6 0,-6"/>
<text text-anchor="middle" x="73.5" y="-51" font-family="Helvetica,sans-Serif" font-size="10.00">FractionalDelayFilterLinear</text>
<polyline fill="none" stroke="black" points="0,-44 147,-44 "/>
<text text-anchor="middle" x="73.5" y="-32" font-family="Helvetica,sans-Serif" font-size="10.00"> </text>
<polyline fill="none" stroke="black" points="0,-25 147,-25 "/>
<text text-anchor="start" x="8" y="-13" font-family="Helvetica,sans-Serif" font-size="10.00">+ __init__()</text>
</a>
</g>
</g>
<!-- Node2&#45;&gt;Node3 -->
<g id="edge2" class="edge">
<title>Node2&#45;&gt;Node3</title>
<path fill="none" stroke="midnightblue" d="M292.14,-133.89C243.81,-112.14 180.62,-83.71 134.61,-63"/>
<polygon fill="none" stroke="midnightblue" points="290.73,-137.09 301.29,-138 293.6,-130.71 290.73,-137.09"/>
</g>
<!-- Node4 -->
<g id="node4" class="node">
<title>Node4</title>
<g id="a_node4"><a xlink:href="classSignalIntegrity_1_1Lib_1_1TimeDomain_1_1Filters_1_1InterpolatorLinear_1_1InterpolatorLinear.xhtml" target="_top" xlink:title="linear interpolating filter">
<polygon fill="white" stroke="black" points="165.5,-0.5 165.5,-68.5 275.5,-68.5 275.5,-0.5 165.5,-0.5"/>
<text text-anchor="middle" x="220.5" y="-56.5" font-family="Helvetica,sans-Serif" font-size="10.00">InterpolatorLinear</text>
<polyline fill="none" stroke="black" points="165.5,-49.5 275.5,-49.5 "/>
<text text-anchor="middle" x="220.5" y="-37.5" font-family="Helvetica,sans-Serif" font-size="10.00"> </text>
<polyline fill="none" stroke="black" points="165.5,-30.5 275.5,-30.5 "/>
<text text-anchor="start" x="173.5" y="-18.5" font-family="Helvetica,sans-Serif" font-size="10.00">+ __init__()</text>
<text text-anchor="start" x="173.5" y="-7.5" font-family="Helvetica,sans-Serif" font-size="10.00">+ FilterWaveform()</text>
</a>
</g>
</g>
<!-- Node2&#45;&gt;Node4 -->
<g id="edge3" class="edge">
<title>Node2&#45;&gt;Node4</title>
<path fill="none" stroke="midnightblue" d="M293.68,-102.28C280.88,-90.6 268.01,-78.85 256.7,-68.54"/>
<polygon fill="none" stroke="midnightblue" points="291.45,-104.98 301.19,-109.14 296.17,-99.81 291.45,-104.98"/>
</g>
<!-- Node5 -->
<g id="node5" class="node">
<title>Node5</title>
<g id="a_node5"><a xlink:href="classSignalIntegrity_1_1Lib_1_1TimeDomain_1_1Filters_1_1InterpolatorSinX_1_1FractionalDelayFilterSinX.xhtml" target="_top" xlink:title="sinx/x fractional delay filter">
<polygon fill="white" stroke="black" points="294,-6 294,-63 433,-63 433,-6 294,-6"/>
<text text-anchor="middle" x="363.5" y="-51" font-family="Helvetica,sans-Serif" font-size="10.00">FractionalDelayFilterSinX</text>
<polyline fill="none" stroke="black" points="294,-44 433,-44 "/>
<text text-anchor="start" x="302" y="-32" font-family="Helvetica,sans-Serif" font-size="10.00">+ S</text>
<polyline fill="none" stroke="black" points="294,-25 433,-25 "/>
<text text-anchor="start" x="302" y="-13" font-family="Helvetica,sans-Serif" font-size="10.00">+ __init__()</text>
</a>
</g>
</g>
<!-- Node2&#45;&gt;Node5 -->
<g id="edge4" class="edge">
<title>Node2&#45;&gt;Node5</title>
<path fill="none" stroke="midnightblue" d="M363.5,-95.28C363.5,-83.86 363.5,-72.67 363.5,-63.11"/>
<polygon fill="none" stroke="midnightblue" points="360,-95.33 363.5,-105.33 367,-95.33 360,-95.33"/>
</g>
<!-- Node6 -->
<g id="node6" class="node">
<title>Node6</title>
<g id="a_node6"><a xlink:href="classSignalIntegrity_1_1Lib_1_1TimeDomain_1_1Filters_1_1InterpolatorSinX_1_1InterpolatorSinX.xhtml" target="_top" xlink:title="sinx/x interpolating filter">
<polygon fill="white" stroke="black" points="451.5,-0.5 451.5,-68.5 561.5,-68.5 561.5,-0.5 451.5,-0.5"/>
<text text-anchor="middle" x="506.5" y="-56.5" font-family="Helvetica,sans-Serif" font-size="10.00">InterpolatorSinX</text>
<polyline fill="none" stroke="black" points="451.5,-49.5 561.5,-49.5 "/>
<text text-anchor="start" x="459.5" y="-37.5" font-family="Helvetica,sans-Serif" font-size="10.00">+ S</text>
<polyline fill="none" stroke="black" points="451.5,-30.5 561.5,-30.5 "/>
<text text-anchor="start" x="459.5" y="-18.5" font-family="Helvetica,sans-Serif" font-size="10.00">+ __init__()</text>
<text text-anchor="start" x="459.5" y="-7.5" font-family="Helvetica,sans-Serif" font-size="10.00">+ FilterWaveform()</text>
</a>
</g>
</g>
<!-- Node2&#45;&gt;Node6 -->
<g id="edge5" class="edge">
<title>Node2&#45;&gt;Node6</title>
<path fill="none" stroke="midnightblue" d="M433.32,-102.28C446.12,-90.6 458.99,-78.85 470.3,-68.54"/>
<polygon fill="none" stroke="midnightblue" points="430.83,-99.81 425.81,-109.14 435.55,-104.98 430.83,-99.81"/>
</g>
<!-- Node7 -->
<g id="node7" class="node">
<title>Node7</title>
<g id="a_node7"><a xlink:href="classSignalIntegrity_1_1Lib_1_1TimeDomain_1_1Filters_1_1RaisedCosineFilter_1_1RaisedCosineFilter.xhtml" target="_top" xlink:title="raised cosine filter">
<polygon fill="white" stroke="black" points="580,-6 580,-63 687,-63 687,-6 580,-6"/>
<text text-anchor="middle" x="633.5" y="-51" font-family="Helvetica,sans-Serif" font-size="10.00">RaisedCosineFilter</text>
<polyline fill="none" stroke="black" points="580,-44 687,-44 "/>
<text text-anchor="middle" x="633.5" y="-32" font-family="Helvetica,sans-Serif" font-size="10.00"> </text>
<polyline fill="none" stroke="black" points="580,-25 687,-25 "/>
<text text-anchor="start" x="588" y="-13" font-family="Helvetica,sans-Serif" font-size="10.00">+ __init__()</text>
</a>
</g>
</g>
<!-- Node2&#45;&gt;Node7 -->
<g id="edge6" class="edge">
<title>Node2&#45;&gt;Node7</title>
<path fill="none" stroke="midnightblue" d="M434.22,-105.15C434.31,-105.1 434.41,-105.05 434.5,-105 489.84,-75.89 512.29,-91.83 570.5,-69 575,-67.24 579.59,-65.23 584.14,-63.1"/>
<polygon fill="none" stroke="midnightblue" points="432.42,-102.15 425.51,-110.18 435.92,-108.21 432.42,-102.15"/>
</g>
</g>
</svg>
