<?xml version="1.0" encoding="UTF-8" standalone="no"?>
<!DOCTYPE svg PUBLIC "-//W3C//DTD SVG 1.1//EN"
 "http://www.w3.org/Graphics/SVG/1.1/DTD/svg11.dtd">
<!-- Generated by graphviz version 2.40.1 (20161225.0304)
 -->
<!-- Title: RaisedCosineFilter Pages: 1 -->
<svg width="121pt" height="320pt"
 viewBox="0.00 0.00 121.00 320.00" xmlns="http://www.w3.org/2000/svg" xmlns:xlink="http://www.w3.org/1999/xlink">
<g id="graph0" class="graph" transform="scale(1 1) rotate(0) translate(4 316)">
<title>RaisedCosineFilter</title>
<polygon fill="#ffffff" stroke="transparent" points="-4,4 -4,-316 117,-316 117,4 -4,4"/>
<!-- Node3 -->
<g id="node1" class="node">
<title>Node3</title>
<polygon fill="#bfbfbf" stroke="#000000" points="6.5,-.5 6.5,-57.5 106.5,-57.5 106.5,-.5 6.5,-.5"/>
<text text-anchor="middle" x="56.5" y="-45.5" font-family="Helvetica,sans-Serif" font-size="10.00" fill="#000000">RaisedCosineFilter</text>
<polyline fill="none" stroke="#000000" points="6.5,-38.5 106.5,-38.5 "/>
<text text-anchor="middle" x="56.5" y="-26.5" font-family="Helvetica,sans-Serif" font-size="10.00" fill="#000000"> </text>
<polyline fill="none" stroke="#000000" points="6.5,-19.5 106.5,-19.5 "/>
<text text-anchor="start" x="14.5" y="-7.5" font-family="Helvetica,sans-Serif" font-size="10.00" fill="#000000">+ __init__()</text>
</g>
<!-- Node4 -->
<g id="node2" class="node">
<title>Node4</title>
<g id="a_node2"><a xlink:href="classSignalIntegrity_1_1TimeDomain_1_1Filters_1_1FirFilter_1_1FirFilter.xhtml" target="_top" xlink:title="base filter class for all FIR filters ">
<polygon fill="#ffffff" stroke="#000000" points="0,-94.5 0,-217.5 113,-217.5 113,-94.5 0,-94.5"/>
<text text-anchor="middle" x="56.5" y="-205.5" font-family="Helvetica,sans-Serif" font-size="10.00" fill="#000000">FirFilter</text>
<polyline fill="none" stroke="#000000" points="0,-198.5 113,-198.5 "/>
<text text-anchor="start" x="8" y="-186.5" font-family="Helvetica,sans-Serif" font-size="10.00" fill="#000000">+ m_fd</text>
<text text-anchor="start" x="8" y="-175.5" font-family="Helvetica,sans-Serif" font-size="10.00" fill="#000000">+ m_ft</text>
<polyline fill="none" stroke="#000000" points="0,-168.5 113,-168.5 "/>
<text text-anchor="start" x="8" y="-156.5" font-family="Helvetica,sans-Serif" font-size="10.00" fill="#000000">+ __init__()</text>
<text text-anchor="start" x="8" y="-145.5" font-family="Helvetica,sans-Serif" font-size="10.00" fill="#000000">+ ProcessWaveform()</text>
<text text-anchor="start" x="8" y="-134.5" font-family="Helvetica,sans-Serif" font-size="10.00" fill="#000000">+ FilterTaps()</text>
<text text-anchor="start" x="8" y="-123.5" font-family="Helvetica,sans-Serif" font-size="10.00" fill="#000000">+ FilterDescriptor()</text>
<text text-anchor="start" x="8" y="-112.5" font-family="Helvetica,sans-Serif" font-size="10.00" fill="#000000">+ FilterWaveform()</text>
<text text-anchor="start" x="8" y="-101.5" font-family="Helvetica,sans-Serif" font-size="10.00" fill="#000000">+ Print()</text>
</a>
</g>
</g>
<!-- Node4&#45;&gt;Node3 -->
<g id="edge1" class="edge">
<title>Node4&#45;&gt;Node3</title>
<path fill="none" stroke="#191970" d="M56.5,-84.1046C56.5,-74.707 56.5,-65.5591 56.5,-57.5038"/>
<polygon fill="none" stroke="#191970" points="53.0001,-84.3601 56.5,-94.3601 60.0001,-84.3601 53.0001,-84.3601"/>
</g>
<!-- Node5 -->
<g id="node3" class="node">
<title>Node5</title>
<g id="a_node3"><a xlink:href="classSignalIntegrity_1_1TimeDomain_1_1Filters_1_1WaveformProcessor_1_1WaveformProcessor.xhtml" target="_top" xlink:title="base class for things that process waveforms ">
<polygon fill="#ffffff" stroke="#000000" points="0,-254.5 0,-311.5 113,-311.5 113,-254.5 0,-254.5"/>
<text text-anchor="middle" x="56.5" y="-299.5" font-family="Helvetica,sans-Serif" font-size="10.00" fill="#000000">WaveformProcessor</text>
<polyline fill="none" stroke="#000000" points="0,-292.5 113,-292.5 "/>
<text text-anchor="middle" x="56.5" y="-280.5" font-family="Helvetica,sans-Serif" font-size="10.00" fill="#000000"> </text>
<polyline fill="none" stroke="#000000" points="0,-273.5 113,-273.5 "/>
<text text-anchor="start" x="8" y="-261.5" font-family="Helvetica,sans-Serif" font-size="10.00" fill="#000000">+ ProcessWaveform()</text>
</a>
</g>
</g>
<!-- Node5&#45;&gt;Node4 -->
<g id="edge2" class="edge">
<title>Node5&#45;&gt;Node4</title>
<path fill="none" stroke="#191970" d="M56.5,-244.2486C56.5,-235.8213 56.5,-226.7045 56.5,-217.6384"/>
<polygon fill="none" stroke="#191970" points="53.0001,-244.4987 56.5,-254.4987 60.0001,-244.4988 53.0001,-244.4987"/>
</g>
</g>
</svg>
