<?xml version="1.0" encoding="UTF-8" standalone="no"?>
<!DOCTYPE svg PUBLIC "-//W3C//DTD SVG 1.1//EN"
 "http://www.w3.org/Graphics/SVG/1.1/DTD/svg11.dtd">
<!-- Generated by graphviz version 2.40.1 (20161225.0304)
 -->
<!-- Title: DeembedderNumericParser Pages: 1 -->
<svg width="354pt" height="546pt"
 viewBox="0.00 0.00 353.50 546.00" xmlns="http://www.w3.org/2000/svg" xmlns:xlink="http://www.w3.org/1999/xlink">
<g id="graph0" class="graph" transform="scale(1 1) rotate(0) translate(4 542)">
<title>DeembedderNumericParser</title>
<polygon fill="#ffffff" stroke="transparent" points="-4,4 -4,-542 349.5,-542 349.5,4 -4,4"/>
<!-- Node7 -->
<g id="node1" class="node">
<title>Node7</title>
<polygon fill="#bfbfbf" stroke="#000000" points="117.5,-.5 117.5,-68.5 254.5,-68.5 254.5,-.5 117.5,-.5"/>
<text text-anchor="middle" x="186" y="-56.5" font-family="Helvetica,sans-Serif" font-size="10.00" fill="#000000">DeembedderNumericParser</text>
<polyline fill="none" stroke="#000000" points="117.5,-49.5 254.5,-49.5 "/>
<text text-anchor="start" x="125.5" y="-37.5" font-family="Helvetica,sans-Serif" font-size="10.00" fill="#000000">+ sf</text>
<polyline fill="none" stroke="#000000" points="117.5,-30.5 254.5,-30.5 "/>
<text text-anchor="start" x="125.5" y="-18.5" font-family="Helvetica,sans-Serif" font-size="10.00" fill="#000000">+ __init__()</text>
<text text-anchor="start" x="125.5" y="-7.5" font-family="Helvetica,sans-Serif" font-size="10.00" fill="#000000">+ Deembed()</text>
</g>
<!-- Node8 -->
<g id="node2" class="node">
<title>Node8</title>
<g id="a_node2"><a xlink:href="classSignalIntegrity_1_1Lib_1_1Parsers_1_1DeembedderParser_1_1DeembedderParser.xhtml" target="_top" xlink:title="base class for netlist based deembedding solutions ">
<polygon fill="#ffffff" stroke="#000000" points="13.5,-122 13.5,-190 114.5,-190 114.5,-122 13.5,-122"/>
<text text-anchor="middle" x="64" y="-178" font-family="Helvetica,sans-Serif" font-size="10.00" fill="#000000">DeembedderParser</text>
<polyline fill="none" stroke="#000000" points="13.5,-171 114.5,-171 "/>
<text text-anchor="start" x="21.5" y="-159" font-family="Helvetica,sans-Serif" font-size="10.00" fill="#000000">+ m_sd</text>
<text text-anchor="start" x="21.5" y="-148" font-family="Helvetica,sans-Serif" font-size="10.00" fill="#000000">+ m_ul</text>
<polyline fill="none" stroke="#000000" points="13.5,-141 114.5,-141 "/>
<text text-anchor="start" x="21.5" y="-129" font-family="Helvetica,sans-Serif" font-size="10.00" fill="#000000">+ __init__()</text>
</a>
</g>
</g>
<!-- Node8&#45;&gt;Node7 -->
<g id="edge1" class="edge">
<title>Node8&#45;&gt;Node7</title>
<path fill="none" stroke="#191970" d="M105.5028,-114.6673C120.4819,-99.7496 137.2139,-83.0862 151.5263,-68.8324"/>
<polygon fill="none" stroke="#191970" points="102.9243,-112.2956 98.3085,-121.8321 107.8639,-117.2555 102.9243,-112.2956"/>
</g>
<!-- Node9 -->
<g id="node3" class="node">
<title>Node9</title>
<g id="a_node3"><a xlink:href="classSignalIntegrity_1_1Lib_1_1Parsers_1_1SystemDescriptionParser_1_1SystemDescriptionParser.xhtml" target="_top" xlink:title="Parses netlists and produces system descriptions. ">
<polygon fill="#ffffff" stroke="#000000" points="0,-243.5 0,-432.5 128,-432.5 128,-243.5 0,-243.5"/>
<text text-anchor="middle" x="64" y="-420.5" font-family="Helvetica,sans-Serif" font-size="10.00" fill="#000000">SystemDescriptionParser</text>
<polyline fill="none" stroke="#000000" points="0,-413.5 128,-413.5 "/>
<text text-anchor="start" x="8" y="-401.5" font-family="Helvetica,sans-Serif" font-size="10.00" fill="#000000">+ m_sd</text>
<text text-anchor="start" x="8" y="-390.5" font-family="Helvetica,sans-Serif" font-size="10.00" fill="#000000">+ m_f</text>
<text text-anchor="start" x="8" y="-379.5" font-family="Helvetica,sans-Serif" font-size="10.00" fill="#000000">+ m_lines</text>
<text text-anchor="start" x="8" y="-368.5" font-family="Helvetica,sans-Serif" font-size="10.00" fill="#000000">+ m_addThru</text>
<text text-anchor="start" x="8" y="-357.5" font-family="Helvetica,sans-Serif" font-size="10.00" fill="#000000">+ known</text>
<text text-anchor="start" x="8" y="-346.5" font-family="Helvetica,sans-Serif" font-size="10.00" fill="#000000">+ delayDict</text>
<text text-anchor="start" x="8" y="-335.5" font-family="Helvetica,sans-Serif" font-size="10.00" fill="#000000">+ m_spc</text>
<text text-anchor="start" x="8" y="-324.5" font-family="Helvetica,sans-Serif" font-size="10.00" fill="#000000">+ m_spcl</text>
<text text-anchor="start" x="8" y="-313.5" font-family="Helvetica,sans-Serif" font-size="10.00" fill="#000000">+ m_ul</text>
<polyline fill="none" stroke="#000000" points="0,-306.5 128,-306.5 "/>
<text text-anchor="start" x="8" y="-294.5" font-family="Helvetica,sans-Serif" font-size="10.00" fill="#000000">+ __init__()</text>
<text text-anchor="start" x="8" y="-283.5" font-family="Helvetica,sans-Serif" font-size="10.00" fill="#000000">+ SystemDescription()</text>
<text text-anchor="start" x="8" y="-272.5" font-family="Helvetica,sans-Serif" font-size="10.00" fill="#000000">+ AddKnownDevices()</text>
<text text-anchor="start" x="8" y="-261.5" font-family="Helvetica,sans-Serif" font-size="10.00" fill="#000000">+ AddLine()</text>
<text text-anchor="start" x="8" y="-250.5" font-family="Helvetica,sans-Serif" font-size="10.00" fill="#000000">+ AddLines()</text>
</a>
</g>
</g>
<!-- Node9&#45;&gt;Node8 -->
<g id="edge2" class="edge">
<title>Node9&#45;&gt;Node8</title>
<path fill="none" stroke="#191970" d="M64,-233.0656C64,-217.6301 64,-202.7424 64,-190.2361"/>
<polygon fill="none" stroke="#191970" points="60.5001,-233.2685 64,-243.2685 67.5001,-233.2685 60.5001,-233.2685"/>
</g>
<!-- Node10 -->
<g id="node4" class="node">
<title>Node10</title>
<g id="a_node4"><a xlink:href="classSignalIntegrity_1_1Lib_1_1Parsers_1_1ParserFile_1_1ParserFile.xhtml" target="_top" xlink:title="file handling base class for parsers ">
<polygon fill="#ffffff" stroke="#000000" points="23,-469.5 23,-537.5 105,-537.5 105,-469.5 23,-469.5"/>
<text text-anchor="middle" x="64" y="-525.5" font-family="Helvetica,sans-Serif" font-size="10.00" fill="#000000">ParserFile</text>
<polyline fill="none" stroke="#000000" points="23,-518.5 105,-518.5 "/>
<text text-anchor="middle" x="64" y="-506.5" font-family="Helvetica,sans-Serif" font-size="10.00" fill="#000000"> </text>
<polyline fill="none" stroke="#000000" points="23,-499.5 105,-499.5 "/>
<text text-anchor="start" x="31" y="-487.5" font-family="Helvetica,sans-Serif" font-size="10.00" fill="#000000">+ File()</text>
<text text-anchor="start" x="31" y="-476.5" font-family="Helvetica,sans-Serif" font-size="10.00" fill="#000000">+ WriteToFile()</text>
</a>
</g>
</g>
<!-- Node10&#45;&gt;Node9 -->
<g id="edge3" class="edge">
<title>Node10&#45;&gt;Node9</title>
<path fill="none" stroke="#191970" d="M64,-459.0888C64,-450.7937 64,-441.8388 64,-432.6848"/>
<polygon fill="none" stroke="#191970" points="60.5001,-459.2083 64,-469.2083 67.5001,-459.2083 60.5001,-459.2083"/>
</g>
<!-- Node11 -->
<g id="node5" class="node">
<title>Node11</title>
<g id="a_node5"><a xlink:href="classSignalIntegrity_1_1Lib_1_1CallBacker_1_1CallBacker.xhtml" target="_top" xlink:title="Handles Callbacks that allow progress reporting during long calculations and capability to abort...">
<polygon fill="#ffffff" stroke="#000000" points="132.5,-105.5 132.5,-206.5 239.5,-206.5 239.5,-105.5 132.5,-105.5"/>
<text text-anchor="middle" x="186" y="-194.5" font-family="Helvetica,sans-Serif" font-size="10.00" fill="#000000">CallBacker</text>
<polyline fill="none" stroke="#000000" points="132.5,-187.5 239.5,-187.5 "/>
<text text-anchor="start" x="140.5" y="-175.5" font-family="Helvetica,sans-Serif" font-size="10.00" fill="#000000">+ callback</text>
<polyline fill="none" stroke="#000000" points="132.5,-168.5 239.5,-168.5 "/>
<text text-anchor="start" x="140.5" y="-156.5" font-family="Helvetica,sans-Serif" font-size="10.00" fill="#000000">+ __init__()</text>
<text text-anchor="start" x="140.5" y="-145.5" font-family="Helvetica,sans-Serif" font-size="10.00" fill="#000000">+ HasACallBack()</text>
<text text-anchor="start" x="140.5" y="-134.5" font-family="Helvetica,sans-Serif" font-size="10.00" fill="#000000">+ CallBack()</text>
<text text-anchor="start" x="140.5" y="-123.5" font-family="Helvetica,sans-Serif" font-size="10.00" fill="#000000">+ InstallCallback()</text>
<text text-anchor="start" x="140.5" y="-112.5" font-family="Helvetica,sans-Serif" font-size="10.00" fill="#000000">+ RemoveCallback()</text>
</a>
</g>
</g>
<!-- Node11&#45;&gt;Node7 -->
<g id="edge4" class="edge">
<title>Node11&#45;&gt;Node7</title>
<path fill="none" stroke="#191970" d="M186,-94.9589C186,-85.8735 186,-76.7967 186,-68.5415"/>
<polygon fill="none" stroke="#191970" points="182.5001,-95.177 186,-105.1771 189.5001,-95.1771 182.5001,-95.177"/>
</g>
<!-- Node12 -->
<g id="node6" class="node">
<title>Node12</title>
<g id="a_node6"><a xlink:href="classSignalIntegrity_1_1Lib_1_1ResultsCache_1_1LinesCache.xhtml" target="_top" xlink:title="Caches results calculated based on netlist lines, as used in all of the parser classes. ">
<polygon fill="#ffffff" stroke="#000000" points="257.5,-116.5 257.5,-195.5 344.5,-195.5 344.5,-116.5 257.5,-116.5"/>
<text text-anchor="middle" x="301" y="-183.5" font-family="Helvetica,sans-Serif" font-size="10.00" fill="#000000">LinesCache</text>
<polyline fill="none" stroke="#000000" points="257.5,-176.5 344.5,-176.5 "/>
<text text-anchor="middle" x="301" y="-164.5" font-family="Helvetica,sans-Serif" font-size="10.00" fill="#000000"> </text>
<polyline fill="none" stroke="#000000" points="257.5,-157.5 344.5,-157.5 "/>
<text text-anchor="start" x="265.5" y="-145.5" font-family="Helvetica,sans-Serif" font-size="10.00" fill="#000000">+ __init__()</text>
<text text-anchor="start" x="265.5" y="-134.5" font-family="Helvetica,sans-Serif" font-size="10.00" fill="#000000">+ HashValue()</text>
<text text-anchor="start" x="265.5" y="-123.5" font-family="Helvetica,sans-Serif" font-size="10.00" fill="#000000">+ CheckTimes()</text>
</a>
</g>
</g>
<!-- Node12&#45;&gt;Node7 -->
<g id="edge5" class="edge">
<title>Node12&#45;&gt;Node7</title>
<path fill="none" stroke="#191970" d="M256.4035,-108.8828C243.7153,-95.4775 230.1433,-81.1384 218.3352,-68.6628"/>
<polygon fill="none" stroke="#191970" points="253.9286,-111.3596 263.3447,-116.2164 259.0125,-106.5477 253.9286,-111.3596"/>
</g>
<!-- Node13 -->
<g id="node7" class="node">
<title>Node13</title>
<g id="a_node7"><a xlink:href="classSignalIntegrity_1_1Lib_1_1ResultsCache_1_1ResultsCache.xhtml" target="_top" xlink:title="base class for results caching ">
<polygon fill="#ffffff" stroke="#000000" points="256.5,-276.5 256.5,-399.5 345.5,-399.5 345.5,-276.5 256.5,-276.5"/>
<text text-anchor="middle" x="301" y="-387.5" font-family="Helvetica,sans-Serif" font-size="10.00" fill="#000000">ResultsCache</text>
<polyline fill="none" stroke="#000000" points="256.5,-380.5 345.5,-380.5 "/>
<text text-anchor="start" x="264.5" y="-368.5" font-family="Helvetica,sans-Serif" font-size="10.00" fill="#000000">+ filename</text>
<text text-anchor="start" x="264.5" y="-357.5" font-family="Helvetica,sans-Serif" font-size="10.00" fill="#000000">+ extra</text>
<text text-anchor="start" x="264.5" y="-346.5" font-family="Helvetica,sans-Serif" font-size="10.00" fill="#000000">+ hash</text>
<polyline fill="none" stroke="#000000" points="256.5,-339.5 345.5,-339.5 "/>
<text text-anchor="start" x="264.5" y="-327.5" font-family="Helvetica,sans-Serif" font-size="10.00" fill="#000000">+ __init__()</text>
<text text-anchor="start" x="264.5" y="-316.5" font-family="Helvetica,sans-Serif" font-size="10.00" fill="#000000">+ CheckCache()</text>
<text text-anchor="start" x="264.5" y="-305.5" font-family="Helvetica,sans-Serif" font-size="10.00" fill="#000000">+ CacheResult()</text>
<text text-anchor="start" x="264.5" y="-294.5" font-family="Helvetica,sans-Serif" font-size="10.00" fill="#000000">+ FileTime()</text>
<text text-anchor="start" x="264.5" y="-283.5" font-family="Helvetica,sans-Serif" font-size="10.00" fill="#000000">+ CheckTimes()</text>
</a>
</g>
</g>
<!-- Node13&#45;&gt;Node12 -->
<g id="edge6" class="edge">
<title>Node13&#45;&gt;Node12</title>
<path fill="none" stroke="#191970" d="M301,-266.2107C301,-242.1583 301,-216.23 301,-195.5684"/>
<polygon fill="none" stroke="#191970" points="297.5001,-266.3831 301,-276.3831 304.5001,-266.3831 297.5001,-266.3831"/>
</g>
</g>
</svg>
