<?xml version="1.0" encoding="UTF-8" standalone="no"?>
<!DOCTYPE svg PUBLIC "-//W3C//DTD SVG 1.1//EN"
 "http://www.w3.org/Graphics/SVG/1.1/DTD/svg11.dtd">
<!-- Generated by graphviz version 2.40.1 (20161225.0304)
 -->
<!-- Title: SerialDataWaveform Pages: 1 -->
<svg width="244pt" height="386pt"
 viewBox="0.00 0.00 244.00 386.00" xmlns="http://www.w3.org/2000/svg" xmlns:xlink="http://www.w3.org/1999/xlink">
<g id="graph0" class="graph" transform="scale(1 1) rotate(0) translate(4 382)">
<title>SerialDataWaveform</title>
<polygon fill="#ffffff" stroke="transparent" points="-4,4 -4,-382 240,-382 240,4 -4,4"/>
<!-- Node0 -->
<g id="node1" class="node">
<title>Node0</title>
<polygon fill="#bfbfbf" stroke="#000000" points="53,-94.5 53,-162.5 160,-162.5 160,-94.5 53,-94.5"/>
<text text-anchor="middle" x="106.5" y="-150.5" font-family="Helvetica,sans-Serif" font-size="10.00" fill="#000000">SerialDataWaveform</text>
<polyline fill="none" stroke="#000000" points="53,-143.5 160,-143.5 "/>
<text text-anchor="start" x="61" y="-131.5" font-family="Helvetica,sans-Serif" font-size="10.00" fill="#000000">+ rtvsT</text>
<polyline fill="none" stroke="#000000" points="53,-124.5 160,-124.5 "/>
<text text-anchor="start" x="61" y="-112.5" font-family="Helvetica,sans-Serif" font-size="10.00" fill="#000000">+ __init__()</text>
<text text-anchor="start" x="61" y="-101.5" font-family="Helvetica,sans-Serif" font-size="10.00" fill="#000000">+ TimeDescriptor()</text>
</g>
<!-- Node2 -->
<g id="node3" class="node">
<title>Node2</title>
<g id="a_node3"><a xlink:href="classSignalIntegrity_1_1Lib_1_1Prbs_1_1ClockWaveform_1_1ClockWaveform.xhtml" target="_top" xlink:title="a clock waveform ">
<polygon fill="#ffffff" stroke="#000000" points="0,-.5 0,-57.5 87,-57.5 87,-.5 0,-.5"/>
<text text-anchor="middle" x="43.5" y="-45.5" font-family="Helvetica,sans-Serif" font-size="10.00" fill="#000000">ClockWaveform</text>
<polyline fill="none" stroke="#000000" points="0,-38.5 87,-38.5 "/>
<text text-anchor="middle" x="43.5" y="-26.5" font-family="Helvetica,sans-Serif" font-size="10.00" fill="#000000"> </text>
<polyline fill="none" stroke="#000000" points="0,-19.5 87,-19.5 "/>
<text text-anchor="start" x="8" y="-7.5" font-family="Helvetica,sans-Serif" font-size="10.00" fill="#000000">+ __init__()</text>
</a>
</g>
</g>
<!-- Node0&#45;&gt;Node2 -->
<g id="edge2" class="edge">
<title>Node0&#45;&gt;Node2</title>
<path fill="none" stroke="#191970" d="M79.4013,-85.7013C73.4078,-76.2354 67.1976,-66.4271 61.6614,-57.6836"/>
<polygon fill="none" stroke="#191970" points="76.5123,-87.6812 84.819,-94.2577 82.4265,-83.9366 76.5123,-87.6812"/>
</g>
<!-- Node3 -->
<g id="node4" class="node">
<title>Node3</title>
<g id="a_node4"><a xlink:href="classSignalIntegrity_1_1Lib_1_1Prbs_1_1PseudoRandomWaveform_1_1PseudoRandomWaveform.xhtml" target="_top" xlink:title="a PRBS waveform with a given PRBS polynomial ">
<polygon fill="#ffffff" stroke="#000000" points="105,-.5 105,-57.5 236,-57.5 236,-.5 105,-.5"/>
<text text-anchor="middle" x="170.5" y="-45.5" font-family="Helvetica,sans-Serif" font-size="10.00" fill="#000000">PseudoRandomWaveform</text>
<polyline fill="none" stroke="#000000" points="105,-38.5 236,-38.5 "/>
<text text-anchor="middle" x="170.5" y="-26.5" font-family="Helvetica,sans-Serif" font-size="10.00" fill="#000000"> </text>
<polyline fill="none" stroke="#000000" points="105,-19.5 236,-19.5 "/>
<text text-anchor="start" x="113" y="-7.5" font-family="Helvetica,sans-Serif" font-size="10.00" fill="#000000">+ __init__()</text>
</a>
</g>
</g>
<!-- Node0&#45;&gt;Node3 -->
<g id="edge3" class="edge">
<title>Node0&#45;&gt;Node3</title>
<path fill="none" stroke="#191970" d="M134.0288,-85.7013C140.1174,-76.2354 146.4263,-66.4271 152.0503,-57.6836"/>
<polygon fill="none" stroke="#191970" points="130.9913,-83.9539 128.5252,-94.2577 136.8786,-87.7407 130.9913,-83.9539"/>
</g>
<!-- Node1 -->
<g id="node2" class="node">
<title>Node1</title>
<g id="a_node2"><a xlink:href="classSignalIntegrity_1_1Lib_1_1TimeDomain_1_1Waveform_1_1Waveform_1_1Waveform.xhtml" target="_top" xlink:title="base class for all waveforms ">
<polygon fill="#ffffff" stroke="#000000" points="57,-199.5 57,-377.5 156,-377.5 156,-199.5 57,-199.5"/>
<text text-anchor="middle" x="106.5" y="-365.5" font-family="Helvetica,sans-Serif" font-size="10.00" fill="#000000">Waveform</text>
<polyline fill="none" stroke="#000000" points="57,-358.5 156,-358.5 "/>
<text text-anchor="start" x="65" y="-346.5" font-family="Helvetica,sans-Serif" font-size="10.00" fill="#000000">+ td</text>
<text text-anchor="start" x="65" y="-335.5" font-family="Helvetica,sans-Serif" font-size="10.00" fill="#000000">+ adaptionStrategy</text>
<polyline fill="none" stroke="#000000" points="57,-328.5 156,-328.5 "/>
<text text-anchor="start" x="65" y="-316.5" font-family="Helvetica,sans-Serif" font-size="10.00" fill="#000000">+ __init__()</text>
<text text-anchor="start" x="65" y="-305.5" font-family="Helvetica,sans-Serif" font-size="10.00" fill="#000000">+ Times()</text>
<text text-anchor="start" x="65" y="-294.5" font-family="Helvetica,sans-Serif" font-size="10.00" fill="#000000">+ TimeDescriptor()</text>
<text text-anchor="start" x="65" y="-283.5" font-family="Helvetica,sans-Serif" font-size="10.00" fill="#000000">+ Values()</text>
<text text-anchor="start" x="65" y="-272.5" font-family="Helvetica,sans-Serif" font-size="10.00" fill="#000000">+ OffsetBy()</text>
<text text-anchor="start" x="65" y="-261.5" font-family="Helvetica,sans-Serif" font-size="10.00" fill="#000000">+ DelayBy()</text>
<text text-anchor="start" x="65" y="-250.5" font-family="Helvetica,sans-Serif" font-size="10.00" fill="#000000">+ __add__()</text>
<text text-anchor="start" x="65" y="-239.5" font-family="Helvetica,sans-Serif" font-size="10.00" fill="#000000">+ __sub__()</text>
<text text-anchor="start" x="65" y="-228.5" font-family="Helvetica,sans-Serif" font-size="10.00" fill="#000000">+ __radd__()</text>
<text text-anchor="start" x="65" y="-217.5" font-family="Helvetica,sans-Serif" font-size="10.00" fill="#000000">+ __mul__()</text>
<text text-anchor="start" x="65" y="-206.5" font-family="Helvetica,sans-Serif" font-size="10.00" fill="#000000">and 11 more...</text>
</a>
</g>
</g>
<!-- Node1&#45;&gt;Node0 -->
<g id="edge1" class="edge">
<title>Node1&#45;&gt;Node0</title>
<path fill="none" stroke="#191970" d="M106.5,-188.9715C106.5,-179.7079 106.5,-170.8164 106.5,-162.8363"/>
<polygon fill="none" stroke="#191970" points="103.0001,-189.144 106.5,-199.1441 110.0001,-189.1441 103.0001,-189.144"/>
</g>
</g>
</svg>
