<?xml version="1.0" encoding="UTF-8" standalone="no"?>
<!DOCTYPE svg PUBLIC "-//W3C//DTD SVG 1.1//EN"
 "http://www.w3.org/Graphics/SVG/1.1/DTD/svg11.dtd">
<!-- Generated by graphviz version 2.43.0 (0)
 -->
<!-- Title: MultiLevelWaveform Pages: 1 -->
<svg width="230pt" height="397pt"
 viewBox="0.00 0.00 229.50 397.00" xmlns="http://www.w3.org/2000/svg" xmlns:xlink="http://www.w3.org/1999/xlink">
<g id="graph0" class="graph" transform="scale(1 1) rotate(0) translate(4 393)">
<title>MultiLevelWaveform</title>
<polygon fill="white" stroke="transparent" points="-4,4 -4,-393 225.5,-393 225.5,4 -4,4"/>
<!-- Node1 -->
<g id="node1" class="node">
<title>Node1</title>
<g id="a_node1"><a xlink:title="a PRBS multi&#45;level waveform with a given PRBS polynomial">
<polygon fill="#bfbfbf" stroke="black" points="61,-94.5 61,-151.5 166,-151.5 166,-94.5 61,-94.5"/>
<text text-anchor="middle" x="113.5" y="-139.5" font-family="Helvetica,sans-Serif" font-size="10.00">MultiLevelWaveform</text>
<polyline fill="none" stroke="black" points="61,-132.5 166,-132.5 "/>
<text text-anchor="middle" x="113.5" y="-120.5" font-family="Helvetica,sans-Serif" font-size="10.00"> </text>
<polyline fill="none" stroke="black" points="61,-113.5 166,-113.5 "/>
<text text-anchor="start" x="69" y="-101.5" font-family="Helvetica,sans-Serif" font-size="10.00">+ __init__()</text>
</a>
</g>
</g>
<!-- Node3 -->
<g id="node3" class="node">
<title>Node3</title>
<g id="a_node3"><a xlink:href="classSignalIntegrity_1_1Lib_1_1Prbs_1_1PRBS13QWaveform_1_1PRBS13QWaveform.xhtml" target="_top" xlink:title="a PRBS13Q PAM4 waveform with a given rise time and amplitude">
<polygon fill="white" stroke="black" points="0,-0.5 0,-57.5 107,-57.5 107,-0.5 0,-0.5"/>
<text text-anchor="middle" x="53.5" y="-45.5" font-family="Helvetica,sans-Serif" font-size="10.00">PRBS13QWaveform</text>
<polyline fill="none" stroke="black" points="0,-38.5 107,-38.5 "/>
<text text-anchor="start" x="8" y="-26.5" font-family="Helvetica,sans-Serif" font-size="10.00">+ pattern</text>
<polyline fill="none" stroke="black" points="0,-19.5 107,-19.5 "/>
<text text-anchor="start" x="8" y="-7.5" font-family="Helvetica,sans-Serif" font-size="10.00">+ __init__()</text>
</a>
</g>
</g>
<!-- Node1&#45;&gt;Node3 -->
<g id="edge2" class="edge">
<title>Node1&#45;&gt;Node3</title>
<path fill="none" stroke="midnightblue" d="M89.99,-85.95C83.84,-76.52 77.3,-66.5 71.49,-57.58"/>
<polygon fill="none" stroke="midnightblue" points="87.1,-87.93 95.5,-94.4 92.97,-84.11 87.1,-87.93"/>
</g>
<!-- Node4 -->
<g id="node4" class="node">
<title>Node4</title>
<g id="a_node4"><a xlink:href="classSignalIntegrity_1_1Lib_1_1Prbs_1_1SSPRQWaveform_1_1SSPRQWaveform.xhtml" target="_top" xlink:title="a SSPRQ PAM4 waveform with a given rise time and amplitude">
<polygon fill="white" stroke="black" points="125.5,-0.5 125.5,-57.5 221.5,-57.5 221.5,-0.5 125.5,-0.5"/>
<text text-anchor="middle" x="173.5" y="-45.5" font-family="Helvetica,sans-Serif" font-size="10.00">SSPRQWaveform</text>
<polyline fill="none" stroke="black" points="125.5,-38.5 221.5,-38.5 "/>
<text text-anchor="start" x="133.5" y="-26.5" font-family="Helvetica,sans-Serif" font-size="10.00">+ pattern</text>
<polyline fill="none" stroke="black" points="125.5,-19.5 221.5,-19.5 "/>
<text text-anchor="start" x="133.5" y="-7.5" font-family="Helvetica,sans-Serif" font-size="10.00">+ __init__()</text>
</a>
</g>
</g>
<!-- Node1&#45;&gt;Node4 -->
<g id="edge3" class="edge">
<title>Node1&#45;&gt;Node4</title>
<path fill="none" stroke="midnightblue" d="M137.01,-85.95C143.16,-76.52 149.7,-66.5 155.51,-57.58"/>
<polygon fill="none" stroke="midnightblue" points="134.03,-84.11 131.5,-94.4 139.9,-87.93 134.03,-84.11"/>
</g>
<!-- Node2 -->
<g id="node2" class="node">
<title>Node2</title>
<g id="a_node2"><a xlink:href="classSignalIntegrity_1_1Lib_1_1TimeDomain_1_1Waveform_1_1Waveform_1_1Waveform.xhtml" target="_top" xlink:title="base class for all waveforms">
<polygon fill="white" stroke="black" points="47.5,-188.5 47.5,-388.5 179.5,-388.5 179.5,-188.5 47.5,-188.5"/>
<text text-anchor="middle" x="113.5" y="-376.5" font-family="Helvetica,sans-Serif" font-size="10.00">Waveform</text>
<polyline fill="none" stroke="black" points="47.5,-369.5 179.5,-369.5 "/>
<text text-anchor="start" x="55.5" y="-357.5" font-family="Helvetica,sans-Serif" font-size="10.00">+ td</text>
<text text-anchor="start" x="55.5" y="-346.5" font-family="Helvetica,sans-Serif" font-size="10.00">+ adaptionStrategy</text>
<text text-anchor="start" x="55.5" y="-335.5" font-family="Helvetica,sans-Serif" font-size="10.00">+ epsilon</text>
<text text-anchor="start" x="55.5" y="-324.5" font-family="Helvetica,sans-Serif" font-size="10.00">+ maximumWaveformSize</text>
<polyline fill="none" stroke="black" points="47.5,-317.5 179.5,-317.5 "/>
<text text-anchor="start" x="55.5" y="-305.5" font-family="Helvetica,sans-Serif" font-size="10.00">+ __init__()</text>
<text text-anchor="start" x="55.5" y="-294.5" font-family="Helvetica,sans-Serif" font-size="10.00">+ Times()</text>
<text text-anchor="start" x="55.5" y="-283.5" font-family="Helvetica,sans-Serif" font-size="10.00">+ TimeDescriptor()</text>
<text text-anchor="start" x="55.5" y="-272.5" font-family="Helvetica,sans-Serif" font-size="10.00">+ Values()</text>
<text text-anchor="start" x="55.5" y="-261.5" font-family="Helvetica,sans-Serif" font-size="10.00">+ OffsetBy()</text>
<text text-anchor="start" x="55.5" y="-250.5" font-family="Helvetica,sans-Serif" font-size="10.00">+ DelayBy()</text>
<text text-anchor="start" x="55.5" y="-239.5" font-family="Helvetica,sans-Serif" font-size="10.00">+ __add__()</text>
<text text-anchor="start" x="55.5" y="-228.5" font-family="Helvetica,sans-Serif" font-size="10.00">+ __sub__()</text>
<text text-anchor="start" x="55.5" y="-217.5" font-family="Helvetica,sans-Serif" font-size="10.00">+ __radd__()</text>
<text text-anchor="start" x="55.5" y="-206.5" font-family="Helvetica,sans-Serif" font-size="10.00">+ __mul__()</text>
<text text-anchor="start" x="55.5" y="-195.5" font-family="Helvetica,sans-Serif" font-size="10.00">and 16 more...</text>
</a>
</g>
</g>
<!-- Node2&#45;&gt;Node1 -->
<g id="edge1" class="edge">
<title>Node2&#45;&gt;Node1</title>
<path fill="none" stroke="midnightblue" d="M113.5,-177.96C113.5,-168.37 113.5,-159.35 113.5,-151.53"/>
<polygon fill="none" stroke="midnightblue" points="110,-178.15 113.5,-188.15 117,-178.15 110,-178.15"/>
</g>
</g>
</svg>
