<?xml version="1.0" encoding="UTF-8" standalone="no"?>
<!DOCTYPE svg PUBLIC "-//W3C//DTD SVG 1.1//EN"
 "http://www.w3.org/Graphics/SVG/1.1/DTD/svg11.dtd">
<!-- Generated by graphviz version 2.43.0 (0)
 -->
<!-- Title: InterpolatorLinear Pages: 1 -->
<svg width="132pt" height="331pt"
 viewBox="0.00 0.00 132.00 331.00" xmlns="http://www.w3.org/2000/svg" xmlns:xlink="http://www.w3.org/1999/xlink">
<g id="graph0" class="graph" transform="scale(1 1) rotate(0) translate(4 327)">
<title>InterpolatorLinear</title>
<polygon fill="white" stroke="transparent" points="-4,4 -4,-327 128,-327 128,4 -4,4"/>
<!-- Node1 -->
<g id="node1" class="node">
<title>Node1</title>
<g id="a_node1"><a xlink:title="linear interpolating filter">
<polygon fill="#bfbfbf" stroke="black" points="7,-0.5 7,-68.5 117,-68.5 117,-0.5 7,-0.5"/>
<text text-anchor="middle" x="62" y="-56.5" font-family="Helvetica,sans-Serif" font-size="10.00">InterpolatorLinear</text>
<polyline fill="none" stroke="black" points="7,-49.5 117,-49.5 "/>
<text text-anchor="middle" x="62" y="-37.5" font-family="Helvetica,sans-Serif" font-size="10.00"> </text>
<polyline fill="none" stroke="black" points="7,-30.5 117,-30.5 "/>
<text text-anchor="start" x="15" y="-18.5" font-family="Helvetica,sans-Serif" font-size="10.00">+ __init__()</text>
<text text-anchor="start" x="15" y="-7.5" font-family="Helvetica,sans-Serif" font-size="10.00">+ FilterWaveform()</text>
</a>
</g>
</g>
<!-- Node2 -->
<g id="node2" class="node">
<title>Node2</title>
<g id="a_node2"><a xlink:href="classSignalIntegrity_1_1Lib_1_1TimeDomain_1_1Filters_1_1FirFilter_1_1FirFilter.xhtml" target="_top" xlink:title="base filter class for all FIR filters">
<polygon fill="white" stroke="black" points="0,-105.5 0,-228.5 124,-228.5 124,-105.5 0,-105.5"/>
<text text-anchor="middle" x="62" y="-216.5" font-family="Helvetica,sans-Serif" font-size="10.00">FirFilter</text>
<polyline fill="none" stroke="black" points="0,-209.5 124,-209.5 "/>
<text text-anchor="start" x="8" y="-197.5" font-family="Helvetica,sans-Serif" font-size="10.00">+ m_fd</text>
<text text-anchor="start" x="8" y="-186.5" font-family="Helvetica,sans-Serif" font-size="10.00">+ m_ft</text>
<polyline fill="none" stroke="black" points="0,-179.5 124,-179.5 "/>
<text text-anchor="start" x="8" y="-167.5" font-family="Helvetica,sans-Serif" font-size="10.00">+ __init__()</text>
<text text-anchor="start" x="8" y="-156.5" font-family="Helvetica,sans-Serif" font-size="10.00">+ ProcessWaveform()</text>
<text text-anchor="start" x="8" y="-145.5" font-family="Helvetica,sans-Serif" font-size="10.00">+ FilterTaps()</text>
<text text-anchor="start" x="8" y="-134.5" font-family="Helvetica,sans-Serif" font-size="10.00">+ FilterDescriptor()</text>
<text text-anchor="start" x="8" y="-123.5" font-family="Helvetica,sans-Serif" font-size="10.00">+ FilterWaveform()</text>
<text text-anchor="start" x="8" y="-112.5" font-family="Helvetica,sans-Serif" font-size="10.00">+ Print()</text>
</a>
</g>
</g>
<!-- Node2&#45;&gt;Node1 -->
<g id="edge1" class="edge">
<title>Node2&#45;&gt;Node1</title>
<path fill="none" stroke="midnightblue" d="M62,-95.24C62,-85.97 62,-76.84 62,-68.62"/>
<polygon fill="none" stroke="midnightblue" points="58.5,-95.33 62,-105.33 65.5,-95.33 58.5,-95.33"/>
</g>
<!-- Node3 -->
<g id="node3" class="node">
<title>Node3</title>
<g id="a_node3"><a xlink:href="classSignalIntegrity_1_1Lib_1_1TimeDomain_1_1Filters_1_1WaveformProcessor_1_1WaveformProcessor.xhtml" target="_top" xlink:title="WaveformProcessor.py.">
<polygon fill="white" stroke="black" points="0,-265.5 0,-322.5 124,-322.5 124,-265.5 0,-265.5"/>
<text text-anchor="middle" x="62" y="-310.5" font-family="Helvetica,sans-Serif" font-size="10.00">WaveformProcessor</text>
<polyline fill="none" stroke="black" points="0,-303.5 124,-303.5 "/>
<text text-anchor="middle" x="62" y="-291.5" font-family="Helvetica,sans-Serif" font-size="10.00"> </text>
<polyline fill="none" stroke="black" points="0,-284.5 124,-284.5 "/>
<text text-anchor="start" x="8" y="-272.5" font-family="Helvetica,sans-Serif" font-size="10.00">+ ProcessWaveform()</text>
</a>
</g>
</g>
<!-- Node3&#45;&gt;Node2 -->
<g id="edge2" class="edge">
<title>Node3&#45;&gt;Node2</title>
<path fill="none" stroke="midnightblue" d="M62,-255.1C62,-246.74 62,-237.68 62,-228.67"/>
<polygon fill="none" stroke="midnightblue" points="58.5,-255.26 62,-265.26 65.5,-255.26 58.5,-255.26"/>
</g>
</g>
</svg>
