<?xml version="1.0" encoding="UTF-8" standalone="no"?>
<!DOCTYPE svg PUBLIC "-//W3C//DTD SVG 1.1//EN"
 "http://www.w3.org/Graphics/SVG/1.1/DTD/svg11.dtd">
<!-- Generated by graphviz version 2.43.0 (0)
 -->
<!-- Title: SParameterManipulation Pages: 1 -->
<svg width="3419pt" height="700pt"
 viewBox="0.00 0.00 3418.50 700.00" xmlns="http://www.w3.org/2000/svg" xmlns:xlink="http://www.w3.org/1999/xlink">
<g id="graph0" class="graph" transform="scale(1 1) rotate(0) translate(4 696)">
<title>SParameterManipulation</title>
<polygon fill="white" stroke="transparent" points="-4,4 -4,-696 3414.5,-696 3414.5,4 -4,4"/>
<!-- Node1 -->
<g id="node1" class="node">
<title>Node1</title>
<g id="a_node1"><a xlink:title="Class for manipulations on s&#45;parameters involving passivity, causality, etc.">
<polygon fill="#bfbfbf" stroke="black" points="1433,-524.5 1433,-691.5 1636,-691.5 1636,-524.5 1433,-524.5"/>
<text text-anchor="middle" x="1534.5" y="-679.5" font-family="Helvetica,sans-Serif" font-size="10.00">SParameterManipulation</text>
<polyline fill="none" stroke="black" points="1433,-672.5 1636,-672.5 "/>
<text text-anchor="middle" x="1534.5" y="-660.5" font-family="Helvetica,sans-Serif" font-size="10.00"> </text>
<polyline fill="none" stroke="black" points="1433,-653.5 1636,-653.5 "/>
<text text-anchor="start" x="1441" y="-641.5" font-family="Helvetica,sans-Serif" font-size="10.00">+ EnforcePassivity()</text>
<text text-anchor="start" x="1441" y="-630.5" font-family="Helvetica,sans-Serif" font-size="10.00">+ IsCausal()</text>
<text text-anchor="start" x="1441" y="-619.5" font-family="Helvetica,sans-Serif" font-size="10.00">+ EnforceCausality()</text>
<text text-anchor="start" x="1441" y="-608.5" font-family="Helvetica,sans-Serif" font-size="10.00">+ WaveletDenoise()</text>
<text text-anchor="start" x="1441" y="-597.5" font-family="Helvetica,sans-Serif" font-size="10.00">+ PortReorder()</text>
<text text-anchor="start" x="1441" y="-586.5" font-family="Helvetica,sans-Serif" font-size="10.00">+ DetermineImpulseResponse</text>
<text text-anchor="start" x="1441" y="-575.5" font-family="Helvetica,sans-Serif" font-size="10.00">Length()</text>
<text text-anchor="start" x="1441" y="-564.5" font-family="Helvetica,sans-Serif" font-size="10.00">+ LimitImpulseResponseLength()</text>
<text text-anchor="start" x="1441" y="-553.5" font-family="Helvetica,sans-Serif" font-size="10.00">+ EnforceReciprocity()</text>
<text text-anchor="start" x="1441" y="-542.5" font-family="Helvetica,sans-Serif" font-size="10.00">+ EnforceBothPassivityAndCausality()</text>
<text text-anchor="start" x="1441" y="-531.5" font-family="Helvetica,sans-Serif" font-size="10.00">+ EnforceAll()</text>
</a>
</g>
</g>
<!-- Node2 -->
<g id="node2" class="node">
<title>Node2</title>
<g id="a_node2"><a xlink:href="classSignalIntegrity_1_1Lib_1_1SParameters_1_1SParameters_1_1SParameters.xhtml" target="_top" xlink:title="Class containing s&#45;parameters.">
<polygon fill="white" stroke="black" points="1457,-254.5 1457,-487.5 1612,-487.5 1612,-254.5 1457,-254.5"/>
<text text-anchor="middle" x="1534.5" y="-475.5" font-family="Helvetica,sans-Serif" font-size="10.00">SParameters</text>
<polyline fill="none" stroke="black" points="1457,-468.5 1612,-468.5 "/>
<text text-anchor="start" x="1465" y="-456.5" font-family="Helvetica,sans-Serif" font-size="10.00">+ m_sToken</text>
<text text-anchor="start" x="1465" y="-445.5" font-family="Helvetica,sans-Serif" font-size="10.00">+ m_d</text>
<text text-anchor="start" x="1465" y="-434.5" font-family="Helvetica,sans-Serif" font-size="10.00">+ m_Z0</text>
<text text-anchor="start" x="1465" y="-423.5" font-family="Helvetica,sans-Serif" font-size="10.00">+ m_f</text>
<text text-anchor="start" x="1465" y="-412.5" font-family="Helvetica,sans-Serif" font-size="10.00">+ m_P</text>
<text text-anchor="start" x="1465" y="-401.5" font-family="Helvetica,sans-Serif" font-size="10.00">+ header</text>
<text text-anchor="start" x="1465" y="-390.5" font-family="Helvetica,sans-Serif" font-size="10.00">+ maxTokensOnLine</text>
<text text-anchor="start" x="1465" y="-379.5" font-family="Helvetica,sans-Serif" font-size="10.00">+ numDigits</text>
<polyline fill="none" stroke="black" points="1457,-372.5 1612,-372.5 "/>
<text text-anchor="start" x="1465" y="-360.5" font-family="Helvetica,sans-Serif" font-size="10.00">+ __init__()</text>
<text text-anchor="start" x="1465" y="-349.5" font-family="Helvetica,sans-Serif" font-size="10.00">+ __getitem__()</text>
<text text-anchor="start" x="1465" y="-338.5" font-family="Helvetica,sans-Serif" font-size="10.00">+ __len__()</text>
<text text-anchor="start" x="1465" y="-327.5" font-family="Helvetica,sans-Serif" font-size="10.00">+ f()</text>
<text text-anchor="start" x="1465" y="-316.5" font-family="Helvetica,sans-Serif" font-size="10.00">+ Response()</text>
<text text-anchor="start" x="1465" y="-305.5" font-family="Helvetica,sans-Serif" font-size="10.00">+ FrequencyResponse()</text>
<text text-anchor="start" x="1465" y="-294.5" font-family="Helvetica,sans-Serif" font-size="10.00">+ Text()</text>
<text text-anchor="start" x="1465" y="-283.5" font-family="Helvetica,sans-Serif" font-size="10.00">+ WriteToFile()</text>
<text text-anchor="start" x="1465" y="-272.5" font-family="Helvetica,sans-Serif" font-size="10.00">+ Resample()</text>
<text text-anchor="start" x="1465" y="-261.5" font-family="Helvetica,sans-Serif" font-size="10.00">+ SetReferenceImpedance()</text>
</a>
</g>
</g>
<!-- Node1&#45;&gt;Node2 -->
<g id="edge1" class="edge">
<title>Node1&#45;&gt;Node2</title>
<path fill="none" stroke="midnightblue" d="M1534.5,-514.32C1534.5,-505.59 1534.5,-496.66 1534.5,-487.74"/>
<polygon fill="none" stroke="midnightblue" points="1531,-514.48 1534.5,-524.48 1538,-514.48 1531,-514.48"/>
</g>
<!-- Node3 -->
<g id="node3" class="node">
<title>Node3</title>
<g id="a_node3"><a xlink:href="classSignalIntegrity_1_1Lib_1_1ImpedanceProfile_1_1PeeledLaunches_1_1PeeledLaunches.xhtml" target="_top" xlink:title="S&#45;parameters with launches peeled from them.">
<polygon fill="white" stroke="black" points="0,-127.5 0,-184.5 95,-184.5 95,-127.5 0,-127.5"/>
<text text-anchor="middle" x="47.5" y="-172.5" font-family="Helvetica,sans-Serif" font-size="10.00">PeeledLaunches</text>
<polyline fill="none" stroke="black" points="0,-165.5 95,-165.5 "/>
<text text-anchor="middle" x="47.5" y="-153.5" font-family="Helvetica,sans-Serif" font-size="10.00"> </text>
<polyline fill="none" stroke="black" points="0,-146.5 95,-146.5 "/>
<text text-anchor="start" x="8" y="-134.5" font-family="Helvetica,sans-Serif" font-size="10.00">+ __init__()</text>
</a>
</g>
</g>
<!-- Node2&#45;&gt;Node3 -->
<g id="edge2" class="edge">
<title>Node2&#45;&gt;Node3</title>
<path fill="none" stroke="midnightblue" d="M1446.73,-368.61C1173.51,-363.06 342.32,-336.6 104.5,-218 89.32,-210.43 76.11,-197.04 66.24,-184.73"/>
<polygon fill="none" stroke="midnightblue" points="1446.92,-372.11 1456.99,-368.81 1447.06,-365.12 1446.92,-372.11"/>
</g>
<!-- Node4 -->
<g id="node4" class="node">
<title>Node4</title>
<g id="a_node4"><a xlink:href="classSignalIntegrity_1_1Lib_1_1ImpedanceProfile_1_1PeeledPortSParameters_1_1PeeledPortSParameters.xhtml" target="_top" xlink:title="s&#45;parameters of peeled impedance profile from port calculates the impedance profile looking into a po...">
<polygon fill="white" stroke="black" points="113,-127.5 113,-184.5 244,-184.5 244,-127.5 113,-127.5"/>
<text text-anchor="middle" x="178.5" y="-172.5" font-family="Helvetica,sans-Serif" font-size="10.00">PeeledPortSParameters</text>
<polyline fill="none" stroke="black" points="113,-165.5 244,-165.5 "/>
<text text-anchor="middle" x="178.5" y="-153.5" font-family="Helvetica,sans-Serif" font-size="10.00"> </text>
<polyline fill="none" stroke="black" points="113,-146.5 244,-146.5 "/>
<text text-anchor="start" x="121" y="-134.5" font-family="Helvetica,sans-Serif" font-size="10.00">+ __init__()</text>
</a>
</g>
</g>
<!-- Node2&#45;&gt;Node4 -->
<g id="edge3" class="edge">
<title>Node2&#45;&gt;Node4</title>
<path fill="none" stroke="midnightblue" d="M1446.58,-365.94C1193.93,-353.26 470.14,-309.71 253.5,-218 235.42,-210.34 218.2,-196.95 204.83,-184.65"/>
<polygon fill="none" stroke="midnightblue" points="1446.65,-369.44 1456.81,-366.45 1446.99,-362.45 1446.65,-369.44"/>
</g>
<!-- Node5 -->
<g id="node5" class="node">
<title>Node5</title>
<g id="a_node5"><a xlink:href="classSignalIntegrity_1_1Lib_1_1Measurement_1_1Calibration_1_1NetworkAnalyzer_1_1NetworkAnalyzer.xhtml" target="_top" xlink:title="produces calibrated or uncalibrated s&#45;parameters from a network analyzer.">
<polygon fill="white" stroke="black" points="262,-127.5 262,-184.5 363,-184.5 363,-127.5 262,-127.5"/>
<text text-anchor="middle" x="312.5" y="-172.5" font-family="Helvetica,sans-Serif" font-size="10.00">NetworkAnalyzer</text>
<polyline fill="none" stroke="black" points="262,-165.5 363,-165.5 "/>
<text text-anchor="middle" x="312.5" y="-153.5" font-family="Helvetica,sans-Serif" font-size="10.00"> </text>
<polyline fill="none" stroke="black" points="262,-146.5 363,-146.5 "/>
<text text-anchor="start" x="270" y="-134.5" font-family="Helvetica,sans-Serif" font-size="10.00">+ __init__()</text>
</a>
</g>
</g>
<!-- Node2&#45;&gt;Node5 -->
<g id="edge4" class="edge">
<title>Node2&#45;&gt;Node5</title>
<path fill="none" stroke="midnightblue" d="M1446.51,-365.88C1209.3,-353.62 561.73,-312.19 372.5,-218 356.94,-210.26 343.07,-196.85 332.6,-184.57"/>
<polygon fill="none" stroke="midnightblue" points="1446.65,-369.39 1456.82,-366.41 1447.01,-362.4 1446.65,-369.39"/>
</g>
<!-- Node6 -->
<g id="node6" class="node">
<title>Node6</title>
<g id="a_node6"><a xlink:href="classSignalIntegrity_1_1Lib_1_1Measurement_1_1CalKit_1_1Standards_1_1LoadStandard_1_1LoadStandard.xhtml" target="_top" xlink:title="Class providing the s&#45;parameters of a load standard as commonly defined for a calibration kit.">
<polygon fill="white" stroke="black" points="381,-127.5 381,-184.5 464,-184.5 464,-127.5 381,-127.5"/>
<text text-anchor="middle" x="422.5" y="-172.5" font-family="Helvetica,sans-Serif" font-size="10.00">LoadStandard</text>
<polyline fill="none" stroke="black" points="381,-165.5 464,-165.5 "/>
<text text-anchor="middle" x="422.5" y="-153.5" font-family="Helvetica,sans-Serif" font-size="10.00"> </text>
<polyline fill="none" stroke="black" points="381,-146.5 464,-146.5 "/>
<text text-anchor="start" x="389" y="-134.5" font-family="Helvetica,sans-Serif" font-size="10.00">+ __init__()</text>
</a>
</g>
</g>
<!-- Node2&#45;&gt;Node6 -->
<g id="edge5" class="edge">
<title>Node2&#45;&gt;Node6</title>
<path fill="none" stroke="midnightblue" d="M1446.72,-365.47C1223.6,-352.7 640.59,-311.11 473.5,-218 459.51,-210.21 447.73,-196.95 439.03,-184.78"/>
<polygon fill="none" stroke="midnightblue" points="1446.57,-368.97 1456.75,-366.04 1446.96,-361.98 1446.57,-368.97"/>
</g>
<!-- Node7 -->
<g id="node7" class="node">
<title>Node7</title>
<g id="a_node7"><a xlink:href="classSignalIntegrity_1_1Lib_1_1Measurement_1_1CalKit_1_1Standards_1_1Offset_1_1Offset.xhtml" target="_top" xlink:title="class providing the s&#45;parameters of an offset portion of the various calibration standards for a cali...">
<polygon fill="white" stroke="black" points="482.5,-127.5 482.5,-184.5 554.5,-184.5 554.5,-127.5 482.5,-127.5"/>
<text text-anchor="middle" x="518.5" y="-172.5" font-family="Helvetica,sans-Serif" font-size="10.00">Offset</text>
<polyline fill="none" stroke="black" points="482.5,-165.5 554.5,-165.5 "/>
<text text-anchor="start" x="490.5" y="-153.5" font-family="Helvetica,sans-Serif" font-size="10.00">+ calcZc</text>
<polyline fill="none" stroke="black" points="482.5,-146.5 554.5,-146.5 "/>
<text text-anchor="start" x="490.5" y="-134.5" font-family="Helvetica,sans-Serif" font-size="10.00">+ __init__()</text>
</a>
</g>
</g>
<!-- Node2&#45;&gt;Node7 -->
<g id="edge6" class="edge">
<title>Node2&#45;&gt;Node7</title>
<path fill="none" stroke="midnightblue" d="M1446.83,-364.76C1236.9,-350.89 711.79,-307.95 563.5,-218 550.45,-210.08 539.98,-196.82 532.44,-184.67"/>
<polygon fill="none" stroke="midnightblue" points="1446.68,-368.26 1456.89,-365.42 1447.14,-361.28 1446.68,-368.26"/>
</g>
<!-- Node9 -->
<g id="node9" class="node">
<title>Node9</title>
<g id="a_node9"><a xlink:href="classSignalIntegrity_1_1Lib_1_1Measurement_1_1CalKit_1_1Standards_1_1OpenStandard_1_1OpenStandard.xhtml" target="_top" xlink:title="class providing the s&#45;parameters of an open standard as commonly defined for a calibration kit.">
<polygon fill="white" stroke="black" points="572.5,-127.5 572.5,-184.5 658.5,-184.5 658.5,-127.5 572.5,-127.5"/>
<text text-anchor="middle" x="615.5" y="-172.5" font-family="Helvetica,sans-Serif" font-size="10.00">OpenStandard</text>
<polyline fill="none" stroke="black" points="572.5,-165.5 658.5,-165.5 "/>
<text text-anchor="middle" x="615.5" y="-153.5" font-family="Helvetica,sans-Serif" font-size="10.00"> </text>
<polyline fill="none" stroke="black" points="572.5,-146.5 658.5,-146.5 "/>
<text text-anchor="start" x="580.5" y="-134.5" font-family="Helvetica,sans-Serif" font-size="10.00">+ __init__()</text>
</a>
</g>
</g>
<!-- Node2&#45;&gt;Node9 -->
<g id="edge8" class="edge">
<title>Node2&#45;&gt;Node9</title>
<path fill="none" stroke="midnightblue" d="M1446.66,-362.19C1253.81,-343.85 800.04,-293.75 667.5,-218 653.48,-209.99 641.49,-196.71 632.57,-184.59"/>
<polygon fill="none" stroke="midnightblue" points="1446.47,-365.69 1456.75,-363.15 1447.13,-358.72 1446.47,-365.69"/>
</g>
<!-- Node10 -->
<g id="node10" class="node">
<title>Node10</title>
<g id="a_node10"><a xlink:href="classSignalIntegrity_1_1Lib_1_1Measurement_1_1CalKit_1_1Standards_1_1ShortStandard_1_1ShortStandard.xhtml" target="_top" xlink:title="Class providing the s&#45;parameters of a short standard as commonly defined for a calibration kit.">
<polygon fill="white" stroke="black" points="676.5,-127.5 676.5,-184.5 762.5,-184.5 762.5,-127.5 676.5,-127.5"/>
<text text-anchor="middle" x="719.5" y="-172.5" font-family="Helvetica,sans-Serif" font-size="10.00">ShortStandard</text>
<polyline fill="none" stroke="black" points="676.5,-165.5 762.5,-165.5 "/>
<text text-anchor="middle" x="719.5" y="-153.5" font-family="Helvetica,sans-Serif" font-size="10.00"> </text>
<polyline fill="none" stroke="black" points="676.5,-146.5 762.5,-146.5 "/>
<text text-anchor="start" x="684.5" y="-134.5" font-family="Helvetica,sans-Serif" font-size="10.00">+ __init__()</text>
</a>
</g>
</g>
<!-- Node2&#45;&gt;Node10 -->
<g id="edge9" class="edge">
<title>Node2&#45;&gt;Node10</title>
<path fill="none" stroke="midnightblue" d="M1446.92,-370.71C1297.9,-368.16 989.99,-346.24 771.5,-218 757.7,-209.9 745.8,-196.77 736.89,-184.76"/>
<polygon fill="none" stroke="midnightblue" points="1446.88,-374.21 1456.93,-370.86 1446.99,-367.21 1446.88,-374.21"/>
</g>
<!-- Node11 -->
<g id="node11" class="node">
<title>Node11</title>
<g id="a_node11"><a xlink:href="classSignalIntegrity_1_1Lib_1_1Measurement_1_1CalKit_1_1Standards_1_1TerminationPolynomial_1_1TerminationCPolynomial.xhtml" target="_top" xlink:title="Class for capacitive terminations for open calibration standards.">
<polygon fill="white" stroke="black" points="780.5,-116.5 780.5,-195.5 916.5,-195.5 916.5,-116.5 780.5,-116.5"/>
<text text-anchor="middle" x="848.5" y="-183.5" font-family="Helvetica,sans-Serif" font-size="10.00">TerminationCPolynomial</text>
<polyline fill="none" stroke="black" points="780.5,-176.5 916.5,-176.5 "/>
<text text-anchor="middle" x="848.5" y="-164.5" font-family="Helvetica,sans-Serif" font-size="10.00"> </text>
<polyline fill="none" stroke="black" points="780.5,-157.5 916.5,-157.5 "/>
<text text-anchor="start" x="788.5" y="-145.5" font-family="Helvetica,sans-Serif" font-size="10.00">+ __init__()</text>
<text text-anchor="start" x="788.5" y="-134.5" font-family="Helvetica,sans-Serif" font-size="10.00">+ PolynomialC()</text>
<text text-anchor="start" x="788.5" y="-123.5" font-family="Helvetica,sans-Serif" font-size="10.00">+ __getitem__()</text>
</a>
</g>
</g>
<!-- Node2&#45;&gt;Node11 -->
<g id="edge10" class="edge">
<title>Node2&#45;&gt;Node11</title>
<path fill="none" stroke="midnightblue" d="M1446.81,-359.98C1324.74,-343.45 1099.06,-303.4 925.5,-218 913.41,-212.05 901.45,-203.97 890.69,-195.63"/>
<polygon fill="none" stroke="midnightblue" points="1446.48,-363.47 1456.85,-361.32 1447.4,-356.53 1446.48,-363.47"/>
</g>
<!-- Node12 -->
<g id="node12" class="node">
<title>Node12</title>
<g id="a_node12"><a xlink:href="classSignalIntegrity_1_1Lib_1_1Measurement_1_1CalKit_1_1Standards_1_1TerminationPolynomial_1_1TerminationLPolynomial.xhtml" target="_top" xlink:title="Class for inductive terminations for short calibration standards.">
<polygon fill="white" stroke="black" points="934.5,-116.5 934.5,-195.5 1068.5,-195.5 1068.5,-116.5 934.5,-116.5"/>
<text text-anchor="middle" x="1001.5" y="-183.5" font-family="Helvetica,sans-Serif" font-size="10.00">TerminationLPolynomial</text>
<polyline fill="none" stroke="black" points="934.5,-176.5 1068.5,-176.5 "/>
<text text-anchor="middle" x="1001.5" y="-164.5" font-family="Helvetica,sans-Serif" font-size="10.00"> </text>
<polyline fill="none" stroke="black" points="934.5,-157.5 1068.5,-157.5 "/>
<text text-anchor="start" x="942.5" y="-145.5" font-family="Helvetica,sans-Serif" font-size="10.00">+ __init__()</text>
<text text-anchor="start" x="942.5" y="-134.5" font-family="Helvetica,sans-Serif" font-size="10.00">+ PolynomialL()</text>
<text text-anchor="start" x="942.5" y="-123.5" font-family="Helvetica,sans-Serif" font-size="10.00">+ __getitem__()</text>
</a>
</g>
</g>
<!-- Node2&#45;&gt;Node12 -->
<g id="edge11" class="edge">
<title>Node2&#45;&gt;Node12</title>
<path fill="none" stroke="midnightblue" d="M1446.84,-350.71C1351.96,-327.62 1198.06,-283.66 1077.5,-218 1066.06,-211.77 1054.63,-203.77 1044.23,-195.62"/>
<polygon fill="none" stroke="midnightblue" points="1446.15,-354.14 1456.69,-353.08 1447.79,-347.34 1446.15,-354.14"/>
</g>
<!-- Node13 -->
<g id="node13" class="node">
<title>Node13</title>
<g id="a_node13"><a xlink:href="classSignalIntegrity_1_1Lib_1_1SParameters_1_1Devices_1_1MixedModeTline_1_1MixedModeTLine.xhtml" target="_top" xlink:title="s&#45;parameters of a mixed&#45;mode, balanced transmission line">
<polygon fill="white" stroke="black" points="1086.5,-116.5 1086.5,-195.5 1186.5,-195.5 1186.5,-116.5 1086.5,-116.5"/>
<text text-anchor="middle" x="1136.5" y="-183.5" font-family="Helvetica,sans-Serif" font-size="10.00">MixedModeTLine</text>
<polyline fill="none" stroke="black" points="1086.5,-176.5 1186.5,-176.5 "/>
<text text-anchor="start" x="1094.5" y="-164.5" font-family="Helvetica,sans-Serif" font-size="10.00">+ m_sspn</text>
<text text-anchor="start" x="1094.5" y="-153.5" font-family="Helvetica,sans-Serif" font-size="10.00">+ m_spdl</text>
<polyline fill="none" stroke="black" points="1086.5,-146.5 1186.5,-146.5 "/>
<text text-anchor="start" x="1094.5" y="-134.5" font-family="Helvetica,sans-Serif" font-size="10.00">+ __init__()</text>
<text text-anchor="start" x="1094.5" y="-123.5" font-family="Helvetica,sans-Serif" font-size="10.00">+ __getitem__()</text>
</a>
</g>
</g>
<!-- Node2&#45;&gt;Node13 -->
<g id="edge12" class="edge">
<title>Node2&#45;&gt;Node13</title>
<path fill="none" stroke="midnightblue" d="M1446.91,-340.86C1375.79,-314.87 1274.8,-272.51 1196.5,-218 1187.36,-211.63 1178.42,-203.76 1170.36,-195.81"/>
<polygon fill="none" stroke="midnightblue" points="1446.15,-344.31 1456.75,-344.42 1448.53,-337.73 1446.15,-344.31"/>
</g>
<!-- Node14 -->
<g id="node14" class="node">
<title>Node14</title>
<g id="a_node14"><a xlink:href="classSignalIntegrity_1_1Lib_1_1SParameters_1_1Devices_1_1Mutual_1_1Mutual.xhtml" target="_top" xlink:title="s&#45;parameters of a mutual inductance">
<polygon fill="white" stroke="black" points="1205,-122 1205,-190 1300,-190 1300,-122 1205,-122"/>
<text text-anchor="middle" x="1252.5" y="-178" font-family="Helvetica,sans-Serif" font-size="10.00">Mutual</text>
<polyline fill="none" stroke="black" points="1205,-171 1300,-171 "/>
<text text-anchor="start" x="1213" y="-159" font-family="Helvetica,sans-Serif" font-size="10.00">+ m_M</text>
<polyline fill="none" stroke="black" points="1205,-152 1300,-152 "/>
<text text-anchor="start" x="1213" y="-140" font-family="Helvetica,sans-Serif" font-size="10.00">+ __init__()</text>
<text text-anchor="start" x="1213" y="-129" font-family="Helvetica,sans-Serif" font-size="10.00">+ __getitem__()</text>
</a>
</g>
</g>
<!-- Node2&#45;&gt;Node14 -->
<g id="edge13" class="edge">
<title>Node2&#45;&gt;Node14</title>
<path fill="none" stroke="midnightblue" d="M1448.4,-318.31C1405.06,-290.71 1352.69,-254.88 1309.5,-218 1299.69,-209.62 1289.81,-199.7 1281.1,-190.31"/>
<polygon fill="none" stroke="midnightblue" points="1446.62,-321.32 1456.94,-323.72 1450.36,-315.41 1446.62,-321.32"/>
</g>
<!-- Node15 -->
<g id="node15" class="node">
<title>Node15</title>
<g id="a_node15"><a xlink:href="classSignalIntegrity_1_1Lib_1_1SParameters_1_1Devices_1_1SeriesC_1_1SeriesC.xhtml" target="_top" xlink:title="s&#45;parameters of a series capacitance">
<polygon fill="white" stroke="black" points="1318,-111 1318,-201 1413,-201 1413,-111 1318,-111"/>
<text text-anchor="middle" x="1365.5" y="-189" font-family="Helvetica,sans-Serif" font-size="10.00">SeriesC</text>
<polyline fill="none" stroke="black" points="1318,-182 1413,-182 "/>
<text text-anchor="start" x="1326" y="-170" font-family="Helvetica,sans-Serif" font-size="10.00">+ m_C</text>
<text text-anchor="start" x="1326" y="-159" font-family="Helvetica,sans-Serif" font-size="10.00">+ m_df</text>
<text text-anchor="start" x="1326" y="-148" font-family="Helvetica,sans-Serif" font-size="10.00">+ m_esr</text>
<polyline fill="none" stroke="black" points="1318,-141 1413,-141 "/>
<text text-anchor="start" x="1326" y="-129" font-family="Helvetica,sans-Serif" font-size="10.00">+ __init__()</text>
<text text-anchor="start" x="1326" y="-118" font-family="Helvetica,sans-Serif" font-size="10.00">+ __getitem__()</text>
</a>
</g>
</g>
<!-- Node2&#45;&gt;Node15 -->
<g id="edge14" class="edge">
<title>Node2&#45;&gt;Node15</title>
<path fill="none" stroke="midnightblue" d="M1450.65,-264.32C1432.9,-241.95 1415.11,-219.53 1400.42,-201.01"/>
<polygon fill="none" stroke="midnightblue" points="1447.97,-266.57 1456.92,-272.23 1453.45,-262.22 1447.97,-266.57"/>
</g>
<!-- Node16 -->
<g id="node16" class="node">
<title>Node16</title>
<g id="a_node16"><a xlink:href="classSignalIntegrity_1_1Lib_1_1SParameters_1_1Devices_1_1SeriesL_1_1SeriesL.xhtml" target="_top" xlink:title="s&#45;parameters of a series inductance">
<polygon fill="white" stroke="black" points="1431,-122 1431,-190 1526,-190 1526,-122 1431,-122"/>
<text text-anchor="middle" x="1478.5" y="-178" font-family="Helvetica,sans-Serif" font-size="10.00">SeriesL</text>
<polyline fill="none" stroke="black" points="1431,-171 1526,-171 "/>
<text text-anchor="start" x="1439" y="-159" font-family="Helvetica,sans-Serif" font-size="10.00">+ m_L</text>
<polyline fill="none" stroke="black" points="1431,-152 1526,-152 "/>
<text text-anchor="start" x="1439" y="-140" font-family="Helvetica,sans-Serif" font-size="10.00">+ __init__()</text>
<text text-anchor="start" x="1439" y="-129" font-family="Helvetica,sans-Serif" font-size="10.00">+ __getitem__()</text>
</a>
</g>
</g>
<!-- Node2&#45;&gt;Node16 -->
<g id="edge15" class="edge">
<title>Node2&#45;&gt;Node16</title>
<path fill="none" stroke="midnightblue" d="M1501.53,-244.61C1496.29,-224.66 1491.28,-205.62 1487.29,-190.42"/>
<polygon fill="none" stroke="midnightblue" points="1498.2,-245.68 1504.12,-254.46 1504.97,-243.9 1498.2,-245.68"/>
</g>
<!-- Node17 -->
<g id="node17" class="node">
<title>Node17</title>
<g id="a_node17"><a xlink:href="classSignalIntegrity_1_1Lib_1_1SParameters_1_1Devices_1_1SeriesRse_1_1SeriesRse.xhtml" target="_top" xlink:title="s&#45;parameters of series skin&#45;effect Resistance">
<polygon fill="white" stroke="black" points="1544,-122 1544,-190 1639,-190 1639,-122 1544,-122"/>
<text text-anchor="middle" x="1591.5" y="-178" font-family="Helvetica,sans-Serif" font-size="10.00">SeriesRse</text>
<polyline fill="none" stroke="black" points="1544,-171 1639,-171 "/>
<text text-anchor="start" x="1552" y="-159" font-family="Helvetica,sans-Serif" font-size="10.00">+ m_Rse</text>
<polyline fill="none" stroke="black" points="1544,-152 1639,-152 "/>
<text text-anchor="start" x="1552" y="-140" font-family="Helvetica,sans-Serif" font-size="10.00">+ __init__()</text>
<text text-anchor="start" x="1552" y="-129" font-family="Helvetica,sans-Serif" font-size="10.00">+ __getitem__()</text>
</a>
</g>
</g>
<!-- Node2&#45;&gt;Node17 -->
<g id="edge16" class="edge">
<title>Node2&#45;&gt;Node17</title>
<path fill="none" stroke="midnightblue" d="M1568.06,-244.61C1573.39,-224.66 1578.49,-205.62 1582.56,-190.42"/>
<polygon fill="none" stroke="midnightblue" points="1564.62,-243.9 1565.42,-254.46 1571.38,-245.71 1564.62,-243.9"/>
</g>
<!-- Node18 -->
<g id="node18" class="node">
<title>Node18</title>
<g id="a_node18"><a xlink:href="classSignalIntegrity_1_1Lib_1_1SParameters_1_1Devices_1_1TerminationC_1_1TerminationC.xhtml" target="_top" xlink:title="s&#45;parameters of a termination (one&#45;port) capacitance">
<polygon fill="white" stroke="black" points="1657,-111 1657,-201 1752,-201 1752,-111 1657,-111"/>
<text text-anchor="middle" x="1704.5" y="-189" font-family="Helvetica,sans-Serif" font-size="10.00">TerminationC</text>
<polyline fill="none" stroke="black" points="1657,-182 1752,-182 "/>
<text text-anchor="start" x="1665" y="-170" font-family="Helvetica,sans-Serif" font-size="10.00">+ m_C</text>
<text text-anchor="start" x="1665" y="-159" font-family="Helvetica,sans-Serif" font-size="10.00">+ m_df</text>
<text text-anchor="start" x="1665" y="-148" font-family="Helvetica,sans-Serif" font-size="10.00">+ m_esr</text>
<polyline fill="none" stroke="black" points="1657,-141 1752,-141 "/>
<text text-anchor="start" x="1665" y="-129" font-family="Helvetica,sans-Serif" font-size="10.00">+ __init__()</text>
<text text-anchor="start" x="1665" y="-118" font-family="Helvetica,sans-Serif" font-size="10.00">+ __getitem__()</text>
</a>
</g>
</g>
<!-- Node2&#45;&gt;Node18 -->
<g id="edge17" class="edge">
<title>Node2&#45;&gt;Node18</title>
<path fill="none" stroke="midnightblue" d="M1618.4,-264.88C1636.4,-242.33 1654.46,-219.7 1669.36,-201.03"/>
<polygon fill="none" stroke="midnightblue" points="1615.54,-262.85 1612.04,-272.85 1621.01,-267.22 1615.54,-262.85"/>
</g>
<!-- Node19 -->
<g id="node19" class="node">
<title>Node19</title>
<g id="a_node19"><a xlink:href="classSignalIntegrity_1_1Lib_1_1SParameters_1_1Devices_1_1TerminationL_1_1TerminationL.xhtml" target="_top" xlink:title="s&#45;parameters of a termination (one&#45;port) inductance">
<polygon fill="white" stroke="black" points="1770,-122 1770,-190 1865,-190 1865,-122 1770,-122"/>
<text text-anchor="middle" x="1817.5" y="-178" font-family="Helvetica,sans-Serif" font-size="10.00">TerminationL</text>
<polyline fill="none" stroke="black" points="1770,-171 1865,-171 "/>
<text text-anchor="start" x="1778" y="-159" font-family="Helvetica,sans-Serif" font-size="10.00">+ m_L</text>
<polyline fill="none" stroke="black" points="1770,-152 1865,-152 "/>
<text text-anchor="start" x="1778" y="-140" font-family="Helvetica,sans-Serif" font-size="10.00">+ __init__()</text>
<text text-anchor="start" x="1778" y="-129" font-family="Helvetica,sans-Serif" font-size="10.00">+ __getitem__()</text>
</a>
</g>
</g>
<!-- Node2&#45;&gt;Node19 -->
<g id="edge18" class="edge">
<title>Node2&#45;&gt;Node19</title>
<path fill="none" stroke="midnightblue" d="M1620.78,-319.06C1664.7,-291.47 1717.88,-255.42 1761.5,-218 1771.32,-209.58 1781.16,-199.53 1789.78,-190.06"/>
<polygon fill="none" stroke="midnightblue" points="1618.75,-316.2 1612.12,-324.47 1622.46,-322.14 1618.75,-316.2"/>
</g>
<!-- Node20 -->
<g id="node20" class="node">
<title>Node20</title>
<g id="a_node20"><a xlink:href="classSignalIntegrity_1_1Lib_1_1SParameters_1_1Devices_1_1TLineDifferentialRLGC_1_1TLineDifferentialRLGC.xhtml" target="_top" xlink:title="s&#45;parameters of differential RLGC (telegrapher&#39;s) transmission line">
<polygon fill="white" stroke="black" points="1883,-116.5 1883,-195.5 2008,-195.5 2008,-116.5 1883,-116.5"/>
<text text-anchor="middle" x="1945.5" y="-183.5" font-family="Helvetica,sans-Serif" font-size="10.00">TLineDifferentialRLGC</text>
<polyline fill="none" stroke="black" points="1883,-176.5 2008,-176.5 "/>
<text text-anchor="start" x="1891" y="-164.5" font-family="Helvetica,sans-Serif" font-size="10.00">+ sp</text>
<text text-anchor="start" x="1891" y="-153.5" font-family="Helvetica,sans-Serif" font-size="10.00">+ rtFraction</text>
<polyline fill="none" stroke="black" points="1883,-146.5 2008,-146.5 "/>
<text text-anchor="start" x="1891" y="-134.5" font-family="Helvetica,sans-Serif" font-size="10.00">+ __init__()</text>
<text text-anchor="start" x="1891" y="-123.5" font-family="Helvetica,sans-Serif" font-size="10.00">+ __getitem__()</text>
</a>
</g>
</g>
<!-- Node2&#45;&gt;Node20 -->
<g id="edge19" class="edge">
<title>Node2&#45;&gt;Node20</title>
<path fill="none" stroke="midnightblue" d="M1621.69,-339.08C1692.54,-312.1 1793.63,-269.28 1874.5,-218 1884.79,-211.47 1895.15,-203.54 1904.65,-195.57"/>
<polygon fill="none" stroke="midnightblue" points="1620.44,-335.81 1612.33,-342.62 1622.92,-342.36 1620.44,-335.81"/>
</g>
<!-- Node21 -->
<g id="node21" class="node">
<title>Node21</title>
<g id="a_node21"><a xlink:href="classSignalIntegrity_1_1Lib_1_1SParameters_1_1Devices_1_1TLineDifferentialRLGCApproximate_1_1TLineDifferentialRLGCApproximate.xhtml" target="_top" xlink:title="s&#45;parameters of differential RLGC (telegrapher&#39;s) transmission line calculated by approximating distr...">
<polygon fill="white" stroke="black" points="2026.5,-105.5 2026.5,-206.5 2214.5,-206.5 2214.5,-105.5 2026.5,-105.5"/>
<text text-anchor="middle" x="2120.5" y="-194.5" font-family="Helvetica,sans-Serif" font-size="10.00">TLineDifferentialRLGCApproximate</text>
<polyline fill="none" stroke="black" points="2026.5,-187.5 2214.5,-187.5 "/>
<text text-anchor="start" x="2034.5" y="-175.5" font-family="Helvetica,sans-Serif" font-size="10.00">+ m_K</text>
<text text-anchor="start" x="2034.5" y="-164.5" font-family="Helvetica,sans-Serif" font-size="10.00">+ m_sspn</text>
<text text-anchor="start" x="2034.5" y="-153.5" font-family="Helvetica,sans-Serif" font-size="10.00">+ m_spdl</text>
<text text-anchor="start" x="2034.5" y="-142.5" font-family="Helvetica,sans-Serif" font-size="10.00">+ rtFraction</text>
<polyline fill="none" stroke="black" points="2026.5,-135.5 2214.5,-135.5 "/>
<text text-anchor="start" x="2034.5" y="-123.5" font-family="Helvetica,sans-Serif" font-size="10.00">+ __init__()</text>
<text text-anchor="start" x="2034.5" y="-112.5" font-family="Helvetica,sans-Serif" font-size="10.00">+ __getitem__()</text>
</a>
</g>
</g>
<!-- Node2&#45;&gt;Node21 -->
<g id="edge20" class="edge">
<title>Node2&#45;&gt;Node21</title>
<path fill="none" stroke="midnightblue" d="M1622.12,-348.92C1720.62,-323.76 1884.2,-277.49 2017.5,-218 2025.19,-214.57 2033.02,-210.7 2040.76,-206.61"/>
<polygon fill="none" stroke="midnightblue" points="1621.04,-345.59 1612.21,-351.44 1622.76,-352.37 1621.04,-345.59"/>
</g>
<!-- Node22 -->
<g id="node22" class="node">
<title>Node22</title>
<g id="a_node22"><a xlink:href="classSignalIntegrity_1_1Lib_1_1SParameters_1_1Devices_1_1TLineDifferentialRLGCBalanced_1_1TLineDifferentialRLGCBalanced.xhtml" target="_top" xlink:title="s&#45;parameters of analytic balanced differential RLGC (telegrapher&#39;s) transmission line.">
<polygon fill="white" stroke="black" points="2232.5,-116.5 2232.5,-195.5 2402.5,-195.5 2402.5,-116.5 2232.5,-116.5"/>
<text text-anchor="middle" x="2317.5" y="-183.5" font-family="Helvetica,sans-Serif" font-size="10.00">TLineDifferentialRLGCBalanced</text>
<polyline fill="none" stroke="black" points="2232.5,-176.5 2402.5,-176.5 "/>
<text text-anchor="start" x="2240.5" y="-164.5" font-family="Helvetica,sans-Serif" font-size="10.00">+ m_sspn</text>
<text text-anchor="start" x="2240.5" y="-153.5" font-family="Helvetica,sans-Serif" font-size="10.00">+ m_spdl</text>
<polyline fill="none" stroke="black" points="2232.5,-146.5 2402.5,-146.5 "/>
<text text-anchor="start" x="2240.5" y="-134.5" font-family="Helvetica,sans-Serif" font-size="10.00">+ __init__()</text>
<text text-anchor="start" x="2240.5" y="-123.5" font-family="Helvetica,sans-Serif" font-size="10.00">+ __getitem__()</text>
</a>
</g>
</g>
<!-- Node2&#45;&gt;Node22 -->
<g id="edge21" class="edge">
<title>Node2&#45;&gt;Node22</title>
<path fill="none" stroke="midnightblue" d="M1622.36,-360.82C1756.34,-344.59 2017.84,-304.08 2223.5,-218 2237.68,-212.07 2252.06,-203.99 2265.16,-195.65"/>
<polygon fill="none" stroke="midnightblue" points="1621.67,-357.38 1612.15,-362.04 1622.5,-364.33 1621.67,-357.38"/>
</g>
<!-- Node23 -->
<g id="node23" class="node">
<title>Node23</title>
<g id="a_node23"><a xlink:href="classSignalIntegrity_1_1Lib_1_1SParameters_1_1Devices_1_1TLineDifferentialRLGCUncoupled_1_1TLineDifferentialRLGCUncoupled.xhtml" target="_top" xlink:title="s&#45;parameters of analytic uncoupled differential RLGC (telegrapher&#39;s) transmission line.">
<polygon fill="white" stroke="black" points="2420.5,-116.5 2420.5,-195.5 2596.5,-195.5 2596.5,-116.5 2420.5,-116.5"/>
<text text-anchor="middle" x="2508.5" y="-183.5" font-family="Helvetica,sans-Serif" font-size="10.00">TLineDifferentialRLGCUncoupled</text>
<polyline fill="none" stroke="black" points="2420.5,-176.5 2596.5,-176.5 "/>
<text text-anchor="start" x="2428.5" y="-164.5" font-family="Helvetica,sans-Serif" font-size="10.00">+ m_sspn</text>
<text text-anchor="start" x="2428.5" y="-153.5" font-family="Helvetica,sans-Serif" font-size="10.00">+ m_spdl</text>
<polyline fill="none" stroke="black" points="2420.5,-146.5 2596.5,-146.5 "/>
<text text-anchor="start" x="2428.5" y="-134.5" font-family="Helvetica,sans-Serif" font-size="10.00">+ __init__()</text>
<text text-anchor="start" x="2428.5" y="-123.5" font-family="Helvetica,sans-Serif" font-size="10.00">+ __getitem__()</text>
</a>
</g>
</g>
<!-- Node2&#45;&gt;Node23 -->
<g id="edge22" class="edge">
<title>Node2&#45;&gt;Node23</title>
<path fill="none" stroke="midnightblue" d="M1622.59,-366C1784.09,-356.26 2136.23,-323.66 2411.5,-218 2426.45,-212.26 2441.59,-204.1 2455.32,-195.61"/>
<polygon fill="none" stroke="midnightblue" points="1622.01,-362.53 1612.24,-366.61 1622.42,-369.52 1622.01,-362.53"/>
</g>
<!-- Node24 -->
<g id="node24" class="node">
<title>Node24</title>
<g id="a_node24"><a xlink:href="classSignalIntegrity_1_1Lib_1_1SParameters_1_1Devices_1_1TLineLossless_1_1TLineLossless.xhtml" target="_top" xlink:title="s&#45;parameters of ideal lossless single&#45;ended transmission line">
<polygon fill="white" stroke="black" points="2615,-111 2615,-201 2710,-201 2710,-111 2615,-111"/>
<text text-anchor="middle" x="2662.5" y="-189" font-family="Helvetica,sans-Serif" font-size="10.00">TLineLossless</text>
<polyline fill="none" stroke="black" points="2615,-182 2710,-182 "/>
<text text-anchor="start" x="2623" y="-170" font-family="Helvetica,sans-Serif" font-size="10.00">+ m_Zc</text>
<text text-anchor="start" x="2623" y="-159" font-family="Helvetica,sans-Serif" font-size="10.00">+ m_Td</text>
<text text-anchor="start" x="2623" y="-148" font-family="Helvetica,sans-Serif" font-size="10.00">+ m_P</text>
<polyline fill="none" stroke="black" points="2615,-141 2710,-141 "/>
<text text-anchor="start" x="2623" y="-129" font-family="Helvetica,sans-Serif" font-size="10.00">+ __init__()</text>
<text text-anchor="start" x="2623" y="-118" font-family="Helvetica,sans-Serif" font-size="10.00">+ __getitem__()</text>
</a>
</g>
</g>
<!-- Node2&#45;&gt;Node24 -->
<g id="edge23" class="edge">
<title>Node2&#45;&gt;Node24</title>
<path fill="none" stroke="midnightblue" d="M1622.41,-365.04C1846.63,-351.2 2434.17,-307.22 2605.5,-218 2613.73,-213.72 2621.4,-207.76 2628.29,-201.24"/>
<polygon fill="none" stroke="midnightblue" points="1622.1,-361.55 1612.33,-365.65 1622.53,-368.54 1622.1,-361.55"/>
</g>
<!-- Node25 -->
<g id="node25" class="node">
<title>Node25</title>
<g id="a_node25"><a xlink:href="classSignalIntegrity_1_1Lib_1_1SParameters_1_1Devices_1_1TLineTwoPortRLGC_1_1TLineTwoPortRLGC.xhtml" target="_top" xlink:title="s&#45;parameters of single&#45;ended RLGC (telegraphers) transmission line">
<polygon fill="white" stroke="black" points="2728,-122 2728,-190 2835,-190 2835,-122 2728,-122"/>
<text text-anchor="middle" x="2781.5" y="-178" font-family="Helvetica,sans-Serif" font-size="10.00">TLineTwoPortRLGC</text>
<polyline fill="none" stroke="black" points="2728,-171 2835,-171 "/>
<text text-anchor="start" x="2736" y="-159" font-family="Helvetica,sans-Serif" font-size="10.00">+ sp</text>
<polyline fill="none" stroke="black" points="2728,-152 2835,-152 "/>
<text text-anchor="start" x="2736" y="-140" font-family="Helvetica,sans-Serif" font-size="10.00">+ __init__()</text>
<text text-anchor="start" x="2736" y="-129" font-family="Helvetica,sans-Serif" font-size="10.00">+ __getitem__()</text>
</a>
</g>
</g>
<!-- Node2&#45;&gt;Node25 -->
<g id="edge24" class="edge">
<title>Node2&#45;&gt;Node25</title>
<path fill="none" stroke="midnightblue" d="M1622.5,-365.96C1862.82,-353.81 2525.25,-312.41 2719.5,-218 2732.95,-211.47 2745.26,-200.86 2755.32,-190.31"/>
<polygon fill="none" stroke="midnightblue" points="1622.22,-362.47 1612.41,-366.47 1622.57,-369.46 1622.22,-362.47"/>
</g>
<!-- Node26 -->
<g id="node26" class="node">
<title>Node26</title>
<g id="a_node26"><a xlink:href="classSignalIntegrity_1_1Lib_1_1SParameters_1_1Devices_1_1TLineTwoPortRLGCAnalytic_1_1TLineTwoPortRLGCAnalytic.xhtml" target="_top" xlink:title="s&#45;parameters of analytic single&#45;ended telegraphers transmission line">
<polygon fill="white" stroke="black" points="2853,-94.5 2853,-217.5 3000,-217.5 3000,-94.5 2853,-94.5"/>
<text text-anchor="middle" x="2926.5" y="-205.5" font-family="Helvetica,sans-Serif" font-size="10.00">TLineTwoPortRLGCAnalytic</text>
<polyline fill="none" stroke="black" points="2853,-198.5 3000,-198.5 "/>
<text text-anchor="start" x="2861" y="-186.5" font-family="Helvetica,sans-Serif" font-size="10.00">+ R</text>
<text text-anchor="start" x="2861" y="-175.5" font-family="Helvetica,sans-Serif" font-size="10.00">+ Rse</text>
<text text-anchor="start" x="2861" y="-164.5" font-family="Helvetica,sans-Serif" font-size="10.00">+ L</text>
<text text-anchor="start" x="2861" y="-153.5" font-family="Helvetica,sans-Serif" font-size="10.00">+ G</text>
<text text-anchor="start" x="2861" y="-142.5" font-family="Helvetica,sans-Serif" font-size="10.00">+ C</text>
<text text-anchor="start" x="2861" y="-131.5" font-family="Helvetica,sans-Serif" font-size="10.00">+ df</text>
<polyline fill="none" stroke="black" points="2853,-124.5 3000,-124.5 "/>
<text text-anchor="start" x="2861" y="-112.5" font-family="Helvetica,sans-Serif" font-size="10.00">+ __init__()</text>
<text text-anchor="start" x="2861" y="-101.5" font-family="Helvetica,sans-Serif" font-size="10.00">+ __getitem__()</text>
</a>
</g>
</g>
<!-- Node2&#45;&gt;Node26 -->
<g id="edge25" class="edge">
<title>Node2&#45;&gt;Node26</title>
<path fill="none" stroke="midnightblue" d="M1622.03,-365.76C1877.85,-352.43 2620.3,-306.91 2844.5,-218 2847.3,-216.89 2850.1,-215.65 2852.87,-214.32"/>
<polygon fill="none" stroke="midnightblue" points="1621.85,-362.26 1612.04,-366.27 1622.21,-369.25 1621.85,-362.26"/>
</g>
<!-- Node27 -->
<g id="node27" class="node">
<title>Node27</title>
<g id="a_node27"><a xlink:href="classSignalIntegrity_1_1Lib_1_1SParameters_1_1Devices_1_1TLineTwoPortRLGCApproximate_1_1TLineTwoPortRLGCApproximate.xhtml" target="_top" xlink:title="s&#45;parameters of two port RLGC (telegrapher&#39;s) transmission line calculated by approximating distribut...">
<polygon fill="white" stroke="black" points="3018.5,-105.5 3018.5,-206.5 3188.5,-206.5 3188.5,-105.5 3018.5,-105.5"/>
<text text-anchor="middle" x="3103.5" y="-194.5" font-family="Helvetica,sans-Serif" font-size="10.00">TLineTwoPortRLGCApproximate</text>
<polyline fill="none" stroke="black" points="3018.5,-187.5 3188.5,-187.5 "/>
<text text-anchor="start" x="3026.5" y="-175.5" font-family="Helvetica,sans-Serif" font-size="10.00">+ m_K</text>
<text text-anchor="start" x="3026.5" y="-164.5" font-family="Helvetica,sans-Serif" font-size="10.00">+ m_sspn</text>
<text text-anchor="start" x="3026.5" y="-153.5" font-family="Helvetica,sans-Serif" font-size="10.00">+ m_spdl</text>
<text text-anchor="start" x="3026.5" y="-142.5" font-family="Helvetica,sans-Serif" font-size="10.00">+ rtFraction</text>
<polyline fill="none" stroke="black" points="3018.5,-135.5 3188.5,-135.5 "/>
<text text-anchor="start" x="3026.5" y="-123.5" font-family="Helvetica,sans-Serif" font-size="10.00">+ __init__()</text>
<text text-anchor="start" x="3026.5" y="-112.5" font-family="Helvetica,sans-Serif" font-size="10.00">+ __getitem__()</text>
</a>
</g>
</g>
<!-- Node2&#45;&gt;Node27 -->
<g id="edge26" class="edge">
<title>Node2&#45;&gt;Node27</title>
<path fill="none" stroke="midnightblue" d="M1622.47,-366.34C1899.48,-353.98 2750.64,-309.32 3009.5,-218 3018.12,-214.96 3026.75,-210.98 3035.08,-206.5"/>
<polygon fill="none" stroke="midnightblue" points="1621.91,-362.86 1612.08,-366.8 1622.22,-369.86 1621.91,-362.86"/>
</g>
<!-- Node28 -->
<g id="node28" class="node">
<title>Node28</title>
<g id="a_node28"><a xlink:href="classSignalIntegrity_1_1Lib_1_1SParameters_1_1Devices_1_1WElement_1_1WElement.xhtml" target="_top" xlink:title="s&#45;parameters of of a W element is calculated by approximating distributed parameters with a finite nu...">
<polygon fill="white" stroke="black" points="3207,-94.5 3207,-217.5 3302,-217.5 3302,-94.5 3207,-94.5"/>
<text text-anchor="middle" x="3254.5" y="-205.5" font-family="Helvetica,sans-Serif" font-size="10.00">WElement</text>
<polyline fill="none" stroke="black" points="3207,-198.5 3302,-198.5 "/>
<text text-anchor="start" x="3215" y="-186.5" font-family="Helvetica,sans-Serif" font-size="10.00">+ m_K</text>
<text text-anchor="start" x="3215" y="-175.5" font-family="Helvetica,sans-Serif" font-size="10.00">+ m_sspn</text>
<text text-anchor="start" x="3215" y="-164.5" font-family="Helvetica,sans-Serif" font-size="10.00">+ NetListLines</text>
<text text-anchor="start" x="3215" y="-153.5" font-family="Helvetica,sans-Serif" font-size="10.00">+ m_spdl</text>
<text text-anchor="start" x="3215" y="-142.5" font-family="Helvetica,sans-Serif" font-size="10.00">+ rtFraction</text>
<polyline fill="none" stroke="black" points="3207,-135.5 3302,-135.5 "/>
<text text-anchor="start" x="3215" y="-123.5" font-family="Helvetica,sans-Serif" font-size="10.00">+ __init__()</text>
<text text-anchor="start" x="3215" y="-112.5" font-family="Helvetica,sans-Serif" font-size="10.00">+ NetList()</text>
<text text-anchor="start" x="3215" y="-101.5" font-family="Helvetica,sans-Serif" font-size="10.00">+ __getitem__()</text>
</a>
</g>
</g>
<!-- Node2&#45;&gt;Node28 -->
<g id="edge27" class="edge">
<title>Node2&#45;&gt;Node28</title>
<path fill="none" stroke="midnightblue" d="M1622.3,-370.11C1924.15,-369.25 2916.05,-355.77 3197.5,-218 3200.75,-216.41 3203.92,-214.54 3206.97,-212.48"/>
<polygon fill="none" stroke="midnightblue" points="1622.28,-366.61 1612.29,-370.14 1622.3,-373.61 1622.28,-366.61"/>
</g>
<!-- Node29 -->
<g id="node29" class="node">
<title>Node29</title>
<g id="a_node29"><a xlink:href="classSignalIntegrity_1_1Lib_1_1SParameters_1_1SParameterFile_1_1SParameterFile.xhtml" target="_top" xlink:title="class for s&#45;parameters read from a file">
<polygon fill="white" stroke="black" points="3320.5,-105.5 3320.5,-206.5 3410.5,-206.5 3410.5,-105.5 3320.5,-105.5"/>
<text text-anchor="middle" x="3365.5" y="-194.5" font-family="Helvetica,sans-Serif" font-size="10.00">SParameterFile</text>
<polyline fill="none" stroke="black" points="3320.5,-187.5 3410.5,-187.5 "/>
<text text-anchor="start" x="3328.5" y="-175.5" font-family="Helvetica,sans-Serif" font-size="10.00">+ m_sToken</text>
<text text-anchor="start" x="3328.5" y="-164.5" font-family="Helvetica,sans-Serif" font-size="10.00">+ m_Z0</text>
<text text-anchor="start" x="3328.5" y="-153.5" font-family="Helvetica,sans-Serif" font-size="10.00">+ m_P</text>
<text text-anchor="start" x="3328.5" y="-142.5" font-family="Helvetica,sans-Serif" font-size="10.00">+ m_f</text>
<text text-anchor="start" x="3328.5" y="-131.5" font-family="Helvetica,sans-Serif" font-size="10.00">+ m_d</text>
<polyline fill="none" stroke="black" points="3320.5,-124.5 3410.5,-124.5 "/>
<text text-anchor="start" x="3328.5" y="-112.5" font-family="Helvetica,sans-Serif" font-size="10.00">+ __init__()</text>
</a>
</g>
</g>
<!-- Node2&#45;&gt;Node29 -->
<g id="edge28" class="edge">
<title>Node2&#45;&gt;Node29</title>
<path fill="none" stroke="midnightblue" d="M1622.28,-366.31C1959.37,-351.62 3159.53,-294.39 3311.5,-218 3317.44,-215.01 3323.02,-211.07 3328.17,-206.62"/>
<polygon fill="none" stroke="midnightblue" points="1621.92,-362.82 1612.08,-366.75 1622.23,-369.82 1621.92,-362.82"/>
</g>
<!-- Node8 -->
<g id="node8" class="node">
<title>Node8</title>
<g id="a_node8"><a xlink:href="classSignalIntegrity_1_1Lib_1_1Measurement_1_1CalKit_1_1Standards_1_1ThruStandard_1_1ThruStandard.xhtml" target="_top" xlink:title="Class providing the s&#45;parameters of a thru standard as commonly defined for a calibration kit.">
<polygon fill="white" stroke="black" points="477.5,-0.5 477.5,-57.5 559.5,-57.5 559.5,-0.5 477.5,-0.5"/>
<text text-anchor="middle" x="518.5" y="-45.5" font-family="Helvetica,sans-Serif" font-size="10.00">ThruStandard</text>
<polyline fill="none" stroke="black" points="477.5,-38.5 559.5,-38.5 "/>
<text text-anchor="middle" x="518.5" y="-26.5" font-family="Helvetica,sans-Serif" font-size="10.00"> </text>
<polyline fill="none" stroke="black" points="477.5,-19.5 559.5,-19.5 "/>
<text text-anchor="start" x="485.5" y="-7.5" font-family="Helvetica,sans-Serif" font-size="10.00">+ __init__()</text>
</a>
</g>
</g>
<!-- Node7&#45;&gt;Node8 -->
<g id="edge7" class="edge">
<title>Node7&#45;&gt;Node8</title>
<path fill="none" stroke="midnightblue" d="M518.5,-117.06C518.5,-97.92 518.5,-75.13 518.5,-57.66"/>
<polygon fill="none" stroke="midnightblue" points="515,-117.26 518.5,-127.26 522,-117.26 515,-117.26"/>
</g>
</g>
</svg>
