<?xml version="1.0" encoding="UTF-8" standalone="no"?>
<!DOCTYPE svg PUBLIC "-//W3C//DTD SVG 1.1//EN"
 "http://www.w3.org/Graphics/SVG/1.1/DTD/svg11.dtd">
<!-- Generated by graphviz version 2.40.1 (20161225.0304)
 -->
<!-- Title: FrequencyResponse Pages: 1 -->
<svg width="118pt" height="281pt"
 viewBox="0.00 0.00 118.00 281.00" xmlns="http://www.w3.org/2000/svg" xmlns:xlink="http://www.w3.org/1999/xlink">
<g id="graph0" class="graph" transform="scale(1 1) rotate(0) translate(4 277)">
<title>FrequencyResponse</title>
<polygon fill="#ffffff" stroke="transparent" points="-4,4 -4,-277 114,-277 114,4 -4,4"/>
<!-- Node2 -->
<g id="node1" class="node">
<title>Node2</title>
<polygon fill="#bfbfbf" stroke="#000000" points="0,-.5 0,-101.5 110,-101.5 110,-.5 0,-.5"/>
<text text-anchor="middle" x="55" y="-89.5" font-family="Helvetica,sans-Serif" font-size="10.00" fill="#000000">FrequencyResponse</text>
<polyline fill="none" stroke="#000000" points="0,-82.5 110,-82.5 "/>
<text text-anchor="middle" x="55" y="-70.5" font-family="Helvetica,sans-Serif" font-size="10.00" fill="#000000"> </text>
<polyline fill="none" stroke="#000000" points="0,-63.5 110,-63.5 "/>
<text text-anchor="start" x="8" y="-51.5" font-family="Helvetica,sans-Serif" font-size="10.00" fill="#000000">+ __init__()</text>
<text text-anchor="start" x="8" y="-40.5" font-family="Helvetica,sans-Serif" font-size="10.00" fill="#000000">+ Response()</text>
<text text-anchor="start" x="8" y="-29.5" font-family="Helvetica,sans-Serif" font-size="10.00" fill="#000000">+ ImpulseResponse()</text>
<text text-anchor="start" x="8" y="-18.5" font-family="Helvetica,sans-Serif" font-size="10.00" fill="#000000">+ Resample()</text>
<text text-anchor="start" x="8" y="-7.5" font-family="Helvetica,sans-Serif" font-size="10.00" fill="#000000">+ ResampleCZT()</text>
</g>
<!-- Node3 -->
<g id="node2" class="node">
<title>Node3</title>
<g id="a_node2"><a xlink:href="classSignalIntegrity_1_1FrequencyDomain_1_1FrequencyDomain_1_1FrequencyDomain.xhtml" target="_top" xlink:title="base class for frequency domain elements. ">
<polygon fill="#ffffff" stroke="#000000" points="7,-138.5 7,-272.5 103,-272.5 103,-138.5 7,-138.5"/>
<text text-anchor="middle" x="55" y="-260.5" font-family="Helvetica,sans-Serif" font-size="10.00" fill="#000000">FrequencyDomain</text>
<polyline fill="none" stroke="#000000" points="7,-253.5 103,-253.5 "/>
<text text-anchor="start" x="15" y="-241.5" font-family="Helvetica,sans-Serif" font-size="10.00" fill="#000000">+ m_f</text>
<polyline fill="none" stroke="#000000" points="7,-234.5 103,-234.5 "/>
<text text-anchor="start" x="15" y="-222.5" font-family="Helvetica,sans-Serif" font-size="10.00" fill="#000000">+ __init__()</text>
<text text-anchor="start" x="15" y="-211.5" font-family="Helvetica,sans-Serif" font-size="10.00" fill="#000000">+ FrequencyList()</text>
<text text-anchor="start" x="15" y="-200.5" font-family="Helvetica,sans-Serif" font-size="10.00" fill="#000000">+ Frequencies()</text>
<text text-anchor="start" x="15" y="-189.5" font-family="Helvetica,sans-Serif" font-size="10.00" fill="#000000">+ Values()</text>
<text text-anchor="start" x="15" y="-178.5" font-family="Helvetica,sans-Serif" font-size="10.00" fill="#000000">+ ReadFromFile()</text>
<text text-anchor="start" x="15" y="-167.5" font-family="Helvetica,sans-Serif" font-size="10.00" fill="#000000">+ WriteToFile()</text>
<text text-anchor="start" x="15" y="-156.5" font-family="Helvetica,sans-Serif" font-size="10.00" fill="#000000">+ __eq__()</text>
<text text-anchor="start" x="15" y="-145.5" font-family="Helvetica,sans-Serif" font-size="10.00" fill="#000000">+ __ne__()</text>
</a>
</g>
</g>
<!-- Node3&#45;&gt;Node2 -->
<g id="edge1" class="edge">
<title>Node3&#45;&gt;Node2</title>
<path fill="none" stroke="#191970" d="M55,-128.1277C55,-119.1994 55,-110.2733 55,-101.8265"/>
<polygon fill="none" stroke="#191970" points="51.5001,-128.1835 55,-138.1835 58.5001,-128.1835 51.5001,-128.1835"/>
</g>
</g>
</svg>
