<?xml version="1.0" encoding="UTF-8" standalone="no"?>
<!DOCTYPE svg PUBLIC "-//W3C//DTD SVG 1.1//EN"
 "http://www.w3.org/Graphics/SVG/1.1/DTD/svg11.dtd">
<!-- Generated by graphviz version 2.40.1 (20161225.0304)
 -->
<!-- Title: GenericFrequencyList Pages: 1 -->
<svg width="131pt" height="292pt"
 viewBox="0.00 0.00 131.00 292.00" xmlns="http://www.w3.org/2000/svg" xmlns:xlink="http://www.w3.org/1999/xlink">
<g id="graph0" class="graph" transform="scale(1 1) rotate(0) translate(4 288)">
<title>GenericFrequencyList</title>
<polygon fill="#ffffff" stroke="transparent" points="-4,4 -4,-288 127,-288 127,4 -4,4"/>
<!-- Node2 -->
<g id="node1" class="node">
<title>Node2</title>
<polygon fill="#bfbfbf" stroke="#000000" points="5.5,-.5 5.5,-57.5 117.5,-57.5 117.5,-.5 5.5,-.5"/>
<text text-anchor="middle" x="61.5" y="-45.5" font-family="Helvetica,sans-Serif" font-size="10.00" fill="#000000">GenericFrequencyList</text>
<polyline fill="none" stroke="#000000" points="5.5,-38.5 117.5,-38.5 "/>
<text text-anchor="middle" x="61.5" y="-26.5" font-family="Helvetica,sans-Serif" font-size="10.00" fill="#000000"> </text>
<polyline fill="none" stroke="#000000" points="5.5,-19.5 117.5,-19.5 "/>
<text text-anchor="start" x="13.5" y="-7.5" font-family="Helvetica,sans-Serif" font-size="10.00" fill="#000000">+ __init__()</text>
</g>
<!-- Node3 -->
<g id="node2" class="node">
<title>Node3</title>
<g id="a_node2"><a xlink:href="classSignalIntegrity_1_1FrequencyDomain_1_1FrequencyList_1_1FrequencyList.xhtml" target="_top" xlink:title="Frequency lists. ">
<polygon fill="#ffffff" stroke="#000000" points="0,-94.5 0,-283.5 123,-283.5 123,-94.5 0,-94.5"/>
<text text-anchor="middle" x="61.5" y="-271.5" font-family="Helvetica,sans-Serif" font-size="10.00" fill="#000000">FrequencyList</text>
<polyline fill="none" stroke="#000000" points="0,-264.5 123,-264.5 "/>
<text text-anchor="start" x="8" y="-252.5" font-family="Helvetica,sans-Serif" font-size="10.00" fill="#000000">+ N</text>
<text text-anchor="start" x="8" y="-241.5" font-family="Helvetica,sans-Serif" font-size="10.00" fill="#000000">+ Fe</text>
<text text-anchor="start" x="8" y="-230.5" font-family="Helvetica,sans-Serif" font-size="10.00" fill="#000000">+ m_EvenlySpaced</text>
<polyline fill="none" stroke="#000000" points="0,-223.5 123,-223.5 "/>
<text text-anchor="start" x="8" y="-211.5" font-family="Helvetica,sans-Serif" font-size="10.00" fill="#000000">+ __init__()</text>
<text text-anchor="start" x="8" y="-200.5" font-family="Helvetica,sans-Serif" font-size="10.00" fill="#000000">+ SetEvenlySpaced()</text>
<text text-anchor="start" x="8" y="-189.5" font-family="Helvetica,sans-Serif" font-size="10.00" fill="#000000">+ SetList()</text>
<text text-anchor="start" x="8" y="-178.5" font-family="Helvetica,sans-Serif" font-size="10.00" fill="#000000">+ EvenlySpaced()</text>
<text text-anchor="start" x="8" y="-167.5" font-family="Helvetica,sans-Serif" font-size="10.00" fill="#000000">+ Frequencies()</text>
<text text-anchor="start" x="8" y="-156.5" font-family="Helvetica,sans-Serif" font-size="10.00" fill="#000000">+ CheckEvenlySpaced()</text>
<text text-anchor="start" x="8" y="-145.5" font-family="Helvetica,sans-Serif" font-size="10.00" fill="#000000">+ __div__()</text>
<text text-anchor="start" x="8" y="-134.5" font-family="Helvetica,sans-Serif" font-size="10.00" fill="#000000">+ __mul__()</text>
<text text-anchor="start" x="8" y="-123.5" font-family="Helvetica,sans-Serif" font-size="10.00" fill="#000000">+ TimeDescriptor()</text>
<text text-anchor="start" x="8" y="-112.5" font-family="Helvetica,sans-Serif" font-size="10.00" fill="#000000">+ __eq__()</text>
<text text-anchor="start" x="8" y="-101.5" font-family="Helvetica,sans-Serif" font-size="10.00" fill="#000000">+ __ne__()</text>
</a>
</g>
</g>
<!-- Node3&#45;&gt;Node2 -->
<g id="edge1" class="edge">
<title>Node3&#45;&gt;Node2</title>
<path fill="none" stroke="#191970" d="M61.5,-84.0148C61.5,-74.5149 61.5,-65.5375 61.5,-57.6971"/>
<polygon fill="none" stroke="#191970" points="58.0001,-84.0781 61.5,-94.0781 65.0001,-84.0782 58.0001,-84.0781"/>
</g>
</g>
</svg>
