<?xml version="1.0" encoding="UTF-8" standalone="no"?>
<!DOCTYPE svg PUBLIC "-//W3C//DTD SVG 1.1//EN"
 "http://www.w3.org/Graphics/SVG/1.1/DTD/svg11.dtd">
<!-- Generated by graphviz version 2.40.1 (20161225.0304)
 -->
<!-- Title: TLineDifferentialRLGCBalanced Pages: 1 -->
<svg width="164pt" height="452pt"
 viewBox="0.00 0.00 164.00 452.00" xmlns="http://www.w3.org/2000/svg" xmlns:xlink="http://www.w3.org/1999/xlink">
<g id="graph0" class="graph" transform="scale(1 1) rotate(0) translate(4 448)">
<title>TLineDifferentialRLGCBalanced</title>
<polygon fill="#ffffff" stroke="transparent" points="-4,4 -4,-448 160,-448 160,4 -4,4"/>
<!-- Node0 -->
<g id="node1" class="node">
<title>Node0</title>
<polygon fill="#bfbfbf" stroke="#000000" points="0,-.5 0,-79.5 156,-79.5 156,-.5 0,-.5"/>
<text text-anchor="middle" x="78" y="-67.5" font-family="Helvetica,sans-Serif" font-size="10.00" fill="#000000">TLineDifferentialRLGCBalanced</text>
<polyline fill="none" stroke="#000000" points="0,-60.5 156,-60.5 "/>
<text text-anchor="start" x="8" y="-48.5" font-family="Helvetica,sans-Serif" font-size="10.00" fill="#000000">+ m_sspn</text>
<text text-anchor="start" x="8" y="-37.5" font-family="Helvetica,sans-Serif" font-size="10.00" fill="#000000">+ m_spdl</text>
<polyline fill="none" stroke="#000000" points="0,-30.5 156,-30.5 "/>
<text text-anchor="start" x="8" y="-18.5" font-family="Helvetica,sans-Serif" font-size="10.00" fill="#000000">+ __init__()</text>
<text text-anchor="start" x="8" y="-7.5" font-family="Helvetica,sans-Serif" font-size="10.00" fill="#000000">+ __getitem__()</text>
</g>
<!-- Node1 -->
<g id="node2" class="node">
<title>Node1</title>
<g id="a_node2"><a xlink:href="classSignalIntegrity_1_1Lib_1_1SParameters_1_1SParameters_1_1SParameters.xhtml" target="_top" xlink:title="Class containing s&#45;parameters. ">
<polygon fill="#ffffff" stroke="#000000" points="8,-116.5 8,-305.5 148,-305.5 148,-116.5 8,-116.5"/>
<text text-anchor="middle" x="78" y="-293.5" font-family="Helvetica,sans-Serif" font-size="10.00" fill="#000000">SParameters</text>
<polyline fill="none" stroke="#000000" points="8,-286.5 148,-286.5 "/>
<text text-anchor="start" x="16" y="-274.5" font-family="Helvetica,sans-Serif" font-size="10.00" fill="#000000">+ m_sToken</text>
<text text-anchor="start" x="16" y="-263.5" font-family="Helvetica,sans-Serif" font-size="10.00" fill="#000000">+ m_d</text>
<text text-anchor="start" x="16" y="-252.5" font-family="Helvetica,sans-Serif" font-size="10.00" fill="#000000">+ m_Z0</text>
<text text-anchor="start" x="16" y="-241.5" font-family="Helvetica,sans-Serif" font-size="10.00" fill="#000000">+ m_f</text>
<text text-anchor="start" x="16" y="-230.5" font-family="Helvetica,sans-Serif" font-size="10.00" fill="#000000">+ m_P</text>
<polyline fill="none" stroke="#000000" points="8,-223.5 148,-223.5 "/>
<text text-anchor="start" x="16" y="-211.5" font-family="Helvetica,sans-Serif" font-size="10.00" fill="#000000">+ __init__()</text>
<text text-anchor="start" x="16" y="-200.5" font-family="Helvetica,sans-Serif" font-size="10.00" fill="#000000">+ __getitem__()</text>
<text text-anchor="start" x="16" y="-189.5" font-family="Helvetica,sans-Serif" font-size="10.00" fill="#000000">+ __len__()</text>
<text text-anchor="start" x="16" y="-178.5" font-family="Helvetica,sans-Serif" font-size="10.00" fill="#000000">+ f()</text>
<text text-anchor="start" x="16" y="-167.5" font-family="Helvetica,sans-Serif" font-size="10.00" fill="#000000">+ Response()</text>
<text text-anchor="start" x="16" y="-156.5" font-family="Helvetica,sans-Serif" font-size="10.00" fill="#000000">+ FrequencyResponse()</text>
<text text-anchor="start" x="16" y="-145.5" font-family="Helvetica,sans-Serif" font-size="10.00" fill="#000000">+ WriteToFile()</text>
<text text-anchor="start" x="16" y="-134.5" font-family="Helvetica,sans-Serif" font-size="10.00" fill="#000000">+ Resample()</text>
<text text-anchor="start" x="16" y="-123.5" font-family="Helvetica,sans-Serif" font-size="10.00" fill="#000000">+ SetReferenceImpedance()</text>
</a>
</g>
</g>
<!-- Node1&#45;&gt;Node0 -->
<g id="edge1" class="edge">
<title>Node1&#45;&gt;Node0</title>
<path fill="none" stroke="#191970" d="M78,-106.2385C78,-96.8809 78,-87.8479 78,-79.6203"/>
<polygon fill="none" stroke="#191970" points="74.5001,-106.4972 78,-116.4973 81.5001,-106.4973 74.5001,-106.4972"/>
</g>
<!-- Node2 -->
<g id="node3" class="node">
<title>Node2</title>
<g id="a_node3"><a xlink:href="classSignalIntegrity_1_1Lib_1_1SParameters_1_1SParameterManipulation_1_1SParameterManipulation.xhtml" target="_top" xlink:title="Class for manipulations on s&#45;parameters involving passivity, causality, etc. ">
<polygon fill="#ffffff" stroke="#000000" points="16.5,-342.5 16.5,-443.5 139.5,-443.5 139.5,-342.5 16.5,-342.5"/>
<text text-anchor="middle" x="78" y="-431.5" font-family="Helvetica,sans-Serif" font-size="10.00" fill="#000000">SParameterManipulation</text>
<polyline fill="none" stroke="#000000" points="16.5,-424.5 139.5,-424.5 "/>
<text text-anchor="middle" x="78" y="-412.5" font-family="Helvetica,sans-Serif" font-size="10.00" fill="#000000"> </text>
<polyline fill="none" stroke="#000000" points="16.5,-405.5 139.5,-405.5 "/>
<text text-anchor="start" x="24.5" y="-393.5" font-family="Helvetica,sans-Serif" font-size="10.00" fill="#000000">+ EnforcePassivity()</text>
<text text-anchor="start" x="24.5" y="-382.5" font-family="Helvetica,sans-Serif" font-size="10.00" fill="#000000">+ IsCausal()</text>
<text text-anchor="start" x="24.5" y="-371.5" font-family="Helvetica,sans-Serif" font-size="10.00" fill="#000000">+ EnforceCausality()</text>
<text text-anchor="start" x="24.5" y="-360.5" font-family="Helvetica,sans-Serif" font-size="10.00" fill="#000000">+ WaveletDenoise()</text>
<text text-anchor="start" x="24.5" y="-349.5" font-family="Helvetica,sans-Serif" font-size="10.00" fill="#000000">+ PortReorder()</text>
</a>
</g>
</g>
<!-- Node2&#45;&gt;Node1 -->
<g id="edge2" class="edge">
<title>Node2&#45;&gt;Node1</title>
<path fill="none" stroke="#191970" d="M78,-332.1163C78,-323.584 78,-314.6535 78,-305.6753"/>
<polygon fill="none" stroke="#191970" points="74.5001,-332.3028 78,-342.3029 81.5001,-332.3029 74.5001,-332.3028"/>
</g>
</g>
</svg>
