<?xml version="1.0" encoding="UTF-8" standalone="no"?>
<!DOCTYPE svg PUBLIC "-//W3C//DTD SVG 1.1//EN"
 "http://www.w3.org/Graphics/SVG/1.1/DTD/svg11.dtd">
<!-- Generated by graphviz version 2.43.0 (0)
 -->
<!-- Title: VirtualProbeNumericParser Pages: 1 -->
<svg width="397pt" height="612pt"
 viewBox="0.00 0.00 396.50 612.00" xmlns="http://www.w3.org/2000/svg" xmlns:xlink="http://www.w3.org/1999/xlink">
<g id="graph0" class="graph" transform="scale(1 1) rotate(0) translate(4 608)">
<title>VirtualProbeNumericParser</title>
<polygon fill="white" stroke="transparent" points="-4,4 -4,-608 392.5,-608 392.5,4 -4,4"/>
<!-- Node1 -->
<g id="node1" class="node">
<title>Node1</title>
<g id="a_node1"><a xlink:title="performs numeric virtual probing from netlists">
<polygon fill="#bfbfbf" stroke="black" points="149.5,-0.5 149.5,-79.5 284.5,-79.5 284.5,-0.5 149.5,-0.5"/>
<text text-anchor="middle" x="217" y="-67.5" font-family="Helvetica,sans-Serif" font-size="10.00">VirtualProbeNumericParser</text>
<polyline fill="none" stroke="black" points="149.5,-60.5 284.5,-60.5 "/>
<text text-anchor="start" x="157.5" y="-48.5" font-family="Helvetica,sans-Serif" font-size="10.00">+ transferMatrices</text>
<text text-anchor="start" x="157.5" y="-37.5" font-family="Helvetica,sans-Serif" font-size="10.00">+ m_tm</text>
<polyline fill="none" stroke="black" points="149.5,-30.5 284.5,-30.5 "/>
<text text-anchor="start" x="157.5" y="-18.5" font-family="Helvetica,sans-Serif" font-size="10.00">+ __init__()</text>
<text text-anchor="start" x="157.5" y="-7.5" font-family="Helvetica,sans-Serif" font-size="10.00">+ TransferMatrices()</text>
</a>
</g>
</g>
<!-- Node2 -->
<g id="node2" class="node">
<title>Node2</title>
<g id="a_node2"><a xlink:href="classSignalIntegrity_1_1Lib_1_1Parsers_1_1VirtualProbeParser_1_1VirtualProbeParser.xhtml" target="_top" xlink:title="base class for netlist based virtual probing solutions">
<polygon fill="white" stroke="black" points="47,-133 47,-201 145,-201 145,-133 47,-133"/>
<text text-anchor="middle" x="96" y="-189" font-family="Helvetica,sans-Serif" font-size="10.00">VirtualProbeParser</text>
<polyline fill="none" stroke="black" points="47,-182 145,-182 "/>
<text text-anchor="start" x="55" y="-170" font-family="Helvetica,sans-Serif" font-size="10.00">+ m_sd</text>
<text text-anchor="start" x="55" y="-159" font-family="Helvetica,sans-Serif" font-size="10.00">+ m_ul</text>
<polyline fill="none" stroke="black" points="47,-152 145,-152 "/>
<text text-anchor="start" x="55" y="-140" font-family="Helvetica,sans-Serif" font-size="10.00">+ __init__()</text>
</a>
</g>
</g>
<!-- Node2&#45;&gt;Node1 -->
<g id="edge1" class="edge">
<title>Node2&#45;&gt;Node1</title>
<path fill="none" stroke="midnightblue" d="M135.36,-125.34C149.56,-110.67 165.55,-94.15 179.59,-79.65"/>
<polygon fill="none" stroke="midnightblue" points="132.55,-123.21 128.11,-132.83 137.58,-128.08 132.55,-123.21"/>
</g>
<!-- Node3 -->
<g id="node3" class="node">
<title>Node3</title>
<g id="a_node3"><a xlink:href="classSignalIntegrity_1_1Lib_1_1Parsers_1_1SystemDescriptionParser_1_1SystemDescriptionParser.xhtml" target="_top" xlink:title="Parses netlists and produces system descriptions.">
<polygon fill="white" stroke="black" points="32,-254.5 32,-476.5 160,-476.5 160,-254.5 32,-254.5"/>
<text text-anchor="middle" x="96" y="-464.5" font-family="Helvetica,sans-Serif" font-size="10.00">SystemDescriptionParser</text>
<polyline fill="none" stroke="black" points="32,-457.5 160,-457.5 "/>
<text text-anchor="start" x="40" y="-445.5" font-family="Helvetica,sans-Serif" font-size="10.00">+ m_sd</text>
<text text-anchor="start" x="40" y="-434.5" font-family="Helvetica,sans-Serif" font-size="10.00">+ m_f</text>
<text text-anchor="start" x="40" y="-423.5" font-family="Helvetica,sans-Serif" font-size="10.00">+ m_lines</text>
<text text-anchor="start" x="40" y="-412.5" font-family="Helvetica,sans-Serif" font-size="10.00">+ m_addThru</text>
<text text-anchor="start" x="40" y="-401.5" font-family="Helvetica,sans-Serif" font-size="10.00">+ known</text>
<text text-anchor="start" x="40" y="-390.5" font-family="Helvetica,sans-Serif" font-size="10.00">+ callback</text>
<text text-anchor="start" x="40" y="-379.5" font-family="Helvetica,sans-Serif" font-size="10.00">+ m_Z0</text>
<text text-anchor="start" x="40" y="-368.5" font-family="Helvetica,sans-Serif" font-size="10.00">+ delayDict</text>
<text text-anchor="start" x="40" y="-357.5" font-family="Helvetica,sans-Serif" font-size="10.00">+ m_spc</text>
<text text-anchor="start" x="40" y="-346.5" font-family="Helvetica,sans-Serif" font-size="10.00">+ m_spcl</text>
<text text-anchor="start" x="40" y="-335.5" font-family="Helvetica,sans-Serif" font-size="10.00">+ m_ul</text>
<text text-anchor="start" x="40" y="-324.5" font-family="Helvetica,sans-Serif" font-size="10.00">+ MultiPortTee</text>
<polyline fill="none" stroke="black" points="32,-317.5 160,-317.5 "/>
<text text-anchor="start" x="40" y="-305.5" font-family="Helvetica,sans-Serif" font-size="10.00">+ __init__()</text>
<text text-anchor="start" x="40" y="-294.5" font-family="Helvetica,sans-Serif" font-size="10.00">+ SystemDescription()</text>
<text text-anchor="start" x="40" y="-283.5" font-family="Helvetica,sans-Serif" font-size="10.00">+ AddKnownDevices()</text>
<text text-anchor="start" x="40" y="-272.5" font-family="Helvetica,sans-Serif" font-size="10.00">+ AddLine()</text>
<text text-anchor="start" x="40" y="-261.5" font-family="Helvetica,sans-Serif" font-size="10.00">+ AddLines()</text>
</a>
</g>
</g>
<!-- Node3&#45;&gt;Node2 -->
<g id="edge2" class="edge">
<title>Node3&#45;&gt;Node2</title>
<path fill="none" stroke="midnightblue" d="M96,-244.06C96,-228.35 96,-213.45 96,-201.06"/>
<polygon fill="none" stroke="midnightblue" points="92.5,-244.47 96,-254.47 99.5,-244.47 92.5,-244.47"/>
</g>
<!-- Node4 -->
<g id="node4" class="node">
<title>Node4</title>
<g id="a_node4"><a xlink:href="classSignalIntegrity_1_1Lib_1_1Parsers_1_1ParserFile_1_1ParserFile.xhtml" target="_top" xlink:title="file handling base class for parsers">
<polygon fill="white" stroke="black" points="0,-524.5 0,-592.5 80,-592.5 80,-524.5 0,-524.5"/>
<text text-anchor="middle" x="40" y="-580.5" font-family="Helvetica,sans-Serif" font-size="10.00">ParserFile</text>
<polyline fill="none" stroke="black" points="0,-573.5 80,-573.5 "/>
<text text-anchor="middle" x="40" y="-561.5" font-family="Helvetica,sans-Serif" font-size="10.00"> </text>
<polyline fill="none" stroke="black" points="0,-554.5 80,-554.5 "/>
<text text-anchor="start" x="8" y="-542.5" font-family="Helvetica,sans-Serif" font-size="10.00">+ File()</text>
<text text-anchor="start" x="8" y="-531.5" font-family="Helvetica,sans-Serif" font-size="10.00">+ WriteToFile()</text>
</a>
</g>
</g>
<!-- Node4&#45;&gt;Node3 -->
<g id="edge3" class="edge">
<title>Node4&#45;&gt;Node3</title>
<path fill="none" stroke="midnightblue" d="M52.59,-514.57C55.94,-503.13 59.73,-490.21 63.63,-476.91"/>
<polygon fill="none" stroke="midnightblue" points="49.21,-513.65 49.75,-524.23 55.93,-515.62 49.21,-513.65"/>
</g>
<!-- Node5 -->
<g id="node5" class="node">
<title>Node5</title>
<g id="a_node5"><a xlink:href="classSignalIntegrity_1_1Lib_1_1Parsers_1_1ParserArgs_1_1ParserArgs.xhtml" target="_top" xlink:title="argument handling base class for parsers">
<polygon fill="white" stroke="black" points="98,-513.5 98,-603.5 206,-603.5 206,-513.5 98,-513.5"/>
<text text-anchor="middle" x="152" y="-591.5" font-family="Helvetica,sans-Serif" font-size="10.00">ParserArgs</text>
<polyline fill="none" stroke="black" points="98,-584.5 206,-584.5 "/>
<text text-anchor="start" x="106" y="-572.5" font-family="Helvetica,sans-Serif" font-size="10.00">+ m_vars</text>
<text text-anchor="start" x="106" y="-561.5" font-family="Helvetica,sans-Serif" font-size="10.00">+ m_args</text>
<polyline fill="none" stroke="black" points="98,-554.5 206,-554.5 "/>
<text text-anchor="start" x="106" y="-542.5" font-family="Helvetica,sans-Serif" font-size="10.00">+ AssignArguments()</text>
<text text-anchor="start" x="106" y="-531.5" font-family="Helvetica,sans-Serif" font-size="10.00">+ ReplaceArgs()</text>
<text text-anchor="start" x="106" y="-520.5" font-family="Helvetica,sans-Serif" font-size="10.00">+ ProcessVariables()</text>
</a>
</g>
</g>
<!-- Node5&#45;&gt;Node3 -->
<g id="edge4" class="edge">
<title>Node5&#45;&gt;Node3</title>
<path fill="none" stroke="midnightblue" d="M136.17,-503.52C133.69,-495.04 131.04,-486.02 128.34,-476.81"/>
<polygon fill="none" stroke="midnightblue" points="132.84,-504.59 139.01,-513.2 139.56,-502.62 132.84,-504.59"/>
</g>
<!-- Node6 -->
<g id="node6" class="node">
<title>Node6</title>
<g id="a_node6"><a xlink:href="classSignalIntegrity_1_1Lib_1_1CallBacker_1_1CallBacker.xhtml" target="_top" xlink:title="Handles Callbacks that allow progress reporting during long calculations and capability to abort.">
<polygon fill="white" stroke="black" points="163.5,-116.5 163.5,-217.5 270.5,-217.5 270.5,-116.5 163.5,-116.5"/>
<text text-anchor="middle" x="217" y="-205.5" font-family="Helvetica,sans-Serif" font-size="10.00">CallBacker</text>
<polyline fill="none" stroke="black" points="163.5,-198.5 270.5,-198.5 "/>
<text text-anchor="start" x="171.5" y="-186.5" font-family="Helvetica,sans-Serif" font-size="10.00">+ callback</text>
<polyline fill="none" stroke="black" points="163.5,-179.5 270.5,-179.5 "/>
<text text-anchor="start" x="171.5" y="-167.5" font-family="Helvetica,sans-Serif" font-size="10.00">+ __init__()</text>
<text text-anchor="start" x="171.5" y="-156.5" font-family="Helvetica,sans-Serif" font-size="10.00">+ HasACallBack()</text>
<text text-anchor="start" x="171.5" y="-145.5" font-family="Helvetica,sans-Serif" font-size="10.00">+ CallBack()</text>
<text text-anchor="start" x="171.5" y="-134.5" font-family="Helvetica,sans-Serif" font-size="10.00">+ InstallCallback()</text>
<text text-anchor="start" x="171.5" y="-123.5" font-family="Helvetica,sans-Serif" font-size="10.00">+ RemoveCallback()</text>
</a>
</g>
</g>
<!-- Node6&#45;&gt;Node1 -->
<g id="edge5" class="edge">
<title>Node6&#45;&gt;Node1</title>
<path fill="none" stroke="midnightblue" d="M217,-106.19C217,-97.22 217,-88.18 217,-79.81"/>
<polygon fill="none" stroke="midnightblue" points="213.5,-106.24 217,-116.24 220.5,-106.24 213.5,-106.24"/>
</g>
<!-- Node7 -->
<g id="node7" class="node">
<title>Node7</title>
<g id="a_node7"><a xlink:href="classSignalIntegrity_1_1Lib_1_1ResultsCache_1_1LinesCache.xhtml" target="_top" xlink:title="Caches results calculated based on netlist lines, as used in all of the parser classes.">
<polygon fill="white" stroke="black" points="288.5,-127.5 288.5,-206.5 375.5,-206.5 375.5,-127.5 288.5,-127.5"/>
<text text-anchor="middle" x="332" y="-194.5" font-family="Helvetica,sans-Serif" font-size="10.00">LinesCache</text>
<polyline fill="none" stroke="black" points="288.5,-187.5 375.5,-187.5 "/>
<text text-anchor="middle" x="332" y="-175.5" font-family="Helvetica,sans-Serif" font-size="10.00"> </text>
<polyline fill="none" stroke="black" points="288.5,-168.5 375.5,-168.5 "/>
<text text-anchor="start" x="296.5" y="-156.5" font-family="Helvetica,sans-Serif" font-size="10.00">+ __init__()</text>
<text text-anchor="start" x="296.5" y="-145.5" font-family="Helvetica,sans-Serif" font-size="10.00">+ HashValue()</text>
<text text-anchor="start" x="296.5" y="-134.5" font-family="Helvetica,sans-Serif" font-size="10.00">+ CheckTimes()</text>
</a>
</g>
</g>
<!-- Node7&#45;&gt;Node1 -->
<g id="edge6" class="edge">
<title>Node7&#45;&gt;Node1</title>
<path fill="none" stroke="midnightblue" d="M289.52,-119.83C277.36,-106.61 264.23,-92.33 252.52,-79.61"/>
<polygon fill="none" stroke="midnightblue" points="287.21,-122.49 296.56,-127.48 292.36,-117.75 287.21,-122.49"/>
</g>
<!-- Node8 -->
<g id="node8" class="node">
<title>Node8</title>
<g id="a_node8"><a xlink:href="classSignalIntegrity_1_1Lib_1_1ResultsCache_1_1ResultsCache.xhtml" target="_top" xlink:title="base class for results caching">
<polygon fill="white" stroke="black" points="275.5,-260 275.5,-471 388.5,-471 388.5,-260 275.5,-260"/>
<text text-anchor="middle" x="332" y="-459" font-family="Helvetica,sans-Serif" font-size="10.00">ResultsCache</text>
<polyline fill="none" stroke="black" points="275.5,-452 388.5,-452 "/>
<text text-anchor="start" x="283.5" y="-440" font-family="Helvetica,sans-Serif" font-size="10.00">+ filename</text>
<text text-anchor="start" x="283.5" y="-429" font-family="Helvetica,sans-Serif" font-size="10.00">+ extra</text>
<text text-anchor="start" x="283.5" y="-418" font-family="Helvetica,sans-Serif" font-size="10.00">+ extension</text>
<text text-anchor="start" x="283.5" y="-407" font-family="Helvetica,sans-Serif" font-size="10.00">+ hash</text>
<text text-anchor="start" x="283.5" y="-396" font-family="Helvetica,sans-Serif" font-size="10.00">+ files_to_keep</text>
<text text-anchor="start" x="283.5" y="-385" font-family="Helvetica,sans-Serif" font-size="10.00">+ files_to_keep</text>
<text text-anchor="start" x="283.5" y="-374" font-family="Helvetica,sans-Serif" font-size="10.00">+ keep_extra_file_for</text>
<text text-anchor="start" x="283.5" y="-363" font-family="Helvetica,sans-Serif" font-size="10.00">_archive</text>
<text text-anchor="start" x="283.5" y="-352" font-family="Helvetica,sans-Serif" font-size="10.00">+ check_times</text>
<text text-anchor="start" x="283.5" y="-341" font-family="Helvetica,sans-Serif" font-size="10.00">+ logging</text>
<polyline fill="none" stroke="black" points="275.5,-334 388.5,-334 "/>
<text text-anchor="start" x="283.5" y="-322" font-family="Helvetica,sans-Serif" font-size="10.00">+ __init__()</text>
<text text-anchor="start" x="283.5" y="-311" font-family="Helvetica,sans-Serif" font-size="10.00">+ HashValue()</text>
<text text-anchor="start" x="283.5" y="-300" font-family="Helvetica,sans-Serif" font-size="10.00">+ CheckCache()</text>
<text text-anchor="start" x="283.5" y="-289" font-family="Helvetica,sans-Serif" font-size="10.00">+ CacheResult()</text>
<text text-anchor="start" x="283.5" y="-278" font-family="Helvetica,sans-Serif" font-size="10.00">+ CheckTimes()</text>
<text text-anchor="start" x="283.5" y="-267" font-family="Helvetica,sans-Serif" font-size="10.00">+ PreferencesCache()</text>
</a>
</g>
</g>
<!-- Node8&#45;&gt;Node7 -->
<g id="edge7" class="edge">
<title>Node8&#45;&gt;Node7</title>
<path fill="none" stroke="midnightblue" d="M332,-249.69C332,-234.22 332,-219.32 332,-206.57"/>
<polygon fill="none" stroke="midnightblue" points="328.5,-249.92 332,-259.92 335.5,-249.92 328.5,-249.92"/>
</g>
</g>
</svg>
