<?xml version="1.0" encoding="UTF-8" standalone="no"?>
<!DOCTYPE svg PUBLIC "-//W3C//DTD SVG 1.1//EN"
 "http://www.w3.org/Graphics/SVG/1.1/DTD/svg11.dtd">
<!-- Generated by graphviz version 2.40.1 (20161225.0304)
 -->
<!-- Title: SystemSParametersNumericParser Pages: 1 -->
<svg width="368pt" height="474pt"
 viewBox="0.00 0.00 367.50 474.00" xmlns="http://www.w3.org/2000/svg" xmlns:xlink="http://www.w3.org/1999/xlink">
<g id="graph0" class="graph" transform="scale(1 1) rotate(0) translate(4 470)">
<title>SystemSParametersNumericParser</title>
<polygon fill="#ffffff" stroke="transparent" points="-4,4 -4,-470 363.5,-470 363.5,4 -4,4"/>
<!-- Node6 -->
<g id="node1" class="node">
<title>Node6</title>
<polygon fill="#bfbfbf" stroke="#000000" points="128,-.5 128,-79.5 272,-79.5 272,-.5 128,-.5"/>
<text text-anchor="start" x="136" y="-67.5" font-family="Helvetica,sans-Serif" font-size="10.00" fill="#000000">SystemSParametersNumeric</text>
<text text-anchor="middle" x="200" y="-56.5" font-family="Helvetica,sans-Serif" font-size="10.00" fill="#000000">Parser</text>
<polyline fill="none" stroke="#000000" points="128,-49.5 272,-49.5 "/>
<text text-anchor="start" x="136" y="-37.5" font-family="Helvetica,sans-Serif" font-size="10.00" fill="#000000">+ sf</text>
<polyline fill="none" stroke="#000000" points="128,-30.5 272,-30.5 "/>
<text text-anchor="start" x="136" y="-18.5" font-family="Helvetica,sans-Serif" font-size="10.00" fill="#000000">+ __init__()</text>
<text text-anchor="start" x="136" y="-7.5" font-family="Helvetica,sans-Serif" font-size="10.00" fill="#000000">+ SParameters()</text>
</g>
<!-- Node7 -->
<g id="node2" class="node">
<title>Node7</title>
<g id="a_node2"><a xlink:href="classSignalIntegrity_1_1Lib_1_1Parsers_1_1SystemDescriptionParser_1_1SystemDescriptionParser.xhtml" target="_top" xlink:title="Parses netlists and produces system descriptions. ">
<polygon fill="#ffffff" stroke="#000000" points="0,-116.5 0,-305.5 128,-305.5 128,-116.5 0,-116.5"/>
<text text-anchor="middle" x="64" y="-293.5" font-family="Helvetica,sans-Serif" font-size="10.00" fill="#000000">SystemDescriptionParser</text>
<polyline fill="none" stroke="#000000" points="0,-286.5 128,-286.5 "/>
<text text-anchor="start" x="8" y="-274.5" font-family="Helvetica,sans-Serif" font-size="10.00" fill="#000000">+ m_sd</text>
<text text-anchor="start" x="8" y="-263.5" font-family="Helvetica,sans-Serif" font-size="10.00" fill="#000000">+ m_f</text>
<text text-anchor="start" x="8" y="-252.5" font-family="Helvetica,sans-Serif" font-size="10.00" fill="#000000">+ m_lines</text>
<text text-anchor="start" x="8" y="-241.5" font-family="Helvetica,sans-Serif" font-size="10.00" fill="#000000">+ m_addThru</text>
<text text-anchor="start" x="8" y="-230.5" font-family="Helvetica,sans-Serif" font-size="10.00" fill="#000000">+ known</text>
<text text-anchor="start" x="8" y="-219.5" font-family="Helvetica,sans-Serif" font-size="10.00" fill="#000000">+ delayDict</text>
<text text-anchor="start" x="8" y="-208.5" font-family="Helvetica,sans-Serif" font-size="10.00" fill="#000000">+ m_spc</text>
<text text-anchor="start" x="8" y="-197.5" font-family="Helvetica,sans-Serif" font-size="10.00" fill="#000000">+ m_spcl</text>
<text text-anchor="start" x="8" y="-186.5" font-family="Helvetica,sans-Serif" font-size="10.00" fill="#000000">+ m_ul</text>
<polyline fill="none" stroke="#000000" points="0,-179.5 128,-179.5 "/>
<text text-anchor="start" x="8" y="-167.5" font-family="Helvetica,sans-Serif" font-size="10.00" fill="#000000">+ __init__()</text>
<text text-anchor="start" x="8" y="-156.5" font-family="Helvetica,sans-Serif" font-size="10.00" fill="#000000">+ SystemDescription()</text>
<text text-anchor="start" x="8" y="-145.5" font-family="Helvetica,sans-Serif" font-size="10.00" fill="#000000">+ AddKnownDevices()</text>
<text text-anchor="start" x="8" y="-134.5" font-family="Helvetica,sans-Serif" font-size="10.00" fill="#000000">+ AddLine()</text>
<text text-anchor="start" x="8" y="-123.5" font-family="Helvetica,sans-Serif" font-size="10.00" fill="#000000">+ AddLines()</text>
</a>
</g>
</g>
<!-- Node7&#45;&gt;Node6 -->
<g id="edge1" class="edge">
<title>Node7&#45;&gt;Node6</title>
<path fill="none" stroke="#191970" d="M134.5252,-119.1067C135.3537,-118.0646 136.1788,-117.0287 137,-116 146.5157,-104.0791 157.0295,-91.2612 166.6973,-79.6108"/>
<polygon fill="none" stroke="#191970" points="131.5807,-117.1875 128.1205,-127.2013 137.0702,-121.531 131.5807,-117.1875"/>
</g>
<!-- Node8 -->
<g id="node3" class="node">
<title>Node8</title>
<g id="a_node3"><a xlink:href="classSignalIntegrity_1_1Lib_1_1Parsers_1_1ParserFile_1_1ParserFile.xhtml" target="_top" xlink:title="file handling base class for parsers ">
<polygon fill="#ffffff" stroke="#000000" points="23,-370 23,-438 105,-438 105,-370 23,-370"/>
<text text-anchor="middle" x="64" y="-426" font-family="Helvetica,sans-Serif" font-size="10.00" fill="#000000">ParserFile</text>
<polyline fill="none" stroke="#000000" points="23,-419 105,-419 "/>
<text text-anchor="middle" x="64" y="-407" font-family="Helvetica,sans-Serif" font-size="10.00" fill="#000000"> </text>
<polyline fill="none" stroke="#000000" points="23,-400 105,-400 "/>
<text text-anchor="start" x="31" y="-388" font-family="Helvetica,sans-Serif" font-size="10.00" fill="#000000">+ File()</text>
<text text-anchor="start" x="31" y="-377" font-family="Helvetica,sans-Serif" font-size="10.00" fill="#000000">+ WriteToFile()</text>
</a>
</g>
</g>
<!-- Node8&#45;&gt;Node7 -->
<g id="edge2" class="edge">
<title>Node8&#45;&gt;Node7</title>
<path fill="none" stroke="#191970" d="M64,-359.7324C64,-343.5376 64,-324.5338 64,-305.626"/>
<polygon fill="none" stroke="#191970" points="60.5001,-359.9397 64,-369.9397 67.5001,-359.9398 60.5001,-359.9397"/>
</g>
<!-- Node9 -->
<g id="node4" class="node">
<title>Node9</title>
<g id="a_node4"><a xlink:href="classSignalIntegrity_1_1Lib_1_1CallBacker_1_1CallBacker.xhtml" target="_top" xlink:title="Handles Callbacks that allow progress reporting during long calculations and capability to abort...">
<polygon fill="#ffffff" stroke="#000000" points="146.5,-160.5 146.5,-261.5 253.5,-261.5 253.5,-160.5 146.5,-160.5"/>
<text text-anchor="middle" x="200" y="-249.5" font-family="Helvetica,sans-Serif" font-size="10.00" fill="#000000">CallBacker</text>
<polyline fill="none" stroke="#000000" points="146.5,-242.5 253.5,-242.5 "/>
<text text-anchor="start" x="154.5" y="-230.5" font-family="Helvetica,sans-Serif" font-size="10.00" fill="#000000">+ callback</text>
<polyline fill="none" stroke="#000000" points="146.5,-223.5 253.5,-223.5 "/>
<text text-anchor="start" x="154.5" y="-211.5" font-family="Helvetica,sans-Serif" font-size="10.00" fill="#000000">+ __init__()</text>
<text text-anchor="start" x="154.5" y="-200.5" font-family="Helvetica,sans-Serif" font-size="10.00" fill="#000000">+ HasACallBack()</text>
<text text-anchor="start" x="154.5" y="-189.5" font-family="Helvetica,sans-Serif" font-size="10.00" fill="#000000">+ CallBack()</text>
<text text-anchor="start" x="154.5" y="-178.5" font-family="Helvetica,sans-Serif" font-size="10.00" fill="#000000">+ InstallCallback()</text>
<text text-anchor="start" x="154.5" y="-167.5" font-family="Helvetica,sans-Serif" font-size="10.00" fill="#000000">+ RemoveCallback()</text>
</a>
</g>
</g>
<!-- Node9&#45;&gt;Node6 -->
<g id="edge3" class="edge">
<title>Node9&#45;&gt;Node6</title>
<path fill="none" stroke="#191970" d="M200,-149.9555C200,-126.5218 200,-100.4122 200,-79.5178"/>
<polygon fill="none" stroke="#191970" points="196.5001,-150.1573 200,-160.1573 203.5001,-150.1574 196.5001,-150.1573"/>
</g>
<!-- Node10 -->
<g id="node5" class="node">
<title>Node10</title>
<g id="a_node5"><a xlink:href="classSignalIntegrity_1_1Lib_1_1ResultsCache_1_1LinesCache.xhtml" target="_top" xlink:title="Caches results calculated based on netlist lines, as used in all of the parser classes. ">
<polygon fill="#ffffff" stroke="#000000" points="271.5,-171.5 271.5,-250.5 358.5,-250.5 358.5,-171.5 271.5,-171.5"/>
<text text-anchor="middle" x="315" y="-238.5" font-family="Helvetica,sans-Serif" font-size="10.00" fill="#000000">LinesCache</text>
<polyline fill="none" stroke="#000000" points="271.5,-231.5 358.5,-231.5 "/>
<text text-anchor="middle" x="315" y="-219.5" font-family="Helvetica,sans-Serif" font-size="10.00" fill="#000000"> </text>
<polyline fill="none" stroke="#000000" points="271.5,-212.5 358.5,-212.5 "/>
<text text-anchor="start" x="279.5" y="-200.5" font-family="Helvetica,sans-Serif" font-size="10.00" fill="#000000">+ __init__()</text>
<text text-anchor="start" x="279.5" y="-189.5" font-family="Helvetica,sans-Serif" font-size="10.00" fill="#000000">+ HashValue()</text>
<text text-anchor="start" x="279.5" y="-178.5" font-family="Helvetica,sans-Serif" font-size="10.00" fill="#000000">+ CheckTimes()</text>
</a>
</g>
</g>
<!-- Node10&#45;&gt;Node6 -->
<g id="edge4" class="edge">
<title>Node10&#45;&gt;Node6</title>
<path fill="none" stroke="#191970" d="M289.8362,-162.0529C281.5087,-146.9518 271.8414,-130.491 262,-116 253.6769,-103.7447 243.8503,-91.0416 234.5034,-79.6106"/>
<polygon fill="none" stroke="#191970" points="286.9854,-164.1371 294.8376,-171.2501 293.135,-160.7929 286.9854,-164.1371"/>
</g>
<!-- Node11 -->
<g id="node6" class="node">
<title>Node11</title>
<g id="a_node6"><a xlink:href="classSignalIntegrity_1_1Lib_1_1ResultsCache_1_1ResultsCache.xhtml" target="_top" xlink:title="base class for results caching ">
<polygon fill="#ffffff" stroke="#000000" points="270.5,-342.5 270.5,-465.5 359.5,-465.5 359.5,-342.5 270.5,-342.5"/>
<text text-anchor="middle" x="315" y="-453.5" font-family="Helvetica,sans-Serif" font-size="10.00" fill="#000000">ResultsCache</text>
<polyline fill="none" stroke="#000000" points="270.5,-446.5 359.5,-446.5 "/>
<text text-anchor="start" x="278.5" y="-434.5" font-family="Helvetica,sans-Serif" font-size="10.00" fill="#000000">+ filename</text>
<text text-anchor="start" x="278.5" y="-423.5" font-family="Helvetica,sans-Serif" font-size="10.00" fill="#000000">+ extra</text>
<text text-anchor="start" x="278.5" y="-412.5" font-family="Helvetica,sans-Serif" font-size="10.00" fill="#000000">+ hash</text>
<polyline fill="none" stroke="#000000" points="270.5,-405.5 359.5,-405.5 "/>
<text text-anchor="start" x="278.5" y="-393.5" font-family="Helvetica,sans-Serif" font-size="10.00" fill="#000000">+ __init__()</text>
<text text-anchor="start" x="278.5" y="-382.5" font-family="Helvetica,sans-Serif" font-size="10.00" fill="#000000">+ CheckCache()</text>
<text text-anchor="start" x="278.5" y="-371.5" font-family="Helvetica,sans-Serif" font-size="10.00" fill="#000000">+ CacheResult()</text>
<text text-anchor="start" x="278.5" y="-360.5" font-family="Helvetica,sans-Serif" font-size="10.00" fill="#000000">+ FileTime()</text>
<text text-anchor="start" x="278.5" y="-349.5" font-family="Helvetica,sans-Serif" font-size="10.00" fill="#000000">+ CheckTimes()</text>
</a>
</g>
</g>
<!-- Node11&#45;&gt;Node10 -->
<g id="edge5" class="edge">
<title>Node11&#45;&gt;Node10</title>
<path fill="none" stroke="#191970" d="M315,-332.3886C315,-304.7995 315,-274.2972 315,-250.7703"/>
<polygon fill="none" stroke="#191970" points="311.5001,-332.4029 315,-342.403 318.5001,-332.403 311.5001,-332.4029"/>
</g>
</g>
</svg>
