<?xml version="1.0" encoding="UTF-8" standalone="no"?>
<!DOCTYPE svg PUBLIC "-//W3C//DTD SVG 1.1//EN"
 "http://www.w3.org/Graphics/SVG/1.1/DTD/svg11.dtd">
<!-- Generated by graphviz version 2.43.0 (0)
 -->
<!-- Title: Globable Pages: 1 -->
<svg width="119pt" height="391pt"
 viewBox="0.00 0.00 119.00 391.00" xmlns="http://www.w3.org/2000/svg" xmlns:xlink="http://www.w3.org/1999/xlink">
<g id="graph0" class="graph" transform="scale(1 1) rotate(0) translate(4 387)">
<title>Globable</title>
<polygon fill="white" stroke="transparent" points="-4,4 -4,-387 115,-387 115,4 -4,4"/>
<!-- Node1 -->
<g id="node1" class="node">
<title>Node1</title>
<g id="a_node1"><a xlink:title="A bit of text which can be globbed (lumped together in bits).">
<polygon fill="#bfbfbf" stroke="black" points="0,-204.5 0,-382.5 111,-382.5 111,-204.5 0,-204.5"/>
<text text-anchor="middle" x="55.5" y="-370.5" font-family="Helvetica,sans-Serif" font-size="10.00">Globable</text>
<polyline fill="none" stroke="black" points="0,-363.5 111,-363.5 "/>
<text text-anchor="start" x="8" y="-351.5" font-family="Helvetica,sans-Serif" font-size="10.00">+ endinglist</text>
<text text-anchor="start" x="8" y="-340.5" font-family="Helvetica,sans-Serif" font-size="10.00">+ leavepending</text>
<polyline fill="none" stroke="black" points="0,-333.5 111,-333.5 "/>
<text text-anchor="start" x="8" y="-321.5" font-family="Helvetica,sans-Serif" font-size="10.00">+ __init__()</text>
<text text-anchor="start" x="8" y="-310.5" font-family="Helvetica,sans-Serif" font-size="10.00">+ checkbytemark()</text>
<text text-anchor="start" x="8" y="-299.5" font-family="Helvetica,sans-Serif" font-size="10.00">+ isout()</text>
<text text-anchor="start" x="8" y="-288.5" font-family="Helvetica,sans-Serif" font-size="10.00">+ current()</text>
<text text-anchor="start" x="8" y="-277.5" font-family="Helvetica,sans-Serif" font-size="10.00">+ checkfor()</text>
<text text-anchor="start" x="8" y="-266.5" font-family="Helvetica,sans-Serif" font-size="10.00">+ finished()</text>
<text text-anchor="start" x="8" y="-255.5" font-family="Helvetica,sans-Serif" font-size="10.00">+ skipcurrent()</text>
<text text-anchor="start" x="8" y="-244.5" font-family="Helvetica,sans-Serif" font-size="10.00">+ glob()</text>
<text text-anchor="start" x="8" y="-233.5" font-family="Helvetica,sans-Serif" font-size="10.00">+ globalpha()</text>
<text text-anchor="start" x="8" y="-222.5" font-family="Helvetica,sans-Serif" font-size="10.00">+ globnumber()</text>
<text text-anchor="start" x="8" y="-211.5" font-family="Helvetica,sans-Serif" font-size="10.00">and 30 more...</text>
</a>
</g>
</g>
<!-- Node2 -->
<g id="node2" class="node">
<title>Node2</title>
<g id="a_node2"><a xlink:href="classmath2html_1_1Position.xhtml" target="_top" xlink:title="A position in a text to parse.">
<polygon fill="white" stroke="black" points="3.5,-0.5 3.5,-167.5 107.5,-167.5 107.5,-0.5 3.5,-0.5"/>
<text text-anchor="middle" x="55.5" y="-155.5" font-family="Helvetica,sans-Serif" font-size="10.00">Position</text>
<polyline fill="none" stroke="black" points="3.5,-148.5 107.5,-148.5 "/>
<text text-anchor="middle" x="55.5" y="-136.5" font-family="Helvetica,sans-Serif" font-size="10.00"> </text>
<polyline fill="none" stroke="black" points="3.5,-129.5 107.5,-129.5 "/>
<text text-anchor="start" x="11.5" y="-117.5" font-family="Helvetica,sans-Serif" font-size="10.00">+ __init__()</text>
<text text-anchor="start" x="11.5" y="-106.5" font-family="Helvetica,sans-Serif" font-size="10.00">+ skip()</text>
<text text-anchor="start" x="11.5" y="-95.5" font-family="Helvetica,sans-Serif" font-size="10.00">+ identifier()</text>
<text text-anchor="start" x="11.5" y="-84.5" font-family="Helvetica,sans-Serif" font-size="10.00">+ extract()</text>
<text text-anchor="start" x="11.5" y="-73.5" font-family="Helvetica,sans-Serif" font-size="10.00">+ checkfor()</text>
<text text-anchor="start" x="11.5" y="-62.5" font-family="Helvetica,sans-Serif" font-size="10.00">+ checkforlower()</text>
<text text-anchor="start" x="11.5" y="-51.5" font-family="Helvetica,sans-Serif" font-size="10.00">+ skipcurrent()</text>
<text text-anchor="start" x="11.5" y="-40.5" font-family="Helvetica,sans-Serif" font-size="10.00">+ next()</text>
<text text-anchor="start" x="11.5" y="-29.5" font-family="Helvetica,sans-Serif" font-size="10.00">+ checkskip()</text>
<text text-anchor="start" x="11.5" y="-18.5" font-family="Helvetica,sans-Serif" font-size="10.00">+ error()</text>
<text text-anchor="start" x="11.5" y="-7.5" font-family="Helvetica,sans-Serif" font-size="10.00">and 10 more...</text>
</a>
</g>
</g>
<!-- Node1&#45;&gt;Node2 -->
<g id="edge1" class="edge">
<title>Node1&#45;&gt;Node2</title>
<path fill="none" stroke="midnightblue" d="M55.5,-194.2C55.5,-185.3 55.5,-176.36 55.5,-167.62"/>
<polygon fill="none" stroke="midnightblue" points="52,-194.2 55.5,-204.2 59,-194.2 52,-194.2"/>
</g>
</g>
</svg>
