<?xml version="1.0" encoding="UTF-8" standalone="no"?>
<!DOCTYPE svg PUBLIC "-//W3C//DTD SVG 1.1//EN"
 "http://www.w3.org/Graphics/SVG/1.1/DTD/svg11.dtd">
<!-- Generated by graphviz version 2.40.1 (20161225.0304)
 -->
<!-- Title: Waveform Pages: 1 -->
<svg width="695pt" height="336pt"
 viewBox="0.00 0.00 695.50 336.00" xmlns="http://www.w3.org/2000/svg" xmlns:xlink="http://www.w3.org/1999/xlink">
<g id="graph0" class="graph" transform="scale(1 1) rotate(0) translate(4 332)">
<title>Waveform</title>
<polygon fill="#ffffff" stroke="transparent" points="-4,4 -4,-332 691.5,-332 691.5,4 -4,4"/>
<!-- Node0 -->
<g id="node1" class="node">
<title>Node0</title>
<polygon fill="#bfbfbf" stroke="#000000" points="342,-149.5 342,-327.5 441,-327.5 441,-149.5 342,-149.5"/>
<text text-anchor="middle" x="391.5" y="-315.5" font-family="Helvetica,sans-Serif" font-size="10.00" fill="#000000">Waveform</text>
<polyline fill="none" stroke="#000000" points="342,-308.5 441,-308.5 "/>
<text text-anchor="start" x="350" y="-296.5" font-family="Helvetica,sans-Serif" font-size="10.00" fill="#000000">+ td</text>
<text text-anchor="start" x="350" y="-285.5" font-family="Helvetica,sans-Serif" font-size="10.00" fill="#000000">+ adaptionStrategy</text>
<polyline fill="none" stroke="#000000" points="342,-278.5 441,-278.5 "/>
<text text-anchor="start" x="350" y="-266.5" font-family="Helvetica,sans-Serif" font-size="10.00" fill="#000000">+ __init__()</text>
<text text-anchor="start" x="350" y="-255.5" font-family="Helvetica,sans-Serif" font-size="10.00" fill="#000000">+ Times()</text>
<text text-anchor="start" x="350" y="-244.5" font-family="Helvetica,sans-Serif" font-size="10.00" fill="#000000">+ TimeDescriptor()</text>
<text text-anchor="start" x="350" y="-233.5" font-family="Helvetica,sans-Serif" font-size="10.00" fill="#000000">+ Values()</text>
<text text-anchor="start" x="350" y="-222.5" font-family="Helvetica,sans-Serif" font-size="10.00" fill="#000000">+ OffsetBy()</text>
<text text-anchor="start" x="350" y="-211.5" font-family="Helvetica,sans-Serif" font-size="10.00" fill="#000000">+ DelayBy()</text>
<text text-anchor="start" x="350" y="-200.5" font-family="Helvetica,sans-Serif" font-size="10.00" fill="#000000">+ __add__()</text>
<text text-anchor="start" x="350" y="-189.5" font-family="Helvetica,sans-Serif" font-size="10.00" fill="#000000">+ __sub__()</text>
<text text-anchor="start" x="350" y="-178.5" font-family="Helvetica,sans-Serif" font-size="10.00" fill="#000000">+ __radd__()</text>
<text text-anchor="start" x="350" y="-167.5" font-family="Helvetica,sans-Serif" font-size="10.00" fill="#000000">+ __mul__()</text>
<text text-anchor="start" x="350" y="-156.5" font-family="Helvetica,sans-Serif" font-size="10.00" fill="#000000">and 10 more...</text>
</g>
<!-- Node1 -->
<g id="node2" class="node">
<title>Node1</title>
<g id="a_node2"><a xlink:href="classSignalIntegrity_1_1Lib_1_1ImpedanceProfile_1_1ImpedanceProfileWaveform_1_1ImpedanceProfileWaveform.xhtml" target="_top" xlink:title="Computes the impedance profile waveform from a set of s&#45;parameters using the port specified...">
<polygon fill="#ffffff" stroke="#000000" points="0,-22.5 0,-90.5 137,-90.5 137,-22.5 0,-22.5"/>
<text text-anchor="middle" x="68.5" y="-78.5" font-family="Helvetica,sans-Serif" font-size="10.00" fill="#000000">ImpedanceProfileWaveform</text>
<polyline fill="none" stroke="#000000" points="0,-71.5 137,-71.5 "/>
<text text-anchor="start" x="8" y="-59.5" font-family="Helvetica,sans-Serif" font-size="10.00" fill="#000000">+ rhoLimit</text>
<text text-anchor="start" x="8" y="-48.5" font-family="Helvetica,sans-Serif" font-size="10.00" fill="#000000">+ ZLimit</text>
<polyline fill="none" stroke="#000000" points="0,-41.5 137,-41.5 "/>
<text text-anchor="start" x="8" y="-29.5" font-family="Helvetica,sans-Serif" font-size="10.00" fill="#000000">+ __init__()</text>
</a>
</g>
</g>
<!-- Node0&#45;&gt;Node1 -->
<g id="edge1" class="edge">
<title>Node0&#45;&gt;Node1</title>
<path fill="none" stroke="#191970" d="M332.8043,-211.5671C282.2956,-187.6587 208.0549,-150.7516 146.5,-113 135.382,-106.1813 123.7979,-98.2726 113.0639,-90.5711"/>
<polygon fill="none" stroke="#191970" points="331.4129,-214.7805 341.9508,-215.8773 334.3969,-208.4484 331.4129,-214.7805"/>
</g>
<!-- Node2 -->
<g id="node3" class="node">
<title>Node2</title>
<g id="a_node3"><a xlink:href="classSignalIntegrity_1_1Lib_1_1TimeDomain_1_1Waveform_1_1ImpulseResponse_1_1ImpulseResponse.xhtml" target="_top" xlink:title="impulse response of a filter as a waveform ">
<polygon fill="#ffffff" stroke="#000000" points="155.5,-.5 155.5,-112.5 277.5,-112.5 277.5,-.5 155.5,-.5"/>
<text text-anchor="middle" x="216.5" y="-100.5" font-family="Helvetica,sans-Serif" font-size="10.00" fill="#000000">ImpulseResponse</text>
<polyline fill="none" stroke="#000000" points="155.5,-93.5 277.5,-93.5 "/>
<text text-anchor="middle" x="216.5" y="-81.5" font-family="Helvetica,sans-Serif" font-size="10.00" fill="#000000"> </text>
<polyline fill="none" stroke="#000000" points="155.5,-74.5 277.5,-74.5 "/>
<text text-anchor="start" x="163.5" y="-62.5" font-family="Helvetica,sans-Serif" font-size="10.00" fill="#000000">+ __init__()</text>
<text text-anchor="start" x="163.5" y="-51.5" font-family="Helvetica,sans-Serif" font-size="10.00" fill="#000000">+ DelayBy()</text>
<text text-anchor="start" x="163.5" y="-40.5" font-family="Helvetica,sans-Serif" font-size="10.00" fill="#000000">+ FrequencyResponse()</text>
<text text-anchor="start" x="163.5" y="-29.5" font-family="Helvetica,sans-Serif" font-size="10.00" fill="#000000">+ Resample()</text>
<text text-anchor="start" x="163.5" y="-18.5" font-family="Helvetica,sans-Serif" font-size="10.00" fill="#000000">+ TrimToThreshold()</text>
<text text-anchor="start" x="163.5" y="-7.5" font-family="Helvetica,sans-Serif" font-size="10.00" fill="#000000">+ FirFilter()</text>
</a>
</g>
</g>
<!-- Node0&#45;&gt;Node2 -->
<g id="edge2" class="edge">
<title>Node0&#45;&gt;Node2</title>
<path fill="none" stroke="#191970" d="M334.6604,-179.3868C314.0883,-157.9919 290.9279,-133.905 270.5979,-112.7619"/>
<polygon fill="none" stroke="#191970" points="332.3661,-182.0505 341.8201,-186.8329 337.4119,-177.1987 332.3661,-182.0505"/>
</g>
<!-- Node3 -->
<g id="node4" class="node">
<title>Node3</title>
<g id="a_node4"><a xlink:href="classSignalIntegrity_1_1Lib_1_1TimeDomain_1_1Waveform_1_1NoiseWaveform_1_1NoiseWaveform.xhtml" target="_top" xlink:title="noise waveform ">
<polygon fill="#ffffff" stroke="#000000" points="296,-28 296,-85 383,-85 383,-28 296,-28"/>
<text text-anchor="middle" x="339.5" y="-73" font-family="Helvetica,sans-Serif" font-size="10.00" fill="#000000">NoiseWaveform</text>
<polyline fill="none" stroke="#000000" points="296,-66 383,-66 "/>
<text text-anchor="middle" x="339.5" y="-54" font-family="Helvetica,sans-Serif" font-size="10.00" fill="#000000"> </text>
<polyline fill="none" stroke="#000000" points="296,-47 383,-47 "/>
<text text-anchor="start" x="304" y="-35" font-family="Helvetica,sans-Serif" font-size="10.00" fill="#000000">+ __init__()</text>
</a>
</g>
</g>
<!-- Node0&#45;&gt;Node3 -->
<g id="edge3" class="edge">
<title>Node0&#45;&gt;Node3</title>
<path fill="none" stroke="#191970" d="M363.2344,-139.5703C357.5471,-119.6649 352.0056,-100.2695 347.7093,-85.2325"/>
<polygon fill="none" stroke="#191970" points="359.9206,-140.7124 366.0332,-149.3661 366.6512,-138.7893 359.9206,-140.7124"/>
</g>
<!-- Node4 -->
<g id="node5" class="node">
<title>Node4</title>
<g id="a_node5"><a xlink:href="classSignalIntegrity_1_1Lib_1_1TimeDomain_1_1Waveform_1_1PulseWaveform_1_1PulseWaveform.xhtml" target="_top" xlink:title="pulse waveform ">
<polygon fill="#ffffff" stroke="#000000" points="401.5,-28 401.5,-85 487.5,-85 487.5,-28 401.5,-28"/>
<text text-anchor="middle" x="444.5" y="-73" font-family="Helvetica,sans-Serif" font-size="10.00" fill="#000000">PulseWaveform</text>
<polyline fill="none" stroke="#000000" points="401.5,-66 487.5,-66 "/>
<text text-anchor="middle" x="444.5" y="-54" font-family="Helvetica,sans-Serif" font-size="10.00" fill="#000000"> </text>
<polyline fill="none" stroke="#000000" points="401.5,-47 487.5,-47 "/>
<text text-anchor="start" x="409.5" y="-35" font-family="Helvetica,sans-Serif" font-size="10.00" fill="#000000">+ __init__()</text>
</a>
</g>
</g>
<!-- Node0&#45;&gt;Node4 -->
<g id="edge4" class="edge">
<title>Node0&#45;&gt;Node4</title>
<path fill="none" stroke="#191970" d="M420.3092,-139.5703C426.1058,-119.6649 431.7539,-100.2695 436.1328,-85.2325"/>
<polygon fill="none" stroke="#191970" points="416.8922,-138.7863 417.4566,-149.3661 423.613,-140.7435 416.8922,-138.7863"/>
</g>
<!-- Node5 -->
<g id="node6" class="node">
<title>Node5</title>
<g id="a_node6"><a xlink:href="classSignalIntegrity_1_1Lib_1_1TimeDomain_1_1Waveform_1_1SineWaveform_1_1SineWaveform.xhtml" target="_top" xlink:title="sinewave waveform ">
<polygon fill="#ffffff" stroke="#000000" points="506,-28 506,-85 587,-85 587,-28 506,-28"/>
<text text-anchor="middle" x="546.5" y="-73" font-family="Helvetica,sans-Serif" font-size="10.00" fill="#000000">SineWaveform</text>
<polyline fill="none" stroke="#000000" points="506,-66 587,-66 "/>
<text text-anchor="middle" x="546.5" y="-54" font-family="Helvetica,sans-Serif" font-size="10.00" fill="#000000"> </text>
<polyline fill="none" stroke="#000000" points="506,-47 587,-47 "/>
<text text-anchor="start" x="514" y="-35" font-family="Helvetica,sans-Serif" font-size="10.00" fill="#000000">+ __init__()</text>
</a>
</g>
</g>
<!-- Node0&#45;&gt;Node5 -->
<g id="edge5" class="edge">
<title>Node0&#45;&gt;Node5</title>
<path fill="none" stroke="#191970" d="M447.9027,-172.2723C473.2943,-142.4577 501.9564,-108.8029 521.8059,-85.4956"/>
<polygon fill="none" stroke="#191970" points="445.0017,-170.2805 441.1825,-180.1631 450.331,-174.8192 445.0017,-170.2805"/>
</g>
<!-- Node6 -->
<g id="node7" class="node">
<title>Node6</title>
<g id="a_node7"><a xlink:href="classSignalIntegrity_1_1Lib_1_1TimeDomain_1_1Waveform_1_1StepWaveform_1_1StepWaveform.xhtml" target="_top" xlink:title="step waveform ">
<polygon fill="#ffffff" stroke="#000000" points="605.5,-28 605.5,-85 687.5,-85 687.5,-28 605.5,-28"/>
<text text-anchor="middle" x="646.5" y="-73" font-family="Helvetica,sans-Serif" font-size="10.00" fill="#000000">StepWaveform</text>
<polyline fill="none" stroke="#000000" points="605.5,-66 687.5,-66 "/>
<text text-anchor="middle" x="646.5" y="-54" font-family="Helvetica,sans-Serif" font-size="10.00" fill="#000000"> </text>
<polyline fill="none" stroke="#000000" points="605.5,-47 687.5,-47 "/>
<text text-anchor="start" x="613.5" y="-35" font-family="Helvetica,sans-Serif" font-size="10.00" fill="#000000">+ __init__()</text>
</a>
</g>
</g>
<!-- Node0&#45;&gt;Node6 -->
<g id="edge6" class="edge">
<title>Node0&#45;&gt;Node6</title>
<path fill="none" stroke="#191970" d="M449.9028,-208.838C492.6826,-185.7065 550.9767,-151.1765 596.5,-113 606.3357,-104.7517 615.9682,-94.5387 624.1117,-85.0739"/>
<polygon fill="none" stroke="#191970" points="448.1807,-205.7899 441.0197,-213.5982 451.4871,-211.9598 448.1807,-205.7899"/>
</g>
</g>
</svg>
