<?xml version="1.0" encoding="UTF-8" standalone="no"?>
<!DOCTYPE svg PUBLIC "-//W3C//DTD SVG 1.1//EN"
 "http://www.w3.org/Graphics/SVG/1.1/DTD/svg11.dtd">
<!-- Generated by graphviz version 2.43.0 (0)
 -->
<!-- Title: CalibrationParser Pages: 1 -->
<svg width="214pt" height="485pt"
 viewBox="0.00 0.00 214.00 485.00" xmlns="http://www.w3.org/2000/svg" xmlns:xlink="http://www.w3.org/1999/xlink">
<g id="graph0" class="graph" transform="scale(1 1) rotate(0) translate(4 481)">
<title>CalibrationParser</title>
<polygon fill="white" stroke="transparent" points="-4,4 -4,-481 210,-481 210,4 -4,4"/>
<!-- Node1 -->
<g id="node1" class="node">
<title>Node1</title>
<g id="a_node1"><a xlink:title="base class for netlist based error terms solutions">
<polygon fill="#bfbfbf" stroke="black" points="23.5,-0.5 23.5,-101.5 168.5,-101.5 168.5,-0.5 23.5,-0.5"/>
<text text-anchor="middle" x="96" y="-89.5" font-family="Helvetica,sans-Serif" font-size="10.00">CalibrationParser</text>
<polyline fill="none" stroke="black" points="23.5,-82.5 168.5,-82.5 "/>
<text text-anchor="start" x="31.5" y="-70.5" font-family="Helvetica,sans-Serif" font-size="10.00">+ ports</text>
<text text-anchor="start" x="31.5" y="-59.5" font-family="Helvetica,sans-Serif" font-size="10.00">+ calibrationMeasurementList</text>
<text text-anchor="start" x="31.5" y="-48.5" font-family="Helvetica,sans-Serif" font-size="10.00">+ m_spc</text>
<text text-anchor="start" x="31.5" y="-37.5" font-family="Helvetica,sans-Serif" font-size="10.00">+ m_ul</text>
<text text-anchor="start" x="31.5" y="-26.5" font-family="Helvetica,sans-Serif" font-size="10.00">+ calibration</text>
<polyline fill="none" stroke="black" points="23.5,-19.5 168.5,-19.5 "/>
<text text-anchor="start" x="31.5" y="-7.5" font-family="Helvetica,sans-Serif" font-size="10.00">+ __init__()</text>
</a>
</g>
</g>
<!-- Node2 -->
<g id="node2" class="node">
<title>Node2</title>
<g id="a_node2"><a xlink:href="classSignalIntegrity_1_1Lib_1_1Parsers_1_1SystemDescriptionParser_1_1SystemDescriptionParser.xhtml" target="_top" xlink:title="Parses netlists and produces system descriptions.">
<polygon fill="white" stroke="black" points="32,-138.5 32,-349.5 160,-349.5 160,-138.5 32,-138.5"/>
<text text-anchor="middle" x="96" y="-337.5" font-family="Helvetica,sans-Serif" font-size="10.00">SystemDescriptionParser</text>
<polyline fill="none" stroke="black" points="32,-330.5 160,-330.5 "/>
<text text-anchor="start" x="40" y="-318.5" font-family="Helvetica,sans-Serif" font-size="10.00">+ m_sd</text>
<text text-anchor="start" x="40" y="-307.5" font-family="Helvetica,sans-Serif" font-size="10.00">+ m_f</text>
<text text-anchor="start" x="40" y="-296.5" font-family="Helvetica,sans-Serif" font-size="10.00">+ m_lines</text>
<text text-anchor="start" x="40" y="-285.5" font-family="Helvetica,sans-Serif" font-size="10.00">+ m_addThru</text>
<text text-anchor="start" x="40" y="-274.5" font-family="Helvetica,sans-Serif" font-size="10.00">+ known</text>
<text text-anchor="start" x="40" y="-263.5" font-family="Helvetica,sans-Serif" font-size="10.00">+ callback</text>
<text text-anchor="start" x="40" y="-252.5" font-family="Helvetica,sans-Serif" font-size="10.00">+ delayDict</text>
<text text-anchor="start" x="40" y="-241.5" font-family="Helvetica,sans-Serif" font-size="10.00">+ m_spc</text>
<text text-anchor="start" x="40" y="-230.5" font-family="Helvetica,sans-Serif" font-size="10.00">+ m_spcl</text>
<text text-anchor="start" x="40" y="-219.5" font-family="Helvetica,sans-Serif" font-size="10.00">+ m_ul</text>
<text text-anchor="start" x="40" y="-208.5" font-family="Helvetica,sans-Serif" font-size="10.00">+ MultiPortTee</text>
<polyline fill="none" stroke="black" points="32,-201.5 160,-201.5 "/>
<text text-anchor="start" x="40" y="-189.5" font-family="Helvetica,sans-Serif" font-size="10.00">+ __init__()</text>
<text text-anchor="start" x="40" y="-178.5" font-family="Helvetica,sans-Serif" font-size="10.00">+ SystemDescription()</text>
<text text-anchor="start" x="40" y="-167.5" font-family="Helvetica,sans-Serif" font-size="10.00">+ AddKnownDevices()</text>
<text text-anchor="start" x="40" y="-156.5" font-family="Helvetica,sans-Serif" font-size="10.00">+ AddLine()</text>
<text text-anchor="start" x="40" y="-145.5" font-family="Helvetica,sans-Serif" font-size="10.00">+ AddLines()</text>
</a>
</g>
</g>
<!-- Node2&#45;&gt;Node1 -->
<g id="edge1" class="edge">
<title>Node2&#45;&gt;Node1</title>
<path fill="none" stroke="midnightblue" d="M96,-128.23C96,-119.05 96,-110.12 96,-101.79"/>
<polygon fill="none" stroke="midnightblue" points="92.5,-128.28 96,-138.28 99.5,-128.28 92.5,-128.28"/>
</g>
<!-- Node3 -->
<g id="node3" class="node">
<title>Node3</title>
<g id="a_node3"><a xlink:href="classSignalIntegrity_1_1Lib_1_1Parsers_1_1ParserFile_1_1ParserFile.xhtml" target="_top" xlink:title="file handling base class for parsers">
<polygon fill="white" stroke="black" points="0,-397.5 0,-465.5 80,-465.5 80,-397.5 0,-397.5"/>
<text text-anchor="middle" x="40" y="-453.5" font-family="Helvetica,sans-Serif" font-size="10.00">ParserFile</text>
<polyline fill="none" stroke="black" points="0,-446.5 80,-446.5 "/>
<text text-anchor="middle" x="40" y="-434.5" font-family="Helvetica,sans-Serif" font-size="10.00"> </text>
<polyline fill="none" stroke="black" points="0,-427.5 80,-427.5 "/>
<text text-anchor="start" x="8" y="-415.5" font-family="Helvetica,sans-Serif" font-size="10.00">+ File()</text>
<text text-anchor="start" x="8" y="-404.5" font-family="Helvetica,sans-Serif" font-size="10.00">+ WriteToFile()</text>
</a>
</g>
</g>
<!-- Node3&#45;&gt;Node2 -->
<g id="edge2" class="edge">
<title>Node3&#45;&gt;Node2</title>
<path fill="none" stroke="midnightblue" d="M52.94,-387.63C56.42,-376.12 60.33,-363.15 64.35,-349.84"/>
<polygon fill="none" stroke="midnightblue" points="49.55,-386.75 50.01,-397.34 56.25,-388.77 49.55,-386.75"/>
</g>
<!-- Node4 -->
<g id="node4" class="node">
<title>Node4</title>
<g id="a_node4"><a xlink:href="classSignalIntegrity_1_1Lib_1_1Parsers_1_1ParserArgs_1_1ParserArgs.xhtml" target="_top" xlink:title="argument handling base class for parsers">
<polygon fill="white" stroke="black" points="98,-386.5 98,-476.5 206,-476.5 206,-386.5 98,-386.5"/>
<text text-anchor="middle" x="152" y="-464.5" font-family="Helvetica,sans-Serif" font-size="10.00">ParserArgs</text>
<polyline fill="none" stroke="black" points="98,-457.5 206,-457.5 "/>
<text text-anchor="start" x="106" y="-445.5" font-family="Helvetica,sans-Serif" font-size="10.00">+ m_vars</text>
<text text-anchor="start" x="106" y="-434.5" font-family="Helvetica,sans-Serif" font-size="10.00">+ m_args</text>
<polyline fill="none" stroke="black" points="98,-427.5 206,-427.5 "/>
<text text-anchor="start" x="106" y="-415.5" font-family="Helvetica,sans-Serif" font-size="10.00">+ AssignArguments()</text>
<text text-anchor="start" x="106" y="-404.5" font-family="Helvetica,sans-Serif" font-size="10.00">+ ReplaceArgs()</text>
<text text-anchor="start" x="106" y="-393.5" font-family="Helvetica,sans-Serif" font-size="10.00">+ ProcessVariables()</text>
</a>
</g>
</g>
<!-- Node4&#45;&gt;Node2 -->
<g id="edge3" class="edge">
<title>Node4&#45;&gt;Node2</title>
<path fill="none" stroke="midnightblue" d="M135.66,-376.38C133.1,-367.9 130.38,-358.9 127.62,-349.74"/>
<polygon fill="none" stroke="midnightblue" points="132.35,-377.51 138.59,-386.07 139.05,-375.48 132.35,-377.51"/>
</g>
</g>
</svg>
