<?xml version="1.0" encoding="UTF-8" standalone="no"?>
<!DOCTYPE svg PUBLIC "-//W3C//DTD SVG 1.1//EN"
 "http://www.w3.org/Graphics/SVG/1.1/DTD/svg11.dtd">
<!-- Generated by graphviz version 2.43.0 (0)
 -->
<!-- Title: VirtualProbeNumeric Pages: 1 -->
<svg width="310pt" height="805pt"
 viewBox="0.00 0.00 310.00 805.00" xmlns="http://www.w3.org/2000/svg" xmlns:xlink="http://www.w3.org/1999/xlink">
<g id="graph0" class="graph" transform="scale(1 1) rotate(0) translate(4 801)">
<title>VirtualProbeNumeric</title>
<polygon fill="white" stroke="transparent" points="-4,4 -4,-801 306,-801 306,4 -4,4"/>
<!-- Node1 -->
<g id="node1" class="node">
<title>Node1</title>
<g id="a_node1"><a xlink:title="class for performing virtual probing numerically.">
<polygon fill="#bfbfbf" stroke="black" points="99.5,-0.5 99.5,-68.5 217.5,-68.5 217.5,-0.5 99.5,-0.5"/>
<text text-anchor="middle" x="158.5" y="-56.5" font-family="Helvetica,sans-Serif" font-size="10.00">VirtualProbeNumeric</text>
<polyline fill="none" stroke="black" points="99.5,-49.5 217.5,-49.5 "/>
<text text-anchor="middle" x="158.5" y="-37.5" font-family="Helvetica,sans-Serif" font-size="10.00"> </text>
<polyline fill="none" stroke="black" points="99.5,-30.5 217.5,-30.5 "/>
<text text-anchor="start" x="107.5" y="-18.5" font-family="Helvetica,sans-Serif" font-size="10.00">+ __init__()</text>
<text text-anchor="start" x="107.5" y="-7.5" font-family="Helvetica,sans-Serif" font-size="10.00">+ TransferMatrix()</text>
</a>
</g>
</g>
<!-- Node2 -->
<g id="node2" class="node">
<title>Node2</title>
<g id="a_node2"><a xlink:href="classSignalIntegrity_1_1Lib_1_1SystemDescriptions_1_1VirtualProbe_1_1VirtualProbe.xhtml" target="_top" xlink:title="Base class for virtual probing.">
<polygon fill="white" stroke="black" points="20.5,-105.5 20.5,-228.5 146.5,-228.5 146.5,-105.5 20.5,-105.5"/>
<text text-anchor="middle" x="83.5" y="-216.5" font-family="Helvetica,sans-Serif" font-size="10.00">VirtualProbe</text>
<polyline fill="none" stroke="black" points="20.5,-209.5 146.5,-209.5 "/>
<text text-anchor="start" x="28.5" y="-197.5" font-family="Helvetica,sans-Serif" font-size="10.00">+ m_ml</text>
<text text-anchor="start" x="28.5" y="-186.5" font-family="Helvetica,sans-Serif" font-size="10.00">+ m_D</text>
<polyline fill="none" stroke="black" points="20.5,-179.5 146.5,-179.5 "/>
<text text-anchor="start" x="28.5" y="-167.5" font-family="Helvetica,sans-Serif" font-size="10.00">+ __init__()</text>
<text text-anchor="start" x="28.5" y="-156.5" font-family="Helvetica,sans-Serif" font-size="10.00">+ Check()</text>
<text text-anchor="start" x="28.5" y="-145.5" font-family="Helvetica,sans-Serif" font-size="10.00">+ pMeasurementList()</text>
<text text-anchor="start" x="28.5" y="-134.5" font-family="Helvetica,sans-Serif" font-size="10.00">+ pMeasurementList()</text>
<text text-anchor="start" x="28.5" y="-123.5" font-family="Helvetica,sans-Serif" font-size="10.00">+ pStimDef()</text>
<text text-anchor="start" x="28.5" y="-112.5" font-family="Helvetica,sans-Serif" font-size="10.00">+ pStimDef()</text>
</a>
</g>
</g>
<!-- Node2&#45;&gt;Node1 -->
<g id="edge1" class="edge">
<title>Node2&#45;&gt;Node1</title>
<path fill="none" stroke="midnightblue" d="M123.48,-96.43C129.05,-86.74 134.54,-77.19 139.47,-68.62"/>
<polygon fill="none" stroke="midnightblue" points="120.31,-94.92 118.37,-105.33 126.38,-98.41 120.31,-94.92"/>
</g>
<!-- Node3 -->
<g id="node3" class="node">
<title>Node3</title>
<g id="a_node3"><a xlink:href="classSignalIntegrity_1_1Lib_1_1SystemDescriptions_1_1Simulator_1_1Simulator.xhtml" target="_top" xlink:title="Base class for dealing with housekeeping for simulations.">
<polygon fill="white" stroke="black" points="0,-265.5 0,-432.5 167,-432.5 167,-265.5 0,-265.5"/>
<text text-anchor="middle" x="83.5" y="-420.5" font-family="Helvetica,sans-Serif" font-size="10.00">Simulator</text>
<polyline fill="none" stroke="black" points="0,-413.5 167,-413.5 "/>
<text text-anchor="start" x="8" y="-401.5" font-family="Helvetica,sans-Serif" font-size="10.00">+ m_ol</text>
<polyline fill="none" stroke="black" points="0,-394.5 167,-394.5 "/>
<text text-anchor="start" x="8" y="-382.5" font-family="Helvetica,sans-Serif" font-size="10.00">+ __init__()</text>
<text text-anchor="start" x="8" y="-371.5" font-family="Helvetica,sans-Serif" font-size="10.00">+ Check()</text>
<text text-anchor="start" x="8" y="-360.5" font-family="Helvetica,sans-Serif" font-size="10.00">+ pOutputList()</text>
<text text-anchor="start" x="8" y="-349.5" font-family="Helvetica,sans-Serif" font-size="10.00">+ pOutputList()</text>
<text text-anchor="start" x="8" y="-338.5" font-family="Helvetica,sans-Serif" font-size="10.00">+ AddVoltageSource()</text>
<text text-anchor="start" x="8" y="-327.5" font-family="Helvetica,sans-Serif" font-size="10.00">+ AddCurrentSource()</text>
<text text-anchor="start" x="8" y="-316.5" font-family="Helvetica,sans-Serif" font-size="10.00">+ SourceVector()</text>
<text text-anchor="start" x="8" y="-305.5" font-family="Helvetica,sans-Serif" font-size="10.00">+ SourceToStimsPrimeMatrix()</text>
<text text-anchor="start" x="8" y="-294.5" font-family="Helvetica,sans-Serif" font-size="10.00">+ StimsPrime()</text>
<text text-anchor="start" x="8" y="-283.5" font-family="Helvetica,sans-Serif" font-size="10.00">+ SIPrime()</text>
<text text-anchor="start" x="8" y="-272.5" font-family="Helvetica,sans-Serif" font-size="10.00">+ VoltageExtractionMatrix()</text>
</a>
</g>
</g>
<!-- Node3&#45;&gt;Node2 -->
<g id="edge2" class="edge">
<title>Node3&#45;&gt;Node2</title>
<path fill="none" stroke="midnightblue" d="M83.5,-255.19C83.5,-246.17 83.5,-237.19 83.5,-228.61"/>
<polygon fill="none" stroke="midnightblue" points="80,-255.38 83.5,-265.38 87,-255.38 80,-255.38"/>
</g>
<!-- Node4 -->
<g id="node4" class="node">
<title>Node4</title>
<g id="a_node4"><a xlink:href="classSignalIntegrity_1_1Lib_1_1SystemDescriptions_1_1SystemSParameters_1_1SystemSParameters.xhtml" target="_top" xlink:title="base class for housekeeping involving system s&#45;parameters calculations">
<polygon fill="white" stroke="black" points="25.5,-469.5 25.5,-592.5 141.5,-592.5 141.5,-469.5 25.5,-469.5"/>
<text text-anchor="middle" x="83.5" y="-580.5" font-family="Helvetica,sans-Serif" font-size="10.00">SystemSParameters</text>
<polyline fill="none" stroke="black" points="25.5,-573.5 141.5,-573.5 "/>
<text text-anchor="middle" x="83.5" y="-561.5" font-family="Helvetica,sans-Serif" font-size="10.00"> </text>
<polyline fill="none" stroke="black" points="25.5,-554.5 141.5,-554.5 "/>
<text text-anchor="start" x="33.5" y="-542.5" font-family="Helvetica,sans-Serif" font-size="10.00">+ __init__()</text>
<text text-anchor="start" x="33.5" y="-531.5" font-family="Helvetica,sans-Serif" font-size="10.00">+ PortANames()</text>
<text text-anchor="start" x="33.5" y="-520.5" font-family="Helvetica,sans-Serif" font-size="10.00">+ PortBNames()</text>
<text text-anchor="start" x="33.5" y="-509.5" font-family="Helvetica,sans-Serif" font-size="10.00">+ OtherNames()</text>
<text text-anchor="start" x="33.5" y="-498.5" font-family="Helvetica,sans-Serif" font-size="10.00">+ NodeVector()</text>
<text text-anchor="start" x="33.5" y="-487.5" font-family="Helvetica,sans-Serif" font-size="10.00">+ StimulusVector()</text>
<text text-anchor="start" x="33.5" y="-476.5" font-family="Helvetica,sans-Serif" font-size="10.00"># WeightsMatrix()</text>
</a>
</g>
</g>
<!-- Node4&#45;&gt;Node3 -->
<g id="edge3" class="edge">
<title>Node4&#45;&gt;Node3</title>
<path fill="none" stroke="midnightblue" d="M83.5,-459.25C83.5,-450.57 83.5,-441.63 83.5,-432.79"/>
<polygon fill="none" stroke="midnightblue" points="80,-459.31 83.5,-469.31 87,-459.31 80,-459.31"/>
</g>
<!-- Node5 -->
<g id="node5" class="node">
<title>Node5</title>
<g id="a_node5"><a xlink:href="classSignalIntegrity_1_1Lib_1_1SystemDescriptions_1_1SystemDescription_1_1SystemDescription.xhtml" target="_top" xlink:title="Allows the construction of system descriptions for use with all of the classes that solve schematics ...">
<polygon fill="white" stroke="black" points="18.5,-629.5 18.5,-796.5 148.5,-796.5 148.5,-629.5 18.5,-629.5"/>
<text text-anchor="middle" x="83.5" y="-784.5" font-family="Helvetica,sans-Serif" font-size="10.00">SystemDescription</text>
<polyline fill="none" stroke="black" points="18.5,-777.5 148.5,-777.5 "/>
<text text-anchor="start" x="26.5" y="-765.5" font-family="Helvetica,sans-Serif" font-size="10.00">+ m_UniqueDevice</text>
<text text-anchor="start" x="26.5" y="-754.5" font-family="Helvetica,sans-Serif" font-size="10.00">+ m_UniqueNode</text>
<polyline fill="none" stroke="black" points="18.5,-747.5 148.5,-747.5 "/>
<text text-anchor="start" x="26.5" y="-735.5" font-family="Helvetica,sans-Serif" font-size="10.00">+ __init__()</text>
<text text-anchor="start" x="26.5" y="-724.5" font-family="Helvetica,sans-Serif" font-size="10.00">+ AddDevice()</text>
<text text-anchor="start" x="26.5" y="-713.5" font-family="Helvetica,sans-Serif" font-size="10.00">+ AssignM()</text>
<text text-anchor="start" x="26.5" y="-702.5" font-family="Helvetica,sans-Serif" font-size="10.00">+ DeviceNames()</text>
<text text-anchor="start" x="26.5" y="-691.5" font-family="Helvetica,sans-Serif" font-size="10.00">+ IndexOfDevice()</text>
<text text-anchor="start" x="26.5" y="-680.5" font-family="Helvetica,sans-Serif" font-size="10.00">+ CheckConnections()</text>
<text text-anchor="start" x="26.5" y="-669.5" font-family="Helvetica,sans-Serif" font-size="10.00">+ ConnectDevicePort()</text>
<text text-anchor="start" x="26.5" y="-658.5" font-family="Helvetica,sans-Serif" font-size="10.00">+ AddPort()</text>
<text text-anchor="start" x="26.5" y="-647.5" font-family="Helvetica,sans-Serif" font-size="10.00">+ AssignSParameters()</text>
<text text-anchor="start" x="26.5" y="-636.5" font-family="Helvetica,sans-Serif" font-size="10.00">+ Print()</text>
</a>
</g>
</g>
<!-- Node5&#45;&gt;Node4 -->
<g id="edge4" class="edge">
<title>Node5&#45;&gt;Node4</title>
<path fill="none" stroke="midnightblue" d="M83.5,-619.19C83.5,-610.17 83.5,-601.19 83.5,-592.61"/>
<polygon fill="none" stroke="midnightblue" points="80,-619.38 83.5,-629.38 87,-619.38 80,-619.38"/>
</g>
<!-- Node6 -->
<g id="node6" class="node">
<title>Node6</title>
<g id="a_node6"><a xlink:href="classSignalIntegrity_1_1Lib_1_1SystemDescriptions_1_1Numeric_1_1Numeric.xhtml" target="_top" xlink:title="handles numeric details of derived class solutions">
<polygon fill="white" stroke="black" points="165,-111 165,-223 302,-223 302,-111 165,-111"/>
<text text-anchor="middle" x="233.5" y="-211" font-family="Helvetica,sans-Serif" font-size="10.00">Numeric</text>
<polyline fill="none" stroke="black" points="165,-204 302,-204 "/>
<text text-anchor="start" x="173" y="-192" font-family="Helvetica,sans-Serif" font-size="10.00">+ alwaysUseSVD</text>
<text text-anchor="start" x="173" y="-181" font-family="Helvetica,sans-Serif" font-size="10.00">+ trySVD</text>
<text text-anchor="start" x="173" y="-170" font-family="Helvetica,sans-Serif" font-size="10.00">+ singularValueLimit</text>
<text text-anchor="start" x="173" y="-159" font-family="Helvetica,sans-Serif" font-size="10.00">+ conditionNumberLimit</text>
<polyline fill="none" stroke="black" points="165,-152 302,-152 "/>
<text text-anchor="start" x="173" y="-140" font-family="Helvetica,sans-Serif" font-size="10.00">+ InstallSafeTees()</text>
<text text-anchor="start" x="173" y="-129" font-family="Helvetica,sans-Serif" font-size="10.00">+ Dagger()</text>
<text text-anchor="start" x="173" y="-118" font-family="Helvetica,sans-Serif" font-size="10.00">+ PermutationMatrix()</text>
</a>
</g>
</g>
<!-- Node6&#45;&gt;Node1 -->
<g id="edge5" class="edge">
<title>Node6&#45;&gt;Node1</title>
<path fill="none" stroke="midnightblue" d="M196.65,-101.88C190.03,-90.36 183.38,-78.79 177.53,-68.61"/>
<polygon fill="none" stroke="midnightblue" points="193.68,-103.73 201.69,-110.66 199.74,-100.24 193.68,-103.73"/>
</g>
</g>
</svg>
