<?xml version="1.0" encoding="UTF-8" standalone="no"?>
<!DOCTYPE svg PUBLIC "-//W3C//DTD SVG 1.1//EN"
 "http://www.w3.org/Graphics/SVG/1.1/DTD/svg11.dtd">
<!-- Generated by graphviz version 2.43.0 (0)
 -->
<!-- Title: WaveformDecimator Pages: 1 -->
<svg width="242pt" height="303pt"
 viewBox="0.00 0.00 241.50 303.00" xmlns="http://www.w3.org/2000/svg" xmlns:xlink="http://www.w3.org/1999/xlink">
<g id="graph0" class="graph" transform="scale(1 1) rotate(0) translate(4 299)">
<title>WaveformDecimator</title>
<polygon fill="white" stroke="transparent" points="-4,4 -4,-299 237.5,-299 237.5,4 -4,4"/>
<!-- Node1 -->
<g id="node1" class="node">
<title>Node1</title>
<g id="a_node1"><a xlink:title="decimates waveforms">
<polygon fill="#bfbfbf" stroke="black" points="41.5,-0.5 41.5,-90.5 175.5,-90.5 175.5,-0.5 41.5,-0.5"/>
<text text-anchor="middle" x="108.5" y="-78.5" font-family="Helvetica,sans-Serif" font-size="10.00">WaveformDecimator</text>
<polyline fill="none" stroke="black" points="41.5,-71.5 175.5,-71.5 "/>
<text text-anchor="start" x="49.5" y="-59.5" font-family="Helvetica,sans-Serif" font-size="10.00">+ df</text>
<text text-anchor="start" x="49.5" y="-48.5" font-family="Helvetica,sans-Serif" font-size="10.00">+ dph</text>
<polyline fill="none" stroke="black" points="41.5,-41.5 175.5,-41.5 "/>
<text text-anchor="start" x="49.5" y="-29.5" font-family="Helvetica,sans-Serif" font-size="10.00">+ __init__()</text>
<text text-anchor="start" x="49.5" y="-18.5" font-family="Helvetica,sans-Serif" font-size="10.00">+ ProcessWaveform()</text>
<text text-anchor="start" x="49.5" y="-7.5" font-family="Helvetica,sans-Serif" font-size="10.00">+ DecimateWaveform()</text>
</a>
</g>
</g>
<!-- Node2 -->
<g id="node2" class="node">
<title>Node2</title>
<g id="a_node2"><a xlink:href="classSignalIntegrity_1_1Lib_1_1TimeDomain_1_1Filters_1_1FilterDescriptor_1_1FilterDescriptor.xhtml" target="_top" xlink:title="FilterDescriptor.py.">
<polygon fill="white" stroke="black" points="0,-127.5 0,-294.5 91,-294.5 91,-127.5 0,-127.5"/>
<text text-anchor="middle" x="45.5" y="-282.5" font-family="Helvetica,sans-Serif" font-size="10.00">FilterDescriptor</text>
<polyline fill="none" stroke="black" points="0,-275.5 91,-275.5 "/>
<text text-anchor="start" x="8" y="-263.5" font-family="Helvetica,sans-Serif" font-size="10.00">+ U</text>
<text text-anchor="start" x="8" y="-252.5" font-family="Helvetica,sans-Serif" font-size="10.00">+ D</text>
<text text-anchor="start" x="8" y="-241.5" font-family="Helvetica,sans-Serif" font-size="10.00">+ S</text>
<polyline fill="none" stroke="black" points="0,-234.5 91,-234.5 "/>
<text text-anchor="start" x="8" y="-222.5" font-family="Helvetica,sans-Serif" font-size="10.00">+ __init__()</text>
<text text-anchor="start" x="8" y="-211.5" font-family="Helvetica,sans-Serif" font-size="10.00">+ __eq__()</text>
<text text-anchor="start" x="8" y="-200.5" font-family="Helvetica,sans-Serif" font-size="10.00">+ __mul__()</text>
<text text-anchor="start" x="8" y="-189.5" font-family="Helvetica,sans-Serif" font-size="10.00">+ Before()</text>
<text text-anchor="start" x="8" y="-178.5" font-family="Helvetica,sans-Serif" font-size="10.00">+ After()</text>
<text text-anchor="start" x="8" y="-167.5" font-family="Helvetica,sans-Serif" font-size="10.00">+ TrimLeft()</text>
<text text-anchor="start" x="8" y="-156.5" font-family="Helvetica,sans-Serif" font-size="10.00">+ TrimRight()</text>
<text text-anchor="start" x="8" y="-145.5" font-family="Helvetica,sans-Serif" font-size="10.00">+ TrimTotal()</text>
<text text-anchor="start" x="8" y="-134.5" font-family="Helvetica,sans-Serif" font-size="10.00">+ Print()</text>
</a>
</g>
</g>
<!-- Node2&#45;&gt;Node1 -->
<g id="edge1" class="edge">
<title>Node2&#45;&gt;Node1</title>
<path fill="none" stroke="midnightblue" d="M81.02,-117.81C84.66,-108.38 88.22,-99.13 91.51,-90.58"/>
<polygon fill="none" stroke="midnightblue" points="77.7,-116.7 77.37,-127.29 84.23,-119.22 77.7,-116.7"/>
</g>
<!-- Node3 -->
<g id="node3" class="node">
<title>Node3</title>
<g id="a_node3"><a xlink:href="classSignalIntegrity_1_1Lib_1_1TimeDomain_1_1Filters_1_1WaveformProcessor_1_1WaveformProcessor.xhtml" target="_top" xlink:title="WaveformProcessor.py.">
<polygon fill="white" stroke="black" points="109.5,-182.5 109.5,-239.5 233.5,-239.5 233.5,-182.5 109.5,-182.5"/>
<text text-anchor="middle" x="171.5" y="-227.5" font-family="Helvetica,sans-Serif" font-size="10.00">WaveformProcessor</text>
<polyline fill="none" stroke="black" points="109.5,-220.5 233.5,-220.5 "/>
<text text-anchor="middle" x="171.5" y="-208.5" font-family="Helvetica,sans-Serif" font-size="10.00"> </text>
<polyline fill="none" stroke="black" points="109.5,-201.5 233.5,-201.5 "/>
<text text-anchor="start" x="117.5" y="-189.5" font-family="Helvetica,sans-Serif" font-size="10.00">+ ProcessWaveform()</text>
</a>
</g>
</g>
<!-- Node3&#45;&gt;Node1 -->
<g id="edge2" class="edge">
<title>Node3&#45;&gt;Node1</title>
<path fill="none" stroke="midnightblue" d="M157.11,-172.66C147.72,-148.29 135.42,-116.37 125.54,-90.73"/>
<polygon fill="none" stroke="midnightblue" points="153.95,-174.19 160.81,-182.26 160.48,-171.67 153.95,-174.19"/>
</g>
</g>
</svg>
