<?xml version="1.0" encoding="UTF-8" standalone="no"?>
<!DOCTYPE svg PUBLIC "-//W3C//DTD SVG 1.1//EN"
 "http://www.w3.org/Graphics/SVG/1.1/DTD/svg11.dtd">
<!-- Generated by graphviz version 2.43.0 (0)
 -->
<!-- Title: LogarithmicallySpacedFrequencyList Pages: 1 -->
<svg width="184pt" height="303pt"
 viewBox="0.00 0.00 184.00 303.00" xmlns="http://www.w3.org/2000/svg" xmlns:xlink="http://www.w3.org/1999/xlink">
<g id="graph0" class="graph" transform="scale(1 1) rotate(0) translate(4 299)">
<title>LogarithmicallySpacedFrequencyList</title>
<polygon fill="white" stroke="transparent" points="-4,4 -4,-299 180,-299 180,4 -4,4"/>
<!-- Node1 -->
<g id="node1" class="node">
<title>Node1</title>
<g id="a_node1"><a xlink:title="a logarithmically spaced frequency list">
<polygon fill="#bfbfbf" stroke="black" points="0,-0.5 0,-57.5 176,-57.5 176,-0.5 0,-0.5"/>
<text text-anchor="middle" x="88" y="-45.5" font-family="Helvetica,sans-Serif" font-size="10.00">LogarithmicallySpacedFrequencyList</text>
<polyline fill="none" stroke="black" points="0,-38.5 176,-38.5 "/>
<text text-anchor="middle" x="88" y="-26.5" font-family="Helvetica,sans-Serif" font-size="10.00"> </text>
<polyline fill="none" stroke="black" points="0,-19.5 176,-19.5 "/>
<text text-anchor="start" x="8" y="-7.5" font-family="Helvetica,sans-Serif" font-size="10.00">+ __init__()</text>
</a>
</g>
</g>
<!-- Node2 -->
<g id="node2" class="node">
<title>Node2</title>
<g id="a_node2"><a xlink:href="classSignalIntegrity_1_1Lib_1_1FrequencyDomain_1_1FrequencyList_1_1FrequencyList.xhtml" target="_top" xlink:title="Frequency lists.">
<polygon fill="white" stroke="black" points="26.5,-94.5 26.5,-294.5 149.5,-294.5 149.5,-94.5 26.5,-94.5"/>
<text text-anchor="middle" x="88" y="-282.5" font-family="Helvetica,sans-Serif" font-size="10.00">FrequencyList</text>
<polyline fill="none" stroke="black" points="26.5,-275.5 149.5,-275.5 "/>
<text text-anchor="start" x="34.5" y="-263.5" font-family="Helvetica,sans-Serif" font-size="10.00">+ N</text>
<text text-anchor="start" x="34.5" y="-252.5" font-family="Helvetica,sans-Serif" font-size="10.00">+ Fe</text>
<text text-anchor="start" x="34.5" y="-241.5" font-family="Helvetica,sans-Serif" font-size="10.00">+ m_EvenlySpaced</text>
<polyline fill="none" stroke="black" points="26.5,-234.5 149.5,-234.5 "/>
<text text-anchor="start" x="34.5" y="-222.5" font-family="Helvetica,sans-Serif" font-size="10.00">+ __init__()</text>
<text text-anchor="start" x="34.5" y="-211.5" font-family="Helvetica,sans-Serif" font-size="10.00">+ SetEvenlySpaced()</text>
<text text-anchor="start" x="34.5" y="-200.5" font-family="Helvetica,sans-Serif" font-size="10.00">+ SetList()</text>
<text text-anchor="start" x="34.5" y="-189.5" font-family="Helvetica,sans-Serif" font-size="10.00">+ EvenlySpaced()</text>
<text text-anchor="start" x="34.5" y="-178.5" font-family="Helvetica,sans-Serif" font-size="10.00">+ Frequencies()</text>
<text text-anchor="start" x="34.5" y="-167.5" font-family="Helvetica,sans-Serif" font-size="10.00">+ CheckEvenlySpaced()</text>
<text text-anchor="start" x="34.5" y="-156.5" font-family="Helvetica,sans-Serif" font-size="10.00">+ __div__()</text>
<text text-anchor="start" x="34.5" y="-145.5" font-family="Helvetica,sans-Serif" font-size="10.00">+ __truediv__()</text>
<text text-anchor="start" x="34.5" y="-134.5" font-family="Helvetica,sans-Serif" font-size="10.00">+ __mul__()</text>
<text text-anchor="start" x="34.5" y="-123.5" font-family="Helvetica,sans-Serif" font-size="10.00">+ TimeDescriptor()</text>
<text text-anchor="start" x="34.5" y="-112.5" font-family="Helvetica,sans-Serif" font-size="10.00">+ __eq__()</text>
<text text-anchor="start" x="34.5" y="-101.5" font-family="Helvetica,sans-Serif" font-size="10.00">+ __ne__()</text>
</a>
</g>
</g>
<!-- Node2&#45;&gt;Node1 -->
<g id="edge1" class="edge">
<title>Node2&#45;&gt;Node1</title>
<path fill="none" stroke="midnightblue" d="M88,-83.96C88,-74.37 88,-65.35 88,-57.53"/>
<polygon fill="none" stroke="midnightblue" points="84.5,-84.15 88,-94.15 91.5,-84.15 84.5,-84.15"/>
</g>
</g>
</svg>
