<?xml version="1.0" encoding="UTF-8" standalone="no"?>
<!DOCTYPE svg PUBLIC "-//W3C//DTD SVG 1.1//EN"
 "http://www.w3.org/Graphics/SVG/1.1/DTD/svg11.dtd">
<!-- Generated by graphviz version 2.40.1 (20161225.0304)
 -->
<!-- Title: SystemSParametersNumericParser Pages: 1 -->
<svg width="367pt" height="441pt"
 viewBox="0.00 0.00 367.50 441.00" xmlns="http://www.w3.org/2000/svg" xmlns:xlink="http://www.w3.org/1999/xlink">
<g id="graph0" class="graph" transform="scale(1 1) rotate(0) translate(4 437)">
<title>SystemSParametersNumericParser</title>
<polygon fill="#ffffff" stroke="transparent" points="-4,4 -4,-437 363.5,-437 363.5,4 -4,4"/>
<!-- Node6 -->
<g id="node1" class="node">
<title>Node6</title>
<polygon fill="#bfbfbf" stroke="#000000" points="128,-.5 128,-79.5 272,-79.5 272,-.5 128,-.5"/>
<text text-anchor="start" x="136" y="-67.5" font-family="Helvetica,sans-Serif" font-size="10.00" fill="#000000">SystemSParametersNumeric</text>
<text text-anchor="middle" x="200" y="-56.5" font-family="Helvetica,sans-Serif" font-size="10.00" fill="#000000">Parser</text>
<polyline fill="none" stroke="#000000" points="128,-49.5 272,-49.5 "/>
<text text-anchor="start" x="136" y="-37.5" font-family="Helvetica,sans-Serif" font-size="10.00" fill="#000000">+ sf</text>
<polyline fill="none" stroke="#000000" points="128,-30.5 272,-30.5 "/>
<text text-anchor="start" x="136" y="-18.5" font-family="Helvetica,sans-Serif" font-size="10.00" fill="#000000">+ __init__()</text>
<text text-anchor="start" x="136" y="-7.5" font-family="Helvetica,sans-Serif" font-size="10.00" fill="#000000">+ SParameters()</text>
</g>
<!-- Node7 -->
<g id="node2" class="node">
<title>Node7</title>
<g id="a_node2"><a xlink:href="classSignalIntegrity_1_1Lib_1_1Parsers_1_1SystemDescriptionParser_1_1SystemDescriptionParser.xhtml" target="_top" xlink:title="Parses netlists and produces system descriptions. ">
<polygon fill="#ffffff" stroke="#000000" points="0,-116.5 0,-272.5 128,-272.5 128,-116.5 0,-116.5"/>
<text text-anchor="middle" x="64" y="-260.5" font-family="Helvetica,sans-Serif" font-size="10.00" fill="#000000">SystemDescriptionParser</text>
<polyline fill="none" stroke="#000000" points="0,-253.5 128,-253.5 "/>
<text text-anchor="start" x="8" y="-241.5" font-family="Helvetica,sans-Serif" font-size="10.00" fill="#000000">+ m_sd</text>
<text text-anchor="start" x="8" y="-230.5" font-family="Helvetica,sans-Serif" font-size="10.00" fill="#000000">+ m_f</text>
<text text-anchor="start" x="8" y="-219.5" font-family="Helvetica,sans-Serif" font-size="10.00" fill="#000000">+ m_lines</text>
<text text-anchor="start" x="8" y="-208.5" font-family="Helvetica,sans-Serif" font-size="10.00" fill="#000000">+ m_addThru</text>
<text text-anchor="start" x="8" y="-197.5" font-family="Helvetica,sans-Serif" font-size="10.00" fill="#000000">+ m_spc</text>
<text text-anchor="start" x="8" y="-186.5" font-family="Helvetica,sans-Serif" font-size="10.00" fill="#000000">+ m_spcl</text>
<text text-anchor="start" x="8" y="-175.5" font-family="Helvetica,sans-Serif" font-size="10.00" fill="#000000">+ m_ul</text>
<polyline fill="none" stroke="#000000" points="0,-168.5 128,-168.5 "/>
<text text-anchor="start" x="8" y="-156.5" font-family="Helvetica,sans-Serif" font-size="10.00" fill="#000000">+ __init__()</text>
<text text-anchor="start" x="8" y="-145.5" font-family="Helvetica,sans-Serif" font-size="10.00" fill="#000000">+ SystemDescription()</text>
<text text-anchor="start" x="8" y="-134.5" font-family="Helvetica,sans-Serif" font-size="10.00" fill="#000000">+ AddLine()</text>
<text text-anchor="start" x="8" y="-123.5" font-family="Helvetica,sans-Serif" font-size="10.00" fill="#000000">+ AddLines()</text>
</a>
</g>
</g>
<!-- Node7&#45;&gt;Node6 -->
<g id="edge1" class="edge">
<title>Node7&#45;&gt;Node6</title>
<path fill="none" stroke="#191970" d="M134.6326,-114.2593C145.2537,-102.1934 155.789,-90.2249 165.2001,-79.5337"/>
<polygon fill="none" stroke="#191970" points="131.9979,-111.9553 128.0177,-121.7741 137.2522,-116.5805 131.9979,-111.9553"/>
</g>
<!-- Node8 -->
<g id="node3" class="node">
<title>Node8</title>
<g id="a_node3"><a xlink:href="classSignalIntegrity_1_1Lib_1_1Parsers_1_1ParserFile_1_1ParserFile.xhtml" target="_top" xlink:title="file handling base class for parsers ">
<polygon fill="#ffffff" stroke="#000000" points="23,-337 23,-405 105,-405 105,-337 23,-337"/>
<text text-anchor="middle" x="64" y="-393" font-family="Helvetica,sans-Serif" font-size="10.00" fill="#000000">ParserFile</text>
<polyline fill="none" stroke="#000000" points="23,-386 105,-386 "/>
<text text-anchor="middle" x="64" y="-374" font-family="Helvetica,sans-Serif" font-size="10.00" fill="#000000"> </text>
<polyline fill="none" stroke="#000000" points="23,-367 105,-367 "/>
<text text-anchor="start" x="31" y="-355" font-family="Helvetica,sans-Serif" font-size="10.00" fill="#000000">+ File()</text>
<text text-anchor="start" x="31" y="-344" font-family="Helvetica,sans-Serif" font-size="10.00" fill="#000000">+ WriteToFile()</text>
</a>
</g>
</g>
<!-- Node8&#45;&gt;Node7 -->
<g id="edge2" class="edge">
<title>Node8&#45;&gt;Node7</title>
<path fill="none" stroke="#191970" d="M64,-326.6282C64,-310.2466 64,-291.1594 64,-272.6702"/>
<polygon fill="none" stroke="#191970" points="60.5001,-326.969 64,-336.969 67.5001,-326.9691 60.5001,-326.969"/>
</g>
<!-- Node9 -->
<g id="node4" class="node">
<title>Node9</title>
<g id="a_node4"><a xlink:href="classSignalIntegrity_1_1Lib_1_1CallBacker_1_1CallBacker.xhtml" target="_top" xlink:title="Handles Callbacks that allow progress reporting during long calculations and capability to abort...">
<polygon fill="#ffffff" stroke="#000000" points="146.5,-144 146.5,-245 253.5,-245 253.5,-144 146.5,-144"/>
<text text-anchor="middle" x="200" y="-233" font-family="Helvetica,sans-Serif" font-size="10.00" fill="#000000">CallBacker</text>
<polyline fill="none" stroke="#000000" points="146.5,-226 253.5,-226 "/>
<text text-anchor="start" x="154.5" y="-214" font-family="Helvetica,sans-Serif" font-size="10.00" fill="#000000">+ callback</text>
<polyline fill="none" stroke="#000000" points="146.5,-207 253.5,-207 "/>
<text text-anchor="start" x="154.5" y="-195" font-family="Helvetica,sans-Serif" font-size="10.00" fill="#000000">+ __init__()</text>
<text text-anchor="start" x="154.5" y="-184" font-family="Helvetica,sans-Serif" font-size="10.00" fill="#000000">+ HasACallBack()</text>
<text text-anchor="start" x="154.5" y="-173" font-family="Helvetica,sans-Serif" font-size="10.00" fill="#000000">+ CallBack()</text>
<text text-anchor="start" x="154.5" y="-162" font-family="Helvetica,sans-Serif" font-size="10.00" fill="#000000">+ InstallCallback()</text>
<text text-anchor="start" x="154.5" y="-151" font-family="Helvetica,sans-Serif" font-size="10.00" fill="#000000">+ RemoveCallback()</text>
</a>
</g>
</g>
<!-- Node9&#45;&gt;Node6 -->
<g id="edge3" class="edge">
<title>Node9&#45;&gt;Node6</title>
<path fill="none" stroke="#191970" d="M200,-133.7357C200,-115.6576 200,-96.3162 200,-79.9257"/>
<polygon fill="none" stroke="#191970" points="196.5001,-133.9109 200,-143.9109 203.5001,-133.911 196.5001,-133.9109"/>
</g>
<!-- Node10 -->
<g id="node5" class="node">
<title>Node10</title>
<g id="a_node5"><a xlink:href="classSignalIntegrity_1_1Lib_1_1ResultsCache_1_1LinesCache.xhtml" target="_top" xlink:title="Caches results calculated based on netlist lines, as used in all of the parser classes. ">
<polygon fill="#ffffff" stroke="#000000" points="271.5,-155 271.5,-234 358.5,-234 358.5,-155 271.5,-155"/>
<text text-anchor="middle" x="315" y="-222" font-family="Helvetica,sans-Serif" font-size="10.00" fill="#000000">LinesCache</text>
<polyline fill="none" stroke="#000000" points="271.5,-215 358.5,-215 "/>
<text text-anchor="middle" x="315" y="-203" font-family="Helvetica,sans-Serif" font-size="10.00" fill="#000000"> </text>
<polyline fill="none" stroke="#000000" points="271.5,-196 358.5,-196 "/>
<text text-anchor="start" x="279.5" y="-184" font-family="Helvetica,sans-Serif" font-size="10.00" fill="#000000">+ __init__()</text>
<text text-anchor="start" x="279.5" y="-173" font-family="Helvetica,sans-Serif" font-size="10.00" fill="#000000">+ HashValue()</text>
<text text-anchor="start" x="279.5" y="-162" font-family="Helvetica,sans-Serif" font-size="10.00" fill="#000000">+ CheckTimes()</text>
</a>
</g>
</g>
<!-- Node10&#45;&gt;Node6 -->
<g id="edge4" class="edge">
<title>Node10&#45;&gt;Node6</title>
<path fill="none" stroke="#191970" d="M283.5712,-146.4615C276.6345,-136.2843 269.2028,-125.6927 262,-116 253.0623,-103.9726 242.9431,-91.2336 233.5108,-79.6933"/>
<polygon fill="none" stroke="#191970" points="280.7651,-148.5601 289.2657,-154.884 286.5641,-144.6393 280.7651,-148.5601"/>
</g>
<!-- Node11 -->
<g id="node6" class="node">
<title>Node11</title>
<g id="a_node6"><a xlink:href="classSignalIntegrity_1_1Lib_1_1ResultsCache_1_1ResultsCache.xhtml" target="_top" xlink:title="base class for results caching ">
<polygon fill="#ffffff" stroke="#000000" points="270.5,-309.5 270.5,-432.5 359.5,-432.5 359.5,-309.5 270.5,-309.5"/>
<text text-anchor="middle" x="315" y="-420.5" font-family="Helvetica,sans-Serif" font-size="10.00" fill="#000000">ResultsCache</text>
<polyline fill="none" stroke="#000000" points="270.5,-413.5 359.5,-413.5 "/>
<text text-anchor="start" x="278.5" y="-401.5" font-family="Helvetica,sans-Serif" font-size="10.00" fill="#000000">+ filename</text>
<text text-anchor="start" x="278.5" y="-390.5" font-family="Helvetica,sans-Serif" font-size="10.00" fill="#000000">+ extra</text>
<text text-anchor="start" x="278.5" y="-379.5" font-family="Helvetica,sans-Serif" font-size="10.00" fill="#000000">+ hash</text>
<polyline fill="none" stroke="#000000" points="270.5,-372.5 359.5,-372.5 "/>
<text text-anchor="start" x="278.5" y="-360.5" font-family="Helvetica,sans-Serif" font-size="10.00" fill="#000000">+ __init__()</text>
<text text-anchor="start" x="278.5" y="-349.5" font-family="Helvetica,sans-Serif" font-size="10.00" fill="#000000">+ CheckCache()</text>
<text text-anchor="start" x="278.5" y="-338.5" font-family="Helvetica,sans-Serif" font-size="10.00" fill="#000000">+ CacheResult()</text>
<text text-anchor="start" x="278.5" y="-327.5" font-family="Helvetica,sans-Serif" font-size="10.00" fill="#000000">+ FileTime()</text>
<text text-anchor="start" x="278.5" y="-316.5" font-family="Helvetica,sans-Serif" font-size="10.00" fill="#000000">+ CheckTimes()</text>
</a>
</g>
</g>
<!-- Node11&#45;&gt;Node10 -->
<g id="edge5" class="edge">
<title>Node11&#45;&gt;Node10</title>
<path fill="none" stroke="#191970" d="M315,-299.1834C315,-276.9658 315,-253.3078 315,-234.1135"/>
<polygon fill="none" stroke="#191970" points="311.5001,-299.2688 315,-309.2689 318.5001,-299.2689 311.5001,-299.2688"/>
</g>
</g>
</svg>
