<?xml version="1.0" encoding="UTF-8" standalone="no"?>
<!DOCTYPE svg PUBLIC "-//W3C//DTD SVG 1.1//EN"
 "http://www.w3.org/Graphics/SVG/1.1/DTD/svg11.dtd">
<!-- Generated by graphviz version 2.40.1 (20161225.0304)
 -->
<!-- Title: ResultsCache Pages: 1 -->
<svg width="602pt" height="364pt"
 viewBox="0.00 0.00 602.00 364.00" xmlns="http://www.w3.org/2000/svg" xmlns:xlink="http://www.w3.org/1999/xlink">
<g id="graph0" class="graph" transform="scale(1 1) rotate(0) translate(4 360)">
<title>ResultsCache</title>
<polygon fill="#ffffff" stroke="transparent" points="-4,4 -4,-360 598,-360 598,4 -4,4"/>
<!-- Node0 -->
<g id="node1" class="node">
<title>Node0</title>
<polygon fill="#bfbfbf" stroke="#000000" points="248,-243.5 248,-355.5 337,-355.5 337,-243.5 248,-243.5"/>
<text text-anchor="middle" x="292.5" y="-343.5" font-family="Helvetica,sans-Serif" font-size="10.00" fill="#000000">ResultsCache</text>
<polyline fill="none" stroke="#000000" points="248,-336.5 337,-336.5 "/>
<text text-anchor="start" x="256" y="-324.5" font-family="Helvetica,sans-Serif" font-size="10.00" fill="#000000">+ filename</text>
<text text-anchor="start" x="256" y="-313.5" font-family="Helvetica,sans-Serif" font-size="10.00" fill="#000000">+ extra</text>
<text text-anchor="start" x="256" y="-302.5" font-family="Helvetica,sans-Serif" font-size="10.00" fill="#000000">+ hash</text>
<polyline fill="none" stroke="#000000" points="248,-295.5 337,-295.5 "/>
<text text-anchor="start" x="256" y="-283.5" font-family="Helvetica,sans-Serif" font-size="10.00" fill="#000000">+ __init__()</text>
<text text-anchor="start" x="256" y="-272.5" font-family="Helvetica,sans-Serif" font-size="10.00" fill="#000000">+ CheckCache()</text>
<text text-anchor="start" x="256" y="-261.5" font-family="Helvetica,sans-Serif" font-size="10.00" fill="#000000">+ CacheResult()</text>
<text text-anchor="start" x="256" y="-250.5" font-family="Helvetica,sans-Serif" font-size="10.00" fill="#000000">+ CheckTimes()</text>
</g>
<!-- Node1 -->
<g id="node2" class="node">
<title>Node1</title>
<g id="a_node2"><a xlink:href="classSignalIntegrity_1_1ResultsCache_1_1LinesCache.xhtml" target="_top" xlink:title="classdocs ">
<polygon fill="#ffffff" stroke="#000000" points="249,-116.5 249,-206.5 336,-206.5 336,-116.5 249,-116.5"/>
<text text-anchor="middle" x="292.5" y="-194.5" font-family="Helvetica,sans-Serif" font-size="10.00" fill="#000000">LinesCache</text>
<polyline fill="none" stroke="#000000" points="249,-187.5 336,-187.5 "/>
<text text-anchor="middle" x="292.5" y="-175.5" font-family="Helvetica,sans-Serif" font-size="10.00" fill="#000000"> </text>
<polyline fill="none" stroke="#000000" points="249,-168.5 336,-168.5 "/>
<text text-anchor="start" x="257" y="-156.5" font-family="Helvetica,sans-Serif" font-size="10.00" fill="#000000">+ __init__()</text>
<text text-anchor="start" x="257" y="-145.5" font-family="Helvetica,sans-Serif" font-size="10.00" fill="#000000">+ HashValue()</text>
<text text-anchor="start" x="257" y="-134.5" font-family="Helvetica,sans-Serif" font-size="10.00" fill="#000000">+ FileTime()</text>
<text text-anchor="start" x="257" y="-123.5" font-family="Helvetica,sans-Serif" font-size="10.00" fill="#000000">+ CheckTimes()</text>
</a>
</g>
</g>
<!-- Node0&#45;&gt;Node1 -->
<g id="edge1" class="edge">
<title>Node0&#45;&gt;Node1</title>
<path fill="none" stroke="#191970" d="M292.5,-233.2386C292.5,-224.2122 292.5,-215.1233 292.5,-206.5909"/>
<polygon fill="none" stroke="#191970" points="289.0001,-233.3701 292.5,-243.3701 296.0001,-233.3702 289.0001,-233.3701"/>
</g>
<!-- Node2 -->
<g id="node3" class="node">
<title>Node2</title>
<g id="a_node3"><a xlink:href="classSignalIntegrity_1_1Parsers_1_1DeembedderNumericParser_1_1DeembedderNumericParser.xhtml" target="_top" xlink:title="generates deembedd s&#45;parameters from a netlist ">
<polygon fill="#ffffff" stroke="#000000" points="0,-6 0,-74 137,-74 137,-6 0,-6"/>
<text text-anchor="middle" x="68.5" y="-62" font-family="Helvetica,sans-Serif" font-size="10.00" fill="#000000">DeembedderNumericParser</text>
<polyline fill="none" stroke="#000000" points="0,-55 137,-55 "/>
<text text-anchor="start" x="8" y="-43" font-family="Helvetica,sans-Serif" font-size="10.00" fill="#000000">+ sf</text>
<polyline fill="none" stroke="#000000" points="0,-36 137,-36 "/>
<text text-anchor="start" x="8" y="-24" font-family="Helvetica,sans-Serif" font-size="10.00" fill="#000000">+ __init__()</text>
<text text-anchor="start" x="8" y="-13" font-family="Helvetica,sans-Serif" font-size="10.00" fill="#000000">+ Deembed()</text>
</a>
</g>
</g>
<!-- Node1&#45;&gt;Node2 -->
<g id="edge2" class="edge">
<title>Node1&#45;&gt;Node2</title>
<path fill="none" stroke="#191970" d="M239.8683,-132.952C207.343,-115.3099 165.422,-92.5715 131.1839,-74.0004"/>
<polygon fill="none" stroke="#191970" points="238.3198,-136.0938 248.7788,-137.7851 241.6574,-129.9406 238.3198,-136.0938"/>
</g>
<!-- Node3 -->
<g id="node4" class="node">
<title>Node3</title>
<g id="a_node4"><a xlink:href="classSignalIntegrity_1_1Parsers_1_1SimulatorNumericParser_1_1SimulatorNumericParser.xhtml" target="_top" xlink:title="performs numeric simulations from netlists ">
<polygon fill="#ffffff" stroke="#000000" points="155,-6 155,-74 278,-74 278,-6 155,-6"/>
<text text-anchor="middle" x="216.5" y="-62" font-family="Helvetica,sans-Serif" font-size="10.00" fill="#000000">SimulatorNumericParser</text>
<polyline fill="none" stroke="#000000" points="155,-55 278,-55 "/>
<text text-anchor="start" x="163" y="-43" font-family="Helvetica,sans-Serif" font-size="10.00" fill="#000000">+ transferMatrices</text>
<polyline fill="none" stroke="#000000" points="155,-36 278,-36 "/>
<text text-anchor="start" x="163" y="-24" font-family="Helvetica,sans-Serif" font-size="10.00" fill="#000000">+ __init__()</text>
<text text-anchor="start" x="163" y="-13" font-family="Helvetica,sans-Serif" font-size="10.00" fill="#000000">+ TransferMatrices()</text>
</a>
</g>
</g>
<!-- Node1&#45;&gt;Node3 -->
<g id="edge3" class="edge">
<title>Node1&#45;&gt;Node3</title>
<path fill="none" stroke="#191970" d="M258.8295,-107.6714C251.732,-96.3249 244.4305,-84.6521 237.9326,-74.264"/>
<polygon fill="none" stroke="#191970" points="255.9299,-109.636 264.2004,-116.2579 261.8645,-105.9237 255.9299,-109.636"/>
</g>
<!-- Node4 -->
<g id="node5" class="node">
<title>Node4</title>
<g id="a_node5"><a xlink:href="classSignalIntegrity_1_1Parsers_1_1SystemSParametersParser_1_1SystemSParametersNumericParser.xhtml" target="_top" xlink:title="generates system s&#45;parameters from a netlist ">
<polygon fill="#ffffff" stroke="#000000" points="296.5,-.5 296.5,-79.5 440.5,-79.5 440.5,-.5 296.5,-.5"/>
<text text-anchor="start" x="304.5" y="-67.5" font-family="Helvetica,sans-Serif" font-size="10.00" fill="#000000">SystemSParametersNumeric</text>
<text text-anchor="middle" x="368.5" y="-56.5" font-family="Helvetica,sans-Serif" font-size="10.00" fill="#000000">Parser</text>
<polyline fill="none" stroke="#000000" points="296.5,-49.5 440.5,-49.5 "/>
<text text-anchor="start" x="304.5" y="-37.5" font-family="Helvetica,sans-Serif" font-size="10.00" fill="#000000">+ sf</text>
<polyline fill="none" stroke="#000000" points="296.5,-30.5 440.5,-30.5 "/>
<text text-anchor="start" x="304.5" y="-18.5" font-family="Helvetica,sans-Serif" font-size="10.00" fill="#000000">+ __init__()</text>
<text text-anchor="start" x="304.5" y="-7.5" font-family="Helvetica,sans-Serif" font-size="10.00" fill="#000000">+ SParameters()</text>
</a>
</g>
</g>
<!-- Node1&#45;&gt;Node4 -->
<g id="edge4" class="edge">
<title>Node1&#45;&gt;Node4</title>
<path fill="none" stroke="#191970" d="M326.1543,-107.6973C332.0463,-98.278 338.0795,-88.6328 343.6772,-79.6838"/>
<polygon fill="none" stroke="#191970" points="323.1355,-105.9237 320.7996,-116.2579 329.0701,-109.636 323.1355,-105.9237"/>
</g>
<!-- Node5 -->
<g id="node6" class="node">
<title>Node5</title>
<g id="a_node6"><a xlink:href="classSignalIntegrity_1_1Parsers_1_1VirtualProbeNumericParser_1_1VirtualProbeNumericParser.xhtml" target="_top" xlink:title="performs numeric virtual probing from netlists ">
<polygon fill="#ffffff" stroke="#000000" points="459,-.5 459,-79.5 594,-79.5 594,-.5 459,-.5"/>
<text text-anchor="middle" x="526.5" y="-67.5" font-family="Helvetica,sans-Serif" font-size="10.00" fill="#000000">VirtualProbeNumericParser</text>
<polyline fill="none" stroke="#000000" points="459,-60.5 594,-60.5 "/>
<text text-anchor="start" x="467" y="-48.5" font-family="Helvetica,sans-Serif" font-size="10.00" fill="#000000">+ transferMatrices</text>
<text text-anchor="start" x="467" y="-37.5" font-family="Helvetica,sans-Serif" font-size="10.00" fill="#000000">+ m_tm</text>
<polyline fill="none" stroke="#000000" points="459,-30.5 594,-30.5 "/>
<text text-anchor="start" x="467" y="-18.5" font-family="Helvetica,sans-Serif" font-size="10.00" fill="#000000">+ __init__()</text>
<text text-anchor="start" x="467" y="-7.5" font-family="Helvetica,sans-Serif" font-size="10.00" fill="#000000">+ TransferMatrices()</text>
</a>
</g>
</g>
<!-- Node1&#45;&gt;Node5 -->
<g id="edge5" class="edge">
<title>Node1&#45;&gt;Node5</title>
<path fill="none" stroke="#191970" d="M345.3168,-134.0873C375.7757,-118.2774 414.7969,-98.0211 449.5,-80 452.5749,-78.4032 455.7188,-76.7705 458.8945,-75.1212"/>
<polygon fill="none" stroke="#191970" points="343.4164,-131.1302 336.1532,-138.8436 346.6412,-137.3432 343.4164,-131.1302"/>
</g>
</g>
</svg>
