<?xml version="1.0" encoding="UTF-8" standalone="no"?>
<!DOCTYPE svg PUBLIC "-//W3C//DTD SVG 1.1//EN"
 "http://www.w3.org/Graphics/SVG/1.1/DTD/svg11.dtd">
<!-- Generated by graphviz version 2.43.0 (0)
 -->
<!-- Title: WaveletDaubechies14 Pages: 1 -->
<svg width="116pt" height="217pt"
 viewBox="0.00 0.00 116.00 217.00" xmlns="http://www.w3.org/2000/svg" xmlns:xlink="http://www.w3.org/1999/xlink">
<g id="graph0" class="graph" transform="scale(1 1) rotate(0) translate(4 213)">
<title>WaveletDaubechies14</title>
<!-- Node1 -->
<g id="Node000001" class="node">
<title>Node1</title>
<g id="a_Node000001"><a xlink:title="14 tap Daubechies wavelet transformer">
<polygon fill="#999999" stroke="transparent" points="108,-49 0,-49 0,0 108,0 108,-49"/>
<text text-anchor="start" x="5" y="-36.5" font-family="Helvetica,sans-Serif" font-size="10.00">WaveletDaubechies14</text>
<text text-anchor="start" x="52" y="-21.5" font-family="Helvetica,sans-Serif" font-size="10.00"> </text>
<text text-anchor="start" x="16" y="-6.5" font-family="Helvetica,sans-Serif" font-size="10.00">+</text>
<text text-anchor="start" x="39" y="-6.5" font-family="Helvetica,sans-Serif" font-size="10.00">__init__()</text>
<polygon fill="#666666" stroke="#666666" points="0,-31.5 0,-31.5 108,-31.5 108,-31.5 0,-31.5"/>
<polygon fill="#666666" stroke="#666666" points="0,-16.5 0,-16.5 108,-16.5 108,-16.5 0,-16.5"/>
<polygon fill="none" stroke="#666666" points="0,0 0,-49 108,-49 108,0 0,0"/>
</a>
</g>
</g>
<!-- Node2 -->
<g id="Node000002" class="node">
<title>Node2</title>
<g id="a_Node000002"><a xlink:href="classSignalIntegrity_1_1Lib_1_1Wavelets_1_1Wavelets_1_1Wavelet.xhtml" target="_top" xlink:title="base class that performs forward and inverse wavelet transforms">
<polygon fill="white" stroke="transparent" points="83.5,-209 24.5,-209 24.5,-85 83.5,-85 83.5,-209"/>
<text text-anchor="start" x="36.5" y="-197" font-family="Helvetica,sans-Serif" font-size="10.00">Wavelet</text>
<text text-anchor="start" x="29" y="-182" font-family="Helvetica,sans-Serif" font-size="10.00">+</text>
<text text-anchor="start" x="40" y="-182" font-family="Helvetica,sans-Serif" font-size="10.00">h</text>
<text text-anchor="start" x="29" y="-167" font-family="Helvetica,sans-Serif" font-size="10.00">+</text>
<text text-anchor="start" x="40" y="-167" font-family="Helvetica,sans-Serif" font-size="10.00">L</text>
<text text-anchor="start" x="29" y="-152" font-family="Helvetica,sans-Serif" font-size="10.00">+</text>
<text text-anchor="start" x="40" y="-152" font-family="Helvetica,sans-Serif" font-size="10.00">g</text>
<text text-anchor="start" x="29" y="-137" font-family="Helvetica,sans-Serif" font-size="10.00">+</text>
<text text-anchor="start" x="40" y="-137" font-family="Helvetica,sans-Serif" font-size="10.00">__init__()</text>
<text text-anchor="start" x="29" y="-122" font-family="Helvetica,sans-Serif" font-size="10.00">+</text>
<text text-anchor="start" x="40" y="-122" font-family="Helvetica,sans-Serif" font-size="10.00">DWT()</text>
<text text-anchor="start" x="29" y="-107" font-family="Helvetica,sans-Serif" font-size="10.00">+</text>
<text text-anchor="start" x="40" y="-107" font-family="Helvetica,sans-Serif" font-size="10.00">IDWT()</text>
<text text-anchor="start" x="29" y="-92" font-family="Helvetica,sans-Serif" font-size="10.00">+</text>
<text text-anchor="start" x="40" y="-92" font-family="Helvetica,sans-Serif" font-size="10.00">intlog2()</text>
<polygon fill="#666666" stroke="#666666" points="25,-192 25,-192 84,-192 84,-192 25,-192"/>
<polygon fill="#666666" stroke="#666666" points="25,-147 25,-147 38,-147 38,-147 25,-147"/>
<polygon fill="#666666" stroke="#666666" points="38,-147 38,-147 84,-147 84,-147 38,-147"/>
<polygon fill="none" stroke="#666666" points="24.5,-85 24.5,-209 83.5,-209 83.5,-85 24.5,-85"/>
</a>
</g>
</g>
<!-- Node2&#45;&gt;Node1 -->
<g id="edge1_Node000001_Node000002" class="edge">
<title>Node2&#45;&gt;Node1</title>
<g id="a_edge1_Node000001_Node000002"><a xlink:title=" ">
<path fill="none" stroke="#63b8ff" d="M54,-74.65C54,-65.48 54,-56.67 54,-49.1"/>
<polygon fill="none" stroke="#63b8ff" points="50.5,-74.69 54,-84.69 57.5,-74.69 50.5,-74.69"/>
</a>
</g>
</g>
</g>
</svg>
