<?xml version="1.0" encoding="UTF-8" standalone="no"?>
<!DOCTYPE svg PUBLIC "-//W3C//DTD SVG 1.1//EN"
 "http://www.w3.org/Graphics/SVG/1.1/DTD/svg11.dtd">
<!-- Generated by graphviz version 2.43.0 (0)
 -->
<!-- Title: ClassicalFilter Pages: 1 -->
<svg width="264pt" height="711pt"
 viewBox="0.00 0.00 264.00 711.00" xmlns="http://www.w3.org/2000/svg" xmlns:xlink="http://www.w3.org/1999/xlink">
<g id="graph0" class="graph" transform="scale(1 1) rotate(0) translate(4 707)">
<title>ClassicalFilter</title>
<polygon fill="white" stroke="transparent" points="-4,4 -4,-707 260,-707 260,4 -4,4"/>
<!-- Node1 -->
<g id="node1" class="node">
<title>Node1</title>
<g id="a_node1"><a xlink:title="Classical filter.">
<polygon fill="#bfbfbf" stroke="black" points="80,-94.5 80,-195.5 165,-195.5 165,-94.5 80,-94.5"/>
<text text-anchor="middle" x="122.5" y="-183.5" font-family="Helvetica,sans-Serif" font-size="10.00">ClassicalFilter</text>
<polyline fill="none" stroke="black" points="80,-176.5 165,-176.5 "/>
<text text-anchor="start" x="88" y="-164.5" font-family="Helvetica,sans-Serif" font-size="10.00">+ z</text>
<text text-anchor="start" x="88" y="-153.5" font-family="Helvetica,sans-Serif" font-size="10.00">+ p</text>
<text text-anchor="start" x="88" y="-142.5" font-family="Helvetica,sans-Serif" font-size="10.00">+ k</text>
<text text-anchor="start" x="88" y="-131.5" font-family="Helvetica,sans-Serif" font-size="10.00">+ f0</text>
<polyline fill="none" stroke="black" points="80,-124.5 165,-124.5 "/>
<text text-anchor="start" x="88" y="-112.5" font-family="Helvetica,sans-Serif" font-size="10.00">+ __init__()</text>
<text text-anchor="start" x="88" y="-101.5" font-family="Helvetica,sans-Serif" font-size="10.00">+ __getitem__()</text>
</a>
</g>
</g>
<!-- Node4 -->
<g id="node4" class="node">
<title>Node4</title>
<g id="a_node4"><a xlink:href="classSignalIntegrity_1_1Lib_1_1SParameters_1_1Devices_1_1ClassicalFilter_1_1BesselLowPassFilter.xhtml" target="_top" xlink:title="Bessel low pass filter.">
<polygon fill="white" stroke="black" points="0,-0.5 0,-57.5 109,-57.5 109,-0.5 0,-0.5"/>
<text text-anchor="middle" x="54.5" y="-45.5" font-family="Helvetica,sans-Serif" font-size="10.00">BesselLowPassFilter</text>
<polyline fill="none" stroke="black" points="0,-38.5 109,-38.5 "/>
<text text-anchor="middle" x="54.5" y="-26.5" font-family="Helvetica,sans-Serif" font-size="10.00"> </text>
<polyline fill="none" stroke="black" points="0,-19.5 109,-19.5 "/>
<text text-anchor="start" x="8" y="-7.5" font-family="Helvetica,sans-Serif" font-size="10.00">+ __init__()</text>
</a>
</g>
</g>
<!-- Node1&#45;&gt;Node4 -->
<g id="edge3" class="edge">
<title>Node1&#45;&gt;Node4</title>
<path fill="none" stroke="midnightblue" d="M87.74,-85.72C81.88,-75.9 76.06,-66.14 70.96,-57.59"/>
<polygon fill="none" stroke="midnightblue" points="84.74,-87.53 92.87,-94.33 90.76,-83.95 84.74,-87.53"/>
</g>
<!-- Node5 -->
<g id="node5" class="node">
<title>Node5</title>
<g id="a_node5"><a xlink:href="classSignalIntegrity_1_1Lib_1_1SParameters_1_1Devices_1_1ClassicalFilter_1_1ButterworthLowPassFilter.xhtml" target="_top" xlink:title="Butterworth Low pass filter.">
<polygon fill="white" stroke="black" points="127,-0.5 127,-57.5 256,-57.5 256,-0.5 127,-0.5"/>
<text text-anchor="middle" x="191.5" y="-45.5" font-family="Helvetica,sans-Serif" font-size="10.00">ButterworthLowPassFilter</text>
<polyline fill="none" stroke="black" points="127,-38.5 256,-38.5 "/>
<text text-anchor="middle" x="191.5" y="-26.5" font-family="Helvetica,sans-Serif" font-size="10.00"> </text>
<polyline fill="none" stroke="black" points="127,-19.5 256,-19.5 "/>
<text text-anchor="start" x="135" y="-7.5" font-family="Helvetica,sans-Serif" font-size="10.00">+ __init__()</text>
</a>
</g>
</g>
<!-- Node1&#45;&gt;Node5 -->
<g id="edge4" class="edge">
<title>Node1&#45;&gt;Node5</title>
<path fill="none" stroke="midnightblue" d="M157.77,-85.72C163.72,-75.9 169.63,-66.14 174.8,-57.59"/>
<polygon fill="none" stroke="midnightblue" points="154.75,-83.96 152.56,-94.33 160.74,-87.59 154.75,-83.96"/>
</g>
<!-- Node2 -->
<g id="node2" class="node">
<title>Node2</title>
<g id="a_node2"><a xlink:href="classSignalIntegrity_1_1Lib_1_1SParameters_1_1SParameters_1_1SParameters.xhtml" target="_top" xlink:title="Class containing s&#45;parameters.">
<polygon fill="white" stroke="black" points="52.5,-232.5 52.5,-465.5 192.5,-465.5 192.5,-232.5 52.5,-232.5"/>
<text text-anchor="middle" x="122.5" y="-453.5" font-family="Helvetica,sans-Serif" font-size="10.00">SParameters</text>
<polyline fill="none" stroke="black" points="52.5,-446.5 192.5,-446.5 "/>
<text text-anchor="start" x="60.5" y="-434.5" font-family="Helvetica,sans-Serif" font-size="10.00">+ header</text>
<text text-anchor="start" x="60.5" y="-423.5" font-family="Helvetica,sans-Serif" font-size="10.00">+ m_sToken</text>
<text text-anchor="start" x="60.5" y="-412.5" font-family="Helvetica,sans-Serif" font-size="10.00">+ m_d</text>
<text text-anchor="start" x="60.5" y="-401.5" font-family="Helvetica,sans-Serif" font-size="10.00">+ m_Z0</text>
<text text-anchor="start" x="60.5" y="-390.5" font-family="Helvetica,sans-Serif" font-size="10.00">+ m_f</text>
<text text-anchor="start" x="60.5" y="-379.5" font-family="Helvetica,sans-Serif" font-size="10.00">+ m_P</text>
<text text-anchor="start" x="60.5" y="-368.5" font-family="Helvetica,sans-Serif" font-size="10.00">+ maxTokensOnLine</text>
<text text-anchor="start" x="60.5" y="-357.5" font-family="Helvetica,sans-Serif" font-size="10.00">+ numDigits</text>
<polyline fill="none" stroke="black" points="52.5,-350.5 192.5,-350.5 "/>
<text text-anchor="start" x="60.5" y="-338.5" font-family="Helvetica,sans-Serif" font-size="10.00">+ __init__()</text>
<text text-anchor="start" x="60.5" y="-327.5" font-family="Helvetica,sans-Serif" font-size="10.00">+ __getitem__()</text>
<text text-anchor="start" x="60.5" y="-316.5" font-family="Helvetica,sans-Serif" font-size="10.00">+ __len__()</text>
<text text-anchor="start" x="60.5" y="-305.5" font-family="Helvetica,sans-Serif" font-size="10.00">+ f()</text>
<text text-anchor="start" x="60.5" y="-294.5" font-family="Helvetica,sans-Serif" font-size="10.00">+ Response()</text>
<text text-anchor="start" x="60.5" y="-283.5" font-family="Helvetica,sans-Serif" font-size="10.00">+ FrequencyResponse()</text>
<text text-anchor="start" x="60.5" y="-272.5" font-family="Helvetica,sans-Serif" font-size="10.00">+ Text()</text>
<text text-anchor="start" x="60.5" y="-261.5" font-family="Helvetica,sans-Serif" font-size="10.00">+ WriteToFile()</text>
<text text-anchor="start" x="60.5" y="-250.5" font-family="Helvetica,sans-Serif" font-size="10.00">+ Resample()</text>
<text text-anchor="start" x="60.5" y="-239.5" font-family="Helvetica,sans-Serif" font-size="10.00">+ SetReferenceImpedance()</text>
</a>
</g>
</g>
<!-- Node2&#45;&gt;Node1 -->
<g id="edge1" class="edge">
<title>Node2&#45;&gt;Node1</title>
<path fill="none" stroke="midnightblue" d="M122.5,-222.22C122.5,-213.06 122.5,-204.2 122.5,-195.95"/>
<polygon fill="none" stroke="midnightblue" points="119,-222.25 122.5,-232.25 126,-222.25 119,-222.25"/>
</g>
<!-- Node3 -->
<g id="node3" class="node">
<title>Node3</title>
<g id="a_node3"><a xlink:href="classSignalIntegrity_1_1Lib_1_1SParameters_1_1SParameterManipulation_1_1SParameterManipulation.xhtml" target="_top" xlink:title="Class for manipulations on s&#45;parameters involving passivity, causality, etc.">
<polygon fill="white" stroke="black" points="30,-502.5 30,-702.5 215,-702.5 215,-502.5 30,-502.5"/>
<text text-anchor="middle" x="122.5" y="-690.5" font-family="Helvetica,sans-Serif" font-size="10.00">SParameterManipulation</text>
<polyline fill="none" stroke="black" points="30,-683.5 215,-683.5 "/>
<text text-anchor="middle" x="122.5" y="-671.5" font-family="Helvetica,sans-Serif" font-size="10.00"> </text>
<polyline fill="none" stroke="black" points="30,-664.5 215,-664.5 "/>
<text text-anchor="start" x="38" y="-652.5" font-family="Helvetica,sans-Serif" font-size="10.00">+ ResampleToEvenlySpaced()</text>
<text text-anchor="start" x="38" y="-641.5" font-family="Helvetica,sans-Serif" font-size="10.00">+ ResampleToUnevenlySpaced()</text>
<text text-anchor="start" x="38" y="-630.5" font-family="Helvetica,sans-Serif" font-size="10.00">+ EnforcePassivity()</text>
<text text-anchor="start" x="38" y="-619.5" font-family="Helvetica,sans-Serif" font-size="10.00">+ IsCausal()</text>
<text text-anchor="start" x="38" y="-608.5" font-family="Helvetica,sans-Serif" font-size="10.00">+ EnforceCausality()</text>
<text text-anchor="start" x="38" y="-597.5" font-family="Helvetica,sans-Serif" font-size="10.00">+ WaveletDenoise()</text>
<text text-anchor="start" x="38" y="-586.5" font-family="Helvetica,sans-Serif" font-size="10.00">+ PortReorder()</text>
<text text-anchor="start" x="38" y="-575.5" font-family="Helvetica,sans-Serif" font-size="10.00">+ DetermineImpulseResponse</text>
<text text-anchor="start" x="38" y="-564.5" font-family="Helvetica,sans-Serif" font-size="10.00">Length()</text>
<text text-anchor="start" x="38" y="-553.5" font-family="Helvetica,sans-Serif" font-size="10.00">+ LimitImpulseResponseLength()</text>
<text text-anchor="start" x="38" y="-542.5" font-family="Helvetica,sans-Serif" font-size="10.00">+ EnforceReciprocity()</text>
<text text-anchor="start" x="38" y="-531.5" font-family="Helvetica,sans-Serif" font-size="10.00">+ EnforceBothPassivityAndCausality()</text>
<text text-anchor="start" x="38" y="-520.5" font-family="Helvetica,sans-Serif" font-size="10.00">+ EnforceAll()</text>
<text text-anchor="start" x="38" y="-509.5" font-family="Helvetica,sans-Serif" font-size="10.00">+ RemoveImpulseResponseOffset()</text>
</a>
</g>
</g>
<!-- Node3&#45;&gt;Node2 -->
<g id="edge2" class="edge">
<title>Node3&#45;&gt;Node2</title>
<path fill="none" stroke="midnightblue" d="M122.5,-492.18C122.5,-483.38 122.5,-474.46 122.5,-465.61"/>
<polygon fill="none" stroke="midnightblue" points="119,-492.46 122.5,-502.46 126,-492.46 119,-492.46"/>
</g>
</g>
</svg>
