<?xml version="1.0" encoding="UTF-8" standalone="no"?>
<!DOCTYPE svg PUBLIC "-//W3C//DTD SVG 1.1//EN"
 "http://www.w3.org/Graphics/SVG/1.1/DTD/svg11.dtd">
<!-- Generated by graphviz version 2.43.0 (0)
 -->
<!-- Title: SystemDescription Pages: 1 -->
<svg width="708pt" height="838pt"
 viewBox="0.00 0.00 707.50 838.00" xmlns="http://www.w3.org/2000/svg" xmlns:xlink="http://www.w3.org/1999/xlink">
<g id="graph0" class="graph" transform="scale(1 1) rotate(0) translate(4 834)">
<title>SystemDescription</title>
<polygon fill="white" stroke="transparent" points="-4,4 -4,-834 703.5,-834 703.5,4 -4,4"/>
<!-- Node1 -->
<g id="node1" class="node">
<title>Node1</title>
<g id="a_node1"><a xlink:title="Allows the construction of system descriptions for use with all of the classes that solve schematics ...">
<polygon fill="#bfbfbf" stroke="black" points="326.5,-662.5 326.5,-829.5 444.5,-829.5 444.5,-662.5 326.5,-662.5"/>
<text text-anchor="middle" x="385.5" y="-817.5" font-family="Helvetica,sans-Serif" font-size="10.00">SystemDescription</text>
<polyline fill="none" stroke="black" points="326.5,-810.5 444.5,-810.5 "/>
<text text-anchor="start" x="334.5" y="-798.5" font-family="Helvetica,sans-Serif" font-size="10.00">+ m_UniqueDevice</text>
<text text-anchor="start" x="334.5" y="-787.5" font-family="Helvetica,sans-Serif" font-size="10.00">+ m_UniqueNode</text>
<polyline fill="none" stroke="black" points="326.5,-780.5 444.5,-780.5 "/>
<text text-anchor="start" x="334.5" y="-768.5" font-family="Helvetica,sans-Serif" font-size="10.00">+ __init__()</text>
<text text-anchor="start" x="334.5" y="-757.5" font-family="Helvetica,sans-Serif" font-size="10.00">+ AddDevice()</text>
<text text-anchor="start" x="334.5" y="-746.5" font-family="Helvetica,sans-Serif" font-size="10.00">+ AssignM()</text>
<text text-anchor="start" x="334.5" y="-735.5" font-family="Helvetica,sans-Serif" font-size="10.00">+ DeviceNames()</text>
<text text-anchor="start" x="334.5" y="-724.5" font-family="Helvetica,sans-Serif" font-size="10.00">+ IndexOfDevice()</text>
<text text-anchor="start" x="334.5" y="-713.5" font-family="Helvetica,sans-Serif" font-size="10.00">+ CheckConnections()</text>
<text text-anchor="start" x="334.5" y="-702.5" font-family="Helvetica,sans-Serif" font-size="10.00">+ ConnectDevicePort()</text>
<text text-anchor="start" x="334.5" y="-691.5" font-family="Helvetica,sans-Serif" font-size="10.00">+ AddPort()</text>
<text text-anchor="start" x="334.5" y="-680.5" font-family="Helvetica,sans-Serif" font-size="10.00">+ AssignSParameters()</text>
<text text-anchor="start" x="334.5" y="-669.5" font-family="Helvetica,sans-Serif" font-size="10.00">+ Print()</text>
</a>
</g>
</g>
<!-- Node2 -->
<g id="node2" class="node">
<title>Node2</title>
<g id="a_node2"><a xlink:href="classSignalIntegrity_1_1Lib_1_1SystemDescriptions_1_1SystemSParameters_1_1SystemSParameters.xhtml" target="_top" xlink:title="base class for housekeeping involving system s&#45;parameters calculations">
<polygon fill="white" stroke="black" points="332,-502.5 332,-625.5 439,-625.5 439,-502.5 332,-502.5"/>
<text text-anchor="middle" x="385.5" y="-613.5" font-family="Helvetica,sans-Serif" font-size="10.00">SystemSParameters</text>
<polyline fill="none" stroke="black" points="332,-606.5 439,-606.5 "/>
<text text-anchor="middle" x="385.5" y="-594.5" font-family="Helvetica,sans-Serif" font-size="10.00"> </text>
<polyline fill="none" stroke="black" points="332,-587.5 439,-587.5 "/>
<text text-anchor="start" x="340" y="-575.5" font-family="Helvetica,sans-Serif" font-size="10.00">+ __init__()</text>
<text text-anchor="start" x="340" y="-564.5" font-family="Helvetica,sans-Serif" font-size="10.00">+ PortANames()</text>
<text text-anchor="start" x="340" y="-553.5" font-family="Helvetica,sans-Serif" font-size="10.00">+ PortBNames()</text>
<text text-anchor="start" x="340" y="-542.5" font-family="Helvetica,sans-Serif" font-size="10.00">+ OtherNames()</text>
<text text-anchor="start" x="340" y="-531.5" font-family="Helvetica,sans-Serif" font-size="10.00">+ NodeVector()</text>
<text text-anchor="start" x="340" y="-520.5" font-family="Helvetica,sans-Serif" font-size="10.00">+ StimulusVector()</text>
<text text-anchor="start" x="340" y="-509.5" font-family="Helvetica,sans-Serif" font-size="10.00"># WeightsMatrix()</text>
</a>
</g>
</g>
<!-- Node1&#45;&gt;Node2 -->
<g id="edge1" class="edge">
<title>Node1&#45;&gt;Node2</title>
<path fill="none" stroke="midnightblue" d="M385.5,-652.19C385.5,-643.17 385.5,-634.19 385.5,-625.61"/>
<polygon fill="none" stroke="midnightblue" points="382,-652.38 385.5,-662.38 389,-652.38 382,-652.38"/>
</g>
<!-- Node3 -->
<g id="node3" class="node">
<title>Node3</title>
<g id="a_node3"><a xlink:href="classSignalIntegrity_1_1Lib_1_1SystemDescriptions_1_1Deembedder_1_1Deembedder.xhtml" target="_top" xlink:title="housekeeping base class for deembedders">
<polygon fill="white" stroke="black" points="105.5,-309.5 105.5,-432.5 209.5,-432.5 209.5,-309.5 105.5,-309.5"/>
<text text-anchor="middle" x="157.5" y="-420.5" font-family="Helvetica,sans-Serif" font-size="10.00">Deembedder</text>
<polyline fill="none" stroke="black" points="105.5,-413.5 209.5,-413.5 "/>
<text text-anchor="middle" x="157.5" y="-401.5" font-family="Helvetica,sans-Serif" font-size="10.00"> </text>
<polyline fill="none" stroke="black" points="105.5,-394.5 209.5,-394.5 "/>
<text text-anchor="start" x="113.5" y="-382.5" font-family="Helvetica,sans-Serif" font-size="10.00">+ __init__()</text>
<text text-anchor="start" x="113.5" y="-371.5" font-family="Helvetica,sans-Serif" font-size="10.00">+ AddUnknown()</text>
<text text-anchor="start" x="113.5" y="-360.5" font-family="Helvetica,sans-Serif" font-size="10.00">+ DutANames()</text>
<text text-anchor="start" x="113.5" y="-349.5" font-family="Helvetica,sans-Serif" font-size="10.00">+ DutBNames()</text>
<text text-anchor="start" x="113.5" y="-338.5" font-family="Helvetica,sans-Serif" font-size="10.00">+ UnknownNames()</text>
<text text-anchor="start" x="113.5" y="-327.5" font-family="Helvetica,sans-Serif" font-size="10.00">+ UnknownPorts()</text>
<text text-anchor="start" x="113.5" y="-316.5" font-family="Helvetica,sans-Serif" font-size="10.00">+ Partition()</text>
</a>
</g>
</g>
<!-- Node2&#45;&gt;Node3 -->
<g id="edge2" class="edge">
<title>Node2&#45;&gt;Node3</title>
<path fill="none" stroke="midnightblue" d="M322.73,-535.4C289.24,-518.61 248.8,-494.84 218.5,-466 208.35,-456.34 199.09,-444.68 191.01,-432.91"/>
<polygon fill="none" stroke="midnightblue" points="321.46,-538.68 331.98,-539.95 324.55,-532.4 321.46,-538.68"/>
</g>
<!-- Node6 -->
<g id="node6" class="node">
<title>Node6</title>
<g id="a_node6"><a xlink:href="classSignalIntegrity_1_1Lib_1_1SystemDescriptions_1_1Simulator_1_1Simulator.xhtml" target="_top" xlink:title="Base class for dealing with housekeeping for simulations.">
<polygon fill="white" stroke="black" points="228,-276.5 228,-465.5 379,-465.5 379,-276.5 228,-276.5"/>
<text text-anchor="middle" x="303.5" y="-453.5" font-family="Helvetica,sans-Serif" font-size="10.00">Simulator</text>
<polyline fill="none" stroke="black" points="228,-446.5 379,-446.5 "/>
<text text-anchor="start" x="236" y="-434.5" font-family="Helvetica,sans-Serif" font-size="10.00">+ m_ol</text>
<polyline fill="none" stroke="black" points="228,-427.5 379,-427.5 "/>
<text text-anchor="start" x="236" y="-415.5" font-family="Helvetica,sans-Serif" font-size="10.00">+ __init__()</text>
<text text-anchor="start" x="236" y="-404.5" font-family="Helvetica,sans-Serif" font-size="10.00">+ Check()</text>
<text text-anchor="start" x="236" y="-393.5" font-family="Helvetica,sans-Serif" font-size="10.00">+ pOutputList()</text>
<text text-anchor="start" x="236" y="-382.5" font-family="Helvetica,sans-Serif" font-size="10.00">+ pOutputList()</text>
<text text-anchor="start" x="236" y="-371.5" font-family="Helvetica,sans-Serif" font-size="10.00">+ AddVoltageSource()</text>
<text text-anchor="start" x="236" y="-360.5" font-family="Helvetica,sans-Serif" font-size="10.00">+ AddCurrentSource()</text>
<text text-anchor="start" x="236" y="-349.5" font-family="Helvetica,sans-Serif" font-size="10.00">+ SourceVector()</text>
<text text-anchor="start" x="236" y="-338.5" font-family="Helvetica,sans-Serif" font-size="10.00">+ SourceToStimsPrimeMatrix()</text>
<text text-anchor="start" x="236" y="-327.5" font-family="Helvetica,sans-Serif" font-size="10.00">+ StimsPrime()</text>
<text text-anchor="start" x="236" y="-316.5" font-family="Helvetica,sans-Serif" font-size="10.00">+ SIPrime()</text>
<text text-anchor="start" x="236" y="-305.5" font-family="Helvetica,sans-Serif" font-size="10.00">+ VoltageExtractionMatrix()</text>
<text text-anchor="start" x="236" y="-294.5" font-family="Helvetica,sans-Serif" font-size="10.00">+ VoltageExtractionList()</text>
<text text-anchor="start" x="236" y="-283.5" font-family="Helvetica,sans-Serif" font-size="10.00">+ Extract()</text>
</a>
</g>
</g>
<!-- Node2&#45;&gt;Node6 -->
<g id="edge5" class="edge">
<title>Node2&#45;&gt;Node6</title>
<path fill="none" stroke="midnightblue" d="M355.38,-492.84C351.58,-483.98 347.64,-474.81 343.71,-465.67"/>
<polygon fill="none" stroke="midnightblue" points="352.28,-494.5 359.44,-502.3 358.71,-491.73 352.28,-494.5"/>
</g>
<!-- Node11 -->
<g id="node11" class="node">
<title>Node11</title>
<g id="a_node11"><a xlink:href="classSignalIntegrity_1_1Lib_1_1SystemDescriptions_1_1SystemDescriptionSymbolic_1_1SystemDescriptionSymbolic.xhtml" target="_top" xlink:title="Solves system descriptions in the most basic manner common to all of the simulation,...">
<polygon fill="white" stroke="black" points="397.5,-337 397.5,-405 537.5,-405 537.5,-337 397.5,-337"/>
<text text-anchor="middle" x="467.5" y="-393" font-family="Helvetica,sans-Serif" font-size="10.00">SystemDescriptionSymbolic</text>
<polyline fill="none" stroke="black" points="397.5,-386 537.5,-386 "/>
<text text-anchor="middle" x="467.5" y="-374" font-family="Helvetica,sans-Serif" font-size="10.00"> </text>
<polyline fill="none" stroke="black" points="397.5,-367 537.5,-367 "/>
<text text-anchor="start" x="405.5" y="-355" font-family="Helvetica,sans-Serif" font-size="10.00">+ __init__()</text>
<text text-anchor="start" x="405.5" y="-344" font-family="Helvetica,sans-Serif" font-size="10.00">+ LaTeXSystemEquation()</text>
</a>
</g>
</g>
<!-- Node2&#45;&gt;Node11 -->
<g id="edge10" class="edge">
<title>Node2&#45;&gt;Node11</title>
<path fill="none" stroke="midnightblue" d="M415.51,-493.09C428.44,-462.99 442.93,-429.23 453.33,-405.01"/>
<polygon fill="none" stroke="midnightblue" points="412.29,-491.73 411.56,-502.3 418.72,-494.5 412.29,-491.73"/>
</g>
<!-- Node13 -->
<g id="node13" class="node">
<title>Node13</title>
<g id="a_node13"><a xlink:href="classSignalIntegrity_1_1Lib_1_1SystemDescriptions_1_1SystemSParametersNumeric_1_1SystemSParametersNumeric.xhtml" target="_top" xlink:title="Class for computing s&#45;parameters of interconnected systems.">
<polygon fill="white" stroke="black" points="555.5,-337 555.5,-405 699.5,-405 699.5,-337 555.5,-337"/>
<text text-anchor="middle" x="627.5" y="-393" font-family="Helvetica,sans-Serif" font-size="10.00">SystemSParametersNumeric</text>
<polyline fill="none" stroke="black" points="555.5,-386 699.5,-386 "/>
<text text-anchor="middle" x="627.5" y="-374" font-family="Helvetica,sans-Serif" font-size="10.00"> </text>
<polyline fill="none" stroke="black" points="555.5,-367 699.5,-367 "/>
<text text-anchor="start" x="563.5" y="-355" font-family="Helvetica,sans-Serif" font-size="10.00">+ __init__()</text>
<text text-anchor="start" x="563.5" y="-344" font-family="Helvetica,sans-Serif" font-size="10.00">+ SParameters()</text>
</a>
</g>
</g>
<!-- Node2&#45;&gt;Node13 -->
<g id="edge14" class="edge">
<title>Node2&#45;&gt;Node13</title>
<path fill="none" stroke="midnightblue" d="M448.09,-531.4C479.24,-514.2 516.54,-491.28 546.5,-466 567.74,-448.08 588.14,-424.35 603.16,-405.22"/>
<polygon fill="none" stroke="midnightblue" points="446.16,-528.47 439.06,-536.33 449.51,-534.61 446.16,-528.47"/>
</g>
<!-- Node4 -->
<g id="node4" class="node">
<title>Node4</title>
<g id="a_node4"><a xlink:href="classSignalIntegrity_1_1Lib_1_1SystemDescriptions_1_1DeembedderNumeric_1_1DeembedderNumeric.xhtml" target="_top" xlink:title=" ">
<polygon fill="white" stroke="black" points="131.5,-144 131.5,-212 245.5,-212 245.5,-144 131.5,-144"/>
<text text-anchor="middle" x="188.5" y="-200" font-family="Helvetica,sans-Serif" font-size="10.00">DeembedderNumeric</text>
<polyline fill="none" stroke="black" points="131.5,-193 245.5,-193 "/>
<text text-anchor="middle" x="188.5" y="-181" font-family="Helvetica,sans-Serif" font-size="10.00"> </text>
<polyline fill="none" stroke="black" points="131.5,-174 245.5,-174 "/>
<text text-anchor="start" x="139.5" y="-162" font-family="Helvetica,sans-Serif" font-size="10.00">+ __init__()</text>
<text text-anchor="start" x="139.5" y="-151" font-family="Helvetica,sans-Serif" font-size="10.00">+ CalculateUnknown()</text>
</a>
</g>
</g>
<!-- Node3&#45;&gt;Node4 -->
<g id="edge3" class="edge">
<title>Node3&#45;&gt;Node4</title>
<path fill="none" stroke="midnightblue" d="M168.97,-299.31C173.83,-269.41 179.25,-236.02 183.14,-212.01"/>
<polygon fill="none" stroke="midnightblue" points="165.5,-298.87 167.35,-309.3 172.41,-299.99 165.5,-298.87"/>
</g>
<!-- Node5 -->
<g id="node5" class="node">
<title>Node5</title>
<g id="a_node5"><a xlink:href="classSignalIntegrity_1_1Lib_1_1SystemDescriptions_1_1DeembedderSymbolic_1_1DeembedderSymbolic.xhtml" target="_top" xlink:title=" ">
<polygon fill="white" stroke="black" points="0,-144 0,-212 113,-212 113,-144 0,-144"/>
<text text-anchor="middle" x="56.5" y="-200" font-family="Helvetica,sans-Serif" font-size="10.00">DeembedderSymbolic</text>
<polyline fill="none" stroke="black" points="0,-193 113,-193 "/>
<text text-anchor="start" x="8" y="-181" font-family="Helvetica,sans-Serif" font-size="10.00">+ m_Sk</text>
<polyline fill="none" stroke="black" points="0,-174 113,-174 "/>
<text text-anchor="start" x="8" y="-162" font-family="Helvetica,sans-Serif" font-size="10.00">+ __init__()</text>
<text text-anchor="start" x="8" y="-151" font-family="Helvetica,sans-Serif" font-size="10.00">+ SymbolicSolution()</text>
</a>
</g>
</g>
<!-- Node3&#45;&gt;Node5 -->
<g id="edge4" class="edge">
<title>Node3&#45;&gt;Node5</title>
<path fill="none" stroke="midnightblue" d="M120.53,-300.09C104.62,-269.99 86.76,-236.23 73.96,-212.01"/>
<polygon fill="none" stroke="midnightblue" points="117.64,-302.1 125.4,-309.3 123.82,-298.83 117.64,-302.1"/>
</g>
<!-- Node7 -->
<g id="node7" class="node">
<title>Node7</title>
<g id="a_node7"><a xlink:href="classSignalIntegrity_1_1Lib_1_1SystemDescriptions_1_1SimulatorSymbolic_1_1SimulatorSymbolic.xhtml" target="_top" xlink:title="class for producing symbolic solutions to simulation problems.">
<polygon fill="white" stroke="black" points="242.5,-0.5 242.5,-79.5 364.5,-79.5 364.5,-0.5 242.5,-0.5"/>
<text text-anchor="middle" x="303.5" y="-67.5" font-family="Helvetica,sans-Serif" font-size="10.00">SimulatorSymbolic</text>
<polyline fill="none" stroke="black" points="242.5,-60.5 364.5,-60.5 "/>
<text text-anchor="middle" x="303.5" y="-48.5" font-family="Helvetica,sans-Serif" font-size="10.00"> </text>
<polyline fill="none" stroke="black" points="242.5,-41.5 364.5,-41.5 "/>
<text text-anchor="start" x="250.5" y="-29.5" font-family="Helvetica,sans-Serif" font-size="10.00">+ __init__()</text>
<text text-anchor="start" x="250.5" y="-18.5" font-family="Helvetica,sans-Serif" font-size="10.00">+ LaTeXTransferMatrix()</text>
<text text-anchor="start" x="250.5" y="-7.5" font-family="Helvetica,sans-Serif" font-size="10.00">+ LaTeXEquations()</text>
</a>
</g>
</g>
<!-- Node6&#45;&gt;Node7 -->
<g id="edge6" class="edge">
<title>Node6&#45;&gt;Node7</title>
<path fill="none" stroke="midnightblue" d="M303.5,-266.1C303.5,-202.64 303.5,-125.18 303.5,-79.66"/>
<polygon fill="none" stroke="midnightblue" points="300,-266.16 303.5,-276.16 307,-266.16 300,-266.16"/>
</g>
<!-- Node8 -->
<g id="node8" class="node">
<title>Node8</title>
<g id="a_node8"><a xlink:href="classSignalIntegrity_1_1Lib_1_1SystemDescriptions_1_1VirtualProbe_1_1VirtualProbe.xhtml" target="_top" xlink:title="Base class for virtual probing.">
<polygon fill="white" stroke="black" points="509.5,-116.5 509.5,-239.5 621.5,-239.5 621.5,-116.5 509.5,-116.5"/>
<text text-anchor="middle" x="565.5" y="-227.5" font-family="Helvetica,sans-Serif" font-size="10.00">VirtualProbe</text>
<polyline fill="none" stroke="black" points="509.5,-220.5 621.5,-220.5 "/>
<text text-anchor="start" x="517.5" y="-208.5" font-family="Helvetica,sans-Serif" font-size="10.00">+ m_ml</text>
<text text-anchor="start" x="517.5" y="-197.5" font-family="Helvetica,sans-Serif" font-size="10.00">+ m_D</text>
<polyline fill="none" stroke="black" points="509.5,-190.5 621.5,-190.5 "/>
<text text-anchor="start" x="517.5" y="-178.5" font-family="Helvetica,sans-Serif" font-size="10.00">+ __init__()</text>
<text text-anchor="start" x="517.5" y="-167.5" font-family="Helvetica,sans-Serif" font-size="10.00">+ Check()</text>
<text text-anchor="start" x="517.5" y="-156.5" font-family="Helvetica,sans-Serif" font-size="10.00">+ pMeasurementList()</text>
<text text-anchor="start" x="517.5" y="-145.5" font-family="Helvetica,sans-Serif" font-size="10.00">+ pMeasurementList()</text>
<text text-anchor="start" x="517.5" y="-134.5" font-family="Helvetica,sans-Serif" font-size="10.00">+ pStimDef()</text>
<text text-anchor="start" x="517.5" y="-123.5" font-family="Helvetica,sans-Serif" font-size="10.00">+ pStimDef()</text>
</a>
</g>
</g>
<!-- Node6&#45;&gt;Node8 -->
<g id="edge7" class="edge">
<title>Node6&#45;&gt;Node8</title>
<path fill="none" stroke="midnightblue" d="M387.62,-276.57C387.91,-276.38 388.21,-276.19 388.5,-276 432.43,-247.64 455.45,-266.54 500.5,-240 503.43,-238.27 506.34,-236.39 509.21,-234.39"/>
<polygon fill="none" stroke="midnightblue" points="385.37,-273.88 379.21,-282.49 389.4,-279.6 385.37,-273.88"/>
</g>
<!-- Node9 -->
<g id="node9" class="node">
<title>Node9</title>
<g id="a_node9"><a xlink:href="classSignalIntegrity_1_1Lib_1_1SystemDescriptions_1_1VirtualProbeNumeric_1_1VirtualProbeNumeric.xhtml" target="_top" xlink:title="class for performing virtual probing numerically.">
<polygon fill="white" stroke="black" points="523,-6 523,-74 630,-74 630,-6 523,-6"/>
<text text-anchor="middle" x="576.5" y="-62" font-family="Helvetica,sans-Serif" font-size="10.00">VirtualProbeNumeric</text>
<polyline fill="none" stroke="black" points="523,-55 630,-55 "/>
<text text-anchor="middle" x="576.5" y="-43" font-family="Helvetica,sans-Serif" font-size="10.00"> </text>
<polyline fill="none" stroke="black" points="523,-36 630,-36 "/>
<text text-anchor="start" x="531" y="-24" font-family="Helvetica,sans-Serif" font-size="10.00">+ __init__()</text>
<text text-anchor="start" x="531" y="-13" font-family="Helvetica,sans-Serif" font-size="10.00">+ TransferMatrix()</text>
</a>
</g>
</g>
<!-- Node8&#45;&gt;Node9 -->
<g id="edge8" class="edge">
<title>Node8&#45;&gt;Node9</title>
<path fill="none" stroke="midnightblue" d="M571.24,-105.98C572.14,-94.89 573.03,-83.9 573.81,-74.21"/>
<polygon fill="none" stroke="midnightblue" points="567.74,-105.91 570.42,-116.16 574.72,-106.47 567.74,-105.91"/>
</g>
<!-- Node10 -->
<g id="node10" class="node">
<title>Node10</title>
<g id="a_node10"><a xlink:href="classSignalIntegrity_1_1Lib_1_1SystemDescriptions_1_1VirtualProbeSymbolic_1_1VirtualProbeSymbolic.xhtml" target="_top" xlink:title=" ">
<polygon fill="white" stroke="black" points="382.5,-0.5 382.5,-79.5 504.5,-79.5 504.5,-0.5 382.5,-0.5"/>
<text text-anchor="middle" x="443.5" y="-67.5" font-family="Helvetica,sans-Serif" font-size="10.00">VirtualProbeSymbolic</text>
<polyline fill="none" stroke="black" points="382.5,-60.5 504.5,-60.5 "/>
<text text-anchor="middle" x="443.5" y="-48.5" font-family="Helvetica,sans-Serif" font-size="10.00"> </text>
<polyline fill="none" stroke="black" points="382.5,-41.5 504.5,-41.5 "/>
<text text-anchor="start" x="390.5" y="-29.5" font-family="Helvetica,sans-Serif" font-size="10.00">+ __init__()</text>
<text text-anchor="start" x="390.5" y="-18.5" font-family="Helvetica,sans-Serif" font-size="10.00">+ LaTeXTransferMatrix()</text>
<text text-anchor="start" x="390.5" y="-7.5" font-family="Helvetica,sans-Serif" font-size="10.00">+ LaTeXEquations()</text>
</a>
</g>
</g>
<!-- Node8&#45;&gt;Node10 -->
<g id="edge9" class="edge">
<title>Node8&#45;&gt;Node10</title>
<path fill="none" stroke="midnightblue" d="M504.1,-108.55C495.15,-98.58 486.22,-88.63 478.07,-79.54"/>
<polygon fill="none" stroke="midnightblue" points="501.64,-111.05 510.92,-116.16 506.85,-106.38 501.64,-111.05"/>
</g>
<!-- Node12 -->
<g id="node12" class="node">
<title>Node12</title>
<g id="a_node12"><a xlink:href="classSignalIntegrity_1_1Lib_1_1SystemDescriptions_1_1SystemSParametersSymbolic_1_1SystemSParametersSymbolic.xhtml" target="_top" xlink:title="Class for solving symbolically the s&#45;parameters of interconnected systems.">
<polygon fill="white" stroke="black" points="343.5,-144 343.5,-212 491.5,-212 491.5,-144 343.5,-144"/>
<text text-anchor="middle" x="417.5" y="-200" font-family="Helvetica,sans-Serif" font-size="10.00">SystemSParametersSymbolic</text>
<polyline fill="none" stroke="black" points="343.5,-193 491.5,-193 "/>
<text text-anchor="middle" x="417.5" y="-181" font-family="Helvetica,sans-Serif" font-size="10.00"> </text>
<polyline fill="none" stroke="black" points="343.5,-174 491.5,-174 "/>
<text text-anchor="start" x="351.5" y="-162" font-family="Helvetica,sans-Serif" font-size="10.00">+ __init__()</text>
<text text-anchor="start" x="351.5" y="-151" font-family="Helvetica,sans-Serif" font-size="10.00">+ LaTeXSolution()</text>
</a>
</g>
</g>
<!-- Node11&#45;&gt;Node12 -->
<g id="edge11" class="edge">
<title>Node11&#45;&gt;Node12</title>
<path fill="none" stroke="midnightblue" d="M456.21,-326.86C447.11,-292.12 434.51,-244 426.19,-212.21"/>
<polygon fill="none" stroke="midnightblue" points="452.87,-327.94 458.79,-336.73 459.64,-326.17 452.87,-327.94"/>
</g>
<!-- Node12&#45;&gt;Node7 -->
<g id="edge12" class="edge">
<title>Node12&#45;&gt;Node7</title>
<path fill="none" stroke="midnightblue" d="M382.94,-135.77C368.01,-117.96 350.63,-97.23 335.95,-79.71"/>
<polygon fill="none" stroke="midnightblue" points="380.51,-138.32 389.61,-143.73 385.87,-133.82 380.51,-138.32"/>
</g>
<!-- Node12&#45;&gt;Node10 -->
<g id="edge13" class="edge">
<title>Node12&#45;&gt;Node10</title>
<path fill="none" stroke="midnightblue" d="M425.75,-133.84C429.07,-116.47 432.87,-96.6 436.1,-79.71"/>
<polygon fill="none" stroke="midnightblue" points="422.3,-133.25 423.86,-143.73 429.18,-134.57 422.3,-133.25"/>
</g>
</g>
</svg>
