<?xml version="1.0" encoding="UTF-8" standalone="no"?>
<!DOCTYPE svg PUBLIC "-//W3C//DTD SVG 1.1//EN"
 "http://www.w3.org/Graphics/SVG/1.1/DTD/svg11.dtd">
<!-- Generated by graphviz version 2.40.1 (20161225.0304)
 -->
<!-- Title: SystemDescriptionParser Pages: 1 -->
<svg width="555pt" height="524pt"
 viewBox="0.00 0.00 555.00 524.00" xmlns="http://www.w3.org/2000/svg" xmlns:xlink="http://www.w3.org/1999/xlink">
<g id="graph0" class="graph" transform="scale(1 1) rotate(0) translate(4 520)">
<title>SystemDescriptionParser</title>
<polygon fill="#ffffff" stroke="transparent" points="-4,4 -4,-520 551,-520 551,4 -4,4"/>
<!-- Node0 -->
<g id="node1" class="node">
<title>Node0</title>
<polygon fill="#bfbfbf" stroke="#000000" points="209.5,-232.5 209.5,-410.5 337.5,-410.5 337.5,-232.5 209.5,-232.5"/>
<text text-anchor="middle" x="273.5" y="-398.5" font-family="Helvetica,sans-Serif" font-size="10.00" fill="#000000">SystemDescriptionParser</text>
<polyline fill="none" stroke="#000000" points="209.5,-391.5 337.5,-391.5 "/>
<text text-anchor="start" x="217.5" y="-379.5" font-family="Helvetica,sans-Serif" font-size="10.00" fill="#000000">+ m_sd</text>
<text text-anchor="start" x="217.5" y="-368.5" font-family="Helvetica,sans-Serif" font-size="10.00" fill="#000000">+ m_f</text>
<text text-anchor="start" x="217.5" y="-357.5" font-family="Helvetica,sans-Serif" font-size="10.00" fill="#000000">+ m_lines</text>
<text text-anchor="start" x="217.5" y="-346.5" font-family="Helvetica,sans-Serif" font-size="10.00" fill="#000000">+ m_addThru</text>
<text text-anchor="start" x="217.5" y="-335.5" font-family="Helvetica,sans-Serif" font-size="10.00" fill="#000000">+ known</text>
<text text-anchor="start" x="217.5" y="-324.5" font-family="Helvetica,sans-Serif" font-size="10.00" fill="#000000">+ m_spc</text>
<text text-anchor="start" x="217.5" y="-313.5" font-family="Helvetica,sans-Serif" font-size="10.00" fill="#000000">+ m_spcl</text>
<text text-anchor="start" x="217.5" y="-302.5" font-family="Helvetica,sans-Serif" font-size="10.00" fill="#000000">+ m_ul</text>
<polyline fill="none" stroke="#000000" points="209.5,-295.5 337.5,-295.5 "/>
<text text-anchor="start" x="217.5" y="-283.5" font-family="Helvetica,sans-Serif" font-size="10.00" fill="#000000">+ __init__()</text>
<text text-anchor="start" x="217.5" y="-272.5" font-family="Helvetica,sans-Serif" font-size="10.00" fill="#000000">+ SystemDescription()</text>
<text text-anchor="start" x="217.5" y="-261.5" font-family="Helvetica,sans-Serif" font-size="10.00" fill="#000000">+ AddKnownDevices()</text>
<text text-anchor="start" x="217.5" y="-250.5" font-family="Helvetica,sans-Serif" font-size="10.00" fill="#000000">+ AddLine()</text>
<text text-anchor="start" x="217.5" y="-239.5" font-family="Helvetica,sans-Serif" font-size="10.00" fill="#000000">+ AddLines()</text>
</g>
<!-- Node2 -->
<g id="node3" class="node">
<title>Node2</title>
<g id="a_node3"><a xlink:href="classSignalIntegrity_1_1Lib_1_1Parsers_1_1DeembedderParser_1_1DeembedderParser.xhtml" target="_top" xlink:title="base class for netlist based deembedding solutions ">
<polygon fill="#ffffff" stroke="#000000" points="36,-122 36,-190 137,-190 137,-122 36,-122"/>
<text text-anchor="middle" x="86.5" y="-178" font-family="Helvetica,sans-Serif" font-size="10.00" fill="#000000">DeembedderParser</text>
<polyline fill="none" stroke="#000000" points="36,-171 137,-171 "/>
<text text-anchor="start" x="44" y="-159" font-family="Helvetica,sans-Serif" font-size="10.00" fill="#000000">+ m_sd</text>
<text text-anchor="start" x="44" y="-148" font-family="Helvetica,sans-Serif" font-size="10.00" fill="#000000">+ m_ul</text>
<polyline fill="none" stroke="#000000" points="36,-141 137,-141 "/>
<text text-anchor="start" x="44" y="-129" font-family="Helvetica,sans-Serif" font-size="10.00" fill="#000000">+ __init__()</text>
</a>
</g>
</g>
<!-- Node0&#45;&gt;Node2 -->
<g id="edge2" class="edge">
<title>Node0&#45;&gt;Node2</title>
<path fill="none" stroke="#191970" d="M201.7685,-258.0157C175.7114,-234.9544 147.2659,-209.7794 125.1521,-190.2082"/>
<polygon fill="none" stroke="#191970" points="199.5987,-260.7693 209.4068,-264.7758 204.238,-255.5274 199.5987,-260.7693"/>
</g>
<!-- Node4 -->
<g id="node5" class="node">
<title>Node4</title>
<g id="a_node5"><a xlink:href="classSignalIntegrity_1_1Lib_1_1Parsers_1_1SimulatorParser_1_1SimulatorParser.xhtml" target="_top" xlink:title="base class for netlist based simulation solutions ">
<polygon fill="#ffffff" stroke="#000000" points="164.5,-122 164.5,-190 250.5,-190 250.5,-122 164.5,-122"/>
<text text-anchor="middle" x="207.5" y="-178" font-family="Helvetica,sans-Serif" font-size="10.00" fill="#000000">SimulatorParser</text>
<polyline fill="none" stroke="#000000" points="164.5,-171 250.5,-171 "/>
<text text-anchor="start" x="172.5" y="-159" font-family="Helvetica,sans-Serif" font-size="10.00" fill="#000000">+ m_sd</text>
<text text-anchor="start" x="172.5" y="-148" font-family="Helvetica,sans-Serif" font-size="10.00" fill="#000000">+ m_ul</text>
<polyline fill="none" stroke="#000000" points="164.5,-141 250.5,-141 "/>
<text text-anchor="start" x="172.5" y="-129" font-family="Helvetica,sans-Serif" font-size="10.00" fill="#000000">+ __init__()</text>
</a>
</g>
</g>
<!-- Node0&#45;&gt;Node4 -->
<g id="edge4" class="edge">
<title>Node0&#45;&gt;Node4</title>
<path fill="none" stroke="#191970" d="M234.2263,-223.0183C229.5722,-211.3478 225.091,-200.1107 221.1715,-190.2823"/>
<polygon fill="none" stroke="#191970" points="231.0332,-224.4601 237.9885,-232.4522 237.5352,-221.8671 231.0332,-224.4601"/>
</g>
<!-- Node6 -->
<g id="node7" class="node">
<title>Node6</title>
<g id="a_node7"><a xlink:href="classSignalIntegrity_1_1Lib_1_1Parsers_1_1SystemSParametersParser_1_1SystemSParametersNumericParser.xhtml" target="_top" xlink:title="generates system s&#45;parameters from a netlist ">
<polygon fill="#ffffff" stroke="#000000" points="268.5,-116.5 268.5,-195.5 412.5,-195.5 412.5,-116.5 268.5,-116.5"/>
<text text-anchor="start" x="276.5" y="-183.5" font-family="Helvetica,sans-Serif" font-size="10.00" fill="#000000">SystemSParametersNumeric</text>
<text text-anchor="middle" x="340.5" y="-172.5" font-family="Helvetica,sans-Serif" font-size="10.00" fill="#000000">Parser</text>
<polyline fill="none" stroke="#000000" points="268.5,-165.5 412.5,-165.5 "/>
<text text-anchor="start" x="276.5" y="-153.5" font-family="Helvetica,sans-Serif" font-size="10.00" fill="#000000">+ sf</text>
<polyline fill="none" stroke="#000000" points="268.5,-146.5 412.5,-146.5 "/>
<text text-anchor="start" x="276.5" y="-134.5" font-family="Helvetica,sans-Serif" font-size="10.00" fill="#000000">+ __init__()</text>
<text text-anchor="start" x="276.5" y="-123.5" font-family="Helvetica,sans-Serif" font-size="10.00" fill="#000000">+ SParameters()</text>
</a>
</g>
</g>
<!-- Node0&#45;&gt;Node6 -->
<g id="edge6" class="edge">
<title>Node0&#45;&gt;Node6</title>
<path fill="none" stroke="#191970" d="M313.3086,-223.1669C317.1991,-213.5568 320.9718,-204.2375 324.4066,-195.7532"/>
<polygon fill="none" stroke="#191970" points="310.0579,-221.8696 309.5496,-232.4522 316.5464,-224.4963 310.0579,-221.8696"/>
</g>
<!-- Node7 -->
<g id="node8" class="node">
<title>Node7</title>
<g id="a_node8"><a xlink:href="classSignalIntegrity_1_1Lib_1_1Parsers_1_1VirtualProbeParser_1_1VirtualProbeParser.xhtml" target="_top" xlink:title="base class for netlist based virtual probing solutions ">
<polygon fill="#ffffff" stroke="#000000" points="430.5,-122 430.5,-190 528.5,-190 528.5,-122 430.5,-122"/>
<text text-anchor="middle" x="479.5" y="-178" font-family="Helvetica,sans-Serif" font-size="10.00" fill="#000000">VirtualProbeParser</text>
<polyline fill="none" stroke="#000000" points="430.5,-171 528.5,-171 "/>
<text text-anchor="start" x="438.5" y="-159" font-family="Helvetica,sans-Serif" font-size="10.00" fill="#000000">+ m_sd</text>
<text text-anchor="start" x="438.5" y="-148" font-family="Helvetica,sans-Serif" font-size="10.00" fill="#000000">+ m_ul</text>
<polyline fill="none" stroke="#000000" points="430.5,-141 528.5,-141 "/>
<text text-anchor="start" x="438.5" y="-129" font-family="Helvetica,sans-Serif" font-size="10.00" fill="#000000">+ __init__()</text>
</a>
</g>
</g>
<!-- Node0&#45;&gt;Node7 -->
<g id="edge7" class="edge">
<title>Node0&#45;&gt;Node7</title>
<path fill="none" stroke="#191970" d="M345.6273,-263.5531C376.1435,-239.0364 410.6433,-211.3193 436.9767,-190.1631"/>
<polygon fill="none" stroke="#191970" points="343.1542,-261.0503 337.5505,-270.042 347.5383,-266.5074 343.1542,-261.0503"/>
</g>
<!-- Node1 -->
<g id="node2" class="node">
<title>Node1</title>
<g id="a_node2"><a xlink:href="classSignalIntegrity_1_1Lib_1_1Parsers_1_1ParserFile_1_1ParserFile.xhtml" target="_top" xlink:title="file handling base class for parsers ">
<polygon fill="#ffffff" stroke="#000000" points="232.5,-447.5 232.5,-515.5 314.5,-515.5 314.5,-447.5 232.5,-447.5"/>
<text text-anchor="middle" x="273.5" y="-503.5" font-family="Helvetica,sans-Serif" font-size="10.00" fill="#000000">ParserFile</text>
<polyline fill="none" stroke="#000000" points="232.5,-496.5 314.5,-496.5 "/>
<text text-anchor="middle" x="273.5" y="-484.5" font-family="Helvetica,sans-Serif" font-size="10.00" fill="#000000"> </text>
<polyline fill="none" stroke="#000000" points="232.5,-477.5 314.5,-477.5 "/>
<text text-anchor="start" x="240.5" y="-465.5" font-family="Helvetica,sans-Serif" font-size="10.00" fill="#000000">+ File()</text>
<text text-anchor="start" x="240.5" y="-454.5" font-family="Helvetica,sans-Serif" font-size="10.00" fill="#000000">+ WriteToFile()</text>
</a>
</g>
</g>
<!-- Node1&#45;&gt;Node0 -->
<g id="edge1" class="edge">
<title>Node1&#45;&gt;Node0</title>
<path fill="none" stroke="#191970" d="M273.5,-437.0284C273.5,-428.7175 273.5,-419.7646 273.5,-410.6512"/>
<polygon fill="none" stroke="#191970" points="270.0001,-437.176 273.5,-447.176 277.0001,-437.176 270.0001,-437.176"/>
</g>
<!-- Node3 -->
<g id="node4" class="node">
<title>Node3</title>
<g id="a_node4"><a xlink:href="classSignalIntegrity_1_1Lib_1_1Parsers_1_1DeembedderNumericParser_1_1DeembedderNumericParser.xhtml" target="_top" xlink:title="generates deembedd s&#45;parameters from a netlist ">
<polygon fill="#ffffff" stroke="#000000" points="0,-6 0,-74 137,-74 137,-6 0,-6"/>
<text text-anchor="middle" x="68.5" y="-62" font-family="Helvetica,sans-Serif" font-size="10.00" fill="#000000">DeembedderNumericParser</text>
<polyline fill="none" stroke="#000000" points="0,-55 137,-55 "/>
<text text-anchor="start" x="8" y="-43" font-family="Helvetica,sans-Serif" font-size="10.00" fill="#000000">+ sf</text>
<polyline fill="none" stroke="#000000" points="0,-36 137,-36 "/>
<text text-anchor="start" x="8" y="-24" font-family="Helvetica,sans-Serif" font-size="10.00" fill="#000000">+ __init__()</text>
<text text-anchor="start" x="8" y="-13" font-family="Helvetica,sans-Serif" font-size="10.00" fill="#000000">+ Deembed()</text>
</a>
</g>
</g>
<!-- Node2&#45;&gt;Node3 -->
<g id="edge3" class="edge">
<title>Node2&#45;&gt;Node3</title>
<path fill="none" stroke="#191970" d="M79.6235,-111.6851C77.7025,-99.3048 75.6445,-86.0422 73.8275,-74.333"/>
<polygon fill="none" stroke="#191970" points="76.2047,-112.4785 81.1968,-121.8236 83.1219,-111.4051 76.2047,-112.4785"/>
</g>
<!-- Node5 -->
<g id="node6" class="node">
<title>Node5</title>
<g id="a_node6"><a xlink:href="classSignalIntegrity_1_1Lib_1_1Parsers_1_1SimulatorNumericParser_1_1SimulatorNumericParser.xhtml" target="_top" xlink:title="performs numeric simulations from netlists ">
<polygon fill="#ffffff" stroke="#000000" points="155,-6 155,-74 278,-74 278,-6 155,-6"/>
<text text-anchor="middle" x="216.5" y="-62" font-family="Helvetica,sans-Serif" font-size="10.00" fill="#000000">SimulatorNumericParser</text>
<polyline fill="none" stroke="#000000" points="155,-55 278,-55 "/>
<text text-anchor="start" x="163" y="-43" font-family="Helvetica,sans-Serif" font-size="10.00" fill="#000000">+ transferMatrices</text>
<polyline fill="none" stroke="#000000" points="155,-36 278,-36 "/>
<text text-anchor="start" x="163" y="-24" font-family="Helvetica,sans-Serif" font-size="10.00" fill="#000000">+ __init__()</text>
<text text-anchor="start" x="163" y="-13" font-family="Helvetica,sans-Serif" font-size="10.00" fill="#000000">+ TransferMatrices()</text>
</a>
</g>
</g>
<!-- Node4&#45;&gt;Node5 -->
<g id="edge5" class="edge">
<title>Node4&#45;&gt;Node5</title>
<path fill="none" stroke="#191970" d="M210.9382,-111.6851C211.8988,-99.3048 212.9278,-86.0422 213.8362,-74.333"/>
<polygon fill="none" stroke="#191970" points="207.4357,-111.5828 210.1516,-121.8236 214.4148,-112.1243 207.4357,-111.5828"/>
</g>
<!-- Node8 -->
<g id="node9" class="node">
<title>Node8</title>
<g id="a_node9"><a xlink:href="classSignalIntegrity_1_1Lib_1_1Parsers_1_1VirtualProbeNumericParser_1_1VirtualProbeNumericParser.xhtml" target="_top" xlink:title="performs numeric virtual probing from netlists ">
<polygon fill="#ffffff" stroke="#000000" points="412,-.5 412,-79.5 547,-79.5 547,-.5 412,-.5"/>
<text text-anchor="middle" x="479.5" y="-67.5" font-family="Helvetica,sans-Serif" font-size="10.00" fill="#000000">VirtualProbeNumericParser</text>
<polyline fill="none" stroke="#000000" points="412,-60.5 547,-60.5 "/>
<text text-anchor="start" x="420" y="-48.5" font-family="Helvetica,sans-Serif" font-size="10.00" fill="#000000">+ transferMatrices</text>
<text text-anchor="start" x="420" y="-37.5" font-family="Helvetica,sans-Serif" font-size="10.00" fill="#000000">+ m_tm</text>
<polyline fill="none" stroke="#000000" points="412,-30.5 547,-30.5 "/>
<text text-anchor="start" x="420" y="-18.5" font-family="Helvetica,sans-Serif" font-size="10.00" fill="#000000">+ __init__()</text>
<text text-anchor="start" x="420" y="-7.5" font-family="Helvetica,sans-Serif" font-size="10.00" fill="#000000">+ TransferMatrices()</text>
</a>
</g>
</g>
<!-- Node7&#45;&gt;Node8 -->
<g id="edge8" class="edge">
<title>Node7&#45;&gt;Node8</title>
<path fill="none" stroke="#191970" d="M479.5,-111.5789C479.5,-101.0691 479.5,-89.929 479.5,-79.6468"/>
<polygon fill="none" stroke="#191970" points="476.0001,-111.8235 479.5,-121.8236 483.0001,-111.8236 476.0001,-111.8235"/>
</g>
</g>
</svg>
