<?xml version="1.0" encoding="UTF-8" standalone="no"?>
<!DOCTYPE svg PUBLIC "-//W3C//DTD SVG 1.1//EN"
 "http://www.w3.org/Graphics/SVG/1.1/DTD/svg11.dtd">
<!-- Generated by graphviz version 2.40.1 (20161225.0304)
 -->
<!-- Title: FirFilter Pages: 1 -->
<svg width="637pt" height="331pt"
 viewBox="0.00 0.00 637.50 331.00" xmlns="http://www.w3.org/2000/svg" xmlns:xlink="http://www.w3.org/1999/xlink">
<g id="graph0" class="graph" transform="scale(1 1) rotate(0) translate(4 327)">
<title>FirFilter</title>
<polygon fill="#ffffff" stroke="transparent" points="-4,4 -4,-327 633.5,-327 633.5,4 -4,4"/>
<!-- Node0 -->
<g id="node1" class="node">
<title>Node0</title>
<polygon fill="#bfbfbf" stroke="#000000" points="275,-105.5 275,-228.5 388,-228.5 388,-105.5 275,-105.5"/>
<text text-anchor="middle" x="331.5" y="-216.5" font-family="Helvetica,sans-Serif" font-size="10.00" fill="#000000">FirFilter</text>
<polyline fill="none" stroke="#000000" points="275,-209.5 388,-209.5 "/>
<text text-anchor="start" x="283" y="-197.5" font-family="Helvetica,sans-Serif" font-size="10.00" fill="#000000">+ m_fd</text>
<text text-anchor="start" x="283" y="-186.5" font-family="Helvetica,sans-Serif" font-size="10.00" fill="#000000">+ m_ft</text>
<polyline fill="none" stroke="#000000" points="275,-179.5 388,-179.5 "/>
<text text-anchor="start" x="283" y="-167.5" font-family="Helvetica,sans-Serif" font-size="10.00" fill="#000000">+ __init__()</text>
<text text-anchor="start" x="283" y="-156.5" font-family="Helvetica,sans-Serif" font-size="10.00" fill="#000000">+ ProcessWaveform()</text>
<text text-anchor="start" x="283" y="-145.5" font-family="Helvetica,sans-Serif" font-size="10.00" fill="#000000">+ FilterTaps()</text>
<text text-anchor="start" x="283" y="-134.5" font-family="Helvetica,sans-Serif" font-size="10.00" fill="#000000">+ FilterDescriptor()</text>
<text text-anchor="start" x="283" y="-123.5" font-family="Helvetica,sans-Serif" font-size="10.00" fill="#000000">+ FilterWaveform()</text>
<text text-anchor="start" x="283" y="-112.5" font-family="Helvetica,sans-Serif" font-size="10.00" fill="#000000">+ Print()</text>
</g>
<!-- Node2 -->
<g id="node3" class="node">
<title>Node2</title>
<g id="a_node3"><a xlink:href="classSignalIntegrity_1_1TimeDomain_1_1Filters_1_1InterpolatorLinear_1_1FractionalDelayFilterLinear.xhtml" target="_top" xlink:title="linear fractional delay filter ">
<polygon fill="#ffffff" stroke="#000000" points="0,-6 0,-63 133,-63 133,-6 0,-6"/>
<text text-anchor="middle" x="66.5" y="-51" font-family="Helvetica,sans-Serif" font-size="10.00" fill="#000000">FractionalDelayFilterLinear</text>
<polyline fill="none" stroke="#000000" points="0,-44 133,-44 "/>
<text text-anchor="middle" x="66.5" y="-32" font-family="Helvetica,sans-Serif" font-size="10.00" fill="#000000"> </text>
<polyline fill="none" stroke="#000000" points="0,-25 133,-25 "/>
<text text-anchor="start" x="8" y="-13" font-family="Helvetica,sans-Serif" font-size="10.00" fill="#000000">+ __init__()</text>
</a>
</g>
</g>
<!-- Node0&#45;&gt;Node2 -->
<g id="edge2" class="edge">
<title>Node0&#45;&gt;Node2</title>
<path fill="none" stroke="#191970" d="M265.8843,-134.1921C222.3006,-112.4003 165.6299,-84.065 123.8512,-63.1756"/>
<polygon fill="none" stroke="#191970" points="264.4663,-137.3963 274.9759,-138.7379 267.5969,-131.1353 264.4663,-137.3963"/>
</g>
<!-- Node3 -->
<g id="node4" class="node">
<title>Node3</title>
<g id="a_node4"><a xlink:href="classSignalIntegrity_1_1TimeDomain_1_1Filters_1_1InterpolatorLinear_1_1InterpolatorLinear.xhtml" target="_top" xlink:title="linear interpolating filter ">
<polygon fill="#ffffff" stroke="#000000" points="151.5,-.5 151.5,-68.5 249.5,-68.5 249.5,-.5 151.5,-.5"/>
<text text-anchor="middle" x="200.5" y="-56.5" font-family="Helvetica,sans-Serif" font-size="10.00" fill="#000000">InterpolatorLinear</text>
<polyline fill="none" stroke="#000000" points="151.5,-49.5 249.5,-49.5 "/>
<text text-anchor="middle" x="200.5" y="-37.5" font-family="Helvetica,sans-Serif" font-size="10.00" fill="#000000"> </text>
<polyline fill="none" stroke="#000000" points="151.5,-30.5 249.5,-30.5 "/>
<text text-anchor="start" x="159.5" y="-18.5" font-family="Helvetica,sans-Serif" font-size="10.00" fill="#000000">+ __init__()</text>
<text text-anchor="start" x="159.5" y="-7.5" font-family="Helvetica,sans-Serif" font-size="10.00" fill="#000000">+ FilterWaveform()</text>
</a>
</g>
</g>
<!-- Node0&#45;&gt;Node3 -->
<g id="edge3" class="edge">
<title>Node0&#45;&gt;Node3</title>
<path fill="none" stroke="#191970" d="M267.638,-102.4067C256.0952,-90.7318 244.4845,-78.9882 234.2411,-68.6274"/>
<polygon fill="none" stroke="#191970" points="265.2837,-105.0037 274.8034,-109.6542 270.2616,-100.0822 265.2837,-105.0037"/>
</g>
<!-- Node4 -->
<g id="node5" class="node">
<title>Node4</title>
<g id="a_node5"><a xlink:href="classSignalIntegrity_1_1TimeDomain_1_1Filters_1_1InterpolatorSinX_1_1FractionalDelayFilterSinX.xhtml" target="_top" xlink:title="sinx/x fractional delay filter ">
<polygon fill="#ffffff" stroke="#000000" points="267.5,-6 267.5,-63 395.5,-63 395.5,-6 267.5,-6"/>
<text text-anchor="middle" x="331.5" y="-51" font-family="Helvetica,sans-Serif" font-size="10.00" fill="#000000">FractionalDelayFilterSinX</text>
<polyline fill="none" stroke="#000000" points="267.5,-44 395.5,-44 "/>
<text text-anchor="start" x="275.5" y="-32" font-family="Helvetica,sans-Serif" font-size="10.00" fill="#000000">+ S</text>
<polyline fill="none" stroke="#000000" points="267.5,-25 395.5,-25 "/>
<text text-anchor="start" x="275.5" y="-13" font-family="Helvetica,sans-Serif" font-size="10.00" fill="#000000">+ __init__()</text>
</a>
</g>
</g>
<!-- Node0&#45;&gt;Node4 -->
<g id="edge4" class="edge">
<title>Node0&#45;&gt;Node4</title>
<path fill="none" stroke="#191970" d="M331.5,-95.3778C331.5,-83.9913 331.5,-72.8179 331.5,-63.2148"/>
<polygon fill="none" stroke="#191970" points="328.0001,-95.4048 331.5,-105.4048 335.0001,-95.4048 328.0001,-95.4048"/>
</g>
<!-- Node5 -->
<g id="node6" class="node">
<title>Node5</title>
<g id="a_node6"><a xlink:href="classSignalIntegrity_1_1TimeDomain_1_1Filters_1_1InterpolatorSinX_1_1InterpolatorSinX.xhtml" target="_top" xlink:title="sinx/x interpolating filter ">
<polygon fill="#ffffff" stroke="#000000" points="413.5,-.5 413.5,-68.5 511.5,-68.5 511.5,-.5 413.5,-.5"/>
<text text-anchor="middle" x="462.5" y="-56.5" font-family="Helvetica,sans-Serif" font-size="10.00" fill="#000000">InterpolatorSinX</text>
<polyline fill="none" stroke="#000000" points="413.5,-49.5 511.5,-49.5 "/>
<text text-anchor="start" x="421.5" y="-37.5" font-family="Helvetica,sans-Serif" font-size="10.00" fill="#000000">+ S</text>
<polyline fill="none" stroke="#000000" points="413.5,-30.5 511.5,-30.5 "/>
<text text-anchor="start" x="421.5" y="-18.5" font-family="Helvetica,sans-Serif" font-size="10.00" fill="#000000">+ __init__()</text>
<text text-anchor="start" x="421.5" y="-7.5" font-family="Helvetica,sans-Serif" font-size="10.00" fill="#000000">+ FilterWaveform()</text>
</a>
</g>
</g>
<!-- Node0&#45;&gt;Node5 -->
<g id="edge5" class="edge">
<title>Node0&#45;&gt;Node5</title>
<path fill="none" stroke="#191970" d="M395.362,-102.4067C406.9048,-90.7318 418.5155,-78.9882 428.7589,-68.6274"/>
<polygon fill="none" stroke="#191970" points="392.7384,-100.0822 388.1966,-109.6542 397.7163,-105.0037 392.7384,-100.0822"/>
</g>
<!-- Node6 -->
<g id="node7" class="node">
<title>Node6</title>
<g id="a_node7"><a xlink:href="classSignalIntegrity_1_1TimeDomain_1_1Filters_1_1RaisedCosineFilter_1_1RaisedCosineFilter.xhtml" target="_top" xlink:title="raised cosine filter ">
<polygon fill="#ffffff" stroke="#000000" points="529.5,-6 529.5,-63 629.5,-63 629.5,-6 529.5,-6"/>
<text text-anchor="middle" x="579.5" y="-51" font-family="Helvetica,sans-Serif" font-size="10.00" fill="#000000">RaisedCosineFilter</text>
<polyline fill="none" stroke="#000000" points="529.5,-44 629.5,-44 "/>
<text text-anchor="middle" x="579.5" y="-32" font-family="Helvetica,sans-Serif" font-size="10.00" fill="#000000"> </text>
<polyline fill="none" stroke="#000000" points="529.5,-25 629.5,-25 "/>
<text text-anchor="start" x="537.5" y="-13" font-family="Helvetica,sans-Serif" font-size="10.00" fill="#000000">+ __init__()</text>
</a>
</g>
</g>
<!-- Node0&#45;&gt;Node6 -->
<g id="edge6" class="edge">
<title>Node0&#45;&gt;Node6</title>
<path fill="none" stroke="#191970" d="M397.2074,-133.9645C433.7519,-115.3327 479.9161,-91.3686 520.5,-69 523.9293,-67.1099 527.4549,-65.1338 530.9949,-63.1253"/>
<polygon fill="none" stroke="#191970" points="395.458,-130.9275 388.1329,-138.5823 398.6327,-137.1662 395.458,-130.9275"/>
</g>
<!-- Node1 -->
<g id="node2" class="node">
<title>Node1</title>
<g id="a_node2"><a xlink:href="classSignalIntegrity_1_1TimeDomain_1_1Filters_1_1WaveformProcessor_1_1WaveformProcessor.xhtml" target="_top" xlink:title="base class for things that process waveforms ">
<polygon fill="#ffffff" stroke="#000000" points="275,-265.5 275,-322.5 388,-322.5 388,-265.5 275,-265.5"/>
<text text-anchor="middle" x="331.5" y="-310.5" font-family="Helvetica,sans-Serif" font-size="10.00" fill="#000000">WaveformProcessor</text>
<polyline fill="none" stroke="#000000" points="275,-303.5 388,-303.5 "/>
<text text-anchor="middle" x="331.5" y="-291.5" font-family="Helvetica,sans-Serif" font-size="10.00" fill="#000000"> </text>
<polyline fill="none" stroke="#000000" points="275,-284.5 388,-284.5 "/>
<text text-anchor="start" x="283" y="-272.5" font-family="Helvetica,sans-Serif" font-size="10.00" fill="#000000">+ ProcessWaveform()</text>
</a>
</g>
</g>
<!-- Node1&#45;&gt;Node0 -->
<g id="edge1" class="edge">
<title>Node1&#45;&gt;Node0</title>
<path fill="none" stroke="#191970" d="M331.5,-255.2486C331.5,-246.8213 331.5,-237.7045 331.5,-228.6384"/>
<polygon fill="none" stroke="#191970" points="328.0001,-255.4987 331.5,-265.4987 335.0001,-255.4988 328.0001,-255.4987"/>
</g>
</g>
</svg>
