<?xml version="1.0" encoding="UTF-8" standalone="no"?>
<!DOCTYPE svg PUBLIC "-//W3C//DTD SVG 1.1//EN"
 "http://www.w3.org/Graphics/SVG/1.1/DTD/svg11.dtd">
<!-- Generated by graphviz version 2.40.1 (20161225.0304)
 -->
<!-- Title: SParameters Pages: 1 -->
<svg width="2781pt" height="601pt"
 viewBox="0.00 0.00 2780.50 601.00" xmlns="http://www.w3.org/2000/svg" xmlns:xlink="http://www.w3.org/1999/xlink">
<g id="graph0" class="graph" transform="scale(1 1) rotate(0) translate(4 597)">
<title>SParameters</title>
<polygon fill="#ffffff" stroke="transparent" points="-4,4 -4,-597 2776.5,-597 2776.5,4 -4,4"/>
<!-- Node0 -->
<g id="node1" class="node">
<title>Node0</title>
<polygon fill="#bfbfbf" stroke="#000000" points="1187.5,-254.5 1187.5,-454.5 1327.5,-454.5 1327.5,-254.5 1187.5,-254.5"/>
<text text-anchor="middle" x="1257.5" y="-442.5" font-family="Helvetica,sans-Serif" font-size="10.00" fill="#000000">SParameters</text>
<polyline fill="none" stroke="#000000" points="1187.5,-435.5 1327.5,-435.5 "/>
<text text-anchor="start" x="1195.5" y="-423.5" font-family="Helvetica,sans-Serif" font-size="10.00" fill="#000000">+ m_sToken</text>
<text text-anchor="start" x="1195.5" y="-412.5" font-family="Helvetica,sans-Serif" font-size="10.00" fill="#000000">+ m_d</text>
<text text-anchor="start" x="1195.5" y="-401.5" font-family="Helvetica,sans-Serif" font-size="10.00" fill="#000000">+ m_Z0</text>
<text text-anchor="start" x="1195.5" y="-390.5" font-family="Helvetica,sans-Serif" font-size="10.00" fill="#000000">+ m_f</text>
<text text-anchor="start" x="1195.5" y="-379.5" font-family="Helvetica,sans-Serif" font-size="10.00" fill="#000000">+ m_P</text>
<text text-anchor="start" x="1195.5" y="-368.5" font-family="Helvetica,sans-Serif" font-size="10.00" fill="#000000">+ header</text>
<polyline fill="none" stroke="#000000" points="1187.5,-361.5 1327.5,-361.5 "/>
<text text-anchor="start" x="1195.5" y="-349.5" font-family="Helvetica,sans-Serif" font-size="10.00" fill="#000000">+ __init__()</text>
<text text-anchor="start" x="1195.5" y="-338.5" font-family="Helvetica,sans-Serif" font-size="10.00" fill="#000000">+ __getitem__()</text>
<text text-anchor="start" x="1195.5" y="-327.5" font-family="Helvetica,sans-Serif" font-size="10.00" fill="#000000">+ __len__()</text>
<text text-anchor="start" x="1195.5" y="-316.5" font-family="Helvetica,sans-Serif" font-size="10.00" fill="#000000">+ f()</text>
<text text-anchor="start" x="1195.5" y="-305.5" font-family="Helvetica,sans-Serif" font-size="10.00" fill="#000000">+ Response()</text>
<text text-anchor="start" x="1195.5" y="-294.5" font-family="Helvetica,sans-Serif" font-size="10.00" fill="#000000">+ FrequencyResponse()</text>
<text text-anchor="start" x="1195.5" y="-283.5" font-family="Helvetica,sans-Serif" font-size="10.00" fill="#000000">+ WriteToFile()</text>
<text text-anchor="start" x="1195.5" y="-272.5" font-family="Helvetica,sans-Serif" font-size="10.00" fill="#000000">+ Resample()</text>
<text text-anchor="start" x="1195.5" y="-261.5" font-family="Helvetica,sans-Serif" font-size="10.00" fill="#000000">+ SetReferenceImpedance()</text>
</g>
<!-- Node2 -->
<g id="node3" class="node">
<title>Node2</title>
<g id="a_node3"><a xlink:href="classSignalIntegrity_1_1Lib_1_1ImpedanceProfile_1_1PeeledLaunches_1_1PeeledLaunches.xhtml" target="_top" xlink:title="S&#45;parameters with launches peeled from them. ">
<polygon fill="#ffffff" stroke="#000000" points="0,-127.5 0,-184.5 89,-184.5 89,-127.5 0,-127.5"/>
<text text-anchor="middle" x="44.5" y="-172.5" font-family="Helvetica,sans-Serif" font-size="10.00" fill="#000000">PeeledLaunches</text>
<polyline fill="none" stroke="#000000" points="0,-165.5 89,-165.5 "/>
<text text-anchor="middle" x="44.5" y="-153.5" font-family="Helvetica,sans-Serif" font-size="10.00" fill="#000000"> </text>
<polyline fill="none" stroke="#000000" points="0,-146.5 89,-146.5 "/>
<text text-anchor="start" x="8" y="-134.5" font-family="Helvetica,sans-Serif" font-size="10.00" fill="#000000">+ __init__()</text>
</a>
</g>
</g>
<!-- Node0&#45;&gt;Node2 -->
<g id="edge2" class="edge">
<title>Node0&#45;&gt;Node2</title>
<path fill="none" stroke="#191970" d="M1176.9798,-352.4846C946.1532,-345.5514 286.6484,-317.3299 98.5,-218 83.9835,-210.3362 71.6121,-197.0465 62.388,-184.7318"/>
<polygon fill="none" stroke="#191970" points="1177.2169,-355.9931 1187.3158,-352.7894 1177.4233,-348.9961 1177.2169,-355.9931"/>
</g>
<!-- Node3 -->
<g id="node4" class="node">
<title>Node3</title>
<g id="a_node4"><a xlink:href="classSignalIntegrity_1_1Lib_1_1ImpedanceProfile_1_1PeeledPortSParameters_1_1PeeledPortSParameters.xhtml" target="_top" xlink:title="s&#45;parameters of peeled impedance profile from port calculates the impedance profile looking into a po...">
<polygon fill="#ffffff" stroke="#000000" points="107.5,-127.5 107.5,-184.5 229.5,-184.5 229.5,-127.5 107.5,-127.5"/>
<text text-anchor="middle" x="168.5" y="-172.5" font-family="Helvetica,sans-Serif" font-size="10.00" fill="#000000">PeeledPortSParameters</text>
<polyline fill="none" stroke="#000000" points="107.5,-165.5 229.5,-165.5 "/>
<text text-anchor="middle" x="168.5" y="-153.5" font-family="Helvetica,sans-Serif" font-size="10.00" fill="#000000"> </text>
<polyline fill="none" stroke="#000000" points="107.5,-146.5 229.5,-146.5 "/>
<text text-anchor="start" x="115.5" y="-134.5" font-family="Helvetica,sans-Serif" font-size="10.00" fill="#000000">+ __init__()</text>
</a>
</g>
</g>
<!-- Node0&#45;&gt;Node3 -->
<g id="edge3" class="edge">
<title>Node0&#45;&gt;Node3</title>
<path fill="none" stroke="#191970" d="M1177.4658,-349.8079C967.6403,-336.5591 406.2838,-294.7491 238.5,-218 221.5225,-210.234 205.6724,-196.9338 193.3628,-184.6387"/>
<polygon fill="none" stroke="#191970" points="1177.2894,-353.3036 1187.4887,-350.4358 1177.7272,-346.3173 1177.2894,-353.3036"/>
</g>
<!-- Node4 -->
<g id="node5" class="node">
<title>Node4</title>
<g id="a_node5"><a xlink:href="classSignalIntegrity_1_1Lib_1_1Measurement_1_1CalKit_1_1Standards_1_1LoadStandard_1_1LoadStandard.xhtml" target="_top" xlink:title="Class providing the s&#45;parameters of a load standard as commonly defined for a calibration kit...">
<polygon fill="#ffffff" stroke="#000000" points="248,-127.5 248,-184.5 325,-184.5 325,-127.5 248,-127.5"/>
<text text-anchor="middle" x="286.5" y="-172.5" font-family="Helvetica,sans-Serif" font-size="10.00" fill="#000000">LoadStandard</text>
<polyline fill="none" stroke="#000000" points="248,-165.5 325,-165.5 "/>
<text text-anchor="middle" x="286.5" y="-153.5" font-family="Helvetica,sans-Serif" font-size="10.00" fill="#000000"> </text>
<polyline fill="none" stroke="#000000" points="248,-146.5 325,-146.5 "/>
<text text-anchor="start" x="256" y="-134.5" font-family="Helvetica,sans-Serif" font-size="10.00" fill="#000000">+ __init__()</text>
</a>
</g>
</g>
<!-- Node0&#45;&gt;Node4 -->
<g id="edge4" class="edge">
<title>Node0&#45;&gt;Node4</title>
<path fill="none" stroke="#191970" d="M1177.1718,-350.3737C979.6628,-339.0188 476.0638,-302.3773 333.5,-218 320.1326,-210.0884 309.2905,-196.7735 301.4024,-184.5063"/>
<polygon fill="none" stroke="#191970" points="1177.0104,-353.8701 1187.1929,-350.9432 1177.4077,-346.8814 1177.0104,-353.8701"/>
</g>
<!-- Node5 -->
<g id="node6" class="node">
<title>Node5</title>
<g id="a_node6"><a xlink:href="classSignalIntegrity_1_1Lib_1_1Measurement_1_1CalKit_1_1Standards_1_1Offset_1_1Offset.xhtml" target="_top" xlink:title="class providing the s&#45;parameters of an offset portion of the various calibration standards for a cali...">
<polygon fill="#ffffff" stroke="#000000" points="343,-127.5 343,-184.5 408,-184.5 408,-127.5 343,-127.5"/>
<text text-anchor="middle" x="375.5" y="-172.5" font-family="Helvetica,sans-Serif" font-size="10.00" fill="#000000">Offset</text>
<polyline fill="none" stroke="#000000" points="343,-165.5 408,-165.5 "/>
<text text-anchor="start" x="351" y="-153.5" font-family="Helvetica,sans-Serif" font-size="10.00" fill="#000000">+ calcZc</text>
<polyline fill="none" stroke="#000000" points="343,-146.5 408,-146.5 "/>
<text text-anchor="start" x="351" y="-134.5" font-family="Helvetica,sans-Serif" font-size="10.00" fill="#000000">+ __init__()</text>
</a>
</g>
</g>
<!-- Node0&#45;&gt;Node5 -->
<g id="edge5" class="edge">
<title>Node0&#45;&gt;Node5</title>
<path fill="none" stroke="#191970" d="M1177.253,-349.6301C992.2091,-337.1239 541.8588,-299.0095 416.5,-218 404.1442,-210.0154 394.6623,-196.8473 387.945,-184.6956"/>
<polygon fill="none" stroke="#191970" points="1177.2484,-353.1375 1187.4595,-350.312 1177.7152,-346.153 1177.2484,-353.1375"/>
</g>
<!-- Node7 -->
<g id="node8" class="node">
<title>Node7</title>
<g id="a_node8"><a xlink:href="classSignalIntegrity_1_1Lib_1_1Measurement_1_1CalKit_1_1Standards_1_1OpenStandard_1_1OpenStandard.xhtml" target="_top" xlink:title="class providing the s&#45;parameters of an open standard as commonly defined for a calibration kit...">
<polygon fill="#ffffff" stroke="#000000" points="426,-127.5 426,-184.5 505,-184.5 505,-127.5 426,-127.5"/>
<text text-anchor="middle" x="465.5" y="-172.5" font-family="Helvetica,sans-Serif" font-size="10.00" fill="#000000">OpenStandard</text>
<polyline fill="none" stroke="#000000" points="426,-165.5 505,-165.5 "/>
<text text-anchor="middle" x="465.5" y="-153.5" font-family="Helvetica,sans-Serif" font-size="10.00" fill="#000000"> </text>
<polyline fill="none" stroke="#000000" points="426,-146.5 505,-146.5 "/>
<text text-anchor="start" x="434" y="-134.5" font-family="Helvetica,sans-Serif" font-size="10.00" fill="#000000">+ __init__()</text>
</a>
</g>
</g>
<!-- Node0&#45;&gt;Node7 -->
<g id="edge7" class="edge">
<title>Node0&#45;&gt;Node7</title>
<path fill="none" stroke="#191970" d="M1177.2249,-347.0522C1008.7177,-330.2621 624.5338,-285.5753 513.5,-218 500.2436,-209.9321 489.2751,-196.7549 481.1857,-184.6187"/>
<polygon fill="none" stroke="#191970" points="1176.9818,-350.5451 1187.2777,-348.0462 1177.6707,-343.5791 1176.9818,-350.5451"/>
</g>
<!-- Node8 -->
<g id="node9" class="node">
<title>Node8</title>
<g id="a_node9"><a xlink:href="classSignalIntegrity_1_1Lib_1_1Measurement_1_1CalKit_1_1Standards_1_1ShortStandard_1_1ShortStandard.xhtml" target="_top" xlink:title="Class providing the s&#45;parameters of a short standard as commonly defined for a calibration kit...">
<polygon fill="#ffffff" stroke="#000000" points="523,-127.5 523,-184.5 602,-184.5 602,-127.5 523,-127.5"/>
<text text-anchor="middle" x="562.5" y="-172.5" font-family="Helvetica,sans-Serif" font-size="10.00" fill="#000000">ShortStandard</text>
<polyline fill="none" stroke="#000000" points="523,-165.5 602,-165.5 "/>
<text text-anchor="middle" x="562.5" y="-153.5" font-family="Helvetica,sans-Serif" font-size="10.00" fill="#000000"> </text>
<polyline fill="none" stroke="#000000" points="523,-146.5 602,-146.5 "/>
<text text-anchor="start" x="531" y="-134.5" font-family="Helvetica,sans-Serif" font-size="10.00" fill="#000000">+ __init__()</text>
</a>
</g>
</g>
<!-- Node0&#45;&gt;Node8 -->
<g id="edge8" class="edge">
<title>Node0&#45;&gt;Node8</title>
<path fill="none" stroke="#191970" d="M1177.3019,-344.5921C1025.8654,-324.7569 704.5717,-276.9726 610.5,-218 597.4669,-209.8297 586.5873,-196.7921 578.4994,-184.7762"/>
<polygon fill="none" stroke="#191970" points="1177.0986,-348.0951 1187.4667,-345.9149 1178.002,-341.1536 1177.0986,-348.0951"/>
</g>
<!-- Node9 -->
<g id="node10" class="node">
<title>Node9</title>
<g id="a_node10"><a xlink:href="classSignalIntegrity_1_1Lib_1_1Measurement_1_1CalKit_1_1Standards_1_1TerminationPolynomial_1_1TerminationCPolynomial.xhtml" target="_top" xlink:title="Class for capacitive terminations for open calibration standards. ">
<polygon fill="#ffffff" stroke="#000000" points="620,-116.5 620,-195.5 743,-195.5 743,-116.5 620,-116.5"/>
<text text-anchor="middle" x="681.5" y="-183.5" font-family="Helvetica,sans-Serif" font-size="10.00" fill="#000000">TerminationCPolynomial</text>
<polyline fill="none" stroke="#000000" points="620,-176.5 743,-176.5 "/>
<text text-anchor="middle" x="681.5" y="-164.5" font-family="Helvetica,sans-Serif" font-size="10.00" fill="#000000"> </text>
<polyline fill="none" stroke="#000000" points="620,-157.5 743,-157.5 "/>
<text text-anchor="start" x="628" y="-145.5" font-family="Helvetica,sans-Serif" font-size="10.00" fill="#000000">+ __init__()</text>
<text text-anchor="start" x="628" y="-134.5" font-family="Helvetica,sans-Serif" font-size="10.00" fill="#000000">+ PolynomialC()</text>
<text text-anchor="start" x="628" y="-123.5" font-family="Helvetica,sans-Serif" font-size="10.00" fill="#000000">+ __getitem__()</text>
</a>
</g>
</g>
<!-- Node0&#45;&gt;Node9 -->
<g id="edge9" class="edge">
<title>Node0&#45;&gt;Node9</title>
<path fill="none" stroke="#191970" d="M1177.4038,-344.4946C1073.9468,-329.0471 890.6488,-292.9689 751.5,-218 740.3523,-211.994 729.4993,-203.8921 719.7963,-195.5292"/>
<polygon fill="none" stroke="#191970" points="1177.067,-347.9826 1187.4689,-345.9699 1178.0822,-341.0566 1177.067,-347.9826"/>
</g>
<!-- Node10 -->
<g id="node11" class="node">
<title>Node10</title>
<g id="a_node11"><a xlink:href="classSignalIntegrity_1_1Lib_1_1Measurement_1_1CalKit_1_1Standards_1_1TerminationPolynomial_1_1TerminationLPolynomial.xhtml" target="_top" xlink:title="Class for inductive terminations for short calibration standards. ">
<polygon fill="#ffffff" stroke="#000000" points="761,-116.5 761,-195.5 882,-195.5 882,-116.5 761,-116.5"/>
<text text-anchor="middle" x="821.5" y="-183.5" font-family="Helvetica,sans-Serif" font-size="10.00" fill="#000000">TerminationLPolynomial</text>
<polyline fill="none" stroke="#000000" points="761,-176.5 882,-176.5 "/>
<text text-anchor="middle" x="821.5" y="-164.5" font-family="Helvetica,sans-Serif" font-size="10.00" fill="#000000"> </text>
<polyline fill="none" stroke="#000000" points="761,-157.5 882,-157.5 "/>
<text text-anchor="start" x="769" y="-145.5" font-family="Helvetica,sans-Serif" font-size="10.00" fill="#000000">+ __init__()</text>
<text text-anchor="start" x="769" y="-134.5" font-family="Helvetica,sans-Serif" font-size="10.00" fill="#000000">+ PolynomialL()</text>
<text text-anchor="start" x="769" y="-123.5" font-family="Helvetica,sans-Serif" font-size="10.00" fill="#000000">+ __getitem__()</text>
</a>
</g>
</g>
<!-- Node0&#45;&gt;Node10 -->
<g id="edge10" class="edge">
<title>Node0&#45;&gt;Node10</title>
<path fill="none" stroke="#191970" d="M1177.7225,-334.2432C1100.648,-312.5566 982.3961,-273.592 890.5,-218 880.1654,-211.7481 869.9638,-203.8379 860.7045,-195.7777"/>
<polygon fill="none" stroke="#191970" points="1176.8083,-337.6217 1187.3806,-336.9309 1178.6851,-330.878 1176.8083,-337.6217"/>
</g>
<!-- Node11 -->
<g id="node12" class="node">
<title>Node11</title>
<g id="a_node12"><a xlink:href="classSignalIntegrity_1_1Lib_1_1SParameters_1_1Devices_1_1MixedModeTline_1_1MixedModeTLine.xhtml" target="_top" xlink:title="s&#45;parameters of a mixed&#45;mode, balanced transmission line ">
<polygon fill="#ffffff" stroke="#000000" points="900,-116.5 900,-195.5 991,-195.5 991,-116.5 900,-116.5"/>
<text text-anchor="middle" x="945.5" y="-183.5" font-family="Helvetica,sans-Serif" font-size="10.00" fill="#000000">MixedModeTLine</text>
<polyline fill="none" stroke="#000000" points="900,-176.5 991,-176.5 "/>
<text text-anchor="start" x="908" y="-164.5" font-family="Helvetica,sans-Serif" font-size="10.00" fill="#000000">+ m_sspn</text>
<text text-anchor="start" x="908" y="-153.5" font-family="Helvetica,sans-Serif" font-size="10.00" fill="#000000">+ m_spdl</text>
<polyline fill="none" stroke="#000000" points="900,-146.5 991,-146.5 "/>
<text text-anchor="start" x="908" y="-134.5" font-family="Helvetica,sans-Serif" font-size="10.00" fill="#000000">+ __init__()</text>
<text text-anchor="start" x="908" y="-123.5" font-family="Helvetica,sans-Serif" font-size="10.00" fill="#000000">+ __getitem__()</text>
</a>
</g>
</g>
<!-- Node0&#45;&gt;Node11 -->
<g id="edge11" class="edge">
<title>Node0&#45;&gt;Node11</title>
<path fill="none" stroke="#191970" d="M1177.9227,-321.6601C1124.4673,-297.4552 1054.0931,-261.2911 999.5,-218 991.2235,-211.4369 983.2198,-203.4876 976.0227,-195.5018"/>
<polygon fill="none" stroke="#191970" points="1176.8043,-324.9942 1187.3613,-325.8896 1179.6669,-318.6062 1176.8043,-324.9942"/>
</g>
<!-- Node12 -->
<g id="node13" class="node">
<title>Node12</title>
<g id="a_node13"><a xlink:href="classSignalIntegrity_1_1Lib_1_1SParameters_1_1Devices_1_1Mutual_1_1Mutual.xhtml" target="_top" xlink:title="s&#45;parameters of a mutual inductance ">
<polygon fill="#ffffff" stroke="#000000" points="1009,-122 1009,-190 1094,-190 1094,-122 1009,-122"/>
<text text-anchor="middle" x="1051.5" y="-178" font-family="Helvetica,sans-Serif" font-size="10.00" fill="#000000">Mutual</text>
<polyline fill="none" stroke="#000000" points="1009,-171 1094,-171 "/>
<text text-anchor="start" x="1017" y="-159" font-family="Helvetica,sans-Serif" font-size="10.00" fill="#000000">+ m_M</text>
<polyline fill="none" stroke="#000000" points="1009,-152 1094,-152 "/>
<text text-anchor="start" x="1017" y="-140" font-family="Helvetica,sans-Serif" font-size="10.00" fill="#000000">+ __init__()</text>
<text text-anchor="start" x="1017" y="-129" font-family="Helvetica,sans-Serif" font-size="10.00" fill="#000000">+ __getitem__()</text>
</a>
</g>
</g>
<!-- Node0&#45;&gt;Node12 -->
<g id="edge12" class="edge">
<title>Node0&#45;&gt;Node12</title>
<path fill="none" stroke="#191970" d="M1179.6325,-290.2326C1154.2424,-268.1618 1126.443,-242.7628 1102.5,-218 1094.1682,-209.3829 1085.6788,-199.5585 1078.0779,-190.3104"/>
<polygon fill="none" stroke="#191970" points="1177.5737,-293.0793 1187.4279,-296.9709 1182.1514,-287.7835 1177.5737,-293.0793"/>
</g>
<!-- Node13 -->
<g id="node14" class="node">
<title>Node13</title>
<g id="a_node14"><a xlink:href="classSignalIntegrity_1_1Lib_1_1SParameters_1_1Devices_1_1SeriesC_1_1SeriesC.xhtml" target="_top" xlink:title="s&#45;parameters of a series capacitance ">
<polygon fill="#ffffff" stroke="#000000" points="1112,-111 1112,-201 1197,-201 1197,-111 1112,-111"/>
<text text-anchor="middle" x="1154.5" y="-189" font-family="Helvetica,sans-Serif" font-size="10.00" fill="#000000">SeriesC</text>
<polyline fill="none" stroke="#000000" points="1112,-182 1197,-182 "/>
<text text-anchor="start" x="1120" y="-170" font-family="Helvetica,sans-Serif" font-size="10.00" fill="#000000">+ m_C</text>
<text text-anchor="start" x="1120" y="-159" font-family="Helvetica,sans-Serif" font-size="10.00" fill="#000000">+ m_df</text>
<text text-anchor="start" x="1120" y="-148" font-family="Helvetica,sans-Serif" font-size="10.00" fill="#000000">+ m_esr</text>
<polyline fill="none" stroke="#000000" points="1112,-141 1197,-141 "/>
<text text-anchor="start" x="1120" y="-129" font-family="Helvetica,sans-Serif" font-size="10.00" fill="#000000">+ __init__()</text>
<text text-anchor="start" x="1120" y="-118" font-family="Helvetica,sans-Serif" font-size="10.00" fill="#000000">+ __getitem__()</text>
</a>
</g>
</g>
<!-- Node0&#45;&gt;Node13 -->
<g id="edge13" class="edge">
<title>Node0&#45;&gt;Node13</title>
<path fill="none" stroke="#191970" d="M1200.7813,-245.1926C1192.7101,-229.6379 1184.8116,-214.4161 1177.8899,-201.0767"/>
<polygon fill="none" stroke="#191970" points="1197.8349,-247.1135 1205.5474,-254.3777 1204.0482,-243.8895 1197.8349,-247.1135"/>
</g>
<!-- Node14 -->
<g id="node15" class="node">
<title>Node14</title>
<g id="a_node15"><a xlink:href="classSignalIntegrity_1_1Lib_1_1SParameters_1_1Devices_1_1SeriesL_1_1SeriesL.xhtml" target="_top" xlink:title="s&#45;parameters of a series inductance ">
<polygon fill="#ffffff" stroke="#000000" points="1215,-122 1215,-190 1300,-190 1300,-122 1215,-122"/>
<text text-anchor="middle" x="1257.5" y="-178" font-family="Helvetica,sans-Serif" font-size="10.00" fill="#000000">SeriesL</text>
<polyline fill="none" stroke="#000000" points="1215,-171 1300,-171 "/>
<text text-anchor="start" x="1223" y="-159" font-family="Helvetica,sans-Serif" font-size="10.00" fill="#000000">+ m_L</text>
<polyline fill="none" stroke="#000000" points="1215,-152 1300,-152 "/>
<text text-anchor="start" x="1223" y="-140" font-family="Helvetica,sans-Serif" font-size="10.00" fill="#000000">+ __init__()</text>
<text text-anchor="start" x="1223" y="-129" font-family="Helvetica,sans-Serif" font-size="10.00" fill="#000000">+ __getitem__()</text>
</a>
</g>
</g>
<!-- Node0&#45;&gt;Node14 -->
<g id="edge14" class="edge">
<title>Node0&#45;&gt;Node14</title>
<path fill="none" stroke="#191970" d="M1257.5,-244.3701C1257.5,-224.6931 1257.5,-205.5934 1257.5,-190.2151"/>
<polygon fill="none" stroke="#191970" points="1254.0001,-244.3777 1257.5,-254.3777 1261.0001,-244.3777 1254.0001,-244.3777"/>
</g>
<!-- Node15 -->
<g id="node16" class="node">
<title>Node15</title>
<g id="a_node16"><a xlink:href="classSignalIntegrity_1_1Lib_1_1SParameters_1_1Devices_1_1SeriesRse_1_1SeriesRse.xhtml" target="_top" xlink:title="s&#45;parameters of series skin&#45;effect Resistance ">
<polygon fill="#ffffff" stroke="#000000" points="1318,-122 1318,-190 1403,-190 1403,-122 1318,-122"/>
<text text-anchor="middle" x="1360.5" y="-178" font-family="Helvetica,sans-Serif" font-size="10.00" fill="#000000">SeriesRse</text>
<polyline fill="none" stroke="#000000" points="1318,-171 1403,-171 "/>
<text text-anchor="start" x="1326" y="-159" font-family="Helvetica,sans-Serif" font-size="10.00" fill="#000000">+ m_Rse</text>
<polyline fill="none" stroke="#000000" points="1318,-152 1403,-152 "/>
<text text-anchor="start" x="1326" y="-140" font-family="Helvetica,sans-Serif" font-size="10.00" fill="#000000">+ __init__()</text>
<text text-anchor="start" x="1326" y="-129" font-family="Helvetica,sans-Serif" font-size="10.00" fill="#000000">+ __getitem__()</text>
</a>
</g>
</g>
<!-- Node0&#45;&gt;Node15 -->
<g id="edge15" class="edge">
<title>Node0&#45;&gt;Node15</title>
<path fill="none" stroke="#191970" d="M1314.0857,-245.4489C1324.4931,-225.392 1334.6206,-205.8743 1342.746,-190.2151"/>
<polygon fill="none" stroke="#191970" points="1310.9518,-243.8895 1309.4526,-254.3777 1317.1651,-247.1135 1310.9518,-243.8895"/>
</g>
<!-- Node16 -->
<g id="node17" class="node">
<title>Node16</title>
<g id="a_node17"><a xlink:href="classSignalIntegrity_1_1Lib_1_1SParameters_1_1Devices_1_1TerminationC_1_1TerminationC.xhtml" target="_top" xlink:title="s&#45;parameters of a termination (one&#45;port) capacitance ">
<polygon fill="#ffffff" stroke="#000000" points="1421,-111 1421,-201 1506,-201 1506,-111 1421,-111"/>
<text text-anchor="middle" x="1463.5" y="-189" font-family="Helvetica,sans-Serif" font-size="10.00" fill="#000000">TerminationC</text>
<polyline fill="none" stroke="#000000" points="1421,-182 1506,-182 "/>
<text text-anchor="start" x="1429" y="-170" font-family="Helvetica,sans-Serif" font-size="10.00" fill="#000000">+ m_C</text>
<text text-anchor="start" x="1429" y="-159" font-family="Helvetica,sans-Serif" font-size="10.00" fill="#000000">+ m_df</text>
<text text-anchor="start" x="1429" y="-148" font-family="Helvetica,sans-Serif" font-size="10.00" fill="#000000">+ m_esr</text>
<polyline fill="none" stroke="#000000" points="1421,-141 1506,-141 "/>
<text text-anchor="start" x="1429" y="-129" font-family="Helvetica,sans-Serif" font-size="10.00" fill="#000000">+ __init__()</text>
<text text-anchor="start" x="1429" y="-118" font-family="Helvetica,sans-Serif" font-size="10.00" fill="#000000">+ __getitem__()</text>
</a>
</g>
</g>
<!-- Node0&#45;&gt;Node16 -->
<g id="edge16" class="edge">
<title>Node0&#45;&gt;Node16</title>
<path fill="none" stroke="#191970" d="M1335.4089,-289.4129C1360.431,-267.4766 1387.7916,-242.3653 1411.5,-218 1416.6925,-212.6636 1421.9638,-206.8794 1427.0587,-201.0615"/>
<polygon fill="none" stroke="#191970" points="1332.9609,-286.9037 1327.7251,-296.1145 1337.562,-292.1792 1332.9609,-286.9037"/>
</g>
<!-- Node17 -->
<g id="node18" class="node">
<title>Node17</title>
<g id="a_node18"><a xlink:href="classSignalIntegrity_1_1Lib_1_1SParameters_1_1Devices_1_1TerminationL_1_1TerminationL.xhtml" target="_top" xlink:title="s&#45;parameters of a termination (one&#45;port) inductance ">
<polygon fill="#ffffff" stroke="#000000" points="1524,-122 1524,-190 1609,-190 1609,-122 1524,-122"/>
<text text-anchor="middle" x="1566.5" y="-178" font-family="Helvetica,sans-Serif" font-size="10.00" fill="#000000">TerminationL</text>
<polyline fill="none" stroke="#000000" points="1524,-171 1609,-171 "/>
<text text-anchor="start" x="1532" y="-159" font-family="Helvetica,sans-Serif" font-size="10.00" fill="#000000">+ m_L</text>
<polyline fill="none" stroke="#000000" points="1524,-152 1609,-152 "/>
<text text-anchor="start" x="1532" y="-140" font-family="Helvetica,sans-Serif" font-size="10.00" fill="#000000">+ __init__()</text>
<text text-anchor="start" x="1532" y="-129" font-family="Helvetica,sans-Serif" font-size="10.00" fill="#000000">+ __getitem__()</text>
</a>
</g>
</g>
<!-- Node0&#45;&gt;Node17 -->
<g id="edge17" class="edge">
<title>Node0&#45;&gt;Node17</title>
<path fill="none" stroke="#191970" d="M1337.0217,-321.9286C1390.3812,-297.8419 1460.5118,-261.7088 1514.5,-218 1524.4361,-209.9558 1533.8789,-199.7963 1541.9235,-190.0418"/>
<polygon fill="none" stroke="#191970" points="1335.303,-318.8629 1327.5989,-326.1359 1338.157,-325.2547 1335.303,-318.8629"/>
</g>
<!-- Node18 -->
<g id="node19" class="node">
<title>Node18</title>
<g id="a_node19"><a xlink:href="classSignalIntegrity_1_1Lib_1_1SParameters_1_1Devices_1_1TLineDifferentialRLGC_1_1TLineDifferentialRLGC.xhtml" target="_top" xlink:title="s&#45;parameters of differential RLGC (telegrapher&#39;s) transmission line ">
<polygon fill="#ffffff" stroke="#000000" points="1627.5,-116.5 1627.5,-195.5 1743.5,-195.5 1743.5,-116.5 1627.5,-116.5"/>
<text text-anchor="middle" x="1685.5" y="-183.5" font-family="Helvetica,sans-Serif" font-size="10.00" fill="#000000">TLineDifferentialRLGC</text>
<polyline fill="none" stroke="#000000" points="1627.5,-176.5 1743.5,-176.5 "/>
<text text-anchor="start" x="1635.5" y="-164.5" font-family="Helvetica,sans-Serif" font-size="10.00" fill="#000000">+ sp</text>
<text text-anchor="start" x="1635.5" y="-153.5" font-family="Helvetica,sans-Serif" font-size="10.00" fill="#000000">+ rtFraction</text>
<polyline fill="none" stroke="#000000" points="1627.5,-146.5 1743.5,-146.5 "/>
<text text-anchor="start" x="1635.5" y="-134.5" font-family="Helvetica,sans-Serif" font-size="10.00" fill="#000000">+ __init__()</text>
<text text-anchor="start" x="1635.5" y="-123.5" font-family="Helvetica,sans-Serif" font-size="10.00" fill="#000000">+ __getitem__()</text>
</a>
</g>
</g>
<!-- Node0&#45;&gt;Node18 -->
<g id="edge18" class="edge">
<title>Node0&#45;&gt;Node18</title>
<path fill="none" stroke="#191970" d="M1337.6402,-333.8612C1413.6019,-312.1264 1529.069,-273.3338 1618.5,-218 1628.6078,-211.746 1638.5437,-203.835 1647.5409,-195.7746"/>
<polygon fill="none" stroke="#191970" points="1336.3236,-330.5962 1327.6535,-336.6855 1338.2286,-337.332 1336.3236,-330.5962"/>
</g>
<!-- Node19 -->
<g id="node20" class="node">
<title>Node19</title>
<g id="a_node20"><a xlink:href="classSignalIntegrity_1_1Lib_1_1SParameters_1_1Devices_1_1TLineDifferentialRLGCApproximate_1_1TLineDifferentialRLGCApproximate.xhtml" target="_top" xlink:title="s&#45;parameters of differential RLGC (telegrapher&#39;s) transmission line calculated by approximating distr...">
<polygon fill="#ffffff" stroke="#000000" points="1761.5,-111 1761.5,-201 1931.5,-201 1931.5,-111 1761.5,-111"/>
<text text-anchor="middle" x="1846.5" y="-189" font-family="Helvetica,sans-Serif" font-size="10.00" fill="#000000">TLineDifferentialRLGCApproximate</text>
<polyline fill="none" stroke="#000000" points="1761.5,-182 1931.5,-182 "/>
<text text-anchor="start" x="1769.5" y="-170" font-family="Helvetica,sans-Serif" font-size="10.00" fill="#000000">+ m_K</text>
<text text-anchor="start" x="1769.5" y="-159" font-family="Helvetica,sans-Serif" font-size="10.00" fill="#000000">+ m_sspn</text>
<text text-anchor="start" x="1769.5" y="-148" font-family="Helvetica,sans-Serif" font-size="10.00" fill="#000000">+ m_spdl</text>
<polyline fill="none" stroke="#000000" points="1761.5,-141 1931.5,-141 "/>
<text text-anchor="start" x="1769.5" y="-129" font-family="Helvetica,sans-Serif" font-size="10.00" fill="#000000">+ __init__()</text>
<text text-anchor="start" x="1769.5" y="-118" font-family="Helvetica,sans-Serif" font-size="10.00" fill="#000000">+ __getitem__()</text>
</a>
</g>
</g>
<!-- Node0&#45;&gt;Node19 -->
<g id="edge19" class="edge">
<title>Node0&#45;&gt;Node19</title>
<path fill="none" stroke="#191970" d="M1337.5774,-340.4727C1437.7324,-321.1351 1613.0021,-281.3149 1752.5,-218 1763.092,-213.1925 1773.8383,-207.2705 1784.0949,-201.0118"/>
<polygon fill="none" stroke="#191970" points="1336.6941,-337.0781 1327.5286,-342.3928 1338.0078,-343.9537 1336.6941,-337.0781"/>
</g>
<!-- Node20 -->
<g id="node21" class="node">
<title>Node20</title>
<g id="a_node21"><a xlink:href="classSignalIntegrity_1_1Lib_1_1SParameters_1_1Devices_1_1TLineDifferentialRLGCBalanced_1_1TLineDifferentialRLGCBalanced.xhtml" target="_top" xlink:title="s&#45;parameters of analytic balanced differential RLGC (telegrapher&#39;s) transmission line. ">
<polygon fill="#ffffff" stroke="#000000" points="1949.5,-116.5 1949.5,-195.5 2105.5,-195.5 2105.5,-116.5 1949.5,-116.5"/>
<text text-anchor="middle" x="2027.5" y="-183.5" font-family="Helvetica,sans-Serif" font-size="10.00" fill="#000000">TLineDifferentialRLGCBalanced</text>
<polyline fill="none" stroke="#000000" points="1949.5,-176.5 2105.5,-176.5 "/>
<text text-anchor="start" x="1957.5" y="-164.5" font-family="Helvetica,sans-Serif" font-size="10.00" fill="#000000">+ m_sspn</text>
<text text-anchor="start" x="1957.5" y="-153.5" font-family="Helvetica,sans-Serif" font-size="10.00" fill="#000000">+ m_spdl</text>
<polyline fill="none" stroke="#000000" points="1949.5,-146.5 2105.5,-146.5 "/>
<text text-anchor="start" x="1957.5" y="-134.5" font-family="Helvetica,sans-Serif" font-size="10.00" fill="#000000">+ __init__()</text>
<text text-anchor="start" x="1957.5" y="-123.5" font-family="Helvetica,sans-Serif" font-size="10.00" fill="#000000">+ __getitem__()</text>
</a>
</g>
</g>
<!-- Node0&#45;&gt;Node20 -->
<g id="edge20" class="edge">
<title>Node0&#45;&gt;Node20</title>
<path fill="none" stroke="#191970" d="M1338.09,-349.3581C1469.2551,-338.6226 1734.9173,-306.915 1940.5,-218 1953.9483,-212.1836 1967.3815,-204.0527 1979.5283,-195.5897"/>
<polygon fill="none" stroke="#191970" points="1337.4231,-345.9002 1327.7334,-350.1849 1337.9802,-352.878 1337.4231,-345.9002"/>
</g>
<!-- Node21 -->
<g id="node22" class="node">
<title>Node21</title>
<g id="a_node22"><a xlink:href="classSignalIntegrity_1_1Lib_1_1SParameters_1_1Devices_1_1TLineDifferentialRLGCUncoupled_1_1TLineDifferentialRLGCUncoupled.xhtml" target="_top" xlink:title="s&#45;parameters of analytic uncoupled differential RLGC (telegrapher&#39;s) transmission line...">
<polygon fill="#ffffff" stroke="#000000" points="2123.5,-116.5 2123.5,-195.5 2285.5,-195.5 2285.5,-116.5 2123.5,-116.5"/>
<text text-anchor="middle" x="2204.5" y="-183.5" font-family="Helvetica,sans-Serif" font-size="10.00" fill="#000000">TLineDifferentialRLGCUncoupled</text>
<polyline fill="none" stroke="#000000" points="2123.5,-176.5 2285.5,-176.5 "/>
<text text-anchor="start" x="2131.5" y="-164.5" font-family="Helvetica,sans-Serif" font-size="10.00" fill="#000000">+ m_sspn</text>
<text text-anchor="start" x="2131.5" y="-153.5" font-family="Helvetica,sans-Serif" font-size="10.00" fill="#000000">+ m_spdl</text>
<polyline fill="none" stroke="#000000" points="2123.5,-146.5 2285.5,-146.5 "/>
<text text-anchor="start" x="2131.5" y="-134.5" font-family="Helvetica,sans-Serif" font-size="10.00" fill="#000000">+ __init__()</text>
<text text-anchor="start" x="2131.5" y="-123.5" font-family="Helvetica,sans-Serif" font-size="10.00" fill="#000000">+ __getitem__()</text>
</a>
</g>
</g>
<!-- Node0&#45;&gt;Node21 -->
<g id="edge21" class="edge">
<title>Node0&#45;&gt;Node21</title>
<path fill="none" stroke="#191970" d="M1337.8093,-346.2958C1522.7127,-326.672 1973.4403,-274.4375 2114.5,-218 2128.5929,-212.3615 2142.6667,-204.1924 2155.3572,-195.6249"/>
<polygon fill="none" stroke="#191970" points="1337.1879,-342.8419 1327.6111,-347.3736 1337.9237,-349.8031 1337.1879,-342.8419"/>
</g>
<!-- Node22 -->
<g id="node23" class="node">
<title>Node22</title>
<g id="a_node23"><a xlink:href="classSignalIntegrity_1_1Lib_1_1SParameters_1_1Devices_1_1TLineLossless_1_1TLineLossless.xhtml" target="_top" xlink:title="s&#45;parameters of ideal lossless single&#45;ended transmission line ">
<polygon fill="#ffffff" stroke="#000000" points="2304,-111 2304,-201 2389,-201 2389,-111 2304,-111"/>
<text text-anchor="middle" x="2346.5" y="-189" font-family="Helvetica,sans-Serif" font-size="10.00" fill="#000000">TLineLossless</text>
<polyline fill="none" stroke="#000000" points="2304,-182 2389,-182 "/>
<text text-anchor="start" x="2312" y="-170" font-family="Helvetica,sans-Serif" font-size="10.00" fill="#000000">+ m_Zc</text>
<text text-anchor="start" x="2312" y="-159" font-family="Helvetica,sans-Serif" font-size="10.00" fill="#000000">+ m_Td</text>
<text text-anchor="start" x="2312" y="-148" font-family="Helvetica,sans-Serif" font-size="10.00" fill="#000000">+ m_P</text>
<polyline fill="none" stroke="#000000" points="2304,-141 2389,-141 "/>
<text text-anchor="start" x="2312" y="-129" font-family="Helvetica,sans-Serif" font-size="10.00" fill="#000000">+ __init__()</text>
<text text-anchor="start" x="2312" y="-118" font-family="Helvetica,sans-Serif" font-size="10.00" fill="#000000">+ __getitem__()</text>
</a>
</g>
</g>
<!-- Node0&#45;&gt;Node22 -->
<g id="edge22" class="edge">
<title>Node0&#45;&gt;Node22</title>
<path fill="none" stroke="#191970" d="M1337.7246,-351.3978C1551.4372,-341.9734 2129.4526,-308.5703 2294.5,-218 2302.3823,-213.6746 2309.5734,-207.6369 2315.9263,-201.0134"/>
<polygon fill="none" stroke="#191970" points="1337.3595,-347.9103 1327.5211,-351.8417 1337.6638,-354.9037 1337.3595,-347.9103"/>
</g>
<!-- Node23 -->
<g id="node24" class="node">
<title>Node23</title>
<g id="a_node24"><a xlink:href="classSignalIntegrity_1_1Lib_1_1SParameters_1_1Devices_1_1TLineTwoPortRLGC_1_1TLineTwoPortRLGC.xhtml" target="_top" xlink:title="s&#45;parameters of single&#45;ended RLGC (telegraphers) transmission line ">
<polygon fill="#ffffff" stroke="#000000" points="2407,-122 2407,-190 2512,-190 2512,-122 2407,-122"/>
<text text-anchor="middle" x="2459.5" y="-178" font-family="Helvetica,sans-Serif" font-size="10.00" fill="#000000">TLineTwoPortRLGC</text>
<polyline fill="none" stroke="#000000" points="2407,-171 2512,-171 "/>
<text text-anchor="start" x="2415" y="-159" font-family="Helvetica,sans-Serif" font-size="10.00" fill="#000000">+ sp</text>
<polyline fill="none" stroke="#000000" points="2407,-152 2512,-152 "/>
<text text-anchor="start" x="2415" y="-140" font-family="Helvetica,sans-Serif" font-size="10.00" fill="#000000">+ __init__()</text>
<text text-anchor="start" x="2415" y="-129" font-family="Helvetica,sans-Serif" font-size="10.00" fill="#000000">+ __getitem__()</text>
</a>
</g>
</g>
<!-- Node0&#45;&gt;Node23 -->
<g id="edge23" class="edge">
<title>Node0&#45;&gt;Node23</title>
<path fill="none" stroke="#191970" d="M1338.0949,-351.7433C1566.0249,-342.8766 2210.8749,-310.0949 2398.5,-218 2411.7842,-211.4795 2423.8369,-200.8655 2433.6543,-190.2475"/>
<polygon fill="none" stroke="#191970" points="1337.7425,-348.2542 1327.8842,-352.1353 1338.0111,-355.249 1337.7425,-348.2542"/>
</g>
<!-- Node24 -->
<g id="node25" class="node">
<title>Node24</title>
<g id="a_node25"><a xlink:href="classSignalIntegrity_1_1Lib_1_1SParameters_1_1Devices_1_1TLineTwoPortRLGCAnalytic_1_1TLineTwoPortRLGCAnalytic.xhtml" target="_top" xlink:title="s&#45;parameters of analytic single&#45;ended telegraphers transmission line ">
<polygon fill="#ffffff" stroke="#000000" points="2530.5,-94.5 2530.5,-217.5 2670.5,-217.5 2670.5,-94.5 2530.5,-94.5"/>
<text text-anchor="middle" x="2600.5" y="-205.5" font-family="Helvetica,sans-Serif" font-size="10.00" fill="#000000">TLineTwoPortRLGCAnalytic</text>
<polyline fill="none" stroke="#000000" points="2530.5,-198.5 2670.5,-198.5 "/>
<text text-anchor="start" x="2538.5" y="-186.5" font-family="Helvetica,sans-Serif" font-size="10.00" fill="#000000">+ R</text>
<text text-anchor="start" x="2538.5" y="-175.5" font-family="Helvetica,sans-Serif" font-size="10.00" fill="#000000">+ Rse</text>
<text text-anchor="start" x="2538.5" y="-164.5" font-family="Helvetica,sans-Serif" font-size="10.00" fill="#000000">+ L</text>
<text text-anchor="start" x="2538.5" y="-153.5" font-family="Helvetica,sans-Serif" font-size="10.00" fill="#000000">+ G</text>
<text text-anchor="start" x="2538.5" y="-142.5" font-family="Helvetica,sans-Serif" font-size="10.00" fill="#000000">+ C</text>
<text text-anchor="start" x="2538.5" y="-131.5" font-family="Helvetica,sans-Serif" font-size="10.00" fill="#000000">+ df</text>
<polyline fill="none" stroke="#000000" points="2530.5,-124.5 2670.5,-124.5 "/>
<text text-anchor="start" x="2538.5" y="-112.5" font-family="Helvetica,sans-Serif" font-size="10.00" fill="#000000">+ __init__()</text>
<text text-anchor="start" x="2538.5" y="-101.5" font-family="Helvetica,sans-Serif" font-size="10.00" fill="#000000">+ __getitem__()</text>
</a>
</g>
</g>
<!-- Node0&#45;&gt;Node24 -->
<g id="edge24" class="edge">
<title>Node0&#45;&gt;Node24</title>
<path fill="none" stroke="#191970" d="M1338.0555,-351.5818C1581.3134,-341.8694 2304.9657,-306.1208 2521.5,-218 2524.4068,-216.8171 2527.2953,-215.494 2530.1539,-214.0562"/>
<polygon fill="none" stroke="#191970" points="1337.7276,-348.0919 1327.8737,-351.9842 1338.0041,-355.0864 1337.7276,-348.0919"/>
</g>
<!-- Node25 -->
<g id="node26" class="node">
<title>Node25</title>
<g id="a_node26"><a xlink:href="classSignalIntegrity_1_1Lib_1_1SParameters_1_1SParameterFile_1_1SParameterFile.xhtml" target="_top" xlink:title="class for s&#45;parameters read from a file ">
<polygon fill="#ffffff" stroke="#000000" points="2688.5,-105.5 2688.5,-206.5 2772.5,-206.5 2772.5,-105.5 2688.5,-105.5"/>
<text text-anchor="middle" x="2730.5" y="-194.5" font-family="Helvetica,sans-Serif" font-size="10.00" fill="#000000">SParameterFile</text>
<polyline fill="none" stroke="#000000" points="2688.5,-187.5 2772.5,-187.5 "/>
<text text-anchor="start" x="2696.5" y="-175.5" font-family="Helvetica,sans-Serif" font-size="10.00" fill="#000000">+ m_sToken</text>
<text text-anchor="start" x="2696.5" y="-164.5" font-family="Helvetica,sans-Serif" font-size="10.00" fill="#000000">+ m_Z0</text>
<text text-anchor="start" x="2696.5" y="-153.5" font-family="Helvetica,sans-Serif" font-size="10.00" fill="#000000">+ m_P</text>
<text text-anchor="start" x="2696.5" y="-142.5" font-family="Helvetica,sans-Serif" font-size="10.00" fill="#000000">+ m_f</text>
<text text-anchor="start" x="2696.5" y="-131.5" font-family="Helvetica,sans-Serif" font-size="10.00" fill="#000000">+ m_d</text>
<polyline fill="none" stroke="#000000" points="2688.5,-124.5 2772.5,-124.5 "/>
<text text-anchor="start" x="2696.5" y="-112.5" font-family="Helvetica,sans-Serif" font-size="10.00" fill="#000000">+ __init__()</text>
</a>
</g>
</g>
<!-- Node0&#45;&gt;Node25 -->
<g id="edge25" class="edge">
<title>Node0&#45;&gt;Node25</title>
<path fill="none" stroke="#191970" d="M1337.9185,-350.3764C1620.99,-335.3711 2560.6903,-281.2295 2679.5,-218 2685.1597,-214.9879 2690.4321,-211.0565 2695.2737,-206.6334"/>
<polygon fill="none" stroke="#191970" points="1337.5291,-346.892 1327.7277,-350.9147 1337.8984,-353.8822 1337.5291,-346.892"/>
</g>
<!-- Node1 -->
<g id="node2" class="node">
<title>Node1</title>
<g id="a_node2"><a xlink:href="classSignalIntegrity_1_1Lib_1_1SParameters_1_1SParameterManipulation_1_1SParameterManipulation.xhtml" target="_top" xlink:title="Class for manipulations on s&#45;parameters involving passivity, causality, etc. ">
<polygon fill="#ffffff" stroke="#000000" points="1196,-491.5 1196,-592.5 1319,-592.5 1319,-491.5 1196,-491.5"/>
<text text-anchor="middle" x="1257.5" y="-580.5" font-family="Helvetica,sans-Serif" font-size="10.00" fill="#000000">SParameterManipulation</text>
<polyline fill="none" stroke="#000000" points="1196,-573.5 1319,-573.5 "/>
<text text-anchor="middle" x="1257.5" y="-561.5" font-family="Helvetica,sans-Serif" font-size="10.00" fill="#000000"> </text>
<polyline fill="none" stroke="#000000" points="1196,-554.5 1319,-554.5 "/>
<text text-anchor="start" x="1204" y="-542.5" font-family="Helvetica,sans-Serif" font-size="10.00" fill="#000000">+ EnforcePassivity()</text>
<text text-anchor="start" x="1204" y="-531.5" font-family="Helvetica,sans-Serif" font-size="10.00" fill="#000000">+ IsCausal()</text>
<text text-anchor="start" x="1204" y="-520.5" font-family="Helvetica,sans-Serif" font-size="10.00" fill="#000000">+ EnforceCausality()</text>
<text text-anchor="start" x="1204" y="-509.5" font-family="Helvetica,sans-Serif" font-size="10.00" fill="#000000">+ WaveletDenoise()</text>
<text text-anchor="start" x="1204" y="-498.5" font-family="Helvetica,sans-Serif" font-size="10.00" fill="#000000">+ PortReorder()</text>
</a>
</g>
</g>
<!-- Node1&#45;&gt;Node0 -->
<g id="edge1" class="edge">
<title>Node1&#45;&gt;Node0</title>
<path fill="none" stroke="#191970" d="M1257.5,-481.1358C1257.5,-472.6503 1257.5,-463.7532 1257.5,-454.7759"/>
<polygon fill="none" stroke="#191970" points="1254.0001,-481.2598 1257.5,-491.2598 1261.0001,-481.2598 1254.0001,-481.2598"/>
</g>
<!-- Node6 -->
<g id="node7" class="node">
<title>Node6</title>
<g id="a_node7"><a xlink:href="classSignalIntegrity_1_1Lib_1_1Measurement_1_1CalKit_1_1Standards_1_1ThruStandard_1_1ThruStandard.xhtml" target="_top" xlink:title="Class providing the s&#45;parameters of a thru standard as commonly defined for a calibration kit...">
<polygon fill="#ffffff" stroke="#000000" points="338,-.5 338,-57.5 413,-57.5 413,-.5 338,-.5"/>
<text text-anchor="middle" x="375.5" y="-45.5" font-family="Helvetica,sans-Serif" font-size="10.00" fill="#000000">ThruStandard</text>
<polyline fill="none" stroke="#000000" points="338,-38.5 413,-38.5 "/>
<text text-anchor="middle" x="375.5" y="-26.5" font-family="Helvetica,sans-Serif" font-size="10.00" fill="#000000"> </text>
<polyline fill="none" stroke="#000000" points="338,-19.5 413,-19.5 "/>
<text text-anchor="start" x="346" y="-7.5" font-family="Helvetica,sans-Serif" font-size="10.00" fill="#000000">+ __init__()</text>
</a>
</g>
</g>
<!-- Node5&#45;&gt;Node6 -->
<g id="edge6" class="edge">
<title>Node5&#45;&gt;Node6</title>
<path fill="none" stroke="#191970" d="M375.5,-117.286C375.5,-98.1438 375.5,-75.4372 375.5,-57.8456"/>
<polygon fill="none" stroke="#191970" points="372.0001,-117.4987 375.5,-127.4987 379.0001,-117.4988 372.0001,-117.4987"/>
</g>
</g>
</svg>
