<?xml version="1.0" encoding="UTF-8" standalone="no"?>
<!DOCTYPE svg PUBLIC "-//W3C//DTD SVG 1.1//EN"
 "http://www.w3.org/Graphics/SVG/1.1/DTD/svg11.dtd">
<!-- Generated by graphviz version 2.40.1 (20161225.0304)
 -->
<!-- Title: FrequencyList Pages: 1 -->
<svg width="280pt" height="303pt"
 viewBox="0.00 0.00 279.50 303.00" xmlns="http://www.w3.org/2000/svg" xmlns:xlink="http://www.w3.org/1999/xlink">
<g id="graph0" class="graph" transform="scale(1 1) rotate(0) translate(4 299)">
<title>FrequencyList</title>
<polygon fill="#ffffff" stroke="transparent" points="-4,4 -4,-299 275.5,-299 275.5,4 -4,4"/>
<!-- Node0 -->
<g id="node1" class="node">
<title>Node0</title>
<polygon fill="#bfbfbf" stroke="#000000" points="81,-94.5 81,-294.5 204,-294.5 204,-94.5 81,-94.5"/>
<text text-anchor="middle" x="142.5" y="-282.5" font-family="Helvetica,sans-Serif" font-size="10.00" fill="#000000">FrequencyList</text>
<polyline fill="none" stroke="#000000" points="81,-275.5 204,-275.5 "/>
<text text-anchor="start" x="89" y="-263.5" font-family="Helvetica,sans-Serif" font-size="10.00" fill="#000000">+ N</text>
<text text-anchor="start" x="89" y="-252.5" font-family="Helvetica,sans-Serif" font-size="10.00" fill="#000000">+ Fe</text>
<text text-anchor="start" x="89" y="-241.5" font-family="Helvetica,sans-Serif" font-size="10.00" fill="#000000">+ m_EvenlySpaced</text>
<polyline fill="none" stroke="#000000" points="81,-234.5 204,-234.5 "/>
<text text-anchor="start" x="89" y="-222.5" font-family="Helvetica,sans-Serif" font-size="10.00" fill="#000000">+ __init__()</text>
<text text-anchor="start" x="89" y="-211.5" font-family="Helvetica,sans-Serif" font-size="10.00" fill="#000000">+ SetEvenlySpaced()</text>
<text text-anchor="start" x="89" y="-200.5" font-family="Helvetica,sans-Serif" font-size="10.00" fill="#000000">+ SetList()</text>
<text text-anchor="start" x="89" y="-189.5" font-family="Helvetica,sans-Serif" font-size="10.00" fill="#000000">+ EvenlySpaced()</text>
<text text-anchor="start" x="89" y="-178.5" font-family="Helvetica,sans-Serif" font-size="10.00" fill="#000000">+ Frequencies()</text>
<text text-anchor="start" x="89" y="-167.5" font-family="Helvetica,sans-Serif" font-size="10.00" fill="#000000">+ CheckEvenlySpaced()</text>
<text text-anchor="start" x="89" y="-156.5" font-family="Helvetica,sans-Serif" font-size="10.00" fill="#000000">+ __div__()</text>
<text text-anchor="start" x="89" y="-145.5" font-family="Helvetica,sans-Serif" font-size="10.00" fill="#000000">+ __truediv__()</text>
<text text-anchor="start" x="89" y="-134.5" font-family="Helvetica,sans-Serif" font-size="10.00" fill="#000000">+ __mul__()</text>
<text text-anchor="start" x="89" y="-123.5" font-family="Helvetica,sans-Serif" font-size="10.00" fill="#000000">+ TimeDescriptor()</text>
<text text-anchor="start" x="89" y="-112.5" font-family="Helvetica,sans-Serif" font-size="10.00" fill="#000000">+ __eq__()</text>
<text text-anchor="start" x="89" y="-101.5" font-family="Helvetica,sans-Serif" font-size="10.00" fill="#000000">+ __ne__()</text>
</g>
<!-- Node1 -->
<g id="node2" class="node">
<title>Node1</title>
<g id="a_node2"><a xlink:href="classSignalIntegrity_1_1Lib_1_1FrequencyDomain_1_1FrequencyList_1_1EvenlySpacedFrequencyList.xhtml" target="_top" xlink:title="A evenly spaced list of frequencies. ">
<polygon fill="#ffffff" stroke="#000000" points="0,-.5 0,-57.5 141,-57.5 141,-.5 0,-.5"/>
<text text-anchor="middle" x="70.5" y="-45.5" font-family="Helvetica,sans-Serif" font-size="10.00" fill="#000000">EvenlySpacedFrequencyList</text>
<polyline fill="none" stroke="#000000" points="0,-38.5 141,-38.5 "/>
<text text-anchor="middle" x="70.5" y="-26.5" font-family="Helvetica,sans-Serif" font-size="10.00" fill="#000000"> </text>
<polyline fill="none" stroke="#000000" points="0,-19.5 141,-19.5 "/>
<text text-anchor="start" x="8" y="-7.5" font-family="Helvetica,sans-Serif" font-size="10.00" fill="#000000">+ __init__()</text>
</a>
</g>
</g>
<!-- Node0&#45;&gt;Node1 -->
<g id="edge1" class="edge">
<title>Node0&#45;&gt;Node1</title>
<path fill="none" stroke="#191970" d="M94.9284,-85.1514C90.6096,-75.2241 86.5394,-65.8683 83.0055,-57.7452"/>
<polygon fill="none" stroke="#191970" points="91.7575,-86.6364 98.9563,-94.41 98.1764,-83.8439 91.7575,-86.6364"/>
</g>
<!-- Node2 -->
<g id="node3" class="node">
<title>Node2</title>
<g id="a_node3"><a xlink:href="classSignalIntegrity_1_1Lib_1_1FrequencyDomain_1_1FrequencyList_1_1GenericFrequencyList.xhtml" target="_top" xlink:title="A generic list of frequencies assumed to be not evenly spaced. ">
<polygon fill="#ffffff" stroke="#000000" points="159.5,-.5 159.5,-57.5 271.5,-57.5 271.5,-.5 159.5,-.5"/>
<text text-anchor="middle" x="215.5" y="-45.5" font-family="Helvetica,sans-Serif" font-size="10.00" fill="#000000">GenericFrequencyList</text>
<polyline fill="none" stroke="#000000" points="159.5,-38.5 271.5,-38.5 "/>
<text text-anchor="middle" x="215.5" y="-26.5" font-family="Helvetica,sans-Serif" font-size="10.00" fill="#000000"> </text>
<polyline fill="none" stroke="#000000" points="159.5,-19.5 271.5,-19.5 "/>
<text text-anchor="start" x="167.5" y="-7.5" font-family="Helvetica,sans-Serif" font-size="10.00" fill="#000000">+ __init__()</text>
</a>
</g>
</g>
<!-- Node0&#45;&gt;Node2 -->
<g id="edge2" class="edge">
<title>Node0&#45;&gt;Node2</title>
<path fill="none" stroke="#191970" d="M190.7323,-85.1514C195.1111,-75.2241 199.2378,-65.8683 202.8209,-57.7452"/>
<polygon fill="none" stroke="#191970" points="187.4819,-83.848 186.6485,-94.41 193.8866,-86.673 187.4819,-83.848"/>
</g>
</g>
</svg>
