<?xml version="1.0" encoding="UTF-8" standalone="no"?>
<!DOCTYPE svg PUBLIC "-//W3C//DTD SVG 1.1//EN"
 "http://www.w3.org/Graphics/SVG/1.1/DTD/svg11.dtd">
<!-- Generated by graphviz version 2.43.0 (0)
 -->
<!-- Title: PRBS13QWaveform Pages: 1 -->
<svg width="140pt" height="397pt"
 viewBox="0.00 0.00 140.00 397.00" xmlns="http://www.w3.org/2000/svg" xmlns:xlink="http://www.w3.org/1999/xlink">
<g id="graph0" class="graph" transform="scale(1 1) rotate(0) translate(4 393)">
<title>PRBS13QWaveform</title>
<polygon fill="white" stroke="transparent" points="-4,4 -4,-393 136,-393 136,4 -4,4"/>
<!-- Node1 -->
<g id="node1" class="node">
<title>Node1</title>
<g id="a_node1"><a xlink:title="a PRBS13Q PAM4 waveform with a given rise time and amplitude">
<polygon fill="#bfbfbf" stroke="black" points="12.5,-0.5 12.5,-57.5 119.5,-57.5 119.5,-0.5 12.5,-0.5"/>
<text text-anchor="middle" x="66" y="-45.5" font-family="Helvetica,sans-Serif" font-size="10.00">PRBS13QWaveform</text>
<polyline fill="none" stroke="black" points="12.5,-38.5 119.5,-38.5 "/>
<text text-anchor="start" x="20.5" y="-26.5" font-family="Helvetica,sans-Serif" font-size="10.00">+ pattern</text>
<polyline fill="none" stroke="black" points="12.5,-19.5 119.5,-19.5 "/>
<text text-anchor="start" x="20.5" y="-7.5" font-family="Helvetica,sans-Serif" font-size="10.00">+ __init__()</text>
</a>
</g>
</g>
<!-- Node2 -->
<g id="node2" class="node">
<title>Node2</title>
<g id="a_node2"><a xlink:href="classSignalIntegrity_1_1Lib_1_1Prbs_1_1MultiLevelWaveform_1_1MultiLevelWaveform.xhtml" target="_top" xlink:title="a PRBS multi&#45;level waveform with a given PRBS polynomial">
<polygon fill="white" stroke="black" points="13.5,-94.5 13.5,-151.5 118.5,-151.5 118.5,-94.5 13.5,-94.5"/>
<text text-anchor="middle" x="66" y="-139.5" font-family="Helvetica,sans-Serif" font-size="10.00">MultiLevelWaveform</text>
<polyline fill="none" stroke="black" points="13.5,-132.5 118.5,-132.5 "/>
<text text-anchor="middle" x="66" y="-120.5" font-family="Helvetica,sans-Serif" font-size="10.00"> </text>
<polyline fill="none" stroke="black" points="13.5,-113.5 118.5,-113.5 "/>
<text text-anchor="start" x="21.5" y="-101.5" font-family="Helvetica,sans-Serif" font-size="10.00">+ __init__()</text>
</a>
</g>
</g>
<!-- Node2&#45;&gt;Node1 -->
<g id="edge1" class="edge">
<title>Node2&#45;&gt;Node1</title>
<path fill="none" stroke="midnightblue" d="M66,-84.21C66,-75.29 66,-65.95 66,-57.58"/>
<polygon fill="none" stroke="midnightblue" points="62.5,-84.4 66,-94.4 69.5,-84.4 62.5,-84.4"/>
</g>
<!-- Node3 -->
<g id="node3" class="node">
<title>Node3</title>
<g id="a_node3"><a xlink:href="classSignalIntegrity_1_1Lib_1_1TimeDomain_1_1Waveform_1_1Waveform_1_1Waveform.xhtml" target="_top" xlink:title="base class for all waveforms">
<polygon fill="white" stroke="black" points="0,-188.5 0,-388.5 132,-388.5 132,-188.5 0,-188.5"/>
<text text-anchor="middle" x="66" y="-376.5" font-family="Helvetica,sans-Serif" font-size="10.00">Waveform</text>
<polyline fill="none" stroke="black" points="0,-369.5 132,-369.5 "/>
<text text-anchor="start" x="8" y="-357.5" font-family="Helvetica,sans-Serif" font-size="10.00">+ td</text>
<text text-anchor="start" x="8" y="-346.5" font-family="Helvetica,sans-Serif" font-size="10.00">+ adaptionStrategy</text>
<text text-anchor="start" x="8" y="-335.5" font-family="Helvetica,sans-Serif" font-size="10.00">+ epsilon</text>
<text text-anchor="start" x="8" y="-324.5" font-family="Helvetica,sans-Serif" font-size="10.00">+ maximumWaveformSize</text>
<polyline fill="none" stroke="black" points="0,-317.5 132,-317.5 "/>
<text text-anchor="start" x="8" y="-305.5" font-family="Helvetica,sans-Serif" font-size="10.00">+ __init__()</text>
<text text-anchor="start" x="8" y="-294.5" font-family="Helvetica,sans-Serif" font-size="10.00">+ Times()</text>
<text text-anchor="start" x="8" y="-283.5" font-family="Helvetica,sans-Serif" font-size="10.00">+ TimeDescriptor()</text>
<text text-anchor="start" x="8" y="-272.5" font-family="Helvetica,sans-Serif" font-size="10.00">+ Values()</text>
<text text-anchor="start" x="8" y="-261.5" font-family="Helvetica,sans-Serif" font-size="10.00">+ OffsetBy()</text>
<text text-anchor="start" x="8" y="-250.5" font-family="Helvetica,sans-Serif" font-size="10.00">+ DelayBy()</text>
<text text-anchor="start" x="8" y="-239.5" font-family="Helvetica,sans-Serif" font-size="10.00">+ __add__()</text>
<text text-anchor="start" x="8" y="-228.5" font-family="Helvetica,sans-Serif" font-size="10.00">+ __sub__()</text>
<text text-anchor="start" x="8" y="-217.5" font-family="Helvetica,sans-Serif" font-size="10.00">+ __radd__()</text>
<text text-anchor="start" x="8" y="-206.5" font-family="Helvetica,sans-Serif" font-size="10.00">+ __mul__()</text>
<text text-anchor="start" x="8" y="-195.5" font-family="Helvetica,sans-Serif" font-size="10.00">and 16 more...</text>
</a>
</g>
</g>
<!-- Node3&#45;&gt;Node2 -->
<g id="edge2" class="edge">
<title>Node3&#45;&gt;Node2</title>
<path fill="none" stroke="midnightblue" d="M66,-177.96C66,-168.37 66,-159.35 66,-151.53"/>
<polygon fill="none" stroke="midnightblue" points="62.5,-178.15 66,-188.15 69.5,-178.15 62.5,-178.15"/>
</g>
</g>
</svg>
