<?xml version="1.0" encoding="UTF-8" standalone="no"?>
<!DOCTYPE svg PUBLIC "-//W3C//DTD SVG 1.1//EN"
 "http://www.w3.org/Graphics/SVG/1.1/DTD/svg11.dtd">
<!-- Generated by graphviz version 2.43.0 (0)
 -->
<!-- Title: Graphical Class Hierarchy Pages: 1 -->
<svg width="210pt" height="180pt"
 viewBox="0.00 0.00 210.00 180.00" xmlns="http://www.w3.org/2000/svg" xmlns:xlink="http://www.w3.org/1999/xlink">
<g id="graph0" class="graph" transform="scale(1 1) rotate(0) translate(4 176)">
<title>Graphical Class Hierarchy</title>
<polygon fill="white" stroke="transparent" points="-4,4 -4,-176 206,-176 206,4 -4,4"/>
<!-- Node0 -->
<g id="node1" class="node">
<title>Node0</title>
<g id="a_node1"><a xlink:href="classSignalIntegrity_1_1Lib_1_1Wavelets_1_1Wavelets_1_1Wavelet.xhtml" target="_top" xlink:title="base class that performs forward and inverse wavelet transforms">
<polygon fill="white" stroke="black" points="0,-76.5 0,-95.5 52,-95.5 52,-76.5 0,-76.5"/>
<text text-anchor="middle" x="26" y="-83.5" font-family="Helvetica,sans-Serif" font-size="10.00">Wavelet</text>
</a>
</g>
</g>
<!-- Node1 -->
<g id="node2" class="node">
<title>Node1</title>
<g id="a_node2"><a xlink:href="classSignalIntegrity_1_1Lib_1_1Wavelets_1_1Wavelets_1_1WaveletDaubechies14.xhtml" target="_top" xlink:title="14 tap Daubechies wavelet transformer">
<polygon fill="white" stroke="black" points="88,-152.5 88,-171.5 202,-171.5 202,-152.5 88,-152.5"/>
<text text-anchor="middle" x="145" y="-159.5" font-family="Helvetica,sans-Serif" font-size="10.00">WaveletDaubechies14</text>
</a>
</g>
</g>
<!-- Node0&#45;&gt;Node1 -->
<g id="edge1" class="edge">
<title>Node0&#45;&gt;Node1</title>
<path fill="none" stroke="midnightblue" d="M41.83,-103.36C53.33,-115.88 70.25,-132.38 88,-143 94.25,-146.74 101.35,-149.87 108.33,-152.44"/>
<polygon fill="midnightblue" stroke="midnightblue" points="44.37,-100.95 35.11,-95.81 39.14,-105.61 44.37,-100.95"/>
</g>
<!-- Node2 -->
<g id="node3" class="node">
<title>Node2</title>
<g id="a_node3"><a xlink:href="classSignalIntegrity_1_1Lib_1_1Wavelets_1_1Wavelets_1_1WaveletDaubechies16.xhtml" target="_top" xlink:title="16 tap Daubechies wavelet transformer">
<polygon fill="white" stroke="black" points="88,-114.5 88,-133.5 202,-133.5 202,-114.5 88,-114.5"/>
<text text-anchor="middle" x="145" y="-121.5" font-family="Helvetica,sans-Serif" font-size="10.00">WaveletDaubechies16</text>
</a>
</g>
</g>
<!-- Node0&#45;&gt;Node2 -->
<g id="edge2" class="edge">
<title>Node0&#45;&gt;Node2</title>
<path fill="none" stroke="midnightblue" d="M62.03,-97.38C78.72,-102.8 98.46,-109.21 114.39,-114.38"/>
<polygon fill="midnightblue" stroke="midnightblue" points="62.69,-93.91 52.1,-94.15 60.53,-100.57 62.69,-93.91"/>
</g>
<!-- Node3 -->
<g id="node4" class="node">
<title>Node3</title>
<g id="a_node4"><a xlink:href="classSignalIntegrity_1_1Lib_1_1Wavelets_1_1Wavelets_1_1WaveletDaubechies4.xhtml" target="_top" xlink:title="4 tap Daubechies wavelet transformer">
<polygon fill="white" stroke="black" points="90.5,-76.5 90.5,-95.5 199.5,-95.5 199.5,-76.5 90.5,-76.5"/>
<text text-anchor="middle" x="145" y="-83.5" font-family="Helvetica,sans-Serif" font-size="10.00">WaveletDaubechies4</text>
</a>
</g>
</g>
<!-- Node0&#45;&gt;Node3 -->
<g id="edge3" class="edge">
<title>Node0&#45;&gt;Node3</title>
<path fill="none" stroke="midnightblue" d="M62.31,-86C71.07,-86 80.66,-86 90.09,-86"/>
<polygon fill="midnightblue" stroke="midnightblue" points="62.1,-82.5 52.1,-86 62.1,-89.5 62.1,-82.5"/>
</g>
<!-- Node4 -->
<g id="node5" class="node">
<title>Node4</title>
<g id="a_node5"><a xlink:href="classSignalIntegrity_1_1Lib_1_1Wavelets_1_1Wavelets_1_1WaveletDaubechies8.xhtml" target="_top" xlink:title="8 tap Daubechies wavelet transformer">
<polygon fill="white" stroke="black" points="90.5,-38.5 90.5,-57.5 199.5,-57.5 199.5,-38.5 90.5,-38.5"/>
<text text-anchor="middle" x="145" y="-45.5" font-family="Helvetica,sans-Serif" font-size="10.00">WaveletDaubechies8</text>
</a>
</g>
</g>
<!-- Node0&#45;&gt;Node4 -->
<g id="edge4" class="edge">
<title>Node0&#45;&gt;Node4</title>
<path fill="none" stroke="midnightblue" d="M62.03,-74.62C78.72,-69.2 98.46,-62.79 114.39,-57.62"/>
<polygon fill="midnightblue" stroke="midnightblue" points="60.53,-71.43 52.1,-77.85 62.69,-78.09 60.53,-71.43"/>
</g>
<!-- Node5 -->
<g id="node6" class="node">
<title>Node5</title>
<g id="a_node6"><a xlink:href="classSignalIntegrity_1_1Lib_1_1Wavelets_1_1Wavelets_1_1WaveletHaar.xhtml" target="_top" xlink:title="2 tap Haar wavelet transformer">
<polygon fill="white" stroke="black" points="108.5,-0.5 108.5,-19.5 181.5,-19.5 181.5,-0.5 108.5,-0.5"/>
<text text-anchor="middle" x="145" y="-7.5" font-family="Helvetica,sans-Serif" font-size="10.00">WaveletHaar</text>
</a>
</g>
</g>
<!-- Node0&#45;&gt;Node5 -->
<g id="edge5" class="edge">
<title>Node0&#45;&gt;Node5</title>
<path fill="none" stroke="midnightblue" d="M41.83,-68.64C53.33,-56.12 70.25,-39.62 88,-29 94.25,-25.26 101.35,-22.13 108.33,-19.56"/>
<polygon fill="midnightblue" stroke="midnightblue" points="39.14,-66.39 35.11,-76.19 44.37,-71.05 39.14,-66.39"/>
</g>
</g>
</svg>
