<?xml version="1.0" encoding="UTF-8" standalone="no"?>
<!DOCTYPE svg PUBLIC "-//W3C//DTD SVG 1.1//EN"
 "http://www.w3.org/Graphics/SVG/1.1/DTD/svg11.dtd">
<!-- Generated by graphviz version 2.43.0 (0)
 -->
<!-- Title: Graphical Class Hierarchy Pages: 1 -->
<svg width="653pt" height="1320pt"
 viewBox="0.00 0.00 653.00 1320.00" xmlns="http://www.w3.org/2000/svg" xmlns:xlink="http://www.w3.org/1999/xlink">
<g id="graph0" class="graph" transform="scale(1 1) rotate(0) translate(4 1316)">
<title>Graphical Class Hierarchy</title>
<polygon fill="white" stroke="transparent" points="-4,4 -4,-1316 649,-1316 649,4 -4,4"/>
<!-- Node54 -->
<g id="node1" class="node">
<title>Node54</title>
<g id="a_node1"><a xlink:href="classSignalIntegrity_1_1Lib_1_1SParameters_1_1SParameterManipulation_1_1SParameterManipulation.xhtml" target="_top" xlink:title="Class for manipulations on s&#45;parameters involving passivity, causality, etc.">
<polygon fill="white" stroke="black" points="0,-646.5 0,-665.5 123,-665.5 123,-646.5 0,-646.5"/>
<text text-anchor="middle" x="61.5" y="-653.5" font-family="Helvetica,sans-Serif" font-size="10.00">SParameterManipulation</text>
</a>
</g>
</g>
<!-- Node55 -->
<g id="node2" class="node">
<title>Node55</title>
<g id="a_node2"><a xlink:href="classSignalIntegrity_1_1Lib_1_1SParameters_1_1SParameters_1_1SParameters.xhtml" target="_top" xlink:title="Class containing s&#45;parameters.">
<polygon fill="white" stroke="black" points="179.5,-646.5 179.5,-665.5 253.5,-665.5 253.5,-646.5 179.5,-646.5"/>
<text text-anchor="middle" x="216.5" y="-653.5" font-family="Helvetica,sans-Serif" font-size="10.00">SParameters</text>
</a>
</g>
</g>
<!-- Node54&#45;&gt;Node55 -->
<g id="edge1" class="edge">
<title>Node54&#45;&gt;Node55</title>
<path fill="none" stroke="midnightblue" d="M133.75,-656C149.6,-656 165.75,-656 179.47,-656"/>
<polygon fill="midnightblue" stroke="midnightblue" points="133.41,-652.5 123.41,-656 133.41,-659.5 133.41,-652.5"/>
</g>
<!-- Node56 -->
<g id="node3" class="node">
<title>Node56</title>
<g id="a_node3"><a xlink:href="classSignalIntegrity_1_1Lib_1_1ImpedanceProfile_1_1PeeledLaunches_1_1PeeledLaunches.xhtml" target="_top" xlink:title="S&#45;parameters with launches peeled from them.">
<polygon fill="white" stroke="black" points="350.5,-988.5 350.5,-1007.5 439.5,-1007.5 439.5,-988.5 350.5,-988.5"/>
<text text-anchor="middle" x="395" y="-995.5" font-family="Helvetica,sans-Serif" font-size="10.00">PeeledLaunches</text>
</a>
</g>
</g>
<!-- Node55&#45;&gt;Node56 -->
<g id="edge2" class="edge">
<title>Node55&#45;&gt;Node56</title>
<path fill="none" stroke="midnightblue" d="M216.76,-675.74C215.78,-732.09 221.16,-895.04 310,-979 320.76,-989.17 335.76,-994.31 350.11,-996.8"/>
<polygon fill="midnightblue" stroke="midnightblue" points="220.26,-675.76 217.02,-665.67 213.26,-675.58 220.26,-675.76"/>
</g>
<!-- Node57 -->
<g id="node4" class="node">
<title>Node57</title>
<g id="a_node4"><a xlink:href="classSignalIntegrity_1_1Lib_1_1ImpedanceProfile_1_1PeeledPortSParameters_1_1PeeledPortSParameters.xhtml" target="_top" xlink:title="s&#45;parameters of peeled impedance profile from port calculates the impedance profile looking into a po...">
<polygon fill="white" stroke="black" points="334,-950.5 334,-969.5 456,-969.5 456,-950.5 334,-950.5"/>
<text text-anchor="middle" x="395" y="-957.5" font-family="Helvetica,sans-Serif" font-size="10.00">PeeledPortSParameters</text>
</a>
</g>
</g>
<!-- Node55&#45;&gt;Node57 -->
<g id="edge3" class="edge">
<title>Node55&#45;&gt;Node57</title>
<path fill="none" stroke="midnightblue" d="M217.64,-675.81C219.14,-727.71 230.69,-868.63 310,-941 316.74,-947.15 325.03,-951.44 333.76,-954.42"/>
<polygon fill="midnightblue" stroke="midnightblue" points="221.14,-675.56 217.45,-665.63 214.14,-675.69 221.14,-675.56"/>
</g>
<!-- Node58 -->
<g id="node5" class="node">
<title>Node58</title>
<g id="a_node5"><a xlink:href="classSignalIntegrity_1_1Lib_1_1Measurement_1_1Calibration_1_1NetworkAnalyzer_1_1NetworkAnalyzer.xhtml" target="_top" xlink:title="produces calibrated or uncalibrated s&#45;parameters from a network analyzer.">
<polygon fill="white" stroke="black" points="349,-912.5 349,-931.5 441,-931.5 441,-912.5 349,-912.5"/>
<text text-anchor="middle" x="395" y="-919.5" font-family="Helvetica,sans-Serif" font-size="10.00">NetworkAnalyzer</text>
</a>
</g>
</g>
<!-- Node55&#45;&gt;Node58 -->
<g id="edge4" class="edge">
<title>Node55&#45;&gt;Node58</title>
<path fill="none" stroke="midnightblue" d="M218.76,-675.67C222.87,-722.64 240.04,-841.95 310,-903 320.7,-912.34 335.03,-917.36 348.82,-919.99"/>
<polygon fill="midnightblue" stroke="midnightblue" points="222.24,-675.3 217.99,-665.6 215.26,-675.84 222.24,-675.3"/>
</g>
<!-- Node59 -->
<g id="node6" class="node">
<title>Node59</title>
<g id="a_node6"><a xlink:href="classSignalIntegrity_1_1Lib_1_1Measurement_1_1CalKit_1_1Standards_1_1LoadStandard_1_1LoadStandard.xhtml" target="_top" xlink:title="Class providing the s&#45;parameters of a load standard as commonly defined for a calibration kit.">
<polygon fill="white" stroke="black" points="356.5,-874.5 356.5,-893.5 433.5,-893.5 433.5,-874.5 356.5,-874.5"/>
<text text-anchor="middle" x="395" y="-881.5" font-family="Helvetica,sans-Serif" font-size="10.00">LoadStandard</text>
</a>
</g>
</g>
<!-- Node55&#45;&gt;Node59 -->
<g id="edge5" class="edge">
<title>Node55&#45;&gt;Node59</title>
<path fill="none" stroke="midnightblue" d="M220.26,-675.73C227.2,-717.5 249.36,-815.13 310,-865 322.93,-875.64 340.63,-880.6 356.44,-882.83"/>
<polygon fill="midnightblue" stroke="midnightblue" points="223.7,-675.08 218.72,-665.73 216.79,-676.14 223.7,-675.08"/>
</g>
<!-- Node60 -->
<g id="node7" class="node">
<title>Node60</title>
<g id="a_node7"><a xlink:href="classSignalIntegrity_1_1Lib_1_1Measurement_1_1CalKit_1_1Standards_1_1Offset_1_1Offset.xhtml" target="_top" xlink:title="class providing the s&#45;parameters of an offset portion of the various calibration standards for a cali...">
<polygon fill="white" stroke="black" points="373,-836.5 373,-855.5 417,-855.5 417,-836.5 373,-836.5"/>
<text text-anchor="middle" x="395" y="-843.5" font-family="Helvetica,sans-Serif" font-size="10.00">Offset</text>
</a>
</g>
</g>
<!-- Node55&#45;&gt;Node60 -->
<g id="edge6" class="edge">
<title>Node55&#45;&gt;Node60</title>
<path fill="none" stroke="midnightblue" d="M222.25,-675.31C232.11,-711.14 258.32,-787.82 310,-827 328.11,-840.73 354.33,-844.85 372.64,-845.94"/>
<polygon fill="midnightblue" stroke="midnightblue" points="225.62,-674.37 219.7,-665.59 218.85,-676.15 225.62,-674.37"/>
</g>
<!-- Node62 -->
<g id="node9" class="node">
<title>Node62</title>
<g id="a_node9"><a xlink:href="classSignalIntegrity_1_1Lib_1_1Measurement_1_1CalKit_1_1Standards_1_1OpenStandard_1_1OpenStandard.xhtml" target="_top" xlink:title="class providing the s&#45;parameters of an open standard as commonly defined for a calibration kit.">
<polygon fill="white" stroke="black" points="355.5,-798.5 355.5,-817.5 434.5,-817.5 434.5,-798.5 355.5,-798.5"/>
<text text-anchor="middle" x="395" y="-805.5" font-family="Helvetica,sans-Serif" font-size="10.00">OpenStandard</text>
</a>
</g>
</g>
<!-- Node55&#45;&gt;Node62 -->
<g id="edge8" class="edge">
<title>Node55&#45;&gt;Node62</title>
<path fill="none" stroke="midnightblue" d="M225.26,-675.04C238.24,-704.35 267.2,-760.17 310,-789 323.27,-797.94 340.12,-802.72 355.24,-805.27"/>
<polygon fill="midnightblue" stroke="midnightblue" points="228.35,-673.36 221.21,-665.53 221.91,-676.11 228.35,-673.36"/>
</g>
<!-- Node63 -->
<g id="node10" class="node">
<title>Node63</title>
<g id="a_node10"><a xlink:href="classSignalIntegrity_1_1Lib_1_1Measurement_1_1CalKit_1_1Standards_1_1ShortStandard_1_1ShortStandard.xhtml" target="_top" xlink:title="Class providing the s&#45;parameters of a short standard as commonly defined for a calibration kit.">
<polygon fill="white" stroke="black" points="355.5,-760.5 355.5,-779.5 434.5,-779.5 434.5,-760.5 355.5,-760.5"/>
<text text-anchor="middle" x="395" y="-767.5" font-family="Helvetica,sans-Serif" font-size="10.00">ShortStandard</text>
</a>
</g>
</g>
<!-- Node55&#45;&gt;Node63 -->
<g id="edge9" class="edge">
<title>Node55&#45;&gt;Node63</title>
<path fill="none" stroke="midnightblue" d="M229.82,-673.91C245.75,-695.63 275.56,-731.71 310,-751 323.7,-758.67 340.29,-763.25 355.1,-765.97"/>
<polygon fill="midnightblue" stroke="midnightblue" points="232.53,-671.68 223.87,-665.58 226.83,-675.75 232.53,-671.68"/>
</g>
<!-- Node1 -->
<g id="node11" class="node">
<title>Node1</title>
<g id="a_node11"><a xlink:href="classSignalIntegrity_1_1Lib_1_1Measurement_1_1CalKit_1_1Standards_1_1TerminationPolynomial_1_1TerminationCPolynomial.xhtml" target="_top" xlink:title="Class for capacitive terminations for open calibration standards.">
<polygon fill="white" stroke="black" points="334,-1254.5 334,-1273.5 456,-1273.5 456,-1254.5 334,-1254.5"/>
<text text-anchor="middle" x="395" y="-1261.5" font-family="Helvetica,sans-Serif" font-size="10.00">TerminationCPolynomial</text>
</a>
</g>
</g>
<!-- Node55&#45;&gt;Node1 -->
<g id="edge10" class="edge">
<title>Node55&#45;&gt;Node1</title>
<path fill="none" stroke="midnightblue" d="M217.74,-675.94C219.27,-769.03 230.41,-1159.92 310,-1245 316.43,-1251.88 324.79,-1256.52 333.73,-1259.62"/>
<polygon fill="midnightblue" stroke="midnightblue" points="221.24,-675.84 217.59,-665.89 214.24,-675.94 221.24,-675.84"/>
</g>
<!-- Node2 -->
<g id="node12" class="node">
<title>Node2</title>
<g id="a_node12"><a xlink:href="classSignalIntegrity_1_1Lib_1_1Measurement_1_1CalKit_1_1Standards_1_1TerminationPolynomial_1_1TerminationLPolynomial.xhtml" target="_top" xlink:title="Class for inductive terminations for short calibration standards.">
<polygon fill="white" stroke="black" points="335,-1292.5 335,-1311.5 455,-1311.5 455,-1292.5 335,-1292.5"/>
<text text-anchor="middle" x="395" y="-1299.5" font-family="Helvetica,sans-Serif" font-size="10.00">TerminationLPolynomial</text>
</a>
</g>
</g>
<!-- Node55&#45;&gt;Node2 -->
<g id="edge11" class="edge">
<title>Node55&#45;&gt;Node2</title>
<path fill="none" stroke="midnightblue" d="M217.53,-675.67C218.08,-771.85 225.37,-1191.68 310,-1283 316.71,-1290.24 325.54,-1295.01 334.96,-1298.1"/>
<polygon fill="midnightblue" stroke="midnightblue" points="221.03,-675.58 217.49,-665.59 214.03,-675.6 221.03,-675.58"/>
</g>
<!-- Node64 -->
<g id="node13" class="node">
<title>Node64</title>
<g id="a_node13"><a xlink:href="classSignalIntegrity_1_1Lib_1_1Parsers_1_1SParametersParser_1_1SParametersParser.xhtml" target="_top" xlink:title="parses a list of commands to process s&#45;parameters">
<polygon fill="white" stroke="black" points="344,-722.5 344,-741.5 446,-741.5 446,-722.5 344,-722.5"/>
<text text-anchor="middle" x="395" y="-729.5" font-family="Helvetica,sans-Serif" font-size="10.00">SParametersParser</text>
</a>
</g>
</g>
<!-- Node55&#45;&gt;Node64 -->
<g id="edge12" class="edge">
<title>Node55&#45;&gt;Node64</title>
<path fill="none" stroke="midnightblue" d="M238.51,-671.76C256.59,-684.61 283.82,-702.32 310,-713 320.66,-717.35 332.51,-720.8 343.86,-723.5"/>
<polygon fill="midnightblue" stroke="midnightblue" points="240.1,-668.58 229.95,-665.55 235.99,-674.25 240.1,-668.58"/>
</g>
<!-- Node65 -->
<g id="node14" class="node">
<title>Node65</title>
<g id="a_node14"><a xlink:href="classSignalIntegrity_1_1Lib_1_1SParameters_1_1Devices_1_1ClassicalFilter_1_1ClassicalFilter.xhtml" target="_top" xlink:title="Classical filter.">
<polygon fill="white" stroke="black" points="355.5,-684.5 355.5,-703.5 434.5,-703.5 434.5,-684.5 355.5,-684.5"/>
<text text-anchor="middle" x="395" y="-691.5" font-family="Helvetica,sans-Serif" font-size="10.00">ClassicalFilter</text>
</a>
</g>
</g>
<!-- Node55&#45;&gt;Node65 -->
<g id="edge13" class="edge">
<title>Node55&#45;&gt;Node65</title>
<path fill="none" stroke="midnightblue" d="M263.78,-665.96C292.32,-672.11 328.49,-679.89 355.46,-685.7"/>
<polygon fill="midnightblue" stroke="midnightblue" points="264.16,-662.46 253.64,-663.78 262.68,-669.31 264.16,-662.46"/>
</g>
<!-- Node68 -->
<g id="node17" class="node">
<title>Node68</title>
<g id="a_node17"><a xlink:href="classSignalIntegrity_1_1Lib_1_1SParameters_1_1Devices_1_1Equalizer_1_1CTLE.xhtml" target="_top" xlink:title="Continuous time linear equalizer.">
<polygon fill="white" stroke="black" points="374,-646.5 374,-665.5 416,-665.5 416,-646.5 374,-646.5"/>
<text text-anchor="middle" x="395" y="-653.5" font-family="Helvetica,sans-Serif" font-size="10.00">CTLE</text>
</a>
</g>
</g>
<!-- Node55&#45;&gt;Node68 -->
<g id="edge16" class="edge">
<title>Node55&#45;&gt;Node68</title>
<path fill="none" stroke="midnightblue" d="M263.84,-656C299.56,-656 347.22,-656 373.83,-656"/>
<polygon fill="midnightblue" stroke="midnightblue" points="263.64,-652.5 253.64,-656 263.64,-659.5 263.64,-652.5"/>
</g>
<!-- Node69 -->
<g id="node18" class="node">
<title>Node69</title>
<g id="a_node18"><a xlink:href="classSignalIntegrity_1_1Lib_1_1SParameters_1_1Devices_1_1Equalizer_1_1FFE.xhtml" target="_top" xlink:title="Linear feed&#45;forward equalizer.">
<polygon fill="white" stroke="black" points="377.5,-608.5 377.5,-627.5 412.5,-627.5 412.5,-608.5 377.5,-608.5"/>
<text text-anchor="middle" x="395" y="-615.5" font-family="Helvetica,sans-Serif" font-size="10.00">FFE</text>
</a>
</g>
</g>
<!-- Node55&#45;&gt;Node69 -->
<g id="edge17" class="edge">
<title>Node55&#45;&gt;Node69</title>
<path fill="none" stroke="midnightblue" d="M263.78,-646.04C301.03,-638.02 351.3,-627.19 377.13,-621.63"/>
<polygon fill="midnightblue" stroke="midnightblue" points="262.68,-642.69 253.64,-648.22 264.16,-649.54 262.68,-642.69"/>
</g>
<!-- Node70 -->
<g id="node19" class="node">
<title>Node70</title>
<g id="a_node19"><a xlink:href="classSignalIntegrity_1_1Lib_1_1SParameters_1_1Devices_1_1ImpulseResponseFilter_1_1ImpulseResponseFilter.xhtml" target="_top" xlink:title="class for impulse response filter">
<polygon fill="white" stroke="black" points="336.5,-570.5 336.5,-589.5 453.5,-589.5 453.5,-570.5 336.5,-570.5"/>
<text text-anchor="middle" x="395" y="-577.5" font-family="Helvetica,sans-Serif" font-size="10.00">ImpulseResponseFilter</text>
</a>
</g>
</g>
<!-- Node55&#45;&gt;Node70 -->
<g id="edge18" class="edge">
<title>Node55&#45;&gt;Node70</title>
<path fill="none" stroke="midnightblue" d="M238.51,-640.24C256.59,-627.39 283.82,-609.68 310,-599 319.28,-595.22 329.45,-592.11 339.42,-589.59"/>
<polygon fill="midnightblue" stroke="midnightblue" points="235.99,-637.75 229.95,-646.45 240.1,-643.42 235.99,-637.75"/>
</g>
<!-- Node71 -->
<g id="node20" class="node">
<title>Node71</title>
<g id="a_node20"><a xlink:href="classSignalIntegrity_1_1Lib_1_1SParameters_1_1Devices_1_1Laplace_1_1Laplace.xhtml" target="_top" xlink:title="Laplace domain equation.">
<polygon fill="white" stroke="black" points="370,-532.5 370,-551.5 420,-551.5 420,-532.5 370,-532.5"/>
<text text-anchor="middle" x="395" y="-539.5" font-family="Helvetica,sans-Serif" font-size="10.00">Laplace</text>
</a>
</g>
</g>
<!-- Node55&#45;&gt;Node71 -->
<g id="edge19" class="edge">
<title>Node55&#45;&gt;Node71</title>
<path fill="none" stroke="midnightblue" d="M229.82,-638.09C245.75,-616.37 275.56,-580.29 310,-561 328.52,-550.62 352.34,-545.91 369.88,-543.78"/>
<polygon fill="midnightblue" stroke="midnightblue" points="226.83,-636.25 223.87,-646.42 232.53,-640.32 226.83,-636.25"/>
</g>
<!-- Node72 -->
<g id="node21" class="node">
<title>Node72</title>
<g id="a_node21"><a xlink:href="classSignalIntegrity_1_1Lib_1_1SParameters_1_1Devices_1_1MixedModeTline_1_1MixedModeTLine.xhtml" target="_top" xlink:title="s&#45;parameters of a mixed&#45;mode, balanced transmission line">
<polygon fill="white" stroke="black" points="349.5,-494.5 349.5,-513.5 440.5,-513.5 440.5,-494.5 349.5,-494.5"/>
<text text-anchor="middle" x="395" y="-501.5" font-family="Helvetica,sans-Serif" font-size="10.00">MixedModeTLine</text>
</a>
</g>
</g>
<!-- Node55&#45;&gt;Node72 -->
<g id="edge20" class="edge">
<title>Node55&#45;&gt;Node72</title>
<path fill="none" stroke="midnightblue" d="M225.26,-636.96C238.24,-607.65 267.2,-551.83 310,-523 321.53,-515.23 335.77,-510.6 349.23,-507.85"/>
<polygon fill="midnightblue" stroke="midnightblue" points="221.91,-635.89 221.21,-646.47 228.35,-638.64 221.91,-635.89"/>
</g>
<!-- Node73 -->
<g id="node22" class="node">
<title>Node73</title>
<g id="a_node22"><a xlink:href="classSignalIntegrity_1_1Lib_1_1SParameters_1_1Devices_1_1Mutual_1_1Mutual.xhtml" target="_top" xlink:title="s&#45;parameters of a mutual inductance">
<polygon fill="white" stroke="black" points="372,-456.5 372,-475.5 418,-475.5 418,-456.5 372,-456.5"/>
<text text-anchor="middle" x="395" y="-463.5" font-family="Helvetica,sans-Serif" font-size="10.00">Mutual</text>
</a>
</g>
</g>
<!-- Node55&#45;&gt;Node73 -->
<g id="edge21" class="edge">
<title>Node55&#45;&gt;Node73</title>
<path fill="none" stroke="midnightblue" d="M222.25,-636.69C232.11,-600.86 258.32,-524.18 310,-485 327.87,-471.45 353.64,-467.26 371.91,-466.11"/>
<polygon fill="midnightblue" stroke="midnightblue" points="218.85,-635.85 219.7,-646.41 225.62,-637.63 218.85,-635.85"/>
</g>
<!-- Node74 -->
<g id="node23" class="node">
<title>Node74</title>
<g id="a_node23"><a xlink:href="classSignalIntegrity_1_1Lib_1_1SParameters_1_1Devices_1_1Parallel_1_1Parallel.xhtml" target="_top" xlink:title="s&#45;parameters of two port device placed in parallel with itself multiple times">
<polygon fill="white" stroke="black" points="370.5,-418.5 370.5,-437.5 419.5,-437.5 419.5,-418.5 370.5,-418.5"/>
<text text-anchor="middle" x="395" y="-425.5" font-family="Helvetica,sans-Serif" font-size="10.00">Parallel</text>
</a>
</g>
</g>
<!-- Node55&#45;&gt;Node74 -->
<g id="edge22" class="edge">
<title>Node55&#45;&gt;Node74</title>
<path fill="none" stroke="midnightblue" d="M220.26,-636.27C227.2,-594.5 249.36,-496.87 310,-447 326.86,-433.13 351.81,-428.9 370.14,-427.83"/>
<polygon fill="midnightblue" stroke="midnightblue" points="216.79,-635.86 218.72,-646.27 223.7,-636.92 216.79,-635.86"/>
</g>
<!-- Node75 -->
<g id="node24" class="node">
<title>Node75</title>
<g id="a_node24"><a xlink:href="classSignalIntegrity_1_1Lib_1_1SParameters_1_1Devices_1_1Parallel_1_1Series.xhtml" target="_top" xlink:title="s&#45;parameters of two port device placed in parallel with itself multiple times">
<polygon fill="white" stroke="black" points="373,-380.5 373,-399.5 417,-399.5 417,-380.5 373,-380.5"/>
<text text-anchor="middle" x="395" y="-387.5" font-family="Helvetica,sans-Serif" font-size="10.00">Series</text>
</a>
</g>
</g>
<!-- Node55&#45;&gt;Node75 -->
<g id="edge23" class="edge">
<title>Node55&#45;&gt;Node75</title>
<path fill="none" stroke="midnightblue" d="M218.76,-636.33C222.87,-589.36 240.04,-470.05 310,-409 327.35,-393.86 354.22,-390.06 372.88,-389.44"/>
<polygon fill="midnightblue" stroke="midnightblue" points="215.26,-636.16 217.99,-646.4 222.24,-636.7 215.26,-636.16"/>
</g>
<!-- Node76 -->
<g id="node25" class="node">
<title>Node76</title>
<g id="a_node25"><a xlink:href="classSignalIntegrity_1_1Lib_1_1SParameters_1_1Devices_1_1SeriesC_1_1SeriesC.xhtml" target="_top" xlink:title="s&#45;parameters of a series capacitance">
<polygon fill="white" stroke="black" points="369,-342.5 369,-361.5 421,-361.5 421,-342.5 369,-342.5"/>
<text text-anchor="middle" x="395" y="-349.5" font-family="Helvetica,sans-Serif" font-size="10.00">SeriesC</text>
</a>
</g>
</g>
<!-- Node55&#45;&gt;Node76 -->
<g id="edge24" class="edge">
<title>Node55&#45;&gt;Node76</title>
<path fill="none" stroke="midnightblue" d="M217.64,-636.19C219.14,-584.29 230.69,-443.37 310,-371 325.9,-356.49 350.49,-352.29 368.97,-351.39"/>
<polygon fill="midnightblue" stroke="midnightblue" points="214.14,-636.31 217.45,-646.37 221.14,-636.44 214.14,-636.31"/>
</g>
<!-- Node77 -->
<g id="node26" class="node">
<title>Node77</title>
<g id="a_node26"><a xlink:href="classSignalIntegrity_1_1Lib_1_1SParameters_1_1Devices_1_1SeriesL_1_1SeriesL.xhtml" target="_top" xlink:title="s&#45;parameters of a series inductance">
<polygon fill="white" stroke="black" points="370,-304.5 370,-323.5 420,-323.5 420,-304.5 370,-304.5"/>
<text text-anchor="middle" x="395" y="-311.5" font-family="Helvetica,sans-Serif" font-size="10.00">SeriesL</text>
</a>
</g>
</g>
<!-- Node55&#45;&gt;Node77 -->
<g id="edge25" class="edge">
<title>Node55&#45;&gt;Node77</title>
<path fill="none" stroke="midnightblue" d="M216.76,-636.26C215.78,-579.91 221.16,-416.96 310,-333 325.97,-317.9 351.3,-313.88 369.97,-313.19"/>
<polygon fill="midnightblue" stroke="midnightblue" points="213.26,-636.42 217.02,-646.33 220.26,-636.24 213.26,-636.42"/>
</g>
<!-- Node78 -->
<g id="node27" class="node">
<title>Node78</title>
<g id="a_node27"><a xlink:href="classSignalIntegrity_1_1Lib_1_1SParameters_1_1Devices_1_1SeriesRse_1_1SeriesRse.xhtml" target="_top" xlink:title="s&#45;parameters of series skin&#45;effect Resistance">
<polygon fill="white" stroke="black" points="364,-266.5 364,-285.5 426,-285.5 426,-266.5 364,-266.5"/>
<text text-anchor="middle" x="395" y="-273.5" font-family="Helvetica,sans-Serif" font-size="10.00">SeriesRse</text>
</a>
</g>
</g>
<!-- Node55&#45;&gt;Node78 -->
<g id="edge26" class="edge">
<title>Node55&#45;&gt;Node78</title>
<path fill="none" stroke="midnightblue" d="M219.9,-635.88C228.49,-567.23 259.89,-343.7 310,-295 324.15,-281.24 346.04,-276.62 363.93,-275.37"/>
<polygon fill="midnightblue" stroke="midnightblue" points="216.38,-635.83 218.64,-646.18 223.33,-636.68 216.38,-635.83"/>
</g>
<!-- Node79 -->
<g id="node28" class="node">
<title>Node79</title>
<g id="a_node28"><a xlink:href="classSignalIntegrity_1_1Lib_1_1SParameters_1_1Devices_1_1TerminationC_1_1TerminationC.xhtml" target="_top" xlink:title="s&#45;parameters of a termination (one&#45;port) capacitance">
<polygon fill="white" stroke="black" points="358,-228.5 358,-247.5 432,-247.5 432,-228.5 358,-228.5"/>
<text text-anchor="middle" x="395" y="-235.5" font-family="Helvetica,sans-Serif" font-size="10.00">TerminationC</text>
</a>
</g>
</g>
<!-- Node55&#45;&gt;Node79 -->
<g id="edge27" class="edge">
<title>Node55&#45;&gt;Node79</title>
<path fill="none" stroke="midnightblue" d="M219.35,-636.17C226.53,-563.3 254.97,-311.74 310,-257 322.51,-244.56 341.33,-239.55 357.99,-237.76"/>
<polygon fill="midnightblue" stroke="midnightblue" points="215.85,-635.98 218.37,-646.27 222.81,-636.65 215.85,-635.98"/>
</g>
<!-- Node80 -->
<g id="node29" class="node">
<title>Node80</title>
<g id="a_node29"><a xlink:href="classSignalIntegrity_1_1Lib_1_1SParameters_1_1Devices_1_1TerminationL_1_1TerminationL.xhtml" target="_top" xlink:title="s&#45;parameters of a termination (one&#45;port) inductance">
<polygon fill="white" stroke="black" points="359,-190.5 359,-209.5 431,-209.5 431,-190.5 359,-190.5"/>
<text text-anchor="middle" x="395" y="-197.5" font-family="Helvetica,sans-Serif" font-size="10.00">TerminationL</text>
</a>
</g>
</g>
<!-- Node55&#45;&gt;Node80 -->
<g id="edge28" class="edge">
<title>Node55&#45;&gt;Node80</title>
<path fill="none" stroke="midnightblue" d="M218.94,-635.81C224.9,-558.11 250.18,-279.66 310,-219 322.6,-206.23 341.84,-201.25 358.73,-199.57"/>
<polygon fill="midnightblue" stroke="midnightblue" points="215.43,-635.9 218.17,-646.14 222.41,-636.42 215.43,-635.9"/>
</g>
<!-- Node81 -->
<g id="node30" class="node">
<title>Node81</title>
<g id="a_node30"><a xlink:href="classSignalIntegrity_1_1Lib_1_1SParameters_1_1Devices_1_1TLineDifferentialRLGC_1_1TLineDifferentialRLGC.xhtml" target="_top" xlink:title="s&#45;parameters of differential RLGC (telegrapher&#39;s) transmission line">
<polygon fill="white" stroke="black" points="337,-152.5 337,-171.5 453,-171.5 453,-152.5 337,-152.5"/>
<text text-anchor="middle" x="395" y="-159.5" font-family="Helvetica,sans-Serif" font-size="10.00">TLineDifferentialRLGC</text>
</a>
</g>
</g>
<!-- Node55&#45;&gt;Node81 -->
<g id="edge29" class="edge">
<title>Node55&#45;&gt;Node81</title>
<path fill="none" stroke="midnightblue" d="M218.55,-636.19C223.27,-554.88 245.18,-247.81 310,-181 317.29,-173.49 326.87,-168.66 336.95,-165.62"/>
<polygon fill="midnightblue" stroke="midnightblue" points="215.04,-636.32 217.98,-646.5 222.03,-636.71 215.04,-636.32"/>
</g>
<!-- Node82 -->
<g id="node31" class="node">
<title>Node82</title>
<g id="a_node31"><a xlink:href="classSignalIntegrity_1_1Lib_1_1SParameters_1_1Devices_1_1TLineDifferentialRLGCApproximate_1_1TLineDifferentialRLGCApproximate.xhtml" target="_top" xlink:title="s&#45;parameters of differential RLGC (telegrapher&#39;s) transmission line calculated by approximating distr...">
<polygon fill="white" stroke="black" points="310,-114.5 310,-133.5 480,-133.5 480,-114.5 310,-114.5"/>
<text text-anchor="middle" x="395" y="-121.5" font-family="Helvetica,sans-Serif" font-size="10.00">TLineDifferentialRLGCApproximate</text>
</a>
</g>
</g>
<!-- Node55&#45;&gt;Node82 -->
<g id="edge30" class="edge">
<title>Node55&#45;&gt;Node82</title>
<path fill="none" stroke="midnightblue" d="M218.25,-635.98C221.86,-550.34 240.31,-215.83 310,-143 313.62,-139.22 317.82,-136.12 322.37,-133.58"/>
<polygon fill="midnightblue" stroke="midnightblue" points="214.74,-636.03 217.84,-646.17 221.74,-636.31 214.74,-636.03"/>
</g>
<!-- Node83 -->
<g id="node32" class="node">
<title>Node83</title>
<g id="a_node32"><a xlink:href="classSignalIntegrity_1_1Lib_1_1SParameters_1_1Devices_1_1TLineDifferentialRLGCBalanced_1_1TLineDifferentialRLGCBalanced.xhtml" target="_top" xlink:title="s&#45;parameters of analytic balanced differential RLGC (telegrapher&#39;s) transmission line.">
<polygon fill="white" stroke="black" points="317,-76.5 317,-95.5 473,-95.5 473,-76.5 317,-76.5"/>
<text text-anchor="middle" x="395" y="-83.5" font-family="Helvetica,sans-Serif" font-size="10.00">TLineDifferentialRLGCBalanced</text>
</a>
</g>
</g>
<!-- Node55&#45;&gt;Node83 -->
<g id="edge31" class="edge">
<title>Node55&#45;&gt;Node83</title>
<path fill="none" stroke="midnightblue" d="M217.97,-636.23C220.5,-547.16 235.31,-184.01 310,-105 313.6,-101.2 317.78,-98.08 322.32,-95.53"/>
<polygon fill="midnightblue" stroke="midnightblue" points="214.47,-636.23 217.7,-646.32 221.47,-636.41 214.47,-636.23"/>
</g>
<!-- Node84 -->
<g id="node33" class="node">
<title>Node84</title>
<g id="a_node33"><a xlink:href="classSignalIntegrity_1_1Lib_1_1SParameters_1_1Devices_1_1TLineDifferentialRLGCUncoupled_1_1TLineDifferentialRLGCUncoupled.xhtml" target="_top" xlink:title="s&#45;parameters of analytic uncoupled differential RLGC (telegrapher&#39;s) transmission line.">
<polygon fill="white" stroke="black" points="314,-38.5 314,-57.5 476,-57.5 476,-38.5 314,-38.5"/>
<text text-anchor="middle" x="395" y="-45.5" font-family="Helvetica,sans-Serif" font-size="10.00">TLineDifferentialRLGCUncoupled</text>
</a>
</g>
</g>
<!-- Node55&#45;&gt;Node84 -->
<g id="edge32" class="edge">
<title>Node55&#45;&gt;Node84</title>
<path fill="none" stroke="midnightblue" d="M217.74,-636.06C219.27,-542.97 230.41,-152.08 310,-67 313.47,-63.29 317.5,-60.23 321.89,-57.71"/>
<polygon fill="midnightblue" stroke="midnightblue" points="214.24,-636.06 217.59,-646.11 221.24,-636.16 214.24,-636.06"/>
</g>
<!-- Node85 -->
<g id="node34" class="node">
<title>Node85</title>
<g id="a_node34"><a xlink:href="classSignalIntegrity_1_1Lib_1_1SParameters_1_1Devices_1_1TLineLossless_1_1TLineLossless.xhtml" target="_top" xlink:title="s&#45;parameters of ideal lossless single&#45;ended transmission line">
<polygon fill="white" stroke="black" points="355,-0.5 355,-19.5 435,-19.5 435,-0.5 355,-0.5"/>
<text text-anchor="middle" x="395" y="-7.5" font-family="Helvetica,sans-Serif" font-size="10.00">TLineLossless</text>
</a>
</g>
</g>
<!-- Node55&#45;&gt;Node85 -->
<g id="edge33" class="edge">
<title>Node55&#45;&gt;Node85</title>
<path fill="none" stroke="midnightblue" d="M217.53,-636.33C218.08,-540.15 225.37,-120.32 310,-29 321.38,-16.72 338.88,-11.55 354.97,-9.61"/>
<polygon fill="midnightblue" stroke="midnightblue" points="214.03,-636.4 217.49,-646.41 221.03,-636.42 214.03,-636.4"/>
</g>
<!-- Node86 -->
<g id="node35" class="node">
<title>Node86</title>
<g id="a_node35"><a xlink:href="classSignalIntegrity_1_1Lib_1_1SParameters_1_1Devices_1_1TLineLossy_1_1TLineLossy.xhtml" target="_top" xlink:title="s&#45;parameters of ideal lossy single&#45;ended transmission line">
<polygon fill="white" stroke="black" points="361.5,-1216.5 361.5,-1235.5 428.5,-1235.5 428.5,-1216.5 361.5,-1216.5"/>
<text text-anchor="middle" x="395" y="-1223.5" font-family="Helvetica,sans-Serif" font-size="10.00">TLineLossy</text>
</a>
</g>
</g>
<!-- Node55&#45;&gt;Node86 -->
<g id="edge34" class="edge">
<title>Node55&#45;&gt;Node86</title>
<path fill="none" stroke="midnightblue" d="M217.97,-675.77C220.5,-764.84 235.31,-1127.99 310,-1207 323.05,-1220.8 343.82,-1225.58 361.45,-1226.9"/>
<polygon fill="midnightblue" stroke="midnightblue" points="221.47,-675.59 217.7,-665.68 214.47,-675.77 221.47,-675.59"/>
</g>
<!-- Node87 -->
<g id="node36" class="node">
<title>Node87</title>
<g id="a_node36"><a xlink:href="classSignalIntegrity_1_1Lib_1_1SParameters_1_1Devices_1_1TLineTwoPortRLGC_1_1TLineTwoPortRLGC.xhtml" target="_top" xlink:title="s&#45;parameters of single&#45;ended RLGC (telegraphers) transmission line">
<polygon fill="white" stroke="black" points="343,-1178.5 343,-1197.5 447,-1197.5 447,-1178.5 343,-1178.5"/>
<text text-anchor="middle" x="395" y="-1185.5" font-family="Helvetica,sans-Serif" font-size="10.00">TLineTwoPortRLGC</text>
</a>
</g>
</g>
<!-- Node55&#45;&gt;Node87 -->
<g id="edge35" class="edge">
<title>Node55&#45;&gt;Node87</title>
<path fill="none" stroke="midnightblue" d="M218.25,-676.02C221.86,-761.66 240.31,-1096.17 310,-1169 318.68,-1178.07 330.71,-1183.24 342.96,-1186.08"/>
<polygon fill="midnightblue" stroke="midnightblue" points="221.74,-675.69 217.84,-665.83 214.74,-675.97 221.74,-675.69"/>
</g>
<!-- Node88 -->
<g id="node37" class="node">
<title>Node88</title>
<g id="a_node37"><a xlink:href="classSignalIntegrity_1_1Lib_1_1SParameters_1_1Devices_1_1TLineTwoPortRLGCAnalytic_1_1TLineTwoPortRLGCAnalytic.xhtml" target="_top" xlink:title="s&#45;parameters of analytic single&#45;ended telegraphers transmission line">
<polygon fill="white" stroke="black" points="325,-1140.5 325,-1159.5 465,-1159.5 465,-1140.5 325,-1140.5"/>
<text text-anchor="middle" x="395" y="-1147.5" font-family="Helvetica,sans-Serif" font-size="10.00">TLineTwoPortRLGCAnalytic</text>
</a>
</g>
</g>
<!-- Node55&#45;&gt;Node88 -->
<g id="edge36" class="edge">
<title>Node55&#45;&gt;Node88</title>
<path fill="none" stroke="midnightblue" d="M218.55,-675.81C223.27,-757.12 245.18,-1064.19 310,-1131 314.27,-1135.4 319.33,-1138.88 324.81,-1141.62"/>
<polygon fill="midnightblue" stroke="midnightblue" points="222.03,-675.29 217.98,-665.5 215.04,-675.68 222.03,-675.29"/>
</g>
<!-- Node89 -->
<g id="node38" class="node">
<title>Node89</title>
<g id="a_node38"><a xlink:href="classSignalIntegrity_1_1Lib_1_1SParameters_1_1Devices_1_1TLineTwoPortRLGCApproximate_1_1TLineTwoPortRLGCApproximate.xhtml" target="_top" xlink:title="s&#45;parameters of two port RLGC (telegrapher&#39;s) transmission line calculated by approximating distribut...">
<polygon fill="white" stroke="black" points="315.5,-1102.5 315.5,-1121.5 474.5,-1121.5 474.5,-1102.5 315.5,-1102.5"/>
<text text-anchor="middle" x="395" y="-1109.5" font-family="Helvetica,sans-Serif" font-size="10.00">TLineTwoPortRLGCApproximate</text>
</a>
</g>
</g>
<!-- Node55&#45;&gt;Node89 -->
<g id="edge37" class="edge">
<title>Node55&#45;&gt;Node89</title>
<path fill="none" stroke="midnightblue" d="M218.94,-676.19C224.9,-753.89 250.18,-1032.34 310,-1093 313.67,-1096.73 317.91,-1099.79 322.5,-1102.3"/>
<polygon fill="midnightblue" stroke="midnightblue" points="222.41,-675.58 218.17,-665.86 215.43,-676.1 222.41,-675.58"/>
</g>
<!-- Node90 -->
<g id="node39" class="node">
<title>Node90</title>
<g id="a_node39"><a xlink:href="classSignalIntegrity_1_1Lib_1_1SParameters_1_1Devices_1_1WElement_1_1WElement.xhtml" target="_top" xlink:title="s&#45;parameters of of a W element is calculated by approximating distributed parameters with a finite nu...">
<polygon fill="white" stroke="black" points="364,-1064.5 364,-1083.5 426,-1083.5 426,-1064.5 364,-1064.5"/>
<text text-anchor="middle" x="395" y="-1071.5" font-family="Helvetica,sans-Serif" font-size="10.00">WElement</text>
</a>
</g>
</g>
<!-- Node55&#45;&gt;Node90 -->
<g id="edge38" class="edge">
<title>Node55&#45;&gt;Node90</title>
<path fill="none" stroke="midnightblue" d="M219.35,-675.83C226.53,-748.7 254.97,-1000.26 310,-1055 323.99,-1068.92 345.89,-1073.53 363.82,-1074.74"/>
<polygon fill="midnightblue" stroke="midnightblue" points="222.81,-675.35 218.37,-665.73 215.85,-676.02 222.81,-675.35"/>
</g>
<!-- Node92 -->
<g id="node41" class="node">
<title>Node92</title>
<g id="a_node41"><a xlink:href="classSignalIntegrity_1_1Lib_1_1SParameters_1_1SParameterFile_1_1SParameterFile.xhtml" target="_top" xlink:title="class for s&#45;parameters read from a file">
<polygon fill="white" stroke="black" points="353,-1026.5 353,-1045.5 437,-1045.5 437,-1026.5 353,-1026.5"/>
<text text-anchor="middle" x="395" y="-1033.5" font-family="Helvetica,sans-Serif" font-size="10.00">SParameterFile</text>
</a>
</g>
</g>
<!-- Node55&#45;&gt;Node92 -->
<g id="edge40" class="edge">
<title>Node55&#45;&gt;Node92</title>
<path fill="none" stroke="midnightblue" d="M219.9,-676.12C228.49,-744.77 259.89,-968.3 310,-1017 321.36,-1028.05 337.72,-1033.2 352.98,-1035.45"/>
<polygon fill="midnightblue" stroke="midnightblue" points="223.33,-675.32 218.64,-665.82 216.38,-676.17 223.33,-675.32"/>
</g>
<!-- Node61 -->
<g id="node8" class="node">
<title>Node61</title>
<g id="a_node8"><a xlink:href="classSignalIntegrity_1_1Lib_1_1Measurement_1_1CalKit_1_1Standards_1_1ThruStandard_1_1ThruStandard.xhtml" target="_top" xlink:title="Class providing the s&#45;parameters of a thru standard as commonly defined for a calibration kit.">
<polygon fill="white" stroke="black" points="543,-836.5 543,-855.5 618,-855.5 618,-836.5 543,-836.5"/>
<text text-anchor="middle" x="580.5" y="-843.5" font-family="Helvetica,sans-Serif" font-size="10.00">ThruStandard</text>
</a>
</g>
</g>
<!-- Node60&#45;&gt;Node61 -->
<g id="edge7" class="edge">
<title>Node60&#45;&gt;Node61</title>
<path fill="none" stroke="midnightblue" d="M427.18,-846C459.21,-846 509.04,-846 542.91,-846"/>
<polygon fill="midnightblue" stroke="midnightblue" points="427.05,-842.5 417.05,-846 427.05,-849.5 427.05,-842.5"/>
</g>
<!-- Node66 -->
<g id="node15" class="node">
<title>Node66</title>
<g id="a_node15"><a xlink:href="classSignalIntegrity_1_1Lib_1_1SParameters_1_1Devices_1_1ClassicalFilter_1_1BesselLowPassFilter.xhtml" target="_top" xlink:title="Bessel low pass filter.">
<polygon fill="white" stroke="black" points="526,-665.5 526,-684.5 635,-684.5 635,-665.5 526,-665.5"/>
<text text-anchor="middle" x="580.5" y="-672.5" font-family="Helvetica,sans-Serif" font-size="10.00">BesselLowPassFilter</text>
</a>
</g>
</g>
<!-- Node65&#45;&gt;Node66 -->
<g id="edge14" class="edge">
<title>Node65&#45;&gt;Node66</title>
<path fill="none" stroke="midnightblue" d="M444.87,-688.94C469.77,-686.36 500.11,-683.22 525.68,-680.57"/>
<polygon fill="midnightblue" stroke="midnightblue" points="444.5,-685.46 434.92,-689.97 445.22,-692.42 444.5,-685.46"/>
</g>
<!-- Node67 -->
<g id="node16" class="node">
<title>Node67</title>
<g id="a_node16"><a xlink:href="classSignalIntegrity_1_1Lib_1_1SParameters_1_1Devices_1_1ClassicalFilter_1_1ButterworthLowPassFilter.xhtml" target="_top" xlink:title="Butterworth Low pass filter.">
<polygon fill="white" stroke="black" points="516,-703.5 516,-722.5 645,-722.5 645,-703.5 516,-703.5"/>
<text text-anchor="middle" x="580.5" y="-710.5" font-family="Helvetica,sans-Serif" font-size="10.00">ButterworthLowPassFilter</text>
</a>
</g>
</g>
<!-- Node65&#45;&gt;Node67 -->
<g id="edge15" class="edge">
<title>Node65&#45;&gt;Node67</title>
<path fill="none" stroke="midnightblue" d="M444.9,-699.06C466.64,-701.31 492.51,-703.99 515.73,-706.4"/>
<polygon fill="midnightblue" stroke="midnightblue" points="445.22,-695.58 434.92,-698.03 444.5,-702.54 445.22,-695.58"/>
</g>
<!-- Node91 -->
<g id="node40" class="node">
<title>Node91</title>
<g id="a_node40"><a xlink:href="classSignalIntegrity_1_1Lib_1_1SParameters_1_1Devices_1_1WElement_1_1WElementFile.xhtml" target="_top" xlink:title="W element file.">
<polygon fill="white" stroke="black" points="541.5,-1064.5 541.5,-1083.5 619.5,-1083.5 619.5,-1064.5 541.5,-1064.5"/>
<text text-anchor="middle" x="580.5" y="-1071.5" font-family="Helvetica,sans-Serif" font-size="10.00">WElementFile</text>
</a>
</g>
</g>
<!-- Node90&#45;&gt;Node91 -->
<g id="edge39" class="edge">
<title>Node90&#45;&gt;Node91</title>
<path fill="none" stroke="midnightblue" d="M436.4,-1074C467.61,-1074 510.51,-1074 541.18,-1074"/>
<polygon fill="midnightblue" stroke="midnightblue" points="436.3,-1070.5 426.3,-1074 436.3,-1077.5 436.3,-1070.5"/>
</g>
<!-- Node0 -->
<g id="node42" class="node">
<title>Node0</title>
<g id="a_node42"><a xlink:href="classSignalIntegrity_1_1Lib_1_1Measurement_1_1CalKit_1_1Standards_1_1TerminationPolynomial_1_1TerminationPolynomial.xhtml" target="_top" xlink:title="Base class for terminations for calibration standards.">
<polygon fill="white" stroke="black" points="159,-1273.5 159,-1292.5 274,-1292.5 274,-1273.5 159,-1273.5"/>
<text text-anchor="middle" x="216.5" y="-1280.5" font-family="Helvetica,sans-Serif" font-size="10.00">TerminationPolynomial</text>
</a>
</g>
</g>
<!-- Node0&#45;&gt;Node1 -->
<g id="edge41" class="edge">
<title>Node0&#45;&gt;Node1</title>
<path fill="none" stroke="midnightblue" d="M284.32,-1275.81C300.62,-1274.05 317.97,-1272.18 333.94,-1270.47"/>
<polygon fill="midnightblue" stroke="midnightblue" points="283.89,-1272.33 274.32,-1276.88 284.63,-1279.29 283.89,-1272.33"/>
</g>
<!-- Node0&#45;&gt;Node2 -->
<g id="edge42" class="edge">
<title>Node0&#45;&gt;Node2</title>
<path fill="none" stroke="midnightblue" d="M284.48,-1290.21C301.05,-1291.99 318.69,-1293.89 334.86,-1295.63"/>
<polygon fill="midnightblue" stroke="midnightblue" points="284.63,-1286.71 274.32,-1289.12 283.89,-1293.67 284.63,-1286.71"/>
</g>
</g>
</svg>
