<?xml version="1.0" encoding="UTF-8" standalone="no"?>
<!DOCTYPE svg PUBLIC "-//W3C//DTD SVG 1.1//EN"
 "http://www.w3.org/Graphics/SVG/1.1/DTD/svg11.dtd">
<!-- Generated by graphviz version 2.40.1 (20161225.0304)
 -->
<!-- Title: Graphical Class Hierarchy Pages: 1 -->
<svg width="212pt" height="180pt"
 viewBox="0.00 0.00 212.00 180.00" xmlns="http://www.w3.org/2000/svg" xmlns:xlink="http://www.w3.org/1999/xlink">
<g id="graph0" class="graph" transform="scale(1 1) rotate(0) translate(4 176)">
<title>Graphical Class Hierarchy</title>
<polygon fill="#ffffff" stroke="transparent" points="-4,4 -4,-176 208,-176 208,4 -4,4"/>
<!-- Node0 -->
<g id="node1" class="node">
<title>Node0</title>
<g id="a_node1"><a xlink:href="classSignalIntegrity_1_1Wavelets_1_1Wavelets_1_1Wavelet.xhtml" target="_top" xlink:title="base class that performs forward and inverse wavelet transforms ">
<polygon fill="#ffffff" stroke="#000000" points="0,-76.5 0,-95.5 53,-95.5 53,-76.5 0,-76.5"/>
<text text-anchor="middle" x="26.5" y="-83.5" font-family="Helvetica,sans-Serif" font-size="10.00" fill="#000000">Wavelet</text>
</a>
</g>
</g>
<!-- Node1 -->
<g id="node2" class="node">
<title>Node1</title>
<g id="a_node2"><a xlink:href="classSignalIntegrity_1_1Wavelets_1_1Wavelets_1_1WaveletDaubechies14.xhtml" target="_top" xlink:title="14 tap Daubechies wavelet transformer ">
<polygon fill="#ffffff" stroke="#000000" points="89,-152.5 89,-171.5 204,-171.5 204,-152.5 89,-152.5"/>
<text text-anchor="middle" x="146.5" y="-159.5" font-family="Helvetica,sans-Serif" font-size="10.00" fill="#000000">WaveletDaubechies14</text>
</a>
</g>
</g>
<!-- Node0&#45;&gt;Node1 -->
<g id="edge1" class="edge">
<title>Node0&#45;&gt;Node1</title>
<path fill="none" stroke="#191970" d="M41.7523,-103.3853C53.5602,-115.9153 70.9067,-132.4165 89,-143 95.4432,-146.7689 102.7354,-149.9087 109.9099,-152.4785"/>
<polygon fill="#191970" stroke="#191970" points="44.1718,-100.8447 34.8405,-95.8269 39.006,-105.5686 44.1718,-100.8447"/>
</g>
<!-- Node2 -->
<g id="node3" class="node">
<title>Node2</title>
<g id="a_node3"><a xlink:href="classSignalIntegrity_1_1Wavelets_1_1Wavelets_1_1WaveletDaubechies16.xhtml" target="_top" xlink:title="16 tap Daubechies wavelet transformer ">
<polygon fill="#ffffff" stroke="#000000" points="89,-114.5 89,-133.5 204,-133.5 204,-114.5 89,-114.5"/>
<text text-anchor="middle" x="146.5" y="-121.5" font-family="Helvetica,sans-Serif" font-size="10.00" fill="#000000">WaveletDaubechies16</text>
</a>
</g>
</g>
<!-- Node0&#45;&gt;Node2 -->
<g id="edge2" class="edge">
<title>Node0&#45;&gt;Node2</title>
<path fill="none" stroke="#191970" d="M62.7645,-97.4837C79.8114,-102.8819 99.9058,-109.2452 116.1366,-114.3849"/>
<polygon fill="#191970" stroke="#191970" points="63.722,-94.1157 53.1319,-94.4334 61.6087,-100.7891 63.722,-94.1157"/>
</g>
<!-- Node3 -->
<g id="node4" class="node">
<title>Node3</title>
<g id="a_node4"><a xlink:href="classSignalIntegrity_1_1Wavelets_1_1Wavelets_1_1WaveletDaubechies4.xhtml" target="_top" xlink:title="4 tap Daubechies wavelet transformer ">
<polygon fill="#ffffff" stroke="#000000" points="91.5,-76.5 91.5,-95.5 201.5,-95.5 201.5,-76.5 91.5,-76.5"/>
<text text-anchor="middle" x="146.5" y="-83.5" font-family="Helvetica,sans-Serif" font-size="10.00" fill="#000000">WaveletDaubechies4</text>
</a>
</g>
</g>
<!-- Node0&#45;&gt;Node3 -->
<g id="edge3" class="edge">
<title>Node0&#45;&gt;Node3</title>
<path fill="none" stroke="#191970" d="M63.1793,-86C72.1077,-86 81.8521,-86 91.4279,-86"/>
<polygon fill="#191970" stroke="#191970" points="63.1319,-82.5001 53.1319,-86 63.1319,-89.5001 63.1319,-82.5001"/>
</g>
<!-- Node4 -->
<g id="node5" class="node">
<title>Node4</title>
<g id="a_node5"><a xlink:href="classSignalIntegrity_1_1Wavelets_1_1Wavelets_1_1WaveletDaubechies8.xhtml" target="_top" xlink:title="8 tap Daubechies wavelet transformer ">
<polygon fill="#ffffff" stroke="#000000" points="91.5,-38.5 91.5,-57.5 201.5,-57.5 201.5,-38.5 91.5,-38.5"/>
<text text-anchor="middle" x="146.5" y="-45.5" font-family="Helvetica,sans-Serif" font-size="10.00" fill="#000000">WaveletDaubechies8</text>
</a>
</g>
</g>
<!-- Node0&#45;&gt;Node4 -->
<g id="edge4" class="edge">
<title>Node0&#45;&gt;Node4</title>
<path fill="none" stroke="#191970" d="M62.7645,-74.5163C79.8114,-69.1181 99.9058,-62.7548 116.1366,-57.6151"/>
<polygon fill="#191970" stroke="#191970" points="61.6087,-71.2109 53.1319,-77.5666 63.722,-77.8843 61.6087,-71.2109"/>
</g>
<!-- Node5 -->
<g id="node6" class="node">
<title>Node5</title>
<g id="a_node6"><a xlink:href="classSignalIntegrity_1_1Wavelets_1_1Wavelets_1_1WaveletHaar.xhtml" target="_top" xlink:title="2 tap Haar wavelet transformer ">
<polygon fill="#ffffff" stroke="#000000" points="109.5,-.5 109.5,-19.5 183.5,-19.5 183.5,-.5 109.5,-.5"/>
<text text-anchor="middle" x="146.5" y="-7.5" font-family="Helvetica,sans-Serif" font-size="10.00" fill="#000000">WaveletHaar</text>
</a>
</g>
</g>
<!-- Node0&#45;&gt;Node5 -->
<g id="edge5" class="edge">
<title>Node0&#45;&gt;Node5</title>
<path fill="none" stroke="#191970" d="M41.7523,-68.6147C53.5602,-56.0847 70.9067,-39.5835 89,-29 95.4432,-25.2311 102.7354,-22.0913 109.9099,-19.5215"/>
<polygon fill="#191970" stroke="#191970" points="39.006,-66.4314 34.8405,-76.1731 44.1718,-71.1553 39.006,-66.4314"/>
</g>
</g>
</svg>
