<?xml version="1.0" encoding="UTF-8" standalone="no"?>
<!DOCTYPE svg PUBLIC "-//W3C//DTD SVG 1.1//EN"
 "http://www.w3.org/Graphics/SVG/1.1/DTD/svg11.dtd">
<!-- Generated by graphviz version 2.43.0 (0)
 -->
<!-- Title: Graphical Class Hierarchy Pages: 1 -->
<svg width="452pt" height="256pt"
 viewBox="0.00 0.00 452.00 256.00" xmlns="http://www.w3.org/2000/svg" xmlns:xlink="http://www.w3.org/1999/xlink">
<g id="graph0" class="graph" transform="scale(1 1) rotate(0) translate(4 252)">
<title>Graphical Class Hierarchy</title>
<polygon fill="white" stroke="transparent" points="-4,4 -4,-252 448,-252 448,4 -4,4"/>
<!-- Node137 -->
<g id="node1" class="node">
<title>Node137</title>
<g id="a_node1"><a xlink:href="classSignalIntegrity_1_1Lib_1_1TimeDomain_1_1Filters_1_1FilterDescriptor_1_1FilterDescriptor.xhtml" target="_top" xlink:title="FilterDescriptor.py.">
<polygon fill="white" stroke="black" points="11,-171.5 11,-190.5 94,-190.5 94,-171.5 11,-171.5"/>
<text text-anchor="middle" x="52.5" y="-178.5" font-family="Helvetica,sans-Serif" font-size="10.00">FilterDescriptor</text>
</a>
</g>
</g>
<!-- Node11 -->
<g id="node2" class="node">
<title>Node11</title>
<g id="a_node2"><a xlink:href="classSignalIntegrity_1_1Lib_1_1TimeDomain_1_1Filters_1_1WaveformDecimator_1_1WaveformDecimator.xhtml" target="_top" xlink:title="decimates waveforms">
<polygon fill="white" stroke="black" points="155,-152.5 155,-171.5 261,-171.5 261,-152.5 155,-152.5"/>
<text text-anchor="middle" x="208" y="-159.5" font-family="Helvetica,sans-Serif" font-size="10.00">WaveformDecimator</text>
</a>
</g>
</g>
<!-- Node137&#45;&gt;Node11 -->
<g id="edge1" class="edge">
<title>Node137&#45;&gt;Node11</title>
<path fill="none" stroke="midnightblue" d="M104.56,-174.68C120.69,-172.68 138.55,-170.47 154.77,-168.47"/>
<polygon fill="midnightblue" stroke="midnightblue" points="103.73,-171.26 94.23,-175.96 104.59,-178.2 103.73,-171.26"/>
</g>
<!-- Node12 -->
<g id="node3" class="node">
<title>Node12</title>
<g id="a_node3"><a xlink:href="classSignalIntegrity_1_1Lib_1_1TimeDomain_1_1Filters_1_1WaveformTrimmer_1_1WaveformTrimmer.xhtml" target="_top" xlink:title="trims waveforms">
<polygon fill="white" stroke="black" points="159.5,-190.5 159.5,-209.5 256.5,-209.5 256.5,-190.5 159.5,-190.5"/>
<text text-anchor="middle" x="208" y="-197.5" font-family="Helvetica,sans-Serif" font-size="10.00">WaveformTrimmer</text>
</a>
</g>
</g>
<!-- Node137&#45;&gt;Node12 -->
<g id="edge2" class="edge">
<title>Node137&#45;&gt;Node12</title>
<path fill="none" stroke="midnightblue" d="M104.37,-187.3C122.07,-189.49 141.83,-191.93 159.26,-194.09"/>
<polygon fill="midnightblue" stroke="midnightblue" points="104.59,-183.8 94.23,-186.04 103.73,-190.74 104.59,-183.8"/>
</g>
<!-- Node0 -->
<g id="node4" class="node">
<title>Node0</title>
<g id="a_node4"><a xlink:href="classSignalIntegrity_1_1Lib_1_1TimeDomain_1_1Filters_1_1WaveformProcessor_1_1WaveformProcessor.xhtml" target="_top" xlink:title="WaveformProcessor.py.">
<polygon fill="white" stroke="black" points="0,-114.5 0,-133.5 105,-133.5 105,-114.5 0,-114.5"/>
<text text-anchor="middle" x="52.5" y="-121.5" font-family="Helvetica,sans-Serif" font-size="10.00">WaveformProcessor</text>
</a>
</g>
</g>
<!-- Node0&#45;&gt;Node11 -->
<g id="edge13" class="edge">
<title>Node0&#45;&gt;Node11</title>
<path fill="none" stroke="midnightblue" d="M102.14,-136.04C123.58,-141.35 148.42,-147.5 168.54,-152.48"/>
<polygon fill="midnightblue" stroke="midnightblue" points="102.78,-132.59 92.23,-133.59 101.1,-139.39 102.78,-132.59"/>
</g>
<!-- Node0&#45;&gt;Node12 -->
<g id="edge14" class="edge">
<title>Node0&#45;&gt;Node12</title>
<path fill="none" stroke="midnightblue" d="M73.7,-139.66C90.81,-152.3 116.43,-169.77 141,-181 149.02,-184.67 157.92,-187.8 166.52,-190.41"/>
<polygon fill="midnightblue" stroke="midnightblue" points="75.67,-136.76 65.57,-133.55 71.46,-142.35 75.67,-136.76"/>
</g>
<!-- Node1 -->
<g id="node5" class="node">
<title>Node1</title>
<g id="a_node5"><a xlink:href="classSignalIntegrity_1_1Lib_1_1TimeDomain_1_1Filters_1_1FirFilter_1_1FirFilter.xhtml" target="_top" xlink:title="base filter class for all FIR filters">
<polygon fill="white" stroke="black" points="183,-114.5 183,-133.5 233,-133.5 233,-114.5 183,-114.5"/>
<text text-anchor="middle" x="208" y="-121.5" font-family="Helvetica,sans-Serif" font-size="10.00">FirFilter</text>
</a>
</g>
</g>
<!-- Node0&#45;&gt;Node1 -->
<g id="edge3" class="edge">
<title>Node0&#45;&gt;Node1</title>
<path fill="none" stroke="midnightblue" d="M115.08,-124C138.87,-124 164.69,-124 182.89,-124"/>
<polygon fill="midnightblue" stroke="midnightblue" points="115.04,-120.5 105.04,-124 115.04,-127.5 115.04,-120.5"/>
</g>
<!-- Node9 -->
<g id="node13" class="node">
<title>Node9</title>
<g id="a_node13"><a xlink:href="classSignalIntegrity_1_1Lib_1_1TimeDomain_1_1Filters_1_1InterpolatorLinear_1_1InterpolatorFractionalDelayFilterLinear.xhtml" target="_top" xlink:title="combination linear fractional delay and interpolating filter">
<polygon fill="white" stroke="black" points="141,-65 141,-95 275,-95 275,-65 141,-65"/>
<text text-anchor="start" x="149" y="-83" font-family="Helvetica,sans-Serif" font-size="10.00">InterpolatorFractionalDelay</text>
<text text-anchor="middle" x="208" y="-72" font-family="Helvetica,sans-Serif" font-size="10.00">FilterLinear</text>
</a>
</g>
</g>
<!-- Node0&#45;&gt;Node9 -->
<g id="edge11" class="edge">
<title>Node0&#45;&gt;Node9</title>
<path fill="none" stroke="midnightblue" d="M96.45,-111.69C114.44,-106.53 135.53,-100.49 154.44,-95.07"/>
<polygon fill="midnightblue" stroke="midnightblue" points="95.46,-108.33 86.81,-114.45 97.38,-115.06 95.46,-108.33"/>
</g>
<!-- Node10 -->
<g id="node14" class="node">
<title>Node10</title>
<g id="a_node14"><a xlink:href="classSignalIntegrity_1_1Lib_1_1TimeDomain_1_1Filters_1_1InterpolatorSinX_1_1InterpolatorFractionalDelayFilterSinX.xhtml" target="_top" xlink:title="combination sinx/x fractional delay and interpolating filter">
<polygon fill="white" stroke="black" points="141,-16 141,-46 275,-46 275,-16 141,-16"/>
<text text-anchor="start" x="149" y="-34" font-family="Helvetica,sans-Serif" font-size="10.00">InterpolatorFractionalDelay</text>
<text text-anchor="middle" x="208" y="-23" font-family="Helvetica,sans-Serif" font-size="10.00">FilterSinX</text>
</a>
</g>
</g>
<!-- Node0&#45;&gt;Node10 -->
<g id="edge12" class="edge">
<title>Node0&#45;&gt;Node10</title>
<path fill="none" stroke="midnightblue" d="M71.29,-107.57C88.22,-92.6 114.9,-70.64 141,-56 147.52,-52.34 154.68,-49.01 161.8,-46.05"/>
<polygon fill="midnightblue" stroke="midnightblue" points="68.9,-105.01 63.81,-114.3 73.59,-110.21 68.9,-105.01"/>
</g>
<!-- Node2 -->
<g id="node6" class="node">
<title>Node2</title>
<g id="a_node6"><a xlink:href="classSignalIntegrity_1_1Lib_1_1TimeDomain_1_1Filters_1_1InterpolatorLinear_1_1FractionalDelayFilterLinear.xhtml" target="_top" xlink:title="linear fractional delay filter">
<polygon fill="white" stroke="black" points="311,-228.5 311,-247.5 444,-247.5 444,-228.5 311,-228.5"/>
<text text-anchor="middle" x="377.5" y="-235.5" font-family="Helvetica,sans-Serif" font-size="10.00">FractionalDelayFilterLinear</text>
</a>
</g>
</g>
<!-- Node1&#45;&gt;Node2 -->
<g id="edge4" class="edge">
<title>Node1&#45;&gt;Node2</title>
<path fill="none" stroke="midnightblue" d="M243.21,-128.13C254.34,-130.88 266.1,-135.43 275,-143 303.48,-167.2 282.54,-194.77 311,-219 315.6,-222.91 320.96,-226.02 326.61,-228.49"/>
<polygon fill="midnightblue" stroke="midnightblue" points="243.78,-124.67 233.28,-126.09 242.37,-131.53 243.78,-124.67"/>
</g>
<!-- Node3 -->
<g id="node7" class="node">
<title>Node3</title>
<g id="a_node7"><a xlink:href="classSignalIntegrity_1_1Lib_1_1TimeDomain_1_1Filters_1_1InterpolatorLinear_1_1InterpolatorLinear.xhtml" target="_top" xlink:title="linear interpolating filter">
<polygon fill="white" stroke="black" points="331.5,-190.5 331.5,-209.5 423.5,-209.5 423.5,-190.5 331.5,-190.5"/>
<text text-anchor="middle" x="377.5" y="-197.5" font-family="Helvetica,sans-Serif" font-size="10.00">InterpolatorLinear</text>
</a>
</g>
</g>
<!-- Node1&#45;&gt;Node3 -->
<g id="edge5" class="edge">
<title>Node1&#45;&gt;Node3</title>
<path fill="none" stroke="midnightblue" d="M243.09,-130.13C253.8,-133 265.35,-137.13 275,-143 294.88,-155.09 291.13,-168.89 311,-181 317.27,-184.82 324.34,-187.91 331.46,-190.39"/>
<polygon fill="midnightblue" stroke="midnightblue" points="243.7,-126.68 233.16,-127.75 242.06,-133.49 243.7,-126.68"/>
</g>
<!-- Node4 -->
<g id="node8" class="node">
<title>Node4</title>
<g id="a_node8"><a xlink:href="classSignalIntegrity_1_1Lib_1_1TimeDomain_1_1Filters_1_1InterpolatorSinX_1_1FractionalDelayFilterSinX.xhtml" target="_top" xlink:title="sinx/x fractional delay filter">
<polygon fill="white" stroke="black" points="313.5,-152.5 313.5,-171.5 441.5,-171.5 441.5,-152.5 313.5,-152.5"/>
<text text-anchor="middle" x="377.5" y="-159.5" font-family="Helvetica,sans-Serif" font-size="10.00">FractionalDelayFilterSinX</text>
</a>
</g>
</g>
<!-- Node1&#45;&gt;Node4 -->
<g id="edge6" class="edge">
<title>Node1&#45;&gt;Node4</title>
<path fill="none" stroke="midnightblue" d="M243.3,-131.78C269.74,-137.78 306.42,-146.1 334.6,-152.49"/>
<polygon fill="midnightblue" stroke="midnightblue" points="243.88,-128.32 233.36,-129.53 242.33,-135.15 243.88,-128.32"/>
</g>
<!-- Node5 -->
<g id="node9" class="node">
<title>Node5</title>
<g id="a_node9"><a xlink:href="classSignalIntegrity_1_1Lib_1_1TimeDomain_1_1Filters_1_1InterpolatorSinX_1_1InterpolatorSinX.xhtml" target="_top" xlink:title="sinx/x interpolating filter">
<polygon fill="white" stroke="black" points="334.5,-114.5 334.5,-133.5 420.5,-133.5 420.5,-114.5 334.5,-114.5"/>
<text text-anchor="middle" x="377.5" y="-121.5" font-family="Helvetica,sans-Serif" font-size="10.00">InterpolatorSinX</text>
</a>
</g>
</g>
<!-- Node1&#45;&gt;Node5 -->
<g id="edge7" class="edge">
<title>Node1&#45;&gt;Node5</title>
<path fill="none" stroke="midnightblue" d="M243.61,-124C269.93,-124 306.25,-124 334.27,-124"/>
<polygon fill="midnightblue" stroke="midnightblue" points="243.36,-120.5 233.36,-124 243.36,-127.5 243.36,-120.5"/>
</g>
<!-- Node6 -->
<g id="node10" class="node">
<title>Node6</title>
<g id="a_node10"><a xlink:href="classSignalIntegrity_1_1Lib_1_1TimeDomain_1_1Filters_1_1RaisedCosineFilter_1_1RaisedCosineFilter.xhtml" target="_top" xlink:title="raised cosine filter">
<polygon fill="white" stroke="black" points="327.5,-76.5 327.5,-95.5 427.5,-95.5 427.5,-76.5 327.5,-76.5"/>
<text text-anchor="middle" x="377.5" y="-83.5" font-family="Helvetica,sans-Serif" font-size="10.00">RaisedCosineFilter</text>
</a>
</g>
</g>
<!-- Node1&#45;&gt;Node6 -->
<g id="edge8" class="edge">
<title>Node1&#45;&gt;Node6</title>
<path fill="none" stroke="midnightblue" d="M243.3,-116.22C269.74,-110.22 306.42,-101.9 334.6,-95.51"/>
<polygon fill="midnightblue" stroke="midnightblue" points="242.33,-112.85 233.36,-118.47 243.88,-119.68 242.33,-112.85"/>
</g>
<!-- Node7 -->
<g id="node11" class="node">
<title>Node7</title>
<g id="a_node11"><a xlink:href="classSignalIntegrity_1_1Lib_1_1TimeDomain_1_1Filters_1_1Risetime_1_1Gaussian_1_1Gaussian.xhtml" target="_top" xlink:title=" ">
<polygon fill="white" stroke="black" points="348.5,-38.5 348.5,-57.5 406.5,-57.5 406.5,-38.5 348.5,-38.5"/>
<text text-anchor="middle" x="377.5" y="-45.5" font-family="Helvetica,sans-Serif" font-size="10.00">Gaussian</text>
</a>
</g>
</g>
<!-- Node1&#45;&gt;Node7 -->
<g id="edge9" class="edge">
<title>Node1&#45;&gt;Node7</title>
<path fill="none" stroke="midnightblue" d="M243.09,-117.87C253.8,-115 265.35,-110.87 275,-105 294.88,-92.91 291.13,-79.11 311,-67 322.32,-60.1 336.28,-55.6 348.39,-52.72"/>
<polygon fill="midnightblue" stroke="midnightblue" points="242.06,-114.51 233.16,-120.25 243.7,-121.32 242.06,-114.51"/>
</g>
<!-- Node8 -->
<g id="node12" class="node">
<title>Node8</title>
<g id="a_node12"><a xlink:href="classSignalIntegrity_1_1Lib_1_1TimeDomain_1_1Filters_1_1Risetime_1_1RaisedCosine_1_1RaisedCosine.xhtml" target="_top" xlink:title=" ">
<polygon fill="white" stroke="black" points="338.5,-0.5 338.5,-19.5 416.5,-19.5 416.5,-0.5 338.5,-0.5"/>
<text text-anchor="middle" x="377.5" y="-7.5" font-family="Helvetica,sans-Serif" font-size="10.00">RaisedCosine</text>
</a>
</g>
</g>
<!-- Node1&#45;&gt;Node8 -->
<g id="edge10" class="edge">
<title>Node1&#45;&gt;Node8</title>
<path fill="none" stroke="midnightblue" d="M243.21,-119.87C254.34,-117.12 266.1,-112.57 275,-105 303.48,-80.8 282.54,-53.23 311,-29 318.75,-22.4 328.69,-18.09 338.47,-15.27"/>
<polygon fill="midnightblue" stroke="midnightblue" points="242.37,-116.47 233.28,-121.91 243.78,-123.33 242.37,-116.47"/>
</g>
</g>
</svg>
