<?xml version="1.0" encoding="UTF-8" standalone="no"?>
<!DOCTYPE svg PUBLIC "-//W3C//DTD SVG 1.1//EN"
 "http://www.w3.org/Graphics/SVG/1.1/DTD/svg11.dtd">
<!-- Generated by graphviz version 2.43.0 (0)
 -->
<!-- Title: Graphical Class Hierarchy Pages: 1 -->
<svg width="814pt" height="294pt"
 viewBox="0.00 0.00 814.00 294.00" xmlns="http://www.w3.org/2000/svg" xmlns:xlink="http://www.w3.org/1999/xlink">
<g id="graph0" class="graph" transform="scale(1 1) rotate(0) translate(4 290)">
<title>Graphical Class Hierarchy</title>
<polygon fill="white" stroke="transparent" points="-4,4 -4,-290 810,-290 810,4 -4,4"/>
<!-- Node99 -->
<g id="node1" class="node">
<title>Node99</title>
<g id="a_node1"><a xlink:href="classSignalIntegrity_1_1Lib_1_1SystemDescriptions_1_1Numeric_1_1Numeric.xhtml" target="_top" xlink:title="handles numeric details of derived class solutions">
<polygon fill="white" stroke="black" points="345,-67.5 345,-86.5 403,-86.5 403,-67.5 345,-67.5"/>
<text text-anchor="middle" x="374" y="-74.5" font-family="Helvetica,sans-Serif" font-size="10.00">Numeric</text>
</a>
</g>
</g>
<!-- Node3 -->
<g id="node2" class="node">
<title>Node3</title>
<g id="a_node2"><a xlink:href="classSignalIntegrity_1_1Lib_1_1SystemDescriptions_1_1DeembedderNumeric_1_1DeembedderNumeric.xhtml" target="_top" xlink:title=" ">
<polygon fill="white" stroke="black" points="507,-114.5 507,-133.5 628,-133.5 628,-114.5 507,-114.5"/>
<text text-anchor="middle" x="567.5" y="-121.5" font-family="Helvetica,sans-Serif" font-size="10.00">DeembedderNumeric</text>
</a>
</g>
</g>
<!-- Node99&#45;&gt;Node3 -->
<g id="edge1" class="edge">
<title>Node99&#45;&gt;Node3</title>
<path fill="none" stroke="midnightblue" d="M412.87,-86.57C434.56,-92.03 462.29,-98.96 487,-105 499.68,-108.1 513.52,-111.43 526.04,-114.42"/>
<polygon fill="midnightblue" stroke="midnightblue" points="413.61,-83.15 403.06,-84.1 411.9,-89.94 413.61,-83.15"/>
</g>
<!-- Node6 -->
<g id="node3" class="node">
<title>Node6</title>
<g id="a_node3"><a xlink:href="classSignalIntegrity_1_1Lib_1_1SystemDescriptions_1_1SimulatorNumeric_1_1SimulatorNumeric.xhtml" target="_top" xlink:title="class for performing numeric simulations">
<polygon fill="white" stroke="black" points="515,-76.5 515,-95.5 620,-95.5 620,-76.5 515,-76.5"/>
<text text-anchor="middle" x="567.5" y="-83.5" font-family="Helvetica,sans-Serif" font-size="10.00">SimulatorNumeric</text>
</a>
</g>
</g>
<!-- Node99&#45;&gt;Node6 -->
<g id="edge2" class="edge">
<title>Node99&#45;&gt;Node6</title>
<path fill="none" stroke="midnightblue" d="M413.43,-78.81C442.5,-80.17 482.73,-82.06 514.65,-83.56"/>
<polygon fill="midnightblue" stroke="midnightblue" points="413.41,-75.3 403.26,-78.33 413.08,-82.29 413.41,-75.3"/>
</g>
<!-- Node13 -->
<g id="node4" class="node">
<title>Node13</title>
<g id="a_node4"><a xlink:href="classSignalIntegrity_1_1Lib_1_1SystemDescriptions_1_1SystemSParametersNumeric_1_1SystemSParametersNumeric.xhtml" target="_top" xlink:title="Class for computing s&#45;parameters of interconnected systems.">
<polygon fill="white" stroke="black" points="489,-0.5 489,-19.5 646,-19.5 646,-0.5 489,-0.5"/>
<text text-anchor="middle" x="567.5" y="-7.5" font-family="Helvetica,sans-Serif" font-size="10.00">SystemSParametersNumeric</text>
</a>
</g>
</g>
<!-- Node99&#45;&gt;Node13 -->
<g id="edge3" class="edge">
<title>Node99&#45;&gt;Node13</title>
<path fill="none" stroke="midnightblue" d="M407.72,-63.71C429.93,-54.87 460.05,-43.23 487,-34 502,-28.86 518.79,-23.71 533.06,-19.5"/>
<polygon fill="midnightblue" stroke="midnightblue" points="406.4,-60.47 398.41,-67.43 409,-66.97 406.4,-60.47"/>
</g>
<!-- Node9 -->
<g id="node5" class="node">
<title>Node9</title>
<g id="a_node5"><a xlink:href="classSignalIntegrity_1_1Lib_1_1SystemDescriptions_1_1VirtualProbeNumeric_1_1VirtualProbeNumeric.xhtml" target="_top" xlink:title="class for performing virtual probing numerically.">
<polygon fill="white" stroke="black" points="686,-114.5 686,-133.5 804,-133.5 804,-114.5 686,-114.5"/>
<text text-anchor="middle" x="745" y="-121.5" font-family="Helvetica,sans-Serif" font-size="10.00">VirtualProbeNumeric</text>
</a>
</g>
</g>
<!-- Node99&#45;&gt;Node9 -->
<g id="edge4" class="edge">
<title>Node99&#45;&gt;Node9</title>
<path fill="none" stroke="midnightblue" d="M413.23,-68.5C466.79,-58.16 566.75,-44.7 648,-67 681.65,-76.24 715.44,-100.66 732.54,-114.35"/>
<polygon fill="midnightblue" stroke="midnightblue" points="412.27,-65.12 403.15,-70.51 413.64,-71.98 412.27,-65.12"/>
</g>
<!-- Node51 -->
<g id="node6" class="node">
<title>Node51</title>
<g id="a_node6"><a xlink:href="classSignalIntegrity_1_1Lib_1_1SystemDescriptions_1_1Symbolic_1_1Symbolic.xhtml" target="_top" xlink:title="base class for all symbolic solutions.">
<polygon fill="white" stroke="black" points="172,-247.5 172,-266.5 234,-266.5 234,-247.5 172,-247.5"/>
<text text-anchor="middle" x="203" y="-254.5" font-family="Helvetica,sans-Serif" font-size="10.00">Symbolic</text>
</a>
</g>
</g>
<!-- Node4 -->
<g id="node7" class="node">
<title>Node4</title>
<g id="a_node7"><a xlink:href="classSignalIntegrity_1_1Lib_1_1SystemDescriptions_1_1DeembedderSymbolic_1_1DeembedderSymbolic.xhtml" target="_top" xlink:title=" ">
<polygon fill="white" stroke="black" points="505,-228.5 505,-247.5 630,-247.5 630,-228.5 505,-228.5"/>
<text text-anchor="middle" x="567.5" y="-235.5" font-family="Helvetica,sans-Serif" font-size="10.00">DeembedderSymbolic</text>
</a>
</g>
</g>
<!-- Node51&#45;&gt;Node4 -->
<g id="edge5" class="edge">
<title>Node51&#45;&gt;Node4</title>
<path fill="none" stroke="midnightblue" d="M244.27,-254.89C307.52,-251.57 430.6,-245.12 504.98,-241.22"/>
<polygon fill="midnightblue" stroke="midnightblue" points="244.09,-251.39 234.28,-255.41 244.45,-258.38 244.09,-251.39"/>
</g>
<!-- Node11 -->
<g id="node8" class="node">
<title>Node11</title>
<g id="a_node8"><a xlink:href="classSignalIntegrity_1_1Lib_1_1SystemDescriptions_1_1SystemDescriptionSymbolic_1_1SystemDescriptionSymbolic.xhtml" target="_top" xlink:title="Solves system descriptions in the most basic manner common to all of the simulation,...">
<polygon fill="white" stroke="black" points="297,-266.5 297,-285.5 451,-285.5 451,-266.5 297,-266.5"/>
<text text-anchor="middle" x="374" y="-273.5" font-family="Helvetica,sans-Serif" font-size="10.00">SystemDescriptionSymbolic</text>
</a>
</g>
</g>
<!-- Node51&#45;&gt;Node11 -->
<g id="edge6" class="edge">
<title>Node51&#45;&gt;Node11</title>
<path fill="none" stroke="midnightblue" d="M244.17,-261.52C260.02,-263.3 278.76,-265.4 296.97,-267.45"/>
<polygon fill="midnightblue" stroke="midnightblue" points="244.54,-258.04 234.21,-260.4 243.76,-264.99 244.54,-258.04"/>
</g>
<!-- Node12 -->
<g id="node9" class="node">
<title>Node12</title>
<g id="a_node9"><a xlink:href="classSignalIntegrity_1_1Lib_1_1SystemDescriptions_1_1SystemSParametersSymbolic_1_1SystemSParametersSymbolic.xhtml" target="_top" xlink:title="Class for solving symbolically the s&#45;parameters of interconnected systems.">
<polygon fill="white" stroke="black" points="487,-266.5 487,-285.5 648,-285.5 648,-266.5 487,-266.5"/>
<text text-anchor="middle" x="567.5" y="-273.5" font-family="Helvetica,sans-Serif" font-size="10.00">SystemSParametersSymbolic</text>
</a>
</g>
</g>
<!-- Node11&#45;&gt;Node12 -->
<g id="edge7" class="edge">
<title>Node11&#45;&gt;Node12</title>
<path fill="none" stroke="midnightblue" d="M461.45,-276C469.88,-276 478.4,-276 486.76,-276"/>
<polygon fill="midnightblue" stroke="midnightblue" points="461.24,-272.5 451.24,-276 461.24,-279.5 461.24,-272.5"/>
</g>
<!-- Node7 -->
<g id="node10" class="node">
<title>Node7</title>
<g id="a_node10"><a xlink:href="classSignalIntegrity_1_1Lib_1_1SystemDescriptions_1_1SimulatorSymbolic_1_1SimulatorSymbolic.xhtml" target="_top" xlink:title="class for producing symbolic solutions to simulation problems.">
<polygon fill="white" stroke="black" points="690.5,-247.5 690.5,-266.5 799.5,-266.5 799.5,-247.5 690.5,-247.5"/>
<text text-anchor="middle" x="745" y="-254.5" font-family="Helvetica,sans-Serif" font-size="10.00">SimulatorSymbolic</text>
</a>
</g>
</g>
<!-- Node12&#45;&gt;Node7 -->
<g id="edge8" class="edge">
<title>Node12&#45;&gt;Node7</title>
<path fill="none" stroke="midnightblue" d="M658.14,-266.3C669.15,-265.1 680.12,-263.92 690.36,-262.81"/>
<polygon fill="midnightblue" stroke="midnightblue" points="657.6,-262.83 648.03,-267.39 658.35,-269.79 657.6,-262.83"/>
</g>
<!-- Node10 -->
<g id="node11" class="node">
<title>Node10</title>
<g id="a_node11"><a xlink:href="classSignalIntegrity_1_1Lib_1_1SystemDescriptions_1_1VirtualProbeSymbolic_1_1VirtualProbeSymbolic.xhtml" target="_top" xlink:title=" ">
<polygon fill="white" stroke="black" points="684,-190.5 684,-209.5 806,-209.5 806,-190.5 684,-190.5"/>
<text text-anchor="middle" x="745" y="-197.5" font-family="Helvetica,sans-Serif" font-size="10.00">VirtualProbeSymbolic</text>
</a>
</g>
</g>
<!-- Node12&#45;&gt;Node10 -->
<g id="edge9" class="edge">
<title>Node12&#45;&gt;Node10</title>
<path fill="none" stroke="midnightblue" d="M628.57,-263.7C635.22,-261.74 641.81,-259.51 648,-257 664.44,-250.34 706.43,-224.07 729.04,-209.64"/>
<polygon fill="midnightblue" stroke="midnightblue" points="627.54,-260.35 618.84,-266.4 629.41,-267.1 627.54,-260.35"/>
</g>
<!-- Node0 -->
<g id="node12" class="node">
<title>Node0</title>
<g id="a_node12"><a xlink:href="classSignalIntegrity_1_1Lib_1_1SystemDescriptions_1_1SystemDescription_1_1SystemDescription.xhtml" target="_top" xlink:title="Allows the construction of system descriptions for use with all of the classes that solve schematics ...">
<polygon fill="white" stroke="black" points="0,-171.5 0,-190.5 109,-190.5 109,-171.5 0,-171.5"/>
<text text-anchor="middle" x="54.5" y="-178.5" font-family="Helvetica,sans-Serif" font-size="10.00">SystemDescription</text>
</a>
</g>
</g>
<!-- Node1 -->
<g id="node13" class="node">
<title>Node1</title>
<g id="a_node13"><a xlink:href="classSignalIntegrity_1_1Lib_1_1SystemDescriptions_1_1SystemSParameters_1_1SystemSParameters.xhtml" target="_top" xlink:title="base class for housekeeping involving system s&#45;parameters calculations">
<polygon fill="white" stroke="black" points="145,-171.5 145,-190.5 261,-190.5 261,-171.5 145,-171.5"/>
<text text-anchor="middle" x="203" y="-178.5" font-family="Helvetica,sans-Serif" font-size="10.00">SystemSParameters</text>
</a>
</g>
</g>
<!-- Node0&#45;&gt;Node1 -->
<g id="edge10" class="edge">
<title>Node0&#45;&gt;Node1</title>
<path fill="none" stroke="midnightblue" d="M119.42,-181C127.88,-181 136.5,-181 144.84,-181"/>
<polygon fill="midnightblue" stroke="midnightblue" points="119.22,-177.5 109.22,-181 119.22,-184.5 119.22,-177.5"/>
</g>
<!-- Node1&#45;&gt;Node13 -->
<g id="edge21" class="edge">
<title>Node1&#45;&gt;Node13</title>
<path fill="none" stroke="midnightblue" d="M212.66,-161.98C226.34,-134.26 255.71,-83.3 297,-58 354.84,-22.55 431.97,-11.71 488.9,-9.06"/>
<polygon fill="midnightblue" stroke="midnightblue" points="209.33,-160.84 208.19,-171.37 215.65,-163.84 209.33,-160.84"/>
</g>
<!-- Node1&#45;&gt;Node11 -->
<g id="edge20" class="edge">
<title>Node1&#45;&gt;Node11</title>
<path fill="none" stroke="midnightblue" d="M230.29,-195.78C265.39,-215.51 326.53,-249.88 356.07,-266.48"/>
<polygon fill="midnightblue" stroke="midnightblue" points="231.57,-192.48 221.13,-190.63 228.14,-198.58 231.57,-192.48"/>
</g>
<!-- Node2 -->
<g id="node14" class="node">
<title>Node2</title>
<g id="a_node14"><a xlink:href="classSignalIntegrity_1_1Lib_1_1SystemDescriptions_1_1Deembedder_1_1Deembedder.xhtml" target="_top" xlink:title="housekeeping base class for deembedders">
<polygon fill="white" stroke="black" points="334,-190.5 334,-209.5 414,-209.5 414,-190.5 334,-190.5"/>
<text text-anchor="middle" x="374" y="-197.5" font-family="Helvetica,sans-Serif" font-size="10.00">Deembedder</text>
</a>
</g>
</g>
<!-- Node1&#45;&gt;Node2 -->
<g id="edge11" class="edge">
<title>Node1&#45;&gt;Node2</title>
<path fill="none" stroke="midnightblue" d="M271.2,-188.55C292.49,-190.95 315.32,-193.52 333.95,-195.61"/>
<polygon fill="midnightblue" stroke="midnightblue" points="271.54,-185.07 261.22,-187.43 270.76,-192.03 271.54,-185.07"/>
</g>
<!-- Node5 -->
<g id="node15" class="node">
<title>Node5</title>
<g id="a_node15"><a xlink:href="classSignalIntegrity_1_1Lib_1_1SystemDescriptions_1_1Simulator_1_1Simulator.xhtml" target="_top" xlink:title="Base class for dealing with housekeeping for simulations.">
<polygon fill="white" stroke="black" points="342,-152.5 342,-171.5 406,-171.5 406,-152.5 342,-152.5"/>
<text text-anchor="middle" x="374" y="-159.5" font-family="Helvetica,sans-Serif" font-size="10.00">Simulator</text>
</a>
</g>
</g>
<!-- Node1&#45;&gt;Node5 -->
<g id="edge14" class="edge">
<title>Node1&#45;&gt;Node5</title>
<path fill="none" stroke="midnightblue" d="M271.19,-173.45C295.64,-170.7 322.12,-167.72 341.94,-165.49"/>
<polygon fill="midnightblue" stroke="midnightblue" points="270.76,-169.97 261.22,-174.57 271.54,-176.93 270.76,-169.97"/>
</g>
<!-- Node2&#45;&gt;Node3 -->
<g id="edge12" class="edge">
<title>Node2&#45;&gt;Node3</title>
<path fill="none" stroke="midnightblue" d="M423.84,-192.15C433.24,-189.45 442.72,-185.84 451,-181 471.09,-169.27 466.85,-154.63 487,-143 493.76,-139.1 501.28,-136 508.93,-133.53"/>
<polygon fill="midnightblue" stroke="midnightblue" points="422.95,-188.76 414.13,-194.64 424.69,-195.54 422.95,-188.76"/>
</g>
<!-- Node2&#45;&gt;Node4 -->
<g id="edge13" class="edge">
<title>Node2&#45;&gt;Node4</title>
<path fill="none" stroke="midnightblue" d="M424.14,-209.75C453.15,-215.51 489.71,-222.76 518.51,-228.48"/>
<polygon fill="midnightblue" stroke="midnightblue" points="424.71,-206.29 414.21,-207.78 423.34,-213.16 424.71,-206.29"/>
</g>
<!-- Node5&#45;&gt;Node6 -->
<g id="edge15" class="edge">
<title>Node5&#45;&gt;Node6</title>
<path fill="none" stroke="midnightblue" d="M399.53,-147.37C421.73,-134.67 455.65,-116.54 487,-105 496.99,-101.32 507.95,-98.17 518.45,-95.55"/>
<polygon fill="midnightblue" stroke="midnightblue" points="397.67,-144.41 390.78,-152.45 401.19,-150.46 397.67,-144.41"/>
</g>
<!-- Node5&#45;&gt;Node7 -->
<g id="edge16" class="edge">
<title>Node5&#45;&gt;Node7</title>
<path fill="none" stroke="midnightblue" d="M416.35,-169.73C481.5,-182.07 605.08,-206.13 648,-219 674.44,-226.93 703.81,-239.07 723.02,-247.49"/>
<polygon fill="midnightblue" stroke="midnightblue" points="416.89,-166.27 406.41,-167.86 415.59,-173.15 416.89,-166.27"/>
</g>
<!-- Node8 -->
<g id="node16" class="node">
<title>Node8</title>
<g id="a_node16"><a xlink:href="classSignalIntegrity_1_1Lib_1_1SystemDescriptions_1_1VirtualProbe_1_1VirtualProbe.xhtml" target="_top" xlink:title="Base class for virtual probing.">
<polygon fill="white" stroke="black" points="529,-152.5 529,-171.5 606,-171.5 606,-152.5 529,-152.5"/>
<text text-anchor="middle" x="567.5" y="-159.5" font-family="Helvetica,sans-Serif" font-size="10.00">VirtualProbe</text>
</a>
</g>
</g>
<!-- Node5&#45;&gt;Node8 -->
<g id="edge17" class="edge">
<title>Node5&#45;&gt;Node8</title>
<path fill="none" stroke="midnightblue" d="M416.54,-162C449.91,-162 496.4,-162 528.73,-162"/>
<polygon fill="midnightblue" stroke="midnightblue" points="416.19,-158.5 406.19,-162 416.19,-165.5 416.19,-158.5"/>
</g>
<!-- Node8&#45;&gt;Node9 -->
<g id="edge18" class="edge">
<title>Node8&#45;&gt;Node9</title>
<path fill="none" stroke="midnightblue" d="M616.19,-151.67C642.29,-146.02 674.4,-139.07 699.9,-133.55"/>
<polygon fill="midnightblue" stroke="midnightblue" points="615.18,-148.31 606.15,-153.85 616.66,-155.15 615.18,-148.31"/>
</g>
<!-- Node8&#45;&gt;Node10 -->
<g id="edge19" class="edge">
<title>Node8&#45;&gt;Node10</title>
<path fill="none" stroke="midnightblue" d="M616.19,-172.33C642.29,-177.98 674.4,-184.93 699.9,-190.45"/>
<polygon fill="midnightblue" stroke="midnightblue" points="616.66,-168.85 606.15,-170.15 615.18,-175.69 616.66,-168.85"/>
</g>
</g>
</svg>
