<?xml version="1.0" encoding="UTF-8" standalone="no"?>
<!DOCTYPE svg PUBLIC "-//W3C//DTD SVG 1.1//EN"
 "http://www.w3.org/Graphics/SVG/1.1/DTD/svg11.dtd">
<!-- Generated by graphviz version 2.43.0 (0)
 -->
<!-- Title: Graphical Class Hierarchy Pages: 1 -->
<svg width="710pt" height="1130pt"
 viewBox="0.00 0.00 710.00 1130.00" xmlns="http://www.w3.org/2000/svg" xmlns:xlink="http://www.w3.org/1999/xlink">
<g id="graph0" class="graph" transform="scale(1 1) rotate(0) translate(4 1126)">
<title>Graphical Class Hierarchy</title>
<polygon fill="white" stroke="transparent" points="-4,4 -4,-1126 706,-1126 706,4 -4,4"/>
<!-- Node55 -->
<g id="node1" class="node">
<title>Node55</title>
<g id="a_node1"><a xlink:href="classSignalIntegrity_1_1Lib_1_1SParameters_1_1SParameterManipulation_1_1SParameterManipulation.xhtml" target="_top" xlink:title="Class for manipulations on s&#45;parameters involving passivity, causality, etc.">
<polygon fill="white" stroke="black" points="0,-551.5 0,-570.5 137,-570.5 137,-551.5 0,-551.5"/>
<text text-anchor="middle" x="68.5" y="-558.5" font-family="Helvetica,sans-Serif" font-size="10.00">SParameterManipulation</text>
</a>
</g>
</g>
<!-- Node56 -->
<g id="node2" class="node">
<title>Node56</title>
<g id="a_node2"><a xlink:href="classSignalIntegrity_1_1Lib_1_1SParameters_1_1SParameters_1_1SParameters.xhtml" target="_top" xlink:title="Class containing s&#45;parameters.">
<polygon fill="white" stroke="black" points="198,-551.5 198,-570.5 277,-570.5 277,-551.5 198,-551.5"/>
<text text-anchor="middle" x="237.5" y="-558.5" font-family="Helvetica,sans-Serif" font-size="10.00">SParameters</text>
</a>
</g>
</g>
<!-- Node55&#45;&gt;Node56 -->
<g id="edge1" class="edge">
<title>Node55&#45;&gt;Node56</title>
<path fill="none" stroke="midnightblue" d="M147.64,-561C165.09,-561 182.86,-561 197.87,-561"/>
<polygon fill="midnightblue" stroke="midnightblue" points="147.43,-557.5 137.43,-561 147.43,-564.5 147.43,-557.5"/>
</g>
<!-- Node57 -->
<g id="node3" class="node">
<title>Node57</title>
<g id="a_node3"><a xlink:href="classSignalIntegrity_1_1Lib_1_1ImpedanceProfile_1_1PeeledLaunches_1_1PeeledLaunches.xhtml" target="_top" xlink:title="S&#45;parameters with launches peeled from them.">
<polygon fill="white" stroke="black" points="384.5,-798.5 384.5,-817.5 479.5,-817.5 479.5,-798.5 384.5,-798.5"/>
<text text-anchor="middle" x="432" y="-805.5" font-family="Helvetica,sans-Serif" font-size="10.00">PeeledLaunches</text>
</a>
</g>
</g>
<!-- Node56&#45;&gt;Node57 -->
<g id="edge2" class="edge">
<title>Node56&#45;&gt;Node57</title>
<path fill="none" stroke="midnightblue" d="M241.01,-580.79C247.77,-625.48 270.68,-734.51 338,-789 350.94,-799.47 368.14,-804.64 384.23,-807.05"/>
<polygon fill="midnightblue" stroke="midnightblue" points="244.44,-580.08 239.59,-570.66 237.51,-581.05 244.44,-580.08"/>
</g>
<!-- Node58 -->
<g id="node4" class="node">
<title>Node58</title>
<g id="a_node4"><a xlink:href="classSignalIntegrity_1_1Lib_1_1ImpedanceProfile_1_1PeeledPortSParameters_1_1PeeledPortSParameters.xhtml" target="_top" xlink:title="s&#45;parameters of peeled impedance profile from port calculates the impedance profile looking into a po...">
<polygon fill="white" stroke="black" points="366.5,-760.5 366.5,-779.5 497.5,-779.5 497.5,-760.5 366.5,-760.5"/>
<text text-anchor="middle" x="432" y="-767.5" font-family="Helvetica,sans-Serif" font-size="10.00">PeeledPortSParameters</text>
</a>
</g>
</g>
<!-- Node56&#45;&gt;Node58 -->
<g id="edge3" class="edge">
<title>Node56&#45;&gt;Node58</title>
<path fill="none" stroke="midnightblue" d="M242.84,-580.67C252.56,-619.79 279.92,-707.31 338,-751 346.3,-757.24 356.14,-761.56 366.27,-764.53"/>
<polygon fill="midnightblue" stroke="midnightblue" points="246.22,-579.73 240.51,-570.8 239.4,-581.33 246.22,-579.73"/>
</g>
<!-- Node59 -->
<g id="node5" class="node">
<title>Node59</title>
<g id="a_node5"><a xlink:href="classSignalIntegrity_1_1Lib_1_1Measurement_1_1Calibration_1_1NetworkAnalyzer_1_1NetworkAnalyzer.xhtml" target="_top" xlink:title="produces calibrated or uncalibrated s&#45;parameters from a network analyzer.">
<polygon fill="white" stroke="black" points="381.5,-722.5 381.5,-741.5 482.5,-741.5 482.5,-722.5 381.5,-722.5"/>
<text text-anchor="middle" x="432" y="-729.5" font-family="Helvetica,sans-Serif" font-size="10.00">NetworkAnalyzer</text>
</a>
</g>
</g>
<!-- Node56&#45;&gt;Node59 -->
<g id="edge4" class="edge">
<title>Node56&#45;&gt;Node59</title>
<path fill="none" stroke="midnightblue" d="M245.33,-580.12C258.08,-612.92 288.79,-679.59 338,-713 350.68,-721.61 366.42,-726.47 381.33,-729.17"/>
<polygon fill="midnightblue" stroke="midnightblue" points="248.6,-578.88 241.81,-570.75 242.05,-581.34 248.6,-578.88"/>
</g>
<!-- Node60 -->
<g id="node6" class="node">
<title>Node60</title>
<g id="a_node6"><a xlink:href="classSignalIntegrity_1_1Lib_1_1Measurement_1_1CalKit_1_1Standards_1_1LoadStandard_1_1LoadStandard.xhtml" target="_top" xlink:title="Class providing the s&#45;parameters of a load standard as commonly defined for a calibration kit.">
<polygon fill="white" stroke="black" points="390.5,-684.5 390.5,-703.5 473.5,-703.5 473.5,-684.5 390.5,-684.5"/>
<text text-anchor="middle" x="432" y="-691.5" font-family="Helvetica,sans-Serif" font-size="10.00">LoadStandard</text>
</a>
</g>
</g>
<!-- Node56&#45;&gt;Node60 -->
<g id="edge5" class="edge">
<title>Node56&#45;&gt;Node60</title>
<path fill="none" stroke="midnightblue" d="M249.03,-579.26C264.87,-604.97 297.34,-651.32 338,-675 353.66,-684.12 373.04,-688.91 390.04,-691.41"/>
<polygon fill="midnightblue" stroke="midnightblue" points="251.93,-577.3 243.79,-570.51 245.93,-580.89 251.93,-577.3"/>
</g>
<!-- Node61 -->
<g id="node7" class="node">
<title>Node61</title>
<g id="a_node7"><a xlink:href="classSignalIntegrity_1_1Lib_1_1Measurement_1_1CalKit_1_1Standards_1_1Offset_1_1Offset.xhtml" target="_top" xlink:title="class providing the s&#45;parameters of an offset portion of the various calibration standards for a cali...">
<polygon fill="white" stroke="black" points="408.5,-646.5 408.5,-665.5 455.5,-665.5 455.5,-646.5 408.5,-646.5"/>
<text text-anchor="middle" x="432" y="-653.5" font-family="Helvetica,sans-Serif" font-size="10.00">Offset</text>
</a>
</g>
</g>
<!-- Node56&#45;&gt;Node61 -->
<g id="edge6" class="edge">
<title>Node56&#45;&gt;Node61</title>
<path fill="none" stroke="midnightblue" d="M255.32,-577.75C273.93,-595.28 305.6,-622.26 338,-637 360.65,-647.3 388.94,-652.06 408.33,-654.23"/>
<polygon fill="midnightblue" stroke="midnightblue" points="257.59,-575.07 247.96,-570.66 252.73,-580.11 257.59,-575.07"/>
</g>
<!-- Node63 -->
<g id="node9" class="node">
<title>Node63</title>
<g id="a_node9"><a xlink:href="classSignalIntegrity_1_1Lib_1_1Measurement_1_1CalKit_1_1Standards_1_1OpenStandard_1_1OpenStandard.xhtml" target="_top" xlink:title="class providing the s&#45;parameters of an open standard as commonly defined for a calibration kit.">
<polygon fill="white" stroke="black" points="389,-608.5 389,-627.5 475,-627.5 475,-608.5 389,-608.5"/>
<text text-anchor="middle" x="432" y="-615.5" font-family="Helvetica,sans-Serif" font-size="10.00">OpenStandard</text>
</a>
</g>
</g>
<!-- Node56&#45;&gt;Node63 -->
<g id="edge8" class="edge">
<title>Node56&#45;&gt;Node63</title>
<path fill="none" stroke="midnightblue" d="M269.54,-574.36C288.94,-582.33 314.61,-592.19 338,-599 354.46,-603.79 372.89,-607.82 388.98,-610.92"/>
<polygon fill="midnightblue" stroke="midnightblue" points="270.86,-571.11 260.28,-570.5 268.16,-577.58 270.86,-571.11"/>
</g>
<!-- Node64 -->
<g id="node10" class="node">
<title>Node64</title>
<g id="a_node10"><a xlink:href="classSignalIntegrity_1_1Lib_1_1Measurement_1_1CalKit_1_1Standards_1_1ShortStandard_1_1ShortStandard.xhtml" target="_top" xlink:title="Class providing the s&#45;parameters of a short standard as commonly defined for a calibration kit.">
<polygon fill="white" stroke="black" points="389,-570.5 389,-589.5 475,-589.5 475,-570.5 389,-570.5"/>
<text text-anchor="middle" x="432" y="-577.5" font-family="Helvetica,sans-Serif" font-size="10.00">ShortStandard</text>
</a>
</g>
</g>
<!-- Node56&#45;&gt;Node64 -->
<g id="edge9" class="edge">
<title>Node56&#45;&gt;Node64</title>
<path fill="none" stroke="midnightblue" d="M287.69,-565.85C318.93,-568.94 358.96,-572.89 388.76,-575.83"/>
<polygon fill="midnightblue" stroke="midnightblue" points="287.75,-562.34 277.46,-564.84 287.06,-569.31 287.75,-562.34"/>
</g>
<!-- Node1 -->
<g id="node11" class="node">
<title>Node1</title>
<g id="a_node11"><a xlink:href="classSignalIntegrity_1_1Lib_1_1Measurement_1_1CalKit_1_1Standards_1_1TerminationPolynomial_1_1TerminationCPolynomial.xhtml" target="_top" xlink:title="Class for capacitive terminations for open calibration standards.">
<polygon fill="white" stroke="black" points="364,-1102.5 364,-1121.5 500,-1121.5 500,-1102.5 364,-1102.5"/>
<text text-anchor="middle" x="432" y="-1109.5" font-family="Helvetica,sans-Serif" font-size="10.00">TerminationCPolynomial</text>
</a>
</g>
</g>
<!-- Node56&#45;&gt;Node1 -->
<g id="edge10" class="edge">
<title>Node56&#45;&gt;Node1</title>
<path fill="none" stroke="midnightblue" d="M239.35,-580.97C243.47,-668.6 264.38,-1018.15 338,-1093 345.05,-1100.17 354.02,-1105 363.59,-1108.2"/>
<polygon fill="midnightblue" stroke="midnightblue" points="242.83,-580.63 238.89,-570.79 235.84,-580.94 242.83,-580.63"/>
</g>
<!-- Node2 -->
<g id="node12" class="node">
<title>Node2</title>
<g id="a_node12"><a xlink:href="classSignalIntegrity_1_1Lib_1_1Measurement_1_1CalKit_1_1Standards_1_1TerminationPolynomial_1_1TerminationLPolynomial.xhtml" target="_top" xlink:title="Class for inductive terminations for short calibration standards.">
<polygon fill="white" stroke="black" points="365,-1064.5 365,-1083.5 499,-1083.5 499,-1064.5 365,-1064.5"/>
<text text-anchor="middle" x="432" y="-1071.5" font-family="Helvetica,sans-Serif" font-size="10.00">TerminationLPolynomial</text>
</a>
</g>
</g>
<!-- Node56&#45;&gt;Node2 -->
<g id="edge11" class="edge">
<title>Node56&#45;&gt;Node2</title>
<path fill="none" stroke="midnightblue" d="M239.67,-581.12C244.95,-665.08 269.41,-986.22 338,-1055 345.33,-1062.35 354.69,-1067.24 364.62,-1070.42"/>
<polygon fill="midnightblue" stroke="midnightblue" points="243.15,-580.67 239.05,-570.9 236.16,-581.1 243.15,-580.67"/>
</g>
<!-- Node65 -->
<g id="node13" class="node">
<title>Node65</title>
<g id="a_node13"><a xlink:href="classSignalIntegrity_1_1Lib_1_1SParameters_1_1Devices_1_1ClassicalFilter_1_1ClassicalFilter.xhtml" target="_top" xlink:title="Classical filter.">
<polygon fill="white" stroke="black" points="390,-532.5 390,-551.5 474,-551.5 474,-532.5 390,-532.5"/>
<text text-anchor="middle" x="432" y="-539.5" font-family="Helvetica,sans-Serif" font-size="10.00">ClassicalFilter</text>
</a>
</g>
</g>
<!-- Node56&#45;&gt;Node65 -->
<g id="edge12" class="edge">
<title>Node56&#45;&gt;Node65</title>
<path fill="none" stroke="midnightblue" d="M287.8,-556.13C319.38,-553.02 359.9,-549.02 389.77,-546.07"/>
<polygon fill="midnightblue" stroke="midnightblue" points="287.06,-552.69 277.46,-557.16 287.75,-559.66 287.06,-552.69"/>
</g>
<!-- Node68 -->
<g id="node16" class="node">
<title>Node68</title>
<g id="a_node16"><a xlink:href="classSignalIntegrity_1_1Lib_1_1SParameters_1_1Devices_1_1Equalizer_1_1CTLE.xhtml" target="_top" xlink:title="Continuous time linear equalizer.">
<polygon fill="white" stroke="black" points="411.5,-494.5 411.5,-513.5 452.5,-513.5 452.5,-494.5 411.5,-494.5"/>
<text text-anchor="middle" x="432" y="-501.5" font-family="Helvetica,sans-Serif" font-size="10.00">CTLE</text>
</a>
</g>
</g>
<!-- Node56&#45;&gt;Node68 -->
<g id="edge15" class="edge">
<title>Node56&#45;&gt;Node68</title>
<path fill="none" stroke="midnightblue" d="M269.54,-547.64C288.94,-539.67 314.61,-529.81 338,-523 362.84,-515.77 392.19,-510.26 411.18,-507.08"/>
<polygon fill="midnightblue" stroke="midnightblue" points="268.16,-544.42 260.28,-551.5 270.86,-550.89 268.16,-544.42"/>
</g>
<!-- Node69 -->
<g id="node17" class="node">
<title>Node69</title>
<g id="a_node17"><a xlink:href="classSignalIntegrity_1_1Lib_1_1SParameters_1_1Devices_1_1Equalizer_1_1FFE.xhtml" target="_top" xlink:title="Linear feed&#45;forward equalizer.">
<polygon fill="white" stroke="black" points="414.5,-456.5 414.5,-475.5 449.5,-475.5 449.5,-456.5 414.5,-456.5"/>
<text text-anchor="middle" x="432" y="-463.5" font-family="Helvetica,sans-Serif" font-size="10.00">FFE</text>
</a>
</g>
</g>
<!-- Node56&#45;&gt;Node69 -->
<g id="edge16" class="edge">
<title>Node56&#45;&gt;Node69</title>
<path fill="none" stroke="midnightblue" d="M255.32,-544.25C273.93,-526.72 305.6,-499.74 338,-485 363.05,-473.6 394.99,-468.99 414.18,-467.16"/>
<polygon fill="midnightblue" stroke="midnightblue" points="252.73,-541.89 247.96,-551.34 257.59,-546.93 252.73,-541.89"/>
</g>
<!-- Node70 -->
<g id="node18" class="node">
<title>Node70</title>
<g id="a_node18"><a xlink:href="classSignalIntegrity_1_1Lib_1_1SParameters_1_1Devices_1_1Laplace_1_1Laplace.xhtml" target="_top" xlink:title="Laplace domain equation.">
<polygon fill="white" stroke="black" points="405,-418.5 405,-437.5 459,-437.5 459,-418.5 405,-418.5"/>
<text text-anchor="middle" x="432" y="-425.5" font-family="Helvetica,sans-Serif" font-size="10.00">Laplace</text>
</a>
</g>
</g>
<!-- Node56&#45;&gt;Node70 -->
<g id="edge17" class="edge">
<title>Node56&#45;&gt;Node70</title>
<path fill="none" stroke="midnightblue" d="M249.03,-542.74C264.87,-517.03 297.34,-470.68 338,-447 358.51,-435.06 385.37,-430.54 404.95,-428.87"/>
<polygon fill="midnightblue" stroke="midnightblue" points="245.93,-541.11 243.79,-551.49 251.93,-544.7 245.93,-541.11"/>
</g>
<!-- Node71 -->
<g id="node19" class="node">
<title>Node71</title>
<g id="a_node19"><a xlink:href="classSignalIntegrity_1_1Lib_1_1SParameters_1_1Devices_1_1MixedModeTline_1_1MixedModeTLine.xhtml" target="_top" xlink:title="s&#45;parameters of a mixed&#45;mode, balanced transmission line">
<polygon fill="white" stroke="black" points="382,-380.5 382,-399.5 482,-399.5 482,-380.5 382,-380.5"/>
<text text-anchor="middle" x="432" y="-387.5" font-family="Helvetica,sans-Serif" font-size="10.00">MixedModeTLine</text>
</a>
</g>
</g>
<!-- Node56&#45;&gt;Node71 -->
<g id="edge18" class="edge">
<title>Node56&#45;&gt;Node71</title>
<path fill="none" stroke="midnightblue" d="M245.33,-541.88C258.08,-509.08 288.79,-442.41 338,-409 350.82,-400.3 366.76,-395.43 381.81,-392.74"/>
<polygon fill="midnightblue" stroke="midnightblue" points="242.05,-540.66 241.81,-551.25 248.6,-543.12 242.05,-540.66"/>
</g>
<!-- Node72 -->
<g id="node20" class="node">
<title>Node72</title>
<g id="a_node20"><a xlink:href="classSignalIntegrity_1_1Lib_1_1SParameters_1_1Devices_1_1Mutual_1_1Mutual.xhtml" target="_top" xlink:title="s&#45;parameters of a mutual inductance">
<polygon fill="white" stroke="black" points="407,-342.5 407,-361.5 457,-361.5 457,-342.5 407,-342.5"/>
<text text-anchor="middle" x="432" y="-349.5" font-family="Helvetica,sans-Serif" font-size="10.00">Mutual</text>
</a>
</g>
</g>
<!-- Node56&#45;&gt;Node72 -->
<g id="edge19" class="edge">
<title>Node56&#45;&gt;Node72</title>
<path fill="none" stroke="midnightblue" d="M242.84,-541.33C252.56,-502.21 279.92,-414.69 338,-371 357.89,-356.04 386.67,-352.12 406.93,-351.42"/>
<polygon fill="midnightblue" stroke="midnightblue" points="239.4,-540.67 240.51,-551.2 246.22,-542.27 239.4,-540.67"/>
</g>
<!-- Node73 -->
<g id="node21" class="node">
<title>Node73</title>
<g id="a_node21"><a xlink:href="classSignalIntegrity_1_1Lib_1_1SParameters_1_1Devices_1_1SeriesC_1_1SeriesC.xhtml" target="_top" xlink:title="s&#45;parameters of a series capacitance">
<polygon fill="white" stroke="black" points="405.5,-304.5 405.5,-323.5 458.5,-323.5 458.5,-304.5 405.5,-304.5"/>
<text text-anchor="middle" x="432" y="-311.5" font-family="Helvetica,sans-Serif" font-size="10.00">SeriesC</text>
</a>
</g>
</g>
<!-- Node56&#45;&gt;Node73 -->
<g id="edge20" class="edge">
<title>Node56&#45;&gt;Node73</title>
<path fill="none" stroke="midnightblue" d="M241.01,-541.21C247.77,-496.52 270.68,-387.49 338,-333 356.96,-317.66 385.08,-313.7 405.43,-313.1"/>
<polygon fill="midnightblue" stroke="midnightblue" points="237.51,-540.95 239.59,-551.34 244.44,-541.92 237.51,-540.95"/>
</g>
<!-- Node74 -->
<g id="node22" class="node">
<title>Node74</title>
<g id="a_node22"><a xlink:href="classSignalIntegrity_1_1Lib_1_1SParameters_1_1Devices_1_1SeriesL_1_1SeriesL.xhtml" target="_top" xlink:title="s&#45;parameters of a series inductance">
<polygon fill="white" stroke="black" points="406,-266.5 406,-285.5 458,-285.5 458,-266.5 406,-266.5"/>
<text text-anchor="middle" x="432" y="-273.5" font-family="Helvetica,sans-Serif" font-size="10.00">SeriesL</text>
</a>
</g>
</g>
<!-- Node56&#45;&gt;Node74 -->
<g id="edge21" class="edge">
<title>Node56&#45;&gt;Node74</title>
<path fill="none" stroke="midnightblue" d="M239.62,-541.38C243.58,-491.78 261.15,-360.68 338,-295 356.67,-279.05 385.11,-275.23 405.62,-274.82"/>
<polygon fill="midnightblue" stroke="midnightblue" points="236.13,-541.19 238.93,-551.41 243.11,-541.68 236.13,-541.19"/>
</g>
<!-- Node75 -->
<g id="node23" class="node">
<title>Node75</title>
<g id="a_node23"><a xlink:href="classSignalIntegrity_1_1Lib_1_1SParameters_1_1Devices_1_1SeriesRse_1_1SeriesRse.xhtml" target="_top" xlink:title="s&#45;parameters of series skin&#45;effect Resistance">
<polygon fill="white" stroke="black" points="399.5,-228.5 399.5,-247.5 464.5,-247.5 464.5,-228.5 399.5,-228.5"/>
<text text-anchor="middle" x="432" y="-235.5" font-family="Helvetica,sans-Serif" font-size="10.00">SeriesRse</text>
</a>
</g>
</g>
<!-- Node56&#45;&gt;Node75 -->
<g id="edge22" class="edge">
<title>Node56&#45;&gt;Node75</title>
<path fill="none" stroke="midnightblue" d="M238.58,-541.2C239.96,-486.79 251.69,-333.93 338,-257 354.61,-242.2 379.56,-237.72 399.44,-236.8"/>
<polygon fill="midnightblue" stroke="midnightblue" points="235.08,-541.2 238.43,-551.26 242.08,-541.31 235.08,-541.2"/>
</g>
<!-- Node76 -->
<g id="node24" class="node">
<title>Node76</title>
<g id="a_node24"><a xlink:href="classSignalIntegrity_1_1Lib_1_1SParameters_1_1Devices_1_1TerminationC_1_1TerminationC.xhtml" target="_top" xlink:title="s&#45;parameters of a termination (one&#45;port) capacitance">
<polygon fill="white" stroke="black" points="391.5,-190.5 391.5,-209.5 472.5,-209.5 472.5,-190.5 391.5,-190.5"/>
<text text-anchor="middle" x="432" y="-197.5" font-family="Helvetica,sans-Serif" font-size="10.00">TerminationC</text>
</a>
</g>
</g>
<!-- Node56&#45;&gt;Node76 -->
<g id="edge23" class="edge">
<title>Node56&#45;&gt;Node76</title>
<path fill="none" stroke="midnightblue" d="M237.75,-541.16C236.68,-482.31 242.08,-307.39 338,-219 352.18,-205.93 372.82,-200.84 391.06,-199.17"/>
<polygon fill="midnightblue" stroke="midnightblue" points="234.25,-541.42 238.02,-551.32 241.25,-541.23 234.25,-541.42"/>
</g>
<!-- Node77 -->
<g id="node25" class="node">
<title>Node77</title>
<g id="a_node25"><a xlink:href="classSignalIntegrity_1_1Lib_1_1SParameters_1_1Devices_1_1TerminationL_1_1TerminationL.xhtml" target="_top" xlink:title="s&#45;parameters of a termination (one&#45;port) inductance">
<polygon fill="white" stroke="black" points="392,-152.5 392,-171.5 472,-171.5 472,-152.5 392,-152.5"/>
<text text-anchor="middle" x="432" y="-159.5" font-family="Helvetica,sans-Serif" font-size="10.00">TerminationL</text>
</a>
</g>
</g>
<!-- Node56&#45;&gt;Node77 -->
<g id="edge24" class="edge">
<title>Node56&#45;&gt;Node77</title>
<path fill="none" stroke="midnightblue" d="M240.93,-541.16C250.01,-470.41 284.17,-231.97 338,-181 352.24,-167.52 373.34,-162.46 391.84,-160.92"/>
<polygon fill="midnightblue" stroke="midnightblue" points="237.43,-541 239.65,-551.36 244.37,-541.87 237.43,-541"/>
</g>
<!-- Node78 -->
<g id="node26" class="node">
<title>Node78</title>
<g id="a_node26"><a xlink:href="classSignalIntegrity_1_1Lib_1_1SParameters_1_1Devices_1_1TLineDifferentialRLGC_1_1TLineDifferentialRLGC.xhtml" target="_top" xlink:title="s&#45;parameters of differential RLGC (telegrapher&#39;s) transmission line">
<polygon fill="white" stroke="black" points="369.5,-114.5 369.5,-133.5 494.5,-133.5 494.5,-114.5 369.5,-114.5"/>
<text text-anchor="middle" x="432" y="-121.5" font-family="Helvetica,sans-Serif" font-size="10.00">TLineDifferentialRLGC</text>
</a>
</g>
</g>
<!-- Node56&#45;&gt;Node78 -->
<g id="edge25" class="edge">
<title>Node56&#45;&gt;Node78</title>
<path fill="none" stroke="midnightblue" d="M240.43,-541.14C248.15,-465.92 279.25,-199.89 338,-143 346.52,-134.75 357.61,-129.63 369.14,-126.54"/>
<polygon fill="midnightblue" stroke="midnightblue" points="236.94,-540.86 239.43,-551.16 243.91,-541.56 236.94,-540.86"/>
</g>
<!-- Node79 -->
<g id="node27" class="node">
<title>Node79</title>
<g id="a_node27"><a xlink:href="classSignalIntegrity_1_1Lib_1_1SParameters_1_1Devices_1_1TLineDifferentialRLGCApproximate_1_1TLineDifferentialRLGCApproximate.xhtml" target="_top" xlink:title="s&#45;parameters of differential RLGC (telegrapher&#39;s) transmission line calculated by approximating distr...">
<polygon fill="white" stroke="black" points="338,-76.5 338,-95.5 526,-95.5 526,-76.5 338,-76.5"/>
<text text-anchor="middle" x="432" y="-83.5" font-family="Helvetica,sans-Serif" font-size="10.00">TLineDifferentialRLGCApproximate</text>
</a>
</g>
</g>
<!-- Node56&#45;&gt;Node79 -->
<g id="edge26" class="edge">
<title>Node56&#45;&gt;Node79</title>
<path fill="none" stroke="midnightblue" d="M239.99,-541.42C246.39,-462.37 274.23,-167.93 338,-105 341.75,-101.3 346.02,-98.22 350.62,-95.68"/>
<polygon fill="midnightblue" stroke="midnightblue" points="236.49,-541.22 239.2,-551.47 243.47,-541.77 236.49,-541.22"/>
</g>
<!-- Node80 -->
<g id="node28" class="node">
<title>Node80</title>
<g id="a_node28"><a xlink:href="classSignalIntegrity_1_1Lib_1_1SParameters_1_1Devices_1_1TLineDifferentialRLGCBalanced_1_1TLineDifferentialRLGCBalanced.xhtml" target="_top" xlink:title="s&#45;parameters of analytic balanced differential RLGC (telegrapher&#39;s) transmission line.">
<polygon fill="white" stroke="black" points="347,-38.5 347,-57.5 517,-57.5 517,-38.5 347,-38.5"/>
<text text-anchor="middle" x="432" y="-45.5" font-family="Helvetica,sans-Serif" font-size="10.00">TLineDifferentialRLGCBalanced</text>
</a>
</g>
</g>
<!-- Node56&#45;&gt;Node80 -->
<g id="edge27" class="edge">
<title>Node56&#45;&gt;Node80</title>
<path fill="none" stroke="midnightblue" d="M239.67,-540.88C244.95,-456.92 269.41,-135.78 338,-67 341.72,-63.27 345.97,-60.17 350.55,-57.61"/>
<polygon fill="midnightblue" stroke="midnightblue" points="236.16,-540.9 239.05,-551.1 243.15,-541.33 236.16,-540.9"/>
</g>
<!-- Node81 -->
<g id="node29" class="node">
<title>Node81</title>
<g id="a_node29"><a xlink:href="classSignalIntegrity_1_1Lib_1_1SParameters_1_1Devices_1_1TLineDifferentialRLGCUncoupled_1_1TLineDifferentialRLGCUncoupled.xhtml" target="_top" xlink:title="s&#45;parameters of analytic uncoupled differential RLGC (telegrapher&#39;s) transmission line.">
<polygon fill="white" stroke="black" points="344,-0.5 344,-19.5 520,-19.5 520,-0.5 344,-0.5"/>
<text text-anchor="middle" x="432" y="-7.5" font-family="Helvetica,sans-Serif" font-size="10.00">TLineDifferentialRLGCUncoupled</text>
</a>
</g>
</g>
<!-- Node56&#45;&gt;Node81 -->
<g id="edge28" class="edge">
<title>Node56&#45;&gt;Node81</title>
<path fill="none" stroke="midnightblue" d="M239.35,-541.03C243.47,-453.4 264.38,-103.85 338,-29 341.7,-25.24 345.92,-22.12 350.49,-19.55"/>
<polygon fill="midnightblue" stroke="midnightblue" points="235.84,-541.06 238.89,-551.21 242.83,-541.37 235.84,-541.06"/>
</g>
<!-- Node82 -->
<g id="node30" class="node">
<title>Node82</title>
<g id="a_node30"><a xlink:href="classSignalIntegrity_1_1Lib_1_1SParameters_1_1Devices_1_1TLineLossless_1_1TLineLossless.xhtml" target="_top" xlink:title="s&#45;parameters of ideal lossless single&#45;ended transmission line">
<polygon fill="white" stroke="black" points="390,-1026.5 390,-1045.5 474,-1045.5 474,-1026.5 390,-1026.5"/>
<text text-anchor="middle" x="432" y="-1033.5" font-family="Helvetica,sans-Serif" font-size="10.00">TLineLossless</text>
</a>
</g>
</g>
<!-- Node56&#45;&gt;Node82 -->
<g id="edge29" class="edge">
<title>Node56&#45;&gt;Node82</title>
<path fill="none" stroke="midnightblue" d="M239.99,-580.58C246.39,-659.63 274.23,-954.07 338,-1017 351.49,-1030.31 371.63,-1035.5 389.72,-1037.17"/>
<polygon fill="midnightblue" stroke="midnightblue" points="243.47,-580.23 239.2,-570.53 236.49,-580.78 243.47,-580.23"/>
</g>
<!-- Node83 -->
<g id="node31" class="node">
<title>Node83</title>
<g id="a_node31"><a xlink:href="classSignalIntegrity_1_1Lib_1_1SParameters_1_1Devices_1_1TLineTwoPortRLGC_1_1TLineTwoPortRLGC.xhtml" target="_top" xlink:title="s&#45;parameters of single&#45;ended RLGC (telegraphers) transmission line">
<polygon fill="white" stroke="black" points="378.5,-988.5 378.5,-1007.5 485.5,-1007.5 485.5,-988.5 378.5,-988.5"/>
<text text-anchor="middle" x="432" y="-995.5" font-family="Helvetica,sans-Serif" font-size="10.00">TLineTwoPortRLGC</text>
</a>
</g>
</g>
<!-- Node56&#45;&gt;Node83 -->
<g id="edge30" class="edge">
<title>Node56&#45;&gt;Node83</title>
<path fill="none" stroke="midnightblue" d="M240.43,-580.86C248.15,-656.08 279.25,-922.11 338,-979 348.77,-989.43 363.64,-994.85 378.33,-997.5"/>
<polygon fill="midnightblue" stroke="midnightblue" points="243.91,-580.44 239.43,-570.84 236.94,-581.14 243.91,-580.44"/>
</g>
<!-- Node84 -->
<g id="node32" class="node">
<title>Node84</title>
<g id="a_node32"><a xlink:href="classSignalIntegrity_1_1Lib_1_1SParameters_1_1Devices_1_1TLineTwoPortRLGCAnalytic_1_1TLineTwoPortRLGCAnalytic.xhtml" target="_top" xlink:title="s&#45;parameters of analytic single&#45;ended telegraphers transmission line">
<polygon fill="white" stroke="black" points="358.5,-950.5 358.5,-969.5 505.5,-969.5 505.5,-950.5 358.5,-950.5"/>
<text text-anchor="middle" x="432" y="-957.5" font-family="Helvetica,sans-Serif" font-size="10.00">TLineTwoPortRLGCAnalytic</text>
</a>
</g>
</g>
<!-- Node56&#45;&gt;Node84 -->
<g id="edge31" class="edge">
<title>Node56&#45;&gt;Node84</title>
<path fill="none" stroke="midnightblue" d="M240.93,-580.84C250.01,-651.59 284.17,-890.03 338,-941 343.86,-946.55 350.89,-950.67 358.42,-953.71"/>
<polygon fill="midnightblue" stroke="midnightblue" points="244.37,-580.13 239.65,-570.64 237.43,-581 244.37,-580.13"/>
</g>
<!-- Node85 -->
<g id="node33" class="node">
<title>Node85</title>
<g id="a_node33"><a xlink:href="classSignalIntegrity_1_1Lib_1_1SParameters_1_1Devices_1_1TLineTwoPortRLGCApproximate_1_1TLineTwoPortRLGCApproximate.xhtml" target="_top" xlink:title="s&#45;parameters of two port RLGC (telegrapher&#39;s) transmission line calculated by approximating distribut...">
<polygon fill="white" stroke="black" points="347,-912.5 347,-931.5 517,-931.5 517,-912.5 347,-912.5"/>
<text text-anchor="middle" x="432" y="-919.5" font-family="Helvetica,sans-Serif" font-size="10.00">TLineTwoPortRLGCApproximate</text>
</a>
</g>
</g>
<!-- Node56&#45;&gt;Node85 -->
<g id="edge32" class="edge">
<title>Node56&#45;&gt;Node85</title>
<path fill="none" stroke="midnightblue" d="M237.75,-580.84C236.68,-639.69 242.08,-814.61 338,-903 342.12,-906.8 346.79,-909.92 351.78,-912.48"/>
<polygon fill="midnightblue" stroke="midnightblue" points="241.25,-580.77 238.02,-570.68 234.25,-580.58 241.25,-580.77"/>
</g>
<!-- Node86 -->
<g id="node34" class="node">
<title>Node86</title>
<g id="a_node34"><a xlink:href="classSignalIntegrity_1_1Lib_1_1SParameters_1_1Devices_1_1WElement_1_1WElement.xhtml" target="_top" xlink:title="s&#45;parameters of of a W element is calculated by approximating distributed parameters with a finite nu...">
<polygon fill="white" stroke="black" points="398.5,-874.5 398.5,-893.5 465.5,-893.5 465.5,-874.5 398.5,-874.5"/>
<text text-anchor="middle" x="432" y="-881.5" font-family="Helvetica,sans-Serif" font-size="10.00">WElement</text>
</a>
</g>
</g>
<!-- Node56&#45;&gt;Node86 -->
<g id="edge33" class="edge">
<title>Node56&#45;&gt;Node86</title>
<path fill="none" stroke="midnightblue" d="M238.58,-580.8C239.96,-635.21 251.69,-788.07 338,-865 354.24,-879.47 378.46,-884.07 398.11,-885.13"/>
<polygon fill="midnightblue" stroke="midnightblue" points="242.08,-580.69 238.43,-570.74 235.08,-580.8 242.08,-580.69"/>
</g>
<!-- Node88 -->
<g id="node36" class="node">
<title>Node88</title>
<g id="a_node36"><a xlink:href="classSignalIntegrity_1_1Lib_1_1SParameters_1_1SParameterFile_1_1SParameterFile.xhtml" target="_top" xlink:title="class for s&#45;parameters read from a file">
<polygon fill="white" stroke="black" points="387,-836.5 387,-855.5 477,-855.5 477,-836.5 387,-836.5"/>
<text text-anchor="middle" x="432" y="-843.5" font-family="Helvetica,sans-Serif" font-size="10.00">SParameterFile</text>
</a>
</g>
</g>
<!-- Node56&#45;&gt;Node88 -->
<g id="edge35" class="edge">
<title>Node56&#45;&gt;Node88</title>
<path fill="none" stroke="midnightblue" d="M239.62,-580.62C243.58,-630.22 261.15,-761.32 338,-827 351.4,-838.46 369.85,-843.65 386.78,-845.83"/>
<polygon fill="midnightblue" stroke="midnightblue" points="243.11,-580.32 238.93,-570.59 236.13,-580.81 243.11,-580.32"/>
</g>
<!-- Node62 -->
<g id="node8" class="node">
<title>Node62</title>
<g id="a_node8"><a xlink:href="classSignalIntegrity_1_1Lib_1_1Measurement_1_1CalKit_1_1Standards_1_1ThruStandard_1_1ThruStandard.xhtml" target="_top" xlink:title="Class providing the s&#45;parameters of a thru standard as commonly defined for a calibration kit.">
<polygon fill="white" stroke="black" points="591,-646.5 591,-665.5 673,-665.5 673,-646.5 591,-646.5"/>
<text text-anchor="middle" x="632" y="-653.5" font-family="Helvetica,sans-Serif" font-size="10.00">ThruStandard</text>
</a>
</g>
</g>
<!-- Node61&#45;&gt;Node62 -->
<g id="edge7" class="edge">
<title>Node61&#45;&gt;Node62</title>
<path fill="none" stroke="midnightblue" d="M466.13,-656C500.43,-656 554.05,-656 590.77,-656"/>
<polygon fill="midnightblue" stroke="midnightblue" points="465.71,-652.5 455.71,-656 465.71,-659.5 465.71,-652.5"/>
</g>
<!-- Node66 -->
<g id="node14" class="node">
<title>Node66</title>
<g id="a_node14"><a xlink:href="classSignalIntegrity_1_1Lib_1_1SParameters_1_1Devices_1_1ClassicalFilter_1_1BesselLowPassFilter.xhtml" target="_top" xlink:title="Bessel low pass filter.">
<polygon fill="white" stroke="black" points="574.5,-513.5 574.5,-532.5 689.5,-532.5 689.5,-513.5 574.5,-513.5"/>
<text text-anchor="middle" x="632" y="-520.5" font-family="Helvetica,sans-Serif" font-size="10.00">BesselLowPassFilter</text>
</a>
</g>
</g>
<!-- Node65&#45;&gt;Node66 -->
<g id="edge13" class="edge">
<title>Node65&#45;&gt;Node66</title>
<path fill="none" stroke="midnightblue" d="M484.25,-537.08C511.82,-534.44 545.89,-531.17 574.26,-528.44"/>
<polygon fill="midnightblue" stroke="midnightblue" points="483.65,-533.62 474.03,-538.06 484.31,-540.59 483.65,-533.62"/>
</g>
<!-- Node67 -->
<g id="node15" class="node">
<title>Node67</title>
<g id="a_node15"><a xlink:href="classSignalIntegrity_1_1Lib_1_1SParameters_1_1Devices_1_1ClassicalFilter_1_1ButterworthLowPassFilter.xhtml" target="_top" xlink:title="Butterworth Low pass filter.">
<polygon fill="white" stroke="black" points="562,-551.5 562,-570.5 702,-570.5 702,-551.5 562,-551.5"/>
<text text-anchor="middle" x="632" y="-558.5" font-family="Helvetica,sans-Serif" font-size="10.00">ButterworthLowPassFilter</text>
</a>
</g>
</g>
<!-- Node65&#45;&gt;Node67 -->
<g id="edge14" class="edge">
<title>Node65&#45;&gt;Node67</title>
<path fill="none" stroke="midnightblue" d="M484.2,-546.91C507.9,-549.19 536.4,-551.92 561.96,-554.37"/>
<polygon fill="midnightblue" stroke="midnightblue" points="484.31,-543.41 474.03,-545.94 483.65,-550.38 484.31,-543.41"/>
</g>
<!-- Node87 -->
<g id="node35" class="node">
<title>Node87</title>
<g id="a_node35"><a xlink:href="classSignalIntegrity_1_1Lib_1_1SParameters_1_1Devices_1_1WElement_1_1WElementFile.xhtml" target="_top" xlink:title="W element file.">
<polygon fill="white" stroke="black" points="590.5,-874.5 590.5,-893.5 673.5,-893.5 673.5,-874.5 590.5,-874.5"/>
<text text-anchor="middle" x="632" y="-881.5" font-family="Helvetica,sans-Serif" font-size="10.00">WElementFile</text>
</a>
</g>
</g>
<!-- Node86&#45;&gt;Node87 -->
<g id="edge34" class="edge">
<title>Node86&#45;&gt;Node87</title>
<path fill="none" stroke="midnightblue" d="M475.79,-884C509.77,-884 556.96,-884 590.37,-884"/>
<polygon fill="midnightblue" stroke="midnightblue" points="475.7,-880.5 465.7,-884 475.7,-887.5 475.7,-880.5"/>
</g>
<!-- Node0 -->
<g id="node37" class="node">
<title>Node0</title>
<g id="a_node37"><a xlink:href="classSignalIntegrity_1_1Lib_1_1Measurement_1_1CalKit_1_1Standards_1_1TerminationPolynomial_1_1TerminationPolynomial.xhtml" target="_top" xlink:title="Base class for terminations for calibration standards.">
<polygon fill="white" stroke="black" points="173,-1083.5 173,-1102.5 302,-1102.5 302,-1083.5 173,-1083.5"/>
<text text-anchor="middle" x="237.5" y="-1090.5" font-family="Helvetica,sans-Serif" font-size="10.00">TerminationPolynomial</text>
</a>
</g>
</g>
<!-- Node0&#45;&gt;Node1 -->
<g id="edge36" class="edge">
<title>Node0&#45;&gt;Node1</title>
<path fill="none" stroke="midnightblue" d="M312.45,-1100.3C329.37,-1101.97 347.26,-1103.73 363.87,-1105.37"/>
<polygon fill="midnightblue" stroke="midnightblue" points="312.36,-1096.77 302.07,-1099.27 311.67,-1103.74 312.36,-1096.77"/>
</g>
<!-- Node0&#45;&gt;Node2 -->
<g id="edge37" class="edge">
<title>Node0&#45;&gt;Node2</title>
<path fill="none" stroke="midnightblue" d="M312.14,-1085.73C329.49,-1084.02 347.87,-1082.21 364.86,-1080.53"/>
<polygon fill="midnightblue" stroke="midnightblue" points="311.67,-1082.26 302.07,-1086.73 312.36,-1089.23 311.67,-1082.26"/>
</g>
</g>
</svg>
