<?xml version="1.0" encoding="UTF-8" standalone="no"?>
<!DOCTYPE svg PUBLIC "-//W3C//DTD SVG 1.1//EN"
 "http://www.w3.org/Graphics/SVG/1.1/DTD/svg11.dtd">
<!-- Generated by graphviz version 2.40.1 (20161225.0304)
 -->
<!-- Title: Graphical Class Hierarchy Pages: 1 -->
<svg width="600pt" height="864pt"
 viewBox="0.00 0.00 600.00 864.00" xmlns="http://www.w3.org/2000/svg" xmlns:xlink="http://www.w3.org/1999/xlink">
<g id="graph0" class="graph" transform="scale(1 1) rotate(0) translate(4 860)">
<title>Graphical Class Hierarchy</title>
<polygon fill="#ffffff" stroke="transparent" points="-4,4 -4,-860 596,-860 596,4 -4,4"/>
<!-- Node41 -->
<g id="node1" class="node">
<title>Node41</title>
<g id="a_node1"><a xlink:href="classSignalIntegrity_1_1SParameters_1_1SParameterManipulation_1_1SParameterManipulation.xhtml" target="_top" xlink:title="Class for manipulations on s&#45;parameters involving passivity, causality, etc. ">
<polygon fill="#ffffff" stroke="#000000" points="0,-418.5 0,-437.5 123,-437.5 123,-418.5 0,-418.5"/>
<text text-anchor="middle" x="61.5" y="-425.5" font-family="Helvetica,sans-Serif" font-size="10.00" fill="#000000">SParameterManipulation</text>
</a>
</g>
</g>
<!-- Node42 -->
<g id="node2" class="node">
<title>Node42</title>
<g id="a_node2"><a xlink:href="classSignalIntegrity_1_1SParameters_1_1SParameters_1_1SParameters.xhtml" target="_top" xlink:title="Class containing s&#45;parameters. ">
<polygon fill="#ffffff" stroke="#000000" points="180,-418.5 180,-437.5 254,-437.5 254,-418.5 180,-418.5"/>
<text text-anchor="middle" x="217" y="-425.5" font-family="Helvetica,sans-Serif" font-size="10.00" fill="#000000">SParameters</text>
</a>
</g>
</g>
<!-- Node41&#45;&gt;Node42 -->
<g id="edge1" class="edge">
<title>Node41&#45;&gt;Node42</title>
<path fill="none" stroke="#191970" d="M133.8239,-428C149.79,-428 166.0627,-428 179.9314,-428"/>
<polygon fill="#191970" stroke="#191970" points="133.4046,-424.5001 123.4045,-428 133.4045,-431.5001 133.4046,-424.5001"/>
</g>
<!-- Node43 -->
<g id="node3" class="node">
<title>Node43</title>
<g id="a_node3"><a xlink:href="classSignalIntegrity_1_1ImpedanceProfile_1_1PeeledLaunches_1_1PeeledLaunches.xhtml" target="_top" xlink:title="S&#45;parameters with launches peeled from them. ">
<polygon fill="#ffffff" stroke="#000000" points="351.5,-532.5 351.5,-551.5 440.5,-551.5 440.5,-532.5 351.5,-532.5"/>
<text text-anchor="middle" x="396" y="-539.5" font-family="Helvetica,sans-Serif" font-size="10.00" fill="#000000">PeeledLaunches</text>
</a>
</g>
</g>
<!-- Node42&#45;&gt;Node43 -->
<g id="edge2" class="edge">
<title>Node42&#45;&gt;Node43</title>
<path fill="none" stroke="#191970" d="M229.5826,-445.9224C245.8272,-467.6484 276.181,-503.7379 311,-523 323.3052,-529.8073 337.8876,-534.1762 351.4688,-536.9799"/>
<polygon fill="#191970" stroke="#191970" points="232.2268,-443.6076 223.5126,-437.5816 226.5669,-447.7266 232.2268,-443.6076"/>
</g>
<!-- Node44 -->
<g id="node4" class="node">
<title>Node44</title>
<g id="a_node4"><a xlink:href="classSignalIntegrity_1_1ImpedanceProfile_1_1PeeledPortSParameters_1_1PeeledPortSParameters.xhtml" target="_top" xlink:title="s&#45;parameters of peeled impedance profile from port calculates the impedance profile looking into a po...">
<polygon fill="#ffffff" stroke="#000000" points="335,-494.5 335,-513.5 457,-513.5 457,-494.5 335,-494.5"/>
<text text-anchor="middle" x="396" y="-501.5" font-family="Helvetica,sans-Serif" font-size="10.00" fill="#000000">PeeledPortSParameters</text>
</a>
</g>
</g>
<!-- Node42&#45;&gt;Node44 -->
<g id="edge3" class="edge">
<title>Node42&#45;&gt;Node44</title>
<path fill="none" stroke="#191970" d="M237.8838,-443.4085C256.2715,-456.2858 284.2195,-474.2256 311,-485 320.399,-488.7814 330.7004,-491.8849 340.7881,-494.4064"/>
<polygon fill="#191970" stroke="#191970" points="239.8447,-440.508 229.672,-437.5471 235.778,-446.2056 239.8447,-440.508"/>
</g>
<!-- Node45 -->
<g id="node5" class="node">
<title>Node45</title>
<g id="a_node5"><a xlink:href="classSignalIntegrity_1_1Measurement_1_1CalKit_1_1Standards_1_1LoadStandard_1_1LoadStandard.xhtml" target="_top" xlink:title="Class providing the s&#45;parameters of a load standard as commonly defined for a calibration kit...">
<polygon fill="#ffffff" stroke="#000000" points="357.5,-456.5 357.5,-475.5 434.5,-475.5 434.5,-456.5 357.5,-456.5"/>
<text text-anchor="middle" x="396" y="-463.5" font-family="Helvetica,sans-Serif" font-size="10.00" fill="#000000">LoadStandard</text>
</a>
</g>
</g>
<!-- Node42&#45;&gt;Node45 -->
<g id="edge4" class="edge">
<title>Node42&#45;&gt;Node45</title>
<path fill="none" stroke="#191970" d="M264.0292,-437.9839C293.132,-444.1621 330.0344,-451.9961 357.4127,-457.8083"/>
<polygon fill="#191970" stroke="#191970" points="264.5978,-434.5266 254.0889,-435.8736 263.1441,-441.374 264.5978,-434.5266"/>
</g>
<!-- Node46 -->
<g id="node6" class="node">
<title>Node46</title>
<g id="a_node6"><a xlink:href="classSignalIntegrity_1_1Measurement_1_1CalKit_1_1Standards_1_1Offset_1_1Offset.xhtml" target="_top" xlink:title="class providing the s&#45;parameters of an offset portion of the various calibration standards for a cali...">
<polygon fill="#ffffff" stroke="#000000" points="374,-418.5 374,-437.5 418,-437.5 418,-418.5 374,-418.5"/>
<text text-anchor="middle" x="396" y="-425.5" font-family="Helvetica,sans-Serif" font-size="10.00" fill="#000000">Offset</text>
</a>
</g>
</g>
<!-- Node42&#45;&gt;Node46 -->
<g id="edge5" class="edge">
<title>Node42&#45;&gt;Node46</title>
<path fill="none" stroke="#191970" d="M264.2284,-428C299.7045,-428 346.6838,-428 373.901,-428"/>
<polygon fill="#191970" stroke="#191970" points="264.089,-424.5001 254.0889,-428 264.0889,-431.5001 264.089,-424.5001"/>
</g>
<!-- Node48 -->
<g id="node8" class="node">
<title>Node48</title>
<g id="a_node8"><a xlink:href="classSignalIntegrity_1_1Measurement_1_1CalKit_1_1Standards_1_1OpenStandard_1_1OpenStandard.xhtml" target="_top" xlink:title="class providing the s&#45;parameters of an open standard as commonly defined for a calibration kit...">
<polygon fill="#ffffff" stroke="#000000" points="356.5,-380.5 356.5,-399.5 435.5,-399.5 435.5,-380.5 356.5,-380.5"/>
<text text-anchor="middle" x="396" y="-387.5" font-family="Helvetica,sans-Serif" font-size="10.00" fill="#000000">OpenStandard</text>
</a>
</g>
</g>
<!-- Node42&#45;&gt;Node48 -->
<g id="edge7" class="edge">
<title>Node42&#45;&gt;Node48</title>
<path fill="none" stroke="#191970" d="M263.9246,-418.0384C292.7128,-411.9269 329.1633,-404.1888 356.4753,-398.3907"/>
<polygon fill="#191970" stroke="#191970" points="263.1441,-414.626 254.0889,-420.1264 264.5978,-421.4734 263.1441,-414.626"/>
</g>
<!-- Node49 -->
<g id="node9" class="node">
<title>Node49</title>
<g id="a_node9"><a xlink:href="classSignalIntegrity_1_1Measurement_1_1CalKit_1_1Standards_1_1ShortStandard_1_1ShortStandard.xhtml" target="_top" xlink:title="Class providing the s&#45;parameters of a short standard as commonly defined for a calibration kit...">
<polygon fill="#ffffff" stroke="#000000" points="356.5,-342.5 356.5,-361.5 435.5,-361.5 435.5,-342.5 356.5,-342.5"/>
<text text-anchor="middle" x="396" y="-349.5" font-family="Helvetica,sans-Serif" font-size="10.00" fill="#000000">ShortStandard</text>
</a>
</g>
</g>
<!-- Node42&#45;&gt;Node49 -->
<g id="edge8" class="edge">
<title>Node42&#45;&gt;Node49</title>
<path fill="none" stroke="#191970" d="M237.8838,-412.5915C256.2715,-399.7142 284.2195,-381.7744 311,-371 325.3089,-365.2432 341.7094,-361.0576 356.2631,-358.105"/>
<polygon fill="#191970" stroke="#191970" points="235.778,-409.7944 229.672,-418.4529 239.8447,-415.492 235.778,-409.7944"/>
</g>
<!-- Node1 -->
<g id="node10" class="node">
<title>Node1</title>
<g id="a_node10"><a xlink:href="classSignalIntegrity_1_1Measurement_1_1CalKit_1_1Standards_1_1TerminationPolynomial_1_1TerminationCPolynomial.xhtml" target="_top" xlink:title="Class for capacitive terminations for open calibration standards. ">
<polygon fill="#ffffff" stroke="#000000" points="334.5,-798.5 334.5,-817.5 457.5,-817.5 457.5,-798.5 334.5,-798.5"/>
<text text-anchor="middle" x="396" y="-805.5" font-family="Helvetica,sans-Serif" font-size="10.00" fill="#000000">TerminationCPolynomial</text>
</a>
</g>
</g>
<!-- Node42&#45;&gt;Node1 -->
<g id="edge9" class="edge">
<title>Node42&#45;&gt;Node1</title>
<path fill="none" stroke="#191970" d="M219.4822,-448.1237C228.3565,-516.8066 260.6874,-740.4093 311,-789 317.5261,-795.3027 325.6622,-799.6947 334.2952,-802.7254"/>
<polygon fill="#191970" stroke="#191970" points="222.9065,-447.3042 218.1786,-437.8228 215.9619,-448.1831 222.9065,-447.3042"/>
</g>
<!-- Node2 -->
<g id="node11" class="node">
<title>Node2</title>
<g id="a_node11"><a xlink:href="classSignalIntegrity_1_1Measurement_1_1CalKit_1_1Standards_1_1TerminationPolynomial_1_1TerminationLPolynomial.xhtml" target="_top" xlink:title="Class for inductive terminations for short calibration standards. ">
<polygon fill="#ffffff" stroke="#000000" points="335.5,-836.5 335.5,-855.5 456.5,-855.5 456.5,-836.5 335.5,-836.5"/>
<text text-anchor="middle" x="396" y="-843.5" font-family="Helvetica,sans-Serif" font-size="10.00" fill="#000000">TerminationLPolynomial</text>
</a>
</g>
</g>
<!-- Node42&#45;&gt;Node2 -->
<g id="edge10" class="edge">
<title>Node42&#45;&gt;Node2</title>
<path fill="none" stroke="#191970" d="M218.9192,-447.8374C226.3717,-520.7331 255.7538,-772.3831 311,-827 317.7746,-833.6974 326.3626,-838.2491 335.4612,-841.3056"/>
<polygon fill="#191970" stroke="#191970" points="222.3864,-447.3336 217.9108,-437.7305 215.421,-448.0286 222.3864,-447.3336"/>
</g>
<!-- Node50 -->
<g id="node12" class="node">
<title>Node50</title>
<g id="a_node12"><a xlink:href="classSignalIntegrity_1_1SParameters_1_1Devices_1_1MixedModeTline_1_1MixedModeTLine.xhtml" target="_top" xlink:title="s&#45;parameters of a mixed&#45;mode, balanced transmission line ">
<polygon fill="#ffffff" stroke="#000000" points="350.5,-304.5 350.5,-323.5 441.5,-323.5 441.5,-304.5 350.5,-304.5"/>
<text text-anchor="middle" x="396" y="-311.5" font-family="Helvetica,sans-Serif" font-size="10.00" fill="#000000">MixedModeTLine</text>
</a>
</g>
</g>
<!-- Node42&#45;&gt;Node50 -->
<g id="edge11" class="edge">
<title>Node42&#45;&gt;Node50</title>
<path fill="none" stroke="#191970" d="M229.5826,-410.0776C245.8272,-388.3516 276.181,-352.2621 311,-333 322.9083,-326.4123 336.9492,-322.1082 350.1515,-319.2963"/>
<polygon fill="#191970" stroke="#191970" points="226.5669,-408.2734 223.5126,-418.4184 232.2268,-412.3924 226.5669,-408.2734"/>
</g>
<!-- Node51 -->
<g id="node13" class="node">
<title>Node51</title>
<g id="a_node13"><a xlink:href="classSignalIntegrity_1_1SParameters_1_1Devices_1_1Mutual_1_1Mutual.xhtml" target="_top" xlink:title="s&#45;parameters of a mutual inductance ">
<polygon fill="#ffffff" stroke="#000000" points="373,-266.5 373,-285.5 419,-285.5 419,-266.5 373,-266.5"/>
<text text-anchor="middle" x="396" y="-273.5" font-family="Helvetica,sans-Serif" font-size="10.00" fill="#000000">Mutual</text>
</a>
</g>
</g>
<!-- Node42&#45;&gt;Node51 -->
<g id="edge12" class="edge">
<title>Node42&#45;&gt;Node51</title>
<path fill="none" stroke="#191970" d="M224.9648,-408.9477C238.2564,-379.6109 267.8286,-323.7639 311,-295 329.4982,-282.6752 354.7792,-278.2398 372.954,-276.6972"/>
<polygon fill="#191970" stroke="#191970" points="221.6064,-407.8924 220.8094,-418.4572 228.0207,-410.6953 221.6064,-407.8924"/>
</g>
<!-- Node52 -->
<g id="node14" class="node">
<title>Node52</title>
<g id="a_node14"><a xlink:href="classSignalIntegrity_1_1SParameters_1_1Devices_1_1SeriesC_1_1SeriesC.xhtml" target="_top" xlink:title="s&#45;parameters of a series capacitance ">
<polygon fill="#ffffff" stroke="#000000" points="370,-228.5 370,-247.5 422,-247.5 422,-228.5 370,-228.5"/>
<text text-anchor="middle" x="396" y="-235.5" font-family="Helvetica,sans-Serif" font-size="10.00" fill="#000000">SeriesC</text>
</a>
</g>
</g>
<!-- Node42&#45;&gt;Node52 -->
<g id="edge13" class="edge">
<title>Node42&#45;&gt;Node52</title>
<path fill="none" stroke="#191970" d="M221.915,-408.6741C232.0829,-372.8148 258.9519,-296.0804 311,-257 327.9287,-244.289 351.7628,-239.7983 369.8866,-238.3384"/>
<polygon fill="#191970" stroke="#191970" points="218.5157,-407.8368 219.2862,-418.4036 225.2734,-409.6627 218.5157,-407.8368"/>
</g>
<!-- Node53 -->
<g id="node15" class="node">
<title>Node53</title>
<g id="a_node15"><a xlink:href="classSignalIntegrity_1_1SParameters_1_1Devices_1_1SeriesL_1_1SeriesL.xhtml" target="_top" xlink:title="s&#45;parameters of a series inductance ">
<polygon fill="#ffffff" stroke="#000000" points="371,-190.5 371,-209.5 421,-209.5 421,-190.5 371,-190.5"/>
<text text-anchor="middle" x="396" y="-197.5" font-family="Helvetica,sans-Serif" font-size="10.00" fill="#000000">SeriesL</text>
</a>
</g>
</g>
<!-- Node42&#45;&gt;Node53 -->
<g id="edge14" class="edge">
<title>Node42&#45;&gt;Node53</title>
<path fill="none" stroke="#191970" d="M219.9025,-408.2535C227.1361,-366.4426 249.9895,-268.7446 311,-219 327.7587,-205.3359 352.3171,-201.0086 370.7323,-199.8508"/>
<polygon fill="#191970" stroke="#191970" points="216.4249,-407.8349 218.2894,-418.2644 223.3357,-408.9485 216.4249,-407.8349"/>
</g>
<!-- Node54 -->
<g id="node16" class="node">
<title>Node54</title>
<g id="a_node16"><a xlink:href="classSignalIntegrity_1_1SParameters_1_1Devices_1_1SeriesRse_1_1SeriesRse.xhtml" target="_top" xlink:title="s&#45;parameters of series skin&#45;effect Resistance ">
<polygon fill="#ffffff" stroke="#000000" points="365,-152.5 365,-171.5 427,-171.5 427,-152.5 365,-152.5"/>
<text text-anchor="middle" x="396" y="-159.5" font-family="Helvetica,sans-Serif" font-size="10.00" fill="#000000">SeriesRse</text>
</a>
</g>
</g>
<!-- Node42&#45;&gt;Node54 -->
<g id="edge15" class="edge">
<title>Node42&#45;&gt;Node54</title>
<path fill="none" stroke="#191970" d="M218.3781,-408.3092C222.7734,-361.2966 240.6566,-241.8958 311,-181 325.7478,-168.233 347.2159,-163.5082 364.8867,-161.9624"/>
<polygon fill="#191970" stroke="#191970" points="214.8807,-408.1338 217.5441,-418.3883 221.8569,-408.7111 214.8807,-408.1338"/>
</g>
<!-- Node55 -->
<g id="node17" class="node">
<title>Node55</title>
<g id="a_node17"><a xlink:href="classSignalIntegrity_1_1SParameters_1_1Devices_1_1TerminationC_1_1TerminationC.xhtml" target="_top" xlink:title="s&#45;parameters of a termination (one&#45;port) capacitance ">
<polygon fill="#ffffff" stroke="#000000" points="358.5,-114.5 358.5,-133.5 433.5,-133.5 433.5,-114.5 358.5,-114.5"/>
<text text-anchor="middle" x="396" y="-121.5" font-family="Helvetica,sans-Serif" font-size="10.00" fill="#000000">TerminationC</text>
</a>
</g>
</g>
<!-- Node42&#45;&gt;Node55 -->
<g id="edge16" class="edge">
<title>Node42&#45;&gt;Node55</title>
<path fill="none" stroke="#191970" d="M220.9268,-408.046C232.843,-349.4841 270.2753,-179.8921 311,-143 323.7755,-131.4268 342.0286,-126.3932 358.3473,-124.3699"/>
<polygon fill="#191970" stroke="#191970" points="217.424,-407.7129 218.8904,-418.2058 224.2875,-409.0887 217.424,-407.7129"/>
</g>
<!-- Node56 -->
<g id="node18" class="node">
<title>Node56</title>
<g id="a_node18"><a xlink:href="classSignalIntegrity_1_1SParameters_1_1Devices_1_1TerminationL_1_1TerminationL.xhtml" target="_top" xlink:title="s&#45;parameters of a termination (one&#45;port) inductance ">
<polygon fill="#ffffff" stroke="#000000" points="359.5,-76.5 359.5,-95.5 432.5,-95.5 432.5,-76.5 359.5,-76.5"/>
<text text-anchor="middle" x="396" y="-83.5" font-family="Helvetica,sans-Serif" font-size="10.00" fill="#000000">TerminationL</text>
</a>
</g>
</g>
<!-- Node42&#45;&gt;Node56 -->
<g id="edge17" class="edge">
<title>Node42&#45;&gt;Node56</title>
<path fill="none" stroke="#191970" d="M220.0605,-408.3508C230.3163,-345.0053 265.406,-147.7962 311,-105 323.8994,-92.8921 342.7626,-87.8829 359.4438,-86.0128"/>
<polygon fill="#191970" stroke="#191970" points="216.6002,-407.8249 218.4848,-418.2507 223.5132,-408.9252 216.6002,-407.8249"/>
</g>
<!-- Node57 -->
<g id="node19" class="node">
<title>Node57</title>
<g id="a_node19"><a xlink:href="classSignalIntegrity_1_1SParameters_1_1Devices_1_1TLineDifferentialRLGC_1_1TLineDifferentialRLGC.xhtml" target="_top" xlink:title="s&#45;parameters of differential RLGC (telegrapher&#39;s) transmission line ">
<polygon fill="#ffffff" stroke="#000000" points="338,-38.5 338,-57.5 454,-57.5 454,-38.5 338,-38.5"/>
<text text-anchor="middle" x="396" y="-45.5" font-family="Helvetica,sans-Serif" font-size="10.00" fill="#000000">TLineDifferentialRLGC</text>
</a>
</g>
</g>
<!-- Node42&#45;&gt;Node57 -->
<g id="edge18" class="edge">
<title>Node42&#45;&gt;Node57</title>
<path fill="none" stroke="#191970" d="M219.4822,-407.8763C228.3565,-339.1934 260.6874,-115.5907 311,-67 318.3962,-59.8569 327.8605,-55.1681 337.7723,-52.1336"/>
<polygon fill="#191970" stroke="#191970" points="215.9619,-407.8169 218.1786,-418.1772 222.9065,-408.6958 215.9619,-407.8169"/>
</g>
<!-- Node58 -->
<g id="node20" class="node">
<title>Node58</title>
<g id="a_node20"><a xlink:href="classSignalIntegrity_1_1SParameters_1_1Devices_1_1TLineDifferentialRLGCApproximate_1_1TLineDifferentialRLGCApproximate.xhtml" target="_top" xlink:title="s&#45;parameters of differential RLGC (telegrapher&#39;s) transmission line calculated by approximating distr...">
<polygon fill="#ffffff" stroke="#000000" points="311,-.5 311,-19.5 481,-19.5 481,-.5 311,-.5"/>
<text text-anchor="middle" x="396" y="-7.5" font-family="Helvetica,sans-Serif" font-size="10.00" fill="#000000">TLineDifferentialRLGCApproximate</text>
</a>
</g>
</g>
<!-- Node42&#45;&gt;Node58 -->
<g id="edge19" class="edge">
<title>Node42&#45;&gt;Node58</title>
<path fill="none" stroke="#191970" d="M218.9192,-408.1626C226.3717,-335.2669 255.7538,-83.6169 311,-29 314.7637,-25.2792 319.087,-22.2207 323.7467,-19.7129"/>
<polygon fill="#191970" stroke="#191970" points="215.421,-407.9714 217.9108,-418.2695 222.3864,-408.6664 215.421,-407.9714"/>
</g>
<!-- Node59 -->
<g id="node21" class="node">
<title>Node59</title>
<g id="a_node21"><a xlink:href="classSignalIntegrity_1_1SParameters_1_1Devices_1_1TLineDifferentialRLGCBalanced_1_1TLineDifferentialRLGCBalanced.xhtml" target="_top" xlink:title="s&#45;parameters of analytic balanced differential RLGC (telegrapher&#39;s) transmission line. ">
<polygon fill="#ffffff" stroke="#000000" points="318,-760.5 318,-779.5 474,-779.5 474,-760.5 318,-760.5"/>
<text text-anchor="middle" x="396" y="-767.5" font-family="Helvetica,sans-Serif" font-size="10.00" fill="#000000">TLineDifferentialRLGCBalanced</text>
</a>
</g>
</g>
<!-- Node42&#45;&gt;Node59 -->
<g id="edge20" class="edge">
<title>Node42&#45;&gt;Node59</title>
<path fill="none" stroke="#191970" d="M220.0605,-447.6492C230.3163,-510.9947 265.406,-708.2038 311,-751 315.0793,-754.829 319.755,-757.9481 324.7696,-760.4824"/>
<polygon fill="#191970" stroke="#191970" points="223.5132,-447.0748 218.4848,-437.7493 216.6002,-448.1751 223.5132,-447.0748"/>
</g>
<!-- Node60 -->
<g id="node22" class="node">
<title>Node60</title>
<g id="a_node22"><a xlink:href="classSignalIntegrity_1_1SParameters_1_1Devices_1_1TLineDifferentialRLGCUncoupled_1_1TLineDifferentialRLGCUncoupled.xhtml" target="_top" xlink:title="s&#45;parameters of analytic uncoupled differential RLGC (telegrapher&#39;s) transmission line...">
<polygon fill="#ffffff" stroke="#000000" points="315,-722.5 315,-741.5 477,-741.5 477,-722.5 315,-722.5"/>
<text text-anchor="middle" x="396" y="-729.5" font-family="Helvetica,sans-Serif" font-size="10.00" fill="#000000">TLineDifferentialRLGCUncoupled</text>
</a>
</g>
</g>
<!-- Node42&#45;&gt;Node60 -->
<g id="edge21" class="edge">
<title>Node42&#45;&gt;Node60</title>
<path fill="none" stroke="#191970" d="M220.9268,-447.954C232.843,-506.5159 270.2753,-676.1079 311,-713 315.1464,-716.7562 319.8699,-719.8235 324.9169,-722.3226"/>
<polygon fill="#191970" stroke="#191970" points="224.2875,-446.9113 218.8904,-437.7942 217.424,-448.2871 224.2875,-446.9113"/>
</g>
<!-- Node61 -->
<g id="node23" class="node">
<title>Node61</title>
<g id="a_node23"><a xlink:href="classSignalIntegrity_1_1SParameters_1_1Devices_1_1TLineLossless_1_1TLineLossless.xhtml" target="_top" xlink:title="s&#45;parameters of ideal lossless single&#45;ended transmission line ">
<polygon fill="#ffffff" stroke="#000000" points="356,-684.5 356,-703.5 436,-703.5 436,-684.5 356,-684.5"/>
<text text-anchor="middle" x="396" y="-691.5" font-family="Helvetica,sans-Serif" font-size="10.00" fill="#000000">TLineLossless</text>
</a>
</g>
</g>
<!-- Node42&#45;&gt;Node61 -->
<g id="edge22" class="edge">
<title>Node42&#45;&gt;Node61</title>
<path fill="none" stroke="#191970" d="M218.3781,-447.6908C222.7734,-494.7034 240.6566,-614.1042 311,-675 323.2326,-685.5897 340.0889,-690.6463 355.5667,-692.9452"/>
<polygon fill="#191970" stroke="#191970" points="221.8569,-447.2889 217.5441,-437.6117 214.8807,-447.8662 221.8569,-447.2889"/>
</g>
<!-- Node62 -->
<g id="node24" class="node">
<title>Node62</title>
<g id="a_node24"><a xlink:href="classSignalIntegrity_1_1SParameters_1_1Devices_1_1TLineTwoPortRLGC_1_1TLineTwoPortRLGC.xhtml" target="_top" xlink:title="s&#45;parameters of single&#45;ended RLGC (telegraphers) transmission line ">
<polygon fill="#ffffff" stroke="#000000" points="343.5,-646.5 343.5,-665.5 448.5,-665.5 448.5,-646.5 343.5,-646.5"/>
<text text-anchor="middle" x="396" y="-653.5" font-family="Helvetica,sans-Serif" font-size="10.00" fill="#000000">TLineTwoPortRLGC</text>
</a>
</g>
</g>
<!-- Node42&#45;&gt;Node62 -->
<g id="edge23" class="edge">
<title>Node42&#45;&gt;Node62</title>
<path fill="none" stroke="#191970" d="M219.9025,-447.7465C227.1361,-489.5574 249.9895,-587.2554 311,-637 320.1411,-644.4532 331.6028,-649.1284 343.1223,-652.0266"/>
<polygon fill="#191970" stroke="#191970" points="223.3357,-447.0515 218.2894,-437.7356 216.4249,-448.1651 223.3357,-447.0515"/>
</g>
<!-- Node63 -->
<g id="node25" class="node">
<title>Node63</title>
<g id="a_node25"><a xlink:href="classSignalIntegrity_1_1SParameters_1_1Devices_1_1TLineTwoPortRLGCAnalytic_1_1TLineTwoPortRLGCAnalytic.xhtml" target="_top" xlink:title="s&#45;parameters of analytic single&#45;ended telegraphers transmission line ">
<polygon fill="#ffffff" stroke="#000000" points="326,-608.5 326,-627.5 466,-627.5 466,-608.5 326,-608.5"/>
<text text-anchor="middle" x="396" y="-615.5" font-family="Helvetica,sans-Serif" font-size="10.00" fill="#000000">TLineTwoPortRLGCAnalytic</text>
</a>
</g>
</g>
<!-- Node42&#45;&gt;Node63 -->
<g id="edge24" class="edge">
<title>Node42&#45;&gt;Node63</title>
<path fill="none" stroke="#191970" d="M221.915,-447.3259C232.0829,-483.1852 258.9519,-559.9196 311,-599 316.0786,-602.8133 321.7787,-605.8868 327.7597,-608.3605"/>
<polygon fill="#191970" stroke="#191970" points="225.2734,-446.3373 219.2862,-437.5964 218.5157,-448.1632 225.2734,-446.3373"/>
</g>
<!-- Node64 -->
<g id="node26" class="node">
<title>Node64</title>
<g id="a_node26"><a xlink:href="classSignalIntegrity_1_1SParameters_1_1SParameterFile_1_1SParameterFile.xhtml" target="_top" xlink:title="class for s&#45;parameters read from a file ">
<polygon fill="#ffffff" stroke="#000000" points="354,-570.5 354,-589.5 438,-589.5 438,-570.5 354,-570.5"/>
<text text-anchor="middle" x="396" y="-577.5" font-family="Helvetica,sans-Serif" font-size="10.00" fill="#000000">SParameterFile</text>
</a>
</g>
</g>
<!-- Node42&#45;&gt;Node64 -->
<g id="edge25" class="edge">
<title>Node42&#45;&gt;Node64</title>
<path fill="none" stroke="#191970" d="M224.9648,-447.0523C238.2564,-476.3891 267.8286,-532.2361 311,-561 323.5838,-569.3842 339.3065,-574.1175 353.7957,-576.7727"/>
<polygon fill="#191970" stroke="#191970" points="228.0207,-445.3047 220.8094,-437.5428 221.6064,-448.1076 228.0207,-445.3047"/>
</g>
<!-- Node47 -->
<g id="node7" class="node">
<title>Node47</title>
<g id="a_node7"><a xlink:href="classSignalIntegrity_1_1Measurement_1_1CalKit_1_1Standards_1_1ThruStandard_1_1ThruStandard.xhtml" target="_top" xlink:title="Class providing the s&#45;parameters of a thru standard as commonly defined for a calibration kit...">
<polygon fill="#ffffff" stroke="#000000" points="517,-418.5 517,-437.5 592,-437.5 592,-418.5 517,-418.5"/>
<text text-anchor="middle" x="554.5" y="-425.5" font-family="Helvetica,sans-Serif" font-size="10.00" fill="#000000">ThruStandard</text>
</a>
</g>
</g>
<!-- Node46&#45;&gt;Node47 -->
<g id="edge6" class="edge">
<title>Node46&#45;&gt;Node47</title>
<path fill="none" stroke="#191970" d="M428.3466,-428C453.9908,-428 489.8703,-428 516.8121,-428"/>
<polygon fill="#191970" stroke="#191970" points="428.0388,-424.5001 418.0387,-428 428.0387,-431.5001 428.0388,-424.5001"/>
</g>
<!-- Node0 -->
<g id="node27" class="node">
<title>Node0</title>
<g id="a_node27"><a xlink:href="classSignalIntegrity_1_1Measurement_1_1CalKit_1_1Standards_1_1TerminationPolynomial_1_1TerminationPolynomial.xhtml" target="_top" xlink:title="Base class for terminations for calibration standards. ">
<polygon fill="#ffffff" stroke="#000000" points="159,-817.5 159,-836.5 275,-836.5 275,-817.5 159,-817.5"/>
<text text-anchor="middle" x="217" y="-824.5" font-family="Helvetica,sans-Serif" font-size="10.00" fill="#000000">TerminationPolynomial</text>
</a>
</g>
</g>
<!-- Node0&#45;&gt;Node1 -->
<g id="edge26" class="edge">
<title>Node0&#45;&gt;Node1</title>
<path fill="none" stroke="#191970" d="M285.0772,-819.7739C301.3159,-818.0503 318.5542,-816.2205 334.4786,-814.5302"/>
<polygon fill="#191970" stroke="#191970" points="284.6908,-816.2952 275.1162,-820.8312 285.4298,-823.2561 284.6908,-816.2952"/>
</g>
<!-- Node0&#45;&gt;Node2 -->
<g id="edge27" class="edge">
<title>Node0&#45;&gt;Node2</title>
<path fill="none" stroke="#191970" d="M285.2403,-834.2434C301.7477,-835.9956 319.2792,-837.8564 335.4075,-839.5684"/>
<polygon fill="#191970" stroke="#191970" points="285.4298,-830.7439 275.1162,-833.1688 284.6908,-837.7048 285.4298,-830.7439"/>
</g>
</g>
</svg>
