<?xml version="1.0" encoding="UTF-8" standalone="no"?>
<!DOCTYPE svg PUBLIC "-//W3C//DTD SVG 1.1//EN"
 "http://www.w3.org/Graphics/SVG/1.1/DTD/svg11.dtd">
<!-- Generated by graphviz version 2.43.0 (0)
 -->
<!-- Title: Graphical Class Hierarchy Pages: 1 -->
<svg width="795pt" height="273pt"
 viewBox="0.00 0.00 795.00 273.40" xmlns="http://www.w3.org/2000/svg" xmlns:xlink="http://www.w3.org/1999/xlink">
<g id="graph0" class="graph" transform="scale(1 1) rotate(0) translate(4 269.4)">
<title>Graphical Class Hierarchy</title>
<polygon fill="white" stroke="transparent" points="-4,4 -4,-269.4 791,-269.4 791,4 -4,4"/>
<!-- Node113 -->
<g id="node1" class="node">
<title>Node113</title>
<g id="a_node1"><a xlink:href="classSignalIntegrity_1_1Lib_1_1CallBacker_1_1CallBacker.xhtml" target="_top" xlink:title="Handles Callbacks that allow progress reporting during long calculations and capability to abort.">
<polygon fill="white" stroke="black" points="297,-76.5 297,-95.5 365,-95.5 365,-76.5 297,-76.5"/>
<text text-anchor="middle" x="331" y="-83.5" font-family="Helvetica,sans-Serif" font-size="10.00">CallBacker</text>
</a>
</g>
</g>
<!-- Node114 -->
<g id="node2" class="node">
<title>Node114</title>
<g id="a_node2"><a xlink:href="classSignalIntegrity_1_1Lib_1_1Fit_1_1LevMar_1_1LevMar.xhtml" target="_top" xlink:title="Implements the Levenberg&#45;Marquardt algorithm for non&#45;linear fitting &#160;&#160;To use this class,...">
<polygon fill="white" stroke="black" points="474,-38.5 474,-57.5 527,-57.5 527,-38.5 474,-38.5"/>
<text text-anchor="middle" x="500.5" y="-45.5" font-family="Helvetica,sans-Serif" font-size="10.00">LevMar</text>
</a>
</g>
</g>
<!-- Node113&#45;&gt;Node114 -->
<g id="edge1" class="edge">
<title>Node113&#45;&gt;Node114</title>
<path fill="none" stroke="midnightblue" d="M374.87,-76.27C406.17,-69.17 447.56,-59.78 473.87,-53.82"/>
<polygon fill="midnightblue" stroke="midnightblue" points="374.07,-72.87 365.09,-78.49 375.62,-79.69 374.07,-72.87"/>
</g>
<!-- Node2 -->
<g id="node4" class="node">
<title>Node2</title>
<g id="a_node4"><a xlink:href="classSignalIntegrity_1_1Lib_1_1Parsers_1_1CalibrationNumericParser_1_1CalibrationNumericParser.xhtml" target="_top" xlink:title="generates a calibration from a netlist">
<polygon fill="white" stroke="black" points="429.5,-76.5 429.5,-95.5 571.5,-95.5 571.5,-76.5 429.5,-76.5"/>
<text text-anchor="middle" x="500.5" y="-83.5" font-family="Helvetica,sans-Serif" font-size="10.00">CalibrationNumericParser</text>
</a>
</g>
</g>
<!-- Node113&#45;&gt;Node2 -->
<g id="edge3" class="edge">
<title>Node113&#45;&gt;Node2</title>
<path fill="none" stroke="midnightblue" d="M375.48,-86C391.94,-86 411.13,-86 429.42,-86"/>
<polygon fill="midnightblue" stroke="midnightblue" points="375.09,-82.5 365.09,-86 375.09,-89.5 375.09,-82.5"/>
</g>
<!-- Node3 -->
<g id="node5" class="node">
<title>Node3</title>
<g id="a_node5"><a xlink:href="classSignalIntegrity_1_1Lib_1_1Parsers_1_1DeembedderNumericParser_1_1DeembedderNumericParser.xhtml" target="_top" xlink:title="generates deembedd s&#45;parameters from a netlist">
<polygon fill="white" stroke="black" points="424.5,-190.5 424.5,-209.5 576.5,-209.5 576.5,-190.5 424.5,-190.5"/>
<text text-anchor="middle" x="500.5" y="-197.5" font-family="Helvetica,sans-Serif" font-size="10.00">DeembedderNumericParser</text>
</a>
</g>
</g>
<!-- Node113&#45;&gt;Node3 -->
<g id="edge4" class="edge">
<title>Node113&#45;&gt;Node3</title>
<path fill="none" stroke="midnightblue" d="M374.47,-97.17C378.64,-99.34 382.59,-101.92 386,-105 413.77,-130.02 393.04,-157.37 422,-181 426.72,-184.85 432.11,-187.94 437.8,-190.42"/>
<polygon fill="midnightblue" stroke="midnightblue" points="375.66,-93.87 365.1,-93.05 372.85,-100.28 375.66,-93.87"/>
</g>
<!-- Node4 -->
<g id="node6" class="node">
<title>Node4</title>
<g id="a_node6"><a xlink:href="classSignalIntegrity_1_1Lib_1_1Parsers_1_1SimulatorNumericParser_1_1SimulatorNumericParser.xhtml" target="_top" xlink:title="performs numeric simulations from netlists">
<polygon fill="white" stroke="black" points="432.5,-114.5 432.5,-133.5 568.5,-133.5 568.5,-114.5 432.5,-114.5"/>
<text text-anchor="middle" x="500.5" y="-121.5" font-family="Helvetica,sans-Serif" font-size="10.00">SimulatorNumericParser</text>
</a>
</g>
</g>
<!-- Node113&#45;&gt;Node4 -->
<g id="edge5" class="edge">
<title>Node113&#45;&gt;Node4</title>
<path fill="none" stroke="midnightblue" d="M375.16,-95.79C400.51,-101.54 432.41,-108.78 457.55,-114.48"/>
<polygon fill="midnightblue" stroke="midnightblue" points="375.62,-92.31 365.09,-93.51 374.07,-99.13 375.62,-92.31"/>
</g>
<!-- Node6 -->
<g id="node8" class="node">
<title>Node6</title>
<g id="a_node8"><a xlink:href="classSignalIntegrity_1_1Lib_1_1Parsers_1_1SystemSParametersParser_1_1SystemSParametersNumericParser.xhtml" target="_top" xlink:title="generates system s&#45;parameters from a netlist">
<polygon fill="white" stroke="black" points="422,-229 422,-259 579,-259 579,-229 422,-229"/>
<text text-anchor="start" x="430" y="-247" font-family="Helvetica,sans-Serif" font-size="10.00">SystemSParametersNumeric</text>
<text text-anchor="middle" x="500.5" y="-236" font-family="Helvetica,sans-Serif" font-size="10.00">Parser</text>
</a>
</g>
</g>
<!-- Node113&#45;&gt;Node6 -->
<g id="edge7" class="edge">
<title>Node113&#45;&gt;Node6</title>
<path fill="none" stroke="midnightblue" d="M374.26,-96.36C378.6,-98.68 382.63,-101.52 386,-105 422.96,-143.18 384.55,-181.31 422,-219 425.89,-222.91 430.39,-226.21 435.23,-228.99"/>
<polygon fill="midnightblue" stroke="midnightblue" points="375.63,-93.14 365.07,-92.29 372.8,-99.54 375.63,-93.14"/>
</g>
<!-- Node8 -->
<g id="node10" class="node">
<title>Node8</title>
<g id="a_node10"><a xlink:href="classSignalIntegrity_1_1Lib_1_1Parsers_1_1VirtualProbeNumericParser_1_1VirtualProbeNumericParser.xhtml" target="_top" xlink:title="performs numeric virtual probing from netlists">
<polygon fill="white" stroke="black" points="426,-152.5 426,-171.5 575,-171.5 575,-152.5 426,-152.5"/>
<text text-anchor="middle" x="500.5" y="-159.5" font-family="Helvetica,sans-Serif" font-size="10.00">VirtualProbeNumericParser</text>
</a>
</g>
</g>
<!-- Node113&#45;&gt;Node8 -->
<g id="edge9" class="edge">
<title>Node113&#45;&gt;Node8</title>
<path fill="none" stroke="midnightblue" d="M374.56,-98.77C378.56,-100.62 382.44,-102.69 386,-105 405.52,-117.66 401.89,-131.31 422,-143 428.71,-146.9 436.19,-150 443.78,-152.47"/>
<polygon fill="midnightblue" stroke="midnightblue" points="375.73,-95.47 365.15,-94.87 373.05,-101.94 375.73,-95.47"/>
</g>
<!-- Node116 -->
<g id="node11" class="node">
<title>Node116</title>
<g id="a_node11"><a xlink:href="classSignalIntegrity_1_1Lib_1_1TimeDomain_1_1Filters_1_1TransferMatricesProcessor_1_1TransferMatricesProcessor.xhtml" target="_top" xlink:title="process transfer matrices &#160;&#160;Usually transfer matrices are produced in simulation and virtual probing ...">
<polygon fill="white" stroke="black" points="427.5,-0.5 427.5,-19.5 573.5,-19.5 573.5,-0.5 427.5,-0.5"/>
<text text-anchor="middle" x="500.5" y="-7.5" font-family="Helvetica,sans-Serif" font-size="10.00">TransferMatricesProcessor</text>
</a>
</g>
</g>
<!-- Node113&#45;&gt;Node116 -->
<g id="edge10" class="edge">
<title>Node113&#45;&gt;Node116</title>
<path fill="none" stroke="midnightblue" d="M374.56,-73.23C378.56,-71.38 382.44,-69.31 386,-67 405.52,-54.34 401.89,-40.69 422,-29 428.71,-25.1 436.19,-22 443.78,-19.53"/>
<polygon fill="midnightblue" stroke="midnightblue" points="373.05,-70.06 365.15,-77.13 375.73,-76.53 373.05,-70.06"/>
</g>
<!-- Node115 -->
<g id="node3" class="node">
<title>Node115</title>
<g id="a_node3"><a xlink:href="classSignalIntegrity_1_1Lib_1_1Fit_1_1RLGC_1_1RLGCFitter.xhtml" target="_top" xlink:title="fits a two&#45;port RLGC transmission line to s&#45;parameters">
<polygon fill="white" stroke="black" points="667,-38.5 667,-57.5 735,-57.5 735,-38.5 667,-38.5"/>
<text text-anchor="middle" x="701" y="-45.5" font-family="Helvetica,sans-Serif" font-size="10.00">RLGCFitter</text>
</a>
</g>
</g>
<!-- Node114&#45;&gt;Node115 -->
<g id="edge2" class="edge">
<title>Node114&#45;&gt;Node115</title>
<path fill="none" stroke="midnightblue" d="M537.33,-48C574.2,-48 631.15,-48 666.96,-48"/>
<polygon fill="midnightblue" stroke="midnightblue" points="537.04,-44.5 527.04,-48 537.04,-51.5 537.04,-44.5"/>
</g>
<!-- Node5 -->
<g id="node7" class="node">
<title>Node5</title>
<g id="a_node7"><a xlink:href="classSignalIntegrity_1_1Lib_1_1Parsers_1_1NetworkAnalyzerSimulationNumericParser_1_1NetworkAnalyzerSimulationNumericParser.xhtml" target="_top" xlink:title="performs numeric simulations from netlists">
<polygon fill="white" stroke="black" points="624.5,-109 624.5,-139 777.5,-139 777.5,-109 624.5,-109"/>
<text text-anchor="start" x="632.5" y="-127" font-family="Helvetica,sans-Serif" font-size="10.00">NetworkAnalyzerSimulation</text>
<text text-anchor="middle" x="701" y="-116" font-family="Helvetica,sans-Serif" font-size="10.00">NumericParser</text>
</a>
</g>
</g>
<!-- Node4&#45;&gt;Node5 -->
<g id="edge6" class="edge">
<title>Node4&#45;&gt;Node5</title>
<path fill="none" stroke="midnightblue" d="M578.91,-124C593.84,-124 609.46,-124 624.33,-124"/>
<polygon fill="midnightblue" stroke="midnightblue" points="578.7,-120.5 568.7,-124 578.7,-127.5 578.7,-120.5"/>
</g>
<!-- Node7 -->
<g id="node9" class="node">
<title>Node7</title>
<g id="a_node9"><a xlink:href="classSignalIntegrity_1_1Lib_1_1Parsers_1_1DUTSParametersNumericParser_1_1DUTSParametersNumericParser.xhtml" target="_top" xlink:title="generates s&#45;parameters of a DUT from a network analyzer model netlist">
<polygon fill="white" stroke="black" points="615,-234.5 615,-253.5 787,-253.5 787,-234.5 615,-234.5"/>
<text text-anchor="middle" x="701" y="-241.5" font-family="Helvetica,sans-Serif" font-size="10.00">DUTSParametersNumericParser</text>
</a>
</g>
</g>
<!-- Node6&#45;&gt;Node7 -->
<g id="edge8" class="edge">
<title>Node6&#45;&gt;Node7</title>
<path fill="none" stroke="midnightblue" d="M589.37,-244C597.85,-244 606.45,-244 614.9,-244"/>
<polygon fill="midnightblue" stroke="midnightblue" points="589.1,-240.5 579.1,-244 589.1,-247.5 589.1,-240.5"/>
</g>
<!-- Node92 -->
<g id="node12" class="node">
<title>Node92</title>
<g id="a_node12"><a xlink:href="classSignalIntegrity_1_1Lib_1_1Parsers_1_1ParserFile_1_1ParserFile.xhtml" target="_top" xlink:title="file handling base class for parsers">
<polygon fill="white" stroke="black" points="0,-190.5 0,-209.5 64,-209.5 64,-190.5 0,-190.5"/>
<text text-anchor="middle" x="32" y="-197.5" font-family="Helvetica,sans-Serif" font-size="10.00">ParserFile</text>
</a>
</g>
</g>
<!-- Node93 -->
<g id="node13" class="node">
<title>Node93</title>
<g id="a_node13"><a xlink:href="classSignalIntegrity_1_1Lib_1_1Parsers_1_1SystemDescriptionParser_1_1SystemDescriptionParser.xhtml" target="_top" xlink:title="Parses netlists and produces system descriptions.">
<polygon fill="white" stroke="black" points="100,-190.5 100,-209.5 240,-209.5 240,-190.5 100,-190.5"/>
<text text-anchor="middle" x="170" y="-197.5" font-family="Helvetica,sans-Serif" font-size="10.00">SystemDescriptionParser</text>
</a>
</g>
</g>
<!-- Node92&#45;&gt;Node93 -->
<g id="edge11" class="edge">
<title>Node92&#45;&gt;Node93</title>
<path fill="none" stroke="midnightblue" d="M74.46,-200C82.56,-200 91.26,-200 99.99,-200"/>
<polygon fill="midnightblue" stroke="midnightblue" points="74.2,-196.5 64.2,-200 74.2,-203.5 74.2,-196.5"/>
</g>
<!-- Node93&#45;&gt;Node6 -->
<g id="edge18" class="edge">
<title>Node93&#45;&gt;Node6</title>
<path fill="none" stroke="midnightblue" d="M191.88,-215.44C212.18,-229.41 244.48,-249 276,-257 325.92,-269.67 384.03,-265.75 428.49,-259.01"/>
<polygon fill="midnightblue" stroke="midnightblue" points="193.89,-212.57 183.7,-209.66 189.85,-218.29 193.89,-212.57"/>
</g>
<!-- Node94 -->
<g id="node14" class="node">
<title>Node94</title>
<g id="a_node14"><a xlink:href="classSignalIntegrity_1_1Lib_1_1Parsers_1_1CalibrationParser_1_1CalibrationParser.xhtml" target="_top" xlink:title="base class for netlist based error terms solutions">
<polygon fill="white" stroke="black" points="280.5,-38.5 280.5,-57.5 381.5,-57.5 381.5,-38.5 280.5,-38.5"/>
<text text-anchor="middle" x="331" y="-45.5" font-family="Helvetica,sans-Serif" font-size="10.00">CalibrationParser</text>
</a>
</g>
</g>
<!-- Node93&#45;&gt;Node94 -->
<g id="edge12" class="edge">
<title>Node93&#45;&gt;Node94</title>
<path fill="none" stroke="midnightblue" d="M234.76,-185.35C236.61,-184.02 238.36,-182.58 240,-181 278.26,-144.13 239.04,-105.18 276,-67 279.73,-63.14 284.29,-60.07 289.17,-57.62"/>
<polygon fill="midnightblue" stroke="midnightblue" points="232.96,-182.35 226.15,-190.46 236.53,-188.37 232.96,-182.35"/>
</g>
<!-- Node95 -->
<g id="node15" class="node">
<title>Node95</title>
<g id="a_node15"><a xlink:href="classSignalIntegrity_1_1Lib_1_1Parsers_1_1DeembedderParser_1_1DeembedderParser.xhtml" target="_top" xlink:title="base class for netlist based deembedding solutions">
<polygon fill="white" stroke="black" points="276,-228.5 276,-247.5 386,-247.5 386,-228.5 276,-228.5"/>
<text text-anchor="middle" x="331" y="-235.5" font-family="Helvetica,sans-Serif" font-size="10.00">DeembedderParser</text>
</a>
</g>
</g>
<!-- Node93&#45;&gt;Node95 -->
<g id="edge14" class="edge">
<title>Node93&#45;&gt;Node95</title>
<path fill="none" stroke="midnightblue" d="M221.08,-211.97C243.36,-217.29 269.23,-223.48 290.17,-228.48"/>
<polygon fill="midnightblue" stroke="midnightblue" points="221.66,-208.51 211.12,-209.59 220.03,-215.32 221.66,-208.51"/>
</g>
<!-- Node96 -->
<g id="node16" class="node">
<title>Node96</title>
<g id="a_node16"><a xlink:href="classSignalIntegrity_1_1Lib_1_1Parsers_1_1SimulatorParser_1_1SimulatorParser.xhtml" target="_top" xlink:title="base class for netlist based simulation solutions">
<polygon fill="white" stroke="black" points="283.5,-114.5 283.5,-133.5 378.5,-133.5 378.5,-114.5 283.5,-114.5"/>
<text text-anchor="middle" x="331" y="-121.5" font-family="Helvetica,sans-Serif" font-size="10.00">SimulatorParser</text>
</a>
</g>
</g>
<!-- Node93&#45;&gt;Node96 -->
<g id="edge16" class="edge">
<title>Node93&#45;&gt;Node96</title>
<path fill="none" stroke="midnightblue" d="M228.59,-186.78C232.56,-185.08 236.4,-183.16 240,-181 259.95,-169.03 256.48,-155.66 276,-143 281.84,-139.21 288.52,-136.08 295.15,-133.52"/>
<polygon fill="midnightblue" stroke="midnightblue" points="227.25,-183.55 219.17,-190.39 229.76,-190.08 227.25,-183.55"/>
</g>
<!-- Node97 -->
<g id="node17" class="node">
<title>Node97</title>
<g id="a_node17"><a xlink:href="classSignalIntegrity_1_1Lib_1_1Parsers_1_1VirtualProbeParser_1_1VirtualProbeParser.xhtml" target="_top" xlink:title="base class for netlist based virtual probing solutions">
<polygon fill="white" stroke="black" points="277.5,-190.5 277.5,-209.5 384.5,-209.5 384.5,-190.5 277.5,-190.5"/>
<text text-anchor="middle" x="331" y="-197.5" font-family="Helvetica,sans-Serif" font-size="10.00">VirtualProbeParser</text>
</a>
</g>
</g>
<!-- Node93&#45;&gt;Node97 -->
<g id="edge19" class="edge">
<title>Node93&#45;&gt;Node97</title>
<path fill="none" stroke="midnightblue" d="M250.49,-200C259.55,-200 268.62,-200 277.21,-200"/>
<polygon fill="midnightblue" stroke="midnightblue" points="250.28,-196.5 240.28,-200 250.28,-203.5 250.28,-196.5"/>
</g>
<!-- Node94&#45;&gt;Node2 -->
<g id="edge13" class="edge">
<title>Node94&#45;&gt;Node2</title>
<path fill="none" stroke="midnightblue" d="M384.12,-59.82C407.73,-65.18 435.28,-71.43 457.54,-76.48"/>
<polygon fill="midnightblue" stroke="midnightblue" points="384.79,-56.39 374.27,-57.59 383.25,-63.21 384.79,-56.39"/>
</g>
<!-- Node95&#45;&gt;Node3 -->
<g id="edge15" class="edge">
<title>Node95&#45;&gt;Node3</title>
<path fill="none" stroke="midnightblue" d="M384.12,-226.18C407.73,-220.82 435.28,-214.57 457.54,-209.52"/>
<polygon fill="midnightblue" stroke="midnightblue" points="383.25,-222.79 374.27,-228.41 384.79,-229.61 383.25,-222.79"/>
</g>
<!-- Node96&#45;&gt;Node4 -->
<g id="edge17" class="edge">
<title>Node96&#45;&gt;Node4</title>
<path fill="none" stroke="midnightblue" d="M388.67,-124C402.73,-124 417.93,-124 432.43,-124"/>
<polygon fill="midnightblue" stroke="midnightblue" points="388.66,-120.5 378.66,-124 388.66,-127.5 388.66,-120.5"/>
</g>
<!-- Node97&#45;&gt;Node8 -->
<g id="edge20" class="edge">
<title>Node97&#45;&gt;Node8</title>
<path fill="none" stroke="midnightblue" d="M384.12,-188.18C407.73,-182.82 435.28,-176.57 457.54,-171.52"/>
<polygon fill="midnightblue" stroke="midnightblue" points="383.25,-184.79 374.27,-190.41 384.79,-191.61 383.25,-184.79"/>
</g>
<!-- Node0 -->
<g id="node18" class="node">
<title>Node0</title>
<g id="a_node18"><a xlink:href="classSignalIntegrity_1_1Lib_1_1ResultsCache_1_1ResultsCache.xhtml" target="_top" xlink:title=" ">
<polygon fill="white" stroke="black" points="128.5,-152.5 128.5,-171.5 211.5,-171.5 211.5,-152.5 128.5,-152.5"/>
<text text-anchor="middle" x="170" y="-159.5" font-family="Helvetica,sans-Serif" font-size="10.00">ResultsCache</text>
</a>
</g>
</g>
<!-- Node1 -->
<g id="node19" class="node">
<title>Node1</title>
<g id="a_node19"><a xlink:href="classSignalIntegrity_1_1Lib_1_1ResultsCache_1_1LinesCache.xhtml" target="_top" xlink:title=" ">
<polygon fill="white" stroke="black" points="295,-152.5 295,-171.5 367,-171.5 367,-152.5 295,-152.5"/>
<text text-anchor="middle" x="331" y="-159.5" font-family="Helvetica,sans-Serif" font-size="10.00">LinesCache</text>
</a>
</g>
</g>
<!-- Node0&#45;&gt;Node1 -->
<g id="edge21" class="edge">
<title>Node0&#45;&gt;Node1</title>
<path fill="none" stroke="midnightblue" d="M221.82,-162C245.67,-162 273.49,-162 294.94,-162"/>
<polygon fill="midnightblue" stroke="midnightblue" points="221.53,-158.5 211.53,-162 221.53,-165.5 221.53,-158.5"/>
</g>
<!-- Node1&#45;&gt;Node2 -->
<g id="edge22" class="edge">
<title>Node1&#45;&gt;Node2</title>
<path fill="none" stroke="midnightblue" d="M376.12,-148.49C379.56,-146.84 382.9,-145.01 386,-143 405.52,-130.34 401.89,-116.69 422,-105 428.71,-101.1 436.19,-98 443.78,-95.53"/>
<polygon fill="midnightblue" stroke="midnightblue" points="374.65,-145.31 366.85,-152.48 377.42,-151.74 374.65,-145.31"/>
</g>
<!-- Node1&#45;&gt;Node3 -->
<g id="edge23" class="edge">
<title>Node1&#45;&gt;Node3</title>
<path fill="none" stroke="midnightblue" d="M377.1,-172.23C402.15,-177.91 433.11,-184.94 457.62,-190.5"/>
<polygon fill="midnightblue" stroke="midnightblue" points="377.64,-168.77 367.11,-169.97 376.09,-175.59 377.64,-168.77"/>
</g>
<!-- Node1&#45;&gt;Node4 -->
<g id="edge24" class="edge">
<title>Node1&#45;&gt;Node4</title>
<path fill="none" stroke="midnightblue" d="M377.1,-151.77C402.15,-146.09 433.11,-139.06 457.62,-133.5"/>
<polygon fill="midnightblue" stroke="midnightblue" points="376.09,-148.41 367.11,-154.03 377.64,-155.23 376.09,-148.41"/>
</g>
<!-- Node1&#45;&gt;Node6 -->
<g id="edge25" class="edge">
<title>Node1&#45;&gt;Node6</title>
<path fill="none" stroke="midnightblue" d="M376.12,-175.51C379.56,-177.16 382.9,-178.99 386,-181 405.52,-193.66 402.32,-206.6 422,-219 428.1,-222.84 434.85,-226.15 441.74,-228.98"/>
<polygon fill="midnightblue" stroke="midnightblue" points="377.42,-172.26 366.85,-171.52 374.65,-178.69 377.42,-172.26"/>
</g>
<!-- Node1&#45;&gt;Node8 -->
<g id="edge26" class="edge">
<title>Node1&#45;&gt;Node8</title>
<path fill="none" stroke="midnightblue" d="M377.12,-162C392.11,-162 409.22,-162 425.79,-162"/>
<polygon fill="midnightblue" stroke="midnightblue" points="377.11,-158.5 367.11,-162 377.11,-165.5 377.11,-158.5"/>
</g>
</g>
</svg>
