<?xml version="1.0" encoding="UTF-8" standalone="no"?>
<!DOCTYPE svg PUBLIC "-//W3C//DTD SVG 1.1//EN"
 "http://www.w3.org/Graphics/SVG/1.1/DTD/svg11.dtd">
<!-- Generated by graphviz version 2.43.0 (0)
 -->
<!-- Title: Graphical Class Hierarchy Pages: 1 -->
<svg width="298pt" height="104pt"
 viewBox="0.00 0.00 298.00 104.00" xmlns="http://www.w3.org/2000/svg" xmlns:xlink="http://www.w3.org/1999/xlink">
<g id="graph0" class="graph" transform="scale(1 1) rotate(0) translate(4 100)">
<title>Graphical Class Hierarchy</title>
<polygon fill="white" stroke="transparent" points="-4,4 -4,-100 294,-100 294,4 -4,4"/>
<!-- Node0 -->
<g id="node1" class="node">
<title>Node0</title>
<g id="a_node1"><a xlink:href="classSignalIntegrity_1_1Lib_1_1FrequencyDomain_1_1FrequencyList_1_1FrequencyList.xhtml" target="_top" xlink:title="Frequency lists.">
<polygon fill="white" stroke="black" points="0,-38.5 0,-57.5 78,-57.5 78,-38.5 0,-38.5"/>
<text text-anchor="middle" x="39" y="-45.5" font-family="Helvetica,sans-Serif" font-size="10.00">FrequencyList</text>
</a>
</g>
</g>
<!-- Node1 -->
<g id="node2" class="node">
<title>Node1</title>
<g id="a_node2"><a xlink:href="classSignalIntegrity_1_1Lib_1_1FrequencyDomain_1_1FrequencyList_1_1EvenlySpacedFrequencyList.xhtml" target="_top" xlink:title="A evenly spaced list of frequencies.">
<polygon fill="white" stroke="black" points="131.5,-76.5 131.5,-95.5 272.5,-95.5 272.5,-76.5 131.5,-76.5"/>
<text text-anchor="middle" x="202" y="-83.5" font-family="Helvetica,sans-Serif" font-size="10.00">EvenlySpacedFrequencyList</text>
</a>
</g>
</g>
<!-- Node0&#45;&gt;Node1 -->
<g id="edge1" class="edge">
<title>Node0&#45;&gt;Node1</title>
<path fill="none" stroke="midnightblue" d="M85.92,-60.07C95.2,-62.43 104.9,-64.84 114,-67 127.54,-70.22 142.31,-73.52 155.77,-76.45"/>
<polygon fill="midnightblue" stroke="midnightblue" points="86.62,-56.63 76.07,-57.54 84.89,-63.41 86.62,-56.63"/>
</g>
<!-- Node2 -->
<g id="node3" class="node">
<title>Node2</title>
<g id="a_node3"><a xlink:href="classSignalIntegrity_1_1Lib_1_1FrequencyDomain_1_1FrequencyList_1_1GenericFrequencyList.xhtml" target="_top" xlink:title="A generic list of frequencies assumed to be not evenly spaced.">
<polygon fill="white" stroke="black" points="146,-38.5 146,-57.5 258,-57.5 258,-38.5 146,-38.5"/>
<text text-anchor="middle" x="202" y="-45.5" font-family="Helvetica,sans-Serif" font-size="10.00">GenericFrequencyList</text>
</a>
</g>
</g>
<!-- Node0&#45;&gt;Node2 -->
<g id="edge2" class="edge">
<title>Node0&#45;&gt;Node2</title>
<path fill="none" stroke="midnightblue" d="M88.2,-48C106.31,-48 127.04,-48 145.75,-48"/>
<polygon fill="midnightblue" stroke="midnightblue" points="88.15,-44.5 78.15,-48 88.15,-51.5 88.15,-44.5"/>
</g>
<!-- Node3 -->
<g id="node4" class="node">
<title>Node3</title>
<g id="a_node4"><a xlink:href="classSignalIntegrity_1_1Lib_1_1FrequencyDomain_1_1FrequencyList_1_1LogarithmicallySpacedFrequencyList.xhtml" target="_top" xlink:title="a logarithmically spaced frequency list">
<polygon fill="white" stroke="black" points="114,-0.5 114,-19.5 290,-19.5 290,-0.5 114,-0.5"/>
<text text-anchor="middle" x="202" y="-7.5" font-family="Helvetica,sans-Serif" font-size="10.00">LogarithmicallySpacedFrequencyList</text>
</a>
</g>
</g>
<!-- Node0&#45;&gt;Node3 -->
<g id="edge3" class="edge">
<title>Node0&#45;&gt;Node3</title>
<path fill="none" stroke="midnightblue" d="M85.92,-35.93C95.2,-33.57 104.9,-31.16 114,-29 127.54,-25.78 142.31,-22.48 155.77,-19.55"/>
<polygon fill="midnightblue" stroke="midnightblue" points="84.89,-32.59 76.07,-38.46 86.62,-39.37 84.89,-32.59"/>
</g>
</g>
</svg>
