<?xml version="1.0" encoding="UTF-8" standalone="no"?>
<!DOCTYPE svg PUBLIC "-//W3C//DTD SVG 1.1//EN"
 "http://www.w3.org/Graphics/SVG/1.1/DTD/svg11.dtd">
<!-- Generated by graphviz version 2.43.0 (0)
 -->
<!-- Title: Graphical Class Hierarchy Pages: 1 -->
<svg width="750pt" height="344pt"
 viewBox="0.00 0.00 750.00 344.00" xmlns="http://www.w3.org/2000/svg" xmlns:xlink="http://www.w3.org/1999/xlink">
<g id="graph0" class="graph" transform="scale(1 1) rotate(0) translate(4 340)">
<title>Graphical Class Hierarchy</title>
<polygon fill="white" stroke="transparent" points="-4,4 -4,-340 746,-340 746,4 -4,4"/>
<!-- Node133 -->
<g id="node1" class="node">
<title>Node133</title>
<g id="a_node1"><a xlink:href="classSignalIntegrity_1_1Lib_1_1CallBacker_1_1CallBacker.xhtml" target="_top" xlink:title="Handles Callbacks that allow progress reporting during long calculations and capability to abort.">
<polygon fill="white" stroke="black" points="283,-190.5 283,-209.5 348,-209.5 348,-190.5 283,-190.5"/>
<text text-anchor="middle" x="315.5" y="-197.5" font-family="Helvetica,sans-Serif" font-size="10.00">CallBacker</text>
</a>
</g>
</g>
<!-- Node1 -->
<g id="node2" class="node">
<title>Node1</title>
<g id="a_node2"><a xlink:href="classSignalIntegrity_1_1Lib_1_1Eye_1_1EyeDiagramBitmap_1_1EyeDiagramBitmap.xhtml" target="_top" xlink:title="Generates the eye diagram bitmap and many associated measurements from it.">
<polygon fill="white" stroke="black" points="423.5,-316.5 423.5,-335.5 524.5,-335.5 524.5,-316.5 423.5,-316.5"/>
<text text-anchor="middle" x="474" y="-323.5" font-family="Helvetica,sans-Serif" font-size="10.00">EyeDiagramBitmap</text>
</a>
</g>
</g>
<!-- Node133&#45;&gt;Node1 -->
<g id="edge1" class="edge">
<title>Node133&#45;&gt;Node1</title>
<path fill="none" stroke="midnightblue" d="M352.6,-214.44C357.5,-217.43 362.15,-220.94 366,-225 393.37,-253.89 371.8,-281.08 402,-307 408.1,-312.24 415.5,-316.05 423.18,-318.81"/>
<polygon fill="midnightblue" stroke="midnightblue" points="354.12,-211.28 343.66,-209.59 350.79,-217.43 354.12,-211.28"/>
</g>
<!-- Node134 -->
<g id="node3" class="node">
<title>Node134</title>
<g id="a_node3"><a xlink:href="classSignalIntegrity_1_1Lib_1_1Fit_1_1LevMar_1_1LevMar.xhtml" target="_top" xlink:title="Implements the Levenberg&#45;Marquardt algorithm for non&#45;linear fitting &#160;&#160;To use this class,...">
<polygon fill="white" stroke="black" points="449.5,-278.5 449.5,-297.5 498.5,-297.5 498.5,-278.5 449.5,-278.5"/>
<text text-anchor="middle" x="474" y="-285.5" font-family="Helvetica,sans-Serif" font-size="10.00">LevMar</text>
</a>
</g>
</g>
<!-- Node133&#45;&gt;Node134 -->
<g id="edge2" class="edge">
<title>Node133&#45;&gt;Node134</title>
<path fill="none" stroke="midnightblue" d="M349.39,-214.17C355.19,-217.33 360.97,-220.97 366,-225 385.7,-240.82 380.77,-255.3 402,-269 416.26,-278.2 434.86,-282.97 449.45,-285.43"/>
<polygon fill="midnightblue" stroke="midnightblue" points="350.87,-210.99 340.37,-209.58 347.7,-217.23 350.87,-210.99"/>
</g>
<!-- Node135 -->
<g id="node4" class="node">
<title>Node135</title>
<g id="a_node4"><a xlink:href="classSignalIntegrity_1_1Lib_1_1FrequencyDomain_1_1TransferMatrices_1_1TransferMatrices.xhtml" target="_top" xlink:title="Class that is used for processing waveforms in simulation.">
<polygon fill="white" stroke="black" points="429,-202.5 429,-221.5 519,-221.5 519,-202.5 429,-202.5"/>
<text text-anchor="middle" x="474" y="-209.5" font-family="Helvetica,sans-Serif" font-size="10.00">TransferMatrices</text>
</a>
</g>
</g>
<!-- Node133&#45;&gt;Node135 -->
<g id="edge3" class="edge">
<title>Node133&#45;&gt;Node135</title>
<path fill="none" stroke="midnightblue" d="M358.44,-203.22C380.22,-204.89 406.83,-206.93 428.92,-208.62"/>
<polygon fill="midnightblue" stroke="midnightblue" points="358.41,-199.7 348.17,-202.43 357.87,-206.68 358.41,-199.7"/>
</g>
<!-- Node3 -->
<g id="node5" class="node">
<title>Node3</title>
<g id="a_node5"><a xlink:href="classSignalIntegrity_1_1Lib_1_1Parsers_1_1CalibrationNumericParser_1_1CalibrationNumericParser.xhtml" target="_top" xlink:title="generates a calibration from a netlist">
<polygon fill="white" stroke="black" points="410,-240.5 410,-259.5 538,-259.5 538,-240.5 410,-240.5"/>
<text text-anchor="middle" x="474" y="-247.5" font-family="Helvetica,sans-Serif" font-size="10.00">CalibrationNumericParser</text>
</a>
</g>
</g>
<!-- Node133&#45;&gt;Node3 -->
<g id="edge4" class="edge">
<title>Node133&#45;&gt;Node3</title>
<path fill="none" stroke="midnightblue" d="M350.71,-213.17C366.26,-218.96 384.95,-225.64 402,-231 412.59,-234.33 424.18,-237.59 434.87,-240.45"/>
<polygon fill="midnightblue" stroke="midnightblue" points="351.59,-209.76 341,-209.52 349.13,-216.32 351.59,-209.76"/>
</g>
<!-- Node4 -->
<g id="node6" class="node">
<title>Node4</title>
<g id="a_node6"><a xlink:href="classSignalIntegrity_1_1Lib_1_1Parsers_1_1DeembedderNumericParser_1_1DeembedderNumericParser.xhtml" target="_top" xlink:title="generates deembedd s&#45;parameters from a netlist">
<polygon fill="white" stroke="black" points="405.5,-76.5 405.5,-95.5 542.5,-95.5 542.5,-76.5 405.5,-76.5"/>
<text text-anchor="middle" x="474" y="-83.5" font-family="Helvetica,sans-Serif" font-size="10.00">DeembedderNumericParser</text>
</a>
</g>
</g>
<!-- Node133&#45;&gt;Node4 -->
<g id="edge5" class="edge">
<title>Node133&#45;&gt;Node4</title>
<path fill="none" stroke="midnightblue" d="M331.52,-182.46C353.68,-156.75 393.44,-111.29 402,-106 408.97,-101.69 416.89,-98.29 424.86,-95.6"/>
<polygon fill="midnightblue" stroke="midnightblue" points="328.62,-180.47 324.75,-190.34 333.93,-185.04 328.62,-180.47"/>
</g>
<!-- Node5 -->
<g id="node7" class="node">
<title>Node5</title>
<g id="a_node7"><a xlink:href="classSignalIntegrity_1_1Lib_1_1Parsers_1_1SimulatorNumericParser_1_1SimulatorNumericParser.xhtml" target="_top" xlink:title="performs numeric simulations from netlists">
<polygon fill="white" stroke="black" points="412.5,-38.5 412.5,-57.5 535.5,-57.5 535.5,-38.5 412.5,-38.5"/>
<text text-anchor="middle" x="474" y="-45.5" font-family="Helvetica,sans-Serif" font-size="10.00">SimulatorNumericParser</text>
</a>
</g>
</g>
<!-- Node133&#45;&gt;Node5 -->
<g id="edge6" class="edge">
<title>Node133&#45;&gt;Node5</title>
<path fill="none" stroke="midnightblue" d="M333.74,-182.71C343.93,-171.89 356.63,-157.34 366,-143 386.44,-111.71 373.29,-90.93 402,-67 406.61,-63.16 411.91,-60.09 417.51,-57.63"/>
<polygon fill="midnightblue" stroke="midnightblue" points="330.95,-180.55 326.53,-190.18 335.99,-185.41 330.95,-180.55"/>
</g>
<!-- Node7 -->
<g id="node9" class="node">
<title>Node7</title>
<g id="a_node9"><a xlink:href="classSignalIntegrity_1_1Lib_1_1Parsers_1_1SystemSParametersParser_1_1SystemSParametersNumericParser.xhtml" target="_top" xlink:title="generates system s&#45;parameters from a netlist">
<polygon fill="white" stroke="black" points="402,-115 402,-145 546,-145 546,-115 402,-115"/>
<text text-anchor="start" x="410" y="-133" font-family="Helvetica,sans-Serif" font-size="10.00">SystemSParametersNumeric</text>
<text text-anchor="middle" x="474" y="-122" font-family="Helvetica,sans-Serif" font-size="10.00">Parser</text>
</a>
</g>
</g>
<!-- Node133&#45;&gt;Node7 -->
<g id="edge8" class="edge">
<title>Node133&#45;&gt;Node7</title>
<path fill="none" stroke="midnightblue" d="M346.55,-185.89C353.01,-182.72 359.77,-179.32 366,-176 382.35,-167.29 385.19,-162.78 402,-155 409.71,-151.43 418.08,-148.07 426.28,-145.03"/>
<polygon fill="midnightblue" stroke="midnightblue" points="344.87,-182.81 337.39,-190.31 347.92,-189.11 344.87,-182.81"/>
</g>
<!-- Node9 -->
<g id="node11" class="node">
<title>Node9</title>
<g id="a_node11"><a xlink:href="classSignalIntegrity_1_1Lib_1_1Parsers_1_1VirtualProbeNumericParser_1_1VirtualProbeNumericParser.xhtml" target="_top" xlink:title="performs numeric virtual probing from netlists">
<polygon fill="white" stroke="black" points="406.5,-0.5 406.5,-19.5 541.5,-19.5 541.5,-0.5 406.5,-0.5"/>
<text text-anchor="middle" x="474" y="-7.5" font-family="Helvetica,sans-Serif" font-size="10.00">VirtualProbeNumericParser</text>
</a>
</g>
</g>
<!-- Node133&#45;&gt;Node9 -->
<g id="edge10" class="edge">
<title>Node133&#45;&gt;Node9</title>
<path fill="none" stroke="midnightblue" d="M334.15,-183.45C344.66,-172.77 357.55,-158.09 366,-143 391.96,-96.64 363.6,-65.73 402,-29 406.06,-25.12 410.82,-22.01 415.92,-19.52"/>
<polygon fill="midnightblue" stroke="midnightblue" points="331.69,-180.96 327.01,-190.47 336.6,-185.95 331.69,-180.96"/>
</g>
<!-- Node136 -->
<g id="node12" class="node">
<title>Node136</title>
<g id="a_node12"><a xlink:href="classSignalIntegrity_1_1Lib_1_1TimeDomain_1_1Filters_1_1TransferMatricesProcessor_1_1TransferMatricesProcessor.xhtml" target="_top" xlink:title="process transfer matrices &#160;&#160;Usually transfer matrices are produced in simulation and virtual probing ...">
<polygon fill="white" stroke="black" points="407,-164.5 407,-183.5 541,-183.5 541,-164.5 407,-164.5"/>
<text text-anchor="middle" x="474" y="-171.5" font-family="Helvetica,sans-Serif" font-size="10.00">TransferMatricesProcessor</text>
</a>
</g>
</g>
<!-- Node133&#45;&gt;Node136 -->
<g id="edge11" class="edge">
<title>Node133&#45;&gt;Node136</title>
<path fill="none" stroke="midnightblue" d="M358.16,-193.08C375.81,-190.15 396.67,-186.68 415.74,-183.51"/>
<polygon fill="midnightblue" stroke="midnightblue" points="357.46,-189.65 348.17,-194.74 358.61,-196.55 357.46,-189.65"/>
</g>
<!-- Node6 -->
<g id="node8" class="node">
<title>Node6</title>
<g id="a_node8"><a xlink:href="classSignalIntegrity_1_1Lib_1_1Parsers_1_1NetworkAnalyzerSimulationNumericParser_1_1NetworkAnalyzerSimulationNumericParser.xhtml" target="_top" xlink:title="performs numeric simulations from netlists">
<polygon fill="white" stroke="black" points="593.5,-33 593.5,-63 730.5,-63 730.5,-33 593.5,-33"/>
<text text-anchor="start" x="601.5" y="-51" font-family="Helvetica,sans-Serif" font-size="10.00">NetworkAnalyzerSimulation</text>
<text text-anchor="middle" x="662" y="-40" font-family="Helvetica,sans-Serif" font-size="10.00">NumericParser</text>
</a>
</g>
</g>
<!-- Node5&#45;&gt;Node6 -->
<g id="edge7" class="edge">
<title>Node5&#45;&gt;Node6</title>
<path fill="none" stroke="midnightblue" d="M545.76,-48C561.37,-48 577.87,-48 593.36,-48"/>
<polygon fill="midnightblue" stroke="midnightblue" points="545.65,-44.5 535.65,-48 545.65,-51.5 545.65,-44.5"/>
</g>
<!-- Node8 -->
<g id="node10" class="node">
<title>Node8</title>
<g id="a_node10"><a xlink:href="classSignalIntegrity_1_1Lib_1_1Parsers_1_1DUTSParametersNumericParser_1_1DUTSParametersNumericParser.xhtml" target="_top" xlink:title="generates s&#45;parameters of a DUT from a network analyzer model netlist">
<polygon fill="white" stroke="black" points="582,-120.5 582,-139.5 742,-139.5 742,-120.5 582,-120.5"/>
<text text-anchor="middle" x="662" y="-127.5" font-family="Helvetica,sans-Serif" font-size="10.00">DUTSParametersNumericParser</text>
</a>
</g>
</g>
<!-- Node7&#45;&gt;Node8 -->
<g id="edge9" class="edge">
<title>Node7&#45;&gt;Node8</title>
<path fill="none" stroke="midnightblue" d="M556.36,-130C564.82,-130 573.42,-130 581.86,-130"/>
<polygon fill="midnightblue" stroke="midnightblue" points="556.11,-126.5 546.11,-130 556.11,-133.5 556.11,-126.5"/>
</g>
<!-- Node113 -->
<g id="node13" class="node">
<title>Node113</title>
<g id="a_node13"><a xlink:href="classSignalIntegrity_1_1Lib_1_1Parsers_1_1ParserArgs_1_1ParserArgs.xhtml" target="_top" xlink:title="argument handling base class for parsers">
<polygon fill="white" stroke="black" points="0,-95.5 0,-114.5 65,-114.5 65,-95.5 0,-95.5"/>
<text text-anchor="middle" x="32.5" y="-102.5" font-family="Helvetica,sans-Serif" font-size="10.00">ParserArgs</text>
</a>
</g>
</g>
<!-- Node107 -->
<g id="node14" class="node">
<title>Node107</title>
<g id="a_node14"><a xlink:href="classSignalIntegrity_1_1Lib_1_1Parsers_1_1SystemDescriptionParser_1_1SystemDescriptionParser.xhtml" target="_top" xlink:title="Parses netlists and produces system descriptions.">
<polygon fill="white" stroke="black" points="101,-76.5 101,-95.5 229,-95.5 229,-76.5 101,-76.5"/>
<text text-anchor="middle" x="165" y="-83.5" font-family="Helvetica,sans-Serif" font-size="10.00">SystemDescriptionParser</text>
</a>
</g>
</g>
<!-- Node113&#45;&gt;Node107 -->
<g id="edge12" class="edge">
<title>Node113&#45;&gt;Node107</title>
<path fill="none" stroke="midnightblue" d="M75.17,-98.93C83.41,-97.73 92.23,-96.45 101,-95.17"/>
<polygon fill="midnightblue" stroke="midnightblue" points="74.48,-95.5 65.09,-100.4 75.49,-102.42 74.48,-95.5"/>
</g>
<!-- Node107&#45;&gt;Node7 -->
<g id="edge19" class="edge">
<title>Node107&#45;&gt;Node7</title>
<path fill="none" stroke="midnightblue" d="M186.06,-101.8C205.12,-115.74 235.23,-135.04 265,-143 310.79,-155.24 364.18,-151.55 405.41,-145.03"/>
<polygon fill="midnightblue" stroke="midnightblue" points="187.97,-98.86 177.88,-95.65 183.76,-104.46 187.97,-98.86"/>
</g>
<!-- Node108 -->
<g id="node15" class="node">
<title>Node108</title>
<g id="a_node15"><a xlink:href="classSignalIntegrity_1_1Lib_1_1Parsers_1_1CalibrationParser_1_1CalibrationParser.xhtml" target="_top" xlink:title="base class for netlist based error terms solutions">
<polygon fill="white" stroke="black" points="269.5,-234.5 269.5,-253.5 361.5,-253.5 361.5,-234.5 269.5,-234.5"/>
<text text-anchor="middle" x="315.5" y="-241.5" font-family="Helvetica,sans-Serif" font-size="10.00">CalibrationParser</text>
</a>
</g>
</g>
<!-- Node107&#45;&gt;Node108 -->
<g id="edge13" class="edge">
<title>Node107&#45;&gt;Node108</title>
<path fill="none" stroke="midnightblue" d="M176.07,-104.61C191.9,-132.46 224.98,-185.34 265,-219 272.44,-225.26 281.72,-230.47 290.22,-234.49"/>
<polygon fill="midnightblue" stroke="midnightblue" points="178.95,-102.59 171.03,-95.55 172.83,-106 178.95,-102.59"/>
</g>
<!-- Node109 -->
<g id="node16" class="node">
<title>Node109</title>
<g id="a_node16"><a xlink:href="classSignalIntegrity_1_1Lib_1_1Parsers_1_1DeembedderParser_1_1DeembedderParser.xhtml" target="_top" xlink:title="base class for netlist based deembedding solutions">
<polygon fill="white" stroke="black" points="265,-76.5 265,-95.5 366,-95.5 366,-76.5 265,-76.5"/>
<text text-anchor="middle" x="315.5" y="-83.5" font-family="Helvetica,sans-Serif" font-size="10.00">DeembedderParser</text>
</a>
</g>
</g>
<!-- Node107&#45;&gt;Node109 -->
<g id="edge15" class="edge">
<title>Node107&#45;&gt;Node109</title>
<path fill="none" stroke="midnightblue" d="M239.45,-86C248.03,-86 256.62,-86 264.77,-86"/>
<polygon fill="midnightblue" stroke="midnightblue" points="239.41,-82.5 229.41,-86 239.41,-89.5 239.41,-82.5"/>
</g>
<!-- Node110 -->
<g id="node17" class="node">
<title>Node110</title>
<g id="a_node17"><a xlink:href="classSignalIntegrity_1_1Lib_1_1Parsers_1_1SimulatorParser_1_1SimulatorParser.xhtml" target="_top" xlink:title="base class for netlist based simulation solutions">
<polygon fill="white" stroke="black" points="272.5,-38.5 272.5,-57.5 358.5,-57.5 358.5,-38.5 272.5,-38.5"/>
<text text-anchor="middle" x="315.5" y="-45.5" font-family="Helvetica,sans-Serif" font-size="10.00">SimulatorParser</text>
</a>
</g>
</g>
<!-- Node107&#45;&gt;Node110 -->
<g id="edge17" class="edge">
<title>Node107&#45;&gt;Node110</title>
<path fill="none" stroke="midnightblue" d="M213.33,-73.89C234.01,-68.6 257.92,-62.48 277.3,-57.52"/>
<polygon fill="midnightblue" stroke="midnightblue" points="212.29,-70.54 203.47,-76.41 214.03,-77.32 212.29,-70.54"/>
</g>
<!-- Node111 -->
<g id="node18" class="node">
<title>Node111</title>
<g id="a_node18"><a xlink:href="classSignalIntegrity_1_1Lib_1_1Parsers_1_1VirtualProbeParser_1_1VirtualProbeParser.xhtml" target="_top" xlink:title="base class for netlist based virtual probing solutions">
<polygon fill="white" stroke="black" points="266.5,-0.5 266.5,-19.5 364.5,-19.5 364.5,-0.5 266.5,-0.5"/>
<text text-anchor="middle" x="315.5" y="-7.5" font-family="Helvetica,sans-Serif" font-size="10.00">VirtualProbeParser</text>
</a>
</g>
</g>
<!-- Node107&#45;&gt;Node111 -->
<g id="edge20" class="edge">
<title>Node107&#45;&gt;Node111</title>
<path fill="none" stroke="midnightblue" d="M189.65,-70.98C209.36,-58.81 238.41,-41.66 265,-29 272.15,-25.6 280.08,-22.34 287.46,-19.51"/>
<polygon fill="midnightblue" stroke="midnightblue" points="187.67,-68.09 181.03,-76.35 191.37,-74.03 187.67,-68.09"/>
</g>
<!-- Node108&#45;&gt;Node3 -->
<g id="edge14" class="edge">
<title>Node108&#45;&gt;Node3</title>
<path fill="none" stroke="midnightblue" d="M371.85,-246.12C384.13,-246.59 397.23,-247.1 409.79,-247.58"/>
<polygon fill="midnightblue" stroke="midnightblue" points="371.89,-242.62 361.77,-245.74 371.62,-249.62 371.89,-242.62"/>
</g>
<!-- Node109&#45;&gt;Node4 -->
<g id="edge16" class="edge">
<title>Node109&#45;&gt;Node4</title>
<path fill="none" stroke="midnightblue" d="M376.22,-86C385.79,-86 395.76,-86 405.49,-86"/>
<polygon fill="midnightblue" stroke="midnightblue" points="376.02,-82.5 366.02,-86 376.02,-89.5 376.02,-82.5"/>
</g>
<!-- Node110&#45;&gt;Node5 -->
<g id="edge18" class="edge">
<title>Node110&#45;&gt;Node5</title>
<path fill="none" stroke="midnightblue" d="M369.19,-48C383.07,-48 398.15,-48 412.4,-48"/>
<polygon fill="midnightblue" stroke="midnightblue" points="368.85,-44.5 358.85,-48 368.85,-51.5 368.85,-44.5"/>
</g>
<!-- Node111&#45;&gt;Node9 -->
<g id="edge21" class="edge">
<title>Node111&#45;&gt;Node9</title>
<path fill="none" stroke="midnightblue" d="M374.79,-10C385.03,-10 395.77,-10 406.22,-10"/>
<polygon fill="midnightblue" stroke="midnightblue" points="374.73,-6.5 364.73,-10 374.73,-13.5 374.73,-6.5"/>
</g>
<!-- Node106 -->
<g id="node19" class="node">
<title>Node106</title>
<g id="a_node19"><a xlink:href="classSignalIntegrity_1_1Lib_1_1Parsers_1_1ParserFile_1_1ParserFile.xhtml" target="_top" xlink:title="file handling base class for parsers">
<polygon fill="white" stroke="black" points="2,-57.5 2,-76.5 63,-76.5 63,-57.5 2,-57.5"/>
<text text-anchor="middle" x="32.5" y="-64.5" font-family="Helvetica,sans-Serif" font-size="10.00">ParserFile</text>
</a>
</g>
</g>
<!-- Node106&#45;&gt;Node107 -->
<g id="edge22" class="edge">
<title>Node106&#45;&gt;Node107</title>
<path fill="none" stroke="midnightblue" d="M73.07,-72.76C81.88,-74.04 91.44,-75.44 100.93,-76.82"/>
<polygon fill="midnightblue" stroke="midnightblue" points="73.51,-69.29 63.11,-71.31 72.5,-76.22 73.51,-69.29"/>
</g>
<!-- Node0 -->
<g id="node20" class="node">
<title>Node0</title>
<g id="a_node20"><a xlink:href="classSignalIntegrity_1_1Lib_1_1ResultsCache_1_1ResultsCache.xhtml" target="_top" xlink:title="base class for results caching">
<polygon fill="white" stroke="black" points="125.5,-204.5 125.5,-223.5 204.5,-223.5 204.5,-204.5 125.5,-204.5"/>
<text text-anchor="middle" x="165" y="-211.5" font-family="Helvetica,sans-Serif" font-size="10.00">ResultsCache</text>
</a>
</g>
</g>
<!-- Node0&#45;&gt;Node1 -->
<g id="edge23" class="edge">
<title>Node0&#45;&gt;Node1</title>
<path fill="none" stroke="midnightblue" d="M192.48,-228.45C212.14,-238.85 239.8,-252.78 265,-263 324.27,-287.03 340.65,-288.95 402,-307 413.02,-310.24 425.06,-313.55 436.05,-316.48"/>
<polygon fill="midnightblue" stroke="midnightblue" points="193.99,-225.29 183.52,-223.67 190.69,-231.46 193.99,-225.29"/>
</g>
<!-- Node2 -->
<g id="node21" class="node">
<title>Node2</title>
<g id="a_node21"><a xlink:href="classSignalIntegrity_1_1Lib_1_1ResultsCache_1_1LinesCache.xhtml" target="_top" xlink:title="Caches results calculated based on netlist lines, as used in all of the parser classes.">
<polygon fill="white" stroke="black" points="281.5,-114.5 281.5,-133.5 349.5,-133.5 349.5,-114.5 281.5,-114.5"/>
<text text-anchor="middle" x="315.5" y="-121.5" font-family="Helvetica,sans-Serif" font-size="10.00">LinesCache</text>
</a>
</g>
</g>
<!-- Node0&#45;&gt;Node2 -->
<g id="edge24" class="edge">
<title>Node0&#45;&gt;Node2</title>
<path fill="none" stroke="midnightblue" d="M190.7,-199.03C221.4,-180.42 272.9,-149.22 298.72,-133.56"/>
<polygon fill="midnightblue" stroke="midnightblue" points="188.63,-196.19 181.89,-204.37 192.26,-202.18 188.63,-196.19"/>
</g>
<!-- Node2&#45;&gt;Node3 -->
<g id="edge25" class="edge">
<title>Node2&#45;&gt;Node3</title>
<path fill="none" stroke="midnightblue" d="M332.47,-141.55C342.38,-152.64 355.24,-167.41 366,-181 382.99,-202.47 379.46,-215.45 402,-231 407.67,-234.91 414.11,-238.02 420.74,-240.49"/>
<polygon fill="midnightblue" stroke="midnightblue" points="334.84,-138.95 325.55,-133.86 329.64,-143.63 334.84,-138.95"/>
</g>
<!-- Node2&#45;&gt;Node4 -->
<g id="edge26" class="edge">
<title>Node2&#45;&gt;Node4</title>
<path fill="none" stroke="midnightblue" d="M359.61,-113.53C382.81,-107.9 411.2,-101.01 433.77,-95.52"/>
<polygon fill="midnightblue" stroke="midnightblue" points="358.58,-110.18 349.69,-115.94 360.23,-116.98 358.58,-110.18"/>
</g>
<!-- Node2&#45;&gt;Node5 -->
<g id="edge27" class="edge">
<title>Node2&#45;&gt;Node5</title>
<path fill="none" stroke="midnightblue" d="M356.82,-110.32C360.02,-108.7 363.12,-106.93 366,-105 385.34,-92.07 382.01,-78.9 402,-67 408.47,-63.15 415.73,-60.06 423.07,-57.6"/>
<polygon fill="midnightblue" stroke="midnightblue" points="355.31,-107.16 347.66,-114.48 358.21,-113.53 355.31,-107.16"/>
</g>
<!-- Node2&#45;&gt;Node7 -->
<g id="edge28" class="edge">
<title>Node2&#45;&gt;Node7</title>
<path fill="none" stroke="midnightblue" d="M359.77,-125.66C372.82,-126.16 387.5,-126.72 401.86,-127.27"/>
<polygon fill="midnightblue" stroke="midnightblue" points="359.82,-122.16 349.69,-125.27 359.55,-129.15 359.82,-122.16"/>
</g>
<!-- Node2&#45;&gt;Node9 -->
<g id="edge29" class="edge">
<title>Node2&#45;&gt;Node9</title>
<path fill="none" stroke="midnightblue" d="M358.57,-110.63C361.23,-108.96 363.74,-107.09 366,-105 393.41,-79.59 373.29,-52.93 402,-29 406.61,-25.16 411.91,-22.09 417.51,-19.63"/>
<polygon fill="midnightblue" stroke="midnightblue" points="356.91,-107.55 349.69,-115.31 360.17,-113.74 356.91,-107.55"/>
</g>
</g>
</svg>
