<?xml version="1.0" encoding="UTF-8" standalone="no"?>
<!DOCTYPE svg PUBLIC "-//W3C//DTD SVG 1.1//EN"
 "http://www.w3.org/Graphics/SVG/1.1/DTD/svg11.dtd">
<!-- Generated by graphviz version 2.43.0 (0)
 -->
<!-- Title: Graphical Class Hierarchy Pages: 1 -->
<svg width="663pt" height="1358pt"
 viewBox="0.00 0.00 663.00 1358.00" xmlns="http://www.w3.org/2000/svg" xmlns:xlink="http://www.w3.org/1999/xlink">
<g id="graph0" class="graph" transform="scale(1 1) rotate(0) translate(4 1354)">
<title>Graphical Class Hierarchy</title>
<polygon fill="white" stroke="transparent" points="-4,4 -4,-1354 659,-1354 659,4 -4,4"/>
<!-- Node60 -->
<g id="node1" class="node">
<title>Node60</title>
<g id="a_node1"><a xlink:href="classSignalIntegrity_1_1Lib_1_1SParameters_1_1SParameterManipulation_1_1SParameterManipulation.xhtml" target="_top" xlink:title="Class for manipulations on s&#45;parameters involving passivity, causality, etc.">
<polygon fill="white" stroke="black" points="0,-665.5 0,-684.5 123,-684.5 123,-665.5 0,-665.5"/>
<text text-anchor="middle" x="61.5" y="-672.5" font-family="Helvetica,sans-Serif" font-size="10.00">SParameterManipulation</text>
</a>
</g>
</g>
<!-- Node61 -->
<g id="node2" class="node">
<title>Node61</title>
<g id="a_node2"><a xlink:href="classSignalIntegrity_1_1Lib_1_1SParameters_1_1SParameters_1_1SParameters.xhtml" target="_top" xlink:title="Class containing s&#45;parameters.">
<polygon fill="white" stroke="black" points="179.5,-665.5 179.5,-684.5 253.5,-684.5 253.5,-665.5 179.5,-665.5"/>
<text text-anchor="middle" x="216.5" y="-672.5" font-family="Helvetica,sans-Serif" font-size="10.00">SParameters</text>
</a>
</g>
</g>
<!-- Node60&#45;&gt;Node61 -->
<g id="edge1" class="edge">
<title>Node60&#45;&gt;Node61</title>
<path fill="none" stroke="midnightblue" d="M133.75,-675C149.6,-675 165.75,-675 179.47,-675"/>
<polygon fill="midnightblue" stroke="midnightblue" points="133.41,-671.5 123.41,-675 133.41,-678.5 133.41,-671.5"/>
</g>
<!-- Node62 -->
<g id="node3" class="node">
<title>Node62</title>
<g id="a_node3"><a xlink:href="classSignalIntegrity_1_1Lib_1_1ImpedanceProfile_1_1PeeledLaunches_1_1PeeledLaunches.xhtml" target="_top" xlink:title="S&#45;parameters with launches peeled from them.">
<polygon fill="white" stroke="black" points="350.5,-1026.5 350.5,-1045.5 439.5,-1045.5 439.5,-1026.5 350.5,-1026.5"/>
<text text-anchor="middle" x="395" y="-1033.5" font-family="Helvetica,sans-Serif" font-size="10.00">PeeledLaunches</text>
</a>
</g>
</g>
<!-- Node61&#45;&gt;Node62 -->
<g id="edge2" class="edge">
<title>Node61&#45;&gt;Node62</title>
<path fill="none" stroke="midnightblue" d="M220.17,-694.91C229.44,-760.95 262.26,-971.21 310,-1017 320.79,-1027.35 335.97,-1032.51 350.46,-1034.96"/>
<polygon fill="midnightblue" stroke="midnightblue" points="223.59,-694.07 218.76,-684.64 216.66,-695.02 223.59,-694.07"/>
</g>
<!-- Node63 -->
<g id="node4" class="node">
<title>Node63</title>
<g id="a_node4"><a xlink:href="classSignalIntegrity_1_1Lib_1_1ImpedanceProfile_1_1PeeledPortSParameters_1_1PeeledPortSParameters.xhtml" target="_top" xlink:title="s&#45;parameters of peeled impedance profile from port calculates the impedance profile looking into a po...">
<polygon fill="white" stroke="black" points="334,-988.5 334,-1007.5 456,-1007.5 456,-988.5 334,-988.5"/>
<text text-anchor="middle" x="395" y="-995.5" font-family="Helvetica,sans-Serif" font-size="10.00">PeeledPortSParameters</text>
</a>
</g>
</g>
<!-- Node61&#45;&gt;Node63 -->
<g id="edge3" class="edge">
<title>Node61&#45;&gt;Node63</title>
<path fill="none" stroke="midnightblue" d="M217.17,-695.01C217.44,-749.37 226.06,-900.97 310,-979 316.68,-985.21 324.95,-989.54 333.66,-992.53"/>
<polygon fill="midnightblue" stroke="midnightblue" points="220.67,-694.69 217.22,-684.68 213.67,-694.66 220.67,-694.69"/>
</g>
<!-- Node64 -->
<g id="node5" class="node">
<title>Node64</title>
<g id="a_node5"><a xlink:href="classSignalIntegrity_1_1Lib_1_1Measurement_1_1Calibration_1_1NetworkAnalyzer_1_1NetworkAnalyzer.xhtml" target="_top" xlink:title="produces calibrated or uncalibrated s&#45;parameters from a network analyzer.">
<polygon fill="white" stroke="black" points="349,-950.5 349,-969.5 441,-969.5 441,-950.5 349,-950.5"/>
<text text-anchor="middle" x="395" y="-957.5" font-family="Helvetica,sans-Serif" font-size="10.00">NetworkAnalyzer</text>
</a>
</g>
</g>
<!-- Node61&#45;&gt;Node64 -->
<g id="edge4" class="edge">
<title>Node61&#45;&gt;Node64</title>
<path fill="none" stroke="midnightblue" d="M218.17,-694.8C220.96,-744.33 235.41,-874.34 310,-941 320.59,-950.46 334.89,-955.52 348.68,-958.14"/>
<polygon fill="midnightblue" stroke="midnightblue" points="221.65,-694.35 217.7,-684.52 214.66,-694.67 221.65,-694.35"/>
</g>
<!-- Node65 -->
<g id="node6" class="node">
<title>Node65</title>
<g id="a_node6"><a xlink:href="classSignalIntegrity_1_1Lib_1_1Measurement_1_1CalKit_1_1Standards_1_1LoadStandard_1_1LoadStandard.xhtml" target="_top" xlink:title="Class providing the s&#45;parameters of a load standard as commonly defined for a calibration kit.">
<polygon fill="white" stroke="black" points="356.5,-912.5 356.5,-931.5 433.5,-931.5 433.5,-912.5 356.5,-912.5"/>
<text text-anchor="middle" x="395" y="-919.5" font-family="Helvetica,sans-Serif" font-size="10.00">LoadStandard</text>
</a>
</g>
</g>
<!-- Node61&#45;&gt;Node65 -->
<g id="edge5" class="edge">
<title>Node61&#45;&gt;Node65</title>
<path fill="none" stroke="midnightblue" d="M219.45,-694.66C224.94,-739.06 244.7,-847.56 310,-903 322.77,-913.84 340.44,-918.83 356.28,-921.02"/>
<polygon fill="midnightblue" stroke="midnightblue" points="222.91,-694.14 218.32,-684.6 215.96,-694.92 222.91,-694.14"/>
</g>
<!-- Node66 -->
<g id="node7" class="node">
<title>Node66</title>
<g id="a_node7"><a xlink:href="classSignalIntegrity_1_1Lib_1_1Measurement_1_1CalKit_1_1Standards_1_1Offset_1_1Offset.xhtml" target="_top" xlink:title="class providing the s&#45;parameters of an offset portion of the various calibration standards for a cali...">
<polygon fill="white" stroke="black" points="373,-874.5 373,-893.5 417,-893.5 417,-874.5 373,-874.5"/>
<text text-anchor="middle" x="395" y="-881.5" font-family="Helvetica,sans-Serif" font-size="10.00">Offset</text>
</a>
</g>
</g>
<!-- Node61&#45;&gt;Node66 -->
<g id="edge6" class="edge">
<title>Node61&#45;&gt;Node66</title>
<path fill="none" stroke="midnightblue" d="M221.23,-694.79C229.67,-733.79 253.99,-820.62 310,-865 327.93,-879.21 354.43,-883.22 372.86,-884.15"/>
<polygon fill="midnightblue" stroke="midnightblue" points="224.61,-693.83 219.18,-684.73 217.75,-695.22 224.61,-693.83"/>
</g>
<!-- Node68 -->
<g id="node9" class="node">
<title>Node68</title>
<g id="a_node9"><a xlink:href="classSignalIntegrity_1_1Lib_1_1Measurement_1_1CalKit_1_1Standards_1_1OpenStandard_1_1OpenStandard.xhtml" target="_top" xlink:title="class providing the s&#45;parameters of an open standard as commonly defined for a calibration kit.">
<polygon fill="white" stroke="black" points="355.5,-836.5 355.5,-855.5 434.5,-855.5 434.5,-836.5 355.5,-836.5"/>
<text text-anchor="middle" x="395" y="-843.5" font-family="Helvetica,sans-Serif" font-size="10.00">OpenStandard</text>
</a>
</g>
</g>
<!-- Node61&#45;&gt;Node68 -->
<g id="edge8" class="edge">
<title>Node61&#45;&gt;Node68</title>
<path fill="none" stroke="midnightblue" d="M223.67,-694.42C235.13,-727.18 262.9,-793.14 310,-827 323.11,-836.43 340.11,-841.28 355.38,-843.74"/>
<polygon fill="midnightblue" stroke="midnightblue" points="226.9,-693.05 220.41,-684.68 220.27,-695.27 226.9,-693.05"/>
</g>
<!-- Node69 -->
<g id="node10" class="node">
<title>Node69</title>
<g id="a_node10"><a xlink:href="classSignalIntegrity_1_1Lib_1_1Measurement_1_1CalKit_1_1Standards_1_1ShortStandard_1_1ShortStandard.xhtml" target="_top" xlink:title="Class providing the s&#45;parameters of a short standard as commonly defined for a calibration kit.">
<polygon fill="white" stroke="black" points="355.5,-798.5 355.5,-817.5 434.5,-817.5 434.5,-798.5 355.5,-798.5"/>
<text text-anchor="middle" x="395" y="-805.5" font-family="Helvetica,sans-Serif" font-size="10.00">ShortStandard</text>
</a>
</g>
</g>
<!-- Node61&#45;&gt;Node69 -->
<g id="edge9" class="edge">
<title>Node61&#45;&gt;Node69</title>
<path fill="none" stroke="midnightblue" d="M227.43,-693.87C241.98,-719.58 271.58,-765.14 310,-789 323.46,-797.36 340.18,-802.06 355.15,-804.69"/>
<polygon fill="midnightblue" stroke="midnightblue" points="230.32,-691.87 222.45,-684.78 224.19,-695.23 230.32,-691.87"/>
</g>
<!-- Node1 -->
<g id="node11" class="node">
<title>Node1</title>
<g id="a_node11"><a xlink:href="classSignalIntegrity_1_1Lib_1_1Measurement_1_1CalKit_1_1Standards_1_1TerminationPolynomial_1_1TerminationCPolynomial.xhtml" target="_top" xlink:title="Class for capacitive terminations for open calibration standards.">
<polygon fill="white" stroke="black" points="334,-1330.5 334,-1349.5 456,-1349.5 456,-1330.5 334,-1330.5"/>
<text text-anchor="middle" x="395" y="-1337.5" font-family="Helvetica,sans-Serif" font-size="10.00">TerminationCPolynomial</text>
</a>
</g>
</g>
<!-- Node61&#45;&gt;Node1 -->
<g id="edge10" class="edge">
<title>Node61&#45;&gt;Node1</title>
<path fill="none" stroke="midnightblue" d="M217.44,-694.96C217.53,-793.46 222.97,-1226.69 310,-1321 316.39,-1327.92 324.72,-1332.59 333.65,-1335.69"/>
<polygon fill="midnightblue" stroke="midnightblue" points="220.94,-694.88 217.44,-684.88 213.94,-694.87 220.94,-694.88"/>
</g>
<!-- Node2 -->
<g id="node12" class="node">
<title>Node2</title>
<g id="a_node12"><a xlink:href="classSignalIntegrity_1_1Lib_1_1Measurement_1_1CalKit_1_1Standards_1_1TerminationPolynomial_1_1TerminationLPolynomial.xhtml" target="_top" xlink:title="Class for inductive terminations for short calibration standards.">
<polygon fill="white" stroke="black" points="335,-1292.5 335,-1311.5 455,-1311.5 455,-1292.5 335,-1292.5"/>
<text text-anchor="middle" x="395" y="-1299.5" font-family="Helvetica,sans-Serif" font-size="10.00">TerminationLPolynomial</text>
</a>
</g>
</g>
<!-- Node61&#45;&gt;Node2 -->
<g id="edge11" class="edge">
<title>Node61&#45;&gt;Node2</title>
<path fill="none" stroke="midnightblue" d="M217.63,-694.97C218.67,-789.92 227.94,-1194.85 310,-1283 316.72,-1290.22 325.56,-1294.98 334.98,-1298.07"/>
<polygon fill="midnightblue" stroke="midnightblue" points="221.13,-694.72 217.54,-684.75 214.13,-694.78 221.13,-694.72"/>
</g>
<!-- Node70 -->
<g id="node13" class="node">
<title>Node70</title>
<g id="a_node13"><a xlink:href="classSignalIntegrity_1_1Lib_1_1Parsers_1_1SParametersParser_1_1SParametersParser.xhtml" target="_top" xlink:title="parses a list of commands to process s&#45;parameters">
<polygon fill="white" stroke="black" points="344,-760.5 344,-779.5 446,-779.5 446,-760.5 344,-760.5"/>
<text text-anchor="middle" x="395" y="-767.5" font-family="Helvetica,sans-Serif" font-size="10.00">SParametersParser</text>
</a>
</g>
</g>
<!-- Node61&#45;&gt;Node70 -->
<g id="edge12" class="edge">
<title>Node61&#45;&gt;Node70</title>
<path fill="none" stroke="midnightblue" d="M233.2,-691.9C250.38,-709.36 279.56,-736.11 310,-751 320.48,-756.13 332.37,-759.89 343.84,-762.65"/>
<polygon fill="midnightblue" stroke="midnightblue" points="235.64,-689.39 226.18,-684.6 230.59,-694.24 235.64,-689.39"/>
</g>
<!-- Node71 -->
<g id="node14" class="node">
<title>Node71</title>
<g id="a_node14"><a xlink:href="classSignalIntegrity_1_1Lib_1_1SParameters_1_1Devices_1_1ClassicalFilter_1_1ClassicalFilter.xhtml" target="_top" xlink:title="Classical filter.">
<polygon fill="white" stroke="black" points="355.5,-722.5 355.5,-741.5 434.5,-741.5 434.5,-722.5 355.5,-722.5"/>
<text text-anchor="middle" x="395" y="-729.5" font-family="Helvetica,sans-Serif" font-size="10.00">ClassicalFilter</text>
</a>
</g>
</g>
<!-- Node61&#45;&gt;Node71 -->
<g id="edge13" class="edge">
<title>Node61&#45;&gt;Node71</title>
<path fill="none" stroke="midnightblue" d="M247.4,-688.78C265.29,-696.64 288.63,-706.25 310,-713 324.54,-717.6 340.83,-721.55 355.17,-724.63"/>
<polygon fill="midnightblue" stroke="midnightblue" points="248.63,-685.49 238.07,-684.62 245.78,-691.89 248.63,-685.49"/>
</g>
<!-- Node74 -->
<g id="node17" class="node">
<title>Node74</title>
<g id="a_node17"><a xlink:href="classSignalIntegrity_1_1Lib_1_1SParameters_1_1Devices_1_1Equalizer_1_1CTLE.xhtml" target="_top" xlink:title="Continuous time linear equalizer.">
<polygon fill="white" stroke="black" points="374,-684.5 374,-703.5 416,-703.5 416,-684.5 374,-684.5"/>
<text text-anchor="middle" x="395" y="-691.5" font-family="Helvetica,sans-Serif" font-size="10.00">CTLE</text>
</a>
</g>
</g>
<!-- Node61&#45;&gt;Node74 -->
<g id="edge16" class="edge">
<title>Node61&#45;&gt;Node74</title>
<path fill="none" stroke="midnightblue" d="M263.84,-679.99C299.56,-683.83 347.22,-688.96 373.83,-691.83"/>
<polygon fill="midnightblue" stroke="midnightblue" points="263.96,-676.48 253.64,-678.89 263.21,-683.44 263.96,-676.48"/>
</g>
<!-- Node75 -->
<g id="node18" class="node">
<title>Node75</title>
<g id="a_node18"><a xlink:href="classSignalIntegrity_1_1Lib_1_1SParameters_1_1Devices_1_1Equalizer_1_1FFE.xhtml" target="_top" xlink:title="Linear feed&#45;forward equalizer.">
<polygon fill="white" stroke="black" points="377.5,-646.5 377.5,-665.5 412.5,-665.5 412.5,-646.5 377.5,-646.5"/>
<text text-anchor="middle" x="395" y="-653.5" font-family="Helvetica,sans-Serif" font-size="10.00">FFE</text>
</a>
</g>
</g>
<!-- Node61&#45;&gt;Node75 -->
<g id="edge17" class="edge">
<title>Node61&#45;&gt;Node75</title>
<path fill="none" stroke="midnightblue" d="M263.78,-670.02C301.03,-666.01 351.3,-660.6 377.13,-657.82"/>
<polygon fill="midnightblue" stroke="midnightblue" points="263.21,-666.56 253.64,-671.11 263.96,-673.52 263.21,-666.56"/>
</g>
<!-- Node78 -->
<g id="node21" class="node">
<title>Node78</title>
<g id="a_node21"><a xlink:href="classSignalIntegrity_1_1Lib_1_1SParameters_1_1Devices_1_1ImpulseResponseFilter_1_1ImpulseResponseFilter.xhtml" target="_top" xlink:title="class for impulse response filter">
<polygon fill="white" stroke="black" points="336.5,-608.5 336.5,-627.5 453.5,-627.5 453.5,-608.5 336.5,-608.5"/>
<text text-anchor="middle" x="395" y="-615.5" font-family="Helvetica,sans-Serif" font-size="10.00">ImpulseResponseFilter</text>
</a>
</g>
</g>
<!-- Node61&#45;&gt;Node78 -->
<g id="edge20" class="edge">
<title>Node61&#45;&gt;Node78</title>
<path fill="none" stroke="midnightblue" d="M247.4,-661.22C265.29,-653.36 288.63,-643.75 310,-637 321.26,-633.44 333.57,-630.27 345.21,-627.58"/>
<polygon fill="midnightblue" stroke="midnightblue" points="245.78,-658.11 238.07,-665.38 248.63,-664.51 245.78,-658.11"/>
</g>
<!-- Node79 -->
<g id="node22" class="node">
<title>Node79</title>
<g id="a_node22"><a xlink:href="classSignalIntegrity_1_1Lib_1_1SParameters_1_1Devices_1_1Laplace_1_1Laplace.xhtml" target="_top" xlink:title="Laplace domain equation.">
<polygon fill="white" stroke="black" points="370,-570.5 370,-589.5 420,-589.5 420,-570.5 370,-570.5"/>
<text text-anchor="middle" x="395" y="-577.5" font-family="Helvetica,sans-Serif" font-size="10.00">Laplace</text>
</a>
</g>
</g>
<!-- Node61&#45;&gt;Node79 -->
<g id="edge21" class="edge">
<title>Node61&#45;&gt;Node79</title>
<path fill="none" stroke="midnightblue" d="M233.2,-658.1C250.38,-640.64 279.56,-613.89 310,-599 328.94,-589.73 352.5,-584.91 369.84,-582.45"/>
<polygon fill="midnightblue" stroke="midnightblue" points="230.59,-655.76 226.18,-665.4 235.64,-660.61 230.59,-655.76"/>
</g>
<!-- Node80 -->
<g id="node23" class="node">
<title>Node80</title>
<g id="a_node23"><a xlink:href="classSignalIntegrity_1_1Lib_1_1SParameters_1_1Devices_1_1MixedModeTline_1_1MixedModeTLine.xhtml" target="_top" xlink:title="s&#45;parameters of a mixed&#45;mode, balanced transmission line">
<polygon fill="white" stroke="black" points="349.5,-532.5 349.5,-551.5 440.5,-551.5 440.5,-532.5 349.5,-532.5"/>
<text text-anchor="middle" x="395" y="-539.5" font-family="Helvetica,sans-Serif" font-size="10.00">MixedModeTLine</text>
</a>
</g>
</g>
<!-- Node61&#45;&gt;Node80 -->
<g id="edge22" class="edge">
<title>Node61&#45;&gt;Node80</title>
<path fill="none" stroke="midnightblue" d="M227.43,-656.13C241.98,-630.42 271.58,-584.86 310,-561 321.69,-553.74 335.82,-549.25 349.14,-546.47"/>
<polygon fill="midnightblue" stroke="midnightblue" points="224.19,-654.77 222.45,-665.22 230.32,-658.13 224.19,-654.77"/>
</g>
<!-- Node81 -->
<g id="node24" class="node">
<title>Node81</title>
<g id="a_node24"><a xlink:href="classSignalIntegrity_1_1Lib_1_1SParameters_1_1Devices_1_1Mutual_1_1Mutual.xhtml" target="_top" xlink:title="s&#45;parameters of a mutual inductance">
<polygon fill="white" stroke="black" points="372,-494.5 372,-513.5 418,-513.5 418,-494.5 372,-494.5"/>
<text text-anchor="middle" x="395" y="-501.5" font-family="Helvetica,sans-Serif" font-size="10.00">Mutual</text>
</a>
</g>
</g>
<!-- Node61&#45;&gt;Node81 -->
<g id="edge23" class="edge">
<title>Node61&#45;&gt;Node81</title>
<path fill="none" stroke="midnightblue" d="M223.67,-655.58C235.13,-622.82 262.9,-556.86 310,-523 328.09,-510 353.58,-505.69 371.72,-504.37"/>
<polygon fill="midnightblue" stroke="midnightblue" points="220.27,-654.73 220.41,-665.32 226.9,-656.95 220.27,-654.73"/>
</g>
<!-- Node82 -->
<g id="node25" class="node">
<title>Node82</title>
<g id="a_node25"><a xlink:href="classSignalIntegrity_1_1Lib_1_1SParameters_1_1Devices_1_1Parallel_1_1Parallel.xhtml" target="_top" xlink:title="s&#45;parameters of two port device placed in parallel with itself multiple times">
<polygon fill="white" stroke="black" points="370.5,-456.5 370.5,-475.5 419.5,-475.5 419.5,-456.5 370.5,-456.5"/>
<text text-anchor="middle" x="395" y="-463.5" font-family="Helvetica,sans-Serif" font-size="10.00">Parallel</text>
</a>
</g>
</g>
<!-- Node61&#45;&gt;Node82 -->
<g id="edge24" class="edge">
<title>Node61&#45;&gt;Node82</title>
<path fill="none" stroke="midnightblue" d="M221.23,-655.21C229.67,-616.21 253.99,-529.38 310,-485 327.11,-471.44 352.02,-467.17 370.28,-466"/>
<polygon fill="midnightblue" stroke="midnightblue" points="217.75,-654.78 219.18,-665.27 224.61,-656.17 217.75,-654.78"/>
</g>
<!-- Node83 -->
<g id="node26" class="node">
<title>Node83</title>
<g id="a_node26"><a xlink:href="classSignalIntegrity_1_1Lib_1_1SParameters_1_1Devices_1_1Series_1_1Series.xhtml" target="_top" xlink:title="s&#45;parameters of two port device placed in series with itself multiple times">
<polygon fill="white" stroke="black" points="373,-418.5 373,-437.5 417,-437.5 417,-418.5 373,-418.5"/>
<text text-anchor="middle" x="395" y="-425.5" font-family="Helvetica,sans-Serif" font-size="10.00">Series</text>
</a>
</g>
</g>
<!-- Node61&#45;&gt;Node83 -->
<g id="edge25" class="edge">
<title>Node61&#45;&gt;Node83</title>
<path fill="none" stroke="midnightblue" d="M219.45,-655.34C224.94,-610.94 244.7,-502.44 310,-447 327.55,-432.1 354.39,-428.25 372.98,-427.55"/>
<polygon fill="midnightblue" stroke="midnightblue" points="215.96,-655.08 218.32,-665.4 222.91,-655.86 215.96,-655.08"/>
</g>
<!-- Node84 -->
<g id="node27" class="node">
<title>Node84</title>
<g id="a_node27"><a xlink:href="classSignalIntegrity_1_1Lib_1_1SParameters_1_1Devices_1_1SeriesC_1_1SeriesC.xhtml" target="_top" xlink:title="s&#45;parameters of a series capacitance">
<polygon fill="white" stroke="black" points="369,-380.5 369,-399.5 421,-399.5 421,-380.5 369,-380.5"/>
<text text-anchor="middle" x="395" y="-387.5" font-family="Helvetica,sans-Serif" font-size="10.00">SeriesC</text>
</a>
</g>
</g>
<!-- Node61&#45;&gt;Node84 -->
<g id="edge26" class="edge">
<title>Node61&#45;&gt;Node84</title>
<path fill="none" stroke="midnightblue" d="M218.17,-655.2C220.96,-605.67 235.41,-475.66 310,-409 325.94,-394.75 350.28,-390.49 368.67,-389.51"/>
<polygon fill="midnightblue" stroke="midnightblue" points="214.66,-655.33 217.7,-665.48 221.65,-655.65 214.66,-655.33"/>
</g>
<!-- Node85 -->
<g id="node28" class="node">
<title>Node85</title>
<g id="a_node28"><a xlink:href="classSignalIntegrity_1_1Lib_1_1SParameters_1_1Devices_1_1SeriesL_1_1SeriesL.xhtml" target="_top" xlink:title="s&#45;parameters of a series inductance">
<polygon fill="white" stroke="black" points="370,-342.5 370,-361.5 420,-361.5 420,-342.5 370,-342.5"/>
<text text-anchor="middle" x="395" y="-349.5" font-family="Helvetica,sans-Serif" font-size="10.00">SeriesL</text>
</a>
</g>
</g>
<!-- Node61&#45;&gt;Node85 -->
<g id="edge27" class="edge">
<title>Node61&#45;&gt;Node85</title>
<path fill="none" stroke="midnightblue" d="M217.17,-654.99C217.44,-600.63 226.06,-449.03 310,-371 325.99,-356.14 351.06,-352.05 369.66,-351.28"/>
<polygon fill="midnightblue" stroke="midnightblue" points="213.67,-655.34 217.22,-665.32 220.67,-655.31 213.67,-655.34"/>
</g>
<!-- Node86 -->
<g id="node29" class="node">
<title>Node86</title>
<g id="a_node29"><a xlink:href="classSignalIntegrity_1_1Lib_1_1SParameters_1_1Devices_1_1SeriesRse_1_1SeriesRse.xhtml" target="_top" xlink:title="s&#45;parameters of series skin&#45;effect Resistance">
<polygon fill="white" stroke="black" points="364,-304.5 364,-323.5 426,-323.5 426,-304.5 364,-304.5"/>
<text text-anchor="middle" x="395" y="-311.5" font-family="Helvetica,sans-Serif" font-size="10.00">SeriesRse</text>
</a>
</g>
</g>
<!-- Node61&#45;&gt;Node86 -->
<g id="edge28" class="edge">
<title>Node61&#45;&gt;Node86</title>
<path fill="none" stroke="midnightblue" d="M220.17,-655.09C229.44,-589.05 262.26,-378.79 310,-333 324.24,-319.34 346.13,-314.71 363.99,-313.44"/>
<polygon fill="midnightblue" stroke="midnightblue" points="216.66,-654.98 218.76,-665.36 223.59,-655.93 216.66,-654.98"/>
</g>
<!-- Node87 -->
<g id="node30" class="node">
<title>Node87</title>
<g id="a_node30"><a xlink:href="classSignalIntegrity_1_1Lib_1_1SParameters_1_1Devices_1_1TerminationC_1_1TerminationC.xhtml" target="_top" xlink:title="s&#45;parameters of a termination (one&#45;port) capacitance">
<polygon fill="white" stroke="black" points="358,-266.5 358,-285.5 432,-285.5 432,-266.5 358,-266.5"/>
<text text-anchor="middle" x="395" y="-273.5" font-family="Helvetica,sans-Serif" font-size="10.00">TerminationC</text>
</a>
</g>
</g>
<!-- Node61&#45;&gt;Node87 -->
<g id="edge29" class="edge">
<title>Node61&#45;&gt;Node87</title>
<path fill="none" stroke="midnightblue" d="M219.59,-655.22C227.43,-584.65 257.39,-346.76 310,-295 322.47,-282.73 341.09,-277.71 357.63,-275.87"/>
<polygon fill="midnightblue" stroke="midnightblue" points="216.08,-655.06 218.48,-665.38 223.04,-655.82 216.08,-655.06"/>
</g>
<!-- Node88 -->
<g id="node31" class="node">
<title>Node88</title>
<g id="a_node31"><a xlink:href="classSignalIntegrity_1_1Lib_1_1SParameters_1_1Devices_1_1TerminationL_1_1TerminationL.xhtml" target="_top" xlink:title="s&#45;parameters of a termination (one&#45;port) inductance">
<polygon fill="white" stroke="black" points="359,-228.5 359,-247.5 431,-247.5 431,-228.5 359,-228.5"/>
<text text-anchor="middle" x="395" y="-235.5" font-family="Helvetica,sans-Serif" font-size="10.00">TerminationL</text>
</a>
</g>
</g>
<!-- Node61&#45;&gt;Node88 -->
<g id="edge30" class="edge">
<title>Node61&#45;&gt;Node88</title>
<path fill="none" stroke="midnightblue" d="M219.12,-655.2C225.65,-580.17 252.52,-314.75 310,-257 322.66,-244.28 341.91,-239.31 358.78,-237.62"/>
<polygon fill="midnightblue" stroke="midnightblue" points="215.63,-654.93 218.27,-665.19 222.6,-655.52 215.63,-654.93"/>
</g>
<!-- Node89 -->
<g id="node32" class="node">
<title>Node89</title>
<g id="a_node32"><a xlink:href="classSignalIntegrity_1_1Lib_1_1SParameters_1_1Devices_1_1TLineDifferentialRLGC_1_1TLineDifferentialRLGC.xhtml" target="_top" xlink:title="s&#45;parameters of differential RLGC (telegrapher&#39;s) transmission line">
<polygon fill="white" stroke="black" points="337,-190.5 337,-209.5 453,-209.5 453,-190.5 337,-190.5"/>
<text text-anchor="middle" x="395" y="-197.5" font-family="Helvetica,sans-Serif" font-size="10.00">TLineDifferentialRLGC</text>
</a>
</g>
</g>
<!-- Node61&#45;&gt;Node89 -->
<g id="edge31" class="edge">
<title>Node61&#45;&gt;Node89</title>
<path fill="none" stroke="midnightblue" d="M218.71,-655.47C223.97,-576.62 247.56,-282.85 310,-219 317.32,-211.52 326.91,-206.71 337,-203.66"/>
<polygon fill="midnightblue" stroke="midnightblue" points="215.21,-655.29 218.06,-665.49 222.2,-655.74 215.21,-655.29"/>
</g>
<!-- Node90 -->
<g id="node33" class="node">
<title>Node90</title>
<g id="a_node33"><a xlink:href="classSignalIntegrity_1_1Lib_1_1SParameters_1_1Devices_1_1TLineDifferentialRLGCApproximate_1_1TLineDifferentialRLGCApproximate.xhtml" target="_top" xlink:title="s&#45;parameters of differential RLGC (telegrapher&#39;s) transmission line calculated by approximating distr...">
<polygon fill="white" stroke="black" points="310,-152.5 310,-171.5 480,-171.5 480,-152.5 310,-152.5"/>
<text text-anchor="middle" x="395" y="-159.5" font-family="Helvetica,sans-Serif" font-size="10.00">TLineDifferentialRLGCApproximate</text>
</a>
</g>
</g>
<!-- Node61&#45;&gt;Node90 -->
<g id="edge32" class="edge">
<title>Node61&#45;&gt;Node90</title>
<path fill="none" stroke="midnightblue" d="M218.4,-654.93C222.58,-571.18 242.79,-250.77 310,-181 313.63,-177.23 317.84,-174.14 322.4,-171.61"/>
<polygon fill="midnightblue" stroke="midnightblue" points="214.9,-654.97 217.92,-665.12 221.89,-655.3 214.9,-654.97"/>
</g>
<!-- Node91 -->
<g id="node34" class="node">
<title>Node91</title>
<g id="a_node34"><a xlink:href="classSignalIntegrity_1_1Lib_1_1SParameters_1_1Devices_1_1TLineDifferentialRLGCBalanced_1_1TLineDifferentialRLGCBalanced.xhtml" target="_top" xlink:title="s&#45;parameters of analytic balanced differential RLGC (telegrapher&#39;s) transmission line.">
<polygon fill="white" stroke="black" points="317,-114.5 317,-133.5 473,-133.5 473,-114.5 317,-114.5"/>
<text text-anchor="middle" x="395" y="-121.5" font-family="Helvetica,sans-Serif" font-size="10.00">TLineDifferentialRLGCBalanced</text>
</a>
</g>
</g>
<!-- Node61&#45;&gt;Node91 -->
<g id="edge33" class="edge">
<title>Node61&#45;&gt;Node91</title>
<path fill="none" stroke="midnightblue" d="M218.1,-655.09C221.17,-567.67 237.82,-218.91 310,-143 313.61,-139.21 317.8,-136.1 322.34,-133.55"/>
<polygon fill="midnightblue" stroke="midnightblue" points="214.6,-655.12 217.77,-665.23 221.6,-655.35 214.6,-655.12"/>
</g>
<!-- Node92 -->
<g id="node35" class="node">
<title>Node92</title>
<g id="a_node35"><a xlink:href="classSignalIntegrity_1_1Lib_1_1SParameters_1_1Devices_1_1TLineDifferentialRLGCUncoupled_1_1TLineDifferentialRLGCUncoupled.xhtml" target="_top" xlink:title="s&#45;parameters of analytic uncoupled differential RLGC (telegrapher&#39;s) transmission line.">
<polygon fill="white" stroke="black" points="314,-76.5 314,-95.5 476,-95.5 476,-76.5 314,-76.5"/>
<text text-anchor="middle" x="395" y="-83.5" font-family="Helvetica,sans-Serif" font-size="10.00">TLineDifferentialRLGCUncoupled</text>
</a>
</g>
</g>
<!-- Node61&#45;&gt;Node92 -->
<g id="edge34" class="edge">
<title>Node61&#45;&gt;Node92</title>
<path fill="none" stroke="midnightblue" d="M217.85,-655.42C219.85,-564.81 232.78,-187.12 310,-105 313.58,-101.19 317.76,-98.06 322.3,-95.51"/>
<polygon fill="midnightblue" stroke="midnightblue" points="214.35,-655.36 217.64,-665.43 221.34,-655.5 214.35,-655.36"/>
</g>
<!-- Node93 -->
<g id="node36" class="node">
<title>Node93</title>
<g id="a_node36"><a xlink:href="classSignalIntegrity_1_1Lib_1_1SParameters_1_1Devices_1_1TLineLossless_1_1TLineLossless.xhtml" target="_top" xlink:title="s&#45;parameters of ideal lossless single&#45;ended transmission line">
<polygon fill="white" stroke="black" points="355,-38.5 355,-57.5 435,-57.5 435,-38.5 355,-38.5"/>
<text text-anchor="middle" x="395" y="-45.5" font-family="Helvetica,sans-Serif" font-size="10.00">TLineLossless</text>
</a>
</g>
</g>
<!-- Node61&#45;&gt;Node93 -->
<g id="edge35" class="edge">
<title>Node61&#45;&gt;Node93</title>
<path fill="none" stroke="midnightblue" d="M217.63,-655.03C218.67,-560.08 227.94,-155.15 310,-67 321.41,-54.74 338.92,-49.57 355,-47.64"/>
<polygon fill="midnightblue" stroke="midnightblue" points="214.13,-655.22 217.54,-665.25 221.13,-655.28 214.13,-655.22"/>
</g>
<!-- Node94 -->
<g id="node37" class="node">
<title>Node94</title>
<g id="a_node37"><a xlink:href="classSignalIntegrity_1_1Lib_1_1SParameters_1_1Devices_1_1TLineLossy_1_1TLineLossy.xhtml" target="_top" xlink:title="s&#45;parameters of ideal lossy single&#45;ended transmission line">
<polygon fill="white" stroke="black" points="361.5,-0.5 361.5,-19.5 428.5,-19.5 428.5,-0.5 361.5,-0.5"/>
<text text-anchor="middle" x="395" y="-7.5" font-family="Helvetica,sans-Serif" font-size="10.00">TLineLossy</text>
</a>
</g>
</g>
<!-- Node61&#45;&gt;Node94 -->
<g id="edge36" class="edge">
<title>Node61&#45;&gt;Node94</title>
<path fill="none" stroke="midnightblue" d="M217.44,-655.04C217.53,-556.54 222.97,-123.31 310,-29 322.88,-15.05 343.65,-10.26 361.32,-8.98"/>
<polygon fill="midnightblue" stroke="midnightblue" points="213.94,-655.13 217.44,-665.12 220.94,-655.12 213.94,-655.13"/>
</g>
<!-- Node95 -->
<g id="node38" class="node">
<title>Node95</title>
<g id="a_node38"><a xlink:href="classSignalIntegrity_1_1Lib_1_1SParameters_1_1Devices_1_1TLineTwoPortCOM_1_1TLineTwoPortCOM.xhtml" target="_top" xlink:title="s&#45;parameters of COM transmission line">
<polygon fill="white" stroke="black" points="345,-1254.5 345,-1273.5 445,-1273.5 445,-1254.5 345,-1254.5"/>
<text text-anchor="middle" x="395" y="-1261.5" font-family="Helvetica,sans-Serif" font-size="10.00">TLineTwoPortCOM</text>
</a>
</g>
</g>
<!-- Node61&#45;&gt;Node95 -->
<g id="edge37" class="edge">
<title>Node61&#45;&gt;Node95</title>
<path fill="none" stroke="midnightblue" d="M217.85,-694.58C219.85,-785.19 232.78,-1162.88 310,-1245 319.01,-1254.59 331.76,-1259.83 344.6,-1262.58"/>
<polygon fill="midnightblue" stroke="midnightblue" points="221.34,-694.5 217.64,-684.57 214.35,-694.64 221.34,-694.5"/>
</g>
<!-- Node96 -->
<g id="node39" class="node">
<title>Node96</title>
<g id="a_node39"><a xlink:href="classSignalIntegrity_1_1Lib_1_1SParameters_1_1Devices_1_1TLineTwoPortRLGC_1_1TLineTwoPortRLGC.xhtml" target="_top" xlink:title="s&#45;parameters of single&#45;ended RLGC (telegraphers) transmission line">
<polygon fill="white" stroke="black" points="343,-1216.5 343,-1235.5 447,-1235.5 447,-1216.5 343,-1216.5"/>
<text text-anchor="middle" x="395" y="-1223.5" font-family="Helvetica,sans-Serif" font-size="10.00">TLineTwoPortRLGC</text>
</a>
</g>
</g>
<!-- Node61&#45;&gt;Node96 -->
<g id="edge38" class="edge">
<title>Node61&#45;&gt;Node96</title>
<path fill="none" stroke="midnightblue" d="M218.1,-694.91C221.17,-782.33 237.82,-1131.09 310,-1207 318.65,-1216.1 330.67,-1221.28 342.92,-1224.12"/>
<polygon fill="midnightblue" stroke="midnightblue" points="221.6,-694.65 217.77,-684.77 214.6,-694.88 221.6,-694.65"/>
</g>
<!-- Node97 -->
<g id="node40" class="node">
<title>Node97</title>
<g id="a_node40"><a xlink:href="classSignalIntegrity_1_1Lib_1_1SParameters_1_1Devices_1_1TLineTwoPortRLGCAnalytic_1_1TLineTwoPortRLGCAnalytic.xhtml" target="_top" xlink:title="s&#45;parameters of analytic single&#45;ended telegraphers transmission line">
<polygon fill="white" stroke="black" points="325,-1178.5 325,-1197.5 465,-1197.5 465,-1178.5 325,-1178.5"/>
<text text-anchor="middle" x="395" y="-1185.5" font-family="Helvetica,sans-Serif" font-size="10.00">TLineTwoPortRLGCAnalytic</text>
</a>
</g>
</g>
<!-- Node61&#45;&gt;Node97 -->
<g id="edge39" class="edge">
<title>Node61&#45;&gt;Node97</title>
<path fill="none" stroke="midnightblue" d="M218.4,-695.07C222.58,-778.82 242.79,-1099.23 310,-1169 314.25,-1173.41 319.3,-1176.9 324.77,-1179.65"/>
<polygon fill="midnightblue" stroke="midnightblue" points="221.89,-694.7 217.92,-684.88 214.9,-695.03 221.89,-694.7"/>
</g>
<!-- Node98 -->
<g id="node41" class="node">
<title>Node98</title>
<g id="a_node41"><a xlink:href="classSignalIntegrity_1_1Lib_1_1SParameters_1_1Devices_1_1TLineTwoPortRLGCApproximate_1_1TLineTwoPortRLGCApproximate.xhtml" target="_top" xlink:title="s&#45;parameters of two port RLGC (telegrapher&#39;s) transmission line calculated by approximating distribut...">
<polygon fill="white" stroke="black" points="315.5,-1140.5 315.5,-1159.5 474.5,-1159.5 474.5,-1140.5 315.5,-1140.5"/>
<text text-anchor="middle" x="395" y="-1147.5" font-family="Helvetica,sans-Serif" font-size="10.00">TLineTwoPortRLGCApproximate</text>
</a>
</g>
</g>
<!-- Node61&#45;&gt;Node98 -->
<g id="edge40" class="edge">
<title>Node61&#45;&gt;Node98</title>
<path fill="none" stroke="midnightblue" d="M218.71,-694.53C223.97,-773.38 247.56,-1067.15 310,-1131 313.66,-1134.74 317.89,-1137.81 322.46,-1140.33"/>
<polygon fill="midnightblue" stroke="midnightblue" points="222.2,-694.26 218.06,-684.51 215.21,-694.71 222.2,-694.26"/>
</g>
<!-- Node99 -->
<g id="node42" class="node">
<title>Node99</title>
<g id="a_node42"><a xlink:href="classSignalIntegrity_1_1Lib_1_1SParameters_1_1Devices_1_1WElement_1_1WElement.xhtml" target="_top" xlink:title="s&#45;parameters of of a W element is calculated by approximating distributed parameters with a finite nu...">
<polygon fill="white" stroke="black" points="364,-1102.5 364,-1121.5 426,-1121.5 426,-1102.5 364,-1102.5"/>
<text text-anchor="middle" x="395" y="-1109.5" font-family="Helvetica,sans-Serif" font-size="10.00">WElement</text>
</a>
</g>
</g>
<!-- Node61&#45;&gt;Node99 -->
<g id="edge41" class="edge">
<title>Node61&#45;&gt;Node99</title>
<path fill="none" stroke="midnightblue" d="M219.12,-694.8C225.65,-769.83 252.52,-1035.25 310,-1093 323.92,-1106.99 345.82,-1111.6 363.77,-1112.79"/>
<polygon fill="midnightblue" stroke="midnightblue" points="222.6,-694.48 218.27,-684.81 215.63,-695.07 222.6,-694.48"/>
</g>
<!-- Node101 -->
<g id="node44" class="node">
<title>Node101</title>
<g id="a_node44"><a xlink:href="classSignalIntegrity_1_1Lib_1_1SParameters_1_1SParameterFile_1_1SParameterFile.xhtml" target="_top" xlink:title="class for s&#45;parameters read from a file">
<polygon fill="white" stroke="black" points="353,-1064.5 353,-1083.5 437,-1083.5 437,-1064.5 353,-1064.5"/>
<text text-anchor="middle" x="395" y="-1071.5" font-family="Helvetica,sans-Serif" font-size="10.00">SParameterFile</text>
</a>
</g>
</g>
<!-- Node61&#45;&gt;Node101 -->
<g id="edge43" class="edge">
<title>Node61&#45;&gt;Node101</title>
<path fill="none" stroke="midnightblue" d="M219.59,-694.78C227.43,-765.35 257.39,-1003.24 310,-1055 321.3,-1066.11 337.64,-1071.28 352.92,-1073.52"/>
<polygon fill="midnightblue" stroke="midnightblue" points="223.04,-694.18 218.48,-684.62 216.08,-694.94 223.04,-694.18"/>
</g>
<!-- Node67 -->
<g id="node8" class="node">
<title>Node67</title>
<g id="a_node8"><a xlink:href="classSignalIntegrity_1_1Lib_1_1Measurement_1_1CalKit_1_1Standards_1_1ThruStandard_1_1ThruStandard.xhtml" target="_top" xlink:title="Class providing the s&#45;parameters of a thru standard as commonly defined for a calibration kit.">
<polygon fill="white" stroke="black" points="548,-874.5 548,-893.5 623,-893.5 623,-874.5 548,-874.5"/>
<text text-anchor="middle" x="585.5" y="-881.5" font-family="Helvetica,sans-Serif" font-size="10.00">ThruStandard</text>
</a>
</g>
</g>
<!-- Node66&#45;&gt;Node67 -->
<g id="edge7" class="edge">
<title>Node66&#45;&gt;Node67</title>
<path fill="none" stroke="midnightblue" d="M427.3,-884C460.46,-884 512.75,-884 547.82,-884"/>
<polygon fill="midnightblue" stroke="midnightblue" points="427.26,-880.5 417.26,-884 427.26,-887.5 427.26,-880.5"/>
</g>
<!-- Node72 -->
<g id="node15" class="node">
<title>Node72</title>
<g id="a_node15"><a xlink:href="classSignalIntegrity_1_1Lib_1_1SParameters_1_1Devices_1_1ClassicalFilter_1_1BesselLowPassFilter.xhtml" target="_top" xlink:title="Bessel low pass filter.">
<polygon fill="white" stroke="black" points="531,-703.5 531,-722.5 640,-722.5 640,-703.5 531,-703.5"/>
<text text-anchor="middle" x="585.5" y="-710.5" font-family="Helvetica,sans-Serif" font-size="10.00">BesselLowPassFilter</text>
</a>
</g>
</g>
<!-- Node71&#45;&gt;Node72 -->
<g id="edge14" class="edge">
<title>Node71&#45;&gt;Node72</title>
<path fill="none" stroke="midnightblue" d="M444.76,-727.09C471.16,-724.42 503.83,-721.13 530.95,-718.4"/>
<polygon fill="midnightblue" stroke="midnightblue" points="444.2,-723.62 434.6,-728.11 444.9,-730.59 444.2,-723.62"/>
</g>
<!-- Node73 -->
<g id="node16" class="node">
<title>Node73</title>
<g id="a_node16"><a xlink:href="classSignalIntegrity_1_1Lib_1_1SParameters_1_1Devices_1_1ClassicalFilter_1_1ButterworthLowPassFilter.xhtml" target="_top" xlink:title="Butterworth Low pass filter.">
<polygon fill="white" stroke="black" points="521,-741.5 521,-760.5 650,-760.5 650,-741.5 521,-741.5"/>
<text text-anchor="middle" x="585.5" y="-748.5" font-family="Helvetica,sans-Serif" font-size="10.00">ButterworthLowPassFilter</text>
</a>
</g>
</g>
<!-- Node71&#45;&gt;Node73 -->
<g id="edge15" class="edge">
<title>Node71&#45;&gt;Node73</title>
<path fill="none" stroke="midnightblue" d="M444.55,-736.89C467.75,-739.23 495.82,-742.06 520.72,-744.57"/>
<polygon fill="midnightblue" stroke="midnightblue" points="444.9,-733.41 434.6,-735.89 444.2,-740.38 444.9,-733.41"/>
</g>
<!-- Node76 -->
<g id="node19" class="node">
<title>Node76</title>
<g id="a_node19"><a xlink:href="classSignalIntegrity_1_1Lib_1_1SParameters_1_1Devices_1_1GaussianRisetimeFilter_1_1GaussianRisetimeFilter.xhtml" target="_top" xlink:title=" ">
<polygon fill="white" stroke="black" points="526,-608.5 526,-627.5 645,-627.5 645,-608.5 526,-608.5"/>
<text text-anchor="middle" x="585.5" y="-615.5" font-family="Helvetica,sans-Serif" font-size="10.00">GaussianRisetimeFilter</text>
</a>
</g>
</g>
<!-- Node75&#45;&gt;Node76 -->
<g id="edge18" class="edge">
<title>Node75&#45;&gt;Node76</title>
<path fill="none" stroke="midnightblue" d="M422.77,-650.6C452.51,-644.61 501.08,-634.82 537.24,-627.53"/>
<polygon fill="midnightblue" stroke="midnightblue" points="421.84,-647.22 412.73,-652.63 423.22,-654.08 421.84,-647.22"/>
</g>
<!-- Node77 -->
<g id="node20" class="node">
<title>Node77</title>
<g id="a_node20"><a xlink:href="classSignalIntegrity_1_1Lib_1_1SParameters_1_1Devices_1_1RaisedCosineRisetimeFilter_1_1RaisedCosineRisetimeFilter.xhtml" target="_top" xlink:title=" ">
<polygon fill="white" stroke="black" points="516,-646.5 516,-665.5 655,-665.5 655,-646.5 516,-646.5"/>
<text text-anchor="middle" x="585.5" y="-653.5" font-family="Helvetica,sans-Serif" font-size="10.00">RaisedCosineRisetimeFilter</text>
</a>
</g>
</g>
<!-- Node75&#45;&gt;Node77 -->
<g id="edge19" class="edge">
<title>Node75&#45;&gt;Node77</title>
<path fill="none" stroke="midnightblue" d="M422.91,-656C447.1,-656 483.68,-656 515.91,-656"/>
<polygon fill="midnightblue" stroke="midnightblue" points="422.73,-652.5 412.73,-656 422.73,-659.5 422.73,-652.5"/>
</g>
<!-- Node100 -->
<g id="node43" class="node">
<title>Node100</title>
<g id="a_node43"><a xlink:href="classSignalIntegrity_1_1Lib_1_1SParameters_1_1Devices_1_1WElement_1_1WElementFile.xhtml" target="_top" xlink:title="W element file.">
<polygon fill="white" stroke="black" points="546.5,-1102.5 546.5,-1121.5 624.5,-1121.5 624.5,-1102.5 546.5,-1102.5"/>
<text text-anchor="middle" x="585.5" y="-1109.5" font-family="Helvetica,sans-Serif" font-size="10.00">WElementFile</text>
</a>
</g>
</g>
<!-- Node99&#45;&gt;Node100 -->
<g id="edge42" class="edge">
<title>Node99&#45;&gt;Node100</title>
<path fill="none" stroke="midnightblue" d="M436.38,-1112C468.98,-1112 514.53,-1112 546.48,-1112"/>
<polygon fill="midnightblue" stroke="midnightblue" points="436.29,-1108.5 426.29,-1112 436.29,-1115.5 436.29,-1108.5"/>
</g>
<!-- Node0 -->
<g id="node45" class="node">
<title>Node0</title>
<g id="a_node45"><a xlink:href="classSignalIntegrity_1_1Lib_1_1Measurement_1_1CalKit_1_1Standards_1_1TerminationPolynomial_1_1TerminationPolynomial.xhtml" target="_top" xlink:title="Base class for terminations for calibration standards.">
<polygon fill="white" stroke="black" points="159,-1311.5 159,-1330.5 274,-1330.5 274,-1311.5 159,-1311.5"/>
<text text-anchor="middle" x="216.5" y="-1318.5" font-family="Helvetica,sans-Serif" font-size="10.00">TerminationPolynomial</text>
</a>
</g>
</g>
<!-- Node0&#45;&gt;Node1 -->
<g id="edge44" class="edge">
<title>Node0&#45;&gt;Node1</title>
<path fill="none" stroke="midnightblue" d="M284.32,-1328.19C300.62,-1329.95 317.97,-1331.82 333.94,-1333.53"/>
<polygon fill="midnightblue" stroke="midnightblue" points="284.63,-1324.71 274.32,-1327.12 283.89,-1331.67 284.63,-1324.71"/>
</g>
<!-- Node0&#45;&gt;Node2 -->
<g id="edge45" class="edge">
<title>Node0&#45;&gt;Node2</title>
<path fill="none" stroke="midnightblue" d="M284.48,-1313.79C301.05,-1312.01 318.69,-1310.11 334.86,-1308.37"/>
<polygon fill="midnightblue" stroke="midnightblue" points="283.89,-1310.33 274.32,-1314.88 284.63,-1317.29 283.89,-1310.33"/>
</g>
</g>
</svg>
