<?xml version="1.0" encoding="UTF-8" standalone="no"?>
<!DOCTYPE svg PUBLIC "-//W3C//DTD SVG 1.1//EN"
 "http://www.w3.org/Graphics/SVG/1.1/DTD/svg11.dtd">
<!-- Generated by graphviz version 2.43.0 (0)
 -->
<!-- Title: Graphical Class Hierarchy Pages: 1 -->
<svg width="227pt" height="180pt"
 viewBox="0.00 0.00 227.00 180.00" xmlns="http://www.w3.org/2000/svg" xmlns:xlink="http://www.w3.org/1999/xlink">
<g id="graph0" class="graph" transform="scale(1 1) rotate(0) translate(4 176)">
<title>Graphical Class Hierarchy</title>
<polygon fill="white" stroke="transparent" points="-4,4 -4,-176 223,-176 223,4 -4,4"/>
<!-- Node0 -->
<g id="node1" class="node">
<title>Node0</title>
<g id="a_node1"><a xlink:href="classSignalIntegrity_1_1Lib_1_1Wavelets_1_1Wavelets_1_1Wavelet.xhtml" target="_top" xlink:title="base class that performs forward and inverse wavelet transforms">
<polygon fill="white" stroke="black" points="0,-76.5 0,-95.5 57,-95.5 57,-76.5 0,-76.5"/>
<text text-anchor="middle" x="28.5" y="-83.5" font-family="Helvetica,sans-Serif" font-size="10.00">Wavelet</text>
</a>
</g>
</g>
<!-- Node1 -->
<g id="node2" class="node">
<title>Node1</title>
<g id="a_node2"><a xlink:href="classSignalIntegrity_1_1Lib_1_1Wavelets_1_1Wavelets_1_1WaveletDaubechies14.xhtml" target="_top" xlink:title="14 tap Daubechies wavelet transformer">
<polygon fill="white" stroke="black" points="93,-152.5 93,-171.5 219,-171.5 219,-152.5 93,-152.5"/>
<text text-anchor="middle" x="156" y="-159.5" font-family="Helvetica,sans-Serif" font-size="10.00">WaveletDaubechies14</text>
</a>
</g>
</g>
<!-- Node0&#45;&gt;Node1 -->
<g id="edge1" class="edge">
<title>Node0&#45;&gt;Node1</title>
<path fill="none" stroke="midnightblue" d="M44.98,-103.49C56.97,-116.07 74.59,-132.6 93,-143 99.66,-146.77 107.16,-149.87 114.58,-152.4"/>
<polygon fill="midnightblue" stroke="midnightblue" points="47.32,-100.86 37.96,-95.89 42.18,-105.61 47.32,-100.86"/>
</g>
<!-- Node2 -->
<g id="node3" class="node">
<title>Node2</title>
<g id="a_node3"><a xlink:href="classSignalIntegrity_1_1Lib_1_1Wavelets_1_1Wavelets_1_1WaveletDaubechies16.xhtml" target="_top" xlink:title="16 tap Daubechies wavelet transformer">
<polygon fill="white" stroke="black" points="93,-114.5 93,-133.5 219,-133.5 219,-114.5 93,-114.5"/>
<text text-anchor="middle" x="156" y="-121.5" font-family="Helvetica,sans-Serif" font-size="10.00">WaveletDaubechies16</text>
</a>
</g>
</g>
<!-- Node0&#45;&gt;Node2 -->
<g id="edge2" class="edge">
<title>Node0&#45;&gt;Node2</title>
<path fill="none" stroke="midnightblue" d="M66.69,-97.26C84.78,-102.74 106.28,-109.25 123.54,-114.48"/>
<polygon fill="midnightblue" stroke="midnightblue" points="67.63,-93.89 57.04,-94.34 65.6,-100.59 67.63,-93.89"/>
</g>
<!-- Node3 -->
<g id="node4" class="node">
<title>Node3</title>
<g id="a_node4"><a xlink:href="classSignalIntegrity_1_1Lib_1_1Wavelets_1_1Wavelets_1_1WaveletDaubechies4.xhtml" target="_top" xlink:title="4 tap Daubechies wavelet transformer">
<polygon fill="white" stroke="black" points="96,-76.5 96,-95.5 216,-95.5 216,-76.5 96,-76.5"/>
<text text-anchor="middle" x="156" y="-83.5" font-family="Helvetica,sans-Serif" font-size="10.00">WaveletDaubechies4</text>
</a>
</g>
</g>
<!-- Node0&#45;&gt;Node3 -->
<g id="edge3" class="edge">
<title>Node0&#45;&gt;Node3</title>
<path fill="none" stroke="midnightblue" d="M67.22,-86C76.26,-86 86.12,-86 95.88,-86"/>
<polygon fill="midnightblue" stroke="midnightblue" points="67.04,-82.5 57.04,-86 67.04,-89.5 67.04,-82.5"/>
</g>
<!-- Node4 -->
<g id="node5" class="node">
<title>Node4</title>
<g id="a_node5"><a xlink:href="classSignalIntegrity_1_1Lib_1_1Wavelets_1_1Wavelets_1_1WaveletDaubechies8.xhtml" target="_top" xlink:title="8 tap Daubechies wavelet transformer">
<polygon fill="white" stroke="black" points="96,-38.5 96,-57.5 216,-57.5 216,-38.5 96,-38.5"/>
<text text-anchor="middle" x="156" y="-45.5" font-family="Helvetica,sans-Serif" font-size="10.00">WaveletDaubechies8</text>
</a>
</g>
</g>
<!-- Node0&#45;&gt;Node4 -->
<g id="edge4" class="edge">
<title>Node0&#45;&gt;Node4</title>
<path fill="none" stroke="midnightblue" d="M66.69,-74.74C84.78,-69.26 106.28,-62.75 123.54,-57.52"/>
<polygon fill="midnightblue" stroke="midnightblue" points="65.6,-71.41 57.04,-77.66 67.63,-78.11 65.6,-71.41"/>
</g>
<!-- Node5 -->
<g id="node6" class="node">
<title>Node5</title>
<g id="a_node6"><a xlink:href="classSignalIntegrity_1_1Lib_1_1Wavelets_1_1Wavelets_1_1WaveletHaar.xhtml" target="_top" xlink:title="2 tap Haar wavelet transformer">
<polygon fill="white" stroke="black" points="116,-0.5 116,-19.5 196,-19.5 196,-0.5 116,-0.5"/>
<text text-anchor="middle" x="156" y="-7.5" font-family="Helvetica,sans-Serif" font-size="10.00">WaveletHaar</text>
</a>
</g>
</g>
<!-- Node0&#45;&gt;Node5 -->
<g id="edge5" class="edge">
<title>Node0&#45;&gt;Node5</title>
<path fill="none" stroke="midnightblue" d="M44.98,-68.51C56.97,-55.93 74.59,-39.4 93,-29 100.06,-25.01 108.05,-21.76 115.89,-19.16"/>
<polygon fill="midnightblue" stroke="midnightblue" points="42.18,-66.39 37.96,-76.11 47.32,-71.14 42.18,-66.39"/>
</g>
</g>
</svg>
