<?xml version="1.0" encoding="UTF-8" standalone="no"?>
<!DOCTYPE svg PUBLIC "-//W3C//DTD SVG 1.1//EN"
 "http://www.w3.org/Graphics/SVG/1.1/DTD/svg11.dtd">
<!-- Generated by graphviz version 2.43.0 (0)
 -->
<!-- Title: Graphical Class Hierarchy Pages: 1 -->
<svg width="444pt" height="256pt"
 viewBox="0.00 0.00 444.00 256.00" xmlns="http://www.w3.org/2000/svg" xmlns:xlink="http://www.w3.org/1999/xlink">
<g id="graph0" class="graph" transform="scale(1 1) rotate(0) translate(4 252)">
<title>Graphical Class Hierarchy</title>
<polygon fill="white" stroke="transparent" points="-4,4 -4,-252 440,-252 440,4 -4,4"/>
<!-- Node0 -->
<g id="node1" class="node">
<title>Node0</title>
<g id="a_node1"><a xlink:href="classSignalIntegrity_1_1Lib_1_1TimeDomain_1_1Waveform_1_1Waveform_1_1Waveform.xhtml" target="_top" xlink:title="base class for all waveforms">
<polygon fill="white" stroke="black" points="0,-114.5 0,-133.5 68,-133.5 68,-114.5 0,-114.5"/>
<text text-anchor="middle" x="34" y="-121.5" font-family="Helvetica,sans-Serif" font-size="10.00">Waveform</text>
</a>
</g>
</g>
<!-- Node1 -->
<g id="node2" class="node">
<title>Node1</title>
<g id="a_node2"><a xlink:href="classSignalIntegrity_1_1Lib_1_1ImpedanceProfile_1_1ImpedanceProfileWaveform_1_1ImpedanceProfileWaveform.xhtml" target="_top" xlink:title="Computes the impedance profile waveform from a set of s&#45;parameters using the port specified.">
<polygon fill="white" stroke="black" points="104,-228.5 104,-247.5 257,-247.5 257,-228.5 104,-228.5"/>
<text text-anchor="middle" x="180.5" y="-235.5" font-family="Helvetica,sans-Serif" font-size="10.00">ImpedanceProfileWaveform</text>
</a>
</g>
</g>
<!-- Node0&#45;&gt;Node1 -->
<g id="edge1" class="edge">
<title>Node0&#45;&gt;Node1</title>
<path fill="none" stroke="midnightblue" d="M43.56,-142.69C54.48,-164.4 75.43,-199.68 104,-219 109.71,-222.86 116.14,-225.94 122.78,-228.39"/>
<polygon fill="midnightblue" stroke="midnightblue" points="46.64,-141.01 39.14,-133.52 40.33,-144.05 46.64,-141.01"/>
</g>
<!-- Node2 -->
<g id="node3" class="node">
<title>Node2</title>
<g id="a_node3"><a xlink:href="classSignalIntegrity_1_1Lib_1_1Prbs_1_1SerialDataWaveform_1_1SerialDataWaveform.xhtml" target="_top" xlink:title="a serial data NRZ waveform">
<polygon fill="white" stroke="black" points="121,-190.5 121,-209.5 240,-209.5 240,-190.5 121,-190.5"/>
<text text-anchor="middle" x="180.5" y="-197.5" font-family="Helvetica,sans-Serif" font-size="10.00">SerialDataWaveform</text>
</a>
</g>
</g>
<!-- Node0&#45;&gt;Node2 -->
<g id="edge2" class="edge">
<title>Node0&#45;&gt;Node2</title>
<path fill="none" stroke="midnightblue" d="M51.13,-140.92C64.23,-153.72 83.79,-170.77 104,-181 111.6,-184.84 120.03,-187.95 128.42,-190.44"/>
<polygon fill="midnightblue" stroke="midnightblue" points="53.39,-138.23 43.85,-133.6 48.42,-143.16 53.39,-138.23"/>
</g>
<!-- Node5 -->
<g id="node6" class="node">
<title>Node5</title>
<g id="a_node6"><a xlink:href="classSignalIntegrity_1_1Lib_1_1TimeDomain_1_1Waveform_1_1ImpulseResponse_1_1ImpulseResponse.xhtml" target="_top" xlink:title="impulse response of a filter as a waveform">
<polygon fill="white" stroke="black" points="129,-152.5 129,-171.5 232,-171.5 232,-152.5 129,-152.5"/>
<text text-anchor="middle" x="180.5" y="-159.5" font-family="Helvetica,sans-Serif" font-size="10.00">ImpulseResponse</text>
</a>
</g>
</g>
<!-- Node0&#45;&gt;Node5 -->
<g id="edge5" class="edge">
<title>Node0&#45;&gt;Node5</title>
<path fill="none" stroke="midnightblue" d="M78.13,-136.03C86.69,-138.38 95.62,-140.79 104,-143 116.02,-146.17 129.16,-149.51 141.05,-152.5"/>
<polygon fill="midnightblue" stroke="midnightblue" points="78.87,-132.61 68.3,-133.33 77.01,-139.36 78.87,-132.61"/>
</g>
<!-- Node6 -->
<g id="node7" class="node">
<title>Node6</title>
<g id="a_node7"><a xlink:href="classSignalIntegrity_1_1Lib_1_1TimeDomain_1_1Waveform_1_1NoiseWaveform_1_1NoiseWaveform.xhtml" target="_top" xlink:title="noise waveform">
<polygon fill="white" stroke="black" points="133,-114.5 133,-133.5 228,-133.5 228,-114.5 133,-114.5"/>
<text text-anchor="middle" x="180.5" y="-121.5" font-family="Helvetica,sans-Serif" font-size="10.00">NoiseWaveform</text>
</a>
</g>
</g>
<!-- Node0&#45;&gt;Node6 -->
<g id="edge6" class="edge">
<title>Node0&#45;&gt;Node6</title>
<path fill="none" stroke="midnightblue" d="M78.45,-124C95.61,-124 115.36,-124 132.81,-124"/>
<polygon fill="midnightblue" stroke="midnightblue" points="78.15,-120.5 68.15,-124 78.15,-127.5 78.15,-120.5"/>
</g>
<!-- Node7 -->
<g id="node8" class="node">
<title>Node7</title>
<g id="a_node8"><a xlink:href="classSignalIntegrity_1_1Lib_1_1TimeDomain_1_1Waveform_1_1PulseWaveform_1_1PulseWaveform.xhtml" target="_top" xlink:title="pulse waveform">
<polygon fill="white" stroke="black" points="133.5,-76.5 133.5,-95.5 227.5,-95.5 227.5,-76.5 133.5,-76.5"/>
<text text-anchor="middle" x="180.5" y="-83.5" font-family="Helvetica,sans-Serif" font-size="10.00">PulseWaveform</text>
</a>
</g>
</g>
<!-- Node0&#45;&gt;Node7 -->
<g id="edge7" class="edge">
<title>Node0&#45;&gt;Node7</title>
<path fill="none" stroke="midnightblue" d="M78.13,-111.97C86.69,-109.62 95.62,-107.21 104,-105 116.02,-101.83 129.16,-98.49 141.05,-95.5"/>
<polygon fill="midnightblue" stroke="midnightblue" points="77.01,-108.64 68.3,-114.67 78.87,-115.39 77.01,-108.64"/>
</g>
<!-- Node8 -->
<g id="node9" class="node">
<title>Node8</title>
<g id="a_node9"><a xlink:href="classSignalIntegrity_1_1Lib_1_1TimeDomain_1_1Waveform_1_1SineWaveform_1_1SineWaveform.xhtml" target="_top" xlink:title="sinewave waveform">
<polygon fill="white" stroke="black" points="136,-38.5 136,-57.5 225,-57.5 225,-38.5 136,-38.5"/>
<text text-anchor="middle" x="180.5" y="-45.5" font-family="Helvetica,sans-Serif" font-size="10.00">SineWaveform</text>
</a>
</g>
</g>
<!-- Node0&#45;&gt;Node8 -->
<g id="edge8" class="edge">
<title>Node0&#45;&gt;Node8</title>
<path fill="none" stroke="midnightblue" d="M51.13,-107.08C64.23,-94.28 83.79,-77.23 104,-67 113.89,-62 125.19,-58.25 135.98,-55.46"/>
<polygon fill="midnightblue" stroke="midnightblue" points="48.42,-104.84 43.85,-114.4 53.39,-109.77 48.42,-104.84"/>
</g>
<!-- Node9 -->
<g id="node10" class="node">
<title>Node9</title>
<g id="a_node10"><a xlink:href="classSignalIntegrity_1_1Lib_1_1TimeDomain_1_1Waveform_1_1StepWaveform_1_1StepWaveform.xhtml" target="_top" xlink:title="step waveform">
<polygon fill="white" stroke="black" points="136,-0.5 136,-19.5 225,-19.5 225,-0.5 136,-0.5"/>
<text text-anchor="middle" x="180.5" y="-7.5" font-family="Helvetica,sans-Serif" font-size="10.00">StepWaveform</text>
</a>
</g>
</g>
<!-- Node0&#45;&gt;Node9 -->
<g id="edge9" class="edge">
<title>Node0&#45;&gt;Node9</title>
<path fill="none" stroke="midnightblue" d="M43.56,-105.31C54.48,-83.6 75.43,-48.32 104,-29 113.41,-22.64 124.77,-18.41 135.79,-15.59"/>
<polygon fill="midnightblue" stroke="midnightblue" points="40.33,-103.95 39.14,-114.48 46.64,-106.99 40.33,-103.95"/>
</g>
<!-- Node3 -->
<g id="node4" class="node">
<title>Node3</title>
<g id="a_node4"><a xlink:href="classSignalIntegrity_1_1Lib_1_1Prbs_1_1ClockWaveform_1_1ClockWaveform.xhtml" target="_top" xlink:title="a clock waveform">
<polygon fill="white" stroke="black" points="317,-209.5 317,-228.5 412,-228.5 412,-209.5 317,-209.5"/>
<text text-anchor="middle" x="364.5" y="-216.5" font-family="Helvetica,sans-Serif" font-size="10.00">ClockWaveform</text>
</a>
</g>
</g>
<!-- Node2&#45;&gt;Node3 -->
<g id="edge3" class="edge">
<title>Node2&#45;&gt;Node3</title>
<path fill="none" stroke="midnightblue" d="M250.16,-207.17C272.41,-209.49 296.57,-212.01 316.84,-214.13"/>
<polygon fill="midnightblue" stroke="midnightblue" points="250.4,-203.67 240.09,-206.12 249.67,-210.64 250.4,-203.67"/>
</g>
<!-- Node4 -->
<g id="node5" class="node">
<title>Node4</title>
<g id="a_node5"><a xlink:href="classSignalIntegrity_1_1Lib_1_1Prbs_1_1PseudoRandomWaveform_1_1PseudoRandomWaveform.xhtml" target="_top" xlink:title="a PRBS waveform with a given PRBS polynomial">
<polygon fill="white" stroke="black" points="293,-171.5 293,-190.5 436,-190.5 436,-171.5 293,-171.5"/>
<text text-anchor="middle" x="364.5" y="-178.5" font-family="Helvetica,sans-Serif" font-size="10.00">PseudoRandomWaveform</text>
</a>
</g>
</g>
<!-- Node2&#45;&gt;Node4 -->
<g id="edge4" class="edge">
<title>Node2&#45;&gt;Node4</title>
<path fill="none" stroke="midnightblue" d="M250.13,-192.84C264.12,-191.37 278.87,-189.83 292.93,-188.37"/>
<polygon fill="midnightblue" stroke="midnightblue" points="249.67,-189.36 240.09,-193.88 250.4,-196.33 249.67,-189.36"/>
</g>
</g>
</svg>
