<?xml version="1.0" encoding="UTF-8" standalone="no"?>
<!DOCTYPE svg PUBLIC "-//W3C//DTD SVG 1.1//EN"
 "http://www.w3.org/Graphics/SVG/1.1/DTD/svg11.dtd">
<!-- Generated by graphviz version 2.43.0 (0)
 -->
<!-- Title: Graphical Class Hierarchy Pages: 1 -->
<svg width="757pt" height="246pt"
 viewBox="0.00 0.00 757.00 245.62" xmlns="http://www.w3.org/2000/svg" xmlns:xlink="http://www.w3.org/1999/xlink">
<g id="graph0" class="graph" transform="scale(1 1) rotate(0) translate(4 241.62)">
<title>Graphical Class Hierarchy</title>
<polygon fill="white" stroke="transparent" points="-4,4 -4,-241.62 753,-241.62 753,4 -4,4"/>
<!-- Node114 -->
<g id="node1" class="node">
<title>Node114</title>
<g id="a_node1"><a xlink:href="classSignalIntegrity_1_1Lib_1_1SystemDescriptions_1_1Numeric_1_1Numeric.xhtml" target="_top" xlink:title="handles numeric details of derived class solutions">
<polygon fill="white" stroke="black" points="322.5,-38.5 322.5,-57.5 375.5,-57.5 375.5,-38.5 322.5,-38.5"/>
<text text-anchor="middle" x="349" y="-45.5" font-family="Helvetica,sans-Serif" font-size="10.00">Numeric</text>
</a>
</g>
</g>
<!-- Node3 -->
<g id="node2" class="node">
<title>Node3</title>
<g id="a_node2"><a xlink:href="classSignalIntegrity_1_1Lib_1_1SystemDescriptions_1_1DeembedderNumeric_1_1DeembedderNumeric.xhtml" target="_top" xlink:title=" ">
<polygon fill="white" stroke="black" points="474.5,-76.5 474.5,-95.5 583.5,-95.5 583.5,-76.5 474.5,-76.5"/>
<text text-anchor="middle" x="529" y="-83.5" font-family="Helvetica,sans-Serif" font-size="10.00">DeembedderNumeric</text>
</a>
</g>
</g>
<!-- Node114&#45;&gt;Node3 -->
<g id="edge1" class="edge">
<title>Node114&#45;&gt;Node3</title>
<path fill="none" stroke="midnightblue" d="M385.31,-55.54C413.42,-61.54 452.95,-69.98 483.28,-76.45"/>
<polygon fill="midnightblue" stroke="midnightblue" points="386.01,-52.11 375.5,-53.44 384.55,-58.96 386.01,-52.11"/>
</g>
<!-- Node12 -->
<g id="node3" class="node">
<title>Node12</title>
<g id="a_node3"><a xlink:href="classSignalIntegrity_1_1Lib_1_1SystemDescriptions_1_1SystemSParametersNumeric_1_1SystemSParametersNumeric.xhtml" target="_top" xlink:title="Class for computing s&#45;parameters of interconnected systems.">
<polygon fill="white" stroke="black" points="457,-0.5 457,-19.5 601,-19.5 601,-0.5 457,-0.5"/>
<text text-anchor="middle" x="529" y="-7.5" font-family="Helvetica,sans-Serif" font-size="10.00">SystemSParametersNumeric</text>
</a>
</g>
</g>
<!-- Node114&#45;&gt;Node12 -->
<g id="edge2" class="edge">
<title>Node114&#45;&gt;Node12</title>
<path fill="none" stroke="midnightblue" d="M385.31,-40.46C413.42,-34.46 452.95,-26.02 483.28,-19.55"/>
<polygon fill="midnightblue" stroke="midnightblue" points="384.55,-37.04 375.5,-42.56 386.01,-43.89 384.55,-37.04"/>
</g>
<!-- Node8 -->
<g id="node4" class="node">
<title>Node8</title>
<g id="a_node4"><a xlink:href="classSignalIntegrity_1_1Lib_1_1SystemDescriptions_1_1VirtualProbeNumeric_1_1VirtualProbeNumeric.xhtml" target="_top" xlink:title="class for performing virtual probing numerically.">
<polygon fill="white" stroke="black" points="640.5,-76.5 640.5,-95.5 747.5,-95.5 747.5,-76.5 640.5,-76.5"/>
<text text-anchor="middle" x="694" y="-83.5" font-family="Helvetica,sans-Serif" font-size="10.00">VirtualProbeNumeric</text>
</a>
</g>
</g>
<!-- Node114&#45;&gt;Node8 -->
<g id="edge3" class="edge">
<title>Node114&#45;&gt;Node8</title>
<path fill="none" stroke="midnightblue" d="M385.74,-49.19C434.89,-51.16 526.01,-56.03 603,-67 619.6,-69.36 637.72,-72.99 653.33,-76.44"/>
<polygon fill="midnightblue" stroke="midnightblue" points="385.75,-45.68 375.62,-48.8 385.48,-52.68 385.75,-45.68"/>
</g>
<!-- Node51 -->
<g id="node5" class="node">
<title>Node51</title>
<g id="a_node5"><a xlink:href="classSignalIntegrity_1_1Lib_1_1SystemDescriptions_1_1Symbolic_1_1Symbolic.xhtml" target="_top" xlink:title="base class for all symbolic solutions.">
<polygon fill="white" stroke="black" points="161,-171.5 161,-190.5 218,-190.5 218,-171.5 161,-171.5"/>
<text text-anchor="middle" x="189.5" y="-178.5" font-family="Helvetica,sans-Serif" font-size="10.00">Symbolic</text>
</a>
</g>
</g>
<!-- Node4 -->
<g id="node6" class="node">
<title>Node4</title>
<g id="a_node6"><a xlink:href="classSignalIntegrity_1_1Lib_1_1SystemDescriptions_1_1DeembedderSymbolic_1_1DeembedderSymbolic.xhtml" target="_top" xlink:title=" ">
<polygon fill="white" stroke="black" points="472.5,-152.5 472.5,-171.5 585.5,-171.5 585.5,-152.5 472.5,-152.5"/>
<text text-anchor="middle" x="529" y="-159.5" font-family="Helvetica,sans-Serif" font-size="10.00">DeembedderSymbolic</text>
</a>
</g>
</g>
<!-- Node51&#45;&gt;Node4 -->
<g id="edge4" class="edge">
<title>Node51&#45;&gt;Node4</title>
<path fill="none" stroke="midnightblue" d="M228.19,-178.88C287.6,-175.53 403.36,-169.02 472.36,-165.13"/>
<polygon fill="midnightblue" stroke="midnightblue" points="227.91,-175.39 218.12,-179.45 228.3,-182.38 227.91,-175.39"/>
</g>
<!-- Node10 -->
<g id="node7" class="node">
<title>Node10</title>
<g id="a_node7"><a xlink:href="classSignalIntegrity_1_1Lib_1_1SystemDescriptions_1_1SystemDescriptionSymbolic_1_1SystemDescriptionSymbolic.xhtml" target="_top" xlink:title="Solves system descriptions in the most basic manner common to all of the simulation,...">
<polygon fill="white" stroke="black" points="279,-190.5 279,-209.5 419,-209.5 419,-190.5 279,-190.5"/>
<text text-anchor="middle" x="349" y="-197.5" font-family="Helvetica,sans-Serif" font-size="10.00">SystemDescriptionSymbolic</text>
</a>
</g>
</g>
<!-- Node51&#45;&gt;Node10 -->
<g id="edge5" class="edge">
<title>Node51&#45;&gt;Node10</title>
<path fill="none" stroke="midnightblue" d="M228.32,-185.56C243.5,-187.39 261.5,-189.57 278.87,-191.66"/>
<polygon fill="midnightblue" stroke="midnightblue" points="228.64,-182.08 218.3,-184.35 227.8,-189.03 228.64,-182.08"/>
</g>
<!-- Node11 -->
<g id="node8" class="node">
<title>Node11</title>
<g id="a_node8"><a xlink:href="classSignalIntegrity_1_1Lib_1_1SystemDescriptions_1_1SystemSParametersSymbolic_1_1SystemSParametersSymbolic.xhtml" target="_top" xlink:title="Class for solving symbolically the s&#45;parameters of interconnected systems.">
<polygon fill="white" stroke="black" points="455,-190.5 455,-209.5 603,-209.5 603,-190.5 455,-190.5"/>
<text text-anchor="middle" x="529" y="-197.5" font-family="Helvetica,sans-Serif" font-size="10.00">SystemSParametersSymbolic</text>
</a>
</g>
</g>
<!-- Node10&#45;&gt;Node11 -->
<g id="edge6" class="edge">
<title>Node10&#45;&gt;Node11</title>
<path fill="none" stroke="midnightblue" d="M429.34,-200C437.83,-200 446.43,-200 454.84,-200"/>
<polygon fill="midnightblue" stroke="midnightblue" points="429.07,-196.5 419.07,-200 429.07,-203.5 429.07,-196.5"/>
</g>
<!-- Node6 -->
<g id="node9" class="node">
<title>Node6</title>
<g id="a_node9"><a xlink:href="classSignalIntegrity_1_1Lib_1_1SystemDescriptions_1_1SimulatorSymbolic_1_1SimulatorSymbolic.xhtml" target="_top" xlink:title="class for producing symbolic solutions to simulation problems.">
<polygon fill="white" stroke="black" points="645,-209.5 645,-228.5 743,-228.5 743,-209.5 645,-209.5"/>
<text text-anchor="middle" x="694" y="-216.5" font-family="Helvetica,sans-Serif" font-size="10.00">SimulatorSymbolic</text>
</a>
</g>
</g>
<!-- Node11&#45;&gt;Node6 -->
<g id="edge7" class="edge">
<title>Node11&#45;&gt;Node6</title>
<path fill="none" stroke="midnightblue" d="M613.62,-209.75C624.29,-210.99 634.92,-212.23 644.76,-213.38"/>
<polygon fill="midnightblue" stroke="midnightblue" points="613.73,-206.24 603.39,-208.56 612.92,-213.19 613.73,-206.24"/>
</g>
<!-- Node9 -->
<g id="node10" class="node">
<title>Node9</title>
<g id="a_node10"><a xlink:href="classSignalIntegrity_1_1Lib_1_1SystemDescriptions_1_1VirtualProbeSymbolic_1_1VirtualProbeSymbolic.xhtml" target="_top" xlink:title=" ">
<polygon fill="white" stroke="black" points="639,-152.5 639,-171.5 749,-171.5 749,-152.5 639,-152.5"/>
<text text-anchor="middle" x="694" y="-159.5" font-family="Helvetica,sans-Serif" font-size="10.00">VirtualProbeSymbolic</text>
</a>
</g>
</g>
<!-- Node11&#45;&gt;Node9 -->
<g id="edge8" class="edge">
<title>Node11&#45;&gt;Node9</title>
<path fill="none" stroke="midnightblue" d="M581.03,-188.1C603.94,-182.76 630.6,-176.55 652.16,-171.52"/>
<polygon fill="midnightblue" stroke="midnightblue" points="580.08,-184.73 571.13,-190.41 581.67,-191.55 580.08,-184.73"/>
</g>
<!-- Node0 -->
<g id="node11" class="node">
<title>Node0</title>
<g id="a_node11"><a xlink:href="classSignalIntegrity_1_1Lib_1_1SystemDescriptions_1_1SystemDescription_1_1SystemDescription.xhtml" target="_top" xlink:title="Allows the construction of system descriptions for use with all of the classes that solve schematics ...">
<polygon fill="white" stroke="black" points="0,-95.5 0,-114.5 100,-114.5 100,-95.5 0,-95.5"/>
<text text-anchor="middle" x="50" y="-102.5" font-family="Helvetica,sans-Serif" font-size="10.00">SystemDescription</text>
</a>
</g>
</g>
<!-- Node1 -->
<g id="node12" class="node">
<title>Node1</title>
<g id="a_node12"><a xlink:href="classSignalIntegrity_1_1Lib_1_1SystemDescriptions_1_1SystemSParameters_1_1SystemSParameters.xhtml" target="_top" xlink:title="base class for housekeeping involving system s&#45;parameters calculations">
<polygon fill="white" stroke="black" points="136,-95.5 136,-114.5 243,-114.5 243,-95.5 136,-95.5"/>
<text text-anchor="middle" x="189.5" y="-102.5" font-family="Helvetica,sans-Serif" font-size="10.00">SystemSParameters</text>
</a>
</g>
</g>
<!-- Node0&#45;&gt;Node1 -->
<g id="edge9" class="edge">
<title>Node0&#45;&gt;Node1</title>
<path fill="none" stroke="midnightblue" d="M110.44,-105C118.9,-105 127.55,-105 135.87,-105"/>
<polygon fill="midnightblue" stroke="midnightblue" points="110.25,-101.5 100.25,-105 110.25,-108.5 110.25,-101.5"/>
</g>
<!-- Node1&#45;&gt;Node12 -->
<g id="edge19" class="edge">
<title>Node1&#45;&gt;Node12</title>
<path fill="none" stroke="midnightblue" d="M204.9,-87.3C220.87,-69.09 248.45,-41.66 279,-29 335.57,-5.56 405.52,-2.2 456.86,-3.9"/>
<polygon fill="midnightblue" stroke="midnightblue" points="201.83,-85.5 198.03,-95.39 207.17,-90.03 201.83,-85.5"/>
</g>
<!-- Node1&#45;&gt;Node10 -->
<g id="edge18" class="edge">
<title>Node1&#45;&gt;Node10</title>
<path fill="none" stroke="midnightblue" d="M215.4,-120.02C248.07,-139.73 304.48,-173.75 331.99,-190.34"/>
<polygon fill="midnightblue" stroke="midnightblue" points="216.84,-116.8 206.47,-114.63 213.22,-122.79 216.84,-116.8"/>
</g>
<!-- Node2 -->
<g id="node13" class="node">
<title>Node2</title>
<g id="a_node13"><a xlink:href="classSignalIntegrity_1_1Lib_1_1SystemDescriptions_1_1Deembedder_1_1Deembedder.xhtml" target="_top" xlink:title="housekeeping base class for deembedders">
<polygon fill="white" stroke="black" points="313,-76.5 313,-95.5 385,-95.5 385,-76.5 313,-76.5"/>
<text text-anchor="middle" x="349" y="-83.5" font-family="Helvetica,sans-Serif" font-size="10.00">Deembedder</text>
</a>
</g>
</g>
<!-- Node1&#45;&gt;Node2 -->
<g id="edge10" class="edge">
<title>Node1&#45;&gt;Node2</title>
<path fill="none" stroke="midnightblue" d="M253.48,-97.4C273.7,-94.96 295.37,-92.35 312.85,-90.24"/>
<polygon fill="midnightblue" stroke="midnightblue" points="252.89,-93.95 243.38,-98.62 253.73,-100.9 252.89,-93.95"/>
</g>
<!-- Node5 -->
<g id="node14" class="node">
<title>Node5</title>
<g id="a_node14"><a xlink:href="classSignalIntegrity_1_1Lib_1_1SystemDescriptions_1_1Simulator_1_1Simulator.xhtml" target="_top" xlink:title="Base class for dealing with housekeeping for simulations.">
<polygon fill="white" stroke="black" points="320,-114.5 320,-133.5 378,-133.5 378,-114.5 320,-114.5"/>
<text text-anchor="middle" x="349" y="-121.5" font-family="Helvetica,sans-Serif" font-size="10.00">Simulator</text>
</a>
</g>
</g>
<!-- Node1&#45;&gt;Node5 -->
<g id="edge13" class="edge">
<title>Node1&#45;&gt;Node5</title>
<path fill="none" stroke="midnightblue" d="M253.44,-112.59C276.45,-115.37 301.32,-118.37 319.78,-120.6"/>
<polygon fill="midnightblue" stroke="midnightblue" points="253.73,-109.1 243.38,-111.38 252.89,-116.05 253.73,-109.1"/>
</g>
<!-- Node2&#45;&gt;Node3 -->
<g id="edge11" class="edge">
<title>Node2&#45;&gt;Node3</title>
<path fill="none" stroke="midnightblue" d="M395.44,-86C419.48,-86 449.15,-86 474.32,-86"/>
<polygon fill="midnightblue" stroke="midnightblue" points="395.17,-82.5 385.17,-86 395.17,-89.5 395.17,-82.5"/>
</g>
<!-- Node2&#45;&gt;Node4 -->
<g id="edge12" class="edge">
<title>Node2&#45;&gt;Node4</title>
<path fill="none" stroke="midnightblue" d="M394.9,-94.54C403.25,-97.17 411.65,-100.59 419,-105 438.95,-116.97 434.97,-131.17 455,-143 461.54,-146.86 468.86,-149.95 476.28,-152.42"/>
<polygon fill="midnightblue" stroke="midnightblue" points="395.76,-91.15 385.18,-91.79 393.85,-97.88 395.76,-91.15"/>
</g>
<!-- Node5&#45;&gt;Node6 -->
<g id="edge14" class="edge">
<title>Node5&#45;&gt;Node6</title>
<path fill="none" stroke="midnightblue" d="M370.64,-139.97C384.65,-151.06 403.39,-166.42 419,-181 436,-196.88 433.63,-209.81 455,-219 519.15,-246.59 602.32,-237.75 651.45,-228.56"/>
<polygon fill="midnightblue" stroke="midnightblue" points="372.63,-137.07 362.6,-133.65 368.3,-142.58 372.63,-137.07"/>
</g>
<!-- Node7 -->
<g id="node15" class="node">
<title>Node7</title>
<g id="a_node15"><a xlink:href="classSignalIntegrity_1_1Lib_1_1SystemDescriptions_1_1VirtualProbe_1_1VirtualProbe.xhtml" target="_top" xlink:title="Base class for virtual probing.">
<polygon fill="white" stroke="black" points="494,-114.5 494,-133.5 564,-133.5 564,-114.5 494,-114.5"/>
<text text-anchor="middle" x="529" y="-121.5" font-family="Helvetica,sans-Serif" font-size="10.00">VirtualProbe</text>
</a>
</g>
</g>
<!-- Node5&#45;&gt;Node7 -->
<g id="edge15" class="edge">
<title>Node5&#45;&gt;Node7</title>
<path fill="none" stroke="midnightblue" d="M388.32,-124C419.69,-124 463.66,-124 493.84,-124"/>
<polygon fill="midnightblue" stroke="midnightblue" points="388.2,-120.5 378.2,-124 388.2,-127.5 388.2,-120.5"/>
</g>
<!-- Node7&#45;&gt;Node8 -->
<g id="edge16" class="edge">
<title>Node7&#45;&gt;Node8</title>
<path fill="none" stroke="midnightblue" d="M574.21,-113.69C598.53,-108.02 628.5,-101.04 652.25,-95.5"/>
<polygon fill="midnightblue" stroke="midnightblue" points="573.11,-110.35 564.17,-116.03 574.7,-117.17 573.11,-110.35"/>
</g>
<!-- Node7&#45;&gt;Node9 -->
<g id="edge17" class="edge">
<title>Node7&#45;&gt;Node9</title>
<path fill="none" stroke="midnightblue" d="M574.21,-134.31C598.53,-139.98 628.5,-146.96 652.25,-152.5"/>
<polygon fill="midnightblue" stroke="midnightblue" points="574.7,-130.83 564.17,-131.97 573.11,-137.65 574.7,-130.83"/>
</g>
</g>
</svg>
