<?xml version="1.0" encoding="UTF-8" standalone="no"?>
<!DOCTYPE svg PUBLIC "-//W3C//DTD SVG 1.1//EN"
 "http://www.w3.org/Graphics/SVG/1.1/DTD/svg11.dtd">
<!-- Generated by graphviz version 2.43.0 (0)
 -->
<!-- Title: Graphical Class Hierarchy Pages: 1 -->
<svg width="795pt" height="332pt"
 viewBox="0.00 0.00 795.00 332.00" xmlns="http://www.w3.org/2000/svg" xmlns:xlink="http://www.w3.org/1999/xlink">
<g id="graph0" class="graph" transform="scale(1 1) rotate(0) translate(4 328)">
<title>Graphical Class Hierarchy</title>
<polygon fill="white" stroke="transparent" points="-4,4 -4,-328 791,-328 791,4 -4,4"/>
<!-- Node127 -->
<g id="node1" class="node">
<title>Node127</title>
<g id="a_node1"><a xlink:href="classSignalIntegrity_1_1Lib_1_1CallBacker_1_1CallBacker.xhtml" target="_top" xlink:title="Handles Callbacks that allow progress reporting during long calculations and capability to abort.">
<polygon fill="white" stroke="black" points="297,-190.5 297,-209.5 365,-209.5 365,-190.5 297,-190.5"/>
<text text-anchor="middle" x="331" y="-197.5" font-family="Helvetica,sans-Serif" font-size="10.00">CallBacker</text>
</a>
</g>
</g>
<!-- Node1 -->
<g id="node2" class="node">
<title>Node1</title>
<g id="a_node2"><a xlink:href="classSignalIntegrity_1_1Lib_1_1Eye_1_1EyeDiagramBitmap_1_1EyeDiagramBitmap.xhtml" target="_top" xlink:title="Generates the eye diagram bitmap and many associated measurements from it.">
<polygon fill="white" stroke="black" points="444.5,-304.5 444.5,-323.5 556.5,-323.5 556.5,-304.5 444.5,-304.5"/>
<text text-anchor="middle" x="500.5" y="-311.5" font-family="Helvetica,sans-Serif" font-size="10.00">EyeDiagramBitmap</text>
</a>
</g>
</g>
<!-- Node127&#45;&gt;Node1 -->
<g id="edge1" class="edge">
<title>Node127&#45;&gt;Node1</title>
<path fill="none" stroke="midnightblue" d="M374.47,-211.17C378.64,-213.34 382.59,-215.92 386,-219 413.77,-244.02 393.04,-271.37 422,-295 428.44,-300.26 436.12,-304.09 444.1,-306.88"/>
<polygon fill="midnightblue" stroke="midnightblue" points="375.66,-207.87 365.1,-207.05 372.85,-214.28 375.66,-207.87"/>
</g>
<!-- Node128 -->
<g id="node3" class="node">
<title>Node128</title>
<g id="a_node3"><a xlink:href="classSignalIntegrity_1_1Lib_1_1Fit_1_1LevMar_1_1LevMar.xhtml" target="_top" xlink:title="Implements the Levenberg&#45;Marquardt algorithm for non&#45;linear fitting &#160;&#160;To use this class,...">
<polygon fill="white" stroke="black" points="474,-266.5 474,-285.5 527,-285.5 527,-266.5 474,-266.5"/>
<text text-anchor="middle" x="500.5" y="-273.5" font-family="Helvetica,sans-Serif" font-size="10.00">LevMar</text>
</a>
</g>
</g>
<!-- Node127&#45;&gt;Node128 -->
<g id="edge2" class="edge">
<title>Node127&#45;&gt;Node128</title>
<path fill="none" stroke="midnightblue" d="M374.56,-212.77C378.56,-214.62 382.44,-216.69 386,-219 405.52,-231.66 401.89,-245.31 422,-257 437.81,-266.19 457.92,-270.95 473.69,-273.41"/>
<polygon fill="midnightblue" stroke="midnightblue" points="375.73,-209.47 365.15,-208.87 373.05,-215.94 375.73,-209.47"/>
</g>
<!-- Node3 -->
<g id="node4" class="node">
<title>Node3</title>
<g id="a_node4"><a xlink:href="classSignalIntegrity_1_1Lib_1_1Parsers_1_1CalibrationNumericParser_1_1CalibrationNumericParser.xhtml" target="_top" xlink:title="generates a calibration from a netlist">
<polygon fill="white" stroke="black" points="429.5,-228.5 429.5,-247.5 571.5,-247.5 571.5,-228.5 429.5,-228.5"/>
<text text-anchor="middle" x="500.5" y="-235.5" font-family="Helvetica,sans-Serif" font-size="10.00">CalibrationNumericParser</text>
</a>
</g>
</g>
<!-- Node127&#45;&gt;Node3 -->
<g id="edge3" class="edge">
<title>Node127&#45;&gt;Node3</title>
<path fill="none" stroke="midnightblue" d="M375.16,-209.79C400.51,-215.54 432.41,-222.78 457.55,-228.48"/>
<polygon fill="midnightblue" stroke="midnightblue" points="375.62,-206.31 365.09,-207.51 374.07,-213.13 375.62,-206.31"/>
</g>
<!-- Node4 -->
<g id="node5" class="node">
<title>Node4</title>
<g id="a_node5"><a xlink:href="classSignalIntegrity_1_1Lib_1_1Parsers_1_1DeembedderNumericParser_1_1DeembedderNumericParser.xhtml" target="_top" xlink:title="generates deembedd s&#45;parameters from a netlist">
<polygon fill="white" stroke="black" points="424.5,-102.5 424.5,-121.5 576.5,-121.5 576.5,-102.5 424.5,-102.5"/>
<text text-anchor="middle" x="500.5" y="-109.5" font-family="Helvetica,sans-Serif" font-size="10.00">DeembedderNumericParser</text>
</a>
</g>
</g>
<!-- Node127&#45;&gt;Node4 -->
<g id="edge4" class="edge">
<title>Node127&#45;&gt;Node4</title>
<path fill="none" stroke="midnightblue" d="M349.46,-183.43C366.64,-167.99 394.27,-145.39 422,-132 430.88,-127.71 440.8,-124.26 450.5,-121.52"/>
<polygon fill="midnightblue" stroke="midnightblue" points="346.91,-181.02 341.91,-190.37 351.64,-186.18 346.91,-181.02"/>
</g>
<!-- Node5 -->
<g id="node6" class="node">
<title>Node5</title>
<g id="a_node6"><a xlink:href="classSignalIntegrity_1_1Lib_1_1Parsers_1_1SimulatorNumericParser_1_1SimulatorNumericParser.xhtml" target="_top" xlink:title="performs numeric simulations from netlists">
<polygon fill="white" stroke="black" points="432.5,-64.5 432.5,-83.5 568.5,-83.5 568.5,-64.5 432.5,-64.5"/>
<text text-anchor="middle" x="500.5" y="-71.5" font-family="Helvetica,sans-Serif" font-size="10.00">SimulatorNumericParser</text>
</a>
</g>
</g>
<!-- Node127&#45;&gt;Node5 -->
<g id="edge5" class="edge">
<title>Node127&#45;&gt;Node5</title>
<path fill="none" stroke="midnightblue" d="M349.27,-182.99C360.2,-171.94 374.39,-157.03 386,-143 403.46,-121.9 399.3,-108.32 422,-93 427.74,-89.13 434.2,-86.04 440.87,-83.58"/>
<polygon fill="midnightblue" stroke="midnightblue" points="346.57,-180.74 341.98,-190.28 351.53,-185.68 346.57,-180.74"/>
</g>
<!-- Node7 -->
<g id="node8" class="node">
<title>Node7</title>
<g id="a_node8"><a xlink:href="classSignalIntegrity_1_1Lib_1_1Parsers_1_1SystemSParametersParser_1_1SystemSParametersNumericParser.xhtml" target="_top" xlink:title="generates system s&#45;parameters from a netlist">
<polygon fill="white" stroke="black" points="422,-141 422,-171 579,-171 579,-141 422,-141"/>
<text text-anchor="start" x="430" y="-159" font-family="Helvetica,sans-Serif" font-size="10.00">SystemSParametersNumeric</text>
<text text-anchor="middle" x="500.5" y="-148" font-family="Helvetica,sans-Serif" font-size="10.00">Parser</text>
</a>
</g>
</g>
<!-- Node127&#45;&gt;Node7 -->
<g id="edge7" class="edge">
<title>Node127&#45;&gt;Node7</title>
<path fill="none" stroke="midnightblue" d="M374.8,-188.76C395.34,-183.36 420.25,-176.82 442.38,-171"/>
<polygon fill="midnightblue" stroke="midnightblue" points="373.88,-185.38 365.09,-191.31 375.65,-192.15 373.88,-185.38"/>
</g>
<!-- Node9 -->
<g id="node10" class="node">
<title>Node9</title>
<g id="a_node10"><a xlink:href="classSignalIntegrity_1_1Lib_1_1Parsers_1_1VirtualProbeNumericParser_1_1VirtualProbeNumericParser.xhtml" target="_top" xlink:title="performs numeric virtual probing from netlists">
<polygon fill="white" stroke="black" points="426,-26.5 426,-45.5 575,-45.5 575,-26.5 426,-26.5"/>
<text text-anchor="middle" x="500.5" y="-33.5" font-family="Helvetica,sans-Serif" font-size="10.00">VirtualProbeNumericParser</text>
</a>
</g>
</g>
<!-- Node127&#45;&gt;Node9 -->
<g id="edge9" class="edge">
<title>Node127&#45;&gt;Node9</title>
<path fill="none" stroke="midnightblue" d="M350.87,-183.47C362.19,-172.79 376.24,-158.11 386,-143 408.92,-107.5 389.99,-82.59 422,-55 426.41,-51.2 431.45,-48.14 436.81,-45.67"/>
<polygon fill="midnightblue" stroke="midnightblue" points="348.22,-181.15 343.21,-190.48 352.95,-186.31 348.22,-181.15"/>
</g>
<!-- Node129 -->
<g id="node11" class="node">
<title>Node129</title>
<g id="a_node11"><a xlink:href="classSignalIntegrity_1_1Lib_1_1TimeDomain_1_1Filters_1_1TransferMatricesProcessor_1_1TransferMatricesProcessor.xhtml" target="_top" xlink:title="process transfer matrices &#160;&#160;Usually transfer matrices are produced in simulation and virtual probing ...">
<polygon fill="white" stroke="black" points="427.5,-190.5 427.5,-209.5 573.5,-209.5 573.5,-190.5 427.5,-190.5"/>
<text text-anchor="middle" x="500.5" y="-197.5" font-family="Helvetica,sans-Serif" font-size="10.00">TransferMatricesProcessor</text>
</a>
</g>
</g>
<!-- Node127&#45;&gt;Node129 -->
<g id="edge10" class="edge">
<title>Node127&#45;&gt;Node129</title>
<path fill="none" stroke="midnightblue" d="M375.14,-200C391.06,-200 409.55,-200 427.34,-200"/>
<polygon fill="midnightblue" stroke="midnightblue" points="375.09,-196.5 365.09,-200 375.09,-203.5 375.09,-196.5"/>
</g>
<!-- Node6 -->
<g id="node7" class="node">
<title>Node6</title>
<g id="a_node7"><a xlink:href="classSignalIntegrity_1_1Lib_1_1Parsers_1_1NetworkAnalyzerSimulationNumericParser_1_1NetworkAnalyzerSimulationNumericParser.xhtml" target="_top" xlink:title="performs numeric simulations from netlists">
<polygon fill="white" stroke="black" points="624.5,-59 624.5,-89 777.5,-89 777.5,-59 624.5,-59"/>
<text text-anchor="start" x="632.5" y="-77" font-family="Helvetica,sans-Serif" font-size="10.00">NetworkAnalyzerSimulation</text>
<text text-anchor="middle" x="701" y="-66" font-family="Helvetica,sans-Serif" font-size="10.00">NumericParser</text>
</a>
</g>
</g>
<!-- Node5&#45;&gt;Node6 -->
<g id="edge6" class="edge">
<title>Node5&#45;&gt;Node6</title>
<path fill="none" stroke="midnightblue" d="M578.91,-74C593.84,-74 609.46,-74 624.33,-74"/>
<polygon fill="midnightblue" stroke="midnightblue" points="578.7,-70.5 568.7,-74 578.7,-77.5 578.7,-70.5"/>
</g>
<!-- Node8 -->
<g id="node9" class="node">
<title>Node8</title>
<g id="a_node9"><a xlink:href="classSignalIntegrity_1_1Lib_1_1Parsers_1_1DUTSParametersNumericParser_1_1DUTSParametersNumericParser.xhtml" target="_top" xlink:title="generates s&#45;parameters of a DUT from a network analyzer model netlist">
<polygon fill="white" stroke="black" points="615,-146.5 615,-165.5 787,-165.5 787,-146.5 615,-146.5"/>
<text text-anchor="middle" x="701" y="-153.5" font-family="Helvetica,sans-Serif" font-size="10.00">DUTSParametersNumericParser</text>
</a>
</g>
</g>
<!-- Node7&#45;&gt;Node8 -->
<g id="edge8" class="edge">
<title>Node7&#45;&gt;Node8</title>
<path fill="none" stroke="midnightblue" d="M589.37,-156C597.85,-156 606.45,-156 614.9,-156"/>
<polygon fill="midnightblue" stroke="midnightblue" points="589.1,-152.5 579.1,-156 589.1,-159.5 589.1,-152.5"/>
</g>
<!-- Node103 -->
<g id="node12" class="node">
<title>Node103</title>
<g id="a_node12"><a xlink:href="classSignalIntegrity_1_1Lib_1_1Parsers_1_1ParserFile_1_1ParserFile.xhtml" target="_top" xlink:title="file handling base class for parsers">
<polygon fill="white" stroke="black" points="0,-76.5 0,-95.5 64,-95.5 64,-76.5 0,-76.5"/>
<text text-anchor="middle" x="32" y="-83.5" font-family="Helvetica,sans-Serif" font-size="10.00">ParserFile</text>
</a>
</g>
</g>
<!-- Node104 -->
<g id="node13" class="node">
<title>Node104</title>
<g id="a_node13"><a xlink:href="classSignalIntegrity_1_1Lib_1_1Parsers_1_1SystemDescriptionParser_1_1SystemDescriptionParser.xhtml" target="_top" xlink:title="Parses netlists and produces system descriptions.">
<polygon fill="white" stroke="black" points="100,-76.5 100,-95.5 240,-95.5 240,-76.5 100,-76.5"/>
<text text-anchor="middle" x="170" y="-83.5" font-family="Helvetica,sans-Serif" font-size="10.00">SystemDescriptionParser</text>
</a>
</g>
</g>
<!-- Node103&#45;&gt;Node104 -->
<g id="edge11" class="edge">
<title>Node103&#45;&gt;Node104</title>
<path fill="none" stroke="midnightblue" d="M74.46,-86C82.56,-86 91.26,-86 99.99,-86"/>
<polygon fill="midnightblue" stroke="midnightblue" points="74.2,-82.5 64.2,-86 74.2,-89.5 74.2,-82.5"/>
</g>
<!-- Node104&#45;&gt;Node7 -->
<g id="edge18" class="edge">
<title>Node104&#45;&gt;Node7</title>
<path fill="none" stroke="midnightblue" d="M192.61,-101.44C213.02,-115.09 245.04,-134.17 276,-143 323.19,-156.45 378.19,-159.8 421.83,-159.73"/>
<polygon fill="midnightblue" stroke="midnightblue" points="194.32,-98.37 184.09,-95.61 190.36,-104.15 194.32,-98.37"/>
</g>
<!-- Node105 -->
<g id="node14" class="node">
<title>Node105</title>
<g id="a_node14"><a xlink:href="classSignalIntegrity_1_1Lib_1_1Parsers_1_1CalibrationParser_1_1CalibrationParser.xhtml" target="_top" xlink:title="base class for netlist based error terms solutions">
<polygon fill="white" stroke="black" points="280.5,-228.5 280.5,-247.5 381.5,-247.5 381.5,-228.5 280.5,-228.5"/>
<text text-anchor="middle" x="331" y="-235.5" font-family="Helvetica,sans-Serif" font-size="10.00">CalibrationParser</text>
</a>
</g>
</g>
<!-- Node104&#45;&gt;Node105 -->
<g id="edge12" class="edge">
<title>Node104&#45;&gt;Node105</title>
<path fill="none" stroke="midnightblue" d="M180.96,-104.46C197.22,-132.96 232.11,-187.64 276,-219 281.34,-222.81 287.51,-225.92 293.74,-228.44"/>
<polygon fill="midnightblue" stroke="midnightblue" points="183.92,-102.59 176,-95.56 177.81,-106 183.92,-102.59"/>
</g>
<!-- Node106 -->
<g id="node15" class="node">
<title>Node106</title>
<g id="a_node15"><a xlink:href="classSignalIntegrity_1_1Lib_1_1Parsers_1_1DeembedderParser_1_1DeembedderParser.xhtml" target="_top" xlink:title="base class for netlist based deembedding solutions">
<polygon fill="white" stroke="black" points="276,-76.5 276,-95.5 386,-95.5 386,-76.5 276,-76.5"/>
<text text-anchor="middle" x="331" y="-83.5" font-family="Helvetica,sans-Serif" font-size="10.00">DeembedderParser</text>
</a>
</g>
</g>
<!-- Node104&#45;&gt;Node106 -->
<g id="edge14" class="edge">
<title>Node104&#45;&gt;Node106</title>
<path fill="none" stroke="midnightblue" d="M250.35,-86C258.96,-86 267.56,-86 275.77,-86"/>
<polygon fill="midnightblue" stroke="midnightblue" points="250.28,-82.5 240.28,-86 250.28,-89.5 250.28,-82.5"/>
</g>
<!-- Node107 -->
<g id="node16" class="node">
<title>Node107</title>
<g id="a_node16"><a xlink:href="classSignalIntegrity_1_1Lib_1_1Parsers_1_1SimulatorParser_1_1SimulatorParser.xhtml" target="_top" xlink:title="base class for netlist based simulation solutions">
<polygon fill="white" stroke="black" points="283.5,-38.5 283.5,-57.5 378.5,-57.5 378.5,-38.5 283.5,-38.5"/>
<text text-anchor="middle" x="331" y="-45.5" font-family="Helvetica,sans-Serif" font-size="10.00">SimulatorParser</text>
</a>
</g>
</g>
<!-- Node104&#45;&gt;Node107 -->
<g id="edge16" class="edge">
<title>Node104&#45;&gt;Node107</title>
<path fill="none" stroke="midnightblue" d="M221.08,-74.03C243.36,-68.71 269.23,-62.52 290.17,-57.52"/>
<polygon fill="midnightblue" stroke="midnightblue" points="220.03,-70.68 211.12,-76.41 221.66,-77.49 220.03,-70.68"/>
</g>
<!-- Node108 -->
<g id="node17" class="node">
<title>Node108</title>
<g id="a_node17"><a xlink:href="classSignalIntegrity_1_1Lib_1_1Parsers_1_1VirtualProbeParser_1_1VirtualProbeParser.xhtml" target="_top" xlink:title="base class for netlist based virtual probing solutions">
<polygon fill="white" stroke="black" points="277.5,-0.5 277.5,-19.5 384.5,-19.5 384.5,-0.5 277.5,-0.5"/>
<text text-anchor="middle" x="331" y="-7.5" font-family="Helvetica,sans-Serif" font-size="10.00">VirtualProbeParser</text>
</a>
</g>
</g>
<!-- Node104&#45;&gt;Node108 -->
<g id="edge19" class="edge">
<title>Node104&#45;&gt;Node108</title>
<path fill="none" stroke="midnightblue" d="M195.83,-71.06C216.75,-58.83 247.72,-41.55 276,-29 283.72,-25.57 292.27,-22.33 300.24,-19.52"/>
<polygon fill="midnightblue" stroke="midnightblue" points="193.8,-68.2 186.96,-76.29 197.35,-74.22 193.8,-68.2"/>
</g>
<!-- Node105&#45;&gt;Node3 -->
<g id="edge13" class="edge">
<title>Node105&#45;&gt;Node3</title>
<path fill="none" stroke="midnightblue" d="M391.84,-238C404.02,-238 416.93,-238 429.43,-238"/>
<polygon fill="midnightblue" stroke="midnightblue" points="391.8,-234.5 381.8,-238 391.8,-241.5 391.8,-234.5"/>
</g>
<!-- Node106&#45;&gt;Node4 -->
<g id="edge15" class="edge">
<title>Node106&#45;&gt;Node4</title>
<path fill="none" stroke="midnightblue" d="M396.64,-96.03C410.28,-98.15 424.62,-100.38 438.13,-102.47"/>
<polygon fill="midnightblue" stroke="midnightblue" points="396.8,-92.52 386.38,-94.44 395.73,-99.43 396.8,-92.52"/>
</g>
<!-- Node107&#45;&gt;Node5 -->
<g id="edge17" class="edge">
<title>Node107&#45;&gt;Node5</title>
<path fill="none" stroke="midnightblue" d="M388.83,-56.82C404.68,-59.28 421.96,-61.96 438.05,-64.46"/>
<polygon fill="midnightblue" stroke="midnightblue" points="389.08,-53.32 378.66,-55.24 388,-60.23 389.08,-53.32"/>
</g>
<!-- Node108&#45;&gt;Node9 -->
<g id="edge20" class="edge">
<title>Node108&#45;&gt;Node9</title>
<path fill="none" stroke="midnightblue" d="M394.69,-19.73C408.88,-21.93 423.93,-24.27 438.07,-26.46"/>
<polygon fill="midnightblue" stroke="midnightblue" points="394.96,-16.23 384.54,-18.16 393.88,-23.15 394.96,-16.23"/>
</g>
<!-- Node0 -->
<g id="node18" class="node">
<title>Node0</title>
<g id="a_node18"><a xlink:href="classSignalIntegrity_1_1Lib_1_1ResultsCache_1_1ResultsCache.xhtml" target="_top" xlink:title="base class for results caching">
<polygon fill="white" stroke="black" points="128.5,-199.5 128.5,-218.5 211.5,-218.5 211.5,-199.5 128.5,-199.5"/>
<text text-anchor="middle" x="170" y="-206.5" font-family="Helvetica,sans-Serif" font-size="10.00">ResultsCache</text>
</a>
</g>
</g>
<!-- Node0&#45;&gt;Node1 -->
<g id="edge21" class="edge">
<title>Node0&#45;&gt;Node1</title>
<path fill="none" stroke="midnightblue" d="M198.77,-223.31C219.63,-233.65 249.1,-247.43 276,-257 339.17,-279.47 356.99,-278.57 422,-295 434.36,-298.12 447.84,-301.45 460.05,-304.44"/>
<polygon fill="midnightblue" stroke="midnightblue" points="200.07,-220.04 189.56,-218.68 196.93,-226.3 200.07,-220.04"/>
</g>
<!-- Node2 -->
<g id="node19" class="node">
<title>Node2</title>
<g id="a_node19"><a xlink:href="classSignalIntegrity_1_1Lib_1_1ResultsCache_1_1LinesCache.xhtml" target="_top" xlink:title="Caches results calculated based on netlist lines, as used in all of the parser classes.">
<polygon fill="white" stroke="black" points="295,-114.5 295,-133.5 367,-133.5 367,-114.5 295,-114.5"/>
<text text-anchor="middle" x="331" y="-121.5" font-family="Helvetica,sans-Serif" font-size="10.00">LinesCache</text>
</a>
</g>
</g>
<!-- Node0&#45;&gt;Node2 -->
<g id="edge22" class="edge">
<title>Node0&#45;&gt;Node2</title>
<path fill="none" stroke="midnightblue" d="M197.87,-194.63C230.31,-177.29 283.99,-148.6 311.89,-133.68"/>
<polygon fill="midnightblue" stroke="midnightblue" points="196.1,-191.61 188.93,-199.41 199.4,-197.79 196.1,-191.61"/>
</g>
<!-- Node2&#45;&gt;Node3 -->
<g id="edge23" class="edge">
<title>Node2&#45;&gt;Node3</title>
<path fill="none" stroke="midnightblue" d="M348.25,-141.16C374.15,-168.51 421.93,-218.96 422,-219 428.71,-222.9 436.19,-226 443.78,-228.47"/>
<polygon fill="midnightblue" stroke="midnightblue" points="350.7,-138.66 341.28,-133.8 345.62,-143.47 350.7,-138.66"/>
</g>
<!-- Node2&#45;&gt;Node4 -->
<g id="edge24" class="edge">
<title>Node2&#45;&gt;Node4</title>
<path fill="none" stroke="midnightblue" d="M377.31,-120.75C391.84,-119.71 408.34,-118.53 424.41,-117.38"/>
<polygon fill="midnightblue" stroke="midnightblue" points="376.84,-117.28 367.11,-121.48 377.34,-124.26 376.84,-117.28"/>
</g>
<!-- Node2&#45;&gt;Node5 -->
<g id="edge25" class="edge">
<title>Node2&#45;&gt;Node5</title>
<path fill="none" stroke="midnightblue" d="M368.86,-111.13C391.26,-103.33 416.58,-94.59 422,-93 433.43,-89.64 445.93,-86.39 457.48,-83.56"/>
<polygon fill="midnightblue" stroke="midnightblue" points="367.47,-107.9 359.18,-114.5 369.77,-114.51 367.47,-107.9"/>
</g>
<!-- Node2&#45;&gt;Node7 -->
<g id="edge26" class="edge">
<title>Node2&#45;&gt;Node7</title>
<path fill="none" stroke="midnightblue" d="M377.23,-132.64C390.95,-135.26 406.43,-138.22 421.66,-141.13"/>
<polygon fill="midnightblue" stroke="midnightblue" points="377.59,-129.15 367.11,-130.71 376.28,-136.02 377.59,-129.15"/>
</g>
<!-- Node2&#45;&gt;Node9 -->
<g id="edge27" class="edge">
<title>Node2&#45;&gt;Node9</title>
<path fill="none" stroke="midnightblue" d="M376.43,-110.94C379.8,-109.19 383.04,-107.21 386,-105 407.92,-88.59 399.3,-70.32 422,-55 427.74,-51.13 434.2,-48.04 440.87,-45.58"/>
<polygon fill="midnightblue" stroke="midnightblue" points="374.94,-107.77 367.28,-115.09 377.83,-114.15 374.94,-107.77"/>
</g>
</g>
</svg>
