<?xml version="1.0" encoding="UTF-8" standalone="no"?>
<!DOCTYPE svg PUBLIC "-//W3C//DTD SVG 1.1//EN"
 "http://www.w3.org/Graphics/SVG/1.1/DTD/svg11.dtd">
<!-- Generated by graphviz version 2.43.0 (0)
 -->
<!-- Title: Graphical Class Hierarchy Pages: 1 -->
<svg width="356pt" height="101pt"
 viewBox="0.00 0.00 356.00 101.00" xmlns="http://www.w3.org/2000/svg" xmlns:xlink="http://www.w3.org/1999/xlink">
<g id="graph0" class="graph" transform="scale(1 1) rotate(0) translate(4 97)">
<title>Graphical Class Hierarchy</title>
<!-- Node0 -->
<g id="Node000000" class="node">
<title>Node0</title>
<g id="a_Node000000"><a xlink:href="classSignalIntegrity_1_1Lib_1_1FrequencyDomain_1_1FrequencyDomain_1_1FrequencyDomain.xhtml" target="_top" xlink:title="base class for frequency domain elements.">
<polygon fill="white" stroke="#666666" points="96,-56 0,-56 0,-37 96,-37 96,-56"/>
<text text-anchor="middle" x="48" y="-44" font-family="Helvetica,sans-Serif" font-size="10.00">FrequencyDomain</text>
</a>
</g>
</g>
<!-- Node1 -->
<g id="Node000001" class="node">
<title>Node1</title>
<g id="a_Node000001"><a xlink:href="classSignalIntegrity_1_1Lib_1_1FrequencyDomain_1_1FrequencyContent_1_1FrequencyContent.xhtml" target="_top" xlink:title="Handles frequency content of waveforms.">
<polygon fill="white" stroke="#666666" points="234,-93 137,-93 137,-74 234,-74 234,-93"/>
<text text-anchor="middle" x="185.5" y="-81" font-family="Helvetica,sans-Serif" font-size="10.00">FrequencyContent</text>
</a>
</g>
</g>
<!-- Node0&#45;&gt;Node1 -->
<g id="edge50_Node000000_Node000001" class="edge">
<title>Node0&#45;&gt;Node1</title>
<g id="a_edge50_Node000000_Node000001"><a xlink:title=" ">
<path fill="none" stroke="#63b8ff" d="M93.64,-58.69C111.71,-63.62 132.27,-69.24 149.25,-73.88"/>
<polygon fill="#63b8ff" stroke="#63b8ff" points="94.46,-55.29 83.89,-56.03 92.62,-62.04 94.46,-55.29"/>
</a>
</g>
</g>
<!-- Node2 -->
<g id="Node000002" class="node">
<title>Node2</title>
<g id="a_Node000002"><a xlink:href="classSignalIntegrity_1_1Lib_1_1FrequencyDomain_1_1FrequencyResponse_1_1FrequencyResponse.xhtml" target="_top" xlink:title="FrequencyResponse &#160;&#160;Frequency response view of a waveform assumed computed from the FrequencyResponse...">
<polygon fill="white" stroke="#666666" points="239,-56 132,-56 132,-37 239,-37 239,-56"/>
<text text-anchor="middle" x="185.5" y="-44" font-family="Helvetica,sans-Serif" font-size="10.00">FrequencyResponse</text>
</a>
</g>
</g>
<!-- Node0&#45;&gt;Node2 -->
<g id="edge51_Node000000_Node000002" class="edge">
<title>Node0&#45;&gt;Node2</title>
<g id="a_edge51_Node000000_Node000002"><a xlink:title=" ">
<path fill="none" stroke="#63b8ff" d="M106.14,-46.5C114.56,-46.5 123.21,-46.5 131.54,-46.5"/>
<polygon fill="#63b8ff" stroke="#63b8ff" points="106.01,-43 96.01,-46.5 106.01,-50 106.01,-43"/>
</a>
</g>
</g>
<!-- Node4 -->
<g id="Node000004" class="node">
<title>Node4</title>
<g id="a_Node000004"><a xlink:href="classSignalIntegrity_1_1Lib_1_1FrequencyDomain_1_1SpectralDensity_1_1SpectralDensity.xhtml" target="_top" xlink:title="SpectralDensity Spectral density view of frequency&#45;domain content.">
<polygon fill="white" stroke="#666666" points="228.5,-19 142.5,-19 142.5,0 228.5,0 228.5,-19"/>
<text text-anchor="middle" x="185.5" y="-7" font-family="Helvetica,sans-Serif" font-size="10.00">SpectralDensity</text>
</a>
</g>
</g>
<!-- Node0&#45;&gt;Node4 -->
<g id="edge53_Node000000_Node000004" class="edge">
<title>Node0&#45;&gt;Node4</title>
<g id="a_edge53_Node000000_Node000004"><a xlink:title=" ">
<path fill="none" stroke="#63b8ff" d="M93.64,-34.31C111.71,-29.38 132.27,-23.76 149.25,-19.12"/>
<polygon fill="#63b8ff" stroke="#63b8ff" points="92.62,-30.96 83.89,-36.97 94.46,-37.71 92.62,-30.96"/>
</a>
</g>
</g>
<!-- Node3 -->
<g id="Node000003" class="node">
<title>Node3</title>
<g id="a_Node000003"><a xlink:href="classSignalIntegrity_1_1Lib_1_1FrequencyDomain_1_1Differentiator_1_1Differentiator.xhtml" target="_top" xlink:title="Frequency response of a differentiator.">
<polygon fill="white" stroke="#666666" points="348,-56 275,-56 275,-37 348,-37 348,-56"/>
<text text-anchor="middle" x="311.5" y="-44" font-family="Helvetica,sans-Serif" font-size="10.00">Differentiator</text>
</a>
</g>
</g>
<!-- Node2&#45;&gt;Node3 -->
<g id="edge52_Node000002_Node000003" class="edge">
<title>Node2&#45;&gt;Node3</title>
<g id="a_edge52_Node000002_Node000003"><a xlink:title=" ">
<path fill="none" stroke="#63b8ff" d="M249.3,-46.5C258.02,-46.5 266.72,-46.5 274.71,-46.5"/>
<polygon fill="#63b8ff" stroke="#63b8ff" points="249.09,-43 239.09,-46.5 249.09,-50 249.09,-43"/>
</a>
</g>
</g>
</g>
</svg>
