<?xml version="1.0" encoding="UTF-8" standalone="no"?>
<!DOCTYPE svg PUBLIC "-//W3C//DTD SVG 1.1//EN"
 "http://www.w3.org/Graphics/SVG/1.1/DTD/svg11.dtd">
<!-- Generated by graphviz version 2.43.0 (0)
 -->
<!-- Title: Graphical Class Hierarchy Pages: 1 -->
<svg width="409pt" height="332pt"
 viewBox="0.00 0.00 409.00 332.00" xmlns="http://www.w3.org/2000/svg" xmlns:xlink="http://www.w3.org/1999/xlink">
<g id="graph0" class="graph" transform="scale(1 1) rotate(0) translate(4 328)">
<title>Graphical Class Hierarchy</title>
<polygon fill="white" stroke="transparent" points="-4,4 -4,-328 405,-328 405,4 -4,4"/>
<!-- Node0 -->
<g id="node1" class="node">
<title>Node0</title>
<g id="a_node1"><a xlink:href="classSignalIntegrity_1_1Lib_1_1TimeDomain_1_1Waveform_1_1Waveform_1_1Waveform.xhtml" target="_top" xlink:title="base class for all waveforms">
<polygon fill="white" stroke="black" points="0,-152.5 0,-171.5 61,-171.5 61,-152.5 0,-152.5"/>
<text text-anchor="middle" x="30.5" y="-159.5" font-family="Helvetica,sans-Serif" font-size="10.00">Waveform</text>
</a>
</g>
</g>
<!-- Node1 -->
<g id="node2" class="node">
<title>Node1</title>
<g id="a_node2"><a xlink:href="classSignalIntegrity_1_1Lib_1_1Eye_1_1ClockRecovery_1_1ClockRecoveredWaveform.xhtml" target="_top" xlink:title="Resamples an input waveform using clock recovery.">
<polygon fill="white" stroke="black" points="98.5,-304.5 98.5,-323.5 232.5,-323.5 232.5,-304.5 98.5,-304.5"/>
<text text-anchor="middle" x="165.5" y="-311.5" font-family="Helvetica,sans-Serif" font-size="10.00">ClockRecoveredWaveform</text>
</a>
</g>
</g>
<!-- Node0&#45;&gt;Node1 -->
<g id="edge1" class="edge">
<title>Node0&#45;&gt;Node1</title>
<path fill="none" stroke="midnightblue" d="M35.75,-181.51C43.12,-210.59 61.03,-265.08 97,-295 101.68,-298.89 107.11,-301.99 112.81,-304.45"/>
<polygon fill="midnightblue" stroke="midnightblue" points="39.14,-180.64 33.43,-171.72 32.33,-182.25 39.14,-180.64"/>
</g>
<!-- Node2 -->
<g id="node3" class="node">
<title>Node2</title>
<g id="a_node3"><a xlink:href="classSignalIntegrity_1_1Lib_1_1ImpedanceProfile_1_1ImpedanceProfileWaveform_1_1ImpedanceProfileWaveform.xhtml" target="_top" xlink:title="Computes the impedance profile waveform from a set of s&#45;parameters using the port specified.">
<polygon fill="white" stroke="black" points="97,-266.5 97,-285.5 234,-285.5 234,-266.5 97,-266.5"/>
<text text-anchor="middle" x="165.5" y="-273.5" font-family="Helvetica,sans-Serif" font-size="10.00">ImpedanceProfileWaveform</text>
</a>
</g>
</g>
<!-- Node0&#45;&gt;Node2 -->
<g id="edge2" class="edge">
<title>Node0&#45;&gt;Node2</title>
<path fill="none" stroke="midnightblue" d="M39.63,-180.89C49.89,-202.49 69.57,-237.38 97,-257 102.45,-260.89 108.67,-263.99 115.08,-266.46"/>
<polygon fill="midnightblue" stroke="midnightblue" points="42.8,-179.4 35.47,-171.74 36.42,-182.29 42.8,-179.4"/>
</g>
<!-- Node3 -->
<g id="node4" class="node">
<title>Node3</title>
<g id="a_node4"><a xlink:href="classSignalIntegrity_1_1Lib_1_1Prbs_1_1MultiLevelWaveform_1_1MultiLevelWaveform.xhtml" target="_top" xlink:title="a PRBS multi&#45;level waveform with a given PRBS polynomial">
<polygon fill="white" stroke="black" points="113,-228.5 113,-247.5 218,-247.5 218,-228.5 113,-228.5"/>
<text text-anchor="middle" x="165.5" y="-235.5" font-family="Helvetica,sans-Serif" font-size="10.00">MultiLevelWaveform</text>
</a>
</g>
</g>
<!-- Node0&#45;&gt;Node3 -->
<g id="edge3" class="edge">
<title>Node0&#45;&gt;Node3</title>
<path fill="none" stroke="midnightblue" d="M46.73,-178.8C59.12,-191.53 77.67,-208.56 97,-219 104.07,-222.82 111.98,-225.93 119.83,-228.45"/>
<polygon fill="midnightblue" stroke="midnightblue" points="49.26,-176.39 39.85,-171.53 44.18,-181.2 49.26,-176.39"/>
</g>
<!-- Node4 -->
<g id="node5" class="node">
<title>Node4</title>
<g id="a_node5"><a xlink:href="classSignalIntegrity_1_1Lib_1_1Prbs_1_1SerialDataWaveform_1_1SerialDataWaveform.xhtml" target="_top" xlink:title="a serial data NRZ waveform">
<polygon fill="white" stroke="black" points="112,-190.5 112,-209.5 219,-209.5 219,-190.5 112,-190.5"/>
<text text-anchor="middle" x="165.5" y="-197.5" font-family="Helvetica,sans-Serif" font-size="10.00">SerialDataWaveform</text>
</a>
</g>
</g>
<!-- Node0&#45;&gt;Node4 -->
<g id="edge4" class="edge">
<title>Node0&#45;&gt;Node4</title>
<path fill="none" stroke="midnightblue" d="M70.96,-173.5C79.54,-175.99 88.57,-178.59 97,-181 107.89,-184.11 119.77,-187.47 130.49,-190.48"/>
<polygon fill="midnightblue" stroke="midnightblue" points="71.74,-170.08 61.16,-170.66 69.79,-176.81 71.74,-170.08"/>
</g>
<!-- Node7 -->
<g id="node8" class="node">
<title>Node7</title>
<g id="a_node8"><a xlink:href="classSignalIntegrity_1_1Lib_1_1TimeDomain_1_1Waveform_1_1ImpulseResponse_1_1ImpulseResponse.xhtml" target="_top" xlink:title="impulse response of a filter as a waveform">
<polygon fill="white" stroke="black" points="118,-152.5 118,-171.5 213,-171.5 213,-152.5 118,-152.5"/>
<text text-anchor="middle" x="165.5" y="-159.5" font-family="Helvetica,sans-Serif" font-size="10.00">ImpulseResponse</text>
</a>
</g>
</g>
<!-- Node0&#45;&gt;Node7 -->
<g id="edge7" class="edge">
<title>Node0&#45;&gt;Node7</title>
<path fill="none" stroke="midnightblue" d="M71.26,-162C85.91,-162 102.63,-162 117.83,-162"/>
<polygon fill="midnightblue" stroke="midnightblue" points="71.02,-158.5 61.02,-162 71.02,-165.5 71.02,-158.5"/>
</g>
<!-- Node8 -->
<g id="node9" class="node">
<title>Node8</title>
<g id="a_node9"><a xlink:href="classSignalIntegrity_1_1Lib_1_1TimeDomain_1_1Waveform_1_1NoiseWaveform_1_1NoiseWaveform.xhtml" target="_top" xlink:title="noise waveform">
<polygon fill="white" stroke="black" points="122.5,-114.5 122.5,-133.5 208.5,-133.5 208.5,-114.5 122.5,-114.5"/>
<text text-anchor="middle" x="165.5" y="-121.5" font-family="Helvetica,sans-Serif" font-size="10.00">NoiseWaveform</text>
</a>
</g>
</g>
<!-- Node0&#45;&gt;Node8 -->
<g id="edge8" class="edge">
<title>Node0&#45;&gt;Node8</title>
<path fill="none" stroke="midnightblue" d="M70.96,-150.5C79.54,-148.01 88.57,-145.41 97,-143 107.89,-139.89 119.77,-136.53 130.49,-133.52"/>
<polygon fill="midnightblue" stroke="midnightblue" points="69.79,-147.19 61.16,-153.34 71.74,-153.92 69.79,-147.19"/>
</g>
<!-- Node9 -->
<g id="node10" class="node">
<title>Node9</title>
<g id="a_node10"><a xlink:href="classSignalIntegrity_1_1Lib_1_1TimeDomain_1_1Waveform_1_1PulseWaveform_1_1PulseWaveform.xhtml" target="_top" xlink:title="pulse waveform">
<polygon fill="white" stroke="black" points="122.5,-76.5 122.5,-95.5 208.5,-95.5 208.5,-76.5 122.5,-76.5"/>
<text text-anchor="middle" x="165.5" y="-83.5" font-family="Helvetica,sans-Serif" font-size="10.00">PulseWaveform</text>
</a>
</g>
</g>
<!-- Node0&#45;&gt;Node9 -->
<g id="edge9" class="edge">
<title>Node0&#45;&gt;Node9</title>
<path fill="none" stroke="midnightblue" d="M46.73,-145.2C59.12,-132.47 77.67,-115.44 97,-105 104.82,-100.78 113.67,-97.42 122.32,-94.77"/>
<polygon fill="midnightblue" stroke="midnightblue" points="44.18,-142.8 39.85,-152.47 49.26,-147.61 44.18,-142.8"/>
</g>
<!-- Node10 -->
<g id="node11" class="node">
<title>Node10</title>
<g id="a_node11"><a xlink:href="classSignalIntegrity_1_1Lib_1_1TimeDomain_1_1Waveform_1_1SineWaveform_1_1SineWaveform.xhtml" target="_top" xlink:title="sinewave waveform">
<polygon fill="white" stroke="black" points="125.5,-38.5 125.5,-57.5 205.5,-57.5 205.5,-38.5 125.5,-38.5"/>
<text text-anchor="middle" x="165.5" y="-45.5" font-family="Helvetica,sans-Serif" font-size="10.00">SineWaveform</text>
</a>
</g>
</g>
<!-- Node0&#45;&gt;Node10 -->
<g id="edge10" class="edge">
<title>Node0&#45;&gt;Node10</title>
<path fill="none" stroke="midnightblue" d="M39.63,-143.11C49.89,-121.51 69.57,-86.62 97,-67 105.32,-61.05 115.45,-56.96 125.3,-54.15"/>
<polygon fill="midnightblue" stroke="midnightblue" points="36.42,-141.71 35.47,-152.26 42.8,-144.6 36.42,-141.71"/>
</g>
<!-- Node11 -->
<g id="node12" class="node">
<title>Node11</title>
<g id="a_node12"><a xlink:href="classSignalIntegrity_1_1Lib_1_1TimeDomain_1_1Waveform_1_1StepWaveform_1_1StepWaveform.xhtml" target="_top" xlink:title="step waveform">
<polygon fill="white" stroke="black" points="125,-0.5 125,-19.5 206,-19.5 206,-0.5 125,-0.5"/>
<text text-anchor="middle" x="165.5" y="-7.5" font-family="Helvetica,sans-Serif" font-size="10.00">StepWaveform</text>
</a>
</g>
</g>
<!-- Node0&#45;&gt;Node11 -->
<g id="edge11" class="edge">
<title>Node0&#45;&gt;Node11</title>
<path fill="none" stroke="midnightblue" d="M35.75,-142.49C43.12,-113.41 61.03,-58.92 97,-29 104.86,-22.46 114.83,-18.17 124.68,-15.35"/>
<polygon fill="midnightblue" stroke="midnightblue" points="32.33,-141.75 33.43,-152.28 39.14,-143.36 32.33,-141.75"/>
</g>
<!-- Node5 -->
<g id="node6" class="node">
<title>Node5</title>
<g id="a_node6"><a xlink:href="classSignalIntegrity_1_1Lib_1_1Prbs_1_1ClockWaveform_1_1ClockWaveform.xhtml" target="_top" xlink:title="a clock waveform">
<polygon fill="white" stroke="black" points="292.5,-209.5 292.5,-228.5 378.5,-228.5 378.5,-209.5 292.5,-209.5"/>
<text text-anchor="middle" x="335.5" y="-216.5" font-family="Helvetica,sans-Serif" font-size="10.00">ClockWaveform</text>
</a>
</g>
</g>
<!-- Node4&#45;&gt;Node5 -->
<g id="edge5" class="edge">
<title>Node4&#45;&gt;Node5</title>
<path fill="none" stroke="midnightblue" d="M229.34,-207.11C250.38,-209.49 273.31,-212.08 292.37,-214.24"/>
<polygon fill="midnightblue" stroke="midnightblue" points="229.53,-203.61 219.2,-205.96 228.74,-210.56 229.53,-203.61"/>
</g>
<!-- Node6 -->
<g id="node7" class="node">
<title>Node6</title>
<g id="a_node7"><a xlink:href="classSignalIntegrity_1_1Lib_1_1Prbs_1_1PseudoRandomWaveform_1_1PseudoRandomWaveform.xhtml" target="_top" xlink:title="a PRBS waveform with a given PRBS polynomial">
<polygon fill="white" stroke="black" points="270,-171.5 270,-190.5 401,-190.5 401,-171.5 270,-171.5"/>
<text text-anchor="middle" x="335.5" y="-178.5" font-family="Helvetica,sans-Serif" font-size="10.00">PseudoRandomWaveform</text>
</a>
</g>
</g>
<!-- Node4&#45;&gt;Node6 -->
<g id="edge6" class="edge">
<title>Node4&#45;&gt;Node6</title>
<path fill="none" stroke="midnightblue" d="M229.18,-192.91C242.47,-191.41 256.52,-189.82 269.88,-188.31"/>
<polygon fill="midnightblue" stroke="midnightblue" points="228.74,-189.44 219.2,-194.04 229.53,-196.39 228.74,-189.44"/>
</g>
</g>
</svg>
