<?xml version="1.0" encoding="UTF-8" standalone="no"?>
<!DOCTYPE svg PUBLIC "-//W3C//DTD SVG 1.1//EN"
 "http://www.w3.org/Graphics/SVG/1.1/DTD/svg11.dtd">
<!-- Generated by graphviz version 2.43.0 (0)
 -->
<!-- Title: Graphical Class Hierarchy Pages: 1 -->
<svg width="263pt" height="66pt"
 viewBox="0.00 0.00 263.00 66.00" xmlns="http://www.w3.org/2000/svg" xmlns:xlink="http://www.w3.org/1999/xlink">
<g id="graph0" class="graph" transform="scale(1 1) rotate(0) translate(4 62)">
<title>Graphical Class Hierarchy</title>
<polygon fill="white" stroke="transparent" points="-4,4 -4,-62 259,-62 259,4 -4,4"/>
<!-- Node0 -->
<g id="node1" class="node">
<title>Node0</title>
<g id="a_node1"><a xlink:href="classSignalIntegrity_1_1Lib_1_1FrequencyDomain_1_1FrequencyList_1_1FrequencyList.xhtml" target="_top" xlink:title="Frequency lists.">
<polygon fill="white" stroke="black" points="0,-19.5 0,-38.5 78,-38.5 78,-19.5 0,-19.5"/>
<text text-anchor="middle" x="39" y="-26.5" font-family="Helvetica,sans-Serif" font-size="10.00">FrequencyList</text>
</a>
</g>
</g>
<!-- Node1 -->
<g id="node2" class="node">
<title>Node1</title>
<g id="a_node2"><a xlink:href="classSignalIntegrity_1_1Lib_1_1FrequencyDomain_1_1FrequencyList_1_1EvenlySpacedFrequencyList.xhtml" target="_top" xlink:title="A evenly spaced list of frequencies.">
<polygon fill="white" stroke="black" points="114,-38.5 114,-57.5 255,-57.5 255,-38.5 114,-38.5"/>
<text text-anchor="middle" x="184.5" y="-45.5" font-family="Helvetica,sans-Serif" font-size="10.00">EvenlySpacedFrequencyList</text>
</a>
</g>
</g>
<!-- Node0&#45;&gt;Node1 -->
<g id="edge1" class="edge">
<title>Node0&#45;&gt;Node1</title>
<path fill="none" stroke="midnightblue" d="M88.24,-35.39C96.49,-36.48 105.2,-37.63 113.88,-38.78"/>
<polygon fill="midnightblue" stroke="midnightblue" points="88.45,-31.88 78.08,-34.04 87.53,-38.82 88.45,-31.88"/>
</g>
<!-- Node2 -->
<g id="node3" class="node">
<title>Node2</title>
<g id="a_node3"><a xlink:href="classSignalIntegrity_1_1Lib_1_1FrequencyDomain_1_1FrequencyList_1_1GenericFrequencyList.xhtml" target="_top" xlink:title="A generic list of frequencies assumed to be not evenly spaced.">
<polygon fill="white" stroke="black" points="128.5,-0.5 128.5,-19.5 240.5,-19.5 240.5,-0.5 128.5,-0.5"/>
<text text-anchor="middle" x="184.5" y="-7.5" font-family="Helvetica,sans-Serif" font-size="10.00">GenericFrequencyList</text>
</a>
</g>
</g>
<!-- Node0&#45;&gt;Node2 -->
<g id="edge2" class="edge">
<title>Node0&#45;&gt;Node2</title>
<path fill="none" stroke="midnightblue" d="M88.17,-22.62C101.12,-20.91 115.21,-19.04 128.49,-17.28"/>
<polygon fill="midnightblue" stroke="midnightblue" points="87.53,-19.18 78.08,-23.96 88.45,-26.12 87.53,-19.18"/>
</g>
</g>
</svg>
