<?xml version="1.0" encoding="UTF-8" standalone="no"?>
<!DOCTYPE svg PUBLIC "-//W3C//DTD SVG 1.1//EN"
 "http://www.w3.org/Graphics/SVG/1.1/DTD/svg11.dtd">
<!-- Generated by graphviz version 2.40.1 (20161225.0304)
 -->
<!-- Title: Graphical Class Hierarchy Pages: 1 -->
<svg width="453pt" height="203pt"
 viewBox="0.00 0.00 453.00 202.50" xmlns="http://www.w3.org/2000/svg" xmlns:xlink="http://www.w3.org/1999/xlink">
<g id="graph0" class="graph" transform="scale(1 1) rotate(0) translate(4 198.5)">
<title>Graphical Class Hierarchy</title>
<polygon fill="#ffffff" stroke="transparent" points="-4,4 -4,-198.5 449,-198.5 449,4 -4,4"/>
<!-- Node109 -->
<g id="node1" class="node">
<title>Node109</title>
<g id="a_node1"><a xlink:href="classSignalIntegrity_1_1Lib_1_1TimeDomain_1_1Filters_1_1FilterDescriptor_1_1FilterDescriptor.xhtml" target="_top" xlink:title="FilterDescriptor.py. ">
<polygon fill="#ffffff" stroke="#000000" points="11.5,-156 11.5,-175 94.5,-175 94.5,-156 11.5,-156"/>
<text text-anchor="middle" x="53" y="-163" font-family="Helvetica,sans-Serif" font-size="10.00" fill="#000000">FilterDescriptor</text>
</a>
</g>
</g>
<!-- Node9 -->
<g id="node2" class="node">
<title>Node9</title>
<g id="a_node2"><a xlink:href="classSignalIntegrity_1_1Lib_1_1TimeDomain_1_1Filters_1_1WaveformDecimator_1_1WaveformDecimator.xhtml" target="_top" xlink:title="decimates waveforms ">
<polygon fill="#ffffff" stroke="#000000" points="155.5,-137 155.5,-156 262.5,-156 262.5,-137 155.5,-137"/>
<text text-anchor="middle" x="209" y="-144" font-family="Helvetica,sans-Serif" font-size="10.00" fill="#000000">WaveformDecimator</text>
</a>
</g>
</g>
<!-- Node109&#45;&gt;Node9 -->
<g id="edge1" class="edge">
<title>Node109&#45;&gt;Node9</title>
<path fill="none" stroke="#191970" d="M105.1349,-159.1502C121.2705,-157.185 139.0713,-155.017 155.3102,-153.0391"/>
<polygon fill="#191970" stroke="#191970" points="104.3086,-155.7249 94.8051,-160.4083 105.155,-162.6736 104.3086,-155.7249"/>
</g>
<!-- Node10 -->
<g id="node3" class="node">
<title>Node10</title>
<g id="a_node3"><a xlink:href="classSignalIntegrity_1_1Lib_1_1TimeDomain_1_1Filters_1_1WaveformTrimmer_1_1WaveformTrimmer.xhtml" target="_top" xlink:title="trims waveforms ">
<polygon fill="#ffffff" stroke="#000000" points="160,-175 160,-194 258,-194 258,-175 160,-175"/>
<text text-anchor="middle" x="209" y="-182" font-family="Helvetica,sans-Serif" font-size="10.00" fill="#000000">WaveformTrimmer</text>
</a>
</g>
</g>
<!-- Node109&#45;&gt;Node10 -->
<g id="edge2" class="edge">
<title>Node109&#45;&gt;Node10</title>
<path fill="none" stroke="#191970" d="M104.9649,-171.8291C122.672,-173.9857 142.4012,-176.3886 159.8782,-178.5172"/>
<polygon fill="#191970" stroke="#191970" points="105.155,-168.3264 94.8051,-170.5917 104.3086,-175.2751 105.155,-168.3264"/>
</g>
<!-- Node0 -->
<g id="node4" class="node">
<title>Node0</title>
<g id="a_node4"><a xlink:href="classSignalIntegrity_1_1Lib_1_1TimeDomain_1_1Filters_1_1WaveformProcessor_1_1WaveformProcessor.xhtml" target="_top" xlink:title="WaveformProcessor.py. ">
<polygon fill="#ffffff" stroke="#000000" points="0,-99 0,-118 106,-118 106,-99 0,-99"/>
<text text-anchor="middle" x="53" y="-106" font-family="Helvetica,sans-Serif" font-size="10.00" fill="#000000">WaveformProcessor</text>
</a>
</g>
</g>
<!-- Node0&#45;&gt;Node9 -->
<g id="edge11" class="edge">
<title>Node0&#45;&gt;Node9</title>
<path fill="none" stroke="#191970" d="M102.1317,-120.468C123.9927,-125.7931 149.3761,-131.9762 169.9177,-136.9799"/>
<polygon fill="#191970" stroke="#191970" points="102.9097,-117.0552 92.3654,-118.089 101.2529,-123.8563 102.9097,-117.0552"/>
</g>
<!-- Node0&#45;&gt;Node10 -->
<g id="edge12" class="edge">
<title>Node0&#45;&gt;Node10</title>
<path fill="none" stroke="#191970" d="M73.5732,-124.1618C91.0022,-136.804 117.066,-154.2759 142,-165.5 150.1586,-169.1726 159.1988,-172.3095 167.9292,-174.9137"/>
<polygon fill="#191970" stroke="#191970" points="75.421,-121.1754 65.2978,-118.0496 71.2622,-126.8061 75.421,-121.1754"/>
</g>
<!-- Node1 -->
<g id="node5" class="node">
<title>Node1</title>
<g id="a_node5"><a xlink:href="classSignalIntegrity_1_1Lib_1_1TimeDomain_1_1Filters_1_1FirFilter_1_1FirFilter.xhtml" target="_top" xlink:title="base filter class for all FIR filters ">
<polygon fill="#ffffff" stroke="#000000" points="184,-99 184,-118 234,-118 234,-99 184,-99"/>
<text text-anchor="middle" x="209" y="-106" font-family="Helvetica,sans-Serif" font-size="10.00" fill="#000000">FirFilter</text>
</a>
</g>
</g>
<!-- Node0&#45;&gt;Node1 -->
<g id="edge3" class="edge">
<title>Node0&#45;&gt;Node1</title>
<path fill="none" stroke="#191970" d="M116.2832,-108.5C140.0263,-108.5 165.6573,-108.5 183.94,-108.5"/>
<polygon fill="#191970" stroke="#191970" points="116.2501,-105.0001 106.25,-108.5 116.25,-112.0001 116.2501,-105.0001"/>
</g>
<!-- Node7 -->
<g id="node11" class="node">
<title>Node7</title>
<g id="a_node11"><a xlink:href="classSignalIntegrity_1_1Lib_1_1TimeDomain_1_1Filters_1_1InterpolatorLinear_1_1InterpolatorFractionalDelayFilterLinear.xhtml" target="_top" xlink:title="combination linear fractional delay and interpolating filter ">
<polygon fill="#ffffff" stroke="#000000" points="142,-49.5 142,-79.5 276,-79.5 276,-49.5 142,-49.5"/>
<text text-anchor="start" x="150" y="-67.5" font-family="Helvetica,sans-Serif" font-size="10.00" fill="#000000">InterpolatorFractionalDelay</text>
<text text-anchor="middle" x="209" y="-56.5" font-family="Helvetica,sans-Serif" font-size="10.00" fill="#000000">FilterLinear</text>
</a>
</g>
</g>
<!-- Node0&#45;&gt;Node7 -->
<g id="edge9" class="edge">
<title>Node0&#45;&gt;Node7</title>
<path fill="none" stroke="#191970" d="M96.6508,-96.1882C114.937,-91.0306 136.3705,-84.9852 155.5864,-79.5654"/>
<polygon fill="#191970" stroke="#191970" points="95.524,-92.8694 86.8497,-98.9527 97.4243,-99.6066 95.524,-92.8694"/>
</g>
<!-- Node8 -->
<g id="node12" class="node">
<title>Node8</title>
<g id="a_node12"><a xlink:href="classSignalIntegrity_1_1Lib_1_1TimeDomain_1_1Filters_1_1InterpolatorSinX_1_1InterpolatorFractionalDelayFilterSinX.xhtml" target="_top" xlink:title="combination sinx/x fractional delay and interpolating filter ">
<polygon fill="#ffffff" stroke="#000000" points="142,-.5 142,-30.5 276,-30.5 276,-.5 142,-.5"/>
<text text-anchor="start" x="150" y="-18.5" font-family="Helvetica,sans-Serif" font-size="10.00" fill="#000000">InterpolatorFractionalDelay</text>
<text text-anchor="middle" x="209" y="-7.5" font-family="Helvetica,sans-Serif" font-size="10.00" fill="#000000">FilterSinX</text>
</a>
</g>
</g>
<!-- Node0&#45;&gt;Node8 -->
<g id="edge10" class="edge">
<title>Node0&#45;&gt;Node8</title>
<path fill="none" stroke="#191970" d="M70.7565,-91.9737C87.9181,-76.6989 115.1896,-54.2068 142,-39.5 147.9581,-36.2317 154.4486,-33.26 160.9678,-30.6082"/>
<polygon fill="#191970" stroke="#191970" points="68.2524,-89.5194 63.1902,-98.8266 72.9516,-94.7077 68.2524,-89.5194"/>
</g>
<!-- Node2 -->
<g id="node6" class="node">
<title>Node2</title>
<g id="a_node6"><a xlink:href="classSignalIntegrity_1_1Lib_1_1TimeDomain_1_1Filters_1_1InterpolatorLinear_1_1FractionalDelayFilterLinear.xhtml" target="_top" xlink:title="linear fractional delay filter ">
<polygon fill="#ffffff" stroke="#000000" points="312,-175 312,-194 445,-194 445,-175 312,-175"/>
<text text-anchor="middle" x="378.5" y="-182" font-family="Helvetica,sans-Serif" font-size="10.00" fill="#000000">FractionalDelayFilterLinear</text>
</a>
</g>
</g>
<!-- Node1&#45;&gt;Node2 -->
<g id="edge4" class="edge">
<title>Node1&#45;&gt;Node2</title>
<path fill="none" stroke="#191970" d="M244.1261,-114.6976C254.8566,-117.5584 266.3592,-121.6636 276,-127.5 295.9016,-139.5482 292.1103,-153.4321 312,-165.5 318.3645,-169.3616 325.5468,-172.4672 332.7774,-174.9564"/>
<polygon fill="#191970" stroke="#191970" points="244.6998,-111.2363 234.1605,-112.32 243.0753,-118.0452 244.6998,-111.2363"/>
</g>
<!-- Node3 -->
<g id="node7" class="node">
<title>Node3</title>
<g id="a_node7"><a xlink:href="classSignalIntegrity_1_1Lib_1_1TimeDomain_1_1Filters_1_1InterpolatorLinear_1_1InterpolatorLinear.xhtml" target="_top" xlink:title="linear interpolating filter ">
<polygon fill="#ffffff" stroke="#000000" points="332.5,-137 332.5,-156 424.5,-156 424.5,-137 332.5,-137"/>
<text text-anchor="middle" x="378.5" y="-144" font-family="Helvetica,sans-Serif" font-size="10.00" fill="#000000">InterpolatorLinear</text>
</a>
</g>
</g>
<!-- Node1&#45;&gt;Node3 -->
<g id="edge5" class="edge">
<title>Node1&#45;&gt;Node3</title>
<path fill="none" stroke="#191970" d="M244.0558,-116.3591C270.7394,-122.3413 307.5853,-130.6017 335.957,-136.9623"/>
<polygon fill="#191970" stroke="#191970" points="244.5338,-112.8795 234.0103,-114.107 243.0024,-119.7099 244.5338,-112.8795"/>
</g>
<!-- Node4 -->
<g id="node8" class="node">
<title>Node4</title>
<g id="a_node8"><a xlink:href="classSignalIntegrity_1_1Lib_1_1TimeDomain_1_1Filters_1_1InterpolatorSinX_1_1FractionalDelayFilterSinX.xhtml" target="_top" xlink:title="sinx/x fractional delay filter ">
<polygon fill="#ffffff" stroke="#000000" points="314.5,-99 314.5,-118 442.5,-118 442.5,-99 314.5,-99"/>
<text text-anchor="middle" x="378.5" y="-106" font-family="Helvetica,sans-Serif" font-size="10.00" fill="#000000">FractionalDelayFilterSinX</text>
</a>
</g>
</g>
<!-- Node1&#45;&gt;Node4 -->
<g id="edge6" class="edge">
<title>Node1&#45;&gt;Node4</title>
<path fill="none" stroke="#191970" d="M244.0217,-108.5C264.2703,-108.5 290.379,-108.5 314.1965,-108.5"/>
<polygon fill="#191970" stroke="#191970" points="244.0103,-105.0001 234.0103,-108.5 244.0103,-112.0001 244.0103,-105.0001"/>
</g>
<!-- Node5 -->
<g id="node9" class="node">
<title>Node5</title>
<g id="a_node9"><a xlink:href="classSignalIntegrity_1_1Lib_1_1TimeDomain_1_1Filters_1_1InterpolatorSinX_1_1InterpolatorSinX.xhtml" target="_top" xlink:title="sinx/x interpolating filter ">
<polygon fill="#ffffff" stroke="#000000" points="335.5,-61 335.5,-80 421.5,-80 421.5,-61 335.5,-61"/>
<text text-anchor="middle" x="378.5" y="-68" font-family="Helvetica,sans-Serif" font-size="10.00" fill="#000000">InterpolatorSinX</text>
</a>
</g>
</g>
<!-- Node1&#45;&gt;Node5 -->
<g id="edge7" class="edge">
<title>Node1&#45;&gt;Node5</title>
<path fill="none" stroke="#191970" d="M244.0558,-100.6409C270.7394,-94.6587 307.5853,-86.3983 335.957,-80.0377"/>
<polygon fill="#191970" stroke="#191970" points="243.0024,-97.2901 234.0103,-102.893 244.5338,-104.1205 243.0024,-97.2901"/>
</g>
<!-- Node6 -->
<g id="node10" class="node">
<title>Node6</title>
<g id="a_node10"><a xlink:href="classSignalIntegrity_1_1Lib_1_1TimeDomain_1_1Filters_1_1RaisedCosineFilter_1_1RaisedCosineFilter.xhtml" target="_top" xlink:title="raised cosine filter ">
<polygon fill="#ffffff" stroke="#000000" points="328.5,-23 328.5,-42 428.5,-42 428.5,-23 328.5,-23"/>
<text text-anchor="middle" x="378.5" y="-30" font-family="Helvetica,sans-Serif" font-size="10.00" fill="#000000">RaisedCosineFilter</text>
</a>
</g>
</g>
<!-- Node1&#45;&gt;Node6 -->
<g id="edge8" class="edge">
<title>Node1&#45;&gt;Node6</title>
<path fill="none" stroke="#191970" d="M244.1261,-102.3024C254.8566,-99.4416 266.3592,-95.3364 276,-89.5 295.9016,-77.4518 292.1103,-63.5679 312,-51.5 318.3645,-47.6384 325.5468,-44.5328 332.7774,-42.0436"/>
<polygon fill="#191970" stroke="#191970" points="243.0753,-98.9548 234.1605,-104.68 244.6998,-105.7637 243.0753,-98.9548"/>
</g>
</g>
</svg>
