<?xml version="1.0" encoding="UTF-8" standalone="no"?>
<!DOCTYPE svg PUBLIC "-//W3C//DTD SVG 1.1//EN"
 "http://www.w3.org/Graphics/SVG/1.1/DTD/svg11.dtd">
<!-- Generated by graphviz version 2.43.0 (0)
 -->
<!-- Title: Graphical Class Hierarchy Pages: 1 -->
<svg width="652pt" height="940pt"
 viewBox="0.00 0.00 652.00 940.00" xmlns="http://www.w3.org/2000/svg" xmlns:xlink="http://www.w3.org/1999/xlink">
<g id="graph0" class="graph" transform="scale(1 1) rotate(0) translate(4 936)">
<title>Graphical Class Hierarchy</title>
<polygon fill="white" stroke="transparent" points="-4,4 -4,-936 648,-936 648,4 -4,4"/>
<!-- Node54 -->
<g id="node1" class="node">
<title>Node54</title>
<g id="a_node1"><a xlink:href="classSignalIntegrity_1_1Lib_1_1SParameters_1_1SParameterManipulation_1_1SParameterManipulation.xhtml" target="_top" xlink:title="Class for manipulations on s&#45;parameters involving passivity, causality, etc.">
<polygon fill="white" stroke="black" points="0,-456.5 0,-475.5 137,-475.5 137,-456.5 0,-456.5"/>
<text text-anchor="middle" x="68.5" y="-463.5" font-family="Helvetica,sans-Serif" font-size="10.00">SParameterManipulation</text>
</a>
</g>
</g>
<!-- Node55 -->
<g id="node2" class="node">
<title>Node55</title>
<g id="a_node2"><a xlink:href="classSignalIntegrity_1_1Lib_1_1SParameters_1_1SParameters_1_1SParameters.xhtml" target="_top" xlink:title="Class containing s&#45;parameters.">
<polygon fill="white" stroke="black" points="198,-456.5 198,-475.5 277,-475.5 277,-456.5 198,-456.5"/>
<text text-anchor="middle" x="237.5" y="-463.5" font-family="Helvetica,sans-Serif" font-size="10.00">SParameters</text>
</a>
</g>
</g>
<!-- Node54&#45;&gt;Node55 -->
<g id="edge1" class="edge">
<title>Node54&#45;&gt;Node55</title>
<path fill="none" stroke="midnightblue" d="M147.64,-466C165.09,-466 182.86,-466 197.87,-466"/>
<polygon fill="midnightblue" stroke="midnightblue" points="147.43,-462.5 137.43,-466 147.43,-469.5 147.43,-462.5"/>
</g>
<!-- Node56 -->
<g id="node3" class="node">
<title>Node56</title>
<g id="a_node3"><a xlink:href="classSignalIntegrity_1_1Lib_1_1ImpedanceProfile_1_1PeeledLaunches_1_1PeeledLaunches.xhtml" target="_top" xlink:title="S&#45;parameters with launches peeled from them.">
<polygon fill="white" stroke="black" points="384.5,-608.5 384.5,-627.5 479.5,-627.5 479.5,-608.5 384.5,-608.5"/>
<text text-anchor="middle" x="432" y="-615.5" font-family="Helvetica,sans-Serif" font-size="10.00">PeeledLaunches</text>
</a>
</g>
</g>
<!-- Node55&#45;&gt;Node56 -->
<g id="edge2" class="edge">
<title>Node55&#45;&gt;Node56</title>
<path fill="none" stroke="midnightblue" d="M246.99,-484.77C261.3,-514.14 293.12,-570.55 338,-599 351.64,-607.65 368.47,-612.46 384.04,-615.1"/>
<polygon fill="midnightblue" stroke="midnightblue" points="250.09,-483.15 242.66,-475.6 243.76,-486.14 250.09,-483.15"/>
</g>
<!-- Node57 -->
<g id="node4" class="node">
<title>Node57</title>
<g id="a_node4"><a xlink:href="classSignalIntegrity_1_1Lib_1_1ImpedanceProfile_1_1PeeledPortSParameters_1_1PeeledPortSParameters.xhtml" target="_top" xlink:title="s&#45;parameters of peeled impedance profile from port calculates the impedance profile looking into a po...">
<polygon fill="white" stroke="black" points="366.5,-570.5 366.5,-589.5 497.5,-589.5 497.5,-570.5 366.5,-570.5"/>
<text text-anchor="middle" x="432" y="-577.5" font-family="Helvetica,sans-Serif" font-size="10.00">PeeledPortSParameters</text>
</a>
</g>
</g>
<!-- Node55&#45;&gt;Node57 -->
<g id="edge3" class="edge">
<title>Node55&#45;&gt;Node57</title>
<path fill="none" stroke="midnightblue" d="M251.77,-483.72C269.1,-505.51 301.54,-541.93 338,-561 346.76,-565.58 356.52,-569.06 366.34,-571.7"/>
<polygon fill="midnightblue" stroke="midnightblue" points="254.39,-481.39 245.5,-475.63 248.86,-485.68 254.39,-481.39"/>
</g>
<!-- Node58 -->
<g id="node5" class="node">
<title>Node58</title>
<g id="a_node5"><a xlink:href="classSignalIntegrity_1_1Lib_1_1Measurement_1_1Calibration_1_1NetworkAnalyzer_1_1NetworkAnalyzer.xhtml" target="_top" xlink:title="produces calibrated or uncalibrated s&#45;parameters from a network analyzer.">
<polygon fill="white" stroke="black" points="381.5,-532.5 381.5,-551.5 482.5,-551.5 482.5,-532.5 381.5,-532.5"/>
<text text-anchor="middle" x="432" y="-539.5" font-family="Helvetica,sans-Serif" font-size="10.00">NetworkAnalyzer</text>
</a>
</g>
</g>
<!-- Node55&#45;&gt;Node58 -->
<g id="edge4" class="edge">
<title>Node55&#45;&gt;Node58</title>
<path fill="none" stroke="midnightblue" d="M260.43,-481.3C279.94,-494.24 309.7,-512.32 338,-523 351.72,-528.18 367.14,-532.05 381.42,-534.9"/>
<polygon fill="midnightblue" stroke="midnightblue" points="262.22,-478.29 251.97,-475.6 258.3,-484.09 262.22,-478.29"/>
</g>
<!-- Node59 -->
<g id="node6" class="node">
<title>Node59</title>
<g id="a_node6"><a xlink:href="classSignalIntegrity_1_1Lib_1_1Measurement_1_1CalKit_1_1Standards_1_1LoadStandard_1_1LoadStandard.xhtml" target="_top" xlink:title="Class providing the s&#45;parameters of a load standard as commonly defined for a calibration kit.">
<polygon fill="white" stroke="black" points="390.5,-494.5 390.5,-513.5 473.5,-513.5 473.5,-494.5 390.5,-494.5"/>
<text text-anchor="middle" x="432" y="-501.5" font-family="Helvetica,sans-Serif" font-size="10.00">LoadStandard</text>
</a>
</g>
</g>
<!-- Node55&#45;&gt;Node59 -->
<g id="edge5" class="edge">
<title>Node55&#45;&gt;Node59</title>
<path fill="none" stroke="midnightblue" d="M287.45,-475.66C319.32,-481.95 360.4,-490.06 390.44,-495.99"/>
<polygon fill="midnightblue" stroke="midnightblue" points="287.94,-472.19 277.46,-473.69 286.59,-479.06 287.94,-472.19"/>
</g>
<!-- Node60 -->
<g id="node7" class="node">
<title>Node60</title>
<g id="a_node7"><a xlink:href="classSignalIntegrity_1_1Lib_1_1Measurement_1_1CalKit_1_1Standards_1_1Offset_1_1Offset.xhtml" target="_top" xlink:title="class providing the s&#45;parameters of an offset portion of the various calibration standards for a cali...">
<polygon fill="white" stroke="black" points="408.5,-456.5 408.5,-475.5 455.5,-475.5 455.5,-456.5 408.5,-456.5"/>
<text text-anchor="middle" x="432" y="-463.5" font-family="Helvetica,sans-Serif" font-size="10.00">Offset</text>
</a>
</g>
</g>
<!-- Node55&#45;&gt;Node60 -->
<g id="edge6" class="edge">
<title>Node55&#45;&gt;Node60</title>
<path fill="none" stroke="midnightblue" d="M287.51,-466C326.35,-466 378.82,-466 408.36,-466"/>
<polygon fill="midnightblue" stroke="midnightblue" points="287.46,-462.5 277.46,-466 287.46,-469.5 287.46,-462.5"/>
</g>
<!-- Node62 -->
<g id="node9" class="node">
<title>Node62</title>
<g id="a_node9"><a xlink:href="classSignalIntegrity_1_1Lib_1_1Measurement_1_1CalKit_1_1Standards_1_1OpenStandard_1_1OpenStandard.xhtml" target="_top" xlink:title="class providing the s&#45;parameters of an open standard as commonly defined for a calibration kit.">
<polygon fill="white" stroke="black" points="389,-418.5 389,-437.5 475,-437.5 475,-418.5 389,-418.5"/>
<text text-anchor="middle" x="432" y="-425.5" font-family="Helvetica,sans-Serif" font-size="10.00">OpenStandard</text>
</a>
</g>
</g>
<!-- Node55&#45;&gt;Node62 -->
<g id="edge8" class="edge">
<title>Node55&#45;&gt;Node62</title>
<path fill="none" stroke="midnightblue" d="M287.28,-456.37C318.59,-450.19 358.83,-442.25 388.76,-436.34"/>
<polygon fill="midnightblue" stroke="midnightblue" points="286.59,-452.94 277.46,-458.31 287.94,-459.81 286.59,-452.94"/>
</g>
<!-- Node63 -->
<g id="node10" class="node">
<title>Node63</title>
<g id="a_node10"><a xlink:href="classSignalIntegrity_1_1Lib_1_1Measurement_1_1CalKit_1_1Standards_1_1ShortStandard_1_1ShortStandard.xhtml" target="_top" xlink:title="Class providing the s&#45;parameters of a short standard as commonly defined for a calibration kit.">
<polygon fill="white" stroke="black" points="389,-380.5 389,-399.5 475,-399.5 475,-380.5 389,-380.5"/>
<text text-anchor="middle" x="432" y="-387.5" font-family="Helvetica,sans-Serif" font-size="10.00">ShortStandard</text>
</a>
</g>
</g>
<!-- Node55&#45;&gt;Node63 -->
<g id="edge9" class="edge">
<title>Node55&#45;&gt;Node63</title>
<path fill="none" stroke="midnightblue" d="M260.43,-450.7C279.94,-437.76 309.7,-419.68 338,-409 354.19,-402.89 372.74,-398.6 389,-395.66"/>
<polygon fill="midnightblue" stroke="midnightblue" points="258.3,-447.91 251.97,-456.4 262.22,-453.71 258.3,-447.91"/>
</g>
<!-- Node1 -->
<g id="node11" class="node">
<title>Node1</title>
<g id="a_node11"><a xlink:href="classSignalIntegrity_1_1Lib_1_1Measurement_1_1CalKit_1_1Standards_1_1TerminationPolynomial_1_1TerminationCPolynomial.xhtml" target="_top" xlink:title="Class for capacitive terminations for open calibration standards.">
<polygon fill="white" stroke="black" points="364,-874.5 364,-893.5 500,-893.5 500,-874.5 364,-874.5"/>
<text text-anchor="middle" x="432" y="-881.5" font-family="Helvetica,sans-Serif" font-size="10.00">TerminationCPolynomial</text>
</a>
</g>
</g>
<!-- Node55&#45;&gt;Node1 -->
<g id="edge10" class="edge">
<title>Node55&#45;&gt;Node1</title>
<path fill="none" stroke="midnightblue" d="M240.67,-485.88C249.07,-558.94 281.73,-811.09 338,-865 345.26,-871.95 354.34,-876.67 363.96,-879.83"/>
<polygon fill="midnightblue" stroke="midnightblue" points="244.13,-485.3 239.54,-475.75 237.18,-486.08 244.13,-485.3"/>
</g>
<!-- Node2 -->
<g id="node12" class="node">
<title>Node2</title>
<g id="a_node12"><a xlink:href="classSignalIntegrity_1_1Lib_1_1Measurement_1_1CalKit_1_1Standards_1_1TerminationPolynomial_1_1TerminationLPolynomial.xhtml" target="_top" xlink:title="Class for inductive terminations for short calibration standards.">
<polygon fill="white" stroke="black" points="365,-912.5 365,-931.5 499,-931.5 499,-912.5 365,-912.5"/>
<text text-anchor="middle" x="432" y="-919.5" font-family="Helvetica,sans-Serif" font-size="10.00">TerminationLPolynomial</text>
</a>
</g>
</g>
<!-- Node55&#45;&gt;Node2 -->
<g id="edge11" class="edge">
<title>Node55&#45;&gt;Node2</title>
<path fill="none" stroke="midnightblue" d="M240.2,-485.74C247.25,-562.93 276.75,-843.1 338,-903 345.42,-910.26 354.82,-915.1 364.78,-918.26"/>
<polygon fill="midnightblue" stroke="midnightblue" points="243.66,-485.16 239.29,-475.51 236.69,-485.78 243.66,-485.16"/>
</g>
<!-- Node64 -->
<g id="node13" class="node">
<title>Node64</title>
<g id="a_node13"><a xlink:href="classSignalIntegrity_1_1Lib_1_1SParameters_1_1Devices_1_1MixedModeTline_1_1MixedModeTLine.xhtml" target="_top" xlink:title="s&#45;parameters of a mixed&#45;mode, balanced transmission line">
<polygon fill="white" stroke="black" points="382,-342.5 382,-361.5 482,-361.5 482,-342.5 382,-342.5"/>
<text text-anchor="middle" x="432" y="-349.5" font-family="Helvetica,sans-Serif" font-size="10.00">MixedModeTLine</text>
</a>
</g>
</g>
<!-- Node55&#45;&gt;Node64 -->
<g id="edge12" class="edge">
<title>Node55&#45;&gt;Node64</title>
<path fill="none" stroke="midnightblue" d="M251.77,-448.28C269.1,-426.49 301.54,-390.07 338,-371 351.43,-363.97 367.22,-359.54 381.94,-356.75"/>
<polygon fill="midnightblue" stroke="midnightblue" points="248.86,-446.32 245.5,-456.37 254.39,-450.61 248.86,-446.32"/>
</g>
<!-- Node65 -->
<g id="node14" class="node">
<title>Node65</title>
<g id="a_node14"><a xlink:href="classSignalIntegrity_1_1Lib_1_1SParameters_1_1Devices_1_1Mutual_1_1Mutual.xhtml" target="_top" xlink:title="s&#45;parameters of a mutual inductance">
<polygon fill="white" stroke="black" points="407,-304.5 407,-323.5 457,-323.5 457,-304.5 407,-304.5"/>
<text text-anchor="middle" x="432" y="-311.5" font-family="Helvetica,sans-Serif" font-size="10.00">Mutual</text>
</a>
</g>
</g>
<!-- Node55&#45;&gt;Node65 -->
<g id="edge13" class="edge">
<title>Node55&#45;&gt;Node65</title>
<path fill="none" stroke="midnightblue" d="M246.99,-447.23C261.3,-417.86 293.12,-361.45 338,-333 358.74,-319.85 386.84,-315.57 406.71,-314.29"/>
<polygon fill="midnightblue" stroke="midnightblue" points="243.76,-445.86 242.66,-456.4 250.09,-448.85 243.76,-445.86"/>
</g>
<!-- Node66 -->
<g id="node15" class="node">
<title>Node66</title>
<g id="a_node15"><a xlink:href="classSignalIntegrity_1_1Lib_1_1SParameters_1_1Devices_1_1SeriesC_1_1SeriesC.xhtml" target="_top" xlink:title="s&#45;parameters of a series capacitance">
<polygon fill="white" stroke="black" points="405.5,-266.5 405.5,-285.5 458.5,-285.5 458.5,-266.5 405.5,-266.5"/>
<text text-anchor="middle" x="432" y="-273.5" font-family="Helvetica,sans-Serif" font-size="10.00">SeriesC</text>
</a>
</g>
</g>
<!-- Node55&#45;&gt;Node66 -->
<g id="edge14" class="edge">
<title>Node55&#45;&gt;Node66</title>
<path fill="none" stroke="midnightblue" d="M243.98,-446.56C255.21,-410.52 284.39,-333.49 338,-295 357.68,-280.87 385.42,-276.7 405.48,-275.72"/>
<polygon fill="midnightblue" stroke="midnightblue" points="240.57,-445.76 241.07,-456.35 247.28,-447.76 240.57,-445.76"/>
</g>
<!-- Node67 -->
<g id="node16" class="node">
<title>Node67</title>
<g id="a_node16"><a xlink:href="classSignalIntegrity_1_1Lib_1_1SParameters_1_1Devices_1_1SeriesL_1_1SeriesL.xhtml" target="_top" xlink:title="s&#45;parameters of a series inductance">
<polygon fill="white" stroke="black" points="406,-228.5 406,-247.5 458,-247.5 458,-228.5 406,-228.5"/>
<text text-anchor="middle" x="432" y="-235.5" font-family="Helvetica,sans-Serif" font-size="10.00">SeriesL</text>
</a>
</g>
</g>
<!-- Node55&#45;&gt;Node67 -->
<g id="edge15" class="edge">
<title>Node55&#45;&gt;Node67</title>
<path fill="none" stroke="midnightblue" d="M241.88,-446.14C250.12,-404.11 275.38,-306 338,-257 357.34,-241.87 385.67,-237.91 405.98,-237.25"/>
<polygon fill="midnightblue" stroke="midnightblue" points="238.39,-445.74 240.02,-456.2 245.28,-447 238.39,-445.74"/>
</g>
<!-- Node68 -->
<g id="node17" class="node">
<title>Node68</title>
<g id="a_node17"><a xlink:href="classSignalIntegrity_1_1Lib_1_1SParameters_1_1Devices_1_1SeriesRse_1_1SeriesRse.xhtml" target="_top" xlink:title="s&#45;parameters of series skin&#45;effect Resistance">
<polygon fill="white" stroke="black" points="399.5,-190.5 399.5,-209.5 464.5,-209.5 464.5,-190.5 399.5,-190.5"/>
<text text-anchor="middle" x="432" y="-197.5" font-family="Helvetica,sans-Serif" font-size="10.00">SeriesRse</text>
</a>
</g>
</g>
<!-- Node55&#45;&gt;Node68 -->
<g id="edge16" class="edge">
<title>Node55&#45;&gt;Node68</title>
<path fill="none" stroke="midnightblue" d="M240.27,-446.19C245.63,-398.93 265.98,-279.01 338,-219 354.96,-204.86 379.65,-200.32 399.33,-199.2"/>
<polygon fill="midnightblue" stroke="midnightblue" points="236.77,-446.03 239.24,-456.33 243.74,-446.74 236.77,-446.03"/>
</g>
<!-- Node69 -->
<g id="node18" class="node">
<title>Node69</title>
<g id="a_node18"><a xlink:href="classSignalIntegrity_1_1Lib_1_1SParameters_1_1Devices_1_1TerminationC_1_1TerminationC.xhtml" target="_top" xlink:title="s&#45;parameters of a termination (one&#45;port) capacitance">
<polygon fill="white" stroke="black" points="391.5,-152.5 391.5,-171.5 472.5,-171.5 472.5,-152.5 391.5,-152.5"/>
<text text-anchor="middle" x="432" y="-159.5" font-family="Helvetica,sans-Serif" font-size="10.00">TerminationC</text>
</a>
</g>
</g>
<!-- Node55&#45;&gt;Node69 -->
<g id="edge17" class="edge">
<title>Node55&#45;&gt;Node69</title>
<path fill="none" stroke="midnightblue" d="M239.09,-446.06C241.76,-393.83 256.55,-252.18 338,-181 352.52,-168.31 373.19,-163.25 391.36,-161.5"/>
<polygon fill="midnightblue" stroke="midnightblue" points="235.58,-446.17 238.66,-456.31 242.57,-446.46 235.58,-446.17"/>
</g>
<!-- Node70 -->
<g id="node19" class="node">
<title>Node70</title>
<g id="a_node19"><a xlink:href="classSignalIntegrity_1_1Lib_1_1SParameters_1_1Devices_1_1TerminationL_1_1TerminationL.xhtml" target="_top" xlink:title="s&#45;parameters of a termination (one&#45;port) inductance">
<polygon fill="white" stroke="black" points="392,-114.5 392,-133.5 472,-133.5 472,-114.5 392,-114.5"/>
<text text-anchor="middle" x="432" y="-121.5" font-family="Helvetica,sans-Serif" font-size="10.00">TerminationL</text>
</a>
</g>
</g>
<!-- Node55&#45;&gt;Node70 -->
<g id="edge18" class="edge">
<title>Node55&#45;&gt;Node70</title>
<path fill="none" stroke="midnightblue" d="M238.14,-446.13C238.28,-389.42 246.93,-225.62 338,-143 352.4,-129.93 373.29,-124.88 391.62,-123.22"/>
<polygon fill="midnightblue" stroke="midnightblue" points="234.64,-446.28 238.21,-456.26 241.64,-446.24 234.64,-446.28"/>
</g>
<!-- Node71 -->
<g id="node20" class="node">
<title>Node71</title>
<g id="a_node20"><a xlink:href="classSignalIntegrity_1_1Lib_1_1SParameters_1_1Devices_1_1TLineDifferentialRLGC_1_1TLineDifferentialRLGC.xhtml" target="_top" xlink:title="s&#45;parameters of differential RLGC (telegrapher&#39;s) transmission line">
<polygon fill="white" stroke="black" points="369.5,-76.5 369.5,-95.5 494.5,-95.5 494.5,-76.5 369.5,-76.5"/>
<text text-anchor="middle" x="432" y="-83.5" font-family="Helvetica,sans-Serif" font-size="10.00">TLineDifferentialRLGC</text>
</a>
</g>
</g>
<!-- Node55&#45;&gt;Node71 -->
<g id="edge19" class="edge">
<title>Node55&#45;&gt;Node71</title>
<path fill="none" stroke="midnightblue" d="M241.21,-446.28C250.98,-377.97 286.59,-153.05 338,-105 346.67,-96.9 357.82,-91.85 369.36,-88.78"/>
<polygon fill="midnightblue" stroke="midnightblue" points="237.7,-446.11 239.77,-456.5 244.63,-447.08 237.7,-446.11"/>
</g>
<!-- Node72 -->
<g id="node21" class="node">
<title>Node72</title>
<g id="a_node21"><a xlink:href="classSignalIntegrity_1_1Lib_1_1SParameters_1_1Devices_1_1TLineDifferentialRLGCApproximate_1_1TLineDifferentialRLGCApproximate.xhtml" target="_top" xlink:title="s&#45;parameters of differential RLGC (telegrapher&#39;s) transmission line calculated by approximating distr...">
<polygon fill="white" stroke="black" points="338,-38.5 338,-57.5 526,-57.5 526,-38.5 338,-38.5"/>
<text text-anchor="middle" x="432" y="-45.5" font-family="Helvetica,sans-Serif" font-size="10.00">TLineDifferentialRLGCApproximate</text>
</a>
</g>
</g>
<!-- Node55&#45;&gt;Node72 -->
<g id="edge20" class="edge">
<title>Node55&#45;&gt;Node72</title>
<path fill="none" stroke="midnightblue" d="M240.67,-446.12C249.07,-373.06 281.73,-120.91 338,-67 341.93,-63.24 346.39,-60.13 351.18,-57.57"/>
<polygon fill="midnightblue" stroke="midnightblue" points="237.18,-445.92 239.54,-456.25 244.13,-446.7 237.18,-445.92"/>
</g>
<!-- Node73 -->
<g id="node22" class="node">
<title>Node73</title>
<g id="a_node22"><a xlink:href="classSignalIntegrity_1_1Lib_1_1SParameters_1_1Devices_1_1TLineDifferentialRLGCBalanced_1_1TLineDifferentialRLGCBalanced.xhtml" target="_top" xlink:title="s&#45;parameters of analytic balanced differential RLGC (telegrapher&#39;s) transmission line.">
<polygon fill="white" stroke="black" points="347,-0.5 347,-19.5 517,-19.5 517,-0.5 347,-0.5"/>
<text text-anchor="middle" x="432" y="-7.5" font-family="Helvetica,sans-Serif" font-size="10.00">TLineDifferentialRLGCBalanced</text>
</a>
</g>
</g>
<!-- Node55&#45;&gt;Node73 -->
<g id="edge21" class="edge">
<title>Node55&#45;&gt;Node73</title>
<path fill="none" stroke="midnightblue" d="M240.2,-446.26C247.25,-369.07 276.75,-88.9 338,-29 341.77,-25.31 346.05,-22.25 350.66,-19.72"/>
<polygon fill="midnightblue" stroke="midnightblue" points="236.69,-446.22 239.29,-456.49 243.66,-446.84 236.69,-446.22"/>
</g>
<!-- Node74 -->
<g id="node23" class="node">
<title>Node74</title>
<g id="a_node23"><a xlink:href="classSignalIntegrity_1_1Lib_1_1SParameters_1_1Devices_1_1TLineDifferentialRLGCUncoupled_1_1TLineDifferentialRLGCUncoupled.xhtml" target="_top" xlink:title="s&#45;parameters of analytic uncoupled differential RLGC (telegrapher&#39;s) transmission line.">
<polygon fill="white" stroke="black" points="344,-836.5 344,-855.5 520,-855.5 520,-836.5 344,-836.5"/>
<text text-anchor="middle" x="432" y="-843.5" font-family="Helvetica,sans-Serif" font-size="10.00">TLineDifferentialRLGCUncoupled</text>
</a>
</g>
</g>
<!-- Node55&#45;&gt;Node74 -->
<g id="edge22" class="edge">
<title>Node55&#45;&gt;Node74</title>
<path fill="none" stroke="midnightblue" d="M241.21,-485.72C250.98,-554.03 286.59,-778.95 338,-827 341.97,-830.71 346.47,-833.79 351.28,-836.32"/>
<polygon fill="midnightblue" stroke="midnightblue" points="244.63,-484.92 239.77,-475.5 237.7,-485.89 244.63,-484.92"/>
</g>
<!-- Node75 -->
<g id="node24" class="node">
<title>Node75</title>
<g id="a_node24"><a xlink:href="classSignalIntegrity_1_1Lib_1_1SParameters_1_1Devices_1_1TLineLossless_1_1TLineLossless.xhtml" target="_top" xlink:title="s&#45;parameters of ideal lossless single&#45;ended transmission line">
<polygon fill="white" stroke="black" points="390,-798.5 390,-817.5 474,-817.5 474,-798.5 390,-798.5"/>
<text text-anchor="middle" x="432" y="-805.5" font-family="Helvetica,sans-Serif" font-size="10.00">TLineLossless</text>
</a>
</g>
</g>
<!-- Node55&#45;&gt;Node75 -->
<g id="edge23" class="edge">
<title>Node55&#45;&gt;Node75</title>
<path fill="none" stroke="midnightblue" d="M238.14,-485.87C238.28,-542.58 246.93,-706.38 338,-789 351.91,-801.62 371.88,-806.77 389.74,-808.6"/>
<polygon fill="midnightblue" stroke="midnightblue" points="241.64,-485.76 238.21,-475.74 234.64,-485.72 241.64,-485.76"/>
</g>
<!-- Node76 -->
<g id="node25" class="node">
<title>Node76</title>
<g id="a_node25"><a xlink:href="classSignalIntegrity_1_1Lib_1_1SParameters_1_1Devices_1_1TLineTwoPortRLGC_1_1TLineTwoPortRLGC.xhtml" target="_top" xlink:title="s&#45;parameters of single&#45;ended RLGC (telegraphers) transmission line">
<polygon fill="white" stroke="black" points="378.5,-760.5 378.5,-779.5 485.5,-779.5 485.5,-760.5 378.5,-760.5"/>
<text text-anchor="middle" x="432" y="-767.5" font-family="Helvetica,sans-Serif" font-size="10.00">TLineTwoPortRLGC</text>
</a>
</g>
</g>
<!-- Node55&#45;&gt;Node76 -->
<g id="edge24" class="edge">
<title>Node55&#45;&gt;Node76</title>
<path fill="none" stroke="midnightblue" d="M239.09,-485.94C241.76,-538.17 256.55,-679.82 338,-751 349.17,-760.76 363.98,-766.01 378.49,-768.7"/>
<polygon fill="midnightblue" stroke="midnightblue" points="242.57,-485.54 238.66,-475.69 235.58,-485.83 242.57,-485.54"/>
</g>
<!-- Node77 -->
<g id="node26" class="node">
<title>Node77</title>
<g id="a_node26"><a xlink:href="classSignalIntegrity_1_1Lib_1_1SParameters_1_1Devices_1_1TLineTwoPortRLGCAnalytic_1_1TLineTwoPortRLGCAnalytic.xhtml" target="_top" xlink:title="s&#45;parameters of analytic single&#45;ended telegraphers transmission line">
<polygon fill="white" stroke="black" points="358.5,-722.5 358.5,-741.5 505.5,-741.5 505.5,-722.5 358.5,-722.5"/>
<text text-anchor="middle" x="432" y="-729.5" font-family="Helvetica,sans-Serif" font-size="10.00">TLineTwoPortRLGCAnalytic</text>
</a>
</g>
</g>
<!-- Node55&#45;&gt;Node77 -->
<g id="edge25" class="edge">
<title>Node55&#45;&gt;Node77</title>
<path fill="none" stroke="midnightblue" d="M240.27,-485.81C245.63,-533.07 265.98,-652.99 338,-713 343.95,-717.96 350.85,-721.74 358.15,-724.6"/>
<polygon fill="midnightblue" stroke="midnightblue" points="243.74,-485.26 239.24,-475.67 236.77,-485.97 243.74,-485.26"/>
</g>
<!-- Node78 -->
<g id="node27" class="node">
<title>Node78</title>
<g id="a_node27"><a xlink:href="classSignalIntegrity_1_1Lib_1_1SParameters_1_1Devices_1_1TLineTwoPortRLGCApproximate_1_1TLineTwoPortRLGCApproximate.xhtml" target="_top" xlink:title="s&#45;parameters of two port RLGC (telegrapher&#39;s) transmission line calculated by approximating distribut...">
<polygon fill="white" stroke="black" points="347,-684.5 347,-703.5 517,-703.5 517,-684.5 347,-684.5"/>
<text text-anchor="middle" x="432" y="-691.5" font-family="Helvetica,sans-Serif" font-size="10.00">TLineTwoPortRLGCApproximate</text>
</a>
</g>
</g>
<!-- Node55&#45;&gt;Node78 -->
<g id="edge26" class="edge">
<title>Node55&#45;&gt;Node78</title>
<path fill="none" stroke="midnightblue" d="M241.88,-485.86C250.12,-527.89 275.38,-626 338,-675 342.8,-678.76 348.16,-681.83 353.81,-684.33"/>
<polygon fill="midnightblue" stroke="midnightblue" points="245.28,-485 240.02,-475.8 238.39,-486.26 245.28,-485"/>
</g>
<!-- Node79 -->
<g id="node28" class="node">
<title>Node79</title>
<g id="a_node28"><a xlink:href="classSignalIntegrity_1_1Lib_1_1SParameters_1_1SParameterFile_1_1SParameterFile.xhtml" target="_top" xlink:title="class for s&#45;parameters read from a file">
<polygon fill="white" stroke="black" points="387,-646.5 387,-665.5 477,-665.5 477,-646.5 387,-646.5"/>
<text text-anchor="middle" x="432" y="-653.5" font-family="Helvetica,sans-Serif" font-size="10.00">SParameterFile</text>
</a>
</g>
</g>
<!-- Node55&#45;&gt;Node79 -->
<g id="edge27" class="edge">
<title>Node55&#45;&gt;Node79</title>
<path fill="none" stroke="midnightblue" d="M243.98,-485.44C255.21,-521.48 284.39,-598.51 338,-637 352.06,-647.09 370.23,-652.1 386.77,-654.5"/>
<polygon fill="midnightblue" stroke="midnightblue" points="247.28,-484.24 241.07,-475.65 240.57,-486.24 247.28,-484.24"/>
</g>
<!-- Node61 -->
<g id="node8" class="node">
<title>Node61</title>
<g id="a_node8"><a xlink:href="classSignalIntegrity_1_1Lib_1_1Measurement_1_1CalKit_1_1Standards_1_1ThruStandard_1_1ThruStandard.xhtml" target="_top" xlink:title="Class providing the s&#45;parameters of a thru standard as commonly defined for a calibration kit.">
<polygon fill="white" stroke="black" points="562,-456.5 562,-475.5 644,-475.5 644,-456.5 562,-456.5"/>
<text text-anchor="middle" x="603" y="-463.5" font-family="Helvetica,sans-Serif" font-size="10.00">ThruStandard</text>
</a>
</g>
</g>
<!-- Node60&#45;&gt;Node61 -->
<g id="edge7" class="edge">
<title>Node60&#45;&gt;Node61</title>
<path fill="none" stroke="midnightblue" d="M466.04,-466C493.46,-466 532.56,-466 561.79,-466"/>
<polygon fill="midnightblue" stroke="midnightblue" points="465.79,-462.5 455.79,-466 465.79,-469.5 465.79,-462.5"/>
</g>
<!-- Node0 -->
<g id="node29" class="node">
<title>Node0</title>
<g id="a_node29"><a xlink:href="classSignalIntegrity_1_1Lib_1_1Measurement_1_1CalKit_1_1Standards_1_1TerminationPolynomial_1_1TerminationPolynomial.xhtml" target="_top" xlink:title="Base class for terminations for calibration standards.">
<polygon fill="white" stroke="black" points="173,-893.5 173,-912.5 302,-912.5 302,-893.5 173,-893.5"/>
<text text-anchor="middle" x="237.5" y="-900.5" font-family="Helvetica,sans-Serif" font-size="10.00">TerminationPolynomial</text>
</a>
</g>
</g>
<!-- Node0&#45;&gt;Node1 -->
<g id="edge28" class="edge">
<title>Node0&#45;&gt;Node1</title>
<path fill="none" stroke="midnightblue" d="M312.45,-895.7C329.37,-894.03 347.26,-892.27 363.87,-890.63"/>
<polygon fill="midnightblue" stroke="midnightblue" points="311.67,-892.26 302.07,-896.73 312.36,-899.23 311.67,-892.26"/>
</g>
<!-- Node0&#45;&gt;Node2 -->
<g id="edge29" class="edge">
<title>Node0&#45;&gt;Node2</title>
<path fill="none" stroke="midnightblue" d="M312.14,-910.27C329.49,-911.98 347.87,-913.79 364.86,-915.47"/>
<polygon fill="midnightblue" stroke="midnightblue" points="312.36,-906.77 302.07,-909.27 311.67,-913.74 312.36,-906.77"/>
</g>
</g>
</svg>
