<?xml version="1.0" encoding="UTF-8" standalone="no"?>
<!DOCTYPE svg PUBLIC "-//W3C//DTD SVG 1.1//EN"
 "http://www.w3.org/Graphics/SVG/1.1/DTD/svg11.dtd">
<!-- Generated by graphviz version 2.43.0 (0)
 -->
<!-- Title: Graphical Class Hierarchy Pages: 1 -->
<svg width="444pt" height="294pt"
 viewBox="0.00 0.00 444.00 294.00" xmlns="http://www.w3.org/2000/svg" xmlns:xlink="http://www.w3.org/1999/xlink">
<g id="graph0" class="graph" transform="scale(1 1) rotate(0) translate(4 290)">
<title>Graphical Class Hierarchy</title>
<polygon fill="white" stroke="transparent" points="-4,4 -4,-290 440,-290 440,4 -4,4"/>
<!-- Node0 -->
<g id="node1" class="node">
<title>Node0</title>
<g id="a_node1"><a xlink:href="classSignalIntegrity_1_1Lib_1_1TimeDomain_1_1Waveform_1_1Waveform_1_1Waveform.xhtml" target="_top" xlink:title="base class for all waveforms">
<polygon fill="white" stroke="black" points="0,-133.5 0,-152.5 68,-152.5 68,-133.5 0,-133.5"/>
<text text-anchor="middle" x="34" y="-140.5" font-family="Helvetica,sans-Serif" font-size="10.00">Waveform</text>
</a>
</g>
</g>
<!-- Node1 -->
<g id="node2" class="node">
<title>Node1</title>
<g id="a_node2"><a xlink:href="classSignalIntegrity_1_1Lib_1_1ImpedanceProfile_1_1ImpedanceProfileWaveform_1_1ImpedanceProfileWaveform.xhtml" target="_top" xlink:title="Computes the impedance profile waveform from a set of s&#45;parameters using the port specified.">
<polygon fill="white" stroke="black" points="104,-266.5 104,-285.5 257,-285.5 257,-266.5 104,-266.5"/>
<text text-anchor="middle" x="180.5" y="-273.5" font-family="Helvetica,sans-Serif" font-size="10.00">ImpedanceProfileWaveform</text>
</a>
</g>
</g>
<!-- Node0&#45;&gt;Node1 -->
<g id="edge1" class="edge">
<title>Node0&#45;&gt;Node1</title>
<path fill="none" stroke="midnightblue" d="M41.43,-162.4C50.95,-188.05 71.28,-232.81 104,-257 109.22,-260.86 115.13,-263.93 121.3,-266.39"/>
<polygon fill="midnightblue" stroke="midnightblue" points="44.63,-160.96 38.01,-152.7 38.03,-163.29 44.63,-160.96"/>
</g>
<!-- Node2 -->
<g id="node3" class="node">
<title>Node2</title>
<g id="a_node3"><a xlink:href="classSignalIntegrity_1_1Lib_1_1Prbs_1_1MultiLevelWaveform_1_1MultiLevelWaveform.xhtml" target="_top" xlink:title="a PRBS multi&#45;level waveform with a given PRBS polynomial">
<polygon fill="white" stroke="black" points="121,-228.5 121,-247.5 240,-247.5 240,-228.5 121,-228.5"/>
<text text-anchor="middle" x="180.5" y="-235.5" font-family="Helvetica,sans-Serif" font-size="10.00">MultiLevelWaveform</text>
</a>
</g>
</g>
<!-- Node0&#45;&gt;Node2 -->
<g id="edge2" class="edge">
<title>Node0&#45;&gt;Node2</title>
<path fill="none" stroke="midnightblue" d="M46.83,-161.31C59.06,-178.76 79.75,-204.46 104,-219 110.49,-222.89 117.76,-225.99 125.14,-228.46"/>
<polygon fill="midnightblue" stroke="midnightblue" points="49.44,-158.92 40.94,-152.59 43.64,-162.84 49.44,-158.92"/>
</g>
<!-- Node3 -->
<g id="node4" class="node">
<title>Node3</title>
<g id="a_node4"><a xlink:href="classSignalIntegrity_1_1Lib_1_1Prbs_1_1SerialDataWaveform_1_1SerialDataWaveform.xhtml" target="_top" xlink:title="a serial data NRZ waveform">
<polygon fill="white" stroke="black" points="121,-190.5 121,-209.5 240,-209.5 240,-190.5 121,-190.5"/>
<text text-anchor="middle" x="180.5" y="-197.5" font-family="Helvetica,sans-Serif" font-size="10.00">SerialDataWaveform</text>
</a>
</g>
</g>
<!-- Node0&#45;&gt;Node3 -->
<g id="edge3" class="edge">
<title>Node0&#45;&gt;Node3</title>
<path fill="none" stroke="midnightblue" d="M58.56,-157.95C71.56,-165.69 88.23,-174.79 104,-181 113.31,-184.66 123.54,-187.8 133.39,-190.4"/>
<polygon fill="midnightblue" stroke="midnightblue" points="60.16,-154.83 49.8,-152.62 56.52,-160.81 60.16,-154.83"/>
</g>
<!-- Node6 -->
<g id="node7" class="node">
<title>Node6</title>
<g id="a_node7"><a xlink:href="classSignalIntegrity_1_1Lib_1_1TimeDomain_1_1Waveform_1_1ImpulseResponse_1_1ImpulseResponse.xhtml" target="_top" xlink:title="impulse response of a filter as a waveform">
<polygon fill="white" stroke="black" points="129,-152.5 129,-171.5 232,-171.5 232,-152.5 129,-152.5"/>
<text text-anchor="middle" x="180.5" y="-159.5" font-family="Helvetica,sans-Serif" font-size="10.00">ImpulseResponse</text>
</a>
</g>
</g>
<!-- Node0&#45;&gt;Node6 -->
<g id="edge6" class="edge">
<title>Node0&#45;&gt;Node6</title>
<path fill="none" stroke="midnightblue" d="M78.26,-148.69C94.2,-150.78 112.4,-153.18 128.93,-155.35"/>
<polygon fill="midnightblue" stroke="midnightblue" points="78.52,-145.19 68.15,-147.36 77.61,-152.13 78.52,-145.19"/>
</g>
<!-- Node7 -->
<g id="node8" class="node">
<title>Node7</title>
<g id="a_node8"><a xlink:href="classSignalIntegrity_1_1Lib_1_1TimeDomain_1_1Waveform_1_1NoiseWaveform_1_1NoiseWaveform.xhtml" target="_top" xlink:title="noise waveform">
<polygon fill="white" stroke="black" points="133,-114.5 133,-133.5 228,-133.5 228,-114.5 133,-114.5"/>
<text text-anchor="middle" x="180.5" y="-121.5" font-family="Helvetica,sans-Serif" font-size="10.00">NoiseWaveform</text>
</a>
</g>
</g>
<!-- Node0&#45;&gt;Node7 -->
<g id="edge7" class="edge">
<title>Node0&#45;&gt;Node7</title>
<path fill="none" stroke="midnightblue" d="M78.45,-137.29C95.61,-135.03 115.36,-132.43 132.81,-130.14"/>
<polygon fill="midnightblue" stroke="midnightblue" points="77.61,-133.87 68.15,-138.64 78.52,-140.81 77.61,-133.87"/>
</g>
<!-- Node8 -->
<g id="node9" class="node">
<title>Node8</title>
<g id="a_node9"><a xlink:href="classSignalIntegrity_1_1Lib_1_1TimeDomain_1_1Waveform_1_1PulseWaveform_1_1PulseWaveform.xhtml" target="_top" xlink:title="pulse waveform">
<polygon fill="white" stroke="black" points="133.5,-76.5 133.5,-95.5 227.5,-95.5 227.5,-76.5 133.5,-76.5"/>
<text text-anchor="middle" x="180.5" y="-83.5" font-family="Helvetica,sans-Serif" font-size="10.00">PulseWaveform</text>
</a>
</g>
</g>
<!-- Node0&#45;&gt;Node8 -->
<g id="edge8" class="edge">
<title>Node0&#45;&gt;Node8</title>
<path fill="none" stroke="midnightblue" d="M58.56,-128.05C71.56,-120.31 88.23,-111.21 104,-105 113.31,-101.34 123.54,-98.2 133.39,-95.6"/>
<polygon fill="midnightblue" stroke="midnightblue" points="56.52,-125.19 49.8,-133.38 60.16,-131.17 56.52,-125.19"/>
</g>
<!-- Node9 -->
<g id="node10" class="node">
<title>Node9</title>
<g id="a_node10"><a xlink:href="classSignalIntegrity_1_1Lib_1_1TimeDomain_1_1Waveform_1_1SineWaveform_1_1SineWaveform.xhtml" target="_top" xlink:title="sinewave waveform">
<polygon fill="white" stroke="black" points="136,-38.5 136,-57.5 225,-57.5 225,-38.5 136,-38.5"/>
<text text-anchor="middle" x="180.5" y="-45.5" font-family="Helvetica,sans-Serif" font-size="10.00">SineWaveform</text>
</a>
</g>
</g>
<!-- Node0&#45;&gt;Node9 -->
<g id="edge9" class="edge">
<title>Node0&#45;&gt;Node9</title>
<path fill="none" stroke="midnightblue" d="M46.83,-124.69C59.06,-107.24 79.75,-81.54 104,-67 113.62,-61.23 124.94,-57.21 135.85,-54.4"/>
<polygon fill="midnightblue" stroke="midnightblue" points="43.64,-123.16 40.94,-133.41 49.44,-127.08 43.64,-123.16"/>
</g>
<!-- Node10 -->
<g id="node11" class="node">
<title>Node10</title>
<g id="a_node11"><a xlink:href="classSignalIntegrity_1_1Lib_1_1TimeDomain_1_1Waveform_1_1StepWaveform_1_1StepWaveform.xhtml" target="_top" xlink:title="step waveform">
<polygon fill="white" stroke="black" points="136,-0.5 136,-19.5 225,-19.5 225,-0.5 136,-0.5"/>
<text text-anchor="middle" x="180.5" y="-7.5" font-family="Helvetica,sans-Serif" font-size="10.00">StepWaveform</text>
</a>
</g>
</g>
<!-- Node0&#45;&gt;Node10 -->
<g id="edge10" class="edge">
<title>Node0&#45;&gt;Node10</title>
<path fill="none" stroke="midnightblue" d="M41.43,-123.6C50.95,-97.95 71.28,-53.19 104,-29 113.24,-22.17 124.67,-17.78 135.81,-14.97"/>
<polygon fill="midnightblue" stroke="midnightblue" points="38.03,-122.71 38.01,-133.3 44.63,-125.04 38.03,-122.71"/>
</g>
<!-- Node4 -->
<g id="node5" class="node">
<title>Node4</title>
<g id="a_node5"><a xlink:href="classSignalIntegrity_1_1Lib_1_1Prbs_1_1ClockWaveform_1_1ClockWaveform.xhtml" target="_top" xlink:title="a clock waveform">
<polygon fill="white" stroke="black" points="317,-209.5 317,-228.5 412,-228.5 412,-209.5 317,-209.5"/>
<text text-anchor="middle" x="364.5" y="-216.5" font-family="Helvetica,sans-Serif" font-size="10.00">ClockWaveform</text>
</a>
</g>
</g>
<!-- Node3&#45;&gt;Node4 -->
<g id="edge4" class="edge">
<title>Node3&#45;&gt;Node4</title>
<path fill="none" stroke="midnightblue" d="M250.16,-207.17C272.41,-209.49 296.57,-212.01 316.84,-214.13"/>
<polygon fill="midnightblue" stroke="midnightblue" points="250.4,-203.67 240.09,-206.12 249.67,-210.64 250.4,-203.67"/>
</g>
<!-- Node5 -->
<g id="node6" class="node">
<title>Node5</title>
<g id="a_node6"><a xlink:href="classSignalIntegrity_1_1Lib_1_1Prbs_1_1PseudoRandomWaveform_1_1PseudoRandomWaveform.xhtml" target="_top" xlink:title="a PRBS waveform with a given PRBS polynomial">
<polygon fill="white" stroke="black" points="293,-171.5 293,-190.5 436,-190.5 436,-171.5 293,-171.5"/>
<text text-anchor="middle" x="364.5" y="-178.5" font-family="Helvetica,sans-Serif" font-size="10.00">PseudoRandomWaveform</text>
</a>
</g>
</g>
<!-- Node3&#45;&gt;Node5 -->
<g id="edge5" class="edge">
<title>Node3&#45;&gt;Node5</title>
<path fill="none" stroke="midnightblue" d="M250.13,-192.84C264.12,-191.37 278.87,-189.83 292.93,-188.37"/>
<polygon fill="midnightblue" stroke="midnightblue" points="249.67,-189.36 240.09,-193.88 250.4,-196.33 249.67,-189.36"/>
</g>
</g>
</svg>
