<?xml version="1.0" encoding="UTF-8" standalone="no"?>
<!DOCTYPE svg PUBLIC "-//W3C//DTD SVG 1.1//EN"
 "http://www.w3.org/Graphics/SVG/1.1/DTD/svg11.dtd">
<!-- Generated by graphviz version 2.43.0 (0)
 -->
<!-- Title: Graphical Class Hierarchy Pages: 1 -->
<svg width="421pt" height="446pt"
 viewBox="0.00 0.00 421.00 446.00" xmlns="http://www.w3.org/2000/svg" xmlns:xlink="http://www.w3.org/1999/xlink">
<g id="graph0" class="graph" transform="scale(1 1) rotate(0) translate(4 442)">
<title>Graphical Class Hierarchy</title>
<polygon fill="white" stroke="transparent" points="-4,4 -4,-442 417,-442 417,4 -4,4"/>
<!-- Node0 -->
<g id="node1" class="node">
<title>Node0</title>
<g id="a_node1"><a xlink:href="classSignalIntegrity_1_1Lib_1_1TimeDomain_1_1Waveform_1_1Waveform_1_1Waveform.xhtml" target="_top" xlink:title="base class for all waveforms">
<polygon fill="white" stroke="black" points="0,-209.5 0,-228.5 61,-228.5 61,-209.5 0,-209.5"/>
<text text-anchor="middle" x="30.5" y="-216.5" font-family="Helvetica,sans-Serif" font-size="10.00">Waveform</text>
</a>
</g>
</g>
<!-- Node1 -->
<g id="node2" class="node">
<title>Node1</title>
<g id="a_node2"><a xlink:href="classSignalIntegrity_1_1Lib_1_1Eye_1_1ClockRecovery_1_1ClockRecoveredWaveform.xhtml" target="_top" xlink:title="Resamples an input waveform using clock recovery.">
<polygon fill="white" stroke="black" points="104.5,-418.5 104.5,-437.5 238.5,-437.5 238.5,-418.5 104.5,-418.5"/>
<text text-anchor="middle" x="171.5" y="-425.5" font-family="Helvetica,sans-Serif" font-size="10.00">ClockRecoveredWaveform</text>
</a>
</g>
</g>
<!-- Node0&#45;&gt;Node1 -->
<g id="edge1" class="edge">
<title>Node0&#45;&gt;Node1</title>
<path fill="none" stroke="midnightblue" d="M32.42,-238.99C35.31,-277.69 47.3,-363.08 97,-409 101.16,-412.85 106,-415.94 111.17,-418.42"/>
<polygon fill="midnightblue" stroke="midnightblue" points="35.89,-238.34 31.78,-228.57 28.9,-238.77 35.89,-238.34"/>
</g>
<!-- Node2 -->
<g id="node3" class="node">
<title>Node2</title>
<g id="a_node3"><a xlink:href="classSignalIntegrity_1_1Lib_1_1ImpedanceProfile_1_1ImpedanceProfileWaveform_1_1ImpedanceProfileWaveform.xhtml" target="_top" xlink:title="Computes the impedance profile waveform from a set of s&#45;parameters using the port specified.">
<polygon fill="white" stroke="black" points="103,-380.5 103,-399.5 240,-399.5 240,-380.5 103,-380.5"/>
<text text-anchor="middle" x="171.5" y="-387.5" font-family="Helvetica,sans-Serif" font-size="10.00">ImpedanceProfileWaveform</text>
</a>
</g>
</g>
<!-- Node0&#45;&gt;Node2 -->
<g id="edge2" class="edge">
<title>Node0&#45;&gt;Node2</title>
<path fill="none" stroke="midnightblue" d="M34.32,-238.58C40.06,-271.08 56.21,-336.05 97,-371 101.5,-374.86 106.7,-377.95 112.19,-380.42"/>
<polygon fill="midnightblue" stroke="midnightblue" points="37.75,-237.85 32.7,-228.54 30.84,-238.97 37.75,-237.85"/>
</g>
<!-- Node3 -->
<g id="node4" class="node">
<title>Node3</title>
<g id="a_node4"><a xlink:href="classSignalIntegrity_1_1Lib_1_1Prbs_1_1LevelsMultiLevelWaveform_1_1LevelsMultiLevelWaveform.xhtml" target="_top" xlink:title="a PRBS multi&#45;level waveform with a given PRBS polynomial">
<polygon fill="white" stroke="black" points="104.5,-342.5 104.5,-361.5 238.5,-361.5 238.5,-342.5 104.5,-342.5"/>
<text text-anchor="middle" x="171.5" y="-349.5" font-family="Helvetica,sans-Serif" font-size="10.00">LevelsMultiLevelWaveform</text>
</a>
</g>
</g>
<!-- Node0&#45;&gt;Node3 -->
<g id="edge3" class="edge">
<title>Node0&#45;&gt;Node3</title>
<path fill="none" stroke="midnightblue" d="M37.35,-238.36C46.1,-263.96 65.07,-308.67 97,-333 102.14,-336.91 108,-340.03 114.12,-342.5"/>
<polygon fill="midnightblue" stroke="midnightblue" points="40.62,-237.11 34.22,-228.67 33.96,-239.27 40.62,-237.11"/>
</g>
<!-- Node4 -->
<g id="node5" class="node">
<title>Node4</title>
<g id="a_node5"><a xlink:href="classSignalIntegrity_1_1Lib_1_1Prbs_1_1MultiLevelWaveform_1_1MultiLevelWaveform.xhtml" target="_top" xlink:title="a PRBS multi&#45;level waveform with a given PRBS polynomial">
<polygon fill="white" stroke="black" points="119,-304.5 119,-323.5 224,-323.5 224,-304.5 119,-304.5"/>
<text text-anchor="middle" x="171.5" y="-311.5" font-family="Helvetica,sans-Serif" font-size="10.00">MultiLevelWaveform</text>
</a>
</g>
</g>
<!-- Node0&#45;&gt;Node4 -->
<g id="edge4" class="edge">
<title>Node0&#45;&gt;Node4</title>
<path fill="none" stroke="midnightblue" d="M42.54,-237.29C54,-254.72 73.53,-280.41 97,-295 103.6,-299.11 111.07,-302.33 118.64,-304.86"/>
<polygon fill="midnightblue" stroke="midnightblue" points="45.33,-235.16 37.02,-228.58 39.41,-238.9 45.33,-235.16"/>
</g>
<!-- Node7 -->
<g id="node8" class="node">
<title>Node7</title>
<g id="a_node8"><a xlink:href="classSignalIntegrity_1_1Lib_1_1Prbs_1_1SerialDataWaveform_1_1SerialDataWaveform.xhtml" target="_top" xlink:title="a serial data NRZ waveform">
<polygon fill="white" stroke="black" points="118,-266.5 118,-285.5 225,-285.5 225,-266.5 118,-266.5"/>
<text text-anchor="middle" x="171.5" y="-273.5" font-family="Helvetica,sans-Serif" font-size="10.00">SerialDataWaveform</text>
</a>
</g>
</g>
<!-- Node0&#45;&gt;Node7 -->
<g id="edge7" class="edge">
<title>Node0&#45;&gt;Node7</title>
<path fill="none" stroke="midnightblue" d="M54.14,-234.2C66.41,-241.89 82.07,-250.88 97,-257 106.02,-260.7 115.97,-263.85 125.56,-266.46"/>
<polygon fill="midnightblue" stroke="midnightblue" points="55.79,-231.1 45.49,-228.63 52,-236.98 55.79,-231.1"/>
</g>
<!-- Node10 -->
<g id="node11" class="node">
<title>Node10</title>
<g id="a_node11"><a xlink:href="classSignalIntegrity_1_1Lib_1_1Prbs_1_1StandardsDefPRBSWaveform_1_1StandardsDefPRBSWaveform.xhtml" target="_top" xlink:title="a standards defined waveform loaded from a text file with a given rise time and amplitude">
<polygon fill="white" stroke="black" points="97,-228.5 97,-247.5 246,-247.5 246,-228.5 97,-228.5"/>
<text text-anchor="middle" x="171.5" y="-235.5" font-family="Helvetica,sans-Serif" font-size="10.00">StandardsDefPRBSWaveform</text>
</a>
</g>
</g>
<!-- Node0&#45;&gt;Node10 -->
<g id="edge10" class="edge">
<title>Node0&#45;&gt;Node10</title>
<path fill="none" stroke="midnightblue" d="M71.33,-224.44C80.56,-225.71 90.65,-227.08 100.74,-228.46"/>
<polygon fill="midnightblue" stroke="midnightblue" points="71.7,-220.96 61.32,-223.08 70.75,-227.9 71.7,-220.96"/>
</g>
<!-- Node11 -->
<g id="node12" class="node">
<title>Node11</title>
<g id="a_node12"><a xlink:href="classSignalIntegrity_1_1Lib_1_1TimeDomain_1_1Waveform_1_1ImpulseResponse_1_1ImpulseResponse.xhtml" target="_top" xlink:title="impulse response of a filter as a waveform">
<polygon fill="white" stroke="black" points="124,-190.5 124,-209.5 219,-209.5 219,-190.5 124,-190.5"/>
<text text-anchor="middle" x="171.5" y="-197.5" font-family="Helvetica,sans-Serif" font-size="10.00">ImpulseResponse</text>
</a>
</g>
</g>
<!-- Node0&#45;&gt;Node11 -->
<g id="edge11" class="edge">
<title>Node0&#45;&gt;Node11</title>
<path fill="none" stroke="midnightblue" d="M71.6,-213.52C87.91,-211.29 106.85,-208.7 123.78,-206.39"/>
<polygon fill="midnightblue" stroke="midnightblue" points="70.75,-210.1 61.32,-214.92 71.7,-217.04 70.75,-210.1"/>
</g>
<!-- Node12 -->
<g id="node13" class="node">
<title>Node12</title>
<g id="a_node13"><a xlink:href="classSignalIntegrity_1_1Lib_1_1TimeDomain_1_1Waveform_1_1ImpulseWaveform_1_1ImpulseWaveform.xhtml" target="_top" xlink:title="pulse waveform">
<polygon fill="white" stroke="black" points="124,-152.5 124,-171.5 219,-171.5 219,-152.5 124,-152.5"/>
<text text-anchor="middle" x="171.5" y="-159.5" font-family="Helvetica,sans-Serif" font-size="10.00">ImpulseWaveform</text>
</a>
</g>
</g>
<!-- Node0&#45;&gt;Node12 -->
<g id="edge12" class="edge">
<title>Node0&#45;&gt;Node12</title>
<path fill="none" stroke="midnightblue" d="M54.14,-203.8C66.41,-196.11 82.07,-187.12 97,-181 106.02,-177.3 115.97,-174.15 125.56,-171.54"/>
<polygon fill="midnightblue" stroke="midnightblue" points="52,-201.02 45.49,-209.37 55.79,-206.9 52,-201.02"/>
</g>
<!-- Node13 -->
<g id="node14" class="node">
<title>Node13</title>
<g id="a_node14"><a xlink:href="classSignalIntegrity_1_1Lib_1_1TimeDomain_1_1Waveform_1_1NoiseWaveform_1_1NoiseWaveform.xhtml" target="_top" xlink:title="noise waveform">
<polygon fill="white" stroke="black" points="128.5,-114.5 128.5,-133.5 214.5,-133.5 214.5,-114.5 128.5,-114.5"/>
<text text-anchor="middle" x="171.5" y="-121.5" font-family="Helvetica,sans-Serif" font-size="10.00">NoiseWaveform</text>
</a>
</g>
</g>
<!-- Node0&#45;&gt;Node13 -->
<g id="edge13" class="edge">
<title>Node0&#45;&gt;Node13</title>
<path fill="none" stroke="midnightblue" d="M42.54,-200.71C54,-183.28 73.53,-157.59 97,-143 106.4,-137.15 117.55,-133.1 128.28,-130.29"/>
<polygon fill="midnightblue" stroke="midnightblue" points="39.41,-199.1 37.02,-209.42 45.33,-202.84 39.41,-199.1"/>
</g>
<!-- Node14 -->
<g id="node15" class="node">
<title>Node14</title>
<g id="a_node15"><a xlink:href="classSignalIntegrity_1_1Lib_1_1TimeDomain_1_1Waveform_1_1PulseWaveform_1_1PulseWaveform.xhtml" target="_top" xlink:title="pulse waveform">
<polygon fill="white" stroke="black" points="128.5,-76.5 128.5,-95.5 214.5,-95.5 214.5,-76.5 128.5,-76.5"/>
<text text-anchor="middle" x="171.5" y="-83.5" font-family="Helvetica,sans-Serif" font-size="10.00">PulseWaveform</text>
</a>
</g>
</g>
<!-- Node0&#45;&gt;Node14 -->
<g id="edge14" class="edge">
<title>Node0&#45;&gt;Node14</title>
<path fill="none" stroke="midnightblue" d="M37.35,-199.64C46.1,-174.04 65.07,-129.33 97,-105 106.02,-98.13 117.27,-93.73 128.24,-90.92"/>
<polygon fill="midnightblue" stroke="midnightblue" points="33.96,-198.73 34.22,-209.33 40.62,-200.89 33.96,-198.73"/>
</g>
<!-- Node15 -->
<g id="node16" class="node">
<title>Node15</title>
<g id="a_node16"><a xlink:href="classSignalIntegrity_1_1Lib_1_1TimeDomain_1_1Waveform_1_1SineWaveform_1_1SineWaveform.xhtml" target="_top" xlink:title="sinewave waveform">
<polygon fill="white" stroke="black" points="131.5,-38.5 131.5,-57.5 211.5,-57.5 211.5,-38.5 131.5,-38.5"/>
<text text-anchor="middle" x="171.5" y="-45.5" font-family="Helvetica,sans-Serif" font-size="10.00">SineWaveform</text>
</a>
</g>
</g>
<!-- Node0&#45;&gt;Node15 -->
<g id="edge15" class="edge">
<title>Node0&#45;&gt;Node15</title>
<path fill="none" stroke="midnightblue" d="M34.32,-199.42C40.06,-166.92 56.21,-101.95 97,-67 106.51,-58.85 119.08,-54.14 131.13,-51.43"/>
<polygon fill="midnightblue" stroke="midnightblue" points="30.84,-199.03 32.7,-209.46 37.75,-200.15 30.84,-199.03"/>
</g>
<!-- Node16 -->
<g id="node17" class="node">
<title>Node16</title>
<g id="a_node17"><a xlink:href="classSignalIntegrity_1_1Lib_1_1TimeDomain_1_1Waveform_1_1StepWaveform_1_1StepWaveform.xhtml" target="_top" xlink:title="step waveform">
<polygon fill="white" stroke="black" points="131,-0.5 131,-19.5 212,-19.5 212,-0.5 131,-0.5"/>
<text text-anchor="middle" x="171.5" y="-7.5" font-family="Helvetica,sans-Serif" font-size="10.00">StepWaveform</text>
</a>
</g>
</g>
<!-- Node0&#45;&gt;Node16 -->
<g id="edge16" class="edge">
<title>Node0&#45;&gt;Node16</title>
<path fill="none" stroke="midnightblue" d="M32.42,-199.01C35.31,-160.31 47.3,-74.92 97,-29 106.2,-20.5 118.69,-15.7 130.77,-13.01"/>
<polygon fill="midnightblue" stroke="midnightblue" points="28.9,-199.23 31.78,-209.43 35.89,-199.66 28.9,-199.23"/>
</g>
<!-- Node5 -->
<g id="node6" class="node">
<title>Node5</title>
<g id="a_node6"><a xlink:href="classSignalIntegrity_1_1Lib_1_1Prbs_1_1PRBS13QWaveform_1_1PRBS13QWaveform.xhtml" target="_top" xlink:title="a PRBS13Q PAM4 waveform with a given rise time and amplitude">
<polygon fill="white" stroke="black" points="294,-342.5 294,-361.5 401,-361.5 401,-342.5 294,-342.5"/>
<text text-anchor="middle" x="347.5" y="-349.5" font-family="Helvetica,sans-Serif" font-size="10.00">PRBS13QWaveform</text>
</a>
</g>
</g>
<!-- Node4&#45;&gt;Node5 -->
<g id="edge5" class="edge">
<title>Node4&#45;&gt;Node5</title>
<path fill="none" stroke="midnightblue" d="M226.31,-325.75C250.92,-331.13 279.69,-337.41 302.91,-342.48"/>
<polygon fill="midnightblue" stroke="midnightblue" points="226.92,-322.3 216.41,-323.59 225.43,-329.14 226.92,-322.3"/>
</g>
<!-- Node6 -->
<g id="node7" class="node">
<title>Node6</title>
<g id="a_node7"><a xlink:href="classSignalIntegrity_1_1Lib_1_1Prbs_1_1SSPRQWaveform_1_1SSPRQWaveform.xhtml" target="_top" xlink:title="a SSPRQ PAM4 waveform with a given rise time and amplitude">
<polygon fill="white" stroke="black" points="299.5,-304.5 299.5,-323.5 395.5,-323.5 395.5,-304.5 299.5,-304.5"/>
<text text-anchor="middle" x="347.5" y="-311.5" font-family="Helvetica,sans-Serif" font-size="10.00">SSPRQWaveform</text>
</a>
</g>
</g>
<!-- Node4&#45;&gt;Node6 -->
<g id="edge6" class="edge">
<title>Node4&#45;&gt;Node6</title>
<path fill="none" stroke="midnightblue" d="M234.52,-314C255.88,-314 279.44,-314 299.41,-314"/>
<polygon fill="midnightblue" stroke="midnightblue" points="234.23,-310.5 224.23,-314 234.23,-317.5 234.23,-310.5"/>
</g>
<!-- Node8 -->
<g id="node9" class="node">
<title>Node8</title>
<g id="a_node9"><a xlink:href="classSignalIntegrity_1_1Lib_1_1Prbs_1_1ClockWaveform_1_1ClockWaveform.xhtml" target="_top" xlink:title="a clock waveform">
<polygon fill="white" stroke="black" points="304.5,-266.5 304.5,-285.5 390.5,-285.5 390.5,-266.5 304.5,-266.5"/>
<text text-anchor="middle" x="347.5" y="-273.5" font-family="Helvetica,sans-Serif" font-size="10.00">ClockWaveform</text>
</a>
</g>
</g>
<!-- Node7&#45;&gt;Node8 -->
<g id="edge8" class="edge">
<title>Node7&#45;&gt;Node8</title>
<path fill="none" stroke="midnightblue" d="M235.21,-276C258.23,-276 283.71,-276 304.48,-276"/>
<polygon fill="midnightblue" stroke="midnightblue" points="235.18,-272.5 225.18,-276 235.18,-279.5 235.18,-272.5"/>
</g>
<!-- Node9 -->
<g id="node10" class="node">
<title>Node9</title>
<g id="a_node10"><a xlink:href="classSignalIntegrity_1_1Lib_1_1Prbs_1_1PseudoRandomWaveform_1_1PseudoRandomWaveform.xhtml" target="_top" xlink:title="a PRBS waveform with a given PRBS polynomial">
<polygon fill="white" stroke="black" points="282,-228.5 282,-247.5 413,-247.5 413,-228.5 282,-228.5"/>
<text text-anchor="middle" x="347.5" y="-235.5" font-family="Helvetica,sans-Serif" font-size="10.00">PseudoRandomWaveform</text>
</a>
</g>
</g>
<!-- Node7&#45;&gt;Node9 -->
<g id="edge9" class="edge">
<title>Node7&#45;&gt;Node9</title>
<path fill="none" stroke="midnightblue" d="M226.31,-264.25C250.92,-258.87 279.69,-252.59 302.91,-247.52"/>
<polygon fill="midnightblue" stroke="midnightblue" points="225.43,-260.86 216.41,-266.41 226.92,-267.7 225.43,-260.86"/>
</g>
</g>
</svg>
