<?xml version="1.0" encoding="UTF-8" standalone="no"?>
<!DOCTYPE svg PUBLIC "-//W3C//DTD SVG 1.1//EN"
 "http://www.w3.org/Graphics/SVG/1.1/DTD/svg11.dtd">
<!-- Generated by graphviz version 2.43.0 (0)
 -->
<!-- Title: Graphical Class Hierarchy Pages: 1 -->
<svg width="710pt" height="1168pt"
 viewBox="0.00 0.00 710.00 1168.00" xmlns="http://www.w3.org/2000/svg" xmlns:xlink="http://www.w3.org/1999/xlink">
<g id="graph0" class="graph" transform="scale(1 1) rotate(0) translate(4 1164)">
<title>Graphical Class Hierarchy</title>
<polygon fill="white" stroke="transparent" points="-4,4 -4,-1164 706,-1164 706,4 -4,4"/>
<!-- Node55 -->
<g id="node1" class="node">
<title>Node55</title>
<g id="a_node1"><a xlink:href="classSignalIntegrity_1_1Lib_1_1SParameters_1_1SParameterManipulation_1_1SParameterManipulation.xhtml" target="_top" xlink:title="Class for manipulations on s&#45;parameters involving passivity, causality, etc.">
<polygon fill="white" stroke="black" points="0,-570.5 0,-589.5 137,-589.5 137,-570.5 0,-570.5"/>
<text text-anchor="middle" x="68.5" y="-577.5" font-family="Helvetica,sans-Serif" font-size="10.00">SParameterManipulation</text>
</a>
</g>
</g>
<!-- Node56 -->
<g id="node2" class="node">
<title>Node56</title>
<g id="a_node2"><a xlink:href="classSignalIntegrity_1_1Lib_1_1SParameters_1_1SParameters_1_1SParameters.xhtml" target="_top" xlink:title="Class containing s&#45;parameters.">
<polygon fill="white" stroke="black" points="198,-570.5 198,-589.5 277,-589.5 277,-570.5 198,-570.5"/>
<text text-anchor="middle" x="237.5" y="-577.5" font-family="Helvetica,sans-Serif" font-size="10.00">SParameters</text>
</a>
</g>
</g>
<!-- Node55&#45;&gt;Node56 -->
<g id="edge1" class="edge">
<title>Node55&#45;&gt;Node56</title>
<path fill="none" stroke="midnightblue" d="M147.64,-580C165.09,-580 182.86,-580 197.87,-580"/>
<polygon fill="midnightblue" stroke="midnightblue" points="147.43,-576.5 137.43,-580 147.43,-583.5 147.43,-576.5"/>
</g>
<!-- Node57 -->
<g id="node3" class="node">
<title>Node57</title>
<g id="a_node3"><a xlink:href="classSignalIntegrity_1_1Lib_1_1ImpedanceProfile_1_1PeeledLaunches_1_1PeeledLaunches.xhtml" target="_top" xlink:title="S&#45;parameters with launches peeled from them.">
<polygon fill="white" stroke="black" points="384.5,-836.5 384.5,-855.5 479.5,-855.5 479.5,-836.5 384.5,-836.5"/>
<text text-anchor="middle" x="432" y="-843.5" font-family="Helvetica,sans-Serif" font-size="10.00">PeeledLaunches</text>
</a>
</g>
</g>
<!-- Node56&#45;&gt;Node57 -->
<g id="edge2" class="edge">
<title>Node56&#45;&gt;Node57</title>
<path fill="none" stroke="midnightblue" d="M240.27,-599.81C245.63,-647.07 265.98,-766.99 338,-827 350.79,-837.65 367.96,-842.86 384.07,-845.26"/>
<polygon fill="midnightblue" stroke="midnightblue" points="243.74,-599.26 239.24,-589.67 236.77,-599.97 243.74,-599.26"/>
</g>
<!-- Node58 -->
<g id="node4" class="node">
<title>Node58</title>
<g id="a_node4"><a xlink:href="classSignalIntegrity_1_1Lib_1_1ImpedanceProfile_1_1PeeledPortSParameters_1_1PeeledPortSParameters.xhtml" target="_top" xlink:title="s&#45;parameters of peeled impedance profile from port calculates the impedance profile looking into a po...">
<polygon fill="white" stroke="black" points="366.5,-798.5 366.5,-817.5 497.5,-817.5 497.5,-798.5 366.5,-798.5"/>
<text text-anchor="middle" x="432" y="-805.5" font-family="Helvetica,sans-Serif" font-size="10.00">PeeledPortSParameters</text>
</a>
</g>
</g>
<!-- Node56&#45;&gt;Node58 -->
<g id="edge3" class="edge">
<title>Node56&#45;&gt;Node58</title>
<path fill="none" stroke="midnightblue" d="M241.88,-599.86C250.12,-641.89 275.38,-740 338,-789 346.18,-795.4 355.96,-799.8 366.07,-802.8"/>
<polygon fill="midnightblue" stroke="midnightblue" points="245.28,-599 240.02,-589.8 238.39,-600.26 245.28,-599"/>
</g>
<!-- Node59 -->
<g id="node5" class="node">
<title>Node59</title>
<g id="a_node5"><a xlink:href="classSignalIntegrity_1_1Lib_1_1Measurement_1_1Calibration_1_1NetworkAnalyzer_1_1NetworkAnalyzer.xhtml" target="_top" xlink:title="produces calibrated or uncalibrated s&#45;parameters from a network analyzer.">
<polygon fill="white" stroke="black" points="381.5,-760.5 381.5,-779.5 482.5,-779.5 482.5,-760.5 381.5,-760.5"/>
<text text-anchor="middle" x="432" y="-767.5" font-family="Helvetica,sans-Serif" font-size="10.00">NetworkAnalyzer</text>
</a>
</g>
</g>
<!-- Node56&#45;&gt;Node59 -->
<g id="edge4" class="edge">
<title>Node56&#45;&gt;Node59</title>
<path fill="none" stroke="midnightblue" d="M243.98,-599.44C255.21,-635.48 284.39,-712.51 338,-751 350.45,-759.94 366.13,-764.89 381.04,-767.57"/>
<polygon fill="midnightblue" stroke="midnightblue" points="247.28,-598.24 241.07,-589.65 240.57,-600.24 247.28,-598.24"/>
</g>
<!-- Node60 -->
<g id="node6" class="node">
<title>Node60</title>
<g id="a_node6"><a xlink:href="classSignalIntegrity_1_1Lib_1_1Measurement_1_1CalKit_1_1Standards_1_1LoadStandard_1_1LoadStandard.xhtml" target="_top" xlink:title="Class providing the s&#45;parameters of a load standard as commonly defined for a calibration kit.">
<polygon fill="white" stroke="black" points="390.5,-722.5 390.5,-741.5 473.5,-741.5 473.5,-722.5 390.5,-722.5"/>
<text text-anchor="middle" x="432" y="-729.5" font-family="Helvetica,sans-Serif" font-size="10.00">LoadStandard</text>
</a>
</g>
</g>
<!-- Node56&#45;&gt;Node60 -->
<g id="edge5" class="edge">
<title>Node56&#45;&gt;Node60</title>
<path fill="none" stroke="midnightblue" d="M246.99,-598.77C261.3,-628.14 293.12,-684.55 338,-713 353.45,-722.79 372.99,-727.67 390.16,-730.04"/>
<polygon fill="midnightblue" stroke="midnightblue" points="250.09,-597.15 242.66,-589.6 243.76,-600.14 250.09,-597.15"/>
</g>
<!-- Node61 -->
<g id="node7" class="node">
<title>Node61</title>
<g id="a_node7"><a xlink:href="classSignalIntegrity_1_1Lib_1_1Measurement_1_1CalKit_1_1Standards_1_1Offset_1_1Offset.xhtml" target="_top" xlink:title="class providing the s&#45;parameters of an offset portion of the various calibration standards for a cali...">
<polygon fill="white" stroke="black" points="408.5,-684.5 408.5,-703.5 455.5,-703.5 455.5,-684.5 408.5,-684.5"/>
<text text-anchor="middle" x="432" y="-691.5" font-family="Helvetica,sans-Serif" font-size="10.00">Offset</text>
</a>
</g>
</g>
<!-- Node56&#45;&gt;Node61 -->
<g id="edge6" class="edge">
<title>Node56&#45;&gt;Node61</title>
<path fill="none" stroke="midnightblue" d="M251.77,-597.72C269.1,-619.51 301.54,-655.93 338,-675 360.2,-686.61 388.82,-691.13 408.41,-692.89"/>
<polygon fill="midnightblue" stroke="midnightblue" points="254.39,-595.39 245.5,-589.63 248.86,-599.68 254.39,-595.39"/>
</g>
<!-- Node63 -->
<g id="node9" class="node">
<title>Node63</title>
<g id="a_node9"><a xlink:href="classSignalIntegrity_1_1Lib_1_1Measurement_1_1CalKit_1_1Standards_1_1OpenStandard_1_1OpenStandard.xhtml" target="_top" xlink:title="class providing the s&#45;parameters of an open standard as commonly defined for a calibration kit.">
<polygon fill="white" stroke="black" points="389,-646.5 389,-665.5 475,-665.5 475,-646.5 389,-646.5"/>
<text text-anchor="middle" x="432" y="-653.5" font-family="Helvetica,sans-Serif" font-size="10.00">OpenStandard</text>
</a>
</g>
</g>
<!-- Node56&#45;&gt;Node63 -->
<g id="edge8" class="edge">
<title>Node56&#45;&gt;Node63</title>
<path fill="none" stroke="midnightblue" d="M260.43,-595.3C279.94,-608.24 309.7,-626.32 338,-637 354.19,-643.11 372.74,-647.4 389,-650.34"/>
<polygon fill="midnightblue" stroke="midnightblue" points="262.22,-592.29 251.97,-589.6 258.3,-598.09 262.22,-592.29"/>
</g>
<!-- Node64 -->
<g id="node10" class="node">
<title>Node64</title>
<g id="a_node10"><a xlink:href="classSignalIntegrity_1_1Lib_1_1Measurement_1_1CalKit_1_1Standards_1_1ShortStandard_1_1ShortStandard.xhtml" target="_top" xlink:title="Class providing the s&#45;parameters of a short standard as commonly defined for a calibration kit.">
<polygon fill="white" stroke="black" points="389,-608.5 389,-627.5 475,-627.5 475,-608.5 389,-608.5"/>
<text text-anchor="middle" x="432" y="-615.5" font-family="Helvetica,sans-Serif" font-size="10.00">ShortStandard</text>
</a>
</g>
</g>
<!-- Node56&#45;&gt;Node64 -->
<g id="edge9" class="edge">
<title>Node56&#45;&gt;Node64</title>
<path fill="none" stroke="midnightblue" d="M287.28,-589.63C318.59,-595.81 358.83,-603.75 388.76,-609.66"/>
<polygon fill="midnightblue" stroke="midnightblue" points="287.94,-586.19 277.46,-587.69 286.59,-593.06 287.94,-586.19"/>
</g>
<!-- Node1 -->
<g id="node11" class="node">
<title>Node1</title>
<g id="a_node11"><a xlink:href="classSignalIntegrity_1_1Lib_1_1Measurement_1_1CalKit_1_1Standards_1_1TerminationPolynomial_1_1TerminationCPolynomial.xhtml" target="_top" xlink:title="Class for capacitive terminations for open calibration standards.">
<polygon fill="white" stroke="black" points="364,-1102.5 364,-1121.5 500,-1121.5 500,-1102.5 364,-1102.5"/>
<text text-anchor="middle" x="432" y="-1109.5" font-family="Helvetica,sans-Serif" font-size="10.00">TerminationCPolynomial</text>
</a>
</g>
</g>
<!-- Node56&#45;&gt;Node1 -->
<g id="edge10" class="edge">
<title>Node56&#45;&gt;Node1</title>
<path fill="none" stroke="midnightblue" d="M239.5,-600.07C244.2,-685.92 266.91,-1021.19 338,-1093 345.07,-1100.14 354.06,-1104.96 363.64,-1108.16"/>
<polygon fill="midnightblue" stroke="midnightblue" points="242.98,-599.66 238.96,-589.86 235.99,-600.03 242.98,-599.66"/>
</g>
<!-- Node2 -->
<g id="node12" class="node">
<title>Node2</title>
<g id="a_node12"><a xlink:href="classSignalIntegrity_1_1Lib_1_1Measurement_1_1CalKit_1_1Standards_1_1TerminationPolynomial_1_1TerminationLPolynomial.xhtml" target="_top" xlink:title="Class for inductive terminations for short calibration standards.">
<polygon fill="white" stroke="black" points="365,-1140.5 365,-1159.5 499,-1159.5 499,-1140.5 365,-1140.5"/>
<text text-anchor="middle" x="432" y="-1147.5" font-family="Helvetica,sans-Serif" font-size="10.00">TerminationLPolynomial</text>
</a>
</g>
</g>
<!-- Node56&#45;&gt;Node2 -->
<g id="edge11" class="edge">
<title>Node56&#45;&gt;Node2</title>
<path fill="none" stroke="midnightblue" d="M239.2,-599.82C242.77,-689.11 261.84,-1053.08 338,-1131 345.37,-1138.54 354.87,-1143.5 364.97,-1146.7"/>
<polygon fill="midnightblue" stroke="midnightblue" points="242.69,-599.57 238.82,-589.71 235.7,-599.83 242.69,-599.57"/>
</g>
<!-- Node65 -->
<g id="node13" class="node">
<title>Node65</title>
<g id="a_node13"><a xlink:href="classSignalIntegrity_1_1Lib_1_1SParameters_1_1Devices_1_1ClassicalFilter_1_1ClassicalFilter.xhtml" target="_top" xlink:title="Classical filter.">
<polygon fill="white" stroke="black" points="390,-570.5 390,-589.5 474,-589.5 474,-570.5 390,-570.5"/>
<text text-anchor="middle" x="432" y="-577.5" font-family="Helvetica,sans-Serif" font-size="10.00">ClassicalFilter</text>
</a>
</g>
</g>
<!-- Node56&#45;&gt;Node65 -->
<g id="edge12" class="edge">
<title>Node56&#45;&gt;Node65</title>
<path fill="none" stroke="midnightblue" d="M287.8,-580C319.38,-580 359.9,-580 389.77,-580"/>
<polygon fill="midnightblue" stroke="midnightblue" points="287.46,-576.5 277.46,-580 287.46,-583.5 287.46,-576.5"/>
</g>
<!-- Node68 -->
<g id="node16" class="node">
<title>Node68</title>
<g id="a_node16"><a xlink:href="classSignalIntegrity_1_1Lib_1_1SParameters_1_1Devices_1_1Equalizer_1_1CTLE.xhtml" target="_top" xlink:title="Continuous time linear equalizer.">
<polygon fill="white" stroke="black" points="411.5,-532.5 411.5,-551.5 452.5,-551.5 452.5,-532.5 411.5,-532.5"/>
<text text-anchor="middle" x="432" y="-539.5" font-family="Helvetica,sans-Serif" font-size="10.00">CTLE</text>
</a>
</g>
</g>
<!-- Node56&#45;&gt;Node68 -->
<g id="edge15" class="edge">
<title>Node56&#45;&gt;Node68</title>
<path fill="none" stroke="midnightblue" d="M287.35,-570.36C327.62,-562.41 382.63,-551.55 411.5,-545.85"/>
<polygon fill="midnightblue" stroke="midnightblue" points="286.59,-566.94 277.46,-572.31 287.94,-573.81 286.59,-566.94"/>
</g>
<!-- Node69 -->
<g id="node17" class="node">
<title>Node69</title>
<g id="a_node17"><a xlink:href="classSignalIntegrity_1_1Lib_1_1SParameters_1_1Devices_1_1Equalizer_1_1FFE.xhtml" target="_top" xlink:title="Linear feed&#45;forward equalizer.">
<polygon fill="white" stroke="black" points="414.5,-494.5 414.5,-513.5 449.5,-513.5 449.5,-494.5 414.5,-494.5"/>
<text text-anchor="middle" x="432" y="-501.5" font-family="Helvetica,sans-Serif" font-size="10.00">FFE</text>
</a>
</g>
</g>
<!-- Node56&#45;&gt;Node69 -->
<g id="edge16" class="edge">
<title>Node56&#45;&gt;Node69</title>
<path fill="none" stroke="midnightblue" d="M260.43,-564.7C279.94,-551.76 309.7,-533.68 338,-523 363.75,-513.28 395.48,-508.16 414.43,-505.77"/>
<polygon fill="midnightblue" stroke="midnightblue" points="258.3,-561.91 251.97,-570.4 262.22,-567.71 258.3,-561.91"/>
</g>
<!-- Node70 -->
<g id="node18" class="node">
<title>Node70</title>
<g id="a_node18"><a xlink:href="classSignalIntegrity_1_1Lib_1_1SParameters_1_1Devices_1_1ImpulseResponseFilter_1_1ImpulseResponseFilter.xhtml" target="_top" xlink:title="class for impulse response filter">
<polygon fill="white" stroke="black" points="368.5,-456.5 368.5,-475.5 495.5,-475.5 495.5,-456.5 368.5,-456.5"/>
<text text-anchor="middle" x="432" y="-463.5" font-family="Helvetica,sans-Serif" font-size="10.00">ImpulseResponseFilter</text>
</a>
</g>
</g>
<!-- Node56&#45;&gt;Node70 -->
<g id="edge17" class="edge">
<title>Node56&#45;&gt;Node70</title>
<path fill="none" stroke="midnightblue" d="M251.77,-562.28C269.1,-540.49 301.54,-504.07 338,-485 347.35,-480.11 357.83,-476.48 368.3,-473.78"/>
<polygon fill="midnightblue" stroke="midnightblue" points="248.86,-560.32 245.5,-570.37 254.39,-564.61 248.86,-560.32"/>
</g>
<!-- Node71 -->
<g id="node19" class="node">
<title>Node71</title>
<g id="a_node19"><a xlink:href="classSignalIntegrity_1_1Lib_1_1SParameters_1_1Devices_1_1Laplace_1_1Laplace.xhtml" target="_top" xlink:title="Laplace domain equation.">
<polygon fill="white" stroke="black" points="405,-418.5 405,-437.5 459,-437.5 459,-418.5 405,-418.5"/>
<text text-anchor="middle" x="432" y="-425.5" font-family="Helvetica,sans-Serif" font-size="10.00">Laplace</text>
</a>
</g>
</g>
<!-- Node56&#45;&gt;Node71 -->
<g id="edge18" class="edge">
<title>Node56&#45;&gt;Node71</title>
<path fill="none" stroke="midnightblue" d="M246.99,-561.23C261.3,-531.86 293.12,-475.45 338,-447 358.04,-434.29 384.96,-429.87 404.68,-428.43"/>
<polygon fill="midnightblue" stroke="midnightblue" points="243.76,-559.86 242.66,-570.4 250.09,-562.85 243.76,-559.86"/>
</g>
<!-- Node72 -->
<g id="node20" class="node">
<title>Node72</title>
<g id="a_node20"><a xlink:href="classSignalIntegrity_1_1Lib_1_1SParameters_1_1Devices_1_1MixedModeTline_1_1MixedModeTLine.xhtml" target="_top" xlink:title="s&#45;parameters of a mixed&#45;mode, balanced transmission line">
<polygon fill="white" stroke="black" points="382,-380.5 382,-399.5 482,-399.5 482,-380.5 382,-380.5"/>
<text text-anchor="middle" x="432" y="-387.5" font-family="Helvetica,sans-Serif" font-size="10.00">MixedModeTLine</text>
</a>
</g>
</g>
<!-- Node56&#45;&gt;Node72 -->
<g id="edge19" class="edge">
<title>Node56&#45;&gt;Node72</title>
<path fill="none" stroke="midnightblue" d="M243.98,-560.56C255.21,-524.52 284.39,-447.49 338,-409 350.58,-399.97 366.46,-395 381.53,-392.34"/>
<polygon fill="midnightblue" stroke="midnightblue" points="240.57,-559.76 241.07,-570.35 247.28,-561.76 240.57,-559.76"/>
</g>
<!-- Node73 -->
<g id="node21" class="node">
<title>Node73</title>
<g id="a_node21"><a xlink:href="classSignalIntegrity_1_1Lib_1_1SParameters_1_1Devices_1_1Mutual_1_1Mutual.xhtml" target="_top" xlink:title="s&#45;parameters of a mutual inductance">
<polygon fill="white" stroke="black" points="407,-342.5 407,-361.5 457,-361.5 457,-342.5 407,-342.5"/>
<text text-anchor="middle" x="432" y="-349.5" font-family="Helvetica,sans-Serif" font-size="10.00">Mutual</text>
</a>
</g>
</g>
<!-- Node56&#45;&gt;Node73 -->
<g id="edge20" class="edge">
<title>Node56&#45;&gt;Node73</title>
<path fill="none" stroke="midnightblue" d="M241.88,-560.14C250.12,-518.11 275.38,-420 338,-371 357.6,-355.66 386.43,-351.81 406.79,-351.23"/>
<polygon fill="midnightblue" stroke="midnightblue" points="238.39,-559.74 240.02,-570.2 245.28,-561 238.39,-559.74"/>
</g>
<!-- Node74 -->
<g id="node22" class="node">
<title>Node74</title>
<g id="a_node22"><a xlink:href="classSignalIntegrity_1_1Lib_1_1SParameters_1_1Devices_1_1SeriesC_1_1SeriesC.xhtml" target="_top" xlink:title="s&#45;parameters of a series capacitance">
<polygon fill="white" stroke="black" points="405.5,-304.5 405.5,-323.5 458.5,-323.5 458.5,-304.5 405.5,-304.5"/>
<text text-anchor="middle" x="432" y="-311.5" font-family="Helvetica,sans-Serif" font-size="10.00">SeriesC</text>
</a>
</g>
</g>
<!-- Node56&#45;&gt;Node74 -->
<g id="edge21" class="edge">
<title>Node56&#45;&gt;Node74</title>
<path fill="none" stroke="midnightblue" d="M240.27,-560.19C245.63,-512.93 265.98,-393.01 338,-333 356.74,-317.39 384.89,-313.48 405.31,-312.96"/>
<polygon fill="midnightblue" stroke="midnightblue" points="236.77,-560.03 239.24,-570.33 243.74,-560.74 236.77,-560.03"/>
</g>
<!-- Node75 -->
<g id="node23" class="node">
<title>Node75</title>
<g id="a_node23"><a xlink:href="classSignalIntegrity_1_1Lib_1_1SParameters_1_1Devices_1_1SeriesL_1_1SeriesL.xhtml" target="_top" xlink:title="s&#45;parameters of a series inductance">
<polygon fill="white" stroke="black" points="406,-266.5 406,-285.5 458,-285.5 458,-266.5 406,-266.5"/>
<text text-anchor="middle" x="432" y="-273.5" font-family="Helvetica,sans-Serif" font-size="10.00">SeriesL</text>
</a>
</g>
</g>
<!-- Node56&#45;&gt;Node75 -->
<g id="edge22" class="edge">
<title>Node56&#45;&gt;Node75</title>
<path fill="none" stroke="midnightblue" d="M239.09,-560.06C241.76,-507.83 256.55,-366.18 338,-295 356.61,-278.73 385.34,-275.01 405.94,-274.71"/>
<polygon fill="midnightblue" stroke="midnightblue" points="235.58,-560.17 238.66,-570.31 242.57,-560.46 235.58,-560.17"/>
</g>
<!-- Node76 -->
<g id="node24" class="node">
<title>Node76</title>
<g id="a_node24"><a xlink:href="classSignalIntegrity_1_1Lib_1_1SParameters_1_1Devices_1_1SeriesRse_1_1SeriesRse.xhtml" target="_top" xlink:title="s&#45;parameters of series skin&#45;effect Resistance">
<polygon fill="white" stroke="black" points="399.5,-228.5 399.5,-247.5 464.5,-247.5 464.5,-228.5 399.5,-228.5"/>
<text text-anchor="middle" x="432" y="-235.5" font-family="Helvetica,sans-Serif" font-size="10.00">SeriesRse</text>
</a>
</g>
</g>
<!-- Node56&#45;&gt;Node76 -->
<g id="edge23" class="edge">
<title>Node56&#45;&gt;Node76</title>
<path fill="none" stroke="midnightblue" d="M238.14,-560.13C238.28,-503.42 246.93,-339.62 338,-257 354.48,-242.05 379.44,-237.59 399.35,-236.7"/>
<polygon fill="midnightblue" stroke="midnightblue" points="234.64,-560.28 238.21,-570.26 241.64,-560.24 234.64,-560.28"/>
</g>
<!-- Node77 -->
<g id="node25" class="node">
<title>Node77</title>
<g id="a_node25"><a xlink:href="classSignalIntegrity_1_1Lib_1_1SParameters_1_1Devices_1_1TerminationC_1_1TerminationC.xhtml" target="_top" xlink:title="s&#45;parameters of a termination (one&#45;port) capacitance">
<polygon fill="white" stroke="black" points="391.5,-190.5 391.5,-209.5 472.5,-209.5 472.5,-190.5 391.5,-190.5"/>
<text text-anchor="middle" x="432" y="-197.5" font-family="Helvetica,sans-Serif" font-size="10.00">TerminationC</text>
</a>
</g>
</g>
<!-- Node56&#45;&gt;Node77 -->
<g id="edge24" class="edge">
<title>Node56&#45;&gt;Node77</title>
<path fill="none" stroke="midnightblue" d="M241.21,-560.28C250.98,-491.97 286.59,-267.05 338,-219 352.21,-205.72 373.07,-200.65 391.45,-199.03"/>
<polygon fill="midnightblue" stroke="midnightblue" points="237.7,-560.11 239.77,-570.5 244.63,-561.08 237.7,-560.11"/>
</g>
<!-- Node78 -->
<g id="node26" class="node">
<title>Node78</title>
<g id="a_node26"><a xlink:href="classSignalIntegrity_1_1Lib_1_1SParameters_1_1Devices_1_1TerminationL_1_1TerminationL.xhtml" target="_top" xlink:title="s&#45;parameters of a termination (one&#45;port) inductance">
<polygon fill="white" stroke="black" points="392,-152.5 392,-171.5 472,-171.5 472,-152.5 392,-152.5"/>
<text text-anchor="middle" x="432" y="-159.5" font-family="Helvetica,sans-Serif" font-size="10.00">TerminationL</text>
</a>
</g>
</g>
<!-- Node56&#45;&gt;Node78 -->
<g id="edge25" class="edge">
<title>Node56&#45;&gt;Node78</title>
<path fill="none" stroke="midnightblue" d="M240.67,-560.12C249.07,-487.06 281.73,-234.91 338,-181 352.16,-167.43 373.25,-162.37 391.77,-160.84"/>
<polygon fill="midnightblue" stroke="midnightblue" points="237.18,-559.92 239.54,-570.25 244.13,-560.7 237.18,-559.92"/>
</g>
<!-- Node79 -->
<g id="node27" class="node">
<title>Node79</title>
<g id="a_node27"><a xlink:href="classSignalIntegrity_1_1Lib_1_1SParameters_1_1Devices_1_1TLineDifferentialRLGC_1_1TLineDifferentialRLGC.xhtml" target="_top" xlink:title="s&#45;parameters of differential RLGC (telegrapher&#39;s) transmission line">
<polygon fill="white" stroke="black" points="369.5,-114.5 369.5,-133.5 494.5,-133.5 494.5,-114.5 369.5,-114.5"/>
<text text-anchor="middle" x="432" y="-121.5" font-family="Helvetica,sans-Serif" font-size="10.00">TLineDifferentialRLGC</text>
</a>
</g>
</g>
<!-- Node56&#45;&gt;Node79 -->
<g id="edge26" class="edge">
<title>Node56&#45;&gt;Node79</title>
<path fill="none" stroke="midnightblue" d="M240.2,-560.26C247.25,-483.07 276.75,-202.9 338,-143 346.48,-134.7 357.55,-129.57 369.08,-126.48"/>
<polygon fill="midnightblue" stroke="midnightblue" points="236.69,-560.22 239.29,-570.49 243.66,-560.84 236.69,-560.22"/>
</g>
<!-- Node80 -->
<g id="node28" class="node">
<title>Node80</title>
<g id="a_node28"><a xlink:href="classSignalIntegrity_1_1Lib_1_1SParameters_1_1Devices_1_1TLineDifferentialRLGCApproximate_1_1TLineDifferentialRLGCApproximate.xhtml" target="_top" xlink:title="s&#45;parameters of differential RLGC (telegrapher&#39;s) transmission line calculated by approximating distr...">
<polygon fill="white" stroke="black" points="338,-76.5 338,-95.5 526,-95.5 526,-76.5 338,-76.5"/>
<text text-anchor="middle" x="432" y="-83.5" font-family="Helvetica,sans-Serif" font-size="10.00">TLineDifferentialRLGCApproximate</text>
</a>
</g>
</g>
<!-- Node56&#45;&gt;Node80 -->
<g id="edge27" class="edge">
<title>Node56&#45;&gt;Node80</title>
<path fill="none" stroke="midnightblue" d="M239.82,-560.14C245.66,-478.62 271.82,-170.85 338,-105 341.74,-101.28 345.99,-98.19 350.58,-95.64"/>
<polygon fill="midnightblue" stroke="midnightblue" points="236.31,-560.26 239.11,-570.47 243.29,-560.74 236.31,-560.26"/>
</g>
<!-- Node81 -->
<g id="node29" class="node">
<title>Node81</title>
<g id="a_node29"><a xlink:href="classSignalIntegrity_1_1Lib_1_1SParameters_1_1Devices_1_1TLineDifferentialRLGCBalanced_1_1TLineDifferentialRLGCBalanced.xhtml" target="_top" xlink:title="s&#45;parameters of analytic balanced differential RLGC (telegrapher&#39;s) transmission line.">
<polygon fill="white" stroke="black" points="347,-38.5 347,-57.5 517,-57.5 517,-38.5 347,-38.5"/>
<text text-anchor="middle" x="432" y="-45.5" font-family="Helvetica,sans-Serif" font-size="10.00">TLineDifferentialRLGCBalanced</text>
</a>
</g>
</g>
<!-- Node56&#45;&gt;Node81 -->
<g id="edge28" class="edge">
<title>Node56&#45;&gt;Node81</title>
<path fill="none" stroke="midnightblue" d="M239.5,-559.93C244.2,-474.08 266.91,-138.81 338,-67 341.71,-63.25 345.95,-60.15 350.52,-57.58"/>
<polygon fill="midnightblue" stroke="midnightblue" points="235.99,-559.97 238.96,-570.14 242.98,-560.34 235.99,-559.97"/>
</g>
<!-- Node82 -->
<g id="node30" class="node">
<title>Node82</title>
<g id="a_node30"><a xlink:href="classSignalIntegrity_1_1Lib_1_1SParameters_1_1Devices_1_1TLineDifferentialRLGCUncoupled_1_1TLineDifferentialRLGCUncoupled.xhtml" target="_top" xlink:title="s&#45;parameters of analytic uncoupled differential RLGC (telegrapher&#39;s) transmission line.">
<polygon fill="white" stroke="black" points="344,-0.5 344,-19.5 520,-19.5 520,-0.5 344,-0.5"/>
<text text-anchor="middle" x="432" y="-7.5" font-family="Helvetica,sans-Serif" font-size="10.00">TLineDifferentialRLGCUncoupled</text>
</a>
</g>
</g>
<!-- Node56&#45;&gt;Node82 -->
<g id="edge29" class="edge">
<title>Node56&#45;&gt;Node82</title>
<path fill="none" stroke="midnightblue" d="M239.2,-560.18C242.77,-470.89 261.84,-106.92 338,-29 341.69,-25.23 345.9,-22.1 350.46,-19.52"/>
<polygon fill="midnightblue" stroke="midnightblue" points="235.7,-560.17 238.82,-570.29 242.69,-560.43 235.7,-560.17"/>
</g>
<!-- Node83 -->
<g id="node31" class="node">
<title>Node83</title>
<g id="a_node31"><a xlink:href="classSignalIntegrity_1_1Lib_1_1SParameters_1_1Devices_1_1TLineLossless_1_1TLineLossless.xhtml" target="_top" xlink:title="s&#45;parameters of ideal lossless single&#45;ended transmission line">
<polygon fill="white" stroke="black" points="390,-1064.5 390,-1083.5 474,-1083.5 474,-1064.5 390,-1064.5"/>
<text text-anchor="middle" x="432" y="-1071.5" font-family="Helvetica,sans-Serif" font-size="10.00">TLineLossless</text>
</a>
</g>
</g>
<!-- Node56&#45;&gt;Node83 -->
<g id="edge30" class="edge">
<title>Node56&#45;&gt;Node83</title>
<path fill="none" stroke="midnightblue" d="M239.82,-599.86C245.66,-681.38 271.82,-989.15 338,-1055 351.43,-1068.37 371.57,-1073.56 389.67,-1075.22"/>
<polygon fill="midnightblue" stroke="midnightblue" points="243.29,-599.26 239.11,-589.53 236.31,-599.74 243.29,-599.26"/>
</g>
<!-- Node84 -->
<g id="node32" class="node">
<title>Node84</title>
<g id="a_node32"><a xlink:href="classSignalIntegrity_1_1Lib_1_1SParameters_1_1Devices_1_1TLineTwoPortRLGC_1_1TLineTwoPortRLGC.xhtml" target="_top" xlink:title="s&#45;parameters of single&#45;ended RLGC (telegraphers) transmission line">
<polygon fill="white" stroke="black" points="378.5,-1026.5 378.5,-1045.5 485.5,-1045.5 485.5,-1026.5 378.5,-1026.5"/>
<text text-anchor="middle" x="432" y="-1033.5" font-family="Helvetica,sans-Serif" font-size="10.00">TLineTwoPortRLGC</text>
</a>
</g>
</g>
<!-- Node56&#45;&gt;Node84 -->
<g id="edge31" class="edge">
<title>Node56&#45;&gt;Node84</title>
<path fill="none" stroke="midnightblue" d="M240.2,-599.74C247.25,-676.93 276.75,-957.1 338,-1017 348.72,-1027.48 363.57,-1032.92 378.26,-1035.56"/>
<polygon fill="midnightblue" stroke="midnightblue" points="243.66,-599.16 239.29,-589.51 236.69,-599.78 243.66,-599.16"/>
</g>
<!-- Node85 -->
<g id="node33" class="node">
<title>Node85</title>
<g id="a_node33"><a xlink:href="classSignalIntegrity_1_1Lib_1_1SParameters_1_1Devices_1_1TLineTwoPortRLGCAnalytic_1_1TLineTwoPortRLGCAnalytic.xhtml" target="_top" xlink:title="s&#45;parameters of analytic single&#45;ended telegraphers transmission line">
<polygon fill="white" stroke="black" points="358.5,-988.5 358.5,-1007.5 505.5,-1007.5 505.5,-988.5 358.5,-988.5"/>
<text text-anchor="middle" x="432" y="-995.5" font-family="Helvetica,sans-Serif" font-size="10.00">TLineTwoPortRLGCAnalytic</text>
</a>
</g>
</g>
<!-- Node56&#45;&gt;Node85 -->
<g id="edge32" class="edge">
<title>Node56&#45;&gt;Node85</title>
<path fill="none" stroke="midnightblue" d="M240.67,-599.88C249.07,-672.94 281.73,-925.09 338,-979 343.83,-984.59 350.84,-988.73 358.35,-991.78"/>
<polygon fill="midnightblue" stroke="midnightblue" points="244.13,-599.3 239.54,-589.75 237.18,-600.08 244.13,-599.3"/>
</g>
<!-- Node86 -->
<g id="node34" class="node">
<title>Node86</title>
<g id="a_node34"><a xlink:href="classSignalIntegrity_1_1Lib_1_1SParameters_1_1Devices_1_1TLineTwoPortRLGCApproximate_1_1TLineTwoPortRLGCApproximate.xhtml" target="_top" xlink:title="s&#45;parameters of two port RLGC (telegrapher&#39;s) transmission line calculated by approximating distribut...">
<polygon fill="white" stroke="black" points="347,-950.5 347,-969.5 517,-969.5 517,-950.5 347,-950.5"/>
<text text-anchor="middle" x="432" y="-957.5" font-family="Helvetica,sans-Serif" font-size="10.00">TLineTwoPortRLGCApproximate</text>
</a>
</g>
</g>
<!-- Node56&#45;&gt;Node86 -->
<g id="edge33" class="edge">
<title>Node56&#45;&gt;Node86</title>
<path fill="none" stroke="midnightblue" d="M241.21,-599.72C250.98,-668.03 286.59,-892.95 338,-941 341.97,-944.71 346.47,-947.79 351.28,-950.32"/>
<polygon fill="midnightblue" stroke="midnightblue" points="244.63,-598.92 239.77,-589.5 237.7,-599.89 244.63,-598.92"/>
</g>
<!-- Node87 -->
<g id="node35" class="node">
<title>Node87</title>
<g id="a_node35"><a xlink:href="classSignalIntegrity_1_1Lib_1_1SParameters_1_1Devices_1_1WElement_1_1WElement.xhtml" target="_top" xlink:title="s&#45;parameters of of a W element is calculated by approximating distributed parameters with a finite nu...">
<polygon fill="white" stroke="black" points="398.5,-912.5 398.5,-931.5 465.5,-931.5 465.5,-912.5 398.5,-912.5"/>
<text text-anchor="middle" x="432" y="-919.5" font-family="Helvetica,sans-Serif" font-size="10.00">WElement</text>
</a>
</g>
</g>
<!-- Node56&#45;&gt;Node87 -->
<g id="edge34" class="edge">
<title>Node56&#45;&gt;Node87</title>
<path fill="none" stroke="midnightblue" d="M238.14,-599.87C238.28,-656.58 246.93,-820.38 338,-903 354.23,-917.73 378.7,-922.28 398.47,-923.25"/>
<polygon fill="midnightblue" stroke="midnightblue" points="241.64,-599.76 238.21,-589.74 234.64,-599.72 241.64,-599.76"/>
</g>
<!-- Node89 -->
<g id="node37" class="node">
<title>Node89</title>
<g id="a_node37"><a xlink:href="classSignalIntegrity_1_1Lib_1_1SParameters_1_1SParameterFile_1_1SParameterFile.xhtml" target="_top" xlink:title="class for s&#45;parameters read from a file">
<polygon fill="white" stroke="black" points="387,-874.5 387,-893.5 477,-893.5 477,-874.5 387,-874.5"/>
<text text-anchor="middle" x="432" y="-881.5" font-family="Helvetica,sans-Serif" font-size="10.00">SParameterFile</text>
</a>
</g>
</g>
<!-- Node56&#45;&gt;Node89 -->
<g id="edge36" class="edge">
<title>Node56&#45;&gt;Node89</title>
<path fill="none" stroke="midnightblue" d="M239.09,-599.94C241.76,-652.17 256.55,-793.82 338,-865 351.28,-876.6 369.7,-881.83 386.65,-883.98"/>
<polygon fill="midnightblue" stroke="midnightblue" points="242.57,-599.54 238.66,-589.69 235.58,-599.83 242.57,-599.54"/>
</g>
<!-- Node62 -->
<g id="node8" class="node">
<title>Node62</title>
<g id="a_node8"><a xlink:href="classSignalIntegrity_1_1Lib_1_1Measurement_1_1CalKit_1_1Standards_1_1ThruStandard_1_1ThruStandard.xhtml" target="_top" xlink:title="Class providing the s&#45;parameters of a thru standard as commonly defined for a calibration kit.">
<polygon fill="white" stroke="black" points="591,-684.5 591,-703.5 673,-703.5 673,-684.5 591,-684.5"/>
<text text-anchor="middle" x="632" y="-691.5" font-family="Helvetica,sans-Serif" font-size="10.00">ThruStandard</text>
</a>
</g>
</g>
<!-- Node61&#45;&gt;Node62 -->
<g id="edge7" class="edge">
<title>Node61&#45;&gt;Node62</title>
<path fill="none" stroke="midnightblue" d="M466.13,-694C500.43,-694 554.05,-694 590.77,-694"/>
<polygon fill="midnightblue" stroke="midnightblue" points="465.71,-690.5 455.71,-694 465.71,-697.5 465.71,-690.5"/>
</g>
<!-- Node66 -->
<g id="node14" class="node">
<title>Node66</title>
<g id="a_node14"><a xlink:href="classSignalIntegrity_1_1Lib_1_1SParameters_1_1Devices_1_1ClassicalFilter_1_1BesselLowPassFilter.xhtml" target="_top" xlink:title="Bessel low pass filter.">
<polygon fill="white" stroke="black" points="574.5,-551.5 574.5,-570.5 689.5,-570.5 689.5,-551.5 574.5,-551.5"/>
<text text-anchor="middle" x="632" y="-558.5" font-family="Helvetica,sans-Serif" font-size="10.00">BesselLowPassFilter</text>
</a>
</g>
</g>
<!-- Node65&#45;&gt;Node66 -->
<g id="edge13" class="edge">
<title>Node65&#45;&gt;Node66</title>
<path fill="none" stroke="midnightblue" d="M484.25,-575.08C511.82,-572.44 545.89,-569.17 574.26,-566.44"/>
<polygon fill="midnightblue" stroke="midnightblue" points="483.65,-571.62 474.03,-576.06 484.31,-578.59 483.65,-571.62"/>
</g>
<!-- Node67 -->
<g id="node15" class="node">
<title>Node67</title>
<g id="a_node15"><a xlink:href="classSignalIntegrity_1_1Lib_1_1SParameters_1_1Devices_1_1ClassicalFilter_1_1ButterworthLowPassFilter.xhtml" target="_top" xlink:title="Butterworth Low pass filter.">
<polygon fill="white" stroke="black" points="562,-589.5 562,-608.5 702,-608.5 702,-589.5 562,-589.5"/>
<text text-anchor="middle" x="632" y="-596.5" font-family="Helvetica,sans-Serif" font-size="10.00">ButterworthLowPassFilter</text>
</a>
</g>
</g>
<!-- Node65&#45;&gt;Node67 -->
<g id="edge14" class="edge">
<title>Node65&#45;&gt;Node67</title>
<path fill="none" stroke="midnightblue" d="M484.2,-584.91C507.9,-587.19 536.4,-589.92 561.96,-592.37"/>
<polygon fill="midnightblue" stroke="midnightblue" points="484.31,-581.41 474.03,-583.94 483.65,-588.38 484.31,-581.41"/>
</g>
<!-- Node88 -->
<g id="node36" class="node">
<title>Node88</title>
<g id="a_node36"><a xlink:href="classSignalIntegrity_1_1Lib_1_1SParameters_1_1Devices_1_1WElement_1_1WElementFile.xhtml" target="_top" xlink:title="W element file.">
<polygon fill="white" stroke="black" points="590.5,-912.5 590.5,-931.5 673.5,-931.5 673.5,-912.5 590.5,-912.5"/>
<text text-anchor="middle" x="632" y="-919.5" font-family="Helvetica,sans-Serif" font-size="10.00">WElementFile</text>
</a>
</g>
</g>
<!-- Node87&#45;&gt;Node88 -->
<g id="edge35" class="edge">
<title>Node87&#45;&gt;Node88</title>
<path fill="none" stroke="midnightblue" d="M475.79,-922C509.77,-922 556.96,-922 590.37,-922"/>
<polygon fill="midnightblue" stroke="midnightblue" points="475.7,-918.5 465.7,-922 475.7,-925.5 475.7,-918.5"/>
</g>
<!-- Node0 -->
<g id="node38" class="node">
<title>Node0</title>
<g id="a_node38"><a xlink:href="classSignalIntegrity_1_1Lib_1_1Measurement_1_1CalKit_1_1Standards_1_1TerminationPolynomial_1_1TerminationPolynomial.xhtml" target="_top" xlink:title="Base class for terminations for calibration standards.">
<polygon fill="white" stroke="black" points="173,-1121.5 173,-1140.5 302,-1140.5 302,-1121.5 173,-1121.5"/>
<text text-anchor="middle" x="237.5" y="-1128.5" font-family="Helvetica,sans-Serif" font-size="10.00">TerminationPolynomial</text>
</a>
</g>
</g>
<!-- Node0&#45;&gt;Node1 -->
<g id="edge37" class="edge">
<title>Node0&#45;&gt;Node1</title>
<path fill="none" stroke="midnightblue" d="M312.45,-1123.7C329.37,-1122.03 347.26,-1120.27 363.87,-1118.63"/>
<polygon fill="midnightblue" stroke="midnightblue" points="311.67,-1120.26 302.07,-1124.73 312.36,-1127.23 311.67,-1120.26"/>
</g>
<!-- Node0&#45;&gt;Node2 -->
<g id="edge38" class="edge">
<title>Node0&#45;&gt;Node2</title>
<path fill="none" stroke="midnightblue" d="M312.14,-1138.27C329.49,-1139.98 347.87,-1141.79 364.86,-1143.47"/>
<polygon fill="midnightblue" stroke="midnightblue" points="312.36,-1134.77 302.07,-1137.27 311.67,-1141.74 312.36,-1134.77"/>
</g>
</g>
</svg>
