<?xml version="1.0" encoding="UTF-8" standalone="no"?>
<!DOCTYPE svg PUBLIC "-//W3C//DTD SVG 1.1//EN"
 "http://www.w3.org/Graphics/SVG/1.1/DTD/svg11.dtd">
<!-- Generated by graphviz version 2.40.1 (20161225.0304)
 -->
<!-- Title: Graphical Class Hierarchy Pages: 1 -->
<svg width="243pt" height="218pt"
 viewBox="0.00 0.00 243.00 218.00" xmlns="http://www.w3.org/2000/svg" xmlns:xlink="http://www.w3.org/1999/xlink">
<g id="graph0" class="graph" transform="scale(1 1) rotate(0) translate(4 214)">
<title>Graphical Class Hierarchy</title>
<polygon fill="#ffffff" stroke="transparent" points="-4,4 -4,-214 239,-214 239,4 -4,4"/>
<!-- Node0 -->
<g id="node1" class="node">
<title>Node0</title>
<g id="a_node1"><a xlink:href="classSignalIntegrity_1_1TimeDomain_1_1Waveform_1_1Waveform_1_1Waveform.xhtml" target="_top" xlink:title="base class for all waveforms ">
<polygon fill="#ffffff" stroke="#000000" points="0,-95.5 0,-114.5 62,-114.5 62,-95.5 0,-95.5"/>
<text text-anchor="middle" x="31" y="-102.5" font-family="Helvetica,sans-Serif" font-size="10.00" fill="#000000">Waveform</text>
</a>
</g>
</g>
<!-- Node1 -->
<g id="node2" class="node">
<title>Node1</title>
<g id="a_node2"><a xlink:href="classSignalIntegrity_1_1ImpedanceProfile_1_1ImpedanceProfileWaveform_1_1ImpedanceProfileWaveform.xhtml" target="_top" xlink:title="Computes the impedance profile waveform from a set of s&#45;parameters using the port specified...">
<polygon fill="#ffffff" stroke="#000000" points="98,-190.5 98,-209.5 235,-209.5 235,-190.5 98,-190.5"/>
<text text-anchor="middle" x="166.5" y="-197.5" font-family="Helvetica,sans-Serif" font-size="10.00" fill="#000000">ImpedanceProfileWaveform</text>
</a>
</g>
</g>
<!-- Node0&#45;&gt;Node1 -->
<g id="edge1" class="edge">
<title>Node0&#45;&gt;Node1</title>
<path fill="none" stroke="#191970" d="M42.4422,-123.1956C54.2856,-140.5562 74.3515,-166.193 98,-181 104.1715,-184.8641 111.1367,-187.9564 118.2021,-190.4272"/>
<polygon fill="#191970" stroke="#191970" points="45.1575,-120.9548 36.7379,-114.5236 39.3093,-124.8016 45.1575,-120.9548"/>
</g>
<!-- Node2 -->
<g id="node3" class="node">
<title>Node2</title>
<g id="a_node3"><a xlink:href="classSignalIntegrity_1_1TimeDomain_1_1Waveform_1_1ImpulseResponse_1_1ImpulseResponse.xhtml" target="_top" xlink:title="impulse response of a filter as a waveform ">
<polygon fill="#ffffff" stroke="#000000" points="119,-152.5 119,-171.5 214,-171.5 214,-152.5 119,-152.5"/>
<text text-anchor="middle" x="166.5" y="-159.5" font-family="Helvetica,sans-Serif" font-size="10.00" fill="#000000">ImpulseResponse</text>
</a>
</g>
</g>
<!-- Node0&#45;&gt;Node2 -->
<g id="edge2" class="edge">
<title>Node0&#45;&gt;Node2</title>
<path fill="none" stroke="#191970" d="M53.8773,-119.8369C66.506,-127.5433 82.6934,-136.6499 98,-143 106.7775,-146.6414 116.4719,-149.8112 125.7376,-152.4636"/>
<polygon fill="#191970" stroke="#191970" points="55.711,-116.8556 45.3741,-114.5323 52.006,-122.7947 55.711,-116.8556"/>
</g>
<!-- Node3 -->
<g id="node4" class="node">
<title>Node3</title>
<g id="a_node4"><a xlink:href="classSignalIntegrity_1_1TimeDomain_1_1Waveform_1_1NoiseWaveform_1_1NoiseWaveform.xhtml" target="_top" xlink:title="noise waveform ">
<polygon fill="#ffffff" stroke="#000000" points="123,-114.5 123,-133.5 210,-133.5 210,-114.5 123,-114.5"/>
<text text-anchor="middle" x="166.5" y="-121.5" font-family="Helvetica,sans-Serif" font-size="10.00" fill="#000000">NoiseWaveform</text>
</a>
</g>
</g>
<!-- Node0&#45;&gt;Node3 -->
<g id="edge3" class="edge">
<title>Node0&#45;&gt;Node3</title>
<path fill="none" stroke="#191970" d="M72.2497,-110.7841C88.3039,-113.0352 106.7146,-115.6168 122.9796,-117.8975"/>
<polygon fill="#191970" stroke="#191970" points="72.4756,-107.2816 62.0864,-109.359 71.5035,-114.2138 72.4756,-107.2816"/>
</g>
<!-- Node4 -->
<g id="node5" class="node">
<title>Node4</title>
<g id="a_node5"><a xlink:href="classSignalIntegrity_1_1TimeDomain_1_1Waveform_1_1PulseWaveform_1_1PulseWaveform.xhtml" target="_top" xlink:title="pulse waveform ">
<polygon fill="#ffffff" stroke="#000000" points="123.5,-76.5 123.5,-95.5 209.5,-95.5 209.5,-76.5 123.5,-76.5"/>
<text text-anchor="middle" x="166.5" y="-83.5" font-family="Helvetica,sans-Serif" font-size="10.00" fill="#000000">PulseWaveform</text>
</a>
</g>
</g>
<!-- Node0&#45;&gt;Node4 -->
<g id="edge4" class="edge">
<title>Node0&#45;&gt;Node4</title>
<path fill="none" stroke="#191970" d="M72.3411,-99.2031C88.5432,-96.9312 107.1343,-94.3243 123.4939,-92.0304"/>
<polygon fill="#191970" stroke="#191970" points="71.5035,-95.7862 62.0864,-100.641 72.4756,-102.7184 71.5035,-95.7862"/>
</g>
<!-- Node5 -->
<g id="node6" class="node">
<title>Node5</title>
<g id="a_node6"><a xlink:href="classSignalIntegrity_1_1TimeDomain_1_1Waveform_1_1SineWaveform_1_1SineWaveform.xhtml" target="_top" xlink:title="sinewave waveform ">
<polygon fill="#ffffff" stroke="#000000" points="126,-38.5 126,-57.5 207,-57.5 207,-38.5 126,-38.5"/>
<text text-anchor="middle" x="166.5" y="-45.5" font-family="Helvetica,sans-Serif" font-size="10.00" fill="#000000">SineWaveform</text>
</a>
</g>
</g>
<!-- Node0&#45;&gt;Node5 -->
<g id="edge5" class="edge">
<title>Node0&#45;&gt;Node5</title>
<path fill="none" stroke="#191970" d="M53.8773,-90.1631C66.506,-82.4567 82.6934,-73.3501 98,-67 106.7775,-63.3586 116.4719,-60.1888 125.7376,-57.5364"/>
<polygon fill="#191970" stroke="#191970" points="52.006,-87.2053 45.3741,-95.4677 55.711,-93.1444 52.006,-87.2053"/>
</g>
<!-- Node6 -->
<g id="node7" class="node">
<title>Node6</title>
<g id="a_node7"><a xlink:href="classSignalIntegrity_1_1TimeDomain_1_1Waveform_1_1StepWaveform_1_1StepWaveform.xhtml" target="_top" xlink:title="step waveform ">
<polygon fill="#ffffff" stroke="#000000" points="125.5,-.5 125.5,-19.5 207.5,-19.5 207.5,-.5 125.5,-.5"/>
<text text-anchor="middle" x="166.5" y="-7.5" font-family="Helvetica,sans-Serif" font-size="10.00" fill="#000000">StepWaveform</text>
</a>
</g>
</g>
<!-- Node0&#45;&gt;Node6 -->
<g id="edge6" class="edge">
<title>Node0&#45;&gt;Node6</title>
<path fill="none" stroke="#191970" d="M42.4422,-86.8044C54.2856,-69.4438 74.3515,-43.807 98,-29 106.2635,-23.826 115.9501,-20.0359 125.3946,-17.2684"/>
<polygon fill="#191970" stroke="#191970" points="39.3093,-85.1984 36.7379,-95.4764 45.1575,-89.0452 39.3093,-85.1984"/>
</g>
</g>
</svg>
