<?xml version="1.0" encoding="UTF-8" standalone="no"?>
<!DOCTYPE svg PUBLIC "-//W3C//DTD SVG 1.1//EN"
 "http://www.w3.org/Graphics/SVG/1.1/DTD/svg11.dtd">
<!-- Generated by graphviz version 2.40.1 (20161225.0304)
 -->
<!-- Title: Graphical Class Hierarchy Pages: 1 -->
<svg width="410pt" height="256pt"
 viewBox="0.00 0.00 410.00 256.00" xmlns="http://www.w3.org/2000/svg" xmlns:xlink="http://www.w3.org/1999/xlink">
<g id="graph0" class="graph" transform="scale(1 1) rotate(0) translate(4 252)">
<title>Graphical Class Hierarchy</title>
<polygon fill="#ffffff" stroke="transparent" points="-4,4 -4,-252 406,-252 406,4 -4,4"/>
<!-- Node0 -->
<g id="node1" class="node">
<title>Node0</title>
<g id="a_node1"><a xlink:href="classSignalIntegrity_1_1Lib_1_1TimeDomain_1_1Waveform_1_1Waveform_1_1Waveform.xhtml" target="_top" xlink:title="base class for all waveforms ">
<polygon fill="#ffffff" stroke="#000000" points="0,-114.5 0,-133.5 62,-133.5 62,-114.5 0,-114.5"/>
<text text-anchor="middle" x="31" y="-121.5" font-family="Helvetica,sans-Serif" font-size="10.00" fill="#000000">Waveform</text>
</a>
</g>
</g>
<!-- Node1 -->
<g id="node2" class="node">
<title>Node1</title>
<g id="a_node2"><a xlink:href="classSignalIntegrity_1_1Lib_1_1ImpedanceProfile_1_1ImpedanceProfileWaveform_1_1ImpedanceProfileWaveform.xhtml" target="_top" xlink:title="Computes the impedance profile waveform from a set of s&#45;parameters using the port specified...">
<polygon fill="#ffffff" stroke="#000000" points="98,-228.5 98,-247.5 235,-247.5 235,-228.5 98,-228.5"/>
<text text-anchor="middle" x="166.5" y="-235.5" font-family="Helvetica,sans-Serif" font-size="10.00" fill="#000000">ImpedanceProfileWaveform</text>
</a>
</g>
</g>
<!-- Node0&#45;&gt;Node1 -->
<g id="edge1" class="edge">
<title>Node0&#45;&gt;Node1</title>
<path fill="none" stroke="#191970" d="M39.4166,-142.9075C50.0051,-164.5243 70.2221,-199.438 98,-219 103.5497,-222.9083 109.8766,-226.0142 116.3905,-228.4821"/>
<polygon fill="#191970" stroke="#191970" points="42.5362,-141.3164 35.1186,-133.7514 36.1996,-144.291 42.5362,-141.3164"/>
</g>
<!-- Node2 -->
<g id="node3" class="node">
<title>Node2</title>
<g id="a_node3"><a xlink:href="classSignalIntegrity_1_1Lib_1_1Prbs_1_1PseudoRandomWaveform_1_1SerialDataWaveform.xhtml" target="_top" xlink:title="a serial data NRZ waveform ">
<polygon fill="#ffffff" stroke="#000000" points="113,-190.5 113,-209.5 220,-209.5 220,-190.5 113,-190.5"/>
<text text-anchor="middle" x="166.5" y="-197.5" font-family="Helvetica,sans-Serif" font-size="10.00" fill="#000000">SerialDataWaveform</text>
</a>
</g>
</g>
<!-- Node0&#45;&gt;Node2 -->
<g id="edge2" class="edge">
<title>Node0&#45;&gt;Node2</title>
<path fill="none" stroke="#191970" d="M46.6355,-140.8057C59.346,-153.5391 78.3369,-170.5687 98,-181 105.1955,-184.8172 113.2338,-187.929 121.2021,-190.4455"/>
<polygon fill="#191970" stroke="#191970" points="49.0564,-138.2744 39.5832,-133.5299 44.03,-143.1464 49.0564,-138.2744"/>
</g>
<!-- Node4 -->
<g id="node5" class="node">
<title>Node4</title>
<g id="a_node5"><a xlink:href="classSignalIntegrity_1_1Lib_1_1TimeDomain_1_1Waveform_1_1ImpulseResponse_1_1ImpulseResponse.xhtml" target="_top" xlink:title="impulse response of a filter as a waveform ">
<polygon fill="#ffffff" stroke="#000000" points="119,-152.5 119,-171.5 214,-171.5 214,-152.5 119,-152.5"/>
<text text-anchor="middle" x="166.5" y="-159.5" font-family="Helvetica,sans-Serif" font-size="10.00" fill="#000000">ImpulseResponse</text>
</a>
</g>
</g>
<!-- Node0&#45;&gt;Node4 -->
<g id="edge4" class="edge">
<title>Node0&#45;&gt;Node4</title>
<path fill="none" stroke="#191970" d="M71.8799,-135.6332C80.5034,-138.0759 89.5491,-140.6297 98,-143 109.051,-146.0995 121.113,-149.4546 131.9929,-152.4704"/>
<polygon fill="#191970" stroke="#191970" points="72.587,-132.1958 62.0114,-132.8345 70.677,-138.9302 72.587,-132.1958"/>
</g>
<!-- Node5 -->
<g id="node6" class="node">
<title>Node5</title>
<g id="a_node6"><a xlink:href="classSignalIntegrity_1_1Lib_1_1TimeDomain_1_1Waveform_1_1NoiseWaveform_1_1NoiseWaveform.xhtml" target="_top" xlink:title="noise waveform ">
<polygon fill="#ffffff" stroke="#000000" points="123,-114.5 123,-133.5 210,-133.5 210,-114.5 123,-114.5"/>
<text text-anchor="middle" x="166.5" y="-121.5" font-family="Helvetica,sans-Serif" font-size="10.00" fill="#000000">NoiseWaveform</text>
</a>
</g>
</g>
<!-- Node0&#45;&gt;Node5 -->
<g id="edge5" class="edge">
<title>Node0&#45;&gt;Node5</title>
<path fill="none" stroke="#191970" d="M72.2497,-124C88.3039,-124 106.7146,-124 122.9796,-124"/>
<polygon fill="#191970" stroke="#191970" points="72.0865,-120.5001 62.0864,-124 72.0864,-127.5001 72.0865,-120.5001"/>
</g>
<!-- Node6 -->
<g id="node7" class="node">
<title>Node6</title>
<g id="a_node7"><a xlink:href="classSignalIntegrity_1_1Lib_1_1TimeDomain_1_1Waveform_1_1PulseWaveform_1_1PulseWaveform.xhtml" target="_top" xlink:title="pulse waveform ">
<polygon fill="#ffffff" stroke="#000000" points="123.5,-76.5 123.5,-95.5 209.5,-95.5 209.5,-76.5 123.5,-76.5"/>
<text text-anchor="middle" x="166.5" y="-83.5" font-family="Helvetica,sans-Serif" font-size="10.00" fill="#000000">PulseWaveform</text>
</a>
</g>
</g>
<!-- Node0&#45;&gt;Node6 -->
<g id="edge6" class="edge">
<title>Node0&#45;&gt;Node6</title>
<path fill="none" stroke="#191970" d="M71.8799,-112.3668C80.5034,-109.9241 89.5491,-107.3703 98,-105 109.051,-101.9005 121.113,-98.5454 131.9929,-95.5296"/>
<polygon fill="#191970" stroke="#191970" points="70.677,-109.0698 62.0114,-115.1655 72.587,-115.8042 70.677,-109.0698"/>
</g>
<!-- Node7 -->
<g id="node8" class="node">
<title>Node7</title>
<g id="a_node8"><a xlink:href="classSignalIntegrity_1_1Lib_1_1TimeDomain_1_1Waveform_1_1SineWaveform_1_1SineWaveform.xhtml" target="_top" xlink:title="sinewave waveform ">
<polygon fill="#ffffff" stroke="#000000" points="126,-38.5 126,-57.5 207,-57.5 207,-38.5 126,-38.5"/>
<text text-anchor="middle" x="166.5" y="-45.5" font-family="Helvetica,sans-Serif" font-size="10.00" fill="#000000">SineWaveform</text>
</a>
</g>
</g>
<!-- Node0&#45;&gt;Node7 -->
<g id="edge7" class="edge">
<title>Node0&#45;&gt;Node7</title>
<path fill="none" stroke="#191970" d="M46.6355,-107.1943C59.346,-94.4609 78.3369,-77.4313 98,-67 106.6128,-62.4309 116.4331,-58.8725 125.8955,-56.136"/>
<polygon fill="#191970" stroke="#191970" points="44.03,-104.8536 39.5832,-114.4701 49.0564,-109.7256 44.03,-104.8536"/>
</g>
<!-- Node8 -->
<g id="node9" class="node">
<title>Node8</title>
<g id="a_node9"><a xlink:href="classSignalIntegrity_1_1Lib_1_1TimeDomain_1_1Waveform_1_1StepWaveform_1_1StepWaveform.xhtml" target="_top" xlink:title="step waveform ">
<polygon fill="#ffffff" stroke="#000000" points="125.5,-.5 125.5,-19.5 207.5,-19.5 207.5,-.5 125.5,-.5"/>
<text text-anchor="middle" x="166.5" y="-7.5" font-family="Helvetica,sans-Serif" font-size="10.00" fill="#000000">StepWaveform</text>
</a>
</g>
</g>
<!-- Node0&#45;&gt;Node8 -->
<g id="edge8" class="edge">
<title>Node0&#45;&gt;Node8</title>
<path fill="none" stroke="#191970" d="M39.4166,-105.0925C50.0051,-83.4757 70.2221,-48.562 98,-29 106.0723,-23.3153 115.7888,-19.328 125.3337,-16.5325"/>
<polygon fill="#191970" stroke="#191970" points="36.1996,-103.709 35.1186,-114.2486 42.5362,-106.6836 36.1996,-103.709"/>
</g>
<!-- Node3 -->
<g id="node4" class="node">
<title>Node3</title>
<g id="a_node4"><a xlink:href="classSignalIntegrity_1_1Lib_1_1Prbs_1_1PseudoRandomWaveform_1_1PseudoRandomWaveform.xhtml" target="_top" xlink:title="a PRBS waveform with a given PRBS polynomial ">
<polygon fill="#ffffff" stroke="#000000" points="271,-190.5 271,-209.5 402,-209.5 402,-190.5 271,-190.5"/>
<text text-anchor="middle" x="336.5" y="-197.5" font-family="Helvetica,sans-Serif" font-size="10.00" fill="#000000">PseudoRandomWaveform</text>
</a>
</g>
</g>
<!-- Node2&#45;&gt;Node3 -->
<g id="edge3" class="edge">
<title>Node2&#45;&gt;Node3</title>
<path fill="none" stroke="#191970" d="M230.65,-200C243.7911,-200 257.6409,-200 270.8344,-200"/>
<polygon fill="#191970" stroke="#191970" points="230.2891,-196.5001 220.2891,-200 230.289,-203.5001 230.2891,-196.5001"/>
</g>
</g>
</svg>
