<?xml version="1.0" encoding="UTF-8" standalone="no"?>
<!DOCTYPE svg PUBLIC "-//W3C//DTD SVG 1.1//EN"
 "http://www.w3.org/Graphics/SVG/1.1/DTD/svg11.dtd">
<!-- Generated by graphviz version 2.43.0 (0)
 -->
<!-- Title: Graphical Class Hierarchy Pages: 1 -->
<svg width="750pt" height="332pt"
 viewBox="0.00 0.00 750.00 332.00" xmlns="http://www.w3.org/2000/svg" xmlns:xlink="http://www.w3.org/1999/xlink">
<g id="graph0" class="graph" transform="scale(1 1) rotate(0) translate(4 328)">
<title>Graphical Class Hierarchy</title>
<polygon fill="white" stroke="transparent" points="-4,4 -4,-328 746,-328 746,4 -4,4"/>
<!-- Node131 -->
<g id="node1" class="node">
<title>Node131</title>
<g id="a_node1"><a xlink:href="classSignalIntegrity_1_1Lib_1_1CallBacker_1_1CallBacker.xhtml" target="_top" xlink:title="Handles Callbacks that allow progress reporting during long calculations and capability to abort.">
<polygon fill="white" stroke="black" points="283,-190.5 283,-209.5 348,-209.5 348,-190.5 283,-190.5"/>
<text text-anchor="middle" x="315.5" y="-197.5" font-family="Helvetica,sans-Serif" font-size="10.00">CallBacker</text>
</a>
</g>
</g>
<!-- Node1 -->
<g id="node2" class="node">
<title>Node1</title>
<g id="a_node2"><a xlink:href="classSignalIntegrity_1_1Lib_1_1Eye_1_1EyeDiagramBitmap_1_1EyeDiagramBitmap.xhtml" target="_top" xlink:title="Generates the eye diagram bitmap and many associated measurements from it.">
<polygon fill="white" stroke="black" points="423.5,-304.5 423.5,-323.5 524.5,-323.5 524.5,-304.5 423.5,-304.5"/>
<text text-anchor="middle" x="474" y="-311.5" font-family="Helvetica,sans-Serif" font-size="10.00">EyeDiagramBitmap</text>
</a>
</g>
</g>
<!-- Node131&#45;&gt;Node1 -->
<g id="edge1" class="edge">
<title>Node131&#45;&gt;Node1</title>
<path fill="none" stroke="midnightblue" d="M357.31,-212.6C360.44,-214.46 363.39,-216.58 366,-219 393.41,-244.41 373.29,-271.07 402,-295 408.17,-300.15 415.61,-303.91 423.31,-306.66"/>
<polygon fill="midnightblue" stroke="midnightblue" points="358.66,-209.36 348.15,-208.03 355.53,-215.62 358.66,-209.36"/>
</g>
<!-- Node132 -->
<g id="node3" class="node">
<title>Node132</title>
<g id="a_node3"><a xlink:href="classSignalIntegrity_1_1Lib_1_1Fit_1_1LevMar_1_1LevMar.xhtml" target="_top" xlink:title="Implements the Levenberg&#45;Marquardt algorithm for non&#45;linear fitting &#160;&#160;To use this class,...">
<polygon fill="white" stroke="black" points="449.5,-266.5 449.5,-285.5 498.5,-285.5 498.5,-266.5 449.5,-266.5"/>
<text text-anchor="middle" x="474" y="-273.5" font-family="Helvetica,sans-Serif" font-size="10.00">LevMar</text>
</a>
</g>
</g>
<!-- Node131&#45;&gt;Node132 -->
<g id="edge2" class="edge">
<title>Node131&#45;&gt;Node132</title>
<path fill="none" stroke="midnightblue" d="M356.82,-213.68C360.02,-215.3 363.12,-217.07 366,-219 385.34,-231.93 382.01,-245.1 402,-257 416.47,-265.62 434.9,-270.4 449.35,-273.01"/>
<polygon fill="midnightblue" stroke="midnightblue" points="358.21,-210.47 347.66,-209.52 355.31,-216.84 358.21,-210.47"/>
</g>
<!-- Node3 -->
<g id="node4" class="node">
<title>Node3</title>
<g id="a_node4"><a xlink:href="classSignalIntegrity_1_1Lib_1_1Parsers_1_1CalibrationNumericParser_1_1CalibrationNumericParser.xhtml" target="_top" xlink:title="generates a calibration from a netlist">
<polygon fill="white" stroke="black" points="410,-228.5 410,-247.5 538,-247.5 538,-228.5 410,-228.5"/>
<text text-anchor="middle" x="474" y="-235.5" font-family="Helvetica,sans-Serif" font-size="10.00">CalibrationNumericParser</text>
</a>
</g>
</g>
<!-- Node131&#45;&gt;Node3 -->
<g id="edge3" class="edge">
<title>Node131&#45;&gt;Node3</title>
<path fill="none" stroke="midnightblue" d="M358.15,-210.11C381.55,-215.79 410.58,-222.84 433.6,-228.43"/>
<polygon fill="midnightblue" stroke="midnightblue" points="358.71,-206.65 348.17,-207.69 357.06,-213.45 358.71,-206.65"/>
</g>
<!-- Node4 -->
<g id="node5" class="node">
<title>Node4</title>
<g id="a_node5"><a xlink:href="classSignalIntegrity_1_1Lib_1_1Parsers_1_1DeembedderNumericParser_1_1DeembedderNumericParser.xhtml" target="_top" xlink:title="generates deembedd s&#45;parameters from a netlist">
<polygon fill="white" stroke="black" points="405.5,-102.5 405.5,-121.5 542.5,-121.5 542.5,-102.5 405.5,-102.5"/>
<text text-anchor="middle" x="474" y="-109.5" font-family="Helvetica,sans-Serif" font-size="10.00">DeembedderNumericParser</text>
</a>
</g>
</g>
<!-- Node131&#45;&gt;Node4 -->
<g id="edge4" class="edge">
<title>Node131&#45;&gt;Node4</title>
<path fill="none" stroke="midnightblue" d="M333.71,-182.85C350.01,-167.5 375.84,-145.4 402,-132 410.32,-127.74 419.67,-124.28 428.78,-121.52"/>
<polygon fill="midnightblue" stroke="midnightblue" points="330.87,-180.72 326.1,-190.18 335.73,-185.76 330.87,-180.72"/>
</g>
<!-- Node5 -->
<g id="node6" class="node">
<title>Node5</title>
<g id="a_node6"><a xlink:href="classSignalIntegrity_1_1Lib_1_1Parsers_1_1SimulatorNumericParser_1_1SimulatorNumericParser.xhtml" target="_top" xlink:title="performs numeric simulations from netlists">
<polygon fill="white" stroke="black" points="412.5,-64.5 412.5,-83.5 535.5,-83.5 535.5,-64.5 412.5,-64.5"/>
<text text-anchor="middle" x="474" y="-71.5" font-family="Helvetica,sans-Serif" font-size="10.00">SimulatorNumericParser</text>
</a>
</g>
</g>
<!-- Node131&#45;&gt;Node5 -->
<g id="edge5" class="edge">
<title>Node131&#45;&gt;Node5</title>
<path fill="none" stroke="midnightblue" d="M332.47,-182.45C342.38,-171.36 355.24,-156.59 366,-143 382.99,-121.53 379.46,-108.55 402,-93 407.67,-89.09 414.11,-85.98 420.74,-83.51"/>
<polygon fill="midnightblue" stroke="midnightblue" points="329.64,-180.37 325.55,-190.14 334.84,-185.05 329.64,-180.37"/>
</g>
<!-- Node7 -->
<g id="node8" class="node">
<title>Node7</title>
<g id="a_node8"><a xlink:href="classSignalIntegrity_1_1Lib_1_1Parsers_1_1SystemSParametersParser_1_1SystemSParametersNumericParser.xhtml" target="_top" xlink:title="generates system s&#45;parameters from a netlist">
<polygon fill="white" stroke="black" points="402,-141 402,-171 546,-171 546,-141 402,-141"/>
<text text-anchor="start" x="410" y="-159" font-family="Helvetica,sans-Serif" font-size="10.00">SystemSParametersNumeric</text>
<text text-anchor="middle" x="474" y="-148" font-family="Helvetica,sans-Serif" font-size="10.00">Parser</text>
</a>
</g>
</g>
<!-- Node131&#45;&gt;Node7 -->
<g id="edge7" class="edge">
<title>Node131&#45;&gt;Node7</title>
<path fill="none" stroke="midnightblue" d="M357.95,-188.35C376.81,-183.04 399.37,-176.7 419.49,-171.04"/>
<polygon fill="midnightblue" stroke="midnightblue" points="356.85,-185.02 348.17,-191.1 358.74,-191.76 356.85,-185.02"/>
</g>
<!-- Node9 -->
<g id="node10" class="node">
<title>Node9</title>
<g id="a_node10"><a xlink:href="classSignalIntegrity_1_1Lib_1_1Parsers_1_1VirtualProbeNumericParser_1_1VirtualProbeNumericParser.xhtml" target="_top" xlink:title="performs numeric virtual probing from netlists">
<polygon fill="white" stroke="black" points="406.5,-26.5 406.5,-45.5 541.5,-45.5 541.5,-26.5 406.5,-26.5"/>
<text text-anchor="middle" x="474" y="-33.5" font-family="Helvetica,sans-Serif" font-size="10.00">VirtualProbeNumericParser</text>
</a>
</g>
</g>
<!-- Node131&#45;&gt;Node9 -->
<g id="edge9" class="edge">
<title>Node131&#45;&gt;Node9</title>
<path fill="none" stroke="midnightblue" d="M334.02,-182.88C344.31,-172.14 357.02,-157.59 366,-143 388.15,-107.01 370.29,-82.93 402,-55 406.41,-51.12 411.52,-48.02 416.95,-45.55"/>
<polygon fill="midnightblue" stroke="midnightblue" points="331.24,-180.72 326.72,-190.3 336.23,-185.63 331.24,-180.72"/>
</g>
<!-- Node133 -->
<g id="node11" class="node">
<title>Node133</title>
<g id="a_node11"><a xlink:href="classSignalIntegrity_1_1Lib_1_1TimeDomain_1_1Filters_1_1TransferMatricesProcessor_1_1TransferMatricesProcessor.xhtml" target="_top" xlink:title="process transfer matrices &#160;&#160;Usually transfer matrices are produced in simulation and virtual probing ...">
<polygon fill="white" stroke="black" points="407,-190.5 407,-209.5 541,-209.5 541,-190.5 407,-190.5"/>
<text text-anchor="middle" x="474" y="-197.5" font-family="Helvetica,sans-Serif" font-size="10.00">TransferMatricesProcessor</text>
</a>
</g>
</g>
<!-- Node131&#45;&gt;Node133 -->
<g id="edge10" class="edge">
<title>Node131&#45;&gt;Node133</title>
<path fill="none" stroke="midnightblue" d="M358.54,-200C373.38,-200 390.45,-200 406.8,-200"/>
<polygon fill="midnightblue" stroke="midnightblue" points="358.17,-196.5 348.17,-200 358.17,-203.5 358.17,-196.5"/>
</g>
<!-- Node6 -->
<g id="node7" class="node">
<title>Node6</title>
<g id="a_node7"><a xlink:href="classSignalIntegrity_1_1Lib_1_1Parsers_1_1NetworkAnalyzerSimulationNumericParser_1_1NetworkAnalyzerSimulationNumericParser.xhtml" target="_top" xlink:title="performs numeric simulations from netlists">
<polygon fill="white" stroke="black" points="593.5,-59 593.5,-89 730.5,-89 730.5,-59 593.5,-59"/>
<text text-anchor="start" x="601.5" y="-77" font-family="Helvetica,sans-Serif" font-size="10.00">NetworkAnalyzerSimulation</text>
<text text-anchor="middle" x="662" y="-66" font-family="Helvetica,sans-Serif" font-size="10.00">NumericParser</text>
</a>
</g>
</g>
<!-- Node5&#45;&gt;Node6 -->
<g id="edge6" class="edge">
<title>Node5&#45;&gt;Node6</title>
<path fill="none" stroke="midnightblue" d="M545.76,-74C561.37,-74 577.87,-74 593.36,-74"/>
<polygon fill="midnightblue" stroke="midnightblue" points="545.65,-70.5 535.65,-74 545.65,-77.5 545.65,-70.5"/>
</g>
<!-- Node8 -->
<g id="node9" class="node">
<title>Node8</title>
<g id="a_node9"><a xlink:href="classSignalIntegrity_1_1Lib_1_1Parsers_1_1DUTSParametersNumericParser_1_1DUTSParametersNumericParser.xhtml" target="_top" xlink:title="generates s&#45;parameters of a DUT from a network analyzer model netlist">
<polygon fill="white" stroke="black" points="582,-146.5 582,-165.5 742,-165.5 742,-146.5 582,-146.5"/>
<text text-anchor="middle" x="662" y="-153.5" font-family="Helvetica,sans-Serif" font-size="10.00">DUTSParametersNumericParser</text>
</a>
</g>
</g>
<!-- Node7&#45;&gt;Node8 -->
<g id="edge8" class="edge">
<title>Node7&#45;&gt;Node8</title>
<path fill="none" stroke="midnightblue" d="M556.36,-156C564.82,-156 573.42,-156 581.86,-156"/>
<polygon fill="midnightblue" stroke="midnightblue" points="556.11,-152.5 546.11,-156 556.11,-159.5 556.11,-152.5"/>
</g>
<!-- Node113 -->
<g id="node12" class="node">
<title>Node113</title>
<g id="a_node12"><a xlink:href="classSignalIntegrity_1_1Lib_1_1Parsers_1_1ParserArgs_1_1ParserArgs.xhtml" target="_top" xlink:title="argument handling base class for parsers">
<polygon fill="white" stroke="black" points="0,-95.5 0,-114.5 65,-114.5 65,-95.5 0,-95.5"/>
<text text-anchor="middle" x="32.5" y="-102.5" font-family="Helvetica,sans-Serif" font-size="10.00">ParserArgs</text>
</a>
</g>
</g>
<!-- Node107 -->
<g id="node13" class="node">
<title>Node107</title>
<g id="a_node13"><a xlink:href="classSignalIntegrity_1_1Lib_1_1Parsers_1_1SystemDescriptionParser_1_1SystemDescriptionParser.xhtml" target="_top" xlink:title="Parses netlists and produces system descriptions.">
<polygon fill="white" stroke="black" points="101,-76.5 101,-95.5 229,-95.5 229,-76.5 101,-76.5"/>
<text text-anchor="middle" x="165" y="-83.5" font-family="Helvetica,sans-Serif" font-size="10.00">SystemDescriptionParser</text>
</a>
</g>
</g>
<!-- Node113&#45;&gt;Node107 -->
<g id="edge11" class="edge">
<title>Node113&#45;&gt;Node107</title>
<path fill="none" stroke="midnightblue" d="M75.17,-98.93C83.41,-97.73 92.23,-96.45 101,-95.17"/>
<polygon fill="midnightblue" stroke="midnightblue" points="74.48,-95.5 65.09,-100.4 75.49,-102.42 74.48,-95.5"/>
</g>
<!-- Node107&#45;&gt;Node7 -->
<g id="edge18" class="edge">
<title>Node107&#45;&gt;Node7</title>
<path fill="none" stroke="midnightblue" d="M186.5,-101.6C205.66,-115.23 235.65,-134.17 265,-143 309.17,-156.3 360.94,-159.57 401.78,-159.51"/>
<polygon fill="midnightblue" stroke="midnightblue" points="188.4,-98.65 178.26,-95.59 184.27,-104.31 188.4,-98.65"/>
</g>
<!-- Node108 -->
<g id="node14" class="node">
<title>Node108</title>
<g id="a_node14"><a xlink:href="classSignalIntegrity_1_1Lib_1_1Parsers_1_1CalibrationParser_1_1CalibrationParser.xhtml" target="_top" xlink:title="base class for netlist based error terms solutions">
<polygon fill="white" stroke="black" points="269.5,-228.5 269.5,-247.5 361.5,-247.5 361.5,-228.5 269.5,-228.5"/>
<text text-anchor="middle" x="315.5" y="-235.5" font-family="Helvetica,sans-Serif" font-size="10.00">CalibrationParser</text>
</a>
</g>
</g>
<!-- Node107&#45;&gt;Node108 -->
<g id="edge12" class="edge">
<title>Node107&#45;&gt;Node108</title>
<path fill="none" stroke="midnightblue" d="M175.45,-104.75C190.65,-133.19 223.14,-187.26 265,-219 269.99,-222.78 275.82,-225.89 281.69,-228.43"/>
<polygon fill="midnightblue" stroke="midnightblue" points="178.53,-103.09 170.8,-95.84 172.32,-106.33 178.53,-103.09"/>
</g>
<!-- Node109 -->
<g id="node15" class="node">
<title>Node109</title>
<g id="a_node15"><a xlink:href="classSignalIntegrity_1_1Lib_1_1Parsers_1_1DeembedderParser_1_1DeembedderParser.xhtml" target="_top" xlink:title="base class for netlist based deembedding solutions">
<polygon fill="white" stroke="black" points="265,-76.5 265,-95.5 366,-95.5 366,-76.5 265,-76.5"/>
<text text-anchor="middle" x="315.5" y="-83.5" font-family="Helvetica,sans-Serif" font-size="10.00">DeembedderParser</text>
</a>
</g>
</g>
<!-- Node107&#45;&gt;Node109 -->
<g id="edge14" class="edge">
<title>Node107&#45;&gt;Node109</title>
<path fill="none" stroke="midnightblue" d="M239.45,-86C248.03,-86 256.62,-86 264.77,-86"/>
<polygon fill="midnightblue" stroke="midnightblue" points="239.41,-82.5 229.41,-86 239.41,-89.5 239.41,-82.5"/>
</g>
<!-- Node110 -->
<g id="node16" class="node">
<title>Node110</title>
<g id="a_node16"><a xlink:href="classSignalIntegrity_1_1Lib_1_1Parsers_1_1SimulatorParser_1_1SimulatorParser.xhtml" target="_top" xlink:title="base class for netlist based simulation solutions">
<polygon fill="white" stroke="black" points="272.5,-38.5 272.5,-57.5 358.5,-57.5 358.5,-38.5 272.5,-38.5"/>
<text text-anchor="middle" x="315.5" y="-45.5" font-family="Helvetica,sans-Serif" font-size="10.00">SimulatorParser</text>
</a>
</g>
</g>
<!-- Node107&#45;&gt;Node110 -->
<g id="edge16" class="edge">
<title>Node107&#45;&gt;Node110</title>
<path fill="none" stroke="midnightblue" d="M213.33,-73.89C234.01,-68.6 257.92,-62.48 277.3,-57.52"/>
<polygon fill="midnightblue" stroke="midnightblue" points="212.29,-70.54 203.47,-76.41 214.03,-77.32 212.29,-70.54"/>
</g>
<!-- Node111 -->
<g id="node17" class="node">
<title>Node111</title>
<g id="a_node17"><a xlink:href="classSignalIntegrity_1_1Lib_1_1Parsers_1_1VirtualProbeParser_1_1VirtualProbeParser.xhtml" target="_top" xlink:title="base class for netlist based virtual probing solutions">
<polygon fill="white" stroke="black" points="266.5,-0.5 266.5,-19.5 364.5,-19.5 364.5,-0.5 266.5,-0.5"/>
<text text-anchor="middle" x="315.5" y="-7.5" font-family="Helvetica,sans-Serif" font-size="10.00">VirtualProbeParser</text>
</a>
</g>
</g>
<!-- Node107&#45;&gt;Node111 -->
<g id="edge19" class="edge">
<title>Node107&#45;&gt;Node111</title>
<path fill="none" stroke="midnightblue" d="M189.65,-70.98C209.36,-58.81 238.41,-41.66 265,-29 272.15,-25.6 280.08,-22.34 287.46,-19.51"/>
<polygon fill="midnightblue" stroke="midnightblue" points="187.67,-68.09 181.03,-76.35 191.37,-74.03 187.67,-68.09"/>
</g>
<!-- Node108&#45;&gt;Node3 -->
<g id="edge13" class="edge">
<title>Node108&#45;&gt;Node3</title>
<path fill="none" stroke="midnightblue" d="M371.85,-238C384.13,-238 397.23,-238 409.79,-238"/>
<polygon fill="midnightblue" stroke="midnightblue" points="371.77,-234.5 361.77,-238 371.77,-241.5 371.77,-234.5"/>
</g>
<!-- Node109&#45;&gt;Node4 -->
<g id="edge15" class="edge">
<title>Node109&#45;&gt;Node4</title>
<path fill="none" stroke="midnightblue" d="M376.2,-95.92C389.13,-98.07 402.78,-100.33 415.61,-102.47"/>
<polygon fill="midnightblue" stroke="midnightblue" points="376.46,-92.41 366.02,-94.23 375.31,-99.32 376.46,-92.41"/>
</g>
<!-- Node110&#45;&gt;Node5 -->
<g id="edge17" class="edge">
<title>Node110&#45;&gt;Node5</title>
<path fill="none" stroke="midnightblue" d="M368.97,-56.72C383.96,-59.21 400.36,-61.93 415.63,-64.47"/>
<polygon fill="midnightblue" stroke="midnightblue" points="369.29,-53.22 358.85,-55.04 368.14,-60.13 369.29,-53.22"/>
</g>
<!-- Node111&#45;&gt;Node9 -->
<g id="edge20" class="edge">
<title>Node111&#45;&gt;Node9</title>
<path fill="none" stroke="midnightblue" d="M374.75,-19.68C388.09,-21.89 402.27,-24.25 415.58,-26.46"/>
<polygon fill="midnightblue" stroke="midnightblue" points="375.17,-16.2 364.73,-18.01 374.02,-23.1 375.17,-16.2"/>
</g>
<!-- Node106 -->
<g id="node18" class="node">
<title>Node106</title>
<g id="a_node18"><a xlink:href="classSignalIntegrity_1_1Lib_1_1Parsers_1_1ParserFile_1_1ParserFile.xhtml" target="_top" xlink:title="file handling base class for parsers">
<polygon fill="white" stroke="black" points="2,-57.5 2,-76.5 63,-76.5 63,-57.5 2,-57.5"/>
<text text-anchor="middle" x="32.5" y="-64.5" font-family="Helvetica,sans-Serif" font-size="10.00">ParserFile</text>
</a>
</g>
</g>
<!-- Node106&#45;&gt;Node107 -->
<g id="edge21" class="edge">
<title>Node106&#45;&gt;Node107</title>
<path fill="none" stroke="midnightblue" d="M73.07,-72.76C81.88,-74.04 91.44,-75.44 100.93,-76.82"/>
<polygon fill="midnightblue" stroke="midnightblue" points="73.51,-69.29 63.11,-71.31 72.5,-76.22 73.51,-69.29"/>
</g>
<!-- Node0 -->
<g id="node19" class="node">
<title>Node0</title>
<g id="a_node19"><a xlink:href="classSignalIntegrity_1_1Lib_1_1ResultsCache_1_1ResultsCache.xhtml" target="_top" xlink:title="base class for results caching">
<polygon fill="white" stroke="black" points="125.5,-199.5 125.5,-218.5 204.5,-218.5 204.5,-199.5 125.5,-199.5"/>
<text text-anchor="middle" x="165" y="-206.5" font-family="Helvetica,sans-Serif" font-size="10.00">ResultsCache</text>
</a>
</g>
</g>
<!-- Node0&#45;&gt;Node1 -->
<g id="edge22" class="edge">
<title>Node0&#45;&gt;Node1</title>
<path fill="none" stroke="midnightblue" d="M192.4,-223.42C212.02,-233.74 239.66,-247.43 265,-257 324.11,-279.32 341.03,-278.39 402,-295 413.45,-298.12 425.95,-301.48 437.23,-304.5"/>
<polygon fill="midnightblue" stroke="midnightblue" points="193.93,-220.27 183.46,-218.66 190.64,-226.45 193.93,-220.27"/>
</g>
<!-- Node2 -->
<g id="node20" class="node">
<title>Node2</title>
<g id="a_node20"><a xlink:href="classSignalIntegrity_1_1Lib_1_1ResultsCache_1_1LinesCache.xhtml" target="_top" xlink:title="Caches results calculated based on netlist lines, as used in all of the parser classes.">
<polygon fill="white" stroke="black" points="281.5,-114.5 281.5,-133.5 349.5,-133.5 349.5,-114.5 281.5,-114.5"/>
<text text-anchor="middle" x="315.5" y="-121.5" font-family="Helvetica,sans-Serif" font-size="10.00">LinesCache</text>
</a>
</g>
</g>
<!-- Node0&#45;&gt;Node2 -->
<g id="edge23" class="edge">
<title>Node0&#45;&gt;Node2</title>
<path fill="none" stroke="midnightblue" d="M191.49,-194.41C221.83,-177.04 271.64,-148.53 297.59,-133.68"/>
<polygon fill="midnightblue" stroke="midnightblue" points="189.69,-191.41 182.75,-199.41 193.16,-197.48 189.69,-191.41"/>
</g>
<!-- Node2&#45;&gt;Node3 -->
<g id="edge24" class="edge">
<title>Node2&#45;&gt;Node3</title>
<path fill="none" stroke="midnightblue" d="M331.92,-141.65C355.35,-168.38 397.65,-216.33 402,-219 408.31,-222.87 415.41,-225.96 422.61,-228.42"/>
<polygon fill="midnightblue" stroke="midnightblue" points="334.27,-139.02 325.05,-133.8 329.01,-143.63 334.27,-139.02"/>
</g>
<!-- Node2&#45;&gt;Node4 -->
<g id="edge25" class="edge">
<title>Node2&#45;&gt;Node4</title>
<path fill="none" stroke="midnightblue" d="M360.03,-120.66C374.09,-119.58 390.02,-118.36 405.39,-117.18"/>
<polygon fill="midnightblue" stroke="midnightblue" points="359.39,-117.2 349.69,-121.46 359.93,-124.18 359.39,-117.2"/>
</g>
<!-- Node2&#45;&gt;Node5 -->
<g id="edge26" class="edge">
<title>Node2&#45;&gt;Node5</title>
<path fill="none" stroke="midnightblue" d="M350.71,-110.83C366.26,-105.04 384.95,-98.36 402,-93 412.59,-89.67 424.18,-86.41 434.87,-83.55"/>
<polygon fill="midnightblue" stroke="midnightblue" points="349.13,-107.68 341,-114.48 351.59,-114.24 349.13,-107.68"/>
</g>
<!-- Node2&#45;&gt;Node7 -->
<g id="edge27" class="edge">
<title>Node2&#45;&gt;Node7</title>
<path fill="none" stroke="midnightblue" d="M359.77,-132.85C372.82,-135.52 387.5,-138.52 401.86,-141.45"/>
<polygon fill="midnightblue" stroke="midnightblue" points="360.19,-129.36 349.69,-130.79 358.79,-136.22 360.19,-129.36"/>
</g>
<!-- Node2&#45;&gt;Node9 -->
<g id="edge28" class="edge">
<title>Node2&#45;&gt;Node9</title>
<path fill="none" stroke="midnightblue" d="M358.55,-109.93C361.16,-108.43 363.68,-106.79 366,-105 387.69,-88.28 379.46,-70.55 402,-55 407.67,-51.09 414.11,-47.98 420.74,-45.51"/>
<polygon fill="midnightblue" stroke="midnightblue" points="356.76,-106.91 349.36,-114.49 359.87,-113.18 356.76,-106.91"/>
</g>
</g>
</svg>
