<?xml version="1.0" encoding="UTF-8" standalone="no"?>
<!DOCTYPE svg PUBLIC "-//W3C//DTD SVG 1.1//EN"
 "http://www.w3.org/Graphics/SVG/1.1/DTD/svg11.dtd">
<!-- Generated by graphviz version 2.40.1 (20161225.0304)
 -->
<!-- Title: Graphical Class Hierarchy Pages: 1 -->
<svg width="757pt" height="294pt"
 viewBox="0.00 0.00 757.00 294.00" xmlns="http://www.w3.org/2000/svg" xmlns:xlink="http://www.w3.org/1999/xlink">
<g id="graph0" class="graph" transform="scale(1 1) rotate(0) translate(4 290)">
<title>Graphical Class Hierarchy</title>
<polygon fill="#ffffff" stroke="transparent" points="-4,4 -4,-290 753,-290 753,4 -4,4"/>
<!-- Node85 -->
<g id="node1" class="node">
<title>Node85</title>
<g id="a_node1"><a xlink:href="classSignalIntegrity_1_1Lib_1_1SystemDescriptions_1_1Numeric_1_1Numeric.xhtml" target="_top" xlink:title="handles numeric details of derived class solutions ">
<polygon fill="#ffffff" stroke="#000000" points="322.5,-67.5 322.5,-86.5 375.5,-86.5 375.5,-67.5 322.5,-67.5"/>
<text text-anchor="middle" x="349" y="-74.5" font-family="Helvetica,sans-Serif" font-size="10.00" fill="#000000">Numeric</text>
</a>
</g>
</g>
<!-- Node3 -->
<g id="node2" class="node">
<title>Node3</title>
<g id="a_node2"><a xlink:href="classSignalIntegrity_1_1Lib_1_1SystemDescriptions_1_1DeembedderNumeric_1_1DeembedderNumeric.xhtml" target="_top" xlink:title="Performs numerical device deembedding. ">
<polygon fill="#ffffff" stroke="#000000" points="474.5,-114.5 474.5,-133.5 583.5,-133.5 583.5,-114.5 474.5,-114.5"/>
<text text-anchor="middle" x="529" y="-121.5" font-family="Helvetica,sans-Serif" font-size="10.00" fill="#000000">DeembedderNumeric</text>
</a>
</g>
</g>
<!-- Node85&#45;&gt;Node3 -->
<g id="edge1" class="edge">
<title>Node85&#45;&gt;Node3</title>
<path fill="none" stroke="#191970" d="M385.4074,-86.6836C405.8522,-92.1048 431.8368,-98.9671 455,-105 466.9372,-108.1091 479.9673,-111.4667 491.7209,-114.482"/>
<polygon fill="#191970" stroke="#191970" points="386.123,-83.2524 375.5597,-84.0703 384.3274,-90.0182 386.123,-83.2524"/>
</g>
<!-- Node6 -->
<g id="node3" class="node">
<title>Node6</title>
<g id="a_node3"><a xlink:href="classSignalIntegrity_1_1Lib_1_1SystemDescriptions_1_1SimulatorNumeric_1_1SimulatorNumeric.xhtml" target="_top" xlink:title="class for performing numeric simulations ">
<polygon fill="#ffffff" stroke="#000000" points="481.5,-76.5 481.5,-95.5 576.5,-95.5 576.5,-76.5 481.5,-76.5"/>
<text text-anchor="middle" x="529" y="-83.5" font-family="Helvetica,sans-Serif" font-size="10.00" fill="#000000">SimulatorNumeric</text>
</a>
</g>
</g>
<!-- Node85&#45;&gt;Node6 -->
<g id="edge2" class="edge">
<title>Node85&#45;&gt;Node6</title>
<path fill="none" stroke="#191970" d="M385.5906,-78.8295C413.208,-80.2104 451.3381,-82.1169 481.3391,-83.617"/>
<polygon fill="#191970" stroke="#191970" points="385.722,-75.3318 375.5596,-78.328 385.3723,-82.3231 385.722,-75.3318"/>
</g>
<!-- Node15 -->
<g id="node4" class="node">
<title>Node15</title>
<g id="a_node4"><a xlink:href="classSignalIntegrity_1_1Lib_1_1SystemDescriptions_1_1SystemSParametersNumeric_1_1SystemSParametersNumeric.xhtml" target="_top" xlink:title="Class for computing s&#45;parameters of interconnected systems. ">
<polygon fill="#ffffff" stroke="#000000" points="457,-.5 457,-19.5 601,-19.5 601,-.5 457,-.5"/>
<text text-anchor="middle" x="529" y="-7.5" font-family="Helvetica,sans-Serif" font-size="10.00" fill="#000000">SystemSParametersNumeric</text>
</a>
</g>
</g>
<!-- Node85&#45;&gt;Node15 -->
<g id="edge3" class="edge">
<title>Node85&#45;&gt;Node15</title>
<path fill="none" stroke="#191970" d="M380.5259,-63.5191C401.4877,-54.7272 429.7109,-43.2169 455,-34 468.9584,-28.9127 484.5841,-23.7661 497.867,-19.5505"/>
<polygon fill="#191970" stroke="#191970" points="379.0075,-60.3608 371.1535,-67.4717 381.7277,-66.8107 379.0075,-60.3608"/>
</g>
<!-- Node9 -->
<g id="node5" class="node">
<title>Node9</title>
<g id="a_node5"><a xlink:href="classSignalIntegrity_1_1Lib_1_1SystemDescriptions_1_1VirtualProbeNumeric_1_1VirtualProbeNumeric.xhtml" target="_top" xlink:title="class for performing virtual probing numerically. ">
<polygon fill="#ffffff" stroke="#000000" points="640.5,-114.5 640.5,-133.5 747.5,-133.5 747.5,-114.5 640.5,-114.5"/>
<text text-anchor="middle" x="694" y="-121.5" font-family="Helvetica,sans-Serif" font-size="10.00" fill="#000000">VirtualProbeNumeric</text>
</a>
</g>
</g>
<!-- Node85&#45;&gt;Node9 -->
<g id="edge4" class="edge">
<title>Node85&#45;&gt;Node9</title>
<path fill="none" stroke="#191970" d="M385.6568,-68.4737C435.8185,-58.3861 528.1587,-45.4958 603,-67 635.2507,-76.2666 667.1379,-100.682 683.2285,-114.3619"/>
<polygon fill="#191970" stroke="#191970" points="384.6881,-65.1004 375.6146,-70.5704 386.1188,-71.9527 384.6881,-65.1004"/>
</g>
<!-- Node46 -->
<g id="node6" class="node">
<title>Node46</title>
<g id="a_node6"><a xlink:href="classSignalIntegrity_1_1Lib_1_1SystemDescriptions_1_1Symbolic_1_1Symbolic.xhtml" target="_top" xlink:title="base class for all symbolic solutions. ">
<polygon fill="#ffffff" stroke="#000000" points="161,-247.5 161,-266.5 218,-266.5 218,-247.5 161,-247.5"/>
<text text-anchor="middle" x="189.5" y="-254.5" font-family="Helvetica,sans-Serif" font-size="10.00" fill="#000000">Symbolic</text>
</a>
</g>
</g>
<!-- Node4 -->
<g id="node7" class="node">
<title>Node4</title>
<g id="a_node7"><a xlink:href="classSignalIntegrity_1_1Lib_1_1SystemDescriptions_1_1DeembedderSymbolic_1_1DeembedderSymbolic.xhtml" target="_top" xlink:title="Produces symbolic solutions to deembedding problems. ">
<polygon fill="#ffffff" stroke="#000000" points="472.5,-228.5 472.5,-247.5 585.5,-247.5 585.5,-228.5 472.5,-228.5"/>
<text text-anchor="middle" x="529" y="-235.5" font-family="Helvetica,sans-Serif" font-size="10.00" fill="#000000">DeembedderSymbolic</text>
</a>
</g>
</g>
<!-- Node46&#45;&gt;Node4 -->
<g id="edge5" class="edge">
<title>Node46&#45;&gt;Node4</title>
<path fill="none" stroke="#191970" d="M228.3157,-254.8277C288.1775,-251.4775 403.3256,-245.0333 472.4519,-241.1647"/>
<polygon fill="#191970" stroke="#191970" points="227.9418,-251.343 218.153,-255.3964 228.333,-258.3321 227.9418,-251.343"/>
</g>
<!-- Node11 -->
<g id="node8" class="node">
<title>Node11</title>
<g id="a_node8"><a xlink:href="classSignalIntegrity_1_1Lib_1_1SystemDescriptions_1_1SystemDescriptionSymbolic_1_1SystemDescriptionSymbolic.xhtml" target="_top" xlink:title="Solves system descriptions in the most basic manner common to all of the simulation, system s&#45;parameters, deembedding and virtual probing applications. ">
<polygon fill="#ffffff" stroke="#000000" points="279,-266.5 279,-285.5 419,-285.5 419,-266.5 279,-266.5"/>
<text text-anchor="middle" x="349" y="-273.5" font-family="Helvetica,sans-Serif" font-size="10.00" fill="#000000">SystemDescriptionSymbolic</text>
</a>
</g>
</g>
<!-- Node46&#45;&gt;Node11 -->
<g id="edge6" class="edge">
<title>Node46&#45;&gt;Node11</title>
<path fill="none" stroke="#191970" d="M228.1198,-261.6005C243.4171,-263.4227 261.4943,-265.5761 278.9431,-267.6547"/>
<polygon fill="#191970" stroke="#191970" points="228.3592,-258.1043 218.0154,-260.3968 227.5312,-265.0552 228.3592,-258.1043"/>
</g>
<!-- Node12 -->
<g id="node9" class="node">
<title>Node12</title>
<g id="a_node9"><a xlink:href="classSignalIntegrity_1_1Lib_1_1SystemDescriptions_1_1SystemSParametersSymbolic_1_1SystemSParametersSymbolic.xhtml" target="_top" xlink:title="Class for solving symbolically the s&#45;parameters of interconnected systems. ">
<polygon fill="#ffffff" stroke="#000000" points="455,-266.5 455,-285.5 603,-285.5 603,-266.5 455,-266.5"/>
<text text-anchor="middle" x="529" y="-273.5" font-family="Helvetica,sans-Serif" font-size="10.00" fill="#000000">SystemSParametersSymbolic</text>
</a>
</g>
</g>
<!-- Node11&#45;&gt;Node12 -->
<g id="edge7" class="edge">
<title>Node11&#45;&gt;Node12</title>
<path fill="none" stroke="#191970" d="M429.1134,-276C437.7002,-276 446.4085,-276 454.9206,-276"/>
<polygon fill="#191970" stroke="#191970" points="429.1082,-272.5001 419.1081,-276 429.1081,-279.5001 429.1082,-272.5001"/>
</g>
<!-- Node13 -->
<g id="node10" class="node">
<title>Node13</title>
<g id="a_node10"><a xlink:href="classSignalIntegrity_1_1Lib_1_1SystemDescriptions_1_1SimulatorSymbolic_1_1SimulatorSymbolic.xhtml" target="_top" xlink:title="class for producing symbolic solutions to simulation problems. ">
<polygon fill="#ffffff" stroke="#000000" points="645,-247.5 645,-266.5 743,-266.5 743,-247.5 645,-247.5"/>
<text text-anchor="middle" x="694" y="-254.5" font-family="Helvetica,sans-Serif" font-size="10.00" fill="#000000">SimulatorSymbolic</text>
</a>
</g>
</g>
<!-- Node12&#45;&gt;Node13 -->
<g id="edge8" class="edge">
<title>Node12&#45;&gt;Node13</title>
<path fill="none" stroke="#191970" d="M613.5195,-266.2674C624.1945,-265.0382 634.8244,-263.8142 644.6936,-262.6777"/>
<polygon fill="#191970" stroke="#191970" points="612.8282,-262.8238 603.2943,-267.4449 613.6291,-269.7779 612.8282,-262.8238"/>
</g>
<!-- Node14 -->
<g id="node11" class="node">
<title>Node14</title>
<g id="a_node11"><a xlink:href="classSignalIntegrity_1_1Lib_1_1SystemDescriptions_1_1VirtualProbeSymbolic_1_1VirtualProbeSymbolic.xhtml" target="_top" xlink:title="Class that provides symbolic solutions to virtual probe problems. ">
<polygon fill="#ffffff" stroke="#000000" points="639,-190.5 639,-209.5 749,-209.5 749,-190.5 639,-190.5"/>
<text text-anchor="middle" x="694" y="-197.5" font-family="Helvetica,sans-Serif" font-size="10.00" fill="#000000">VirtualProbeSymbolic</text>
</a>
</g>
</g>
<!-- Node12&#45;&gt;Node14 -->
<g id="edge9" class="edge">
<title>Node12&#45;&gt;Node14</title>
<path fill="none" stroke="#191970" d="M585.1384,-263.5524C591.2577,-261.6174 597.3209,-259.4377 603,-257 618.6744,-250.2719 658.4405,-224.0358 679.845,-209.6201"/>
<polygon fill="#191970" stroke="#191970" points="584.1216,-260.2032 575.5232,-266.3934 586.1051,-266.9163 584.1216,-260.2032"/>
</g>
<!-- Node0 -->
<g id="node12" class="node">
<title>Node0</title>
<g id="a_node12"><a xlink:href="classSignalIntegrity_1_1Lib_1_1SystemDescriptions_1_1SystemDescription_1_1SystemDescription.xhtml" target="_top" xlink:title="Allows the construction of system descriptions for use with all of the classes that solve schematics ...">
<polygon fill="#ffffff" stroke="#000000" points="0,-171.5 0,-190.5 100,-190.5 100,-171.5 0,-171.5"/>
<text text-anchor="middle" x="50" y="-178.5" font-family="Helvetica,sans-Serif" font-size="10.00" fill="#000000">SystemDescription</text>
</a>
</g>
</g>
<!-- Node1 -->
<g id="node13" class="node">
<title>Node1</title>
<g id="a_node13"><a xlink:href="classSignalIntegrity_1_1Lib_1_1SystemDescriptions_1_1SystemSParameters_1_1SystemSParameters.xhtml" target="_top" xlink:title="base class for housekeeping involving system s&#45;parameters calculations ">
<polygon fill="#ffffff" stroke="#000000" points="136,-171.5 136,-190.5 243,-190.5 243,-171.5 136,-171.5"/>
<text text-anchor="middle" x="189.5" y="-178.5" font-family="Helvetica,sans-Serif" font-size="10.00" fill="#000000">SystemSParameters</text>
</a>
</g>
</g>
<!-- Node0&#45;&gt;Node1 -->
<g id="edge10" class="edge">
<title>Node0&#45;&gt;Node1</title>
<path fill="none" stroke="#191970" d="M110.5381,-181C118.9826,-181 127.6105,-181 135.9148,-181"/>
<polygon fill="#191970" stroke="#191970" points="110.3627,-177.5001 100.3627,-181 110.3627,-184.5001 110.3627,-177.5001"/>
</g>
<!-- Node1&#45;&gt;Node15 -->
<g id="edge21" class="edge">
<title>Node1&#45;&gt;Node15</title>
<path fill="none" stroke="#191970" d="M197.6774,-162.0618C210.6491,-134.4385 238.6714,-83.6068 279,-58 332.2599,-24.1825 403.8567,-13.1544 456.7801,-10.0154"/>
<polygon fill="#191970" stroke="#191970" points="194.3807,-160.8576 193.4485,-171.4114 200.7586,-163.7424 194.3807,-160.8576"/>
</g>
<!-- Node1&#45;&gt;Node11 -->
<g id="edge20" class="edge">
<title>Node1&#45;&gt;Node11</title>
<path fill="none" stroke="#191970" d="M214.2917,-195.7662C247.3145,-215.435 304.8122,-249.6812 332.7857,-266.3426"/>
<polygon fill="#191970" stroke="#191970" points="216.054,-192.7421 205.6715,-190.6319 212.472,-198.7562 216.054,-192.7421"/>
</g>
<!-- Node2 -->
<g id="node14" class="node">
<title>Node2</title>
<g id="a_node14"><a xlink:href="classSignalIntegrity_1_1Lib_1_1SystemDescriptions_1_1Deembedder_1_1Deembedder.xhtml" target="_top" xlink:title="housekeeping base class for deembedders ">
<polygon fill="#ffffff" stroke="#000000" points="313,-190.5 313,-209.5 385,-209.5 385,-190.5 313,-190.5"/>
<text text-anchor="middle" x="349" y="-197.5" font-family="Helvetica,sans-Serif" font-size="10.00" fill="#000000">Deembedder</text>
</a>
</g>
</g>
<!-- Node1&#45;&gt;Node2 -->
<g id="edge11" class="edge">
<title>Node1&#45;&gt;Node2</title>
<path fill="none" stroke="#191970" d="M253.1998,-188.5881C273.5134,-191.0079 295.2762,-193.6003 312.9175,-195.7018"/>
<polygon fill="#191970" stroke="#191970" points="253.3987,-185.0871 243.0549,-187.3796 252.5707,-192.038 253.3987,-185.0871"/>
</g>
<!-- Node5 -->
<g id="node15" class="node">
<title>Node5</title>
<g id="a_node15"><a xlink:href="classSignalIntegrity_1_1Lib_1_1SystemDescriptions_1_1Simulator_1_1Simulator.xhtml" target="_top" xlink:title="Base class for dealing with housekeeping for simulations. ">
<polygon fill="#ffffff" stroke="#000000" points="320,-152.5 320,-171.5 378,-171.5 378,-152.5 320,-152.5"/>
<text text-anchor="middle" x="349" y="-159.5" font-family="Helvetica,sans-Serif" font-size="10.00" fill="#000000">Simulator</text>
</a>
</g>
</g>
<!-- Node1&#45;&gt;Node5 -->
<g id="edge14" class="edge">
<title>Node1&#45;&gt;Node5</title>
<path fill="none" stroke="#191970" d="M253.1714,-173.4153C276.2975,-170.6605 301.3056,-167.6815 319.9741,-165.4576"/>
<polygon fill="#191970" stroke="#191970" points="252.5707,-169.962 243.0549,-174.6204 253.3987,-176.9129 252.5707,-169.962"/>
</g>
<!-- Node2&#45;&gt;Node3 -->
<g id="edge12" class="edge">
<title>Node2&#45;&gt;Node3</title>
<path fill="none" stroke="#191970" d="M394.8115,-191.4499C403.1963,-188.8211 411.6195,-185.4113 419,-181 438.9693,-169.0642 434.9493,-154.7985 455,-143 461.6303,-139.0985 469.0548,-135.9895 476.5731,-133.5143"/>
<polygon fill="#191970" stroke="#191970" points="393.7327,-188.1173 385.051,-194.1902 395.6249,-194.8568 393.7327,-188.1173"/>
</g>
<!-- Node2&#45;&gt;Node4 -->
<g id="edge13" class="edge">
<title>Node2&#45;&gt;Node4</title>
<path fill="none" stroke="#191970" d="M395.4611,-209.8085C422.6122,-215.5403 456.7277,-222.7425 483.6801,-228.4325"/>
<polygon fill="#191970" stroke="#191970" points="395.933,-206.331 385.4257,-207.6899 394.487,-213.18 395.933,-206.331"/>
</g>
<!-- Node5&#45;&gt;Node6 -->
<g id="edge15" class="edge">
<title>Node5&#45;&gt;Node6</title>
<path fill="none" stroke="#191970" d="M372.4386,-147.2527C393.4093,-134.587 425.3305,-116.5881 455,-105 464.3898,-101.3326 474.7264,-98.1682 484.62,-95.5313"/>
<polygon fill="#191970" stroke="#191970" points="370.5911,-144.2799 363.891,-152.4872 374.2468,-150.2495 370.5911,-144.2799"/>
</g>
<!-- Node5&#45;&gt;Node13 -->
<g id="edge16" class="edge">
<title>Node5&#45;&gt;Node13</title>
<path fill="none" stroke="#191970" d="M388.1333,-168.5833C438.5044,-177.5549 528.4194,-195.2608 603,-219 627.9608,-226.9451 655.5902,-238.9666 673.7826,-247.3541"/>
<polygon fill="#191970" stroke="#191970" points="388.4597,-165.087 378.0046,-166.8024 387.2474,-171.9813 388.4597,-165.087"/>
</g>
<!-- Node8 -->
<g id="node16" class="node">
<title>Node8</title>
<g id="a_node16"><a xlink:href="classSignalIntegrity_1_1Lib_1_1SystemDescriptions_1_1VirtualProbe_1_1VirtualProbe.xhtml" target="_top" xlink:title="Base class for virtual probing. ">
<polygon fill="#ffffff" stroke="#000000" points="494,-152.5 494,-171.5 564,-171.5 564,-152.5 494,-152.5"/>
<text text-anchor="middle" x="529" y="-159.5" font-family="Helvetica,sans-Serif" font-size="10.00" fill="#000000">VirtualProbe</text>
</a>
</g>
</g>
<!-- Node5&#45;&gt;Node8 -->
<g id="edge17" class="edge">
<title>Node5&#45;&gt;Node8</title>
<path fill="none" stroke="#191970" d="M388.483,-162C419.9335,-162 463.5571,-162 493.8209,-162"/>
<polygon fill="#191970" stroke="#191970" points="388.3208,-158.5001 378.3207,-162 388.3207,-165.5001 388.3208,-158.5001"/>
</g>
<!-- Node8&#45;&gt;Node9 -->
<g id="edge18" class="edge">
<title>Node8&#45;&gt;Node9</title>
<path fill="none" stroke="#191970" d="M574.1654,-151.5983C598.6389,-145.9619 628.6674,-139.0463 652.5424,-133.5478"/>
<polygon fill="#191970" stroke="#191970" points="573.356,-148.193 564.3966,-153.848 574.9271,-155.0144 573.356,-148.193"/>
</g>
<!-- Node8&#45;&gt;Node14 -->
<g id="edge19" class="edge">
<title>Node8&#45;&gt;Node14</title>
<path fill="none" stroke="#191970" d="M574.1654,-172.4017C598.6389,-178.0381 628.6674,-184.9537 652.5424,-190.4522"/>
<polygon fill="#191970" stroke="#191970" points="574.9271,-168.9856 564.3966,-170.152 573.356,-175.807 574.9271,-168.9856"/>
</g>
</g>
</svg>
