<?xml version="1.0" encoding="UTF-8" standalone="no"?>
<!DOCTYPE svg PUBLIC "-//W3C//DTD SVG 1.1//EN"
 "http://www.w3.org/Graphics/SVG/1.1/DTD/svg11.dtd">
<!-- Generated by graphviz version 2.43.0 (0)
 -->
<!-- Title: Graphical Class Hierarchy Pages: 1 -->
<svg width="409pt" height="294pt"
 viewBox="0.00 0.00 409.00 294.00" xmlns="http://www.w3.org/2000/svg" xmlns:xlink="http://www.w3.org/1999/xlink">
<g id="graph0" class="graph" transform="scale(1 1) rotate(0) translate(4 290)">
<title>Graphical Class Hierarchy</title>
<polygon fill="white" stroke="transparent" points="-4,4 -4,-290 405,-290 405,4 -4,4"/>
<!-- Node0 -->
<g id="node1" class="node">
<title>Node0</title>
<g id="a_node1"><a xlink:href="classSignalIntegrity_1_1Lib_1_1TimeDomain_1_1Waveform_1_1Waveform_1_1Waveform.xhtml" target="_top" xlink:title="base class for all waveforms">
<polygon fill="white" stroke="black" points="0,-133.5 0,-152.5 61,-152.5 61,-133.5 0,-133.5"/>
<text text-anchor="middle" x="30.5" y="-140.5" font-family="Helvetica,sans-Serif" font-size="10.00">Waveform</text>
</a>
</g>
</g>
<!-- Node1 -->
<g id="node2" class="node">
<title>Node1</title>
<g id="a_node2"><a xlink:href="classSignalIntegrity_1_1Lib_1_1ImpedanceProfile_1_1ImpedanceProfileWaveform_1_1ImpedanceProfileWaveform.xhtml" target="_top" xlink:title="Computes the impedance profile waveform from a set of s&#45;parameters using the port specified.">
<polygon fill="white" stroke="black" points="97,-266.5 97,-285.5 234,-285.5 234,-266.5 97,-266.5"/>
<text text-anchor="middle" x="165.5" y="-273.5" font-family="Helvetica,sans-Serif" font-size="10.00">ImpedanceProfileWaveform</text>
</a>
</g>
</g>
<!-- Node0&#45;&gt;Node1 -->
<g id="edge1" class="edge">
<title>Node0&#45;&gt;Node1</title>
<path fill="none" stroke="midnightblue" d="M37.43,-162.26C46.26,-187.75 65.33,-232.33 97,-257 101.99,-260.89 107.74,-263.98 113.74,-266.44"/>
<polygon fill="midnightblue" stroke="midnightblue" points="40.71,-161.03 34.26,-152.62 34.05,-163.21 40.71,-161.03"/>
</g>
<!-- Node2 -->
<g id="node3" class="node">
<title>Node2</title>
<g id="a_node3"><a xlink:href="classSignalIntegrity_1_1Lib_1_1Prbs_1_1MultiLevelWaveform_1_1MultiLevelWaveform.xhtml" target="_top" xlink:title="a PRBS multi&#45;level waveform with a given PRBS polynomial">
<polygon fill="white" stroke="black" points="113,-228.5 113,-247.5 218,-247.5 218,-228.5 113,-228.5"/>
<text text-anchor="middle" x="165.5" y="-235.5" font-family="Helvetica,sans-Serif" font-size="10.00">MultiLevelWaveform</text>
</a>
</g>
</g>
<!-- Node0&#45;&gt;Node2 -->
<g id="edge2" class="edge">
<title>Node0&#45;&gt;Node2</title>
<path fill="none" stroke="midnightblue" d="M42.6,-161.18C54.12,-178.53 73.69,-204.16 97,-219 103.06,-222.86 109.91,-225.95 116.87,-228.42"/>
<polygon fill="midnightblue" stroke="midnightblue" points="45.4,-159.05 37.06,-152.52 39.5,-162.83 45.4,-159.05"/>
</g>
<!-- Node3 -->
<g id="node4" class="node">
<title>Node3</title>
<g id="a_node4"><a xlink:href="classSignalIntegrity_1_1Lib_1_1Prbs_1_1SerialDataWaveform_1_1SerialDataWaveform.xhtml" target="_top" xlink:title="a serial data NRZ waveform">
<polygon fill="white" stroke="black" points="112,-190.5 112,-209.5 219,-209.5 219,-190.5 112,-190.5"/>
<text text-anchor="middle" x="165.5" y="-197.5" font-family="Helvetica,sans-Serif" font-size="10.00">SerialDataWaveform</text>
</a>
</g>
</g>
<!-- Node0&#45;&gt;Node3 -->
<g id="edge3" class="edge">
<title>Node0&#45;&gt;Node3</title>
<path fill="none" stroke="midnightblue" d="M54.19,-158.07C66.48,-165.73 82.14,-174.72 97,-181 105.63,-184.65 115.18,-187.82 124.31,-190.48"/>
<polygon fill="midnightblue" stroke="midnightblue" points="55.84,-154.97 45.53,-152.54 52.07,-160.87 55.84,-154.97"/>
</g>
<!-- Node6 -->
<g id="node7" class="node">
<title>Node6</title>
<g id="a_node7"><a xlink:href="classSignalIntegrity_1_1Lib_1_1TimeDomain_1_1Waveform_1_1ImpulseResponse_1_1ImpulseResponse.xhtml" target="_top" xlink:title="impulse response of a filter as a waveform">
<polygon fill="white" stroke="black" points="118,-152.5 118,-171.5 213,-171.5 213,-152.5 118,-152.5"/>
<text text-anchor="middle" x="165.5" y="-159.5" font-family="Helvetica,sans-Serif" font-size="10.00">ImpulseResponse</text>
</a>
</g>
</g>
<!-- Node0&#45;&gt;Node6 -->
<g id="edge6" class="edge">
<title>Node0&#45;&gt;Node6</title>
<path fill="none" stroke="midnightblue" d="M71.26,-148.68C85.91,-150.77 102.63,-153.16 117.83,-155.33"/>
<polygon fill="midnightblue" stroke="midnightblue" points="71.41,-145.17 61.02,-147.22 70.42,-152.1 71.41,-145.17"/>
</g>
<!-- Node7 -->
<g id="node8" class="node">
<title>Node7</title>
<g id="a_node8"><a xlink:href="classSignalIntegrity_1_1Lib_1_1TimeDomain_1_1Waveform_1_1NoiseWaveform_1_1NoiseWaveform.xhtml" target="_top" xlink:title="noise waveform">
<polygon fill="white" stroke="black" points="122.5,-114.5 122.5,-133.5 208.5,-133.5 208.5,-114.5 122.5,-114.5"/>
<text text-anchor="middle" x="165.5" y="-121.5" font-family="Helvetica,sans-Serif" font-size="10.00">NoiseWaveform</text>
</a>
</g>
</g>
<!-- Node0&#45;&gt;Node7 -->
<g id="edge7" class="edge">
<title>Node0&#45;&gt;Node7</title>
<path fill="none" stroke="midnightblue" d="M71.22,-137.33C87.38,-135.02 106.06,-132.35 122.45,-130.01"/>
<polygon fill="midnightblue" stroke="midnightblue" points="70.42,-133.9 61.02,-138.78 71.41,-140.83 70.42,-133.9"/>
</g>
<!-- Node8 -->
<g id="node9" class="node">
<title>Node8</title>
<g id="a_node9"><a xlink:href="classSignalIntegrity_1_1Lib_1_1TimeDomain_1_1Waveform_1_1PulseWaveform_1_1PulseWaveform.xhtml" target="_top" xlink:title="pulse waveform">
<polygon fill="white" stroke="black" points="122.5,-76.5 122.5,-95.5 208.5,-95.5 208.5,-76.5 122.5,-76.5"/>
<text text-anchor="middle" x="165.5" y="-83.5" font-family="Helvetica,sans-Serif" font-size="10.00">PulseWaveform</text>
</a>
</g>
</g>
<!-- Node0&#45;&gt;Node8 -->
<g id="edge8" class="edge">
<title>Node0&#45;&gt;Node8</title>
<path fill="none" stroke="midnightblue" d="M54.19,-127.93C66.48,-120.27 82.14,-111.28 97,-105 105.63,-101.35 115.18,-98.18 124.31,-95.52"/>
<polygon fill="midnightblue" stroke="midnightblue" points="52.07,-125.13 45.53,-133.46 55.84,-131.03 52.07,-125.13"/>
</g>
<!-- Node9 -->
<g id="node10" class="node">
<title>Node9</title>
<g id="a_node10"><a xlink:href="classSignalIntegrity_1_1Lib_1_1TimeDomain_1_1Waveform_1_1SineWaveform_1_1SineWaveform.xhtml" target="_top" xlink:title="sinewave waveform">
<polygon fill="white" stroke="black" points="125.5,-38.5 125.5,-57.5 205.5,-57.5 205.5,-38.5 125.5,-38.5"/>
<text text-anchor="middle" x="165.5" y="-45.5" font-family="Helvetica,sans-Serif" font-size="10.00">SineWaveform</text>
</a>
</g>
</g>
<!-- Node0&#45;&gt;Node9 -->
<g id="edge9" class="edge">
<title>Node0&#45;&gt;Node9</title>
<path fill="none" stroke="midnightblue" d="M42.6,-124.82C54.12,-107.47 73.69,-81.84 97,-67 105.52,-61.57 115.62,-57.67 125.36,-54.87"/>
<polygon fill="midnightblue" stroke="midnightblue" points="39.5,-123.17 37.06,-133.48 45.4,-126.95 39.5,-123.17"/>
</g>
<!-- Node10 -->
<g id="node11" class="node">
<title>Node10</title>
<g id="a_node11"><a xlink:href="classSignalIntegrity_1_1Lib_1_1TimeDomain_1_1Waveform_1_1StepWaveform_1_1StepWaveform.xhtml" target="_top" xlink:title="step waveform">
<polygon fill="white" stroke="black" points="125,-0.5 125,-19.5 206,-19.5 206,-0.5 125,-0.5"/>
<text text-anchor="middle" x="165.5" y="-7.5" font-family="Helvetica,sans-Serif" font-size="10.00">StepWaveform</text>
</a>
</g>
</g>
<!-- Node0&#45;&gt;Node10 -->
<g id="edge10" class="edge">
<title>Node0&#45;&gt;Node10</title>
<path fill="none" stroke="midnightblue" d="M37.43,-123.74C46.26,-98.25 65.33,-53.67 97,-29 105.07,-22.72 115.11,-18.51 124.96,-15.69"/>
<polygon fill="midnightblue" stroke="midnightblue" points="34.05,-122.79 34.26,-133.38 40.71,-124.97 34.05,-122.79"/>
</g>
<!-- Node4 -->
<g id="node5" class="node">
<title>Node4</title>
<g id="a_node5"><a xlink:href="classSignalIntegrity_1_1Lib_1_1Prbs_1_1ClockWaveform_1_1ClockWaveform.xhtml" target="_top" xlink:title="a clock waveform">
<polygon fill="white" stroke="black" points="292.5,-209.5 292.5,-228.5 378.5,-228.5 378.5,-209.5 292.5,-209.5"/>
<text text-anchor="middle" x="335.5" y="-216.5" font-family="Helvetica,sans-Serif" font-size="10.00">ClockWaveform</text>
</a>
</g>
</g>
<!-- Node3&#45;&gt;Node4 -->
<g id="edge4" class="edge">
<title>Node3&#45;&gt;Node4</title>
<path fill="none" stroke="midnightblue" d="M229.34,-207.11C250.38,-209.49 273.31,-212.08 292.37,-214.24"/>
<polygon fill="midnightblue" stroke="midnightblue" points="229.53,-203.61 219.2,-205.96 228.74,-210.56 229.53,-203.61"/>
</g>
<!-- Node5 -->
<g id="node6" class="node">
<title>Node5</title>
<g id="a_node6"><a xlink:href="classSignalIntegrity_1_1Lib_1_1Prbs_1_1PseudoRandomWaveform_1_1PseudoRandomWaveform.xhtml" target="_top" xlink:title="a PRBS waveform with a given PRBS polynomial">
<polygon fill="white" stroke="black" points="270,-171.5 270,-190.5 401,-190.5 401,-171.5 270,-171.5"/>
<text text-anchor="middle" x="335.5" y="-178.5" font-family="Helvetica,sans-Serif" font-size="10.00">PseudoRandomWaveform</text>
</a>
</g>
</g>
<!-- Node3&#45;&gt;Node5 -->
<g id="edge5" class="edge">
<title>Node3&#45;&gt;Node5</title>
<path fill="none" stroke="midnightblue" d="M229.18,-192.91C242.47,-191.41 256.52,-189.82 269.88,-188.31"/>
<polygon fill="midnightblue" stroke="midnightblue" points="228.74,-189.44 219.2,-194.04 229.53,-196.39 228.74,-189.44"/>
</g>
</g>
</svg>
