<?xml version="1.0" encoding="UTF-8" standalone="no"?>
<!DOCTYPE svg PUBLIC "-//W3C//DTD SVG 1.1//EN"
 "http://www.w3.org/Graphics/SVG/1.1/DTD/svg11.dtd">
<!-- Generated by graphviz version 2.43.0 (0)
 -->
<!-- Title: Graphical Class Hierarchy Pages: 1 -->
<svg width="710pt" height="1092pt"
 viewBox="0.00 0.00 710.00 1092.00" xmlns="http://www.w3.org/2000/svg" xmlns:xlink="http://www.w3.org/1999/xlink">
<g id="graph0" class="graph" transform="scale(1 1) rotate(0) translate(4 1088)">
<title>Graphical Class Hierarchy</title>
<polygon fill="white" stroke="transparent" points="-4,4 -4,-1088 706,-1088 706,4 -4,4"/>
<!-- Node55 -->
<g id="node1" class="node">
<title>Node55</title>
<g id="a_node1"><a xlink:href="classSignalIntegrity_1_1Lib_1_1SParameters_1_1SParameterManipulation_1_1SParameterManipulation.xhtml" target="_top" xlink:title="Class for manipulations on s&#45;parameters involving passivity, causality, etc.">
<polygon fill="white" stroke="black" points="0,-532.5 0,-551.5 137,-551.5 137,-532.5 0,-532.5"/>
<text text-anchor="middle" x="68.5" y="-539.5" font-family="Helvetica,sans-Serif" font-size="10.00">SParameterManipulation</text>
</a>
</g>
</g>
<!-- Node56 -->
<g id="node2" class="node">
<title>Node56</title>
<g id="a_node2"><a xlink:href="classSignalIntegrity_1_1Lib_1_1SParameters_1_1SParameters_1_1SParameters.xhtml" target="_top" xlink:title="Class containing s&#45;parameters.">
<polygon fill="white" stroke="black" points="198,-532.5 198,-551.5 277,-551.5 277,-532.5 198,-532.5"/>
<text text-anchor="middle" x="237.5" y="-539.5" font-family="Helvetica,sans-Serif" font-size="10.00">SParameters</text>
</a>
</g>
</g>
<!-- Node55&#45;&gt;Node56 -->
<g id="edge1" class="edge">
<title>Node55&#45;&gt;Node56</title>
<path fill="none" stroke="midnightblue" d="M147.64,-542C165.09,-542 182.86,-542 197.87,-542"/>
<polygon fill="midnightblue" stroke="midnightblue" points="147.43,-538.5 137.43,-542 147.43,-545.5 147.43,-538.5"/>
</g>
<!-- Node57 -->
<g id="node3" class="node">
<title>Node57</title>
<g id="a_node3"><a xlink:href="classSignalIntegrity_1_1Lib_1_1ImpedanceProfile_1_1PeeledLaunches_1_1PeeledLaunches.xhtml" target="_top" xlink:title="S&#45;parameters with launches peeled from them.">
<polygon fill="white" stroke="black" points="384.5,-760.5 384.5,-779.5 479.5,-779.5 479.5,-760.5 384.5,-760.5"/>
<text text-anchor="middle" x="432" y="-767.5" font-family="Helvetica,sans-Serif" font-size="10.00">PeeledLaunches</text>
</a>
</g>
</g>
<!-- Node56&#45;&gt;Node57 -->
<g id="edge2" class="edge">
<title>Node56&#45;&gt;Node57</title>
<path fill="none" stroke="midnightblue" d="M241.88,-561.86C250.12,-603.89 275.38,-702 338,-751 351.11,-761.26 368.35,-766.38 384.42,-768.82"/>
<polygon fill="midnightblue" stroke="midnightblue" points="245.28,-561 240.02,-551.8 238.39,-562.26 245.28,-561"/>
</g>
<!-- Node58 -->
<g id="node4" class="node">
<title>Node58</title>
<g id="a_node4"><a xlink:href="classSignalIntegrity_1_1Lib_1_1ImpedanceProfile_1_1PeeledPortSParameters_1_1PeeledPortSParameters.xhtml" target="_top" xlink:title="s&#45;parameters of peeled impedance profile from port calculates the impedance profile looking into a po...">
<polygon fill="white" stroke="black" points="366.5,-722.5 366.5,-741.5 497.5,-741.5 497.5,-722.5 366.5,-722.5"/>
<text text-anchor="middle" x="432" y="-729.5" font-family="Helvetica,sans-Serif" font-size="10.00">PeeledPortSParameters</text>
</a>
</g>
</g>
<!-- Node56&#45;&gt;Node58 -->
<g id="edge3" class="edge">
<title>Node56&#45;&gt;Node58</title>
<path fill="none" stroke="midnightblue" d="M243.98,-561.44C255.21,-597.48 284.39,-674.51 338,-713 346.3,-718.96 356.03,-723.15 366.02,-726.07"/>
<polygon fill="midnightblue" stroke="midnightblue" points="247.28,-560.24 241.07,-551.65 240.57,-562.24 247.28,-560.24"/>
</g>
<!-- Node59 -->
<g id="node5" class="node">
<title>Node59</title>
<g id="a_node5"><a xlink:href="classSignalIntegrity_1_1Lib_1_1Measurement_1_1Calibration_1_1NetworkAnalyzer_1_1NetworkAnalyzer.xhtml" target="_top" xlink:title="produces calibrated or uncalibrated s&#45;parameters from a network analyzer.">
<polygon fill="white" stroke="black" points="381.5,-684.5 381.5,-703.5 482.5,-703.5 482.5,-684.5 381.5,-684.5"/>
<text text-anchor="middle" x="432" y="-691.5" font-family="Helvetica,sans-Serif" font-size="10.00">NetworkAnalyzer</text>
</a>
</g>
</g>
<!-- Node56&#45;&gt;Node59 -->
<g id="edge4" class="edge">
<title>Node56&#45;&gt;Node59</title>
<path fill="none" stroke="midnightblue" d="M246.99,-560.77C261.3,-590.14 293.12,-646.55 338,-675 350.8,-683.12 366.42,-687.85 381.17,-690.59"/>
<polygon fill="midnightblue" stroke="midnightblue" points="250.09,-559.15 242.66,-551.6 243.76,-562.14 250.09,-559.15"/>
</g>
<!-- Node60 -->
<g id="node6" class="node">
<title>Node60</title>
<g id="a_node6"><a xlink:href="classSignalIntegrity_1_1Lib_1_1Measurement_1_1CalKit_1_1Standards_1_1LoadStandard_1_1LoadStandard.xhtml" target="_top" xlink:title="Class providing the s&#45;parameters of a load standard as commonly defined for a calibration kit.">
<polygon fill="white" stroke="black" points="390.5,-646.5 390.5,-665.5 473.5,-665.5 473.5,-646.5 390.5,-646.5"/>
<text text-anchor="middle" x="432" y="-653.5" font-family="Helvetica,sans-Serif" font-size="10.00">LoadStandard</text>
</a>
</g>
</g>
<!-- Node56&#45;&gt;Node60 -->
<g id="edge5" class="edge">
<title>Node56&#45;&gt;Node60</title>
<path fill="none" stroke="midnightblue" d="M251.77,-559.72C269.1,-581.51 301.54,-617.93 338,-637 354.06,-645.4 373.49,-650.09 390.43,-652.71"/>
<polygon fill="midnightblue" stroke="midnightblue" points="254.39,-557.39 245.5,-551.63 248.86,-561.68 254.39,-557.39"/>
</g>
<!-- Node61 -->
<g id="node7" class="node">
<title>Node61</title>
<g id="a_node7"><a xlink:href="classSignalIntegrity_1_1Lib_1_1Measurement_1_1CalKit_1_1Standards_1_1Offset_1_1Offset.xhtml" target="_top" xlink:title="class providing the s&#45;parameters of an offset portion of the various calibration standards for a cali...">
<polygon fill="white" stroke="black" points="408.5,-608.5 408.5,-627.5 455.5,-627.5 455.5,-608.5 408.5,-608.5"/>
<text text-anchor="middle" x="432" y="-615.5" font-family="Helvetica,sans-Serif" font-size="10.00">Offset</text>
</a>
</g>
</g>
<!-- Node56&#45;&gt;Node61 -->
<g id="edge6" class="edge">
<title>Node56&#45;&gt;Node61</title>
<path fill="none" stroke="midnightblue" d="M260.43,-557.3C279.94,-570.24 309.7,-588.32 338,-599 361.13,-607.73 389.08,-612.75 408.27,-615.41"/>
<polygon fill="midnightblue" stroke="midnightblue" points="262.22,-554.29 251.97,-551.6 258.3,-560.09 262.22,-554.29"/>
</g>
<!-- Node63 -->
<g id="node9" class="node">
<title>Node63</title>
<g id="a_node9"><a xlink:href="classSignalIntegrity_1_1Lib_1_1Measurement_1_1CalKit_1_1Standards_1_1OpenStandard_1_1OpenStandard.xhtml" target="_top" xlink:title="class providing the s&#45;parameters of an open standard as commonly defined for a calibration kit.">
<polygon fill="white" stroke="black" points="389,-570.5 389,-589.5 475,-589.5 475,-570.5 389,-570.5"/>
<text text-anchor="middle" x="432" y="-577.5" font-family="Helvetica,sans-Serif" font-size="10.00">OpenStandard</text>
</a>
</g>
</g>
<!-- Node56&#45;&gt;Node63 -->
<g id="edge8" class="edge">
<title>Node56&#45;&gt;Node63</title>
<path fill="none" stroke="midnightblue" d="M287.28,-551.63C318.59,-557.81 358.83,-565.75 388.76,-571.66"/>
<polygon fill="midnightblue" stroke="midnightblue" points="287.94,-548.19 277.46,-549.69 286.59,-555.06 287.94,-548.19"/>
</g>
<!-- Node64 -->
<g id="node10" class="node">
<title>Node64</title>
<g id="a_node10"><a xlink:href="classSignalIntegrity_1_1Lib_1_1Measurement_1_1CalKit_1_1Standards_1_1ShortStandard_1_1ShortStandard.xhtml" target="_top" xlink:title="Class providing the s&#45;parameters of a short standard as commonly defined for a calibration kit.">
<polygon fill="white" stroke="black" points="389,-532.5 389,-551.5 475,-551.5 475,-532.5 389,-532.5"/>
<text text-anchor="middle" x="432" y="-539.5" font-family="Helvetica,sans-Serif" font-size="10.00">ShortStandard</text>
</a>
</g>
</g>
<!-- Node56&#45;&gt;Node64 -->
<g id="edge9" class="edge">
<title>Node56&#45;&gt;Node64</title>
<path fill="none" stroke="midnightblue" d="M287.69,-542C318.93,-542 358.96,-542 388.76,-542"/>
<polygon fill="midnightblue" stroke="midnightblue" points="287.46,-538.5 277.46,-542 287.46,-545.5 287.46,-538.5"/>
</g>
<!-- Node1 -->
<g id="node11" class="node">
<title>Node1</title>
<g id="a_node11"><a xlink:href="classSignalIntegrity_1_1Lib_1_1Measurement_1_1CalKit_1_1Standards_1_1TerminationPolynomial_1_1TerminationCPolynomial.xhtml" target="_top" xlink:title="Class for capacitive terminations for open calibration standards.">
<polygon fill="white" stroke="black" points="364,-1026.5 364,-1045.5 500,-1045.5 500,-1026.5 364,-1026.5"/>
<text text-anchor="middle" x="432" y="-1033.5" font-family="Helvetica,sans-Serif" font-size="10.00">TerminationCPolynomial</text>
</a>
</g>
</g>
<!-- Node56&#45;&gt;Node1 -->
<g id="edge10" class="edge">
<title>Node56&#45;&gt;Node1</title>
<path fill="none" stroke="midnightblue" d="M239.82,-561.86C245.66,-643.38 271.82,-951.15 338,-1017 345.13,-1024.09 354.14,-1028.88 363.73,-1032.06"/>
<polygon fill="midnightblue" stroke="midnightblue" points="243.29,-561.26 239.11,-551.53 236.31,-561.74 243.29,-561.26"/>
</g>
<!-- Node2 -->
<g id="node12" class="node">
<title>Node2</title>
<g id="a_node12"><a xlink:href="classSignalIntegrity_1_1Lib_1_1Measurement_1_1CalKit_1_1Standards_1_1TerminationPolynomial_1_1TerminationLPolynomial.xhtml" target="_top" xlink:title="Class for inductive terminations for short calibration standards.">
<polygon fill="white" stroke="black" points="365,-1064.5 365,-1083.5 499,-1083.5 499,-1064.5 365,-1064.5"/>
<text text-anchor="middle" x="432" y="-1071.5" font-family="Helvetica,sans-Serif" font-size="10.00">TerminationLPolynomial</text>
</a>
</g>
</g>
<!-- Node56&#45;&gt;Node2 -->
<g id="edge11" class="edge">
<title>Node56&#45;&gt;Node2</title>
<path fill="none" stroke="midnightblue" d="M239.5,-562.07C244.2,-647.92 266.91,-983.19 338,-1055 345.3,-1062.38 354.65,-1067.27 364.58,-1070.47"/>
<polygon fill="midnightblue" stroke="midnightblue" points="242.98,-561.66 238.96,-551.86 235.99,-562.03 242.98,-561.66"/>
</g>
<!-- Node65 -->
<g id="node13" class="node">
<title>Node65</title>
<g id="a_node13"><a xlink:href="classSignalIntegrity_1_1Lib_1_1SParameters_1_1Devices_1_1ClassicalFilter_1_1ClassicalFilter.xhtml" target="_top" xlink:title="Classical filter.">
<polygon fill="white" stroke="black" points="390,-494.5 390,-513.5 474,-513.5 474,-494.5 390,-494.5"/>
<text text-anchor="middle" x="432" y="-501.5" font-family="Helvetica,sans-Serif" font-size="10.00">ClassicalFilter</text>
</a>
</g>
</g>
<!-- Node56&#45;&gt;Node65 -->
<g id="edge12" class="edge">
<title>Node56&#45;&gt;Node65</title>
<path fill="none" stroke="midnightblue" d="M287.38,-532.35C319.03,-526.1 359.77,-518.06 389.77,-512.14"/>
<polygon fill="midnightblue" stroke="midnightblue" points="286.59,-528.94 277.46,-534.31 287.94,-535.81 286.59,-528.94"/>
</g>
<!-- Node68 -->
<g id="node16" class="node">
<title>Node68</title>
<g id="a_node16"><a xlink:href="classSignalIntegrity_1_1Lib_1_1SParameters_1_1Devices_1_1Equalizer_1_1CTLE.xhtml" target="_top" xlink:title="Continuous time linear equalizer.">
<polygon fill="white" stroke="black" points="411.5,-456.5 411.5,-475.5 452.5,-475.5 452.5,-456.5 411.5,-456.5"/>
<text text-anchor="middle" x="432" y="-463.5" font-family="Helvetica,sans-Serif" font-size="10.00">CTLE</text>
</a>
</g>
</g>
<!-- Node56&#45;&gt;Node68 -->
<g id="edge15" class="edge">
<title>Node56&#45;&gt;Node68</title>
<path fill="none" stroke="midnightblue" d="M260.43,-526.7C279.94,-513.76 309.7,-495.68 338,-485 362.36,-475.81 392.08,-470.72 411.26,-468.18"/>
<polygon fill="midnightblue" stroke="midnightblue" points="258.3,-523.91 251.97,-532.4 262.22,-529.71 258.3,-523.91"/>
</g>
<!-- Node69 -->
<g id="node17" class="node">
<title>Node69</title>
<g id="a_node17"><a xlink:href="classSignalIntegrity_1_1Lib_1_1SParameters_1_1Devices_1_1Equalizer_1_1FFE.xhtml" target="_top" xlink:title="Linear feed&#45;forward equalizer.">
<polygon fill="white" stroke="black" points="414.5,-418.5 414.5,-437.5 449.5,-437.5 449.5,-418.5 414.5,-418.5"/>
<text text-anchor="middle" x="432" y="-425.5" font-family="Helvetica,sans-Serif" font-size="10.00">FFE</text>
</a>
</g>
</g>
<!-- Node56&#45;&gt;Node69 -->
<g id="edge16" class="edge">
<title>Node56&#45;&gt;Node69</title>
<path fill="none" stroke="midnightblue" d="M251.77,-524.28C269.1,-502.49 301.54,-466.07 338,-447 362.53,-434.17 394.92,-430 414.28,-428.64"/>
<polygon fill="midnightblue" stroke="midnightblue" points="248.86,-522.32 245.5,-532.37 254.39,-526.61 248.86,-522.32"/>
</g>
<!-- Node70 -->
<g id="node18" class="node">
<title>Node70</title>
<g id="a_node18"><a xlink:href="classSignalIntegrity_1_1Lib_1_1SParameters_1_1Devices_1_1MixedModeTline_1_1MixedModeTLine.xhtml" target="_top" xlink:title="s&#45;parameters of a mixed&#45;mode, balanced transmission line">
<polygon fill="white" stroke="black" points="382,-380.5 382,-399.5 482,-399.5 482,-380.5 382,-380.5"/>
<text text-anchor="middle" x="432" y="-387.5" font-family="Helvetica,sans-Serif" font-size="10.00">MixedModeTLine</text>
</a>
</g>
</g>
<!-- Node56&#45;&gt;Node70 -->
<g id="edge17" class="edge">
<title>Node56&#45;&gt;Node70</title>
<path fill="none" stroke="midnightblue" d="M246.99,-523.23C261.3,-493.86 293.12,-437.45 338,-409 350.94,-400.79 366.76,-396.04 381.65,-393.32"/>
<polygon fill="midnightblue" stroke="midnightblue" points="243.76,-521.86 242.66,-532.4 250.09,-524.85 243.76,-521.86"/>
</g>
<!-- Node71 -->
<g id="node19" class="node">
<title>Node71</title>
<g id="a_node19"><a xlink:href="classSignalIntegrity_1_1Lib_1_1SParameters_1_1Devices_1_1Mutual_1_1Mutual.xhtml" target="_top" xlink:title="s&#45;parameters of a mutual inductance">
<polygon fill="white" stroke="black" points="407,-342.5 407,-361.5 457,-361.5 457,-342.5 407,-342.5"/>
<text text-anchor="middle" x="432" y="-349.5" font-family="Helvetica,sans-Serif" font-size="10.00">Mutual</text>
</a>
</g>
</g>
<!-- Node56&#45;&gt;Node71 -->
<g id="edge18" class="edge">
<title>Node56&#45;&gt;Node71</title>
<path fill="none" stroke="midnightblue" d="M243.98,-522.56C255.21,-486.52 284.39,-409.49 338,-371 358.08,-356.58 386.56,-352.54 406.7,-351.66"/>
<polygon fill="midnightblue" stroke="midnightblue" points="240.57,-521.76 241.07,-532.35 247.28,-523.76 240.57,-521.76"/>
</g>
<!-- Node72 -->
<g id="node20" class="node">
<title>Node72</title>
<g id="a_node20"><a xlink:href="classSignalIntegrity_1_1Lib_1_1SParameters_1_1Devices_1_1SeriesC_1_1SeriesC.xhtml" target="_top" xlink:title="s&#45;parameters of a series capacitance">
<polygon fill="white" stroke="black" points="405.5,-304.5 405.5,-323.5 458.5,-323.5 458.5,-304.5 405.5,-304.5"/>
<text text-anchor="middle" x="432" y="-311.5" font-family="Helvetica,sans-Serif" font-size="10.00">SeriesC</text>
</a>
</g>
</g>
<!-- Node56&#45;&gt;Node72 -->
<g id="edge19" class="edge">
<title>Node56&#45;&gt;Node72</title>
<path fill="none" stroke="midnightblue" d="M241.88,-522.14C250.12,-480.11 275.38,-382 338,-333 357.08,-318.07 384.91,-314.02 405.15,-313.28"/>
<polygon fill="midnightblue" stroke="midnightblue" points="238.39,-521.74 240.02,-532.2 245.28,-523 238.39,-521.74"/>
</g>
<!-- Node73 -->
<g id="node21" class="node">
<title>Node73</title>
<g id="a_node21"><a xlink:href="classSignalIntegrity_1_1Lib_1_1SParameters_1_1Devices_1_1SeriesL_1_1SeriesL.xhtml" target="_top" xlink:title="s&#45;parameters of a series inductance">
<polygon fill="white" stroke="black" points="406,-266.5 406,-285.5 458,-285.5 458,-266.5 406,-266.5"/>
<text text-anchor="middle" x="432" y="-273.5" font-family="Helvetica,sans-Serif" font-size="10.00">SeriesL</text>
</a>
</g>
</g>
<!-- Node56&#45;&gt;Node73 -->
<g id="edge20" class="edge">
<title>Node56&#45;&gt;Node73</title>
<path fill="none" stroke="midnightblue" d="M240.27,-522.19C245.63,-474.93 265.98,-355.01 338,-295 356.86,-279.28 385.27,-275.42 405.73,-274.95"/>
<polygon fill="midnightblue" stroke="midnightblue" points="236.77,-522.03 239.24,-532.33 243.74,-522.74 236.77,-522.03"/>
</g>
<!-- Node74 -->
<g id="node22" class="node">
<title>Node74</title>
<g id="a_node22"><a xlink:href="classSignalIntegrity_1_1Lib_1_1SParameters_1_1Devices_1_1SeriesRse_1_1SeriesRse.xhtml" target="_top" xlink:title="s&#45;parameters of series skin&#45;effect Resistance">
<polygon fill="white" stroke="black" points="399.5,-228.5 399.5,-247.5 464.5,-247.5 464.5,-228.5 399.5,-228.5"/>
<text text-anchor="middle" x="432" y="-235.5" font-family="Helvetica,sans-Serif" font-size="10.00">SeriesRse</text>
</a>
</g>
</g>
<!-- Node56&#45;&gt;Node74 -->
<g id="edge21" class="edge">
<title>Node56&#45;&gt;Node74</title>
<path fill="none" stroke="midnightblue" d="M239.09,-522.06C241.76,-469.83 256.55,-328.18 338,-257 354.63,-242.47 379.33,-237.94 399.1,-236.93"/>
<polygon fill="midnightblue" stroke="midnightblue" points="235.58,-522.17 238.66,-532.31 242.57,-522.46 235.58,-522.17"/>
</g>
<!-- Node75 -->
<g id="node23" class="node">
<title>Node75</title>
<g id="a_node23"><a xlink:href="classSignalIntegrity_1_1Lib_1_1SParameters_1_1Devices_1_1TerminationC_1_1TerminationC.xhtml" target="_top" xlink:title="s&#45;parameters of a termination (one&#45;port) capacitance">
<polygon fill="white" stroke="black" points="391.5,-190.5 391.5,-209.5 472.5,-209.5 472.5,-190.5 391.5,-190.5"/>
<text text-anchor="middle" x="432" y="-197.5" font-family="Helvetica,sans-Serif" font-size="10.00">TerminationC</text>
</a>
</g>
</g>
<!-- Node56&#45;&gt;Node75 -->
<g id="edge22" class="edge">
<title>Node56&#45;&gt;Node75</title>
<path fill="none" stroke="midnightblue" d="M238.14,-522.13C238.28,-465.42 246.93,-301.62 338,-219 352.28,-206.05 372.93,-200.96 391.15,-199.26"/>
<polygon fill="midnightblue" stroke="midnightblue" points="234.64,-522.28 238.21,-532.26 241.64,-522.24 234.64,-522.28"/>
</g>
<!-- Node76 -->
<g id="node24" class="node">
<title>Node76</title>
<g id="a_node24"><a xlink:href="classSignalIntegrity_1_1Lib_1_1SParameters_1_1Devices_1_1TerminationL_1_1TerminationL.xhtml" target="_top" xlink:title="s&#45;parameters of a termination (one&#45;port) inductance">
<polygon fill="white" stroke="black" points="392,-152.5 392,-171.5 472,-171.5 472,-152.5 392,-152.5"/>
<text text-anchor="middle" x="432" y="-159.5" font-family="Helvetica,sans-Serif" font-size="10.00">TerminationL</text>
</a>
</g>
</g>
<!-- Node56&#45;&gt;Node76 -->
<g id="edge23" class="edge">
<title>Node56&#45;&gt;Node76</title>
<path fill="none" stroke="midnightblue" d="M241.21,-522.28C250.98,-453.97 286.59,-229.05 338,-181 352.33,-167.61 373.43,-162.56 391.91,-160.99"/>
<polygon fill="midnightblue" stroke="midnightblue" points="237.7,-522.11 239.77,-532.5 244.63,-523.08 237.7,-522.11"/>
</g>
<!-- Node77 -->
<g id="node25" class="node">
<title>Node77</title>
<g id="a_node25"><a xlink:href="classSignalIntegrity_1_1Lib_1_1SParameters_1_1Devices_1_1TLineDifferentialRLGC_1_1TLineDifferentialRLGC.xhtml" target="_top" xlink:title="s&#45;parameters of differential RLGC (telegrapher&#39;s) transmission line">
<polygon fill="white" stroke="black" points="369.5,-114.5 369.5,-133.5 494.5,-133.5 494.5,-114.5 369.5,-114.5"/>
<text text-anchor="middle" x="432" y="-121.5" font-family="Helvetica,sans-Serif" font-size="10.00">TLineDifferentialRLGC</text>
</a>
</g>
</g>
<!-- Node56&#45;&gt;Node77 -->
<g id="edge24" class="edge">
<title>Node56&#45;&gt;Node77</title>
<path fill="none" stroke="midnightblue" d="M240.67,-522.12C249.07,-449.06 281.73,-196.91 338,-143 346.57,-134.79 357.67,-129.7 369.21,-126.62"/>
<polygon fill="midnightblue" stroke="midnightblue" points="237.18,-521.92 239.54,-532.25 244.13,-522.7 237.18,-521.92"/>
</g>
<!-- Node78 -->
<g id="node26" class="node">
<title>Node78</title>
<g id="a_node26"><a xlink:href="classSignalIntegrity_1_1Lib_1_1SParameters_1_1Devices_1_1TLineDifferentialRLGCApproximate_1_1TLineDifferentialRLGCApproximate.xhtml" target="_top" xlink:title="s&#45;parameters of differential RLGC (telegrapher&#39;s) transmission line calculated by approximating distr...">
<polygon fill="white" stroke="black" points="338,-76.5 338,-95.5 526,-95.5 526,-76.5 338,-76.5"/>
<text text-anchor="middle" x="432" y="-83.5" font-family="Helvetica,sans-Serif" font-size="10.00">TLineDifferentialRLGCApproximate</text>
</a>
</g>
</g>
<!-- Node56&#45;&gt;Node78 -->
<g id="edge25" class="edge">
<title>Node56&#45;&gt;Node78</title>
<path fill="none" stroke="midnightblue" d="M240.2,-522.26C247.25,-445.07 276.75,-164.9 338,-105 341.77,-101.31 346.05,-98.25 350.66,-95.72"/>
<polygon fill="midnightblue" stroke="midnightblue" points="236.69,-522.22 239.29,-532.49 243.66,-522.84 236.69,-522.22"/>
</g>
<!-- Node79 -->
<g id="node27" class="node">
<title>Node79</title>
<g id="a_node27"><a xlink:href="classSignalIntegrity_1_1Lib_1_1SParameters_1_1Devices_1_1TLineDifferentialRLGCBalanced_1_1TLineDifferentialRLGCBalanced.xhtml" target="_top" xlink:title="s&#45;parameters of analytic balanced differential RLGC (telegrapher&#39;s) transmission line.">
<polygon fill="white" stroke="black" points="347,-38.5 347,-57.5 517,-57.5 517,-38.5 347,-38.5"/>
<text text-anchor="middle" x="432" y="-45.5" font-family="Helvetica,sans-Serif" font-size="10.00">TLineDifferentialRLGCBalanced</text>
</a>
</g>
</g>
<!-- Node56&#45;&gt;Node79 -->
<g id="edge26" class="edge">
<title>Node56&#45;&gt;Node79</title>
<path fill="none" stroke="midnightblue" d="M239.82,-522.14C245.66,-440.62 271.82,-132.85 338,-67 341.74,-63.28 345.99,-60.19 350.58,-57.64"/>
<polygon fill="midnightblue" stroke="midnightblue" points="236.31,-522.26 239.11,-532.47 243.29,-522.74 236.31,-522.26"/>
</g>
<!-- Node80 -->
<g id="node28" class="node">
<title>Node80</title>
<g id="a_node28"><a xlink:href="classSignalIntegrity_1_1Lib_1_1SParameters_1_1Devices_1_1TLineDifferentialRLGCUncoupled_1_1TLineDifferentialRLGCUncoupled.xhtml" target="_top" xlink:title="s&#45;parameters of analytic uncoupled differential RLGC (telegrapher&#39;s) transmission line.">
<polygon fill="white" stroke="black" points="344,-0.5 344,-19.5 520,-19.5 520,-0.5 344,-0.5"/>
<text text-anchor="middle" x="432" y="-7.5" font-family="Helvetica,sans-Serif" font-size="10.00">TLineDifferentialRLGCUncoupled</text>
</a>
</g>
</g>
<!-- Node56&#45;&gt;Node80 -->
<g id="edge27" class="edge">
<title>Node56&#45;&gt;Node80</title>
<path fill="none" stroke="midnightblue" d="M239.5,-521.93C244.2,-436.08 266.91,-100.81 338,-29 341.71,-25.25 345.95,-22.15 350.52,-19.58"/>
<polygon fill="midnightblue" stroke="midnightblue" points="235.99,-521.97 238.96,-532.14 242.98,-522.34 235.99,-521.97"/>
</g>
<!-- Node81 -->
<g id="node29" class="node">
<title>Node81</title>
<g id="a_node29"><a xlink:href="classSignalIntegrity_1_1Lib_1_1SParameters_1_1Devices_1_1TLineLossless_1_1TLineLossless.xhtml" target="_top" xlink:title="s&#45;parameters of ideal lossless single&#45;ended transmission line">
<polygon fill="white" stroke="black" points="390,-988.5 390,-1007.5 474,-1007.5 474,-988.5 390,-988.5"/>
<text text-anchor="middle" x="432" y="-995.5" font-family="Helvetica,sans-Serif" font-size="10.00">TLineLossless</text>
</a>
</g>
</g>
<!-- Node56&#45;&gt;Node81 -->
<g id="edge28" class="edge">
<title>Node56&#45;&gt;Node81</title>
<path fill="none" stroke="midnightblue" d="M240.2,-561.74C247.25,-638.93 276.75,-919.1 338,-979 351.55,-992.25 371.69,-997.43 389.77,-999.12"/>
<polygon fill="midnightblue" stroke="midnightblue" points="243.66,-561.16 239.29,-551.51 236.69,-561.78 243.66,-561.16"/>
</g>
<!-- Node82 -->
<g id="node30" class="node">
<title>Node82</title>
<g id="a_node30"><a xlink:href="classSignalIntegrity_1_1Lib_1_1SParameters_1_1Devices_1_1TLineTwoPortRLGC_1_1TLineTwoPortRLGC.xhtml" target="_top" xlink:title="s&#45;parameters of single&#45;ended RLGC (telegraphers) transmission line">
<polygon fill="white" stroke="black" points="378.5,-950.5 378.5,-969.5 485.5,-969.5 485.5,-950.5 378.5,-950.5"/>
<text text-anchor="middle" x="432" y="-957.5" font-family="Helvetica,sans-Serif" font-size="10.00">TLineTwoPortRLGC</text>
</a>
</g>
</g>
<!-- Node56&#45;&gt;Node82 -->
<g id="edge29" class="edge">
<title>Node56&#45;&gt;Node82</title>
<path fill="none" stroke="midnightblue" d="M240.67,-561.88C249.07,-634.94 281.73,-887.09 338,-941 348.83,-951.37 363.71,-956.77 378.39,-959.42"/>
<polygon fill="midnightblue" stroke="midnightblue" points="244.13,-561.3 239.54,-551.75 237.18,-562.08 244.13,-561.3"/>
</g>
<!-- Node83 -->
<g id="node31" class="node">
<title>Node83</title>
<g id="a_node31"><a xlink:href="classSignalIntegrity_1_1Lib_1_1SParameters_1_1Devices_1_1TLineTwoPortRLGCAnalytic_1_1TLineTwoPortRLGCAnalytic.xhtml" target="_top" xlink:title="s&#45;parameters of analytic single&#45;ended telegraphers transmission line">
<polygon fill="white" stroke="black" points="358.5,-912.5 358.5,-931.5 505.5,-931.5 505.5,-912.5 358.5,-912.5"/>
<text text-anchor="middle" x="432" y="-919.5" font-family="Helvetica,sans-Serif" font-size="10.00">TLineTwoPortRLGCAnalytic</text>
</a>
</g>
</g>
<!-- Node56&#45;&gt;Node83 -->
<g id="edge30" class="edge">
<title>Node56&#45;&gt;Node83</title>
<path fill="none" stroke="midnightblue" d="M241.21,-561.72C250.98,-630.03 286.59,-854.95 338,-903 343.9,-908.51 350.95,-912.61 358.49,-915.64"/>
<polygon fill="midnightblue" stroke="midnightblue" points="244.63,-560.92 239.77,-551.5 237.7,-561.89 244.63,-560.92"/>
</g>
<!-- Node84 -->
<g id="node32" class="node">
<title>Node84</title>
<g id="a_node32"><a xlink:href="classSignalIntegrity_1_1Lib_1_1SParameters_1_1Devices_1_1TLineTwoPortRLGCApproximate_1_1TLineTwoPortRLGCApproximate.xhtml" target="_top" xlink:title="s&#45;parameters of two port RLGC (telegrapher&#39;s) transmission line calculated by approximating distribut...">
<polygon fill="white" stroke="black" points="347,-874.5 347,-893.5 517,-893.5 517,-874.5 347,-874.5"/>
<text text-anchor="middle" x="432" y="-881.5" font-family="Helvetica,sans-Serif" font-size="10.00">TLineTwoPortRLGCApproximate</text>
</a>
</g>
</g>
<!-- Node56&#45;&gt;Node84 -->
<g id="edge31" class="edge">
<title>Node56&#45;&gt;Node84</title>
<path fill="none" stroke="midnightblue" d="M238.14,-561.87C238.28,-618.58 246.93,-782.38 338,-865 342.15,-868.76 346.84,-871.86 351.85,-874.41"/>
<polygon fill="midnightblue" stroke="midnightblue" points="241.64,-561.76 238.21,-551.74 234.64,-561.72 241.64,-561.76"/>
</g>
<!-- Node85 -->
<g id="node33" class="node">
<title>Node85</title>
<g id="a_node33"><a xlink:href="classSignalIntegrity_1_1Lib_1_1SParameters_1_1Devices_1_1WElement_1_1WElement.xhtml" target="_top" xlink:title="s&#45;parameters of of a W element is calculated by approximating distributed parameters with a finite nu...">
<polygon fill="white" stroke="black" points="398.5,-836.5 398.5,-855.5 465.5,-855.5 465.5,-836.5 398.5,-836.5"/>
<text text-anchor="middle" x="432" y="-843.5" font-family="Helvetica,sans-Serif" font-size="10.00">WElement</text>
</a>
</g>
</g>
<!-- Node56&#45;&gt;Node85 -->
<g id="edge32" class="edge">
<title>Node56&#45;&gt;Node85</title>
<path fill="none" stroke="midnightblue" d="M239.09,-561.94C241.76,-614.17 256.55,-755.82 338,-827 354.38,-841.31 378.59,-845.92 398.21,-847.02"/>
<polygon fill="midnightblue" stroke="midnightblue" points="242.57,-561.54 238.66,-551.69 235.58,-561.83 242.57,-561.54"/>
</g>
<!-- Node87 -->
<g id="node35" class="node">
<title>Node87</title>
<g id="a_node35"><a xlink:href="classSignalIntegrity_1_1Lib_1_1SParameters_1_1SParameterFile_1_1SParameterFile.xhtml" target="_top" xlink:title="class for s&#45;parameters read from a file">
<polygon fill="white" stroke="black" points="387,-798.5 387,-817.5 477,-817.5 477,-798.5 387,-798.5"/>
<text text-anchor="middle" x="432" y="-805.5" font-family="Helvetica,sans-Serif" font-size="10.00">SParameterFile</text>
</a>
</g>
</g>
<!-- Node56&#45;&gt;Node87 -->
<g id="edge34" class="edge">
<title>Node56&#45;&gt;Node87</title>
<path fill="none" stroke="midnightblue" d="M240.27,-561.81C245.63,-609.07 265.98,-728.99 338,-789 351.55,-800.29 370.02,-805.46 386.93,-807.65"/>
<polygon fill="midnightblue" stroke="midnightblue" points="243.74,-561.26 239.24,-551.67 236.77,-561.97 243.74,-561.26"/>
</g>
<!-- Node62 -->
<g id="node8" class="node">
<title>Node62</title>
<g id="a_node8"><a xlink:href="classSignalIntegrity_1_1Lib_1_1Measurement_1_1CalKit_1_1Standards_1_1ThruStandard_1_1ThruStandard.xhtml" target="_top" xlink:title="Class providing the s&#45;parameters of a thru standard as commonly defined for a calibration kit.">
<polygon fill="white" stroke="black" points="591,-608.5 591,-627.5 673,-627.5 673,-608.5 591,-608.5"/>
<text text-anchor="middle" x="632" y="-615.5" font-family="Helvetica,sans-Serif" font-size="10.00">ThruStandard</text>
</a>
</g>
</g>
<!-- Node61&#45;&gt;Node62 -->
<g id="edge7" class="edge">
<title>Node61&#45;&gt;Node62</title>
<path fill="none" stroke="midnightblue" d="M466.13,-618C500.43,-618 554.05,-618 590.77,-618"/>
<polygon fill="midnightblue" stroke="midnightblue" points="465.71,-614.5 455.71,-618 465.71,-621.5 465.71,-614.5"/>
</g>
<!-- Node66 -->
<g id="node14" class="node">
<title>Node66</title>
<g id="a_node14"><a xlink:href="classSignalIntegrity_1_1Lib_1_1SParameters_1_1Devices_1_1ClassicalFilter_1_1BesselLowPassFilter.xhtml" target="_top" xlink:title="Bessel low pass filter.">
<polygon fill="white" stroke="black" points="574.5,-475.5 574.5,-494.5 689.5,-494.5 689.5,-475.5 574.5,-475.5"/>
<text text-anchor="middle" x="632" y="-482.5" font-family="Helvetica,sans-Serif" font-size="10.00">BesselLowPassFilter</text>
</a>
</g>
</g>
<!-- Node65&#45;&gt;Node66 -->
<g id="edge13" class="edge">
<title>Node65&#45;&gt;Node66</title>
<path fill="none" stroke="midnightblue" d="M484.25,-499.08C511.82,-496.44 545.89,-493.17 574.26,-490.44"/>
<polygon fill="midnightblue" stroke="midnightblue" points="483.65,-495.62 474.03,-500.06 484.31,-502.59 483.65,-495.62"/>
</g>
<!-- Node67 -->
<g id="node15" class="node">
<title>Node67</title>
<g id="a_node15"><a xlink:href="classSignalIntegrity_1_1Lib_1_1SParameters_1_1Devices_1_1ClassicalFilter_1_1ButterworthLowPassFilter.xhtml" target="_top" xlink:title="Butterworth Low pass filter.">
<polygon fill="white" stroke="black" points="562,-513.5 562,-532.5 702,-532.5 702,-513.5 562,-513.5"/>
<text text-anchor="middle" x="632" y="-520.5" font-family="Helvetica,sans-Serif" font-size="10.00">ButterworthLowPassFilter</text>
</a>
</g>
</g>
<!-- Node65&#45;&gt;Node67 -->
<g id="edge14" class="edge">
<title>Node65&#45;&gt;Node67</title>
<path fill="none" stroke="midnightblue" d="M484.2,-508.91C507.9,-511.19 536.4,-513.92 561.96,-516.37"/>
<polygon fill="midnightblue" stroke="midnightblue" points="484.31,-505.41 474.03,-507.94 483.65,-512.38 484.31,-505.41"/>
</g>
<!-- Node86 -->
<g id="node34" class="node">
<title>Node86</title>
<g id="a_node34"><a xlink:href="classSignalIntegrity_1_1Lib_1_1SParameters_1_1Devices_1_1WElement_1_1WElementFile.xhtml" target="_top" xlink:title="W element file.">
<polygon fill="white" stroke="black" points="590.5,-836.5 590.5,-855.5 673.5,-855.5 673.5,-836.5 590.5,-836.5"/>
<text text-anchor="middle" x="632" y="-843.5" font-family="Helvetica,sans-Serif" font-size="10.00">WElementFile</text>
</a>
</g>
</g>
<!-- Node85&#45;&gt;Node86 -->
<g id="edge33" class="edge">
<title>Node85&#45;&gt;Node86</title>
<path fill="none" stroke="midnightblue" d="M475.79,-846C509.77,-846 556.96,-846 590.37,-846"/>
<polygon fill="midnightblue" stroke="midnightblue" points="475.7,-842.5 465.7,-846 475.7,-849.5 475.7,-842.5"/>
</g>
<!-- Node0 -->
<g id="node36" class="node">
<title>Node0</title>
<g id="a_node36"><a xlink:href="classSignalIntegrity_1_1Lib_1_1Measurement_1_1CalKit_1_1Standards_1_1TerminationPolynomial_1_1TerminationPolynomial.xhtml" target="_top" xlink:title="Base class for terminations for calibration standards.">
<polygon fill="white" stroke="black" points="173,-1045.5 173,-1064.5 302,-1064.5 302,-1045.5 173,-1045.5"/>
<text text-anchor="middle" x="237.5" y="-1052.5" font-family="Helvetica,sans-Serif" font-size="10.00">TerminationPolynomial</text>
</a>
</g>
</g>
<!-- Node0&#45;&gt;Node1 -->
<g id="edge35" class="edge">
<title>Node0&#45;&gt;Node1</title>
<path fill="none" stroke="midnightblue" d="M312.45,-1047.7C329.37,-1046.03 347.26,-1044.27 363.87,-1042.63"/>
<polygon fill="midnightblue" stroke="midnightblue" points="311.67,-1044.26 302.07,-1048.73 312.36,-1051.23 311.67,-1044.26"/>
</g>
<!-- Node0&#45;&gt;Node2 -->
<g id="edge36" class="edge">
<title>Node0&#45;&gt;Node2</title>
<path fill="none" stroke="midnightblue" d="M312.14,-1062.27C329.49,-1063.98 347.87,-1065.79 364.86,-1067.47"/>
<polygon fill="midnightblue" stroke="midnightblue" points="312.36,-1058.77 302.07,-1061.27 311.67,-1065.74 312.36,-1058.77"/>
</g>
</g>
</svg>
