<?xml version="1.0" encoding="UTF-8" standalone="no"?>
<!DOCTYPE svg PUBLIC "-//W3C//DTD SVG 1.1//EN"
 "http://www.w3.org/Graphics/SVG/1.1/DTD/svg11.dtd">
<!-- Generated by graphviz version 2.43.0 (0)
 -->
<!-- Title: Graphical Class Hierarchy Pages: 1 -->
<svg width="757pt" height="294pt"
 viewBox="0.00 0.00 757.00 294.00" xmlns="http://www.w3.org/2000/svg" xmlns:xlink="http://www.w3.org/1999/xlink">
<g id="graph0" class="graph" transform="scale(1 1) rotate(0) translate(4 290)">
<title>Graphical Class Hierarchy</title>
<polygon fill="white" stroke="transparent" points="-4,4 -4,-290 753,-290 753,4 -4,4"/>
<!-- Node114 -->
<g id="node1" class="node">
<title>Node114</title>
<g id="a_node1"><a xlink:href="classSignalIntegrity_1_1Lib_1_1SystemDescriptions_1_1Numeric_1_1Numeric.xhtml" target="_top" xlink:title="handles numeric details of derived class solutions">
<polygon fill="white" stroke="black" points="322.5,-67.5 322.5,-86.5 375.5,-86.5 375.5,-67.5 322.5,-67.5"/>
<text text-anchor="middle" x="349" y="-74.5" font-family="Helvetica,sans-Serif" font-size="10.00">Numeric</text>
</a>
</g>
</g>
<!-- Node3 -->
<g id="node2" class="node">
<title>Node3</title>
<g id="a_node2"><a xlink:href="classSignalIntegrity_1_1Lib_1_1SystemDescriptions_1_1DeembedderNumeric_1_1DeembedderNumeric.xhtml" target="_top" xlink:title=" ">
<polygon fill="white" stroke="black" points="474.5,-114.5 474.5,-133.5 583.5,-133.5 583.5,-114.5 474.5,-114.5"/>
<text text-anchor="middle" x="529" y="-121.5" font-family="Helvetica,sans-Serif" font-size="10.00">DeembedderNumeric</text>
</a>
</g>
</g>
<!-- Node114&#45;&gt;Node3 -->
<g id="edge1" class="edge">
<title>Node114&#45;&gt;Node3</title>
<path fill="none" stroke="midnightblue" d="M385.65,-86.56C405.97,-92 431.9,-98.91 455,-105 466.78,-108.1 479.63,-111.46 491.23,-114.47"/>
<polygon fill="midnightblue" stroke="midnightblue" points="386.44,-83.15 375.88,-83.95 384.63,-89.91 386.44,-83.15"/>
</g>
<!-- Node6 -->
<g id="node3" class="node">
<title>Node6</title>
<g id="a_node3"><a xlink:href="classSignalIntegrity_1_1Lib_1_1SystemDescriptions_1_1SimulatorNumeric_1_1SimulatorNumeric.xhtml" target="_top" xlink:title="class for performing numeric simulations">
<polygon fill="white" stroke="black" points="481.5,-76.5 481.5,-95.5 576.5,-95.5 576.5,-76.5 481.5,-76.5"/>
<text text-anchor="middle" x="529" y="-83.5" font-family="Helvetica,sans-Serif" font-size="10.00">SimulatorNumeric</text>
</a>
</g>
</g>
<!-- Node114&#45;&gt;Node6 -->
<g id="edge2" class="edge">
<title>Node114&#45;&gt;Node6</title>
<path fill="none" stroke="midnightblue" d="M385.82,-78.81C413.25,-80.2 451.32,-82.12 481.16,-83.63"/>
<polygon fill="midnightblue" stroke="midnightblue" points="385.67,-75.3 375.5,-78.29 385.31,-82.29 385.67,-75.3"/>
</g>
<!-- Node13 -->
<g id="node4" class="node">
<title>Node13</title>
<g id="a_node4"><a xlink:href="classSignalIntegrity_1_1Lib_1_1SystemDescriptions_1_1SystemSParametersNumeric_1_1SystemSParametersNumeric.xhtml" target="_top" xlink:title="Class for computing s&#45;parameters of interconnected systems.">
<polygon fill="white" stroke="black" points="457,-0.5 457,-19.5 601,-19.5 601,-0.5 457,-0.5"/>
<text text-anchor="middle" x="529" y="-7.5" font-family="Helvetica,sans-Serif" font-size="10.00">SystemSParametersNumeric</text>
</a>
</g>
</g>
<!-- Node114&#45;&gt;Node13 -->
<g id="edge3" class="edge">
<title>Node114&#45;&gt;Node13</title>
<path fill="none" stroke="midnightblue" d="M381.23,-63.53C401.99,-54.74 429.95,-43.23 455,-34 468.77,-28.92 484.18,-23.78 497.29,-19.56"/>
<polygon fill="midnightblue" stroke="midnightblue" points="379.78,-60.34 371.94,-67.48 382.52,-66.79 379.78,-60.34"/>
</g>
<!-- Node9 -->
<g id="node5" class="node">
<title>Node9</title>
<g id="a_node5"><a xlink:href="classSignalIntegrity_1_1Lib_1_1SystemDescriptions_1_1VirtualProbeNumeric_1_1VirtualProbeNumeric.xhtml" target="_top" xlink:title="class for performing virtual probing numerically.">
<polygon fill="white" stroke="black" points="640.5,-114.5 640.5,-133.5 747.5,-133.5 747.5,-114.5 640.5,-114.5"/>
<text text-anchor="middle" x="694" y="-121.5" font-family="Helvetica,sans-Serif" font-size="10.00">VirtualProbeNumeric</text>
</a>
</g>
</g>
<!-- Node114&#45;&gt;Node9 -->
<g id="edge4" class="edge">
<title>Node114&#45;&gt;Node9</title>
<path fill="none" stroke="midnightblue" d="M385.74,-68.6C435.54,-58.46 528.11,-45.28 603,-67 634.97,-76.27 666.48,-100.69 682.37,-114.36"/>
<polygon fill="midnightblue" stroke="midnightblue" points="384.84,-65.22 375.78,-70.71 386.29,-72.07 384.84,-65.22"/>
</g>
<!-- Node52 -->
<g id="node6" class="node">
<title>Node52</title>
<g id="a_node6"><a xlink:href="classSignalIntegrity_1_1Lib_1_1SystemDescriptions_1_1Symbolic_1_1Symbolic.xhtml" target="_top" xlink:title="base class for all symbolic solutions.">
<polygon fill="white" stroke="black" points="161,-247.5 161,-266.5 218,-266.5 218,-247.5 161,-247.5"/>
<text text-anchor="middle" x="189.5" y="-254.5" font-family="Helvetica,sans-Serif" font-size="10.00">Symbolic</text>
</a>
</g>
</g>
<!-- Node4 -->
<g id="node7" class="node">
<title>Node4</title>
<g id="a_node7"><a xlink:href="classSignalIntegrity_1_1Lib_1_1SystemDescriptions_1_1DeembedderSymbolic_1_1DeembedderSymbolic.xhtml" target="_top" xlink:title=" ">
<polygon fill="white" stroke="black" points="472.5,-228.5 472.5,-247.5 585.5,-247.5 585.5,-228.5 472.5,-228.5"/>
<text text-anchor="middle" x="529" y="-235.5" font-family="Helvetica,sans-Serif" font-size="10.00">DeembedderSymbolic</text>
</a>
</g>
</g>
<!-- Node52&#45;&gt;Node4 -->
<g id="edge5" class="edge">
<title>Node52&#45;&gt;Node4</title>
<path fill="none" stroke="midnightblue" d="M228.19,-254.88C287.6,-251.53 403.36,-245.02 472.36,-241.13"/>
<polygon fill="midnightblue" stroke="midnightblue" points="227.91,-251.39 218.12,-255.45 228.3,-258.38 227.91,-251.39"/>
</g>
<!-- Node11 -->
<g id="node8" class="node">
<title>Node11</title>
<g id="a_node8"><a xlink:href="classSignalIntegrity_1_1Lib_1_1SystemDescriptions_1_1SystemDescriptionSymbolic_1_1SystemDescriptionSymbolic.xhtml" target="_top" xlink:title="Solves system descriptions in the most basic manner common to all of the simulation,...">
<polygon fill="white" stroke="black" points="279,-266.5 279,-285.5 419,-285.5 419,-266.5 279,-266.5"/>
<text text-anchor="middle" x="349" y="-273.5" font-family="Helvetica,sans-Serif" font-size="10.00">SystemDescriptionSymbolic</text>
</a>
</g>
</g>
<!-- Node52&#45;&gt;Node11 -->
<g id="edge6" class="edge">
<title>Node52&#45;&gt;Node11</title>
<path fill="none" stroke="midnightblue" d="M228.32,-261.56C243.5,-263.39 261.5,-265.57 278.87,-267.66"/>
<polygon fill="midnightblue" stroke="midnightblue" points="228.64,-258.08 218.3,-260.35 227.8,-265.03 228.64,-258.08"/>
</g>
<!-- Node12 -->
<g id="node9" class="node">
<title>Node12</title>
<g id="a_node9"><a xlink:href="classSignalIntegrity_1_1Lib_1_1SystemDescriptions_1_1SystemSParametersSymbolic_1_1SystemSParametersSymbolic.xhtml" target="_top" xlink:title="Class for solving symbolically the s&#45;parameters of interconnected systems.">
<polygon fill="white" stroke="black" points="455,-266.5 455,-285.5 603,-285.5 603,-266.5 455,-266.5"/>
<text text-anchor="middle" x="529" y="-273.5" font-family="Helvetica,sans-Serif" font-size="10.00">SystemSParametersSymbolic</text>
</a>
</g>
</g>
<!-- Node11&#45;&gt;Node12 -->
<g id="edge7" class="edge">
<title>Node11&#45;&gt;Node12</title>
<path fill="none" stroke="midnightblue" d="M429.34,-276C437.83,-276 446.43,-276 454.84,-276"/>
<polygon fill="midnightblue" stroke="midnightblue" points="429.07,-272.5 419.07,-276 429.07,-279.5 429.07,-272.5"/>
</g>
<!-- Node7 -->
<g id="node10" class="node">
<title>Node7</title>
<g id="a_node10"><a xlink:href="classSignalIntegrity_1_1Lib_1_1SystemDescriptions_1_1SimulatorSymbolic_1_1SimulatorSymbolic.xhtml" target="_top" xlink:title="class for producing symbolic solutions to simulation problems.">
<polygon fill="white" stroke="black" points="645,-247.5 645,-266.5 743,-266.5 743,-247.5 645,-247.5"/>
<text text-anchor="middle" x="694" y="-254.5" font-family="Helvetica,sans-Serif" font-size="10.00">SimulatorSymbolic</text>
</a>
</g>
</g>
<!-- Node12&#45;&gt;Node7 -->
<g id="edge8" class="edge">
<title>Node12&#45;&gt;Node7</title>
<path fill="none" stroke="midnightblue" d="M613.62,-266.25C624.29,-265.01 634.92,-263.77 644.76,-262.62"/>
<polygon fill="midnightblue" stroke="midnightblue" points="612.92,-262.81 603.39,-267.44 613.73,-269.76 612.92,-262.81"/>
</g>
<!-- Node10 -->
<g id="node11" class="node">
<title>Node10</title>
<g id="a_node11"><a xlink:href="classSignalIntegrity_1_1Lib_1_1SystemDescriptions_1_1VirtualProbeSymbolic_1_1VirtualProbeSymbolic.xhtml" target="_top" xlink:title=" ">
<polygon fill="white" stroke="black" points="639,-190.5 639,-209.5 749,-209.5 749,-190.5 639,-190.5"/>
<text text-anchor="middle" x="694" y="-197.5" font-family="Helvetica,sans-Serif" font-size="10.00">VirtualProbeSymbolic</text>
</a>
</g>
</g>
<!-- Node12&#45;&gt;Node10 -->
<g id="edge9" class="edge">
<title>Node12&#45;&gt;Node10</title>
<path fill="none" stroke="midnightblue" d="M585.14,-263.62C591.26,-261.67 597.32,-259.46 603,-257 632.69,-244.11 663.84,-222.21 680.59,-209.64"/>
<polygon fill="midnightblue" stroke="midnightblue" points="584.1,-260.27 575.52,-266.48 586.1,-266.98 584.1,-260.27"/>
</g>
<!-- Node0 -->
<g id="node12" class="node">
<title>Node0</title>
<g id="a_node12"><a xlink:href="classSignalIntegrity_1_1Lib_1_1SystemDescriptions_1_1SystemDescription_1_1SystemDescription.xhtml" target="_top" xlink:title="Allows the construction of system descriptions for use with all of the classes that solve schematics ...">
<polygon fill="white" stroke="black" points="0,-171.5 0,-190.5 100,-190.5 100,-171.5 0,-171.5"/>
<text text-anchor="middle" x="50" y="-178.5" font-family="Helvetica,sans-Serif" font-size="10.00">SystemDescription</text>
</a>
</g>
</g>
<!-- Node1 -->
<g id="node13" class="node">
<title>Node1</title>
<g id="a_node13"><a xlink:href="classSignalIntegrity_1_1Lib_1_1SystemDescriptions_1_1SystemSParameters_1_1SystemSParameters.xhtml" target="_top" xlink:title="base class for housekeeping involving system s&#45;parameters calculations">
<polygon fill="white" stroke="black" points="136,-171.5 136,-190.5 243,-190.5 243,-171.5 136,-171.5"/>
<text text-anchor="middle" x="189.5" y="-178.5" font-family="Helvetica,sans-Serif" font-size="10.00">SystemSParameters</text>
</a>
</g>
</g>
<!-- Node0&#45;&gt;Node1 -->
<g id="edge10" class="edge">
<title>Node0&#45;&gt;Node1</title>
<path fill="none" stroke="midnightblue" d="M110.44,-181C118.9,-181 127.55,-181 135.87,-181"/>
<polygon fill="midnightblue" stroke="midnightblue" points="110.25,-177.5 100.25,-181 110.25,-184.5 110.25,-177.5"/>
</g>
<!-- Node1&#45;&gt;Node13 -->
<g id="edge21" class="edge">
<title>Node1&#45;&gt;Node13</title>
<path fill="none" stroke="midnightblue" d="M198.53,-162.07C211.29,-134.45 238.9,-83.63 279,-58 332.23,-23.97 404.02,-13.01 456.84,-9.95"/>
<polygon fill="midnightblue" stroke="midnightblue" points="195.24,-160.86 194.37,-171.41 201.63,-163.7 195.24,-160.86"/>
</g>
<!-- Node1&#45;&gt;Node11 -->
<g id="edge20" class="edge">
<title>Node1&#45;&gt;Node11</title>
<path fill="none" stroke="midnightblue" d="M215.4,-196.02C248.07,-215.73 304.48,-249.75 331.99,-266.34"/>
<polygon fill="midnightblue" stroke="midnightblue" points="216.84,-192.8 206.47,-190.63 213.22,-198.79 216.84,-192.8"/>
</g>
<!-- Node2 -->
<g id="node14" class="node">
<title>Node2</title>
<g id="a_node14"><a xlink:href="classSignalIntegrity_1_1Lib_1_1SystemDescriptions_1_1Deembedder_1_1Deembedder.xhtml" target="_top" xlink:title="housekeeping base class for deembedders">
<polygon fill="white" stroke="black" points="313,-190.5 313,-209.5 385,-209.5 385,-190.5 313,-190.5"/>
<text text-anchor="middle" x="349" y="-197.5" font-family="Helvetica,sans-Serif" font-size="10.00">Deembedder</text>
</a>
</g>
</g>
<!-- Node1&#45;&gt;Node2 -->
<g id="edge11" class="edge">
<title>Node1&#45;&gt;Node2</title>
<path fill="none" stroke="midnightblue" d="M253.48,-188.6C273.7,-191.04 295.37,-193.65 312.85,-195.76"/>
<polygon fill="midnightblue" stroke="midnightblue" points="253.73,-185.1 243.38,-187.38 252.89,-192.05 253.73,-185.1"/>
</g>
<!-- Node5 -->
<g id="node15" class="node">
<title>Node5</title>
<g id="a_node15"><a xlink:href="classSignalIntegrity_1_1Lib_1_1SystemDescriptions_1_1Simulator_1_1Simulator.xhtml" target="_top" xlink:title="Base class for dealing with housekeeping for simulations.">
<polygon fill="white" stroke="black" points="320,-152.5 320,-171.5 378,-171.5 378,-152.5 320,-152.5"/>
<text text-anchor="middle" x="349" y="-159.5" font-family="Helvetica,sans-Serif" font-size="10.00">Simulator</text>
</a>
</g>
</g>
<!-- Node1&#45;&gt;Node5 -->
<g id="edge14" class="edge">
<title>Node1&#45;&gt;Node5</title>
<path fill="none" stroke="midnightblue" d="M253.44,-173.41C276.45,-170.63 301.32,-167.63 319.78,-165.4"/>
<polygon fill="midnightblue" stroke="midnightblue" points="252.89,-169.95 243.38,-174.62 253.73,-176.9 252.89,-169.95"/>
</g>
<!-- Node2&#45;&gt;Node3 -->
<g id="edge12" class="edge">
<title>Node2&#45;&gt;Node3</title>
<path fill="none" stroke="midnightblue" d="M394.9,-191.46C403.25,-188.83 411.65,-185.41 419,-181 438.95,-169.03 434.97,-154.83 455,-143 461.54,-139.14 468.86,-136.05 476.28,-133.58"/>
<polygon fill="midnightblue" stroke="midnightblue" points="393.85,-188.12 385.18,-194.21 395.76,-194.85 393.85,-188.12"/>
</g>
<!-- Node2&#45;&gt;Node4 -->
<g id="edge13" class="edge">
<title>Node2&#45;&gt;Node4</title>
<path fill="none" stroke="midnightblue" d="M395.15,-209.64C422.21,-215.41 456.47,-222.73 483.42,-228.48"/>
<polygon fill="midnightblue" stroke="midnightblue" points="395.68,-206.17 385.17,-207.51 394.22,-213.02 395.68,-206.17"/>
</g>
<!-- Node5&#45;&gt;Node6 -->
<g id="edge15" class="edge">
<title>Node5&#45;&gt;Node6</title>
<path fill="none" stroke="midnightblue" d="M373.49,-147.09C394.26,-134.44 425.72,-116.56 455,-105 464.26,-101.35 474.45,-98.19 484.21,-95.55"/>
<polygon fill="midnightblue" stroke="midnightblue" points="371.41,-144.26 364.74,-152.49 375.09,-150.22 371.41,-144.26"/>
</g>
<!-- Node5&#45;&gt;Node7 -->
<g id="edge16" class="edge">
<title>Node5&#45;&gt;Node7</title>
<path fill="none" stroke="midnightblue" d="M388.18,-168.41C438.21,-177.31 528.36,-195.04 603,-219 627.71,-226.93 655.03,-238.95 673.02,-247.35"/>
<polygon fill="midnightblue" stroke="midnightblue" points="388.59,-164.93 378.14,-166.65 387.38,-171.82 388.59,-164.93"/>
</g>
<!-- Node8 -->
<g id="node16" class="node">
<title>Node8</title>
<g id="a_node16"><a xlink:href="classSignalIntegrity_1_1Lib_1_1SystemDescriptions_1_1VirtualProbe_1_1VirtualProbe.xhtml" target="_top" xlink:title="Base class for virtual probing.">
<polygon fill="white" stroke="black" points="494,-152.5 494,-171.5 564,-171.5 564,-152.5 494,-152.5"/>
<text text-anchor="middle" x="529" y="-159.5" font-family="Helvetica,sans-Serif" font-size="10.00">VirtualProbe</text>
</a>
</g>
</g>
<!-- Node5&#45;&gt;Node8 -->
<g id="edge17" class="edge">
<title>Node5&#45;&gt;Node8</title>
<path fill="none" stroke="midnightblue" d="M388.32,-162C419.69,-162 463.66,-162 493.84,-162"/>
<polygon fill="midnightblue" stroke="midnightblue" points="388.2,-158.5 378.2,-162 388.2,-165.5 388.2,-158.5"/>
</g>
<!-- Node8&#45;&gt;Node9 -->
<g id="edge18" class="edge">
<title>Node8&#45;&gt;Node9</title>
<path fill="none" stroke="midnightblue" d="M574.21,-151.69C598.53,-146.02 628.5,-139.04 652.25,-133.5"/>
<polygon fill="midnightblue" stroke="midnightblue" points="573.11,-148.35 564.17,-154.03 574.7,-155.17 573.11,-148.35"/>
</g>
<!-- Node8&#45;&gt;Node10 -->
<g id="edge19" class="edge">
<title>Node8&#45;&gt;Node10</title>
<path fill="none" stroke="midnightblue" d="M574.21,-172.31C598.53,-177.98 628.5,-184.96 652.25,-190.5"/>
<polygon fill="midnightblue" stroke="midnightblue" points="574.7,-168.83 564.17,-169.97 573.11,-175.65 574.7,-168.83"/>
</g>
</g>
</svg>
