<?xml version="1.0" encoding="UTF-8" standalone="no"?>
<!DOCTYPE svg PUBLIC "-//W3C//DTD SVG 1.1//EN"
 "http://www.w3.org/Graphics/SVG/1.1/DTD/svg11.dtd">
<!-- Generated by graphviz version 2.43.0 (0)
 -->
<!-- Title: Graphical Class Hierarchy Pages: 1 -->
<svg width="452pt" height="203pt"
 viewBox="0.00 0.00 452.00 202.50" xmlns="http://www.w3.org/2000/svg" xmlns:xlink="http://www.w3.org/1999/xlink">
<g id="graph0" class="graph" transform="scale(1 1) rotate(0) translate(4 198.5)">
<title>Graphical Class Hierarchy</title>
<polygon fill="white" stroke="transparent" points="-4,4 -4,-198.5 448,-198.5 448,4 -4,4"/>
<!-- Node125 -->
<g id="node1" class="node">
<title>Node125</title>
<g id="a_node1"><a xlink:href="classSignalIntegrity_1_1Lib_1_1TimeDomain_1_1Filters_1_1FilterDescriptor_1_1FilterDescriptor.xhtml" target="_top" xlink:title="FilterDescriptor.py.">
<polygon fill="white" stroke="black" points="11,-156 11,-175 94,-175 94,-156 11,-156"/>
<text text-anchor="middle" x="52.5" y="-163" font-family="Helvetica,sans-Serif" font-size="10.00">FilterDescriptor</text>
</a>
</g>
</g>
<!-- Node9 -->
<g id="node2" class="node">
<title>Node9</title>
<g id="a_node2"><a xlink:href="classSignalIntegrity_1_1Lib_1_1TimeDomain_1_1Filters_1_1WaveformDecimator_1_1WaveformDecimator.xhtml" target="_top" xlink:title="decimates waveforms">
<polygon fill="white" stroke="black" points="155,-137 155,-156 261,-156 261,-137 155,-137"/>
<text text-anchor="middle" x="208" y="-144" font-family="Helvetica,sans-Serif" font-size="10.00">WaveformDecimator</text>
</a>
</g>
</g>
<!-- Node125&#45;&gt;Node9 -->
<g id="edge1" class="edge">
<title>Node125&#45;&gt;Node9</title>
<path fill="none" stroke="midnightblue" d="M104.56,-159.18C120.69,-157.18 138.55,-154.97 154.77,-152.97"/>
<polygon fill="midnightblue" stroke="midnightblue" points="103.73,-155.76 94.23,-160.46 104.59,-162.7 103.73,-155.76"/>
</g>
<!-- Node10 -->
<g id="node3" class="node">
<title>Node10</title>
<g id="a_node3"><a xlink:href="classSignalIntegrity_1_1Lib_1_1TimeDomain_1_1Filters_1_1WaveformTrimmer_1_1WaveformTrimmer.xhtml" target="_top" xlink:title="trims waveforms">
<polygon fill="white" stroke="black" points="159.5,-175 159.5,-194 256.5,-194 256.5,-175 159.5,-175"/>
<text text-anchor="middle" x="208" y="-182" font-family="Helvetica,sans-Serif" font-size="10.00">WaveformTrimmer</text>
</a>
</g>
</g>
<!-- Node125&#45;&gt;Node10 -->
<g id="edge2" class="edge">
<title>Node125&#45;&gt;Node10</title>
<path fill="none" stroke="midnightblue" d="M104.37,-171.8C122.07,-173.99 141.83,-176.43 159.26,-178.59"/>
<polygon fill="midnightblue" stroke="midnightblue" points="104.59,-168.3 94.23,-170.54 103.73,-175.24 104.59,-168.3"/>
</g>
<!-- Node0 -->
<g id="node4" class="node">
<title>Node0</title>
<g id="a_node4"><a xlink:href="classSignalIntegrity_1_1Lib_1_1TimeDomain_1_1Filters_1_1WaveformProcessor_1_1WaveformProcessor.xhtml" target="_top" xlink:title="WaveformProcessor.py.">
<polygon fill="white" stroke="black" points="0,-99 0,-118 105,-118 105,-99 0,-99"/>
<text text-anchor="middle" x="52.5" y="-106" font-family="Helvetica,sans-Serif" font-size="10.00">WaveformProcessor</text>
</a>
</g>
</g>
<!-- Node0&#45;&gt;Node9 -->
<g id="edge11" class="edge">
<title>Node0&#45;&gt;Node9</title>
<path fill="none" stroke="midnightblue" d="M102.14,-120.54C123.58,-125.85 148.42,-132 168.54,-136.98"/>
<polygon fill="midnightblue" stroke="midnightblue" points="102.78,-117.09 92.23,-118.09 101.1,-123.89 102.78,-117.09"/>
</g>
<!-- Node0&#45;&gt;Node10 -->
<g id="edge12" class="edge">
<title>Node0&#45;&gt;Node10</title>
<path fill="none" stroke="midnightblue" d="M73.7,-124.16C90.81,-136.8 116.43,-154.27 141,-165.5 149.02,-169.17 157.92,-172.3 166.52,-174.91"/>
<polygon fill="midnightblue" stroke="midnightblue" points="75.67,-121.26 65.57,-118.05 71.46,-126.85 75.67,-121.26"/>
</g>
<!-- Node1 -->
<g id="node5" class="node">
<title>Node1</title>
<g id="a_node5"><a xlink:href="classSignalIntegrity_1_1Lib_1_1TimeDomain_1_1Filters_1_1FirFilter_1_1FirFilter.xhtml" target="_top" xlink:title="base filter class for all FIR filters">
<polygon fill="white" stroke="black" points="183,-99 183,-118 233,-118 233,-99 183,-99"/>
<text text-anchor="middle" x="208" y="-106" font-family="Helvetica,sans-Serif" font-size="10.00">FirFilter</text>
</a>
</g>
</g>
<!-- Node0&#45;&gt;Node1 -->
<g id="edge3" class="edge">
<title>Node0&#45;&gt;Node1</title>
<path fill="none" stroke="midnightblue" d="M115.08,-108.5C138.87,-108.5 164.69,-108.5 182.89,-108.5"/>
<polygon fill="midnightblue" stroke="midnightblue" points="115.04,-105 105.04,-108.5 115.04,-112 115.04,-105"/>
</g>
<!-- Node7 -->
<g id="node11" class="node">
<title>Node7</title>
<g id="a_node11"><a xlink:href="classSignalIntegrity_1_1Lib_1_1TimeDomain_1_1Filters_1_1InterpolatorLinear_1_1InterpolatorFractionalDelayFilterLinear.xhtml" target="_top" xlink:title="combination linear fractional delay and interpolating filter">
<polygon fill="white" stroke="black" points="141,-49.5 141,-79.5 275,-79.5 275,-49.5 141,-49.5"/>
<text text-anchor="start" x="149" y="-67.5" font-family="Helvetica,sans-Serif" font-size="10.00">InterpolatorFractionalDelay</text>
<text text-anchor="middle" x="208" y="-56.5" font-family="Helvetica,sans-Serif" font-size="10.00">FilterLinear</text>
</a>
</g>
</g>
<!-- Node0&#45;&gt;Node7 -->
<g id="edge9" class="edge">
<title>Node0&#45;&gt;Node7</title>
<path fill="none" stroke="midnightblue" d="M96.45,-96.19C114.44,-91.03 135.53,-84.99 154.44,-79.57"/>
<polygon fill="midnightblue" stroke="midnightblue" points="95.46,-92.83 86.81,-98.95 97.38,-99.56 95.46,-92.83"/>
</g>
<!-- Node8 -->
<g id="node12" class="node">
<title>Node8</title>
<g id="a_node12"><a xlink:href="classSignalIntegrity_1_1Lib_1_1TimeDomain_1_1Filters_1_1InterpolatorSinX_1_1InterpolatorFractionalDelayFilterSinX.xhtml" target="_top" xlink:title="combination sinx/x fractional delay and interpolating filter">
<polygon fill="white" stroke="black" points="141,-0.5 141,-30.5 275,-30.5 275,-0.5 141,-0.5"/>
<text text-anchor="start" x="149" y="-18.5" font-family="Helvetica,sans-Serif" font-size="10.00">InterpolatorFractionalDelay</text>
<text text-anchor="middle" x="208" y="-7.5" font-family="Helvetica,sans-Serif" font-size="10.00">FilterSinX</text>
</a>
</g>
</g>
<!-- Node0&#45;&gt;Node8 -->
<g id="edge10" class="edge">
<title>Node0&#45;&gt;Node8</title>
<path fill="none" stroke="midnightblue" d="M70.92,-91.98C87.77,-76.71 114.57,-54.23 141,-39.5 146.86,-36.24 153.25,-33.27 159.66,-30.62"/>
<polygon fill="midnightblue" stroke="midnightblue" points="68.47,-89.48 63.5,-98.83 73.22,-94.62 68.47,-89.48"/>
</g>
<!-- Node2 -->
<g id="node6" class="node">
<title>Node2</title>
<g id="a_node6"><a xlink:href="classSignalIntegrity_1_1Lib_1_1TimeDomain_1_1Filters_1_1InterpolatorLinear_1_1FractionalDelayFilterLinear.xhtml" target="_top" xlink:title="linear fractional delay filter">
<polygon fill="white" stroke="black" points="311,-175 311,-194 444,-194 444,-175 311,-175"/>
<text text-anchor="middle" x="377.5" y="-182" font-family="Helvetica,sans-Serif" font-size="10.00">FractionalDelayFilterLinear</text>
</a>
</g>
</g>
<!-- Node1&#45;&gt;Node2 -->
<g id="edge4" class="edge">
<title>Node1&#45;&gt;Node2</title>
<path fill="none" stroke="midnightblue" d="M243.09,-114.63C253.8,-117.5 265.35,-121.63 275,-127.5 294.88,-139.59 291.13,-153.39 311,-165.5 317.27,-169.32 324.34,-172.41 331.46,-174.89"/>
<polygon fill="midnightblue" stroke="midnightblue" points="243.7,-111.18 233.16,-112.25 242.06,-117.99 243.7,-111.18"/>
</g>
<!-- Node3 -->
<g id="node7" class="node">
<title>Node3</title>
<g id="a_node7"><a xlink:href="classSignalIntegrity_1_1Lib_1_1TimeDomain_1_1Filters_1_1InterpolatorLinear_1_1InterpolatorLinear.xhtml" target="_top" xlink:title="linear interpolating filter">
<polygon fill="white" stroke="black" points="331.5,-137 331.5,-156 423.5,-156 423.5,-137 331.5,-137"/>
<text text-anchor="middle" x="377.5" y="-144" font-family="Helvetica,sans-Serif" font-size="10.00">InterpolatorLinear</text>
</a>
</g>
</g>
<!-- Node1&#45;&gt;Node3 -->
<g id="edge5" class="edge">
<title>Node1&#45;&gt;Node3</title>
<path fill="none" stroke="midnightblue" d="M243.3,-116.28C269.74,-122.28 306.42,-130.6 334.6,-136.99"/>
<polygon fill="midnightblue" stroke="midnightblue" points="243.88,-112.82 233.36,-114.03 242.33,-119.65 243.88,-112.82"/>
</g>
<!-- Node4 -->
<g id="node8" class="node">
<title>Node4</title>
<g id="a_node8"><a xlink:href="classSignalIntegrity_1_1Lib_1_1TimeDomain_1_1Filters_1_1InterpolatorSinX_1_1FractionalDelayFilterSinX.xhtml" target="_top" xlink:title="sinx/x fractional delay filter">
<polygon fill="white" stroke="black" points="313.5,-99 313.5,-118 441.5,-118 441.5,-99 313.5,-99"/>
<text text-anchor="middle" x="377.5" y="-106" font-family="Helvetica,sans-Serif" font-size="10.00">FractionalDelayFilterSinX</text>
</a>
</g>
</g>
<!-- Node1&#45;&gt;Node4 -->
<g id="edge6" class="edge">
<title>Node1&#45;&gt;Node4</title>
<path fill="none" stroke="midnightblue" d="M243.6,-108.5C263.74,-108.5 289.75,-108.5 313.42,-108.5"/>
<polygon fill="midnightblue" stroke="midnightblue" points="243.36,-105 233.36,-108.5 243.36,-112 243.36,-105"/>
</g>
<!-- Node5 -->
<g id="node9" class="node">
<title>Node5</title>
<g id="a_node9"><a xlink:href="classSignalIntegrity_1_1Lib_1_1TimeDomain_1_1Filters_1_1InterpolatorSinX_1_1InterpolatorSinX.xhtml" target="_top" xlink:title="sinx/x interpolating filter">
<polygon fill="white" stroke="black" points="334.5,-61 334.5,-80 420.5,-80 420.5,-61 334.5,-61"/>
<text text-anchor="middle" x="377.5" y="-68" font-family="Helvetica,sans-Serif" font-size="10.00">InterpolatorSinX</text>
</a>
</g>
</g>
<!-- Node1&#45;&gt;Node5 -->
<g id="edge7" class="edge">
<title>Node1&#45;&gt;Node5</title>
<path fill="none" stroke="midnightblue" d="M243.3,-100.72C269.74,-94.72 306.42,-86.4 334.6,-80.01"/>
<polygon fill="midnightblue" stroke="midnightblue" points="242.33,-97.35 233.36,-102.97 243.88,-104.18 242.33,-97.35"/>
</g>
<!-- Node6 -->
<g id="node10" class="node">
<title>Node6</title>
<g id="a_node10"><a xlink:href="classSignalIntegrity_1_1Lib_1_1TimeDomain_1_1Filters_1_1RaisedCosineFilter_1_1RaisedCosineFilter.xhtml" target="_top" xlink:title="raised cosine filter">
<polygon fill="white" stroke="black" points="327.5,-23 327.5,-42 427.5,-42 427.5,-23 327.5,-23"/>
<text text-anchor="middle" x="377.5" y="-30" font-family="Helvetica,sans-Serif" font-size="10.00">RaisedCosineFilter</text>
</a>
</g>
</g>
<!-- Node1&#45;&gt;Node6 -->
<g id="edge8" class="edge">
<title>Node1&#45;&gt;Node6</title>
<path fill="none" stroke="midnightblue" d="M243.09,-102.37C253.8,-99.5 265.35,-95.37 275,-89.5 294.88,-77.41 291.13,-63.61 311,-51.5 317.27,-47.68 324.34,-44.59 331.46,-42.11"/>
<polygon fill="midnightblue" stroke="midnightblue" points="242.06,-99.01 233.16,-104.75 243.7,-105.82 242.06,-99.01"/>
</g>
</g>
</svg>
