<?xml version="1.0" encoding="UTF-8" standalone="no"?>
<!DOCTYPE svg PUBLIC "-//W3C//DTD SVG 1.1//EN"
 "http://www.w3.org/Graphics/SVG/1.1/DTD/svg11.dtd">
<!-- Generated by graphviz version 2.40.1 (20161225.0304)
 -->
<!-- Title: Graphical Class Hierarchy Pages: 1 -->
<svg width="761pt" height="218pt"
 viewBox="0.00 0.00 761.00 218.00" xmlns="http://www.w3.org/2000/svg" xmlns:xlink="http://www.w3.org/1999/xlink">
<g id="graph0" class="graph" transform="scale(1 1) rotate(0) translate(4 214)">
<title>Graphical Class Hierarchy</title>
<polygon fill="#ffffff" stroke="transparent" points="-4,4 -4,-214 757,-214 757,4 -4,4"/>
<!-- Node46 -->
<g id="node1" class="node">
<title>Node46</title>
<g id="a_node1"><a xlink:href="classSignalIntegrity_1_1Lib_1_1SystemDescriptions_1_1Symbolic_1_1Symbolic.xhtml" target="_top" xlink:title="base class for all symbolic solutions. ">
<polygon fill="#ffffff" stroke="#000000" points="161,-133.5 161,-152.5 218,-152.5 218,-133.5 161,-133.5"/>
<text text-anchor="middle" x="189.5" y="-140.5" font-family="Helvetica,sans-Serif" font-size="10.00" fill="#000000">Symbolic</text>
</a>
</g>
</g>
<!-- Node4 -->
<g id="node2" class="node">
<title>Node4</title>
<g id="a_node2"><a xlink:href="classSignalIntegrity_1_1Lib_1_1SystemDescriptions_1_1DeembedderSymbolic_1_1DeembedderSymbolic.xhtml" target="_top" xlink:title="Produces symbolic solutions to deembedding problems. ">
<polygon fill="#ffffff" stroke="#000000" points="476.5,-190.5 476.5,-209.5 589.5,-209.5 589.5,-190.5 476.5,-190.5"/>
<text text-anchor="middle" x="533" y="-197.5" font-family="Helvetica,sans-Serif" font-size="10.00" fill="#000000">DeembedderSymbolic</text>
</a>
</g>
</g>
<!-- Node46&#45;&gt;Node4 -->
<g id="edge1" class="edge">
<title>Node46&#45;&gt;Node4</title>
<path fill="none" stroke="#191970" d="M216.0678,-157.0006C233.4717,-165.48 256.9923,-175.6589 279,-181 345.5007,-197.1393 424.4174,-200.7092 476.4393,-201.0085"/>
<polygon fill="#191970" stroke="#191970" points="217.5864,-153.8468 207.0767,-152.5061 214.4565,-160.1081 217.5864,-153.8468"/>
</g>
<!-- Node11 -->
<g id="node3" class="node">
<title>Node11</title>
<g id="a_node3"><a xlink:href="classSignalIntegrity_1_1Lib_1_1SystemDescriptions_1_1SystemDescriptionSymbolic_1_1SystemDescriptionSymbolic.xhtml" target="_top" xlink:title="Solves system descriptions in the most basic manner common to all of the simulation, system s&#45;parameters, deembedding and virtual probing applications. ">
<polygon fill="#ffffff" stroke="#000000" points="281,-114.5 281,-133.5 421,-133.5 421,-114.5 281,-114.5"/>
<text text-anchor="middle" x="351" y="-121.5" font-family="Helvetica,sans-Serif" font-size="10.00" fill="#000000">SystemDescriptionSymbolic</text>
</a>
</g>
</g>
<!-- Node46&#45;&gt;Node11 -->
<g id="edge2" class="edge">
<title>Node46&#45;&gt;Node11</title>
<path fill="none" stroke="#191970" d="M227.9372,-138.478C243.7806,-136.6141 262.6527,-134.3938 280.8014,-132.2587"/>
<polygon fill="#191970" stroke="#191970" points="227.5237,-135.0024 218.0012,-139.6469 228.3417,-141.9544 227.5237,-135.0024"/>
</g>
<!-- Node12 -->
<g id="node4" class="node">
<title>Node12</title>
<g id="a_node4"><a xlink:href="classSignalIntegrity_1_1Lib_1_1SystemDescriptions_1_1SystemSParametersSymbolic_1_1SystemSParametersSymbolic.xhtml" target="_top" xlink:title="Class for solving symbolically the s&#45;parameters of interconnected systems. ">
<polygon fill="#ffffff" stroke="#000000" points="459,-114.5 459,-133.5 607,-133.5 607,-114.5 459,-114.5"/>
<text text-anchor="middle" x="533" y="-121.5" font-family="Helvetica,sans-Serif" font-size="10.00" fill="#000000">SystemSParametersSymbolic</text>
</a>
</g>
</g>
<!-- Node11&#45;&gt;Node12 -->
<g id="edge3" class="edge">
<title>Node11&#45;&gt;Node12</title>
<path fill="none" stroke="#191970" d="M431.3105,-124C440.4213,-124 449.677,-124 458.7055,-124"/>
<polygon fill="#191970" stroke="#191970" points="431.1057,-120.5001 421.1056,-124 431.1056,-127.5001 431.1057,-120.5001"/>
</g>
<!-- Node13 -->
<g id="node5" class="node">
<title>Node13</title>
<g id="a_node5"><a xlink:href="classSignalIntegrity_1_1Lib_1_1SystemDescriptions_1_1SimulatorSymbolic_1_1SimulatorSymbolic.xhtml" target="_top" xlink:title="class for producing symbolic solutions to simulation problems. ">
<polygon fill="#ffffff" stroke="#000000" points="649,-104.5 649,-123.5 747,-123.5 747,-104.5 649,-104.5"/>
<text text-anchor="middle" x="698" y="-111.5" font-family="Helvetica,sans-Serif" font-size="10.00" fill="#000000">SimulatorSymbolic</text>
</a>
</g>
</g>
<!-- Node12&#45;&gt;Node13 -->
<g id="edge4" class="edge">
<title>Node12&#45;&gt;Node13</title>
<path fill="none" stroke="#191970" d="M617.5195,-118.8776C628.1945,-118.2306 638.8244,-117.5864 648.6936,-116.9883"/>
<polygon fill="#191970" stroke="#191970" points="617.0642,-115.3987 607.2943,-119.4973 617.4878,-122.3859 617.0642,-115.3987"/>
</g>
<!-- Node14 -->
<g id="node6" class="node">
<title>Node14</title>
<g id="a_node6"><a xlink:href="classSignalIntegrity_1_1Lib_1_1SystemDescriptions_1_1VirtualProbeSymbolic_1_1VirtualProbeSymbolic.xhtml" target="_top" xlink:title="Class that provides symbolic solutions to virtual probe problems. ">
<polygon fill="#ffffff" stroke="#000000" points="643,-57.5 643,-76.5 753,-76.5 753,-57.5 643,-57.5"/>
<text text-anchor="middle" x="698" y="-64.5" font-family="Helvetica,sans-Serif" font-size="10.00" fill="#000000">VirtualProbeSymbolic</text>
</a>
</g>
</g>
<!-- Node12&#45;&gt;Node14 -->
<g id="edge5" class="edge">
<title>Node12&#45;&gt;Node14</title>
<path fill="none" stroke="#191970" d="M570.4245,-111.0715C600.7842,-100.5836 642.8956,-86.0361 670.2926,-76.5716"/>
<polygon fill="#191970" stroke="#191970" points="568.9264,-107.886 560.6173,-114.4595 571.212,-114.5024 568.9264,-107.886"/>
</g>
<!-- Node0 -->
<g id="node7" class="node">
<title>Node0</title>
<g id="a_node7"><a xlink:href="classSignalIntegrity_1_1Lib_1_1SystemDescriptions_1_1SystemDescription_1_1SystemDescription.xhtml" target="_top" xlink:title="Allows the construction of system descriptions for use with all of the classes that solve schematics ...">
<polygon fill="#ffffff" stroke="#000000" points="0,-95.5 0,-114.5 100,-114.5 100,-95.5 0,-95.5"/>
<text text-anchor="middle" x="50" y="-102.5" font-family="Helvetica,sans-Serif" font-size="10.00" fill="#000000">SystemDescription</text>
</a>
</g>
</g>
<!-- Node1 -->
<g id="node8" class="node">
<title>Node1</title>
<g id="a_node8"><a xlink:href="classSignalIntegrity_1_1Lib_1_1SystemDescriptions_1_1SystemSParameters_1_1SystemSParameters.xhtml" target="_top" xlink:title="base class for housekeeping involving system s&#45;parameters calculations ">
<polygon fill="#ffffff" stroke="#000000" points="136,-95.5 136,-114.5 243,-114.5 243,-95.5 136,-95.5"/>
<text text-anchor="middle" x="189.5" y="-102.5" font-family="Helvetica,sans-Serif" font-size="10.00" fill="#000000">SystemSParameters</text>
</a>
</g>
</g>
<!-- Node0&#45;&gt;Node1 -->
<g id="edge6" class="edge">
<title>Node0&#45;&gt;Node1</title>
<path fill="none" stroke="#191970" d="M110.5381,-105C118.9826,-105 127.6105,-105 135.9148,-105"/>
<polygon fill="#191970" stroke="#191970" points="110.3627,-101.5001 100.3627,-105 110.3627,-108.5001 110.3627,-101.5001"/>
</g>
<!-- Node1&#45;&gt;Node11 -->
<g id="edge16" class="edge">
<title>Node1&#45;&gt;Node11</title>
<path fill="none" stroke="#191970" d="M253.3142,-112.5076C262.3379,-113.5692 271.6571,-114.6655 280.7931,-115.7404"/>
<polygon fill="#191970" stroke="#191970" points="253.6176,-109.0192 243.2772,-111.3267 252.7997,-115.9713 253.6176,-109.0192"/>
</g>
<!-- Node2 -->
<g id="node9" class="node">
<title>Node2</title>
<g id="a_node9"><a xlink:href="classSignalIntegrity_1_1Lib_1_1SystemDescriptions_1_1Deembedder_1_1Deembedder.xhtml" target="_top" xlink:title="housekeeping base class for deembedders ">
<polygon fill="#ffffff" stroke="#000000" points="315,-152.5 315,-171.5 387,-171.5 387,-152.5 315,-152.5"/>
<text text-anchor="middle" x="351" y="-159.5" font-family="Helvetica,sans-Serif" font-size="10.00" fill="#000000">Deembedder</text>
</a>
</g>
</g>
<!-- Node1&#45;&gt;Node2 -->
<g id="edge7" class="edge">
<title>Node1&#45;&gt;Node2</title>
<path fill="none" stroke="#191970" d="M228.2165,-117.9996C233.2342,-119.9029 238.2698,-121.9247 243,-124 259.5674,-131.2685 262.1445,-136.4272 279,-143 290.4423,-147.462 303.3074,-151.2288 314.9637,-154.202"/>
<polygon fill="#191970" stroke="#191970" points="229.268,-114.6574 218.6743,-114.5027 226.8593,-121.2299 229.268,-114.6574"/>
</g>
<!-- Node5 -->
<g id="node11" class="node">
<title>Node5</title>
<g id="a_node11"><a xlink:href="classSignalIntegrity_1_1Lib_1_1SystemDescriptions_1_1Simulator_1_1Simulator.xhtml" target="_top" xlink:title="Base class for dealing with housekeeping for simulations. ">
<polygon fill="#ffffff" stroke="#000000" points="322,-76.5 322,-95.5 380,-95.5 380,-76.5 322,-76.5"/>
<text text-anchor="middle" x="351" y="-83.5" font-family="Helvetica,sans-Serif" font-size="10.00" fill="#000000">Simulator</text>
</a>
</g>
</g>
<!-- Node1&#45;&gt;Node5 -->
<g id="edge10" class="edge">
<title>Node1&#45;&gt;Node5</title>
<path fill="none" stroke="#191970" d="M253.2942,-97.4948C277.0186,-94.7037 302.7879,-91.672 321.9026,-89.4232"/>
<polygon fill="#191970" stroke="#191970" points="252.7997,-94.0287 243.2772,-98.6733 253.6176,-100.9808 252.7997,-94.0287"/>
</g>
<!-- Node15 -->
<g id="node15" class="node">
<title>Node15</title>
<g id="a_node15"><a xlink:href="classSignalIntegrity_1_1Lib_1_1SystemDescriptions_1_1SystemSParametersNumeric_1_1SystemSParametersNumeric.xhtml" target="_top" xlink:title="Class for computing s&#45;parameters of interconnected systems. ">
<polygon fill="#ffffff" stroke="#000000" points="279,-38.5 279,-57.5 423,-57.5 423,-38.5 279,-38.5"/>
<text text-anchor="middle" x="351" y="-45.5" font-family="Helvetica,sans-Serif" font-size="10.00" fill="#000000">SystemSParametersNumeric</text>
</a>
</g>
</g>
<!-- Node1&#45;&gt;Node15 -->
<g id="edge17" class="edge">
<title>Node1&#45;&gt;Node15</title>
<path fill="none" stroke="#191970" d="M219.2978,-91.077C236.5095,-83.3578 258.7066,-73.9456 279,-67 289.152,-63.5254 300.2896,-60.3066 310.7064,-57.543"/>
<polygon fill="#191970" stroke="#191970" points="217.4492,-88.0725 209.792,-95.3949 220.3442,-94.4458 217.4492,-88.0725"/>
</g>
<!-- Node2&#45;&gt;Node4 -->
<g id="edge9" class="edge">
<title>Node2&#45;&gt;Node4</title>
<path fill="none" stroke="#191970" d="M397.2079,-171.6478C424.8229,-177.4136 459.7696,-184.7101 487.2949,-190.4572"/>
<polygon fill="#191970" stroke="#191970" points="397.8973,-168.2163 387.393,-169.5985 396.4665,-175.0686 397.8973,-168.2163"/>
</g>
<!-- Node3 -->
<g id="node10" class="node">
<title>Node3</title>
<g id="a_node10"><a xlink:href="classSignalIntegrity_1_1Lib_1_1SystemDescriptions_1_1DeembedderNumeric_1_1DeembedderNumeric.xhtml" target="_top" xlink:title="Performs numerical device deembedding. ">
<polygon fill="#ffffff" stroke="#000000" points="478.5,-152.5 478.5,-171.5 587.5,-171.5 587.5,-152.5 478.5,-152.5"/>
<text text-anchor="middle" x="533" y="-159.5" font-family="Helvetica,sans-Serif" font-size="10.00" fill="#000000">DeembedderNumeric</text>
</a>
</g>
</g>
<!-- Node2&#45;&gt;Node3 -->
<g id="edge8" class="edge">
<title>Node2&#45;&gt;Node3</title>
<path fill="none" stroke="#191970" d="M397.5703,-162C422.2111,-162 452.6114,-162 478.3622,-162"/>
<polygon fill="#191970" stroke="#191970" points="397.393,-158.5001 387.393,-162 397.393,-165.5001 397.393,-158.5001"/>
</g>
<!-- Node5&#45;&gt;Node13 -->
<g id="edge12" class="edge">
<title>Node5&#45;&gt;Node13</title>
<path fill="none" stroke="#191970" d="M390.3063,-88.6171C440.5776,-92.0332 530.3134,-98.363 607,-105 620.6022,-106.1772 635.3352,-107.5792 648.9041,-108.922"/>
<polygon fill="#191970" stroke="#191970" points="390.4103,-85.1162 380.1968,-87.9333 389.9378,-92.1002 390.4103,-85.1162"/>
</g>
<!-- Node6 -->
<g id="node12" class="node">
<title>Node6</title>
<g id="a_node12"><a xlink:href="classSignalIntegrity_1_1Lib_1_1SystemDescriptions_1_1SimulatorNumeric_1_1SimulatorNumeric.xhtml" target="_top" xlink:title="class for performing numeric simulations ">
<polygon fill="#ffffff" stroke="#000000" points="485.5,-38.5 485.5,-57.5 580.5,-57.5 580.5,-38.5 485.5,-38.5"/>
<text text-anchor="middle" x="533" y="-45.5" font-family="Helvetica,sans-Serif" font-size="10.00" fill="#000000">SimulatorNumeric</text>
</a>
</g>
</g>
<!-- Node5&#45;&gt;Node6 -->
<g id="edge11" class="edge">
<title>Node5&#45;&gt;Node6</title>
<path fill="none" stroke="#191970" d="M390.2681,-77.8012C418.8291,-71.8379 457.5705,-63.749 487.4846,-57.5032"/>
<polygon fill="#191970" stroke="#191970" points="389.315,-74.4246 380.2414,-79.8946 390.7457,-81.2768 389.315,-74.4246"/>
</g>
<!-- Node8 -->
<g id="node13" class="node">
<title>Node8</title>
<g id="a_node13"><a xlink:href="classSignalIntegrity_1_1Lib_1_1SystemDescriptions_1_1VirtualProbe_1_1VirtualProbe.xhtml" target="_top" xlink:title="Base class for virtual probing. ">
<polygon fill="#ffffff" stroke="#000000" points="498,-.5 498,-19.5 568,-19.5 568,-.5 498,-.5"/>
<text text-anchor="middle" x="533" y="-7.5" font-family="Helvetica,sans-Serif" font-size="10.00" fill="#000000">VirtualProbe</text>
</a>
</g>
</g>
<!-- Node5&#45;&gt;Node8 -->
<g id="edge13" class="edge">
<title>Node5&#45;&gt;Node8</title>
<path fill="none" stroke="#191970" d="M390.0933,-79.8393C401.2331,-77.0057 413.0388,-72.9064 423,-67 443.0111,-55.1346 438.9493,-40.7985 459,-29 470.7746,-22.0714 485.0535,-17.6424 497.9154,-14.8233"/>
<polygon fill="#191970" stroke="#191970" points="389.1,-76.4757 380.1221,-82.1014 390.6487,-83.3022 389.1,-76.4757"/>
</g>
<!-- Node8&#45;&gt;Node14 -->
<g id="edge15" class="edge">
<title>Node8&#45;&gt;Node14</title>
<path fill="none" stroke="#191970" d="M578.1191,-20.4789C587.7273,-23.0177 597.7595,-25.9024 607,-29 631.6741,-37.2713 659.1287,-49.1169 677.3635,-57.3764"/>
<polygon fill="#191970" stroke="#191970" points="578.8668,-17.0575 568.3108,-17.964 577.1281,-23.8381 578.8668,-17.0575"/>
</g>
<!-- Node9 -->
<g id="node14" class="node">
<title>Node9</title>
<g id="a_node14"><a xlink:href="classSignalIntegrity_1_1Lib_1_1SystemDescriptions_1_1VirtualProbeNumeric_1_1VirtualProbeNumeric.xhtml" target="_top" xlink:title="class for performing virtual probing numerically. ">
<polygon fill="#ffffff" stroke="#000000" points="644.5,-.5 644.5,-19.5 751.5,-19.5 751.5,-.5 644.5,-.5"/>
<text text-anchor="middle" x="698" y="-7.5" font-family="Helvetica,sans-Serif" font-size="10.00" fill="#000000">VirtualProbeNumeric</text>
</a>
</g>
</g>
<!-- Node8&#45;&gt;Node9 -->
<g id="edge14" class="edge">
<title>Node8&#45;&gt;Node9</title>
<path fill="none" stroke="#191970" d="M578.3987,-10C598.8459,-10 623.1337,-10 644.4631,-10"/>
<polygon fill="#191970" stroke="#191970" points="578.3967,-6.5001 568.3966,-10 578.3966,-13.5001 578.3967,-6.5001"/>
</g>
</g>
</svg>
