<?xml version="1.0" encoding="UTF-8" standalone="no"?>
<!DOCTYPE svg PUBLIC "-//W3C//DTD SVG 1.1//EN"
 "http://www.w3.org/Graphics/SVG/1.1/DTD/svg11.dtd">
<!-- Generated by graphviz version 2.40.1 (20161225.0304)
 -->
<!-- Title: Graphical Class Hierarchy Pages: 1 -->
<svg width="263pt" height="66pt"
 viewBox="0.00 0.00 263.00 66.00" xmlns="http://www.w3.org/2000/svg" xmlns:xlink="http://www.w3.org/1999/xlink">
<g id="graph0" class="graph" transform="scale(1 1) rotate(0) translate(4 62)">
<title>Graphical Class Hierarchy</title>
<polygon fill="#ffffff" stroke="transparent" points="-4,4 -4,-62 259,-62 259,4 -4,4"/>
<!-- Node0 -->
<g id="node1" class="node">
<title>Node0</title>
<g id="a_node1"><a xlink:href="classSignalIntegrity_1_1Lib_1_1FrequencyDomain_1_1FrequencyList_1_1FrequencyList.xhtml" target="_top" xlink:title="Frequency lists. ">
<polygon fill="#ffffff" stroke="#000000" points="0,-19.5 0,-38.5 78,-38.5 78,-19.5 0,-19.5"/>
<text text-anchor="middle" x="39" y="-26.5" font-family="Helvetica,sans-Serif" font-size="10.00" fill="#000000">FrequencyList</text>
</a>
</g>
</g>
<!-- Node1 -->
<g id="node2" class="node">
<title>Node1</title>
<g id="a_node2"><a xlink:href="classSignalIntegrity_1_1Lib_1_1FrequencyDomain_1_1FrequencyList_1_1EvenlySpacedFrequencyList.xhtml" target="_top" xlink:title="A evenly spaced list of frequencies. ">
<polygon fill="#ffffff" stroke="#000000" points="114,-38.5 114,-57.5 255,-57.5 255,-38.5 114,-38.5"/>
<text text-anchor="middle" x="184.5" y="-45.5" font-family="Helvetica,sans-Serif" font-size="10.00" fill="#000000">EvenlySpacedFrequencyList</text>
</a>
</g>
</g>
<!-- Node0&#45;&gt;Node1 -->
<g id="edge1" class="edge">
<title>Node0&#45;&gt;Node1</title>
<path fill="none" stroke="#191970" d="M88.5025,-35.4642C96.7135,-36.5365 105.3659,-37.6663 113.9768,-38.7908"/>
<polygon fill="#191970" stroke="#191970" points="88.7434,-31.9661 78.3744,-34.1417 87.837,-38.9071 88.7434,-31.9661"/>
</g>
<!-- Node2 -->
<g id="node3" class="node">
<title>Node2</title>
<g id="a_node3"><a xlink:href="classSignalIntegrity_1_1Lib_1_1FrequencyDomain_1_1FrequencyList_1_1GenericFrequencyList.xhtml" target="_top" xlink:title="A generic list of frequencies assumed to be not evenly spaced. ">
<polygon fill="#ffffff" stroke="#000000" points="128.5,-.5 128.5,-19.5 240.5,-19.5 240.5,-.5 128.5,-.5"/>
<text text-anchor="middle" x="184.5" y="-7.5" font-family="Helvetica,sans-Serif" font-size="10.00" fill="#000000">GenericFrequencyList</text>
</a>
</g>
</g>
<!-- Node0&#45;&gt;Node2 -->
<g id="edge2" class="edge">
<title>Node0&#45;&gt;Node2</title>
<path fill="none" stroke="#191970" d="M88.4252,-22.5459C101.2931,-20.8655 115.2497,-19.043 128.4337,-17.3214"/>
<polygon fill="#191970" stroke="#191970" points="87.837,-19.0929 78.3744,-23.8583 88.7434,-26.0339 87.837,-19.0929"/>
</g>
</g>
</svg>
