<?xml version="1.0" encoding="UTF-8" standalone="no"?>
<!DOCTYPE svg PUBLIC "-//W3C//DTD SVG 1.1//EN"
 "http://www.w3.org/Graphics/SVG/1.1/DTD/svg11.dtd">
<!-- Generated by graphviz version 2.43.0 (0)
 -->
<!-- Title: Graphical Class Hierarchy Pages: 1 -->
<svg width="386pt" height="142pt"
 viewBox="0.00 0.00 386.00 142.00" xmlns="http://www.w3.org/2000/svg" xmlns:xlink="http://www.w3.org/1999/xlink">
<g id="graph0" class="graph" transform="scale(1 1) rotate(0) translate(4 138)">
<title>Graphical Class Hierarchy</title>
<polygon fill="white" stroke="transparent" points="-4,4 -4,-138 382,-138 382,4 -4,4"/>
<!-- Node0 -->
<g id="node1" class="node">
<title>Node0</title>
<g id="a_node1"><a xlink:href="classSignalIntegrity_1_1Lib_1_1Measurement_1_1Calibration_1_1CalibrationMeasurements_1_1CalibrationMeasurement.xhtml" target="_top" xlink:title="Calibration Measurements.">
<polygon fill="white" stroke="black" points="0,-57.5 0,-76.5 137,-76.5 137,-57.5 0,-57.5"/>
<text text-anchor="middle" x="68.5" y="-64.5" font-family="Helvetica,sans-Serif" font-size="10.00">CalibrationMeasurement</text>
</a>
</g>
</g>
<!-- Node1 -->
<g id="node2" class="node">
<title>Node1</title>
<g id="a_node2"><a xlink:href="classSignalIntegrity_1_1Lib_1_1Measurement_1_1Calibration_1_1CalibrationMeasurements_1_1ReflectCalibrationMeasurement.xhtml" target="_top" xlink:title="A reflect measurement taken on a port with a reflect standard (like short, open, or load).">
<polygon fill="white" stroke="black" points="189.5,-114.5 189.5,-133.5 361.5,-133.5 361.5,-114.5 189.5,-114.5"/>
<text text-anchor="middle" x="275.5" y="-121.5" font-family="Helvetica,sans-Serif" font-size="10.00">ReflectCalibrationMeasurement</text>
</a>
</g>
</g>
<!-- Node0&#45;&gt;Node1 -->
<g id="edge1" class="edge">
<title>Node0&#45;&gt;Node1</title>
<path fill="none" stroke="midnightblue" d="M101.52,-80.33C121.74,-88.35 148.57,-98.28 173,-105 186.31,-108.66 200.8,-111.84 214.55,-114.49"/>
<polygon fill="midnightblue" stroke="midnightblue" points="102.75,-77.05 92.16,-76.57 100.13,-83.55 102.75,-77.05"/>
</g>
<!-- Node2 -->
<g id="node3" class="node">
<title>Node2</title>
<g id="a_node3"><a xlink:href="classSignalIntegrity_1_1Lib_1_1Measurement_1_1Calibration_1_1CalibrationMeasurements_1_1ThruCalibrationMeasurement.xhtml" target="_top" xlink:title="A thru calibration measurement taken between two ports.">
<polygon fill="white" stroke="black" points="196,-76.5 196,-95.5 355,-95.5 355,-76.5 196,-76.5"/>
<text text-anchor="middle" x="275.5" y="-83.5" font-family="Helvetica,sans-Serif" font-size="10.00">ThruCalibrationMeasurement</text>
</a>
</g>
</g>
<!-- Node0&#45;&gt;Node2 -->
<g id="edge2" class="edge">
<title>Node0&#45;&gt;Node2</title>
<path fill="none" stroke="midnightblue" d="M147.47,-74.23C163.31,-75.69 179.99,-77.24 195.86,-78.71"/>
<polygon fill="midnightblue" stroke="midnightblue" points="147.47,-70.71 137.19,-73.27 146.83,-77.68 147.47,-70.71"/>
</g>
<!-- Node3 -->
<g id="node4" class="node">
<title>Node3</title>
<g id="a_node4"><a xlink:href="classSignalIntegrity_1_1Lib_1_1Measurement_1_1Calibration_1_1CalibrationMeasurements_1_1UnknownThruCalibrationMeasurement.xhtml" target="_top" xlink:title="An unknown thru calibration measurement taken between two ports.">
<polygon fill="white" stroke="black" points="173,-38.5 173,-57.5 378,-57.5 378,-38.5 173,-38.5"/>
<text text-anchor="middle" x="275.5" y="-45.5" font-family="Helvetica,sans-Serif" font-size="10.00">UnknownThruCalibrationMeasurement</text>
</a>
</g>
</g>
<!-- Node0&#45;&gt;Node3 -->
<g id="edge3" class="edge">
<title>Node0&#45;&gt;Node3</title>
<path fill="none" stroke="midnightblue" d="M147.25,-59.79C155.61,-59.02 164.2,-58.22 172.78,-57.43"/>
<polygon fill="midnightblue" stroke="midnightblue" points="146.83,-56.32 137.19,-60.73 147.47,-63.29 146.83,-56.32"/>
</g>
<!-- Node4 -->
<g id="node5" class="node">
<title>Node4</title>
<g id="a_node5"><a xlink:href="classSignalIntegrity_1_1Lib_1_1Measurement_1_1Calibration_1_1CalibrationMeasurements_1_1XtalkCalibrationMeasurement.xhtml" target="_top" xlink:title="A crosstalk calibration measurement typically taken between two ports that are completely unconnected...">
<polygon fill="white" stroke="black" points="194,-0.5 194,-19.5 357,-19.5 357,-0.5 194,-0.5"/>
<text text-anchor="middle" x="275.5" y="-7.5" font-family="Helvetica,sans-Serif" font-size="10.00">XtalkCalibrationMeasurement</text>
</a>
</g>
</g>
<!-- Node0&#45;&gt;Node4 -->
<g id="edge4" class="edge">
<title>Node0&#45;&gt;Node4</title>
<path fill="none" stroke="midnightblue" d="M101.52,-53.67C121.74,-45.65 148.57,-35.72 173,-29 186.31,-25.34 200.8,-22.16 214.55,-19.51"/>
<polygon fill="midnightblue" stroke="midnightblue" points="100.13,-50.45 92.16,-57.43 102.75,-56.95 100.13,-50.45"/>
</g>
</g>
</svg>
