<?xml version="1.0" encoding="UTF-8" standalone="no"?>
<!DOCTYPE svg PUBLIC "-//W3C//DTD SVG 1.1//EN"
 "http://www.w3.org/Graphics/SVG/1.1/DTD/svg11.dtd">
<!-- Generated by graphviz version 2.43.0 (0)
 -->
<!-- Title: Graphical Class Hierarchy Pages: 1 -->
<svg width="652pt" height="978pt"
 viewBox="0.00 0.00 652.00 978.00" xmlns="http://www.w3.org/2000/svg" xmlns:xlink="http://www.w3.org/1999/xlink">
<g id="graph0" class="graph" transform="scale(1 1) rotate(0) translate(4 974)">
<title>Graphical Class Hierarchy</title>
<polygon fill="white" stroke="transparent" points="-4,4 -4,-974 648,-974 648,4 -4,4"/>
<!-- Node55 -->
<g id="node1" class="node">
<title>Node55</title>
<g id="a_node1"><a xlink:href="classSignalIntegrity_1_1Lib_1_1SParameters_1_1SParameterManipulation_1_1SParameterManipulation.xhtml" target="_top" xlink:title="Class for manipulations on s&#45;parameters involving passivity, causality, etc.">
<polygon fill="white" stroke="black" points="0,-475.5 0,-494.5 137,-494.5 137,-475.5 0,-475.5"/>
<text text-anchor="middle" x="68.5" y="-482.5" font-family="Helvetica,sans-Serif" font-size="10.00">SParameterManipulation</text>
</a>
</g>
</g>
<!-- Node56 -->
<g id="node2" class="node">
<title>Node56</title>
<g id="a_node2"><a xlink:href="classSignalIntegrity_1_1Lib_1_1SParameters_1_1SParameters_1_1SParameters.xhtml" target="_top" xlink:title="Class containing s&#45;parameters.">
<polygon fill="white" stroke="black" points="198,-475.5 198,-494.5 277,-494.5 277,-475.5 198,-475.5"/>
<text text-anchor="middle" x="237.5" y="-482.5" font-family="Helvetica,sans-Serif" font-size="10.00">SParameters</text>
</a>
</g>
</g>
<!-- Node55&#45;&gt;Node56 -->
<g id="edge1" class="edge">
<title>Node55&#45;&gt;Node56</title>
<path fill="none" stroke="midnightblue" d="M147.64,-485C165.09,-485 182.86,-485 197.87,-485"/>
<polygon fill="midnightblue" stroke="midnightblue" points="147.43,-481.5 137.43,-485 147.43,-488.5 147.43,-481.5"/>
</g>
<!-- Node57 -->
<g id="node3" class="node">
<title>Node57</title>
<g id="a_node3"><a xlink:href="classSignalIntegrity_1_1Lib_1_1ImpedanceProfile_1_1PeeledLaunches_1_1PeeledLaunches.xhtml" target="_top" xlink:title="S&#45;parameters with launches peeled from them.">
<polygon fill="white" stroke="black" points="384.5,-646.5 384.5,-665.5 479.5,-665.5 479.5,-646.5 384.5,-646.5"/>
<text text-anchor="middle" x="432" y="-653.5" font-family="Helvetica,sans-Serif" font-size="10.00">PeeledLaunches</text>
</a>
</g>
</g>
<!-- Node56&#45;&gt;Node57 -->
<g id="edge2" class="edge">
<title>Node56&#45;&gt;Node57</title>
<path fill="none" stroke="midnightblue" d="M245.33,-504.12C258.08,-536.92 288.79,-603.59 338,-637 351.5,-646.16 368.46,-651.08 384.2,-653.67"/>
<polygon fill="midnightblue" stroke="midnightblue" points="248.6,-502.88 241.81,-494.75 242.05,-505.34 248.6,-502.88"/>
</g>
<!-- Node58 -->
<g id="node4" class="node">
<title>Node58</title>
<g id="a_node4"><a xlink:href="classSignalIntegrity_1_1Lib_1_1ImpedanceProfile_1_1PeeledPortSParameters_1_1PeeledPortSParameters.xhtml" target="_top" xlink:title="s&#45;parameters of peeled impedance profile from port calculates the impedance profile looking into a po...">
<polygon fill="white" stroke="black" points="366.5,-608.5 366.5,-627.5 497.5,-627.5 497.5,-608.5 366.5,-608.5"/>
<text text-anchor="middle" x="432" y="-615.5" font-family="Helvetica,sans-Serif" font-size="10.00">PeeledPortSParameters</text>
</a>
</g>
</g>
<!-- Node56&#45;&gt;Node58 -->
<g id="edge3" class="edge">
<title>Node56&#45;&gt;Node58</title>
<path fill="none" stroke="midnightblue" d="M249.03,-503.26C264.87,-528.97 297.34,-575.32 338,-599 346.69,-604.06 356.51,-607.79 366.44,-610.53"/>
<polygon fill="midnightblue" stroke="midnightblue" points="251.93,-501.3 243.79,-494.51 245.93,-504.89 251.93,-501.3"/>
</g>
<!-- Node59 -->
<g id="node5" class="node">
<title>Node59</title>
<g id="a_node5"><a xlink:href="classSignalIntegrity_1_1Lib_1_1Measurement_1_1Calibration_1_1NetworkAnalyzer_1_1NetworkAnalyzer.xhtml" target="_top" xlink:title="produces calibrated or uncalibrated s&#45;parameters from a network analyzer.">
<polygon fill="white" stroke="black" points="381.5,-570.5 381.5,-589.5 482.5,-589.5 482.5,-570.5 381.5,-570.5"/>
<text text-anchor="middle" x="432" y="-577.5" font-family="Helvetica,sans-Serif" font-size="10.00">NetworkAnalyzer</text>
</a>
</g>
</g>
<!-- Node56&#45;&gt;Node59 -->
<g id="edge4" class="edge">
<title>Node56&#45;&gt;Node59</title>
<path fill="none" stroke="midnightblue" d="M255.32,-501.75C273.93,-519.28 305.6,-546.26 338,-561 351.5,-567.14 367,-571.31 381.43,-574.14"/>
<polygon fill="midnightblue" stroke="midnightblue" points="257.59,-499.07 247.96,-494.66 252.73,-504.11 257.59,-499.07"/>
</g>
<!-- Node60 -->
<g id="node6" class="node">
<title>Node60</title>
<g id="a_node6"><a xlink:href="classSignalIntegrity_1_1Lib_1_1Measurement_1_1CalKit_1_1Standards_1_1LoadStandard_1_1LoadStandard.xhtml" target="_top" xlink:title="Class providing the s&#45;parameters of a load standard as commonly defined for a calibration kit.">
<polygon fill="white" stroke="black" points="390.5,-532.5 390.5,-551.5 473.5,-551.5 473.5,-532.5 390.5,-532.5"/>
<text text-anchor="middle" x="432" y="-539.5" font-family="Helvetica,sans-Serif" font-size="10.00">LoadStandard</text>
</a>
</g>
</g>
<!-- Node56&#45;&gt;Node60 -->
<g id="edge5" class="edge">
<title>Node56&#45;&gt;Node60</title>
<path fill="none" stroke="midnightblue" d="M269.54,-498.36C288.94,-506.33 314.61,-516.19 338,-523 354.93,-527.93 373.96,-532.05 390.37,-535.19"/>
<polygon fill="midnightblue" stroke="midnightblue" points="270.86,-495.11 260.28,-494.5 268.16,-501.58 270.86,-495.11"/>
</g>
<!-- Node61 -->
<g id="node7" class="node">
<title>Node61</title>
<g id="a_node7"><a xlink:href="classSignalIntegrity_1_1Lib_1_1Measurement_1_1CalKit_1_1Standards_1_1Offset_1_1Offset.xhtml" target="_top" xlink:title="class providing the s&#45;parameters of an offset portion of the various calibration standards for a cali...">
<polygon fill="white" stroke="black" points="408.5,-494.5 408.5,-513.5 455.5,-513.5 455.5,-494.5 408.5,-494.5"/>
<text text-anchor="middle" x="432" y="-501.5" font-family="Helvetica,sans-Serif" font-size="10.00">Offset</text>
</a>
</g>
</g>
<!-- Node56&#45;&gt;Node61 -->
<g id="edge6" class="edge">
<title>Node56&#45;&gt;Node61</title>
<path fill="none" stroke="midnightblue" d="M287.51,-489.84C326.35,-493.67 378.82,-498.85 408.36,-501.77"/>
<polygon fill="midnightblue" stroke="midnightblue" points="287.75,-486.34 277.46,-488.84 287.06,-493.31 287.75,-486.34"/>
</g>
<!-- Node63 -->
<g id="node9" class="node">
<title>Node63</title>
<g id="a_node9"><a xlink:href="classSignalIntegrity_1_1Lib_1_1Measurement_1_1CalKit_1_1Standards_1_1OpenStandard_1_1OpenStandard.xhtml" target="_top" xlink:title="class providing the s&#45;parameters of an open standard as commonly defined for a calibration kit.">
<polygon fill="white" stroke="black" points="389,-456.5 389,-475.5 475,-475.5 475,-456.5 389,-456.5"/>
<text text-anchor="middle" x="432" y="-463.5" font-family="Helvetica,sans-Serif" font-size="10.00">OpenStandard</text>
</a>
</g>
</g>
<!-- Node56&#45;&gt;Node63 -->
<g id="edge8" class="edge">
<title>Node56&#45;&gt;Node63</title>
<path fill="none" stroke="midnightblue" d="M287.69,-480.15C318.93,-477.06 358.96,-473.11 388.76,-470.17"/>
<polygon fill="midnightblue" stroke="midnightblue" points="287.06,-476.69 277.46,-481.16 287.75,-483.66 287.06,-476.69"/>
</g>
<!-- Node64 -->
<g id="node10" class="node">
<title>Node64</title>
<g id="a_node10"><a xlink:href="classSignalIntegrity_1_1Lib_1_1Measurement_1_1CalKit_1_1Standards_1_1ShortStandard_1_1ShortStandard.xhtml" target="_top" xlink:title="Class providing the s&#45;parameters of a short standard as commonly defined for a calibration kit.">
<polygon fill="white" stroke="black" points="389,-418.5 389,-437.5 475,-437.5 475,-418.5 389,-418.5"/>
<text text-anchor="middle" x="432" y="-425.5" font-family="Helvetica,sans-Serif" font-size="10.00">ShortStandard</text>
</a>
</g>
</g>
<!-- Node56&#45;&gt;Node64 -->
<g id="edge9" class="edge">
<title>Node56&#45;&gt;Node64</title>
<path fill="none" stroke="midnightblue" d="M269.54,-471.64C288.94,-463.67 314.61,-453.81 338,-447 354.46,-442.21 372.89,-438.18 388.98,-435.08"/>
<polygon fill="midnightblue" stroke="midnightblue" points="268.16,-468.42 260.28,-475.5 270.86,-474.89 268.16,-468.42"/>
</g>
<!-- Node1 -->
<g id="node11" class="node">
<title>Node1</title>
<g id="a_node11"><a xlink:href="classSignalIntegrity_1_1Lib_1_1Measurement_1_1CalKit_1_1Standards_1_1TerminationPolynomial_1_1TerminationCPolynomial.xhtml" target="_top" xlink:title="Class for capacitive terminations for open calibration standards.">
<polygon fill="white" stroke="black" points="364,-950.5 364,-969.5 500,-969.5 500,-950.5 364,-950.5"/>
<text text-anchor="middle" x="432" y="-957.5" font-family="Helvetica,sans-Serif" font-size="10.00">TerminationCPolynomial</text>
</a>
</g>
</g>
<!-- Node56&#45;&gt;Node1 -->
<g id="edge10" class="edge">
<title>Node56&#45;&gt;Node1</title>
<path fill="none" stroke="midnightblue" d="M239.99,-504.58C246.39,-583.63 274.23,-878.07 338,-941 345.16,-948.06 354.18,-952.84 363.78,-956.01"/>
<polygon fill="midnightblue" stroke="midnightblue" points="243.47,-504.23 239.2,-494.53 236.49,-504.78 243.47,-504.23"/>
</g>
<!-- Node2 -->
<g id="node12" class="node">
<title>Node2</title>
<g id="a_node12"><a xlink:href="classSignalIntegrity_1_1Lib_1_1Measurement_1_1CalKit_1_1Standards_1_1TerminationPolynomial_1_1TerminationLPolynomial.xhtml" target="_top" xlink:title="Class for inductive terminations for short calibration standards.">
<polygon fill="white" stroke="black" points="365,-912.5 365,-931.5 499,-931.5 499,-912.5 365,-912.5"/>
<text text-anchor="middle" x="432" y="-919.5" font-family="Helvetica,sans-Serif" font-size="10.00">TerminationLPolynomial</text>
</a>
</g>
</g>
<!-- Node56&#45;&gt;Node2 -->
<g id="edge11" class="edge">
<title>Node56&#45;&gt;Node2</title>
<path fill="none" stroke="midnightblue" d="M240.43,-504.86C248.15,-580.08 279.25,-846.11 338,-903 345.46,-910.22 354.88,-915.04 364.84,-918.2"/>
<polygon fill="midnightblue" stroke="midnightblue" points="243.91,-504.44 239.43,-494.84 236.94,-505.14 243.91,-504.44"/>
</g>
<!-- Node65 -->
<g id="node13" class="node">
<title>Node65</title>
<g id="a_node13"><a xlink:href="classSignalIntegrity_1_1Lib_1_1SParameters_1_1Devices_1_1MixedModeTline_1_1MixedModeTLine.xhtml" target="_top" xlink:title="s&#45;parameters of a mixed&#45;mode, balanced transmission line">
<polygon fill="white" stroke="black" points="382,-380.5 382,-399.5 482,-399.5 482,-380.5 382,-380.5"/>
<text text-anchor="middle" x="432" y="-387.5" font-family="Helvetica,sans-Serif" font-size="10.00">MixedModeTLine</text>
</a>
</g>
</g>
<!-- Node56&#45;&gt;Node65 -->
<g id="edge12" class="edge">
<title>Node56&#45;&gt;Node65</title>
<path fill="none" stroke="midnightblue" d="M255.32,-468.25C273.93,-450.72 305.6,-423.74 338,-409 351.65,-402.79 367.35,-398.6 381.91,-395.77"/>
<polygon fill="midnightblue" stroke="midnightblue" points="252.73,-465.89 247.96,-475.34 257.59,-470.93 252.73,-465.89"/>
</g>
<!-- Node66 -->
<g id="node14" class="node">
<title>Node66</title>
<g id="a_node14"><a xlink:href="classSignalIntegrity_1_1Lib_1_1SParameters_1_1Devices_1_1Mutual_1_1Mutual.xhtml" target="_top" xlink:title="s&#45;parameters of a mutual inductance">
<polygon fill="white" stroke="black" points="407,-342.5 407,-361.5 457,-361.5 457,-342.5 407,-342.5"/>
<text text-anchor="middle" x="432" y="-349.5" font-family="Helvetica,sans-Serif" font-size="10.00">Mutual</text>
</a>
</g>
</g>
<!-- Node56&#45;&gt;Node66 -->
<g id="edge13" class="edge">
<title>Node56&#45;&gt;Node66</title>
<path fill="none" stroke="midnightblue" d="M249.03,-466.74C264.87,-441.03 297.34,-394.68 338,-371 359.22,-358.64 387.24,-354.23 406.96,-352.71"/>
<polygon fill="midnightblue" stroke="midnightblue" points="245.93,-465.11 243.79,-475.49 251.93,-468.7 245.93,-465.11"/>
</g>
<!-- Node67 -->
<g id="node15" class="node">
<title>Node67</title>
<g id="a_node15"><a xlink:href="classSignalIntegrity_1_1Lib_1_1SParameters_1_1Devices_1_1SeriesC_1_1SeriesC.xhtml" target="_top" xlink:title="s&#45;parameters of a series capacitance">
<polygon fill="white" stroke="black" points="405.5,-304.5 405.5,-323.5 458.5,-323.5 458.5,-304.5 405.5,-304.5"/>
<text text-anchor="middle" x="432" y="-311.5" font-family="Helvetica,sans-Serif" font-size="10.00">SeriesC</text>
</a>
</g>
</g>
<!-- Node56&#45;&gt;Node67 -->
<g id="edge14" class="edge">
<title>Node56&#45;&gt;Node67</title>
<path fill="none" stroke="midnightblue" d="M245.33,-465.88C258.08,-433.08 288.79,-366.41 338,-333 357.91,-319.49 385.36,-315.21 405.27,-314.02"/>
<polygon fill="midnightblue" stroke="midnightblue" points="242.05,-464.66 241.81,-475.25 248.6,-467.12 242.05,-464.66"/>
</g>
<!-- Node68 -->
<g id="node16" class="node">
<title>Node68</title>
<g id="a_node16"><a xlink:href="classSignalIntegrity_1_1Lib_1_1SParameters_1_1Devices_1_1SeriesL_1_1SeriesL.xhtml" target="_top" xlink:title="s&#45;parameters of a series inductance">
<polygon fill="white" stroke="black" points="406,-266.5 406,-285.5 458,-285.5 458,-266.5 406,-266.5"/>
<text text-anchor="middle" x="432" y="-273.5" font-family="Helvetica,sans-Serif" font-size="10.00">SeriesL</text>
</a>
</g>
</g>
<!-- Node56&#45;&gt;Node68 -->
<g id="edge15" class="edge">
<title>Node56&#45;&gt;Node68</title>
<path fill="none" stroke="midnightblue" d="M242.84,-465.33C252.56,-426.21 279.92,-338.69 338,-295 357.49,-280.34 385.53,-276.28 405.72,-275.46"/>
<polygon fill="midnightblue" stroke="midnightblue" points="239.4,-464.67 240.51,-475.2 246.22,-466.27 239.4,-464.67"/>
</g>
<!-- Node69 -->
<g id="node17" class="node">
<title>Node69</title>
<g id="a_node17"><a xlink:href="classSignalIntegrity_1_1Lib_1_1SParameters_1_1Devices_1_1SeriesRse_1_1SeriesRse.xhtml" target="_top" xlink:title="s&#45;parameters of series skin&#45;effect Resistance">
<polygon fill="white" stroke="black" points="399.5,-228.5 399.5,-247.5 464.5,-247.5 464.5,-228.5 399.5,-228.5"/>
<text text-anchor="middle" x="432" y="-235.5" font-family="Helvetica,sans-Serif" font-size="10.00">SeriesRse</text>
</a>
</g>
</g>
<!-- Node56&#45;&gt;Node69 -->
<g id="edge16" class="edge">
<title>Node56&#45;&gt;Node69</title>
<path fill="none" stroke="midnightblue" d="M241.01,-465.21C247.77,-420.52 270.68,-311.49 338,-257 355.16,-243.11 379.84,-238.55 399.46,-237.37"/>
<polygon fill="midnightblue" stroke="midnightblue" points="237.51,-464.95 239.59,-475.34 244.44,-465.92 237.51,-464.95"/>
</g>
<!-- Node70 -->
<g id="node18" class="node">
<title>Node70</title>
<g id="a_node18"><a xlink:href="classSignalIntegrity_1_1Lib_1_1SParameters_1_1Devices_1_1TerminationC_1_1TerminationC.xhtml" target="_top" xlink:title="s&#45;parameters of a termination (one&#45;port) capacitance">
<polygon fill="white" stroke="black" points="391.5,-190.5 391.5,-209.5 472.5,-209.5 472.5,-190.5 391.5,-190.5"/>
<text text-anchor="middle" x="432" y="-197.5" font-family="Helvetica,sans-Serif" font-size="10.00">TerminationC</text>
</a>
</g>
</g>
<!-- Node56&#45;&gt;Node70 -->
<g id="edge17" class="edge">
<title>Node56&#45;&gt;Node70</title>
<path fill="none" stroke="midnightblue" d="M239.62,-465.38C243.58,-415.78 261.15,-284.68 338,-219 352.66,-206.47 373.34,-201.43 391.48,-199.64"/>
<polygon fill="midnightblue" stroke="midnightblue" points="236.13,-465.19 238.93,-475.41 243.11,-465.68 236.13,-465.19"/>
</g>
<!-- Node71 -->
<g id="node19" class="node">
<title>Node71</title>
<g id="a_node19"><a xlink:href="classSignalIntegrity_1_1Lib_1_1SParameters_1_1Devices_1_1TerminationL_1_1TerminationL.xhtml" target="_top" xlink:title="s&#45;parameters of a termination (one&#45;port) inductance">
<polygon fill="white" stroke="black" points="392,-152.5 392,-171.5 472,-171.5 472,-152.5 392,-152.5"/>
<text text-anchor="middle" x="432" y="-159.5" font-family="Helvetica,sans-Serif" font-size="10.00">TerminationL</text>
</a>
</g>
</g>
<!-- Node56&#45;&gt;Node71 -->
<g id="edge18" class="edge">
<title>Node56&#45;&gt;Node71</title>
<path fill="none" stroke="midnightblue" d="M238.58,-465.2C239.96,-410.79 251.69,-257.93 338,-181 352.52,-168.06 373.41,-163.01 391.72,-161.33"/>
<polygon fill="midnightblue" stroke="midnightblue" points="235.08,-465.2 238.43,-475.26 242.08,-465.31 235.08,-465.2"/>
</g>
<!-- Node72 -->
<g id="node20" class="node">
<title>Node72</title>
<g id="a_node20"><a xlink:href="classSignalIntegrity_1_1Lib_1_1SParameters_1_1Devices_1_1TLineDifferentialRLGC_1_1TLineDifferentialRLGC.xhtml" target="_top" xlink:title="s&#45;parameters of differential RLGC (telegrapher&#39;s) transmission line">
<polygon fill="white" stroke="black" points="369.5,-114.5 369.5,-133.5 494.5,-133.5 494.5,-114.5 369.5,-114.5"/>
<text text-anchor="middle" x="432" y="-121.5" font-family="Helvetica,sans-Serif" font-size="10.00">TLineDifferentialRLGC</text>
</a>
</g>
</g>
<!-- Node56&#45;&gt;Node72 -->
<g id="edge19" class="edge">
<title>Node56&#45;&gt;Node72</title>
<path fill="none" stroke="midnightblue" d="M237.75,-465.16C236.68,-406.31 242.08,-231.39 338,-143 346.73,-134.96 357.9,-129.94 369.45,-126.88"/>
<polygon fill="midnightblue" stroke="midnightblue" points="234.25,-465.42 238.02,-475.32 241.25,-465.23 234.25,-465.42"/>
</g>
<!-- Node73 -->
<g id="node21" class="node">
<title>Node73</title>
<g id="a_node21"><a xlink:href="classSignalIntegrity_1_1Lib_1_1SParameters_1_1Devices_1_1TLineDifferentialRLGCApproximate_1_1TLineDifferentialRLGCApproximate.xhtml" target="_top" xlink:title="s&#45;parameters of differential RLGC (telegrapher&#39;s) transmission line calculated by approximating distr...">
<polygon fill="white" stroke="black" points="338,-76.5 338,-95.5 526,-95.5 526,-76.5 338,-76.5"/>
<text text-anchor="middle" x="432" y="-83.5" font-family="Helvetica,sans-Serif" font-size="10.00">TLineDifferentialRLGCApproximate</text>
</a>
</g>
</g>
<!-- Node56&#45;&gt;Node73 -->
<g id="edge20" class="edge">
<title>Node56&#45;&gt;Node73</title>
<path fill="none" stroke="midnightblue" d="M240.93,-465.16C250.01,-394.41 284.17,-155.97 338,-105 341.95,-101.26 346.42,-98.17 351.23,-95.62"/>
<polygon fill="midnightblue" stroke="midnightblue" points="237.43,-465 239.65,-475.36 244.37,-465.87 237.43,-465"/>
</g>
<!-- Node74 -->
<g id="node22" class="node">
<title>Node74</title>
<g id="a_node22"><a xlink:href="classSignalIntegrity_1_1Lib_1_1SParameters_1_1Devices_1_1TLineDifferentialRLGCBalanced_1_1TLineDifferentialRLGCBalanced.xhtml" target="_top" xlink:title="s&#45;parameters of analytic balanced differential RLGC (telegrapher&#39;s) transmission line.">
<polygon fill="white" stroke="black" points="347,-38.5 347,-57.5 517,-57.5 517,-38.5 347,-38.5"/>
<text text-anchor="middle" x="432" y="-45.5" font-family="Helvetica,sans-Serif" font-size="10.00">TLineDifferentialRLGCBalanced</text>
</a>
</g>
</g>
<!-- Node56&#45;&gt;Node74 -->
<g id="edge21" class="edge">
<title>Node56&#45;&gt;Node74</title>
<path fill="none" stroke="midnightblue" d="M240.43,-465.14C248.15,-389.92 279.25,-123.89 338,-67 341.91,-63.22 346.35,-60.09 351.13,-57.52"/>
<polygon fill="midnightblue" stroke="midnightblue" points="236.94,-464.86 239.43,-475.16 243.91,-465.56 236.94,-464.86"/>
</g>
<!-- Node75 -->
<g id="node23" class="node">
<title>Node75</title>
<g id="a_node23"><a xlink:href="classSignalIntegrity_1_1Lib_1_1SParameters_1_1Devices_1_1TLineDifferentialRLGCUncoupled_1_1TLineDifferentialRLGCUncoupled.xhtml" target="_top" xlink:title="s&#45;parameters of analytic uncoupled differential RLGC (telegrapher&#39;s) transmission line.">
<polygon fill="white" stroke="black" points="344,-0.5 344,-19.5 520,-19.5 520,-0.5 344,-0.5"/>
<text text-anchor="middle" x="432" y="-7.5" font-family="Helvetica,sans-Serif" font-size="10.00">TLineDifferentialRLGCUncoupled</text>
</a>
</g>
</g>
<!-- Node56&#45;&gt;Node75 -->
<g id="edge22" class="edge">
<title>Node56&#45;&gt;Node75</title>
<path fill="none" stroke="midnightblue" d="M239.99,-465.42C246.39,-386.37 274.23,-91.93 338,-29 341.75,-25.3 346.02,-22.22 350.62,-19.68"/>
<polygon fill="midnightblue" stroke="midnightblue" points="236.49,-465.22 239.2,-475.47 243.47,-465.77 236.49,-465.22"/>
</g>
<!-- Node76 -->
<g id="node24" class="node">
<title>Node76</title>
<g id="a_node24"><a xlink:href="classSignalIntegrity_1_1Lib_1_1SParameters_1_1Devices_1_1TLineLossless_1_1TLineLossless.xhtml" target="_top" xlink:title="s&#45;parameters of ideal lossless single&#45;ended transmission line">
<polygon fill="white" stroke="black" points="390,-874.5 390,-893.5 474,-893.5 474,-874.5 390,-874.5"/>
<text text-anchor="middle" x="432" y="-881.5" font-family="Helvetica,sans-Serif" font-size="10.00">TLineLossless</text>
</a>
</g>
</g>
<!-- Node56&#45;&gt;Node76 -->
<g id="edge23" class="edge">
<title>Node56&#45;&gt;Node76</title>
<path fill="none" stroke="midnightblue" d="M240.93,-504.84C250.01,-575.59 284.17,-814.03 338,-865 351.76,-878.03 371.93,-883.19 389.96,-884.92"/>
<polygon fill="midnightblue" stroke="midnightblue" points="244.37,-504.13 239.65,-494.64 237.43,-505 244.37,-504.13"/>
</g>
<!-- Node77 -->
<g id="node25" class="node">
<title>Node77</title>
<g id="a_node25"><a xlink:href="classSignalIntegrity_1_1Lib_1_1SParameters_1_1Devices_1_1TLineTwoPortRLGC_1_1TLineTwoPortRLGC.xhtml" target="_top" xlink:title="s&#45;parameters of single&#45;ended RLGC (telegraphers) transmission line">
<polygon fill="white" stroke="black" points="378.5,-836.5 378.5,-855.5 485.5,-855.5 485.5,-836.5 378.5,-836.5"/>
<text text-anchor="middle" x="432" y="-843.5" font-family="Helvetica,sans-Serif" font-size="10.00">TLineTwoPortRLGC</text>
</a>
</g>
</g>
<!-- Node56&#45;&gt;Node77 -->
<g id="edge24" class="edge">
<title>Node56&#45;&gt;Node77</title>
<path fill="none" stroke="midnightblue" d="M237.75,-504.84C236.68,-563.69 242.08,-738.61 338,-827 348.91,-837.05 363.64,-842.38 378.16,-845.07"/>
<polygon fill="midnightblue" stroke="midnightblue" points="241.25,-504.77 238.02,-494.68 234.25,-504.58 241.25,-504.77"/>
</g>
<!-- Node78 -->
<g id="node26" class="node">
<title>Node78</title>
<g id="a_node26"><a xlink:href="classSignalIntegrity_1_1Lib_1_1SParameters_1_1Devices_1_1TLineTwoPortRLGCAnalytic_1_1TLineTwoPortRLGCAnalytic.xhtml" target="_top" xlink:title="s&#45;parameters of analytic single&#45;ended telegraphers transmission line">
<polygon fill="white" stroke="black" points="358.5,-798.5 358.5,-817.5 505.5,-817.5 505.5,-798.5 358.5,-798.5"/>
<text text-anchor="middle" x="432" y="-805.5" font-family="Helvetica,sans-Serif" font-size="10.00">TLineTwoPortRLGCAnalytic</text>
</a>
</g>
</g>
<!-- Node56&#45;&gt;Node78 -->
<g id="edge25" class="edge">
<title>Node56&#45;&gt;Node78</title>
<path fill="none" stroke="midnightblue" d="M238.58,-504.8C239.96,-559.21 251.69,-712.07 338,-789 343.9,-794.26 350.86,-798.22 358.28,-801.18"/>
<polygon fill="midnightblue" stroke="midnightblue" points="242.08,-504.69 238.43,-494.74 235.08,-504.8 242.08,-504.69"/>
</g>
<!-- Node79 -->
<g id="node27" class="node">
<title>Node79</title>
<g id="a_node27"><a xlink:href="classSignalIntegrity_1_1Lib_1_1SParameters_1_1Devices_1_1TLineTwoPortRLGCApproximate_1_1TLineTwoPortRLGCApproximate.xhtml" target="_top" xlink:title="s&#45;parameters of two port RLGC (telegrapher&#39;s) transmission line calculated by approximating distribut...">
<polygon fill="white" stroke="black" points="347,-760.5 347,-779.5 517,-779.5 517,-760.5 347,-760.5"/>
<text text-anchor="middle" x="432" y="-767.5" font-family="Helvetica,sans-Serif" font-size="10.00">TLineTwoPortRLGCApproximate</text>
</a>
</g>
</g>
<!-- Node56&#45;&gt;Node79 -->
<g id="edge26" class="edge">
<title>Node56&#45;&gt;Node79</title>
<path fill="none" stroke="midnightblue" d="M239.62,-504.62C243.58,-554.22 261.15,-685.32 338,-751 342.38,-754.75 347.31,-757.83 352.54,-760.35"/>
<polygon fill="midnightblue" stroke="midnightblue" points="243.11,-504.32 238.93,-494.59 236.13,-504.81 243.11,-504.32"/>
</g>
<!-- Node80 -->
<g id="node28" class="node">
<title>Node80</title>
<g id="a_node28"><a xlink:href="classSignalIntegrity_1_1Lib_1_1SParameters_1_1Devices_1_1WElement_1_1WElement.xhtml" target="_top" xlink:title="s&#45;parameters of of a W element is calculated by approximating distributed parameters with a finite nu...">
<polygon fill="white" stroke="black" points="398.5,-722.5 398.5,-741.5 465.5,-741.5 465.5,-722.5 398.5,-722.5"/>
<text text-anchor="middle" x="432" y="-729.5" font-family="Helvetica,sans-Serif" font-size="10.00">WElement</text>
</a>
</g>
</g>
<!-- Node56&#45;&gt;Node80 -->
<g id="edge27" class="edge">
<title>Node56&#45;&gt;Node80</title>
<path fill="none" stroke="midnightblue" d="M241.01,-504.79C247.77,-549.48 270.68,-658.51 338,-713 354.78,-726.58 378.74,-731.24 398.14,-732.55"/>
<polygon fill="midnightblue" stroke="midnightblue" points="244.44,-504.08 239.59,-494.66 237.51,-505.05 244.44,-504.08"/>
</g>
<!-- Node81 -->
<g id="node29" class="node">
<title>Node81</title>
<g id="a_node29"><a xlink:href="classSignalIntegrity_1_1Lib_1_1SParameters_1_1SParameterFile_1_1SParameterFile.xhtml" target="_top" xlink:title="class for s&#45;parameters read from a file">
<polygon fill="white" stroke="black" points="387,-684.5 387,-703.5 477,-703.5 477,-684.5 387,-684.5"/>
<text text-anchor="middle" x="432" y="-691.5" font-family="Helvetica,sans-Serif" font-size="10.00">SParameterFile</text>
</a>
</g>
</g>
<!-- Node56&#45;&gt;Node81 -->
<g id="edge28" class="edge">
<title>Node56&#45;&gt;Node81</title>
<path fill="none" stroke="midnightblue" d="M242.84,-504.67C252.56,-543.79 279.92,-631.31 338,-675 351.83,-685.4 369.96,-690.47 386.53,-692.82"/>
<polygon fill="midnightblue" stroke="midnightblue" points="246.22,-503.73 240.51,-494.8 239.4,-505.33 246.22,-503.73"/>
</g>
<!-- Node62 -->
<g id="node8" class="node">
<title>Node62</title>
<g id="a_node8"><a xlink:href="classSignalIntegrity_1_1Lib_1_1Measurement_1_1CalKit_1_1Standards_1_1ThruStandard_1_1ThruStandard.xhtml" target="_top" xlink:title="Class providing the s&#45;parameters of a thru standard as commonly defined for a calibration kit.">
<polygon fill="white" stroke="black" points="562,-494.5 562,-513.5 644,-513.5 644,-494.5 562,-494.5"/>
<text text-anchor="middle" x="603" y="-501.5" font-family="Helvetica,sans-Serif" font-size="10.00">ThruStandard</text>
</a>
</g>
</g>
<!-- Node61&#45;&gt;Node62 -->
<g id="edge7" class="edge">
<title>Node61&#45;&gt;Node62</title>
<path fill="none" stroke="midnightblue" d="M466.04,-504C493.46,-504 532.56,-504 561.79,-504"/>
<polygon fill="midnightblue" stroke="midnightblue" points="465.79,-500.5 455.79,-504 465.79,-507.5 465.79,-500.5"/>
</g>
<!-- Node0 -->
<g id="node30" class="node">
<title>Node0</title>
<g id="a_node30"><a xlink:href="classSignalIntegrity_1_1Lib_1_1Measurement_1_1CalKit_1_1Standards_1_1TerminationPolynomial_1_1TerminationPolynomial.xhtml" target="_top" xlink:title="Base class for terminations for calibration standards.">
<polygon fill="white" stroke="black" points="173,-931.5 173,-950.5 302,-950.5 302,-931.5 173,-931.5"/>
<text text-anchor="middle" x="237.5" y="-938.5" font-family="Helvetica,sans-Serif" font-size="10.00">TerminationPolynomial</text>
</a>
</g>
</g>
<!-- Node0&#45;&gt;Node1 -->
<g id="edge29" class="edge">
<title>Node0&#45;&gt;Node1</title>
<path fill="none" stroke="midnightblue" d="M312.45,-948.3C329.37,-949.97 347.26,-951.73 363.87,-953.37"/>
<polygon fill="midnightblue" stroke="midnightblue" points="312.36,-944.77 302.07,-947.27 311.67,-951.74 312.36,-944.77"/>
</g>
<!-- Node0&#45;&gt;Node2 -->
<g id="edge30" class="edge">
<title>Node0&#45;&gt;Node2</title>
<path fill="none" stroke="midnightblue" d="M312.14,-933.73C329.49,-932.02 347.87,-930.21 364.86,-928.53"/>
<polygon fill="midnightblue" stroke="midnightblue" points="311.67,-930.26 302.07,-934.73 312.36,-937.23 311.67,-930.26"/>
</g>
</g>
</svg>
