<?xml version="1.0" encoding="UTF-8" standalone="no"?>
<!DOCTYPE svg PUBLIC "-//W3C//DTD SVG 1.1//EN"
 "http://www.w3.org/Graphics/SVG/1.1/DTD/svg11.dtd">
<!-- Generated by graphviz version 2.43.0 (0)
 -->
<!-- Title: Graphical Class Hierarchy Pages: 1 -->
<svg width="492pt" height="203pt"
 viewBox="0.00 0.00 492.00 202.50" xmlns="http://www.w3.org/2000/svg" xmlns:xlink="http://www.w3.org/1999/xlink">
<g id="graph0" class="graph" transform="scale(1 1) rotate(0) translate(4 198.5)">
<title>Graphical Class Hierarchy</title>
<polygon fill="white" stroke="transparent" points="-4,4 -4,-198.5 488,-198.5 488,4 -4,4"/>
<!-- Node118 -->
<g id="node1" class="node">
<title>Node118</title>
<g id="a_node1"><a xlink:href="classSignalIntegrity_1_1Lib_1_1TimeDomain_1_1Filters_1_1FilterDescriptor_1_1FilterDescriptor.xhtml" target="_top" xlink:title="FilterDescriptor.py.">
<polygon fill="white" stroke="black" points="12,-156 12,-175 103,-175 103,-156 12,-156"/>
<text text-anchor="middle" x="57.5" y="-163" font-family="Helvetica,sans-Serif" font-size="10.00">FilterDescriptor</text>
</a>
</g>
</g>
<!-- Node9 -->
<g id="node2" class="node">
<title>Node9</title>
<g id="a_node2"><a xlink:href="classSignalIntegrity_1_1Lib_1_1TimeDomain_1_1Filters_1_1WaveformDecimator_1_1WaveformDecimator.xhtml" target="_top" xlink:title="decimates waveforms">
<polygon fill="white" stroke="black" points="166.5,-137 166.5,-156 285.5,-156 285.5,-137 166.5,-137"/>
<text text-anchor="middle" x="226" y="-144" font-family="Helvetica,sans-Serif" font-size="10.00">WaveformDecimator</text>
</a>
</g>
</g>
<!-- Node118&#45;&gt;Node9 -->
<g id="edge1" class="edge">
<title>Node118&#45;&gt;Node9</title>
<path fill="none" stroke="midnightblue" d="M113.44,-159.23C130.44,-157.29 149.23,-155.15 166.46,-153.18"/>
<polygon fill="midnightblue" stroke="midnightblue" points="112.66,-155.8 103.12,-160.41 113.45,-162.75 112.66,-155.8"/>
</g>
<!-- Node10 -->
<g id="node3" class="node">
<title>Node10</title>
<g id="a_node3"><a xlink:href="classSignalIntegrity_1_1Lib_1_1TimeDomain_1_1Filters_1_1WaveformTrimmer_1_1WaveformTrimmer.xhtml" target="_top" xlink:title="trims waveforms">
<polygon fill="white" stroke="black" points="171.5,-175 171.5,-194 280.5,-194 280.5,-175 171.5,-175"/>
<text text-anchor="middle" x="226" y="-182" font-family="Helvetica,sans-Serif" font-size="10.00">WaveformTrimmer</text>
</a>
</g>
</g>
<!-- Node118&#45;&gt;Node10 -->
<g id="edge2" class="edge">
<title>Node118&#45;&gt;Node10</title>
<path fill="none" stroke="midnightblue" d="M113.24,-171.75C131.92,-173.88 152.77,-176.26 171.36,-178.38"/>
<polygon fill="midnightblue" stroke="midnightblue" points="113.45,-168.25 103.12,-170.59 112.66,-175.2 113.45,-168.25"/>
</g>
<!-- Node0 -->
<g id="node4" class="node">
<title>Node0</title>
<g id="a_node4"><a xlink:href="classSignalIntegrity_1_1Lib_1_1TimeDomain_1_1Filters_1_1WaveformProcessor_1_1WaveformProcessor.xhtml" target="_top" xlink:title="WaveformProcessor.py.">
<polygon fill="white" stroke="black" points="0,-99 0,-118 115,-118 115,-99 0,-99"/>
<text text-anchor="middle" x="57.5" y="-106" font-family="Helvetica,sans-Serif" font-size="10.00">WaveformProcessor</text>
</a>
</g>
</g>
<!-- Node0&#45;&gt;Node9 -->
<g id="edge11" class="edge">
<title>Node0&#45;&gt;Node9</title>
<path fill="none" stroke="midnightblue" d="M110.31,-120.32C133.78,-125.68 161.17,-131.93 183.29,-136.98"/>
<polygon fill="midnightblue" stroke="midnightblue" points="111.04,-116.9 100.51,-118.09 109.49,-123.73 111.04,-116.9"/>
</g>
<!-- Node0&#45;&gt;Node10 -->
<g id="edge12" class="edge">
<title>Node0&#45;&gt;Node10</title>
<path fill="none" stroke="midnightblue" d="M81.25,-123.62C103.81,-138.4 136.98,-159.54 151,-165.5 159.79,-169.23 169.49,-172.37 178.89,-174.95"/>
<polygon fill="midnightblue" stroke="midnightblue" points="83.18,-120.69 72.9,-118.11 79.33,-126.54 83.18,-120.69"/>
</g>
<!-- Node1 -->
<g id="node5" class="node">
<title>Node1</title>
<g id="a_node5"><a xlink:href="classSignalIntegrity_1_1Lib_1_1TimeDomain_1_1Filters_1_1FirFilter_1_1FirFilter.xhtml" target="_top" xlink:title="base filter class for all FIR filters">
<polygon fill="white" stroke="black" points="200,-99 200,-118 252,-118 252,-99 200,-99"/>
<text text-anchor="middle" x="226" y="-106" font-family="Helvetica,sans-Serif" font-size="10.00">FirFilter</text>
</a>
</g>
</g>
<!-- Node0&#45;&gt;Node1 -->
<g id="edge3" class="edge">
<title>Node0&#45;&gt;Node1</title>
<path fill="none" stroke="midnightblue" d="M125.57,-108.5C151.63,-108.5 179.88,-108.5 199.59,-108.5"/>
<polygon fill="midnightblue" stroke="midnightblue" points="125.33,-105 115.33,-108.5 125.33,-112 125.33,-105"/>
</g>
<!-- Node7 -->
<g id="node11" class="node">
<title>Node7</title>
<g id="a_node11"><a xlink:href="classSignalIntegrity_1_1Lib_1_1TimeDomain_1_1Filters_1_1InterpolatorLinear_1_1InterpolatorFractionalDelayFilterLinear.xhtml" target="_top" xlink:title="combination linear fractional delay and interpolating filter">
<polygon fill="white" stroke="black" points="151,-49.5 151,-79.5 301,-79.5 301,-49.5 151,-49.5"/>
<text text-anchor="start" x="159" y="-67.5" font-family="Helvetica,sans-Serif" font-size="10.00">InterpolatorFractionalDelay</text>
<text text-anchor="middle" x="226" y="-56.5" font-family="Helvetica,sans-Serif" font-size="10.00">FilterLinear</text>
</a>
</g>
</g>
<!-- Node0&#45;&gt;Node7 -->
<g id="edge9" class="edge">
<title>Node0&#45;&gt;Node7</title>
<path fill="none" stroke="midnightblue" d="M104.55,-96.33C124.18,-91.14 147.29,-85.04 167.99,-79.57"/>
<polygon fill="midnightblue" stroke="midnightblue" points="103.4,-93.01 94.63,-98.95 105.19,-99.78 103.4,-93.01"/>
</g>
<!-- Node8 -->
<g id="node12" class="node">
<title>Node8</title>
<g id="a_node12"><a xlink:href="classSignalIntegrity_1_1Lib_1_1TimeDomain_1_1Filters_1_1InterpolatorSinX_1_1InterpolatorFractionalDelayFilterSinX.xhtml" target="_top" xlink:title="combination sinx/x fractional delay and interpolating filter">
<polygon fill="white" stroke="black" points="151,-0.5 151,-30.5 301,-30.5 301,-0.5 151,-0.5"/>
<text text-anchor="start" x="159" y="-18.5" font-family="Helvetica,sans-Serif" font-size="10.00">InterpolatorFractionalDelay</text>
<text text-anchor="middle" x="226" y="-7.5" font-family="Helvetica,sans-Serif" font-size="10.00">FilterSinX</text>
</a>
</g>
</g>
<!-- Node0&#45;&gt;Node8 -->
<g id="edge10" class="edge">
<title>Node0&#45;&gt;Node8</title>
<path fill="none" stroke="midnightblue" d="M76.68,-92.08C94.5,-76.7 123.01,-53.97 151,-39.5 157.36,-36.21 164.26,-33.26 171.2,-30.64"/>
<polygon fill="midnightblue" stroke="midnightblue" points="74.03,-89.75 68.83,-98.98 78.65,-95.01 74.03,-89.75"/>
</g>
<!-- Node2 -->
<g id="node6" class="node">
<title>Node2</title>
<g id="a_node6"><a xlink:href="classSignalIntegrity_1_1Lib_1_1TimeDomain_1_1Filters_1_1InterpolatorLinear_1_1FractionalDelayFilterLinear.xhtml" target="_top" xlink:title="linear fractional delay filter">
<polygon fill="white" stroke="black" points="337,-175 337,-194 484,-194 484,-175 337,-175"/>
<text text-anchor="middle" x="410.5" y="-182" font-family="Helvetica,sans-Serif" font-size="10.00">FractionalDelayFilterLinear</text>
</a>
</g>
</g>
<!-- Node1&#45;&gt;Node2 -->
<g id="edge4" class="edge">
<title>Node1&#45;&gt;Node2</title>
<path fill="none" stroke="midnightblue" d="M262.24,-113.36C275.06,-116.18 289.27,-120.6 301,-127.5 321.05,-139.3 316.98,-153.65 337,-165.5 343.49,-169.34 350.77,-172.42 358.13,-174.88"/>
<polygon fill="midnightblue" stroke="midnightblue" points="262.82,-109.9 252.33,-111.42 261.48,-116.77 262.82,-109.9"/>
</g>
<!-- Node3 -->
<g id="node7" class="node">
<title>Node3</title>
<g id="a_node7"><a xlink:href="classSignalIntegrity_1_1Lib_1_1TimeDomain_1_1Filters_1_1InterpolatorLinear_1_1InterpolatorLinear.xhtml" target="_top" xlink:title="linear interpolating filter">
<polygon fill="white" stroke="black" points="358.5,-137 358.5,-156 462.5,-156 462.5,-137 358.5,-137"/>
<text text-anchor="middle" x="410.5" y="-144" font-family="Helvetica,sans-Serif" font-size="10.00">InterpolatorLinear</text>
</a>
</g>
</g>
<!-- Node1&#45;&gt;Node3 -->
<g id="edge5" class="edge">
<title>Node1&#45;&gt;Node3</title>
<path fill="none" stroke="midnightblue" d="M262.42,-115.88C291.28,-121.88 332.23,-130.41 363.6,-136.94"/>
<polygon fill="midnightblue" stroke="midnightblue" points="262.88,-112.4 252.38,-113.78 261.45,-119.25 262.88,-112.4"/>
</g>
<!-- Node4 -->
<g id="node8" class="node">
<title>Node4</title>
<g id="a_node8"><a xlink:href="classSignalIntegrity_1_1Lib_1_1TimeDomain_1_1Filters_1_1InterpolatorSinX_1_1FractionalDelayFilterSinX.xhtml" target="_top" xlink:title="sinx/x fractional delay filter">
<polygon fill="white" stroke="black" points="341,-99 341,-118 480,-118 480,-99 341,-99"/>
<text text-anchor="middle" x="410.5" y="-106" font-family="Helvetica,sans-Serif" font-size="10.00">FractionalDelayFilterSinX</text>
</a>
</g>
</g>
<!-- Node1&#45;&gt;Node4 -->
<g id="edge6" class="edge">
<title>Node1&#45;&gt;Node4</title>
<path fill="none" stroke="midnightblue" d="M262.66,-108.5C284.85,-108.5 314.13,-108.5 340.71,-108.5"/>
<polygon fill="midnightblue" stroke="midnightblue" points="262.38,-105 252.38,-108.5 262.38,-112 262.38,-105"/>
</g>
<!-- Node5 -->
<g id="node9" class="node">
<title>Node5</title>
<g id="a_node9"><a xlink:href="classSignalIntegrity_1_1Lib_1_1TimeDomain_1_1Filters_1_1InterpolatorSinX_1_1InterpolatorSinX.xhtml" target="_top" xlink:title="sinx/x interpolating filter">
<polygon fill="white" stroke="black" points="363,-61 363,-80 458,-80 458,-61 363,-61"/>
<text text-anchor="middle" x="410.5" y="-68" font-family="Helvetica,sans-Serif" font-size="10.00">InterpolatorSinX</text>
</a>
</g>
</g>
<!-- Node1&#45;&gt;Node5 -->
<g id="edge7" class="edge">
<title>Node1&#45;&gt;Node5</title>
<path fill="none" stroke="midnightblue" d="M262.42,-101.12C291.28,-95.12 332.23,-86.59 363.6,-80.06"/>
<polygon fill="midnightblue" stroke="midnightblue" points="261.45,-97.75 252.38,-103.22 262.88,-104.6 261.45,-97.75"/>
</g>
<!-- Node6 -->
<g id="node10" class="node">
<title>Node6</title>
<g id="a_node10"><a xlink:href="classSignalIntegrity_1_1Lib_1_1TimeDomain_1_1Filters_1_1RaisedCosineFilter_1_1RaisedCosineFilter.xhtml" target="_top" xlink:title="raised cosine filter">
<polygon fill="white" stroke="black" points="357,-23 357,-42 464,-42 464,-23 357,-23"/>
<text text-anchor="middle" x="410.5" y="-30" font-family="Helvetica,sans-Serif" font-size="10.00">RaisedCosineFilter</text>
</a>
</g>
</g>
<!-- Node1&#45;&gt;Node6 -->
<g id="edge8" class="edge">
<title>Node1&#45;&gt;Node6</title>
<path fill="none" stroke="midnightblue" d="M262.24,-103.64C275.06,-100.82 289.27,-96.4 301,-89.5 321.05,-77.7 316.98,-63.35 337,-51.5 343.49,-47.66 350.77,-44.58 358.13,-42.12"/>
<polygon fill="midnightblue" stroke="midnightblue" points="261.48,-100.23 252.33,-105.58 262.82,-107.1 261.48,-100.23"/>
</g>
</g>
</svg>
